G04 #@! TF.GenerationSoftware,KiCad,Pcbnew,7.0.8*
G04 #@! TF.CreationDate,2023-11-27T14:39:53-06:00*
G04 #@! TF.ProjectId,Flight_Board,466c6967-6874-45f4-926f-6172642e6b69,rev?*
G04 #@! TF.SameCoordinates,Original*
G04 #@! TF.FileFunction,Copper,L2,Inr*
G04 #@! TF.FilePolarity,Positive*
%FSLAX46Y46*%
G04 Gerber Fmt 4.6, Leading zero omitted, Abs format (unit mm)*
G04 Created by KiCad (PCBNEW 7.0.8) date 2023-11-27 14:39:53*
%MOMM*%
%LPD*%
G01*
G04 APERTURE LIST*
G04 #@! TA.AperFunction,ComponentPad*
%ADD10C,0.600000*%
G04 #@! TD*
G04 #@! TA.AperFunction,ComponentPad*
%ADD11R,1.700000X1.700000*%
G04 #@! TD*
G04 #@! TA.AperFunction,ComponentPad*
%ADD12O,1.700000X1.700000*%
G04 #@! TD*
G04 #@! TA.AperFunction,ComponentPad*
%ADD13R,2.400000X2.400000*%
G04 #@! TD*
G04 #@! TA.AperFunction,ComponentPad*
%ADD14C,2.400000*%
G04 #@! TD*
G04 #@! TA.AperFunction,ViaPad*
%ADD15C,0.800000*%
G04 #@! TD*
G04 #@! TA.AperFunction,Conductor*
%ADD16C,0.250000*%
G04 #@! TD*
G04 APERTURE END LIST*
D10*
G04 #@! TO.N,GND*
G04 #@! TO.C,U8*
X140836000Y-128140000D03*
X140836000Y-128840000D03*
X140836000Y-129540000D03*
X140836000Y-130240000D03*
X140836000Y-130940000D03*
X141736000Y-128140000D03*
X141736000Y-128840000D03*
X141736000Y-129540000D03*
X141736000Y-130240000D03*
X141736000Y-130940000D03*
X142636000Y-128140000D03*
X142636000Y-128840000D03*
X142636000Y-129540000D03*
X142636000Y-130240000D03*
X142636000Y-130940000D03*
G04 #@! TD*
D11*
G04 #@! TO.N,+3.3V*
G04 #@! TO.C,J3*
X138811000Y-100086000D03*
D12*
G04 #@! TO.N,/Microcontroller/UART_TX*
X138811000Y-102626000D03*
G04 #@! TO.N,/Microcontroller/UART_RX*
X138811000Y-105166000D03*
G04 #@! TO.N,GND*
X138811000Y-107706000D03*
G04 #@! TD*
D11*
G04 #@! TO.N,+3.3V*
G04 #@! TO.C,J4*
X166243000Y-112014000D03*
D12*
G04 #@! TO.N,/Microcontroller/SWCLK*
X166243000Y-109474000D03*
G04 #@! TO.N,GND*
X166243000Y-106934000D03*
G04 #@! TO.N,/Microcontroller/SWDIO*
X166243000Y-104394000D03*
G04 #@! TO.N,/Microcontroller/NRST*
X166243000Y-101854000D03*
G04 #@! TO.N,/Microcontroller/SWO*
X166243000Y-99314000D03*
G04 #@! TD*
D13*
G04 #@! TO.N,GND*
G04 #@! TO.C,J2*
X148590000Y-143540000D03*
D14*
G04 #@! TO.N,/PYRO4*
X148590000Y-140040000D03*
G04 #@! TO.N,GND*
X148590000Y-136540000D03*
G04 #@! TO.N,/PYRO3*
X148590000Y-133040000D03*
G04 #@! TO.N,GND*
X148590000Y-129540000D03*
G04 #@! TO.N,/PYRO2*
X148590000Y-126040000D03*
G04 #@! TO.N,GND*
X148590000Y-122540000D03*
G04 #@! TO.N,/PYRO1*
X148590000Y-119040000D03*
G04 #@! TD*
D13*
G04 #@! TO.N,/VBAT*
G04 #@! TO.C,J1*
X156210000Y-133040000D03*
D14*
G04 #@! TO.N,GND*
X156210000Y-136540000D03*
G04 #@! TO.N,/VPYRO*
X156210000Y-140040000D03*
G04 #@! TO.N,GND*
X156210000Y-143540000D03*
G04 #@! TD*
D15*
G04 #@! TO.N,+3.3V*
X162776500Y-93345000D03*
X155732500Y-87002000D03*
X153352853Y-95313853D03*
X158115000Y-113538000D03*
X160147000Y-117602000D03*
X155448000Y-130048000D03*
X158115000Y-138176000D03*
X159766000Y-122428000D03*
X165697000Y-89827000D03*
X151257000Y-90678000D03*
X151257000Y-117348000D03*
X166599000Y-86589000D03*
X147701000Y-116459000D03*
X145796000Y-95377000D03*
X147701000Y-95377000D03*
X164973000Y-128270000D03*
X155702000Y-84074000D03*
X155702000Y-81915000D03*
X141732000Y-106045000D03*
X157861000Y-95377000D03*
X137541000Y-93726000D03*
X163830000Y-122301000D03*
X139065000Y-134526250D03*
X143383000Y-112268000D03*
X152400000Y-145415000D03*
X138684000Y-74295000D03*
G04 #@! TO.N,GND*
X163577750Y-137390000D03*
X166244750Y-134596000D03*
X154178000Y-85725000D03*
X165355750Y-134596000D03*
X163577750Y-138279000D03*
X164466750Y-138279000D03*
X157861000Y-122428000D03*
X166244750Y-135485000D03*
X143383000Y-115062000D03*
X159385000Y-99187000D03*
X165100000Y-126746000D03*
X159893000Y-129540000D03*
X165570000Y-93256000D03*
X165355750Y-133707000D03*
X162776000Y-90234500D03*
X166244750Y-136501000D03*
X137922000Y-98171000D03*
X146050000Y-82296000D03*
X157734000Y-72263000D03*
X167133750Y-138279000D03*
X166244750Y-138279000D03*
X146558000Y-76073000D03*
X153162000Y-122428000D03*
X166244750Y-133707000D03*
X167133750Y-137390000D03*
X167133750Y-134596000D03*
X155956000Y-96393000D03*
X145161000Y-98806000D03*
X157872000Y-117602000D03*
X164466750Y-133707000D03*
X156591000Y-113538000D03*
X158809200Y-96198200D03*
X164466750Y-137390000D03*
X165355750Y-138279000D03*
X141732000Y-112268000D03*
X167133750Y-133707000D03*
X138303000Y-138938000D03*
X167133750Y-136501000D03*
X165355750Y-137390000D03*
X166244750Y-137390000D03*
X156845000Y-129667000D03*
X163577750Y-134596000D03*
X145542000Y-96647000D03*
X167133750Y-135485000D03*
X163577750Y-133707000D03*
X164466750Y-134596000D03*
G04 #@! TO.N,/Microcontroller/NRST*
X156972000Y-100113500D03*
X163576000Y-100113500D03*
X148590000Y-101854000D03*
G04 #@! TO.N,/MicroSD/SDIO_CLK*
X158877000Y-121793000D03*
X158972000Y-118745000D03*
G04 #@! TO.N,/MicroSD/SDIO_CMD*
X160909000Y-121920000D03*
X161172000Y-114935000D03*
G04 #@! TO.N,/MicroSD/SDIO_D3*
X162306000Y-121920000D03*
X162272000Y-116967000D03*
G04 #@! TO.N,/MicroSD/SDIO_D2*
X163372000Y-118999000D03*
X165354000Y-121793000D03*
G04 #@! TO.N,/MicroSD/SDIO_D1*
X155575000Y-116332000D03*
X155448000Y-122428000D03*
G04 #@! TO.N,/MicroSD/SDIO_D0*
X156845000Y-118745000D03*
X156718000Y-121793000D03*
G04 #@! TO.N,/VPYRO*
X145542000Y-129921000D03*
X144399000Y-122555000D03*
X145542000Y-129032000D03*
X144399000Y-136525000D03*
X144780000Y-129540000D03*
G04 #@! TO.N,/Microcontroller/SWCLK*
X158496000Y-104267000D03*
G04 #@! TO.N,/Microcontroller/SWDIO*
X156218952Y-109990952D03*
G04 #@! TO.N,/Microcontroller/VBAT_ADC*
X142875000Y-102235000D03*
X149860000Y-110363000D03*
G04 #@! TO.N,/Accelerometer/SCL*
X160655000Y-97282000D03*
X163043000Y-81712000D03*
G04 #@! TO.N,/Accelerometer/SDA*
X166599000Y-81636000D03*
X161544000Y-96266000D03*
G04 #@! TO.N,/GPS/TXD*
X141672800Y-81085200D03*
X150884233Y-106979732D03*
G04 #@! TO.N,/GPS/RXD*
X140462000Y-81026000D03*
X149966134Y-107938530D03*
G04 #@! TO.N,/Current Switch/EN2*
X144907000Y-100630166D03*
X139856687Y-112534723D03*
G04 #@! TO.N,/Current Switch/EN3*
X147357065Y-102570337D03*
X140208000Y-114612500D03*
G04 #@! TO.N,/Current Switch/EN4*
X146526500Y-104902000D03*
X138938000Y-112141000D03*
G04 #@! TO.N,/LoRa/LORA_BUSY*
X150622000Y-94107000D03*
X150785781Y-105028281D03*
X153251500Y-93345000D03*
G04 #@! TO.N,/Barometer/MISO*
X151174234Y-110165146D03*
X160819500Y-90820750D03*
X155955500Y-92202000D03*
G04 #@! TO.N,/LoRa/LORA_MISO*
X149606000Y-84582000D03*
X148463000Y-104267000D03*
G04 #@! TO.N,/Accelerometer/INT1*
X159126701Y-103001299D03*
X165583000Y-87605000D03*
G04 #@! TO.N,/LoRa/LORA_MOSI*
X149225000Y-105029000D03*
X150749000Y-84582000D03*
G04 #@! TO.N,/LoRa/LORA_NSS*
X149298500Y-100838000D03*
X148463000Y-84582000D03*
G04 #@! TO.N,/LoRa/LORA_RST*
X149949500Y-95250000D03*
X149949500Y-104267000D03*
G04 #@! TO.N,/LoRa/LORA_DIO1*
X151638000Y-94615000D03*
X151511000Y-104267000D03*
G04 #@! TO.N,/IMU/INT1*
X153892500Y-94234000D03*
X150601039Y-109050040D03*
G04 #@! TO.N,/Barometer/INT*
X157353000Y-114808000D03*
X146304000Y-111252000D03*
X164846000Y-94488000D03*
G04 #@! TO.N,/Current Switch/~{ST2}*
X137160000Y-116967000D03*
X154164397Y-105777396D03*
G04 #@! TO.N,/Current Switch/~{ST3}*
X156172500Y-105601749D03*
X138285474Y-129565500D03*
G04 #@! TO.N,/Current Switch/~{ST4}*
X137287000Y-128905000D03*
X155440214Y-104782786D03*
G04 #@! TO.N,/Barometer/MOSI*
X160819500Y-88862500D03*
X157099000Y-88862500D03*
X151556891Y-108757891D03*
G04 #@! TO.N,/Barometer/SCK*
X153015260Y-108844564D03*
X155955195Y-94819479D03*
G04 #@! TO.N,/Current Switch/~{ST1}*
X138180299Y-116971299D03*
X154723500Y-106680000D03*
G04 #@! TO.N,/CS1*
X163576000Y-94488000D03*
X152527000Y-114807812D03*
G04 #@! TO.N,/CS2*
X151256500Y-118745000D03*
X158623000Y-105537000D03*
X155956000Y-90678000D03*
X159639000Y-89662000D03*
G04 #@! TD*
D16*
G04 #@! TO.N,/Barometer/INT*
X156016864Y-114808000D02*
X152460864Y-111252000D01*
X152460864Y-111252000D02*
X146304000Y-111252000D01*
X157353000Y-114808000D02*
X156016864Y-114808000D01*
G04 #@! TO.N,/CS2*
X155956000Y-90678000D02*
X155067000Y-91567000D01*
X155067000Y-101981000D02*
X158623000Y-105537000D01*
X155067000Y-91567000D02*
X155067000Y-101981000D01*
G04 #@! TD*
G04 #@! TA.AperFunction,Conductor*
G04 #@! TO.N,GND*
G36*
X168148000Y-146049500D02*
G01*
X158242000Y-146049500D01*
X158242000Y-142942763D01*
X163245787Y-142942763D01*
X163275413Y-143212013D01*
X163275415Y-143212024D01*
X163343926Y-143474082D01*
X163343928Y-143474088D01*
X163449870Y-143723390D01*
X163521998Y-143841575D01*
X163590979Y-143954605D01*
X163590986Y-143954615D01*
X163764253Y-144162819D01*
X163764259Y-144162824D01*
X163965998Y-144343582D01*
X164191910Y-144493044D01*
X164437176Y-144608020D01*
X164437183Y-144608022D01*
X164437185Y-144608023D01*
X164696557Y-144686057D01*
X164696564Y-144686058D01*
X164696569Y-144686060D01*
X164964561Y-144725500D01*
X164964566Y-144725500D01*
X165167636Y-144725500D01*
X165219133Y-144721730D01*
X165370156Y-144710677D01*
X165482758Y-144685593D01*
X165634546Y-144651782D01*
X165634548Y-144651781D01*
X165634553Y-144651780D01*
X165887558Y-144555014D01*
X166123777Y-144422441D01*
X166338177Y-144256888D01*
X166526186Y-144061881D01*
X166683799Y-143841579D01*
X166757787Y-143697669D01*
X166807649Y-143600690D01*
X166807651Y-143600684D01*
X166807656Y-143600675D01*
X166895118Y-143344305D01*
X166944319Y-143077933D01*
X166954212Y-142807235D01*
X166924586Y-142537982D01*
X166856072Y-142275912D01*
X166750130Y-142026610D01*
X166609018Y-141795390D01*
X166519747Y-141688119D01*
X166435746Y-141587180D01*
X166435740Y-141587175D01*
X166234002Y-141406418D01*
X166008092Y-141256957D01*
X166008090Y-141256956D01*
X165762824Y-141141980D01*
X165762819Y-141141978D01*
X165762814Y-141141976D01*
X165503442Y-141063942D01*
X165503428Y-141063939D01*
X165387791Y-141046921D01*
X165235439Y-141024500D01*
X165032369Y-141024500D01*
X165032364Y-141024500D01*
X164829844Y-141039323D01*
X164829831Y-141039325D01*
X164565453Y-141098217D01*
X164565446Y-141098220D01*
X164312439Y-141194987D01*
X164076226Y-141327557D01*
X163861822Y-141493112D01*
X163673822Y-141688109D01*
X163673816Y-141688116D01*
X163516202Y-141908419D01*
X163516199Y-141908424D01*
X163392350Y-142149309D01*
X163392343Y-142149327D01*
X163304884Y-142405685D01*
X163304881Y-142405699D01*
X163255681Y-142672068D01*
X163255680Y-142672075D01*
X163245787Y-142942763D01*
X158242000Y-142942763D01*
X158242000Y-138818785D01*
X158348793Y-138792463D01*
X158489529Y-138718599D01*
X158608498Y-138613201D01*
X158698787Y-138482395D01*
X158755149Y-138333782D01*
X158774307Y-138176000D01*
X158755149Y-138018218D01*
X158698787Y-137869605D01*
X158608498Y-137738799D01*
X158608495Y-137738796D01*
X158608493Y-137738794D01*
X158489530Y-137633401D01*
X158348791Y-137559536D01*
X158242000Y-137533214D01*
X158242000Y-130810000D01*
X168148000Y-130810000D01*
X168148000Y-146049500D01*
G37*
G04 #@! TD.AperFunction*
G04 #@! TD*
G04 #@! TA.AperFunction,Conductor*
G04 #@! TO.N,GND*
G36*
X168217539Y-63520185D02*
G01*
X168263294Y-63572989D01*
X168274500Y-63624500D01*
X168274500Y-145925500D01*
X168254815Y-145992539D01*
X168202011Y-146038294D01*
X168150500Y-146049500D01*
X168148000Y-146049500D01*
X168148000Y-130810000D01*
X158242000Y-130810000D01*
X158242000Y-137533214D01*
X158194472Y-137521500D01*
X158194471Y-137521500D01*
X158035529Y-137521500D01*
X158035528Y-137521500D01*
X157881208Y-137559536D01*
X157834366Y-137584121D01*
X157765857Y-137597845D01*
X157700804Y-137572353D01*
X157659861Y-137515737D01*
X157656026Y-137445972D01*
X157669354Y-137412323D01*
X157745943Y-137279668D01*
X157839026Y-137042494D01*
X157839031Y-137042477D01*
X157895726Y-136794079D01*
X157914767Y-136540004D01*
X157914767Y-136539995D01*
X157895726Y-136285920D01*
X157839031Y-136037522D01*
X157839026Y-136037505D01*
X157745941Y-135800328D01*
X157745942Y-135800328D01*
X157618544Y-135579671D01*
X157576545Y-135527005D01*
X156772772Y-136330779D01*
X156734099Y-136237412D01*
X156637925Y-136112075D01*
X156512588Y-136015901D01*
X156419220Y-135977227D01*
X157223185Y-135173261D01*
X157062377Y-135063624D01*
X157062376Y-135063623D01*
X156832823Y-134953078D01*
X156832825Y-134953078D01*
X156589347Y-134877975D01*
X156589341Y-134877973D01*
X156337404Y-134840000D01*
X156082595Y-134840000D01*
X155830658Y-134877973D01*
X155830652Y-134877975D01*
X155587175Y-134953078D01*
X155357624Y-135063623D01*
X155357616Y-135063628D01*
X155196813Y-135173261D01*
X156000779Y-135977227D01*
X155907412Y-136015901D01*
X155782075Y-136112075D01*
X155685901Y-136237411D01*
X155647226Y-136330779D01*
X154843453Y-135527006D01*
X154801455Y-135579670D01*
X154674058Y-135800328D01*
X154580973Y-136037505D01*
X154580968Y-136037522D01*
X154524273Y-136285920D01*
X154505233Y-136539995D01*
X154505233Y-136540004D01*
X154524273Y-136794079D01*
X154580968Y-137042477D01*
X154580973Y-137042494D01*
X154674058Y-137279671D01*
X154674057Y-137279671D01*
X154801457Y-137500332D01*
X154843452Y-137552993D01*
X154843453Y-137552993D01*
X155647226Y-136749219D01*
X155685901Y-136842588D01*
X155782075Y-136967925D01*
X155907412Y-137064099D01*
X156000779Y-137102772D01*
X155196813Y-137906737D01*
X155357623Y-138016375D01*
X155357624Y-138016376D01*
X155587176Y-138126921D01*
X155587174Y-138126921D01*
X155830652Y-138202024D01*
X155830658Y-138202026D01*
X156082595Y-138239999D01*
X156082604Y-138240000D01*
X156337396Y-138240000D01*
X156337404Y-138239999D01*
X156589341Y-138202026D01*
X156589347Y-138202024D01*
X156832824Y-138126921D01*
X157062376Y-138016376D01*
X157062377Y-138016375D01*
X157272905Y-137872840D01*
X157281615Y-137864758D01*
X157344146Y-137833587D01*
X157413603Y-137841171D01*
X157467933Y-137885102D01*
X157489888Y-137951433D01*
X157481903Y-137999622D01*
X157474850Y-138018217D01*
X157455693Y-138175999D01*
X157455693Y-138176000D01*
X157474850Y-138333781D01*
X157515427Y-138440773D01*
X157531213Y-138482395D01*
X157621502Y-138613201D01*
X157621504Y-138613203D01*
X157621506Y-138613205D01*
X157740469Y-138718598D01*
X157740471Y-138718599D01*
X157881207Y-138792463D01*
X157958368Y-138811481D01*
X158035528Y-138830500D01*
X158035529Y-138830500D01*
X158194472Y-138830500D01*
X158242000Y-138818785D01*
X158242000Y-146049500D01*
X152993574Y-146049500D01*
X152926535Y-146029815D01*
X152880780Y-145977011D01*
X152870836Y-145907853D01*
X152891524Y-145855060D01*
X152893496Y-145852202D01*
X152893498Y-145852201D01*
X152983787Y-145721395D01*
X153040149Y-145572782D01*
X153059307Y-145415000D01*
X153040149Y-145257218D01*
X152983787Y-145108605D01*
X152893498Y-144977799D01*
X152893495Y-144977796D01*
X152893493Y-144977794D01*
X152774530Y-144872401D01*
X152633791Y-144798536D01*
X152479472Y-144760500D01*
X152479471Y-144760500D01*
X152320529Y-144760500D01*
X152320528Y-144760500D01*
X152166208Y-144798536D01*
X152025469Y-144872401D01*
X151906506Y-144977794D01*
X151906500Y-144977801D01*
X151816214Y-145108602D01*
X151759850Y-145257218D01*
X151740693Y-145414999D01*
X151740693Y-145415000D01*
X151759850Y-145572781D01*
X151800427Y-145679773D01*
X151816213Y-145721395D01*
X151906502Y-145852201D01*
X151906503Y-145852202D01*
X151908476Y-145855060D01*
X151930359Y-145921414D01*
X151912894Y-145989066D01*
X151861626Y-146036536D01*
X151806426Y-146049500D01*
X136649500Y-146049500D01*
X136582461Y-146029815D01*
X136536706Y-145977011D01*
X136525500Y-145925500D01*
X136525500Y-144787844D01*
X146890000Y-144787844D01*
X146896401Y-144847372D01*
X146896403Y-144847379D01*
X146946645Y-144982086D01*
X146946649Y-144982093D01*
X147032809Y-145097187D01*
X147032812Y-145097190D01*
X147147906Y-145183350D01*
X147147913Y-145183354D01*
X147282620Y-145233596D01*
X147282627Y-145233598D01*
X147342155Y-145239999D01*
X147342172Y-145240000D01*
X148340000Y-145240000D01*
X148340000Y-144085881D01*
X148433369Y-144124556D01*
X148550677Y-144140000D01*
X148629323Y-144140000D01*
X148746631Y-144124556D01*
X148840000Y-144085881D01*
X148840000Y-145240000D01*
X149837828Y-145240000D01*
X149837844Y-145239999D01*
X149897372Y-145233598D01*
X149897379Y-145233596D01*
X150032086Y-145183354D01*
X150032093Y-145183350D01*
X150147187Y-145097190D01*
X150147190Y-145097187D01*
X150233350Y-144982093D01*
X150233354Y-144982086D01*
X150283596Y-144847379D01*
X150283598Y-144847372D01*
X150289999Y-144787844D01*
X150290000Y-144787827D01*
X150290000Y-143790000D01*
X149135882Y-143790000D01*
X149174556Y-143696631D01*
X149195176Y-143540004D01*
X154505233Y-143540004D01*
X154524273Y-143794079D01*
X154580968Y-144042477D01*
X154580973Y-144042494D01*
X154674058Y-144279671D01*
X154674057Y-144279671D01*
X154801457Y-144500332D01*
X154843452Y-144552993D01*
X154843453Y-144552993D01*
X155647226Y-143749219D01*
X155685901Y-143842588D01*
X155782075Y-143967925D01*
X155907412Y-144064099D01*
X156000779Y-144102772D01*
X155196813Y-144906737D01*
X155357623Y-145016375D01*
X155357624Y-145016376D01*
X155587176Y-145126921D01*
X155587174Y-145126921D01*
X155830652Y-145202024D01*
X155830658Y-145202026D01*
X156082595Y-145239999D01*
X156082604Y-145240000D01*
X156337396Y-145240000D01*
X156337404Y-145239999D01*
X156589341Y-145202026D01*
X156589347Y-145202024D01*
X156832824Y-145126921D01*
X157062381Y-145016373D01*
X157223185Y-144906737D01*
X156419220Y-144102772D01*
X156512588Y-144064099D01*
X156637925Y-143967925D01*
X156734099Y-143842589D01*
X156772772Y-143749220D01*
X157576545Y-144552993D01*
X157618545Y-144500327D01*
X157745941Y-144279671D01*
X157839026Y-144042494D01*
X157839031Y-144042477D01*
X157895726Y-143794079D01*
X157914767Y-143540004D01*
X157914767Y-143539995D01*
X157895726Y-143285920D01*
X157839031Y-143037522D01*
X157839026Y-143037505D01*
X157745941Y-142800328D01*
X157745942Y-142800328D01*
X157618544Y-142579671D01*
X157576546Y-142527006D01*
X156772772Y-143330779D01*
X156734099Y-143237412D01*
X156637925Y-143112075D01*
X156512588Y-143015901D01*
X156419220Y-142977227D01*
X157223185Y-142173261D01*
X157062377Y-142063624D01*
X157062376Y-142063623D01*
X156832823Y-141953078D01*
X156832825Y-141953078D01*
X156589347Y-141877975D01*
X156589341Y-141877973D01*
X156337404Y-141840000D01*
X156082595Y-141840000D01*
X155830658Y-141877973D01*
X155830652Y-141877975D01*
X155587175Y-141953078D01*
X155357624Y-142063623D01*
X155357616Y-142063628D01*
X155196813Y-142173261D01*
X156000779Y-142977227D01*
X155907412Y-143015901D01*
X155782075Y-143112075D01*
X155685901Y-143237411D01*
X155647226Y-143330779D01*
X154843453Y-142527006D01*
X154801455Y-142579670D01*
X154674058Y-142800328D01*
X154580973Y-143037505D01*
X154580968Y-143037522D01*
X154524273Y-143285920D01*
X154505233Y-143539995D01*
X154505233Y-143540004D01*
X149195176Y-143540004D01*
X149195177Y-143540000D01*
X149174556Y-143383369D01*
X149135882Y-143290000D01*
X150290000Y-143290000D01*
X150290000Y-142292172D01*
X150289999Y-142292155D01*
X150283598Y-142232627D01*
X150283596Y-142232620D01*
X150233354Y-142097913D01*
X150233350Y-142097906D01*
X150147190Y-141982812D01*
X150147187Y-141982809D01*
X150032093Y-141896649D01*
X150032086Y-141896645D01*
X149897379Y-141846403D01*
X149897372Y-141846401D01*
X149837844Y-141840000D01*
X148840000Y-141840000D01*
X148840000Y-142994118D01*
X148746631Y-142955444D01*
X148629323Y-142940000D01*
X148550677Y-142940000D01*
X148433369Y-142955444D01*
X148340000Y-142994118D01*
X148340000Y-141840000D01*
X147342155Y-141840000D01*
X147282627Y-141846401D01*
X147282620Y-141846403D01*
X147147913Y-141896645D01*
X147147906Y-141896649D01*
X147032812Y-141982809D01*
X147032809Y-141982812D01*
X146946649Y-142097906D01*
X146946645Y-142097913D01*
X146896403Y-142232620D01*
X146896401Y-142232627D01*
X146890000Y-142292155D01*
X146890000Y-143290000D01*
X148044118Y-143290000D01*
X148005444Y-143383369D01*
X147984823Y-143540000D01*
X148005444Y-143696631D01*
X148044118Y-143790000D01*
X146890000Y-143790000D01*
X146890000Y-144787844D01*
X136525500Y-144787844D01*
X136525500Y-142942763D01*
X137845787Y-142942763D01*
X137875413Y-143212013D01*
X137875415Y-143212024D01*
X137943926Y-143474082D01*
X137943928Y-143474088D01*
X138049870Y-143723390D01*
X138190979Y-143954605D01*
X138190986Y-143954615D01*
X138364253Y-144162819D01*
X138364259Y-144162824D01*
X138565998Y-144343582D01*
X138791910Y-144493044D01*
X139037176Y-144608020D01*
X139037183Y-144608022D01*
X139037185Y-144608023D01*
X139296557Y-144686057D01*
X139296564Y-144686058D01*
X139296569Y-144686060D01*
X139564561Y-144725500D01*
X139564566Y-144725500D01*
X139767636Y-144725500D01*
X139819133Y-144721730D01*
X139970156Y-144710677D01*
X140082758Y-144685593D01*
X140234546Y-144651782D01*
X140234548Y-144651781D01*
X140234553Y-144651780D01*
X140487558Y-144555014D01*
X140723777Y-144422441D01*
X140938177Y-144256888D01*
X141126186Y-144061881D01*
X141283799Y-143841579D01*
X141358322Y-143696631D01*
X141407649Y-143600690D01*
X141407651Y-143600684D01*
X141407656Y-143600675D01*
X141495118Y-143344305D01*
X141544319Y-143077933D01*
X141554212Y-142807235D01*
X141524586Y-142537982D01*
X141456072Y-142275912D01*
X141350130Y-142026610D01*
X141209018Y-141795390D01*
X141119747Y-141688119D01*
X141035746Y-141587180D01*
X141035740Y-141587175D01*
X140834002Y-141406418D01*
X140608092Y-141256957D01*
X140608090Y-141256956D01*
X140362824Y-141141980D01*
X140362819Y-141141978D01*
X140362814Y-141141976D01*
X140103442Y-141063942D01*
X140103428Y-141063939D01*
X139987791Y-141046921D01*
X139835439Y-141024500D01*
X139632369Y-141024500D01*
X139632364Y-141024500D01*
X139429844Y-141039323D01*
X139429831Y-141039325D01*
X139165453Y-141098217D01*
X139165446Y-141098220D01*
X138912439Y-141194987D01*
X138676226Y-141327557D01*
X138461822Y-141493112D01*
X138273822Y-141688109D01*
X138273816Y-141688116D01*
X138116202Y-141908419D01*
X138116199Y-141908424D01*
X137992350Y-142149309D01*
X137992343Y-142149327D01*
X137904884Y-142405685D01*
X137904881Y-142405699D01*
X137855681Y-142672068D01*
X137855680Y-142672075D01*
X137845787Y-142942763D01*
X136525500Y-142942763D01*
X136525500Y-140040006D01*
X147130515Y-140040006D01*
X147150418Y-140280215D01*
X147150420Y-140280226D01*
X147209593Y-140513892D01*
X147306421Y-140734639D01*
X147438259Y-140936431D01*
X147438262Y-140936435D01*
X147601520Y-141113780D01*
X147601524Y-141113783D01*
X147791733Y-141261829D01*
X147791737Y-141261832D01*
X147791739Y-141261833D01*
X147791742Y-141261835D01*
X147913187Y-141327557D01*
X148003732Y-141376557D01*
X148231718Y-141454825D01*
X148469477Y-141494500D01*
X148469478Y-141494500D01*
X148710522Y-141494500D01*
X148710523Y-141494500D01*
X148948282Y-141454825D01*
X149176268Y-141376557D01*
X149388263Y-141261832D01*
X149578482Y-141113778D01*
X149741739Y-140936434D01*
X149873579Y-140734638D01*
X149970406Y-140513894D01*
X150029580Y-140280223D01*
X150049485Y-140040006D01*
X154750515Y-140040006D01*
X154770418Y-140280215D01*
X154770420Y-140280226D01*
X154829593Y-140513892D01*
X154926421Y-140734639D01*
X155058259Y-140936431D01*
X155058262Y-140936435D01*
X155221520Y-141113780D01*
X155221524Y-141113783D01*
X155411733Y-141261829D01*
X155411737Y-141261832D01*
X155411739Y-141261833D01*
X155411742Y-141261835D01*
X155533187Y-141327557D01*
X155623732Y-141376557D01*
X155851718Y-141454825D01*
X156089477Y-141494500D01*
X156089478Y-141494500D01*
X156330522Y-141494500D01*
X156330523Y-141494500D01*
X156568282Y-141454825D01*
X156796268Y-141376557D01*
X157008263Y-141261832D01*
X157198482Y-141113778D01*
X157361739Y-140936434D01*
X157493579Y-140734638D01*
X157590406Y-140513894D01*
X157649580Y-140280223D01*
X157669485Y-140040000D01*
X157669485Y-140039993D01*
X157649581Y-139799784D01*
X157649579Y-139799773D01*
X157590406Y-139566107D01*
X157493578Y-139345360D01*
X157361740Y-139143568D01*
X157361739Y-139143566D01*
X157198482Y-138966222D01*
X157198481Y-138966221D01*
X157198479Y-138966219D01*
X157198475Y-138966216D01*
X157008266Y-138818170D01*
X157008257Y-138818164D01*
X156796274Y-138703446D01*
X156796271Y-138703445D01*
X156796268Y-138703443D01*
X156796262Y-138703441D01*
X156796260Y-138703440D01*
X156568284Y-138625175D01*
X156409776Y-138598725D01*
X156330523Y-138585500D01*
X156089477Y-138585500D01*
X156030037Y-138595418D01*
X155851715Y-138625175D01*
X155623739Y-138703440D01*
X155623725Y-138703446D01*
X155411742Y-138818164D01*
X155411733Y-138818170D01*
X155221524Y-138966216D01*
X155221520Y-138966219D01*
X155058262Y-139143564D01*
X155058259Y-139143568D01*
X154926421Y-139345360D01*
X154829593Y-139566107D01*
X154770420Y-139799773D01*
X154770418Y-139799784D01*
X154750515Y-140039993D01*
X154750515Y-140040006D01*
X150049485Y-140040006D01*
X150049485Y-140040000D01*
X150049485Y-140039993D01*
X150029581Y-139799784D01*
X150029579Y-139799773D01*
X149970406Y-139566107D01*
X149873578Y-139345360D01*
X149741740Y-139143568D01*
X149741739Y-139143566D01*
X149578482Y-138966222D01*
X149578481Y-138966221D01*
X149578479Y-138966219D01*
X149578475Y-138966216D01*
X149388266Y-138818170D01*
X149388257Y-138818164D01*
X149176274Y-138703446D01*
X149176271Y-138703445D01*
X149176268Y-138703443D01*
X149176262Y-138703441D01*
X149176260Y-138703440D01*
X148948284Y-138625175D01*
X148789776Y-138598725D01*
X148710523Y-138585500D01*
X148469477Y-138585500D01*
X148410037Y-138595418D01*
X148231715Y-138625175D01*
X148003739Y-138703440D01*
X148003725Y-138703446D01*
X147791742Y-138818164D01*
X147791733Y-138818170D01*
X147601524Y-138966216D01*
X147601520Y-138966219D01*
X147438262Y-139143564D01*
X147438259Y-139143568D01*
X147306421Y-139345360D01*
X147209593Y-139566107D01*
X147150420Y-139799773D01*
X147150418Y-139799784D01*
X147130515Y-140039993D01*
X147130515Y-140040006D01*
X136525500Y-140040006D01*
X136525500Y-136525000D01*
X143739693Y-136525000D01*
X143758850Y-136682781D01*
X143815214Y-136831397D01*
X143891343Y-136941689D01*
X143905502Y-136962201D01*
X143905504Y-136962203D01*
X143905506Y-136962205D01*
X144024469Y-137067598D01*
X144024471Y-137067599D01*
X144165207Y-137141463D01*
X144242368Y-137160481D01*
X144319528Y-137179500D01*
X144319529Y-137179500D01*
X144478472Y-137179500D01*
X144529911Y-137166821D01*
X144632793Y-137141463D01*
X144773529Y-137067599D01*
X144892498Y-136962201D01*
X144982787Y-136831395D01*
X145039149Y-136682782D01*
X145056485Y-136540004D01*
X146885233Y-136540004D01*
X146904273Y-136794079D01*
X146960968Y-137042477D01*
X146960973Y-137042494D01*
X147054058Y-137279671D01*
X147054057Y-137279671D01*
X147181457Y-137500332D01*
X147223452Y-137552993D01*
X147223453Y-137552993D01*
X148027226Y-136749219D01*
X148065901Y-136842588D01*
X148162075Y-136967925D01*
X148287412Y-137064099D01*
X148380779Y-137102772D01*
X147576813Y-137906737D01*
X147737623Y-138016375D01*
X147737624Y-138016376D01*
X147967176Y-138126921D01*
X147967174Y-138126921D01*
X148210652Y-138202024D01*
X148210658Y-138202026D01*
X148462595Y-138239999D01*
X148462604Y-138240000D01*
X148717396Y-138240000D01*
X148717404Y-138239999D01*
X148969341Y-138202026D01*
X148969347Y-138202024D01*
X149212824Y-138126921D01*
X149442381Y-138016373D01*
X149603185Y-137906737D01*
X148799220Y-137102772D01*
X148892588Y-137064099D01*
X149017925Y-136967925D01*
X149114099Y-136842589D01*
X149152773Y-136749220D01*
X149956545Y-137552993D01*
X149998545Y-137500327D01*
X150125941Y-137279671D01*
X150219026Y-137042494D01*
X150219031Y-137042477D01*
X150275726Y-136794079D01*
X150294767Y-136540004D01*
X150294767Y-136539995D01*
X150275726Y-136285920D01*
X150219031Y-136037522D01*
X150219026Y-136037505D01*
X150125941Y-135800328D01*
X150125942Y-135800328D01*
X149998544Y-135579671D01*
X149956546Y-135527006D01*
X149152772Y-136330779D01*
X149114099Y-136237412D01*
X149017925Y-136112075D01*
X148892588Y-136015901D01*
X148799220Y-135977227D01*
X149603185Y-135173261D01*
X149442377Y-135063624D01*
X149442376Y-135063623D01*
X149212823Y-134953078D01*
X149212825Y-134953078D01*
X148969347Y-134877975D01*
X148969341Y-134877973D01*
X148717404Y-134840000D01*
X148462595Y-134840000D01*
X148210658Y-134877973D01*
X148210652Y-134877975D01*
X147967175Y-134953078D01*
X147737624Y-135063623D01*
X147737616Y-135063628D01*
X147576813Y-135173261D01*
X148380779Y-135977227D01*
X148287412Y-136015901D01*
X148162075Y-136112075D01*
X148065901Y-136237411D01*
X148027226Y-136330779D01*
X147223453Y-135527006D01*
X147181455Y-135579670D01*
X147054058Y-135800328D01*
X146960973Y-136037505D01*
X146960968Y-136037522D01*
X146904273Y-136285920D01*
X146885233Y-136539995D01*
X146885233Y-136540004D01*
X145056485Y-136540004D01*
X145058307Y-136525000D01*
X145039149Y-136367218D01*
X144982787Y-136218605D01*
X144892498Y-136087799D01*
X144892495Y-136087796D01*
X144892493Y-136087794D01*
X144773530Y-135982401D01*
X144632791Y-135908536D01*
X144478472Y-135870500D01*
X144478471Y-135870500D01*
X144319529Y-135870500D01*
X144319528Y-135870500D01*
X144165208Y-135908536D01*
X144024469Y-135982401D01*
X143905506Y-136087794D01*
X143905500Y-136087801D01*
X143815214Y-136218602D01*
X143758850Y-136367218D01*
X143739693Y-136524999D01*
X143739693Y-136525000D01*
X136525500Y-136525000D01*
X136525500Y-134526250D01*
X138405693Y-134526250D01*
X138424850Y-134684031D01*
X138481214Y-134832647D01*
X138512502Y-134877975D01*
X138571502Y-134963451D01*
X138571504Y-134963453D01*
X138571506Y-134963455D01*
X138690469Y-135068848D01*
X138690471Y-135068849D01*
X138831207Y-135142713D01*
X138908368Y-135161731D01*
X138985528Y-135180750D01*
X138985529Y-135180750D01*
X139144472Y-135180750D01*
X139195911Y-135168071D01*
X139298793Y-135142713D01*
X139439529Y-135068849D01*
X139558498Y-134963451D01*
X139648787Y-134832645D01*
X139705149Y-134684032D01*
X139724307Y-134526250D01*
X139705149Y-134368468D01*
X139648787Y-134219855D01*
X139558498Y-134089049D01*
X139558495Y-134089046D01*
X139558493Y-134089044D01*
X139439530Y-133983651D01*
X139298791Y-133909786D01*
X139144472Y-133871750D01*
X139144471Y-133871750D01*
X138985529Y-133871750D01*
X138985528Y-133871750D01*
X138831208Y-133909786D01*
X138690469Y-133983651D01*
X138571506Y-134089044D01*
X138571500Y-134089051D01*
X138481214Y-134219852D01*
X138424850Y-134368468D01*
X138405693Y-134526249D01*
X138405693Y-134526250D01*
X136525500Y-134526250D01*
X136525500Y-133040006D01*
X147130515Y-133040006D01*
X147150418Y-133280215D01*
X147150420Y-133280226D01*
X147209593Y-133513892D01*
X147306421Y-133734639D01*
X147396001Y-133871750D01*
X147438261Y-133936434D01*
X147481727Y-133983651D01*
X147601520Y-134113780D01*
X147601524Y-134113783D01*
X147791737Y-134261832D01*
X147791739Y-134261833D01*
X147791742Y-134261835D01*
X147797722Y-134265071D01*
X148003732Y-134376557D01*
X148231718Y-134454825D01*
X148469477Y-134494500D01*
X148469478Y-134494500D01*
X148710522Y-134494500D01*
X148710523Y-134494500D01*
X148948282Y-134454825D01*
X149176268Y-134376557D01*
X149382293Y-134265063D01*
X154755500Y-134265063D01*
X154770266Y-134339301D01*
X154826515Y-134423484D01*
X154860234Y-134446014D01*
X154910699Y-134479734D01*
X154910702Y-134479734D01*
X154910703Y-134479735D01*
X154935666Y-134484700D01*
X154984933Y-134494500D01*
X157435066Y-134494499D01*
X157509301Y-134479734D01*
X157593484Y-134423484D01*
X157649734Y-134339301D01*
X157664500Y-134265067D01*
X157664499Y-131814934D01*
X157649734Y-131740699D01*
X157624838Y-131703440D01*
X157593484Y-131656515D01*
X157543019Y-131622796D01*
X157509301Y-131600266D01*
X157509299Y-131600265D01*
X157509296Y-131600264D01*
X157435069Y-131585500D01*
X154984936Y-131585500D01*
X154910698Y-131600266D01*
X154826515Y-131656515D01*
X154770266Y-131740699D01*
X154770264Y-131740703D01*
X154755500Y-131814928D01*
X154755500Y-134265063D01*
X149382293Y-134265063D01*
X149388263Y-134261832D01*
X149578482Y-134113778D01*
X149741739Y-133936434D01*
X149873579Y-133734638D01*
X149970406Y-133513894D01*
X150029580Y-133280223D01*
X150049485Y-133040000D01*
X150049485Y-133039993D01*
X150029581Y-132799784D01*
X150029579Y-132799773D01*
X149970406Y-132566107D01*
X149873578Y-132345360D01*
X149741740Y-132143568D01*
X149741739Y-132143566D01*
X149578482Y-131966222D01*
X149578481Y-131966221D01*
X149578479Y-131966219D01*
X149578475Y-131966216D01*
X149388266Y-131818170D01*
X149388257Y-131818164D01*
X149176274Y-131703446D01*
X149176271Y-131703445D01*
X149176268Y-131703443D01*
X149176262Y-131703441D01*
X149176260Y-131703440D01*
X148948284Y-131625175D01*
X148789776Y-131598725D01*
X148710523Y-131585500D01*
X148469477Y-131585500D01*
X148410037Y-131595418D01*
X148231715Y-131625175D01*
X148003739Y-131703440D01*
X148003725Y-131703446D01*
X147791742Y-131818164D01*
X147791733Y-131818170D01*
X147601524Y-131966216D01*
X147601520Y-131966219D01*
X147438262Y-132143564D01*
X147438259Y-132143568D01*
X147306421Y-132345360D01*
X147209593Y-132566107D01*
X147150420Y-132799773D01*
X147150418Y-132799784D01*
X147130515Y-133039993D01*
X147130515Y-133040006D01*
X136525500Y-133040006D01*
X136525500Y-131656660D01*
X140472891Y-131656660D01*
X140486697Y-131665335D01*
X140486701Y-131665337D01*
X140656858Y-131724877D01*
X140656861Y-131724878D01*
X140835997Y-131745062D01*
X140836003Y-131745062D01*
X141015138Y-131724878D01*
X141185306Y-131665333D01*
X141199329Y-131656521D01*
X141199247Y-131656468D01*
X141372585Y-131656468D01*
X141386697Y-131665335D01*
X141386701Y-131665337D01*
X141556858Y-131724877D01*
X141556861Y-131724878D01*
X141735997Y-131745062D01*
X141736003Y-131745062D01*
X141915138Y-131724878D01*
X142085306Y-131665333D01*
X142099329Y-131656521D01*
X142099247Y-131656468D01*
X142272585Y-131656468D01*
X142286697Y-131665335D01*
X142286701Y-131665337D01*
X142456858Y-131724877D01*
X142456861Y-131724878D01*
X142635997Y-131745062D01*
X142636003Y-131745062D01*
X142815138Y-131724878D01*
X142985307Y-131665333D01*
X142999107Y-131656661D01*
X142999107Y-131656660D01*
X142636001Y-131293553D01*
X142636000Y-131293553D01*
X142273680Y-131655871D01*
X142272585Y-131656468D01*
X142099247Y-131656468D01*
X142098318Y-131655871D01*
X141736001Y-131293553D01*
X141736000Y-131293553D01*
X141373680Y-131655871D01*
X141372585Y-131656468D01*
X141199247Y-131656468D01*
X141198318Y-131655871D01*
X140836001Y-131293553D01*
X140836000Y-131293553D01*
X140472891Y-131656660D01*
X136525500Y-131656660D01*
X136525500Y-130940002D01*
X140030938Y-130940002D01*
X140051121Y-131119138D01*
X140051122Y-131119141D01*
X140110662Y-131289298D01*
X140110667Y-131289308D01*
X140119338Y-131303108D01*
X140482447Y-130940000D01*
X140680709Y-130940000D01*
X140701514Y-131017645D01*
X140758355Y-131074486D01*
X140816254Y-131090000D01*
X140855746Y-131090000D01*
X140913645Y-131074486D01*
X140970486Y-131017646D01*
X140973287Y-131007193D01*
X141256746Y-131007193D01*
X141285999Y-131036446D01*
X141315252Y-131007193D01*
X141286000Y-130977939D01*
X141256746Y-131007193D01*
X140973287Y-131007193D01*
X140991291Y-130940000D01*
X141580709Y-130940000D01*
X141601514Y-131017645D01*
X141658355Y-131074486D01*
X141716254Y-131090000D01*
X141755746Y-131090000D01*
X141813645Y-131074486D01*
X141870486Y-131017646D01*
X141873287Y-131007193D01*
X142156746Y-131007193D01*
X142185999Y-131036446D01*
X142215252Y-131007193D01*
X142186000Y-130977939D01*
X142156746Y-131007193D01*
X141873287Y-131007193D01*
X141891291Y-130940000D01*
X142480709Y-130940000D01*
X142501514Y-131017645D01*
X142558355Y-131074486D01*
X142616254Y-131090000D01*
X142655746Y-131090000D01*
X142713645Y-131074486D01*
X142770486Y-131017646D01*
X142791291Y-130940000D01*
X142770486Y-130862355D01*
X142713645Y-130805514D01*
X142655746Y-130790000D01*
X142616254Y-130790000D01*
X142558355Y-130805514D01*
X142501514Y-130862354D01*
X142480709Y-130940000D01*
X141891291Y-130940000D01*
X141870486Y-130862355D01*
X141813645Y-130805514D01*
X141755746Y-130790000D01*
X141716254Y-130790000D01*
X141658355Y-130805514D01*
X141601514Y-130862354D01*
X141580709Y-130940000D01*
X140991291Y-130940000D01*
X140970486Y-130862355D01*
X140913645Y-130805514D01*
X140855746Y-130790000D01*
X140816254Y-130790000D01*
X140758355Y-130805514D01*
X140701514Y-130862354D01*
X140680709Y-130940000D01*
X140482447Y-130940000D01*
X140832447Y-130590000D01*
X142639553Y-130590000D01*
X143352660Y-131303107D01*
X143352661Y-131303107D01*
X143361333Y-131289307D01*
X143420878Y-131119138D01*
X143441062Y-130940002D01*
X143441062Y-130939997D01*
X143420878Y-130760861D01*
X143375422Y-130630955D01*
X143371861Y-130561176D01*
X143375422Y-130549045D01*
X143420878Y-130419138D01*
X143441062Y-130240002D01*
X143441062Y-130239997D01*
X143420878Y-130060861D01*
X143375422Y-129930955D01*
X143371861Y-129861176D01*
X143375422Y-129849045D01*
X143420878Y-129719138D01*
X143441062Y-129540002D01*
X143441062Y-129540000D01*
X144120693Y-129540000D01*
X144139850Y-129697781D01*
X144196214Y-129846397D01*
X144247709Y-129921000D01*
X144286502Y-129977201D01*
X144286504Y-129977203D01*
X144286506Y-129977205D01*
X144405469Y-130082598D01*
X144405471Y-130082599D01*
X144546207Y-130156463D01*
X144570108Y-130162354D01*
X144700528Y-130194500D01*
X144866972Y-130194500D01*
X144866972Y-130196978D01*
X144924100Y-130206459D01*
X144972209Y-130247672D01*
X144996825Y-130283334D01*
X145048502Y-130358201D01*
X145048504Y-130358203D01*
X145048506Y-130358205D01*
X145167469Y-130463598D01*
X145167471Y-130463599D01*
X145308207Y-130537463D01*
X145355197Y-130549045D01*
X145462528Y-130575500D01*
X145462529Y-130575500D01*
X145621472Y-130575500D01*
X145712785Y-130552993D01*
X145775793Y-130537463D01*
X145916529Y-130463599D01*
X146035498Y-130358201D01*
X146125787Y-130227395D01*
X146182149Y-130078782D01*
X146201307Y-129921000D01*
X146197569Y-129890218D01*
X146182149Y-129763218D01*
X146165433Y-129719142D01*
X146125787Y-129614605D01*
X146123156Y-129610794D01*
X146091892Y-129565500D01*
X146079080Y-129546939D01*
X146076793Y-129540004D01*
X146885233Y-129540004D01*
X146904273Y-129794079D01*
X146960968Y-130042477D01*
X146960973Y-130042494D01*
X147054058Y-130279671D01*
X147054057Y-130279671D01*
X147181457Y-130500332D01*
X147223452Y-130552993D01*
X147223453Y-130552993D01*
X148027226Y-129749219D01*
X148065901Y-129842588D01*
X148162075Y-129967925D01*
X148287412Y-130064099D01*
X148380779Y-130102772D01*
X147576813Y-130906737D01*
X147737623Y-131016375D01*
X147737624Y-131016376D01*
X147967176Y-131126921D01*
X147967174Y-131126921D01*
X148210652Y-131202024D01*
X148210658Y-131202026D01*
X148462595Y-131239999D01*
X148462604Y-131240000D01*
X148717396Y-131240000D01*
X148717404Y-131239999D01*
X148969341Y-131202026D01*
X148969347Y-131202024D01*
X149212824Y-131126921D01*
X149442381Y-131016373D01*
X149603185Y-130906737D01*
X148799220Y-130102772D01*
X148892588Y-130064099D01*
X149017925Y-129967925D01*
X149114099Y-129842589D01*
X149152773Y-129749220D01*
X149956545Y-130552993D01*
X149998545Y-130500327D01*
X150125941Y-130279671D01*
X150216865Y-130048000D01*
X154788693Y-130048000D01*
X154807850Y-130205781D01*
X154864214Y-130354397D01*
X154939591Y-130463599D01*
X154954502Y-130485201D01*
X154954504Y-130485203D01*
X154954506Y-130485205D01*
X155073469Y-130590598D01*
X155073471Y-130590599D01*
X155214207Y-130664463D01*
X155291368Y-130683481D01*
X155368528Y-130702500D01*
X155368529Y-130702500D01*
X155527472Y-130702500D01*
X155578911Y-130689821D01*
X155681793Y-130664463D01*
X155822529Y-130590599D01*
X155941498Y-130485201D01*
X156031787Y-130354395D01*
X156088149Y-130205782D01*
X156107307Y-130048000D01*
X156106638Y-130042494D01*
X156088149Y-129890218D01*
X156072534Y-129849045D01*
X156031787Y-129741605D01*
X155941498Y-129610799D01*
X155941495Y-129610796D01*
X155941493Y-129610794D01*
X155822530Y-129505401D01*
X155681791Y-129431536D01*
X155527472Y-129393500D01*
X155527471Y-129393500D01*
X155368529Y-129393500D01*
X155368528Y-129393500D01*
X155214208Y-129431536D01*
X155073469Y-129505401D01*
X154954506Y-129610794D01*
X154954500Y-129610801D01*
X154864214Y-129741602D01*
X154807850Y-129890218D01*
X154788693Y-130047999D01*
X154788693Y-130048000D01*
X150216865Y-130048000D01*
X150219026Y-130042494D01*
X150219031Y-130042477D01*
X150275726Y-129794079D01*
X150294767Y-129540004D01*
X150294767Y-129539995D01*
X150275726Y-129285920D01*
X150219031Y-129037522D01*
X150219026Y-129037505D01*
X150125941Y-128800328D01*
X150125942Y-128800328D01*
X149998544Y-128579671D01*
X149956546Y-128527006D01*
X149152772Y-129330779D01*
X149114099Y-129237412D01*
X149017925Y-129112075D01*
X148892588Y-129015901D01*
X148799220Y-128977227D01*
X149506446Y-128270000D01*
X164313693Y-128270000D01*
X164332850Y-128427781D01*
X164389214Y-128576397D01*
X164404541Y-128598602D01*
X164479502Y-128707201D01*
X164479504Y-128707203D01*
X164479506Y-128707205D01*
X164598469Y-128812598D01*
X164598471Y-128812599D01*
X164739207Y-128886463D01*
X164816368Y-128905481D01*
X164893528Y-128924500D01*
X164893529Y-128924500D01*
X165052472Y-128924500D01*
X165107243Y-128911000D01*
X165206793Y-128886463D01*
X165347529Y-128812599D01*
X165466498Y-128707201D01*
X165556787Y-128576395D01*
X165613149Y-128427782D01*
X165632307Y-128270000D01*
X165613149Y-128112218D01*
X165556787Y-127963605D01*
X165466498Y-127832799D01*
X165466495Y-127832796D01*
X165466493Y-127832794D01*
X165347530Y-127727401D01*
X165206791Y-127653536D01*
X165052472Y-127615500D01*
X165052471Y-127615500D01*
X164893529Y-127615500D01*
X164893528Y-127615500D01*
X164739208Y-127653536D01*
X164598469Y-127727401D01*
X164479506Y-127832794D01*
X164479500Y-127832801D01*
X164389214Y-127963602D01*
X164332850Y-128112218D01*
X164313693Y-128269999D01*
X164313693Y-128270000D01*
X149506446Y-128270000D01*
X149603185Y-128173261D01*
X149442377Y-128063624D01*
X149442376Y-128063623D01*
X149212823Y-127953078D01*
X149212825Y-127953078D01*
X148969347Y-127877975D01*
X148969341Y-127877973D01*
X148717404Y-127840000D01*
X148462595Y-127840000D01*
X148210658Y-127877973D01*
X148210652Y-127877975D01*
X147967175Y-127953078D01*
X147737624Y-128063623D01*
X147737616Y-128063628D01*
X147576813Y-128173261D01*
X148380779Y-128977227D01*
X148287412Y-129015901D01*
X148162075Y-129112075D01*
X148065901Y-129237411D01*
X148027226Y-129330779D01*
X147223453Y-128527006D01*
X147181455Y-128579670D01*
X147054058Y-128800328D01*
X146960973Y-129037505D01*
X146960968Y-129037522D01*
X146904273Y-129285920D01*
X146885233Y-129539995D01*
X146885233Y-129540004D01*
X146076793Y-129540004D01*
X146057198Y-129480586D01*
X146074663Y-129412934D01*
X146079081Y-129406060D01*
X146079458Y-129405514D01*
X146125787Y-129338395D01*
X146182149Y-129189782D01*
X146201307Y-129032000D01*
X146191233Y-128949036D01*
X146182149Y-128874218D01*
X146169172Y-128840000D01*
X146125787Y-128725605D01*
X146035498Y-128594799D01*
X146035495Y-128594796D01*
X146035493Y-128594794D01*
X145916530Y-128489401D01*
X145775791Y-128415536D01*
X145621472Y-128377500D01*
X145621471Y-128377500D01*
X145462529Y-128377500D01*
X145462528Y-128377500D01*
X145308208Y-128415536D01*
X145167469Y-128489401D01*
X145048506Y-128594794D01*
X145048500Y-128594801D01*
X144958214Y-128725603D01*
X144958213Y-128725604D01*
X144927924Y-128805471D01*
X144885746Y-128861174D01*
X144820148Y-128885231D01*
X144811982Y-128885500D01*
X144700528Y-128885500D01*
X144546208Y-128923536D01*
X144405469Y-128997401D01*
X144286506Y-129102794D01*
X144286500Y-129102801D01*
X144196214Y-129233602D01*
X144139850Y-129382218D01*
X144120693Y-129539999D01*
X144120693Y-129540000D01*
X143441062Y-129540000D01*
X143441062Y-129539997D01*
X143420878Y-129360861D01*
X143375422Y-129230955D01*
X143371861Y-129161176D01*
X143375422Y-129149045D01*
X143420878Y-129019138D01*
X143441062Y-128840002D01*
X143441062Y-128839997D01*
X143420878Y-128660861D01*
X143375422Y-128530955D01*
X143371861Y-128461176D01*
X143375422Y-128449045D01*
X143420878Y-128319138D01*
X143441062Y-128140002D01*
X143441062Y-128139997D01*
X143420878Y-127960861D01*
X143420877Y-127960858D01*
X143361337Y-127790701D01*
X143361335Y-127790697D01*
X143352660Y-127776891D01*
X142639553Y-128489999D01*
X142639553Y-128490000D01*
X142901872Y-128752319D01*
X142935357Y-128813642D01*
X142930373Y-128883334D01*
X142901872Y-128927681D01*
X142639553Y-129190000D01*
X142901872Y-129452319D01*
X142935357Y-129513642D01*
X142930373Y-129583334D01*
X142901872Y-129627681D01*
X142639553Y-129890000D01*
X142901872Y-130152319D01*
X142935357Y-130213642D01*
X142930373Y-130283334D01*
X142901872Y-130327681D01*
X142639553Y-130590000D01*
X140832447Y-130590000D01*
X140570128Y-130327681D01*
X140536643Y-130266358D01*
X140538528Y-130240000D01*
X140680709Y-130240000D01*
X140701514Y-130317645D01*
X140758355Y-130374486D01*
X140816254Y-130390000D01*
X140855746Y-130390000D01*
X140913645Y-130374486D01*
X140970486Y-130317646D01*
X140991291Y-130240000D01*
X141580709Y-130240000D01*
X141601514Y-130317645D01*
X141658355Y-130374486D01*
X141716254Y-130390000D01*
X141755746Y-130390000D01*
X141813645Y-130374486D01*
X141870486Y-130317646D01*
X141891291Y-130240000D01*
X142480709Y-130240000D01*
X142501514Y-130317645D01*
X142558355Y-130374486D01*
X142616254Y-130390000D01*
X142655746Y-130390000D01*
X142713645Y-130374486D01*
X142770486Y-130317646D01*
X142791291Y-130240000D01*
X142770486Y-130162355D01*
X142713645Y-130105514D01*
X142655746Y-130090000D01*
X142616254Y-130090000D01*
X142558355Y-130105514D01*
X142501514Y-130162354D01*
X142480709Y-130240000D01*
X141891291Y-130240000D01*
X141870486Y-130162355D01*
X141813645Y-130105514D01*
X141755746Y-130090000D01*
X141716254Y-130090000D01*
X141658355Y-130105514D01*
X141601514Y-130162354D01*
X141580709Y-130240000D01*
X140991291Y-130240000D01*
X140970486Y-130162355D01*
X140913645Y-130105514D01*
X140855746Y-130090000D01*
X140816254Y-130090000D01*
X140758355Y-130105514D01*
X140701514Y-130162354D01*
X140680709Y-130240000D01*
X140538528Y-130240000D01*
X140541627Y-130196666D01*
X140570128Y-130152319D01*
X140832447Y-129890000D01*
X140570128Y-129627681D01*
X140536643Y-129566358D01*
X140538528Y-129540000D01*
X140680709Y-129540000D01*
X140701514Y-129617645D01*
X140758355Y-129674486D01*
X140816254Y-129690000D01*
X140855746Y-129690000D01*
X140913645Y-129674486D01*
X140970486Y-129617646D01*
X140991291Y-129540000D01*
X141580709Y-129540000D01*
X141601514Y-129617645D01*
X141658355Y-129674486D01*
X141716254Y-129690000D01*
X141755746Y-129690000D01*
X141813645Y-129674486D01*
X141870486Y-129617646D01*
X141891291Y-129540000D01*
X142480709Y-129540000D01*
X142501514Y-129617645D01*
X142558355Y-129674486D01*
X142616254Y-129690000D01*
X142655746Y-129690000D01*
X142713645Y-129674486D01*
X142770486Y-129617646D01*
X142791291Y-129540000D01*
X142770486Y-129462355D01*
X142713645Y-129405514D01*
X142655746Y-129390000D01*
X142616254Y-129390000D01*
X142558355Y-129405514D01*
X142501514Y-129462354D01*
X142480709Y-129540000D01*
X141891291Y-129540000D01*
X141870486Y-129462355D01*
X141813645Y-129405514D01*
X141755746Y-129390000D01*
X141716254Y-129390000D01*
X141658355Y-129405514D01*
X141601514Y-129462354D01*
X141580709Y-129540000D01*
X140991291Y-129540000D01*
X140970486Y-129462355D01*
X140913645Y-129405514D01*
X140855746Y-129390000D01*
X140816254Y-129390000D01*
X140758355Y-129405514D01*
X140701514Y-129462354D01*
X140680709Y-129540000D01*
X140538528Y-129540000D01*
X140541627Y-129496666D01*
X140570128Y-129452319D01*
X140832447Y-129190000D01*
X140570128Y-128927681D01*
X140536643Y-128866358D01*
X140538528Y-128840000D01*
X140680709Y-128840000D01*
X140701514Y-128917645D01*
X140758355Y-128974486D01*
X140816254Y-128990000D01*
X140855746Y-128990000D01*
X140913645Y-128974486D01*
X140970486Y-128917646D01*
X140991291Y-128840000D01*
X141580709Y-128840000D01*
X141601514Y-128917645D01*
X141658355Y-128974486D01*
X141716254Y-128990000D01*
X141755746Y-128990000D01*
X141813645Y-128974486D01*
X141870486Y-128917646D01*
X141891291Y-128840000D01*
X142480709Y-128840000D01*
X142501514Y-128917645D01*
X142558355Y-128974486D01*
X142616254Y-128990000D01*
X142655746Y-128990000D01*
X142713645Y-128974486D01*
X142770486Y-128917646D01*
X142791291Y-128840000D01*
X142770486Y-128762355D01*
X142713645Y-128705514D01*
X142655746Y-128690000D01*
X142616254Y-128690000D01*
X142558355Y-128705514D01*
X142501514Y-128762354D01*
X142480709Y-128840000D01*
X141891291Y-128840000D01*
X141870486Y-128762355D01*
X141813645Y-128705514D01*
X141755746Y-128690000D01*
X141716254Y-128690000D01*
X141658355Y-128705514D01*
X141601514Y-128762354D01*
X141580709Y-128840000D01*
X140991291Y-128840000D01*
X140970486Y-128762355D01*
X140913645Y-128705514D01*
X140855746Y-128690000D01*
X140816254Y-128690000D01*
X140758355Y-128705514D01*
X140701514Y-128762354D01*
X140680709Y-128840000D01*
X140538528Y-128840000D01*
X140541627Y-128796666D01*
X140570128Y-128752319D01*
X140832447Y-128490000D01*
X140832447Y-128489999D01*
X140482448Y-128140000D01*
X140680709Y-128140000D01*
X140701514Y-128217645D01*
X140758355Y-128274486D01*
X140816254Y-128290000D01*
X140855746Y-128290000D01*
X140913645Y-128274486D01*
X140970486Y-128217646D01*
X140991291Y-128140000D01*
X141580709Y-128140000D01*
X141601514Y-128217645D01*
X141658355Y-128274486D01*
X141716254Y-128290000D01*
X141755746Y-128290000D01*
X141813645Y-128274486D01*
X141870486Y-128217646D01*
X141891291Y-128140000D01*
X142480709Y-128140000D01*
X142501514Y-128217645D01*
X142558355Y-128274486D01*
X142616254Y-128290000D01*
X142655746Y-128290000D01*
X142713645Y-128274486D01*
X142770486Y-128217646D01*
X142791291Y-128140000D01*
X142770486Y-128062355D01*
X142713645Y-128005514D01*
X142655746Y-127990000D01*
X142616254Y-127990000D01*
X142558355Y-128005514D01*
X142501514Y-128062354D01*
X142480709Y-128140000D01*
X141891291Y-128140000D01*
X141873286Y-128072806D01*
X142156746Y-128072806D01*
X142185999Y-128102059D01*
X142215253Y-128072805D01*
X142186001Y-128043553D01*
X142156746Y-128072806D01*
X141873286Y-128072806D01*
X141870486Y-128062355D01*
X141813645Y-128005514D01*
X141755746Y-127990000D01*
X141716254Y-127990000D01*
X141658355Y-128005514D01*
X141601514Y-128062354D01*
X141580709Y-128140000D01*
X140991291Y-128140000D01*
X140973286Y-128072806D01*
X141256746Y-128072806D01*
X141285999Y-128102059D01*
X141315253Y-128072805D01*
X141286001Y-128043553D01*
X141256746Y-128072806D01*
X140973286Y-128072806D01*
X140970486Y-128062355D01*
X140913645Y-128005514D01*
X140855746Y-127990000D01*
X140816254Y-127990000D01*
X140758355Y-128005514D01*
X140701514Y-128062354D01*
X140680709Y-128140000D01*
X140482448Y-128140000D01*
X140119338Y-127776890D01*
X140119338Y-127776891D01*
X140110664Y-127790696D01*
X140051122Y-127960858D01*
X140051121Y-127960861D01*
X140030938Y-128139997D01*
X140030938Y-128140002D01*
X140051121Y-128319138D01*
X140051122Y-128319142D01*
X140096577Y-128449046D01*
X140100138Y-128518825D01*
X140096577Y-128530954D01*
X140051122Y-128660857D01*
X140051121Y-128660861D01*
X140030938Y-128839997D01*
X140030938Y-128840002D01*
X140051121Y-129019138D01*
X140051122Y-129019142D01*
X140096577Y-129149046D01*
X140100138Y-129218825D01*
X140096577Y-129230954D01*
X140051122Y-129360857D01*
X140051121Y-129360861D01*
X140030938Y-129539997D01*
X140030938Y-129540002D01*
X140051121Y-129719138D01*
X140051122Y-129719142D01*
X140096577Y-129849046D01*
X140100138Y-129918825D01*
X140096577Y-129930954D01*
X140051122Y-130060857D01*
X140051121Y-130060861D01*
X140030938Y-130239997D01*
X140030938Y-130240002D01*
X140051121Y-130419138D01*
X140051122Y-130419142D01*
X140096577Y-130549046D01*
X140100138Y-130618825D01*
X140096577Y-130630954D01*
X140051122Y-130760857D01*
X140051121Y-130760861D01*
X140030938Y-130939997D01*
X140030938Y-130940002D01*
X136525500Y-130940002D01*
X136525500Y-129351863D01*
X136545185Y-129284824D01*
X136597989Y-129239069D01*
X136667147Y-129229125D01*
X136730703Y-129258150D01*
X136751549Y-129281422D01*
X136793502Y-129342201D01*
X136793504Y-129342203D01*
X136793506Y-129342205D01*
X136912469Y-129447598D01*
X136912471Y-129447599D01*
X137053207Y-129521463D01*
X137128423Y-129540002D01*
X137207528Y-129559500D01*
X137207529Y-129559500D01*
X137366470Y-129559500D01*
X137366471Y-129559500D01*
X137482014Y-129531021D01*
X137551815Y-129534090D01*
X137608877Y-129574409D01*
X137634784Y-129636471D01*
X137645324Y-129723281D01*
X137672175Y-129794079D01*
X137693021Y-129849046D01*
X137701688Y-129871897D01*
X137742453Y-129930955D01*
X137791976Y-130002701D01*
X137791978Y-130002703D01*
X137791980Y-130002705D01*
X137910943Y-130108098D01*
X137910945Y-130108099D01*
X138051681Y-130181963D01*
X138112599Y-130196978D01*
X138206002Y-130220000D01*
X138206003Y-130220000D01*
X138364946Y-130220000D01*
X138422634Y-130205781D01*
X138519267Y-130181963D01*
X138660003Y-130108099D01*
X138778972Y-130002701D01*
X138869261Y-129871895D01*
X138925623Y-129723282D01*
X138944781Y-129565500D01*
X138944052Y-129559500D01*
X138925623Y-129407718D01*
X138918903Y-129390000D01*
X138869261Y-129259105D01*
X138778972Y-129128299D01*
X138778969Y-129128296D01*
X138778967Y-129128294D01*
X138660004Y-129022901D01*
X138519265Y-128949036D01*
X138364946Y-128911000D01*
X138364945Y-128911000D01*
X138206003Y-128911000D01*
X138206002Y-128911000D01*
X138090460Y-128939478D01*
X138020657Y-128936409D01*
X137963595Y-128896089D01*
X137937689Y-128834027D01*
X137935087Y-128812599D01*
X137927149Y-128747218D01*
X137870787Y-128598605D01*
X137868156Y-128594794D01*
X137836631Y-128549122D01*
X137780498Y-128467799D01*
X137780495Y-128467796D01*
X137780493Y-128467794D01*
X137661530Y-128362401D01*
X137532961Y-128294923D01*
X137520793Y-128288537D01*
X137520792Y-128288536D01*
X137520791Y-128288536D01*
X137366472Y-128250500D01*
X137366471Y-128250500D01*
X137207529Y-128250500D01*
X137207528Y-128250500D01*
X137053208Y-128288536D01*
X136912469Y-128362401D01*
X136793506Y-128467794D01*
X136793498Y-128467803D01*
X136751549Y-128528577D01*
X136697266Y-128572567D01*
X136627818Y-128580226D01*
X136565253Y-128549122D01*
X136529436Y-128489131D01*
X136525500Y-128458136D01*
X136525500Y-127423338D01*
X140472890Y-127423338D01*
X140836000Y-127786447D01*
X140836001Y-127786447D01*
X141198318Y-127424128D01*
X141199413Y-127423530D01*
X141199329Y-127423477D01*
X141372667Y-127423477D01*
X141373680Y-127424128D01*
X141736000Y-127786447D01*
X141736001Y-127786447D01*
X142098318Y-127424128D01*
X142099413Y-127423530D01*
X142099329Y-127423477D01*
X142272667Y-127423477D01*
X142273680Y-127424128D01*
X142636000Y-127786447D01*
X142636001Y-127786447D01*
X142999108Y-127423338D01*
X142999108Y-127423337D01*
X142985308Y-127414667D01*
X142985298Y-127414662D01*
X142815141Y-127355122D01*
X142815138Y-127355121D01*
X142636003Y-127334938D01*
X142635997Y-127334938D01*
X142456861Y-127355121D01*
X142456858Y-127355122D01*
X142286694Y-127414665D01*
X142286691Y-127414666D01*
X142272667Y-127423477D01*
X142099329Y-127423477D01*
X142085301Y-127414664D01*
X142085298Y-127414662D01*
X141915141Y-127355122D01*
X141915138Y-127355121D01*
X141736003Y-127334938D01*
X141735997Y-127334938D01*
X141556861Y-127355121D01*
X141556858Y-127355122D01*
X141386694Y-127414665D01*
X141386691Y-127414666D01*
X141372667Y-127423477D01*
X141199329Y-127423477D01*
X141185301Y-127414664D01*
X141185298Y-127414662D01*
X141015141Y-127355122D01*
X141015138Y-127355121D01*
X140836003Y-127334938D01*
X140835997Y-127334938D01*
X140656861Y-127355121D01*
X140656858Y-127355122D01*
X140486696Y-127414664D01*
X140472891Y-127423338D01*
X140472890Y-127423338D01*
X136525500Y-127423338D01*
X136525500Y-126040006D01*
X147130515Y-126040006D01*
X147150418Y-126280215D01*
X147150420Y-126280226D01*
X147209593Y-126513892D01*
X147306421Y-126734639D01*
X147438259Y-126936431D01*
X147438262Y-126936435D01*
X147601520Y-127113780D01*
X147601524Y-127113783D01*
X147791737Y-127261832D01*
X147791739Y-127261833D01*
X147791742Y-127261835D01*
X147914981Y-127328527D01*
X148003732Y-127376557D01*
X148231718Y-127454825D01*
X148469477Y-127494500D01*
X148469478Y-127494500D01*
X148710522Y-127494500D01*
X148710523Y-127494500D01*
X148948282Y-127454825D01*
X149176268Y-127376557D01*
X149388263Y-127261832D01*
X149578482Y-127113778D01*
X149741739Y-126936434D01*
X149873579Y-126734638D01*
X149970406Y-126513894D01*
X150029580Y-126280223D01*
X150049485Y-126040000D01*
X150049485Y-126039993D01*
X150029581Y-125799784D01*
X150029579Y-125799773D01*
X149970406Y-125566107D01*
X149873578Y-125345360D01*
X149741740Y-125143568D01*
X149741739Y-125143566D01*
X149578482Y-124966222D01*
X149578481Y-124966221D01*
X149578479Y-124966219D01*
X149578475Y-124966216D01*
X149388266Y-124818170D01*
X149388257Y-124818164D01*
X149176274Y-124703446D01*
X149176271Y-124703445D01*
X149176268Y-124703443D01*
X149176262Y-124703441D01*
X149176260Y-124703440D01*
X148948284Y-124625175D01*
X148789776Y-124598725D01*
X148710523Y-124585500D01*
X148469477Y-124585500D01*
X148410037Y-124595418D01*
X148231715Y-124625175D01*
X148003739Y-124703440D01*
X148003725Y-124703446D01*
X147791742Y-124818164D01*
X147791733Y-124818170D01*
X147601524Y-124966216D01*
X147601520Y-124966219D01*
X147438262Y-125143564D01*
X147438259Y-125143568D01*
X147306421Y-125345360D01*
X147209593Y-125566107D01*
X147150420Y-125799773D01*
X147150418Y-125799784D01*
X147130515Y-126039993D01*
X147130515Y-126040006D01*
X136525500Y-126040006D01*
X136525500Y-122555000D01*
X143739693Y-122555000D01*
X143758850Y-122712781D01*
X143789683Y-122794079D01*
X143808463Y-122843598D01*
X143815214Y-122861397D01*
X143890591Y-122970599D01*
X143905502Y-122992201D01*
X143905504Y-122992203D01*
X143905506Y-122992205D01*
X144024469Y-123097598D01*
X144024471Y-123097599D01*
X144165207Y-123171463D01*
X144242368Y-123190481D01*
X144319528Y-123209500D01*
X144319529Y-123209500D01*
X144478472Y-123209500D01*
X144529911Y-123196821D01*
X144632793Y-123171463D01*
X144773529Y-123097599D01*
X144892498Y-122992201D01*
X144982787Y-122861395D01*
X145039149Y-122712782D01*
X145058307Y-122555000D01*
X145056486Y-122540004D01*
X146885233Y-122540004D01*
X146904273Y-122794079D01*
X146960968Y-123042477D01*
X146960973Y-123042494D01*
X147054058Y-123279671D01*
X147054057Y-123279671D01*
X147181457Y-123500332D01*
X147223452Y-123552993D01*
X147223453Y-123552993D01*
X148027226Y-122749219D01*
X148065901Y-122842588D01*
X148162075Y-122967925D01*
X148287412Y-123064099D01*
X148380779Y-123102772D01*
X147576813Y-123906737D01*
X147737623Y-124016375D01*
X147737624Y-124016376D01*
X147967176Y-124126921D01*
X147967174Y-124126921D01*
X148210652Y-124202024D01*
X148210658Y-124202026D01*
X148462595Y-124239999D01*
X148462604Y-124240000D01*
X148717396Y-124240000D01*
X148717404Y-124239999D01*
X148969341Y-124202026D01*
X148969347Y-124202024D01*
X149212824Y-124126921D01*
X149442381Y-124016373D01*
X149603185Y-123906737D01*
X148799220Y-123102772D01*
X148892588Y-123064099D01*
X149017925Y-122967925D01*
X149114099Y-122842589D01*
X149152773Y-122749220D01*
X149956545Y-123552993D01*
X149998545Y-123500327D01*
X150125941Y-123279671D01*
X150219026Y-123042494D01*
X150219031Y-123042477D01*
X150275726Y-122794079D01*
X150294767Y-122540004D01*
X150294767Y-122539995D01*
X150286374Y-122428000D01*
X154788693Y-122428000D01*
X154807850Y-122585781D01*
X154864214Y-122734397D01*
X154939591Y-122843599D01*
X154954502Y-122865201D01*
X154954504Y-122865203D01*
X154954506Y-122865205D01*
X155073469Y-122970598D01*
X155073471Y-122970599D01*
X155214207Y-123044463D01*
X155291368Y-123063481D01*
X155368528Y-123082500D01*
X155368529Y-123082500D01*
X155527472Y-123082500D01*
X155578911Y-123069821D01*
X155681793Y-123044463D01*
X155822529Y-122970599D01*
X155941498Y-122865201D01*
X156031787Y-122734395D01*
X156088149Y-122585782D01*
X156107307Y-122428000D01*
X156105679Y-122414595D01*
X156117139Y-122345674D01*
X156164041Y-122293887D01*
X156231497Y-122275679D01*
X156298088Y-122296830D01*
X156310996Y-122306829D01*
X156343471Y-122335599D01*
X156484207Y-122409463D01*
X156559423Y-122428002D01*
X156638528Y-122447500D01*
X156638529Y-122447500D01*
X156797472Y-122447500D01*
X156876577Y-122428002D01*
X156951793Y-122409463D01*
X157092529Y-122335599D01*
X157211498Y-122230201D01*
X157301787Y-122099395D01*
X157358149Y-121950782D01*
X157377307Y-121793000D01*
X158217693Y-121793000D01*
X158236850Y-121950781D01*
X158293214Y-122099397D01*
X158308541Y-122121602D01*
X158383502Y-122230201D01*
X158383504Y-122230203D01*
X158383506Y-122230205D01*
X158502469Y-122335598D01*
X158502471Y-122335599D01*
X158643207Y-122409463D01*
X158718423Y-122428002D01*
X158797528Y-122447500D01*
X158797529Y-122447500D01*
X158956472Y-122447500D01*
X158968723Y-122444480D01*
X159038525Y-122447547D01*
X159095588Y-122487865D01*
X159121497Y-122549928D01*
X159125850Y-122585781D01*
X159182214Y-122734397D01*
X159257591Y-122843599D01*
X159272502Y-122865201D01*
X159272504Y-122865203D01*
X159272506Y-122865205D01*
X159391469Y-122970598D01*
X159391471Y-122970599D01*
X159532207Y-123044463D01*
X159609368Y-123063481D01*
X159686528Y-123082500D01*
X159686529Y-123082500D01*
X159845472Y-123082500D01*
X159896911Y-123069821D01*
X159999793Y-123044463D01*
X160140529Y-122970599D01*
X160259498Y-122865201D01*
X160349787Y-122734395D01*
X160406149Y-122585782D01*
X160406242Y-122585011D01*
X160406468Y-122584485D01*
X160407944Y-122578500D01*
X160408938Y-122578745D01*
X160433855Y-122520834D01*
X160491784Y-122481770D01*
X160561637Y-122480226D01*
X160586957Y-122490146D01*
X160675207Y-122536463D01*
X160675209Y-122536463D01*
X160675210Y-122536464D01*
X160829528Y-122574500D01*
X160829529Y-122574500D01*
X160988472Y-122574500D01*
X161039911Y-122561821D01*
X161142793Y-122536463D01*
X161283529Y-122462599D01*
X161402498Y-122357201D01*
X161492787Y-122226395D01*
X161492790Y-122226384D01*
X161496271Y-122219756D01*
X161498252Y-122220795D01*
X161533729Y-122173936D01*
X161599325Y-122149875D01*
X161667516Y-122165097D01*
X161716653Y-122214769D01*
X161720280Y-122222711D01*
X161722211Y-122226391D01*
X161722213Y-122226395D01*
X161812502Y-122357201D01*
X161812504Y-122357203D01*
X161812506Y-122357205D01*
X161931469Y-122462598D01*
X161931471Y-122462599D01*
X162072207Y-122536463D01*
X162149368Y-122555481D01*
X162226528Y-122574500D01*
X162226529Y-122574500D01*
X162385472Y-122574500D01*
X162436911Y-122561821D01*
X162539793Y-122536463D01*
X162680529Y-122462599D01*
X162799498Y-122357201D01*
X162838291Y-122301000D01*
X163170693Y-122301000D01*
X163189850Y-122458781D01*
X163201747Y-122490149D01*
X163235254Y-122578500D01*
X163246214Y-122607397D01*
X163322343Y-122717689D01*
X163336502Y-122738201D01*
X163336504Y-122738203D01*
X163336506Y-122738205D01*
X163455469Y-122843598D01*
X163455471Y-122843599D01*
X163596207Y-122917463D01*
X163673368Y-122936481D01*
X163750528Y-122955500D01*
X163750529Y-122955500D01*
X163909472Y-122955500D01*
X163960911Y-122942821D01*
X164063793Y-122917463D01*
X164204529Y-122843599D01*
X164323498Y-122738201D01*
X164413787Y-122607395D01*
X164470149Y-122458782D01*
X164489307Y-122301000D01*
X164485569Y-122270218D01*
X164470149Y-122143218D01*
X164461951Y-122121602D01*
X164413787Y-121994605D01*
X164411156Y-121990794D01*
X164326238Y-121867769D01*
X164323498Y-121863799D01*
X164323495Y-121863796D01*
X164323493Y-121863794D01*
X164243584Y-121793000D01*
X164694693Y-121793000D01*
X164713850Y-121950781D01*
X164770214Y-122099397D01*
X164785541Y-122121602D01*
X164860502Y-122230201D01*
X164860504Y-122230203D01*
X164860506Y-122230205D01*
X164979469Y-122335598D01*
X164979471Y-122335599D01*
X165120207Y-122409463D01*
X165195423Y-122428002D01*
X165274528Y-122447500D01*
X165274529Y-122447500D01*
X165433472Y-122447500D01*
X165512577Y-122428002D01*
X165587793Y-122409463D01*
X165728529Y-122335599D01*
X165847498Y-122230201D01*
X165937787Y-122099395D01*
X165994149Y-121950782D01*
X166013307Y-121793000D01*
X166009569Y-121762218D01*
X165994149Y-121635218D01*
X165985951Y-121613602D01*
X165937787Y-121486605D01*
X165935156Y-121482794D01*
X165847499Y-121355801D01*
X165847498Y-121355799D01*
X165847495Y-121355796D01*
X165847493Y-121355794D01*
X165728530Y-121250401D01*
X165587791Y-121176536D01*
X165433472Y-121138500D01*
X165433471Y-121138500D01*
X165274529Y-121138500D01*
X165274528Y-121138500D01*
X165120208Y-121176536D01*
X164979469Y-121250401D01*
X164860506Y-121355794D01*
X164860500Y-121355801D01*
X164770214Y-121486602D01*
X164713850Y-121635218D01*
X164694693Y-121792999D01*
X164694693Y-121793000D01*
X164243584Y-121793000D01*
X164204530Y-121758401D01*
X164063791Y-121684536D01*
X163909472Y-121646500D01*
X163909471Y-121646500D01*
X163750529Y-121646500D01*
X163750528Y-121646500D01*
X163596208Y-121684536D01*
X163455469Y-121758401D01*
X163336506Y-121863794D01*
X163336500Y-121863801D01*
X163246214Y-121994602D01*
X163189850Y-122143218D01*
X163170693Y-122300999D01*
X163170693Y-122301000D01*
X162838291Y-122301000D01*
X162889787Y-122226395D01*
X162946149Y-122077782D01*
X162965307Y-121920000D01*
X162958482Y-121863794D01*
X162946149Y-121762218D01*
X162916688Y-121684537D01*
X162889787Y-121613605D01*
X162799498Y-121482799D01*
X162799495Y-121482796D01*
X162799493Y-121482794D01*
X162680530Y-121377401D01*
X162539791Y-121303536D01*
X162385472Y-121265500D01*
X162385471Y-121265500D01*
X162226529Y-121265500D01*
X162226528Y-121265500D01*
X162072208Y-121303536D01*
X161931469Y-121377401D01*
X161812506Y-121482794D01*
X161812500Y-121482801D01*
X161722214Y-121613603D01*
X161718729Y-121620244D01*
X161716748Y-121619204D01*
X161681262Y-121666069D01*
X161615664Y-121690125D01*
X161547474Y-121674897D01*
X161498342Y-121625220D01*
X161494719Y-121617287D01*
X161492789Y-121613611D01*
X161492787Y-121613605D01*
X161402498Y-121482799D01*
X161402495Y-121482796D01*
X161402493Y-121482794D01*
X161283530Y-121377401D01*
X161142791Y-121303536D01*
X160988472Y-121265500D01*
X160988471Y-121265500D01*
X160829529Y-121265500D01*
X160829528Y-121265500D01*
X160675208Y-121303536D01*
X160534469Y-121377401D01*
X160415506Y-121482794D01*
X160415500Y-121482801D01*
X160325214Y-121613602D01*
X160268850Y-121762218D01*
X160268756Y-121763000D01*
X160268526Y-121763532D01*
X160267056Y-121769500D01*
X160266063Y-121769255D01*
X160241134Y-121827178D01*
X160183199Y-121866234D01*
X160113346Y-121867769D01*
X160088035Y-121857850D01*
X159999791Y-121811536D01*
X159845472Y-121773500D01*
X159845471Y-121773500D01*
X159686529Y-121773500D01*
X159686525Y-121773500D01*
X159674268Y-121776521D01*
X159604466Y-121773449D01*
X159547405Y-121733127D01*
X159521502Y-121671069D01*
X159517149Y-121635218D01*
X159508951Y-121613602D01*
X159460787Y-121486605D01*
X159458156Y-121482794D01*
X159370499Y-121355801D01*
X159370498Y-121355799D01*
X159370495Y-121355796D01*
X159370493Y-121355794D01*
X159251530Y-121250401D01*
X159110791Y-121176536D01*
X158956472Y-121138500D01*
X158956471Y-121138500D01*
X158797529Y-121138500D01*
X158797528Y-121138500D01*
X158643208Y-121176536D01*
X158502469Y-121250401D01*
X158383506Y-121355794D01*
X158383500Y-121355801D01*
X158293214Y-121486602D01*
X158236850Y-121635218D01*
X158217693Y-121792999D01*
X158217693Y-121793000D01*
X157377307Y-121793000D01*
X157373569Y-121762218D01*
X157358149Y-121635218D01*
X157349951Y-121613602D01*
X157301787Y-121486605D01*
X157299156Y-121482794D01*
X157211499Y-121355801D01*
X157211498Y-121355799D01*
X157211495Y-121355796D01*
X157211493Y-121355794D01*
X157092530Y-121250401D01*
X156951791Y-121176536D01*
X156797472Y-121138500D01*
X156797471Y-121138500D01*
X156638529Y-121138500D01*
X156638528Y-121138500D01*
X156484208Y-121176536D01*
X156343469Y-121250401D01*
X156224506Y-121355794D01*
X156224500Y-121355801D01*
X156134214Y-121486602D01*
X156077850Y-121635218D01*
X156058693Y-121792999D01*
X156058693Y-121793004D01*
X156060320Y-121806407D01*
X156048858Y-121875330D01*
X156001953Y-121927115D01*
X155934497Y-121945320D01*
X155867907Y-121924166D01*
X155855001Y-121914168D01*
X155822529Y-121885401D01*
X155681793Y-121811537D01*
X155681792Y-121811536D01*
X155681791Y-121811536D01*
X155527472Y-121773500D01*
X155527471Y-121773500D01*
X155368529Y-121773500D01*
X155368528Y-121773500D01*
X155214208Y-121811536D01*
X155073469Y-121885401D01*
X154954506Y-121990794D01*
X154954500Y-121990801D01*
X154864214Y-122121602D01*
X154807850Y-122270218D01*
X154788693Y-122427999D01*
X154788693Y-122428000D01*
X150286374Y-122428000D01*
X150275726Y-122285920D01*
X150219031Y-122037522D01*
X150219026Y-122037505D01*
X150125941Y-121800328D01*
X150125942Y-121800328D01*
X149998544Y-121579671D01*
X149956546Y-121527006D01*
X149152772Y-122330779D01*
X149114099Y-122237412D01*
X149017925Y-122112075D01*
X148892588Y-122015901D01*
X148799220Y-121977227D01*
X149603185Y-121173261D01*
X149442377Y-121063624D01*
X149442376Y-121063623D01*
X149212823Y-120953078D01*
X149212825Y-120953078D01*
X148969347Y-120877975D01*
X148969341Y-120877973D01*
X148717404Y-120840000D01*
X148462595Y-120840000D01*
X148210658Y-120877973D01*
X148210652Y-120877975D01*
X147967175Y-120953078D01*
X147737624Y-121063623D01*
X147737616Y-121063628D01*
X147576813Y-121173261D01*
X148380779Y-121977227D01*
X148287412Y-122015901D01*
X148162075Y-122112075D01*
X148065901Y-122237411D01*
X148027226Y-122330779D01*
X147223453Y-121527006D01*
X147181455Y-121579670D01*
X147054058Y-121800328D01*
X146960973Y-122037505D01*
X146960968Y-122037522D01*
X146904273Y-122285920D01*
X146885233Y-122539995D01*
X146885233Y-122540004D01*
X145056486Y-122540004D01*
X145047087Y-122462598D01*
X145039149Y-122397218D01*
X145023971Y-122357198D01*
X144982787Y-122248605D01*
X144892498Y-122117799D01*
X144892495Y-122117796D01*
X144892493Y-122117794D01*
X144773530Y-122012401D01*
X144644961Y-121944923D01*
X144632793Y-121938537D01*
X144632792Y-121938536D01*
X144632791Y-121938536D01*
X144478472Y-121900500D01*
X144478471Y-121900500D01*
X144319529Y-121900500D01*
X144319528Y-121900500D01*
X144165208Y-121938536D01*
X144024469Y-122012401D01*
X143905506Y-122117794D01*
X143905500Y-122117801D01*
X143815214Y-122248602D01*
X143758850Y-122397218D01*
X143739693Y-122554999D01*
X143739693Y-122555000D01*
X136525500Y-122555000D01*
X136525500Y-119040006D01*
X147130515Y-119040006D01*
X147150418Y-119280215D01*
X147150420Y-119280226D01*
X147209593Y-119513892D01*
X147306421Y-119734639D01*
X147438259Y-119936431D01*
X147438262Y-119936435D01*
X147601520Y-120113780D01*
X147601524Y-120113783D01*
X147791737Y-120261832D01*
X147791739Y-120261833D01*
X147791742Y-120261835D01*
X147914981Y-120328527D01*
X148003732Y-120376557D01*
X148231718Y-120454825D01*
X148469477Y-120494500D01*
X148469478Y-120494500D01*
X148710522Y-120494500D01*
X148710523Y-120494500D01*
X148948282Y-120454825D01*
X149176268Y-120376557D01*
X149388263Y-120261832D01*
X149578482Y-120113778D01*
X149741739Y-119936434D01*
X149873579Y-119734638D01*
X149970406Y-119513894D01*
X150029580Y-119280223D01*
X150037702Y-119182205D01*
X150049485Y-119040006D01*
X150049485Y-119039993D01*
X150029581Y-118799784D01*
X150029579Y-118799773D01*
X150015708Y-118745000D01*
X150597193Y-118745000D01*
X150616350Y-118902781D01*
X150652842Y-118998999D01*
X150668391Y-119040000D01*
X150672714Y-119051397D01*
X150748843Y-119161689D01*
X150763002Y-119182201D01*
X150763004Y-119182203D01*
X150763006Y-119182205D01*
X150881969Y-119287598D01*
X150881971Y-119287599D01*
X151022707Y-119361463D01*
X151099868Y-119380481D01*
X151177028Y-119399500D01*
X151177029Y-119399500D01*
X151335972Y-119399500D01*
X151387411Y-119386821D01*
X151490293Y-119361463D01*
X151631029Y-119287599D01*
X151749998Y-119182201D01*
X151840287Y-119051395D01*
X151896649Y-118902782D01*
X151915807Y-118745000D01*
X156185693Y-118745000D01*
X156204850Y-118902781D01*
X156241342Y-118998999D01*
X156256891Y-119040000D01*
X156261214Y-119051397D01*
X156337343Y-119161689D01*
X156351502Y-119182201D01*
X156351504Y-119182203D01*
X156351506Y-119182205D01*
X156470469Y-119287598D01*
X156470471Y-119287599D01*
X156611207Y-119361463D01*
X156688368Y-119380481D01*
X156765528Y-119399500D01*
X156765529Y-119399500D01*
X156924472Y-119399500D01*
X156975911Y-119386821D01*
X157078793Y-119361463D01*
X157219529Y-119287599D01*
X157338498Y-119182201D01*
X157428787Y-119051395D01*
X157485149Y-118902782D01*
X157504307Y-118745000D01*
X158312693Y-118745000D01*
X158331850Y-118902781D01*
X158368342Y-118998999D01*
X158383891Y-119040000D01*
X158388214Y-119051397D01*
X158464343Y-119161689D01*
X158478502Y-119182201D01*
X158478504Y-119182203D01*
X158478506Y-119182205D01*
X158597469Y-119287598D01*
X158597471Y-119287599D01*
X158738207Y-119361463D01*
X158815368Y-119380481D01*
X158892528Y-119399500D01*
X158892529Y-119399500D01*
X159051472Y-119399500D01*
X159102911Y-119386821D01*
X159205793Y-119361463D01*
X159346529Y-119287599D01*
X159465498Y-119182201D01*
X159555787Y-119051395D01*
X159575658Y-118999000D01*
X162712693Y-118999000D01*
X162731850Y-119156781D01*
X162772427Y-119263773D01*
X162788213Y-119305395D01*
X162878502Y-119436201D01*
X162878504Y-119436203D01*
X162878506Y-119436205D01*
X162997469Y-119541598D01*
X162997471Y-119541599D01*
X163138207Y-119615463D01*
X163215368Y-119634481D01*
X163292528Y-119653500D01*
X163292529Y-119653500D01*
X163451472Y-119653500D01*
X163502911Y-119640821D01*
X163605793Y-119615463D01*
X163746529Y-119541599D01*
X163865498Y-119436201D01*
X163955787Y-119305395D01*
X164012149Y-119156782D01*
X164031307Y-118999000D01*
X164012149Y-118841218D01*
X163955787Y-118692605D01*
X163865498Y-118561799D01*
X163865495Y-118561796D01*
X163865493Y-118561794D01*
X163746530Y-118456401D01*
X163605791Y-118382536D01*
X163451472Y-118344500D01*
X163451471Y-118344500D01*
X163292529Y-118344500D01*
X163292528Y-118344500D01*
X163138208Y-118382536D01*
X162997469Y-118456401D01*
X162878506Y-118561794D01*
X162878500Y-118561801D01*
X162788214Y-118692602D01*
X162731850Y-118841218D01*
X162712693Y-118998999D01*
X162712693Y-118999000D01*
X159575658Y-118999000D01*
X159612149Y-118902782D01*
X159631307Y-118745000D01*
X159612149Y-118587218D01*
X159555787Y-118438605D01*
X159465498Y-118307799D01*
X159465495Y-118307796D01*
X159465493Y-118307794D01*
X159346530Y-118202401D01*
X159205791Y-118128536D01*
X159051472Y-118090500D01*
X159051471Y-118090500D01*
X158892529Y-118090500D01*
X158892528Y-118090500D01*
X158738208Y-118128536D01*
X158597469Y-118202401D01*
X158478506Y-118307794D01*
X158478500Y-118307801D01*
X158388214Y-118438602D01*
X158331850Y-118587218D01*
X158312693Y-118744999D01*
X158312693Y-118745000D01*
X157504307Y-118745000D01*
X157485149Y-118587218D01*
X157428787Y-118438605D01*
X157338498Y-118307799D01*
X157338495Y-118307796D01*
X157338493Y-118307794D01*
X157219530Y-118202401D01*
X157078791Y-118128536D01*
X156924472Y-118090500D01*
X156924471Y-118090500D01*
X156765529Y-118090500D01*
X156765528Y-118090500D01*
X156611208Y-118128536D01*
X156470469Y-118202401D01*
X156351506Y-118307794D01*
X156351500Y-118307801D01*
X156261214Y-118438602D01*
X156204850Y-118587218D01*
X156185693Y-118744999D01*
X156185693Y-118745000D01*
X151915807Y-118745000D01*
X151896649Y-118587218D01*
X151840287Y-118438605D01*
X151749998Y-118307799D01*
X151749995Y-118307796D01*
X151749993Y-118307794D01*
X151631030Y-118202401D01*
X151583037Y-118177212D01*
X151543433Y-118156427D01*
X151493221Y-118107843D01*
X151477246Y-118039824D01*
X151500581Y-117973967D01*
X151543431Y-117936836D01*
X151631529Y-117890599D01*
X151750498Y-117785201D01*
X151840787Y-117654395D01*
X151860658Y-117602000D01*
X159487693Y-117602000D01*
X159506850Y-117759781D01*
X159528994Y-117818168D01*
X159556463Y-117890598D01*
X159563214Y-117908397D01*
X159582843Y-117936834D01*
X159653502Y-118039201D01*
X159653504Y-118039203D01*
X159653506Y-118039205D01*
X159772469Y-118144598D01*
X159772471Y-118144599D01*
X159913207Y-118218463D01*
X159990368Y-118237481D01*
X160067528Y-118256500D01*
X160067529Y-118256500D01*
X160226472Y-118256500D01*
X160277911Y-118243821D01*
X160380793Y-118218463D01*
X160521529Y-118144599D01*
X160640498Y-118039201D01*
X160730787Y-117908395D01*
X160787149Y-117759782D01*
X160806307Y-117602000D01*
X160795609Y-117513897D01*
X160787149Y-117444218D01*
X160773603Y-117408500D01*
X160730787Y-117295605D01*
X160640498Y-117164799D01*
X160640495Y-117164796D01*
X160640493Y-117164794D01*
X160521530Y-117059401D01*
X160380791Y-116985536D01*
X160305587Y-116967000D01*
X161612693Y-116967000D01*
X161631850Y-117124781D01*
X161688214Y-117273397D01*
X161739709Y-117348000D01*
X161778502Y-117404201D01*
X161778504Y-117404203D01*
X161778506Y-117404205D01*
X161897469Y-117509598D01*
X161897471Y-117509599D01*
X162038207Y-117583463D01*
X162115368Y-117602481D01*
X162192528Y-117621500D01*
X162192529Y-117621500D01*
X162351472Y-117621500D01*
X162402911Y-117608821D01*
X162505793Y-117583463D01*
X162646529Y-117509599D01*
X162765498Y-117404201D01*
X162855787Y-117273395D01*
X162912149Y-117124782D01*
X162931307Y-116967000D01*
X162924482Y-116910794D01*
X162912149Y-116809218D01*
X162896971Y-116769198D01*
X162855787Y-116660605D01*
X162765498Y-116529799D01*
X162765495Y-116529796D01*
X162765493Y-116529794D01*
X162646530Y-116424401D01*
X162505791Y-116350536D01*
X162351472Y-116312500D01*
X162351471Y-116312500D01*
X162192529Y-116312500D01*
X162192528Y-116312500D01*
X162038208Y-116350536D01*
X161897469Y-116424401D01*
X161778506Y-116529794D01*
X161778500Y-116529801D01*
X161688214Y-116660602D01*
X161631850Y-116809218D01*
X161612693Y-116966999D01*
X161612693Y-116967000D01*
X160305587Y-116967000D01*
X160226472Y-116947500D01*
X160226471Y-116947500D01*
X160067529Y-116947500D01*
X160067528Y-116947500D01*
X159913208Y-116985536D01*
X159772469Y-117059401D01*
X159653506Y-117164794D01*
X159653500Y-117164801D01*
X159563214Y-117295602D01*
X159506850Y-117444218D01*
X159487693Y-117601999D01*
X159487693Y-117602000D01*
X151860658Y-117602000D01*
X151897149Y-117505782D01*
X151916307Y-117348000D01*
X151897149Y-117190218D01*
X151840787Y-117041605D01*
X151750498Y-116910799D01*
X151750495Y-116910796D01*
X151750493Y-116910794D01*
X151631530Y-116805401D01*
X151490791Y-116731536D01*
X151336472Y-116693500D01*
X151336471Y-116693500D01*
X151177529Y-116693500D01*
X151177528Y-116693500D01*
X151023208Y-116731536D01*
X150882469Y-116805401D01*
X150763506Y-116910794D01*
X150763500Y-116910801D01*
X150673214Y-117041602D01*
X150616850Y-117190218D01*
X150597693Y-117347999D01*
X150597693Y-117348000D01*
X150616850Y-117505781D01*
X150646312Y-117583463D01*
X150660737Y-117621500D01*
X150673214Y-117654397D01*
X150749343Y-117764689D01*
X150763502Y-117785201D01*
X150763504Y-117785203D01*
X150763506Y-117785205D01*
X150882469Y-117890598D01*
X150882471Y-117890599D01*
X150970067Y-117936572D01*
X151020278Y-117985155D01*
X151036253Y-118053174D01*
X151012919Y-118119032D01*
X150970066Y-118156164D01*
X150881972Y-118202399D01*
X150881970Y-118202401D01*
X150763006Y-118307794D01*
X150763000Y-118307801D01*
X150672714Y-118438602D01*
X150616350Y-118587218D01*
X150597193Y-118744999D01*
X150597193Y-118745000D01*
X150015708Y-118745000D01*
X149970406Y-118566107D01*
X149968517Y-118561801D01*
X149873579Y-118345362D01*
X149741739Y-118143566D01*
X149578482Y-117966222D01*
X149578481Y-117966221D01*
X149578479Y-117966219D01*
X149578475Y-117966216D01*
X149388266Y-117818170D01*
X149388257Y-117818164D01*
X149176274Y-117703446D01*
X149176271Y-117703445D01*
X149176268Y-117703443D01*
X149176262Y-117703441D01*
X149176260Y-117703440D01*
X148948284Y-117625175D01*
X148724078Y-117587762D01*
X148710523Y-117585500D01*
X148469477Y-117585500D01*
X148455922Y-117587762D01*
X148231715Y-117625175D01*
X148003739Y-117703440D01*
X148003725Y-117703446D01*
X147791742Y-117818164D01*
X147791733Y-117818170D01*
X147601524Y-117966216D01*
X147601520Y-117966219D01*
X147438262Y-118143564D01*
X147438259Y-118143568D01*
X147306421Y-118345360D01*
X147209593Y-118566107D01*
X147150420Y-118799773D01*
X147150418Y-118799784D01*
X147130515Y-119039993D01*
X147130515Y-119040006D01*
X136525500Y-119040006D01*
X136525500Y-117554801D01*
X136545185Y-117487762D01*
X136597989Y-117442007D01*
X136667147Y-117432063D01*
X136730703Y-117461088D01*
X136731671Y-117461936D01*
X136785471Y-117509599D01*
X136926207Y-117583463D01*
X137003368Y-117602481D01*
X137080528Y-117621500D01*
X137080529Y-117621500D01*
X137239472Y-117621500D01*
X137290911Y-117608821D01*
X137393793Y-117583463D01*
X137534529Y-117509599D01*
X137585498Y-117464444D01*
X137648727Y-117434724D01*
X137717991Y-117443906D01*
X137749951Y-117464446D01*
X137805768Y-117513897D01*
X137805770Y-117513898D01*
X137946506Y-117587762D01*
X138004268Y-117601999D01*
X138100827Y-117625799D01*
X138100828Y-117625799D01*
X138259771Y-117625799D01*
X138311210Y-117613120D01*
X138414092Y-117587762D01*
X138554828Y-117513898D01*
X138673797Y-117408500D01*
X138764086Y-117277694D01*
X138820448Y-117129081D01*
X138839606Y-116971299D01*
X138832259Y-116910794D01*
X138820448Y-116813517D01*
X138813168Y-116794322D01*
X138764086Y-116664904D01*
X138673797Y-116534098D01*
X138673794Y-116534095D01*
X138673792Y-116534093D01*
X138589030Y-116459000D01*
X147041693Y-116459000D01*
X147060850Y-116616781D01*
X147117214Y-116765397D01*
X147192591Y-116874599D01*
X147207502Y-116896201D01*
X147207504Y-116896203D01*
X147207506Y-116896205D01*
X147326469Y-117001598D01*
X147326471Y-117001599D01*
X147467207Y-117075463D01*
X147544368Y-117094481D01*
X147621528Y-117113500D01*
X147621529Y-117113500D01*
X147780472Y-117113500D01*
X147831911Y-117100821D01*
X147934793Y-117075463D01*
X148075529Y-117001599D01*
X148194498Y-116896201D01*
X148284787Y-116765395D01*
X148341149Y-116616782D01*
X148360307Y-116459000D01*
X148344887Y-116332000D01*
X154915693Y-116332000D01*
X154934850Y-116489781D01*
X154975427Y-116596773D01*
X154991213Y-116638395D01*
X155081502Y-116769201D01*
X155081504Y-116769203D01*
X155081506Y-116769205D01*
X155200469Y-116874598D01*
X155200471Y-116874599D01*
X155341207Y-116948463D01*
X155418368Y-116967481D01*
X155495528Y-116986500D01*
X155495529Y-116986500D01*
X155654472Y-116986500D01*
X155716148Y-116971298D01*
X155808793Y-116948463D01*
X155949529Y-116874599D01*
X156068498Y-116769201D01*
X156158787Y-116638395D01*
X156215149Y-116489782D01*
X156234307Y-116332000D01*
X156230569Y-116301218D01*
X156215149Y-116174218D01*
X156206951Y-116152602D01*
X156158787Y-116025605D01*
X156156156Y-116021794D01*
X156068499Y-115894801D01*
X156068498Y-115894799D01*
X156068495Y-115894796D01*
X156068493Y-115894794D01*
X155949530Y-115789401D01*
X155808791Y-115715536D01*
X155654472Y-115677500D01*
X155654471Y-115677500D01*
X155495529Y-115677500D01*
X155495528Y-115677500D01*
X155341208Y-115715536D01*
X155200469Y-115789401D01*
X155081506Y-115894794D01*
X155081500Y-115894801D01*
X154991214Y-116025602D01*
X154934850Y-116174218D01*
X154915693Y-116331999D01*
X154915693Y-116332000D01*
X148344887Y-116332000D01*
X148341149Y-116301218D01*
X148284787Y-116152605D01*
X148194498Y-116021799D01*
X148194495Y-116021796D01*
X148194493Y-116021794D01*
X148075530Y-115916401D01*
X147934791Y-115842536D01*
X147780472Y-115804500D01*
X147780471Y-115804500D01*
X147621529Y-115804500D01*
X147621528Y-115804500D01*
X147467208Y-115842536D01*
X147326469Y-115916401D01*
X147207506Y-116021794D01*
X147207500Y-116021801D01*
X147117214Y-116152602D01*
X147060850Y-116301218D01*
X147041693Y-116458999D01*
X147041693Y-116459000D01*
X138589030Y-116459000D01*
X138554829Y-116428700D01*
X138414090Y-116354835D01*
X138259771Y-116316799D01*
X138259770Y-116316799D01*
X138100828Y-116316799D01*
X138100827Y-116316799D01*
X137946507Y-116354835D01*
X137805768Y-116428700D01*
X137754801Y-116473853D01*
X137691568Y-116503574D01*
X137622304Y-116494390D01*
X137590348Y-116473852D01*
X137534530Y-116424401D01*
X137393791Y-116350536D01*
X137239472Y-116312500D01*
X137239471Y-116312500D01*
X137080529Y-116312500D01*
X137080528Y-116312500D01*
X136926208Y-116350536D01*
X136785472Y-116424400D01*
X136731727Y-116472014D01*
X136668493Y-116501735D01*
X136599230Y-116492551D01*
X136545927Y-116447379D01*
X136525507Y-116380559D01*
X136525500Y-116379198D01*
X136525500Y-114612500D01*
X139548693Y-114612500D01*
X139567850Y-114770281D01*
X139624214Y-114918897D01*
X139635329Y-114935000D01*
X139714502Y-115049701D01*
X139714504Y-115049703D01*
X139714506Y-115049705D01*
X139833469Y-115155098D01*
X139833471Y-115155099D01*
X139974207Y-115228963D01*
X140023295Y-115241062D01*
X140128528Y-115267000D01*
X140128529Y-115267000D01*
X140287472Y-115267000D01*
X140338911Y-115254321D01*
X140441793Y-115228963D01*
X140582529Y-115155099D01*
X140701498Y-115049701D01*
X140791787Y-114918895D01*
X140833916Y-114807812D01*
X151867693Y-114807812D01*
X151886850Y-114965593D01*
X151918299Y-115048516D01*
X151937286Y-115098580D01*
X151943214Y-115114209D01*
X151994703Y-115188803D01*
X152033502Y-115245013D01*
X152033504Y-115245015D01*
X152033506Y-115245017D01*
X152152469Y-115350410D01*
X152152471Y-115350411D01*
X152293207Y-115424275D01*
X152370368Y-115443293D01*
X152447528Y-115462312D01*
X152447529Y-115462312D01*
X152606472Y-115462312D01*
X152657911Y-115449633D01*
X152760793Y-115424275D01*
X152901529Y-115350411D01*
X153020498Y-115245013D01*
X153110787Y-115114207D01*
X153167149Y-114965594D01*
X153186307Y-114807812D01*
X153167149Y-114650030D01*
X153110787Y-114501417D01*
X153020498Y-114370611D01*
X153020495Y-114370608D01*
X153020493Y-114370606D01*
X152901530Y-114265213D01*
X152760791Y-114191348D01*
X152606472Y-114153312D01*
X152606471Y-114153312D01*
X152447529Y-114153312D01*
X152447528Y-114153312D01*
X152293208Y-114191348D01*
X152152469Y-114265213D01*
X152033506Y-114370606D01*
X152033500Y-114370613D01*
X151943214Y-114501414D01*
X151886850Y-114650030D01*
X151867693Y-114807811D01*
X151867693Y-114807812D01*
X140833916Y-114807812D01*
X140848149Y-114770282D01*
X140867307Y-114612500D01*
X140848149Y-114454718D01*
X140791787Y-114306105D01*
X140701498Y-114175299D01*
X140701495Y-114175296D01*
X140701493Y-114175294D01*
X140582530Y-114069901D01*
X140441791Y-113996036D01*
X140287472Y-113958000D01*
X140287471Y-113958000D01*
X140128529Y-113958000D01*
X140128528Y-113958000D01*
X139974208Y-113996036D01*
X139833469Y-114069901D01*
X139714506Y-114175294D01*
X139714500Y-114175301D01*
X139624214Y-114306102D01*
X139567850Y-114454718D01*
X139548693Y-114612499D01*
X139548693Y-114612500D01*
X136525500Y-114612500D01*
X136525500Y-112141000D01*
X138278693Y-112141000D01*
X138297850Y-112298781D01*
X138354214Y-112447397D01*
X138414491Y-112534723D01*
X138444502Y-112578201D01*
X138444504Y-112578203D01*
X138444506Y-112578205D01*
X138563469Y-112683598D01*
X138563471Y-112683599D01*
X138704207Y-112757463D01*
X138747416Y-112768113D01*
X138858528Y-112795500D01*
X138858529Y-112795500D01*
X139017470Y-112795500D01*
X139017471Y-112795500D01*
X139128583Y-112768113D01*
X139198382Y-112771182D01*
X139255445Y-112811501D01*
X139268700Y-112834854D01*
X139269416Y-112834479D01*
X139272898Y-112841114D01*
X139272900Y-112841118D01*
X139363189Y-112971924D01*
X139363191Y-112971926D01*
X139363193Y-112971928D01*
X139482156Y-113077321D01*
X139482158Y-113077322D01*
X139622894Y-113151186D01*
X139700055Y-113170204D01*
X139777215Y-113189223D01*
X139777216Y-113189223D01*
X139936159Y-113189223D01*
X139987598Y-113176544D01*
X140090480Y-113151186D01*
X140231216Y-113077322D01*
X140350185Y-112971924D01*
X140440474Y-112841118D01*
X140496836Y-112692505D01*
X140515994Y-112534723D01*
X140496836Y-112376941D01*
X140455520Y-112268000D01*
X142723693Y-112268000D01*
X142742850Y-112425781D01*
X142799214Y-112574397D01*
X142874591Y-112683599D01*
X142889502Y-112705201D01*
X142889504Y-112705203D01*
X142889506Y-112705205D01*
X143008469Y-112810598D01*
X143008471Y-112810599D01*
X143149207Y-112884463D01*
X143226368Y-112903481D01*
X143303528Y-112922500D01*
X143303529Y-112922500D01*
X143462472Y-112922500D01*
X143513911Y-112909821D01*
X143616793Y-112884463D01*
X143757529Y-112810599D01*
X143876498Y-112705201D01*
X143966787Y-112574395D01*
X144023149Y-112425782D01*
X144042307Y-112268000D01*
X144023149Y-112110218D01*
X143966787Y-111961605D01*
X143876498Y-111830799D01*
X143876495Y-111830796D01*
X143876493Y-111830794D01*
X143757530Y-111725401D01*
X143616791Y-111651536D01*
X143462472Y-111613500D01*
X143462471Y-111613500D01*
X143303529Y-111613500D01*
X143303528Y-111613500D01*
X143149208Y-111651536D01*
X143008469Y-111725401D01*
X142889506Y-111830794D01*
X142889500Y-111830801D01*
X142799214Y-111961602D01*
X142742850Y-112110218D01*
X142723693Y-112267999D01*
X142723693Y-112268000D01*
X140455520Y-112268000D01*
X140440474Y-112228328D01*
X140350185Y-112097522D01*
X140350182Y-112097519D01*
X140350180Y-112097517D01*
X140231217Y-111992124D01*
X140090478Y-111918259D01*
X139936159Y-111880223D01*
X139936158Y-111880223D01*
X139777216Y-111880223D01*
X139777215Y-111880223D01*
X139666105Y-111907609D01*
X139596303Y-111904540D01*
X139539241Y-111864220D01*
X139525988Y-111840867D01*
X139525271Y-111841244D01*
X139521789Y-111834611D01*
X139521787Y-111834605D01*
X139431498Y-111703799D01*
X139431495Y-111703796D01*
X139431493Y-111703794D01*
X139312530Y-111598401D01*
X139171791Y-111524536D01*
X139017472Y-111486500D01*
X139017471Y-111486500D01*
X138858529Y-111486500D01*
X138858528Y-111486500D01*
X138704208Y-111524536D01*
X138563469Y-111598401D01*
X138444506Y-111703794D01*
X138444500Y-111703801D01*
X138354214Y-111834602D01*
X138297850Y-111983218D01*
X138278693Y-112140999D01*
X138278693Y-112141000D01*
X136525500Y-112141000D01*
X136525500Y-111252000D01*
X145644693Y-111252000D01*
X145663850Y-111409781D01*
X145720214Y-111558397D01*
X145784261Y-111651185D01*
X145810502Y-111689201D01*
X145810504Y-111689203D01*
X145810506Y-111689205D01*
X145929469Y-111794598D01*
X145929471Y-111794599D01*
X146070207Y-111868463D01*
X146147368Y-111887481D01*
X146224528Y-111906500D01*
X146224529Y-111906500D01*
X146383472Y-111906500D01*
X146434911Y-111893821D01*
X146537793Y-111868463D01*
X146678529Y-111794599D01*
X146797498Y-111689201D01*
X146800355Y-111685062D01*
X146854637Y-111641070D01*
X146902406Y-111631500D01*
X152252308Y-111631500D01*
X152319347Y-111651185D01*
X152339989Y-111667819D01*
X155711592Y-115039422D01*
X155727716Y-115059277D01*
X155733796Y-115068582D01*
X155762141Y-115090643D01*
X155767893Y-115095723D01*
X155770750Y-115098580D01*
X155789957Y-115112293D01*
X155833745Y-115146375D01*
X155833746Y-115146375D01*
X155840744Y-115150162D01*
X155847879Y-115153649D01*
X155847884Y-115153653D01*
X155901043Y-115169478D01*
X155953537Y-115187500D01*
X155953540Y-115187500D01*
X155961343Y-115188803D01*
X155969271Y-115189791D01*
X155969272Y-115189790D01*
X155969273Y-115189791D01*
X156024675Y-115187500D01*
X156754594Y-115187500D01*
X156821633Y-115207185D01*
X156856645Y-115241062D01*
X156859499Y-115245197D01*
X156859506Y-115245205D01*
X156978469Y-115350598D01*
X156978471Y-115350599D01*
X157119207Y-115424463D01*
X157196368Y-115443481D01*
X157273528Y-115462500D01*
X157273529Y-115462500D01*
X157432472Y-115462500D01*
X157483911Y-115449821D01*
X157586793Y-115424463D01*
X157727529Y-115350599D01*
X157846498Y-115245201D01*
X157936787Y-115114395D01*
X157993149Y-114965782D01*
X157996887Y-114935000D01*
X160512693Y-114935000D01*
X160531850Y-115092781D01*
X160588214Y-115241397D01*
X160663591Y-115350599D01*
X160678502Y-115372201D01*
X160678504Y-115372203D01*
X160678506Y-115372205D01*
X160797469Y-115477598D01*
X160797471Y-115477599D01*
X160938207Y-115551463D01*
X161015368Y-115570481D01*
X161092528Y-115589500D01*
X161092529Y-115589500D01*
X161251472Y-115589500D01*
X161302911Y-115576821D01*
X161405793Y-115551463D01*
X161546529Y-115477599D01*
X161665498Y-115372201D01*
X161755787Y-115241395D01*
X161812149Y-115092782D01*
X161831307Y-114935000D01*
X161812149Y-114777218D01*
X161755787Y-114628605D01*
X161665498Y-114497799D01*
X161665495Y-114497796D01*
X161665493Y-114497794D01*
X161546530Y-114392401D01*
X161405791Y-114318536D01*
X161251472Y-114280500D01*
X161251471Y-114280500D01*
X161092529Y-114280500D01*
X161092528Y-114280500D01*
X160938208Y-114318536D01*
X160797469Y-114392401D01*
X160678506Y-114497794D01*
X160678500Y-114497801D01*
X160588214Y-114628602D01*
X160531850Y-114777218D01*
X160512693Y-114934999D01*
X160512693Y-114935000D01*
X157996887Y-114935000D01*
X158012307Y-114808000D01*
X158008569Y-114777218D01*
X157993149Y-114650218D01*
X157978844Y-114612499D01*
X157936787Y-114501605D01*
X157934156Y-114497794D01*
X157879720Y-114418930D01*
X157846498Y-114370799D01*
X157846497Y-114370798D01*
X157845178Y-114368887D01*
X157823295Y-114302533D01*
X157840760Y-114234881D01*
X157892028Y-114187411D01*
X157960821Y-114175194D01*
X157976903Y-114178050D01*
X158035528Y-114192500D01*
X158035529Y-114192500D01*
X158194472Y-114192500D01*
X158264684Y-114175194D01*
X158348793Y-114154463D01*
X158489529Y-114080599D01*
X158608498Y-113975201D01*
X158698787Y-113844395D01*
X158755149Y-113695782D01*
X158774307Y-113538000D01*
X158755149Y-113380218D01*
X158698787Y-113231605D01*
X158608498Y-113100799D01*
X158608495Y-113100796D01*
X158608493Y-113100794D01*
X158489530Y-112995401D01*
X158348791Y-112921536D01*
X158217042Y-112889063D01*
X165138500Y-112889063D01*
X165153266Y-112963301D01*
X165209515Y-113047484D01*
X165243234Y-113070014D01*
X165293699Y-113103734D01*
X165293702Y-113103734D01*
X165293703Y-113103735D01*
X165318666Y-113108700D01*
X165367933Y-113118500D01*
X167118066Y-113118499D01*
X167192301Y-113103734D01*
X167276484Y-113047484D01*
X167332734Y-112963301D01*
X167347500Y-112889067D01*
X167347499Y-111138934D01*
X167332734Y-111064699D01*
X167297176Y-111011483D01*
X167276484Y-110980515D01*
X167224232Y-110945602D01*
X167192301Y-110924266D01*
X167192299Y-110924265D01*
X167192296Y-110924264D01*
X167118069Y-110909500D01*
X165367936Y-110909500D01*
X165293698Y-110924266D01*
X165209515Y-110980515D01*
X165153266Y-111064699D01*
X165153264Y-111064703D01*
X165138500Y-111138928D01*
X165138500Y-112889063D01*
X158217042Y-112889063D01*
X158194472Y-112883500D01*
X158194471Y-112883500D01*
X158035529Y-112883500D01*
X158035528Y-112883500D01*
X157881208Y-112921536D01*
X157740469Y-112995401D01*
X157621506Y-113100794D01*
X157621500Y-113100801D01*
X157531214Y-113231602D01*
X157474850Y-113380218D01*
X157455693Y-113537999D01*
X157455693Y-113538000D01*
X157474850Y-113695781D01*
X157531214Y-113844397D01*
X157622821Y-113977112D01*
X157644704Y-114043466D01*
X157627239Y-114111118D01*
X157575971Y-114158588D01*
X157507178Y-114170805D01*
X157491097Y-114167949D01*
X157432473Y-114153500D01*
X157432471Y-114153500D01*
X157273529Y-114153500D01*
X157273528Y-114153500D01*
X157119208Y-114191536D01*
X156978469Y-114265401D01*
X156859506Y-114370794D01*
X156859499Y-114370802D01*
X156856645Y-114374938D01*
X156802363Y-114418930D01*
X156754594Y-114428500D01*
X156225420Y-114428500D01*
X156158381Y-114408815D01*
X156137739Y-114392181D01*
X152766135Y-111020577D01*
X152750007Y-111000716D01*
X152743934Y-110991421D01*
X152743933Y-110991420D01*
X152743932Y-110991418D01*
X152715582Y-110969352D01*
X152709836Y-110964278D01*
X152706977Y-110961419D01*
X152704585Y-110959711D01*
X152687770Y-110947704D01*
X152643987Y-110913628D01*
X152643986Y-110913627D01*
X152643983Y-110913625D01*
X152643978Y-110913623D01*
X152636991Y-110909841D01*
X152629845Y-110906348D01*
X152629843Y-110906347D01*
X152617646Y-110902715D01*
X152576681Y-110890519D01*
X152524192Y-110872499D01*
X152516380Y-110871196D01*
X152508450Y-110870207D01*
X152454939Y-110872421D01*
X152453039Y-110872500D01*
X151689754Y-110872500D01*
X151622715Y-110852815D01*
X151576960Y-110800011D01*
X151567016Y-110730853D01*
X151596041Y-110667297D01*
X151607526Y-110655685D01*
X151667732Y-110602347D01*
X151758021Y-110471541D01*
X151814383Y-110322928D01*
X151833541Y-110165146D01*
X151814383Y-110007364D01*
X151808159Y-109990952D01*
X155559645Y-109990952D01*
X155578802Y-110148733D01*
X155635166Y-110297349D01*
X155652822Y-110322928D01*
X155725454Y-110428153D01*
X155725456Y-110428155D01*
X155725458Y-110428157D01*
X155844421Y-110533550D01*
X155844423Y-110533551D01*
X155985159Y-110607415D01*
X156062320Y-110626433D01*
X156139480Y-110645452D01*
X156139481Y-110645452D01*
X156298424Y-110645452D01*
X156349863Y-110632773D01*
X156452745Y-110607415D01*
X156593481Y-110533551D01*
X156712450Y-110428153D01*
X156802739Y-110297347D01*
X156859101Y-110148734D01*
X156878259Y-109990952D01*
X156870347Y-109925794D01*
X156859101Y-109833170D01*
X156826245Y-109746537D01*
X156802739Y-109684557D01*
X156798089Y-109677821D01*
X156764533Y-109629206D01*
X156712450Y-109553751D01*
X156712447Y-109553748D01*
X156712445Y-109553746D01*
X156593482Y-109448353D01*
X156452743Y-109374488D01*
X156298424Y-109336452D01*
X156298423Y-109336452D01*
X156139481Y-109336452D01*
X156139480Y-109336452D01*
X155985160Y-109374488D01*
X155844421Y-109448353D01*
X155725458Y-109553746D01*
X155725452Y-109553753D01*
X155635166Y-109684554D01*
X155578802Y-109833170D01*
X155559645Y-109990951D01*
X155559645Y-109990952D01*
X151808159Y-109990952D01*
X151758021Y-109858751D01*
X151667732Y-109727945D01*
X151556278Y-109629205D01*
X151519153Y-109570016D01*
X151519921Y-109500151D01*
X151558339Y-109441791D01*
X151622210Y-109413467D01*
X151633809Y-109412701D01*
X151636361Y-109412391D01*
X151636362Y-109412391D01*
X151790684Y-109374354D01*
X151931420Y-109300490D01*
X152050389Y-109195092D01*
X152140678Y-109064286D01*
X152153698Y-109029953D01*
X152195873Y-108974253D01*
X152261471Y-108950195D01*
X152329661Y-108965421D01*
X152378795Y-109015096D01*
X152385581Y-109029954D01*
X152431474Y-109150961D01*
X152470722Y-109207821D01*
X152521762Y-109281765D01*
X152521764Y-109281767D01*
X152521766Y-109281769D01*
X152640729Y-109387162D01*
X152640731Y-109387163D01*
X152781467Y-109461027D01*
X152858628Y-109480045D01*
X152935788Y-109499064D01*
X152935789Y-109499064D01*
X153094732Y-109499064D01*
X153146171Y-109486385D01*
X153249053Y-109461027D01*
X153389789Y-109387163D01*
X153508758Y-109281765D01*
X153599047Y-109150959D01*
X153655409Y-109002346D01*
X153674567Y-108844564D01*
X153655409Y-108686782D01*
X153599047Y-108538169D01*
X153508758Y-108407363D01*
X153508755Y-108407360D01*
X153508753Y-108407358D01*
X153389790Y-108301965D01*
X153249051Y-108228100D01*
X153094732Y-108190064D01*
X153094731Y-108190064D01*
X152935789Y-108190064D01*
X152935788Y-108190064D01*
X152781468Y-108228100D01*
X152640729Y-108301965D01*
X152521766Y-108407358D01*
X152521760Y-108407365D01*
X152431474Y-108538167D01*
X152431472Y-108538170D01*
X152418452Y-108572501D01*
X152376274Y-108628203D01*
X152310676Y-108652259D01*
X152242486Y-108637031D01*
X152193353Y-108587355D01*
X152186570Y-108572502D01*
X152140678Y-108451496D01*
X152050389Y-108320690D01*
X152050386Y-108320687D01*
X152050384Y-108320685D01*
X151931421Y-108215292D01*
X151790682Y-108141427D01*
X151636363Y-108103391D01*
X151636362Y-108103391D01*
X151477420Y-108103391D01*
X151477419Y-108103391D01*
X151323099Y-108141427D01*
X151182360Y-108215292D01*
X151063397Y-108320685D01*
X151063394Y-108320688D01*
X151007816Y-108401207D01*
X150953532Y-108445197D01*
X150884084Y-108452856D01*
X150848145Y-108440564D01*
X150834832Y-108433577D01*
X150834829Y-108433576D01*
X150834827Y-108433575D01*
X150680511Y-108395540D01*
X150680510Y-108395540D01*
X150672445Y-108395540D01*
X150605406Y-108375855D01*
X150559651Y-108323051D01*
X150549707Y-108253893D01*
X150556501Y-108227573D01*
X150606283Y-108096312D01*
X150625441Y-107938530D01*
X150606283Y-107780748D01*
X150606281Y-107780744D01*
X150604488Y-107773464D01*
X150607286Y-107772774D01*
X150602921Y-107716463D01*
X150636039Y-107654941D01*
X150697161Y-107621090D01*
X150753917Y-107621700D01*
X150804761Y-107634232D01*
X150804762Y-107634232D01*
X150963705Y-107634232D01*
X151017023Y-107621090D01*
X151118026Y-107596195D01*
X151258762Y-107522331D01*
X151377731Y-107416933D01*
X151468020Y-107286127D01*
X151524382Y-107137514D01*
X151543540Y-106979732D01*
X151524382Y-106821950D01*
X151468020Y-106673337D01*
X151377731Y-106542531D01*
X151377728Y-106542528D01*
X151377726Y-106542526D01*
X151258763Y-106437133D01*
X151118024Y-106363268D01*
X150963705Y-106325232D01*
X150963704Y-106325232D01*
X150804762Y-106325232D01*
X150804761Y-106325232D01*
X150650441Y-106363268D01*
X150509702Y-106437133D01*
X150390739Y-106542526D01*
X150390733Y-106542533D01*
X150300447Y-106673334D01*
X150244083Y-106821950D01*
X150224926Y-106979731D01*
X150224926Y-106979732D01*
X150244084Y-107137515D01*
X150245879Y-107144798D01*
X150243086Y-107145486D01*
X150247437Y-107201837D01*
X150214299Y-107263348D01*
X150153166Y-107297179D01*
X150096450Y-107296561D01*
X150045607Y-107284030D01*
X150045605Y-107284030D01*
X149886663Y-107284030D01*
X149886662Y-107284030D01*
X149732342Y-107322066D01*
X149591603Y-107395931D01*
X149472640Y-107501324D01*
X149472634Y-107501331D01*
X149382348Y-107632132D01*
X149325984Y-107780748D01*
X149306827Y-107938529D01*
X149306827Y-107938530D01*
X149325984Y-108096311D01*
X149339122Y-108130952D01*
X149375966Y-108228101D01*
X149382348Y-108244927D01*
X149450188Y-108343209D01*
X149472636Y-108375731D01*
X149472638Y-108375733D01*
X149472640Y-108375735D01*
X149591603Y-108481128D01*
X149591605Y-108481129D01*
X149732341Y-108554993D01*
X149769874Y-108564244D01*
X149886662Y-108593030D01*
X149894728Y-108593030D01*
X149961767Y-108612715D01*
X150007522Y-108665519D01*
X150017466Y-108734677D01*
X150010671Y-108760996D01*
X149990121Y-108815182D01*
X149960889Y-108892258D01*
X149941732Y-109050039D01*
X149941732Y-109050040D01*
X149960889Y-109207821D01*
X149996034Y-109300489D01*
X150009673Y-109336452D01*
X150017253Y-109356437D01*
X150089447Y-109461027D01*
X150107541Y-109487241D01*
X150141775Y-109517570D01*
X150178901Y-109576758D01*
X150178133Y-109646623D01*
X150139716Y-109704983D01*
X150075845Y-109733308D01*
X150029873Y-109730781D01*
X149939473Y-109708500D01*
X149939471Y-109708500D01*
X149780529Y-109708500D01*
X149780528Y-109708500D01*
X149626208Y-109746536D01*
X149485469Y-109820401D01*
X149366506Y-109925794D01*
X149366500Y-109925801D01*
X149276214Y-110056602D01*
X149219850Y-110205218D01*
X149200693Y-110362999D01*
X149200693Y-110363000D01*
X149219850Y-110520781D01*
X149250784Y-110602344D01*
X149275417Y-110667297D01*
X149276214Y-110669397D01*
X149282194Y-110678060D01*
X149304077Y-110744414D01*
X149286612Y-110812066D01*
X149235344Y-110859536D01*
X149180144Y-110872500D01*
X146902406Y-110872500D01*
X146835367Y-110852815D01*
X146800355Y-110818938D01*
X146797500Y-110814802D01*
X146797499Y-110814801D01*
X146797498Y-110814799D01*
X146797495Y-110814796D01*
X146797493Y-110814794D01*
X146678530Y-110709401D01*
X146537791Y-110635536D01*
X146383472Y-110597500D01*
X146383471Y-110597500D01*
X146224529Y-110597500D01*
X146224528Y-110597500D01*
X146070208Y-110635536D01*
X145929469Y-110709401D01*
X145810506Y-110814794D01*
X145810500Y-110814801D01*
X145720214Y-110945602D01*
X145663850Y-111094218D01*
X145644693Y-111251999D01*
X145644693Y-111252000D01*
X136525500Y-111252000D01*
X136525500Y-107956000D01*
X137480364Y-107956000D01*
X137537567Y-108169486D01*
X137537570Y-108169492D01*
X137637399Y-108383578D01*
X137772894Y-108577082D01*
X137939917Y-108744105D01*
X138133421Y-108879600D01*
X138347507Y-108979429D01*
X138347516Y-108979433D01*
X138561000Y-109036634D01*
X138561000Y-108141501D01*
X138668685Y-108190680D01*
X138775237Y-108206000D01*
X138846763Y-108206000D01*
X138953315Y-108190680D01*
X139061000Y-108141501D01*
X139061000Y-109036633D01*
X139274483Y-108979433D01*
X139274492Y-108979429D01*
X139488578Y-108879600D01*
X139682082Y-108744105D01*
X139849105Y-108577082D01*
X139984600Y-108383578D01*
X140084429Y-108169492D01*
X140084432Y-108169486D01*
X140141636Y-107956000D01*
X139244686Y-107956000D01*
X139270493Y-107915844D01*
X139311000Y-107777889D01*
X139311000Y-107634111D01*
X139270493Y-107496156D01*
X139244686Y-107456000D01*
X140141636Y-107456000D01*
X140141635Y-107455999D01*
X140084432Y-107242513D01*
X140084429Y-107242507D01*
X139984600Y-107028422D01*
X139984599Y-107028420D01*
X139849113Y-106834926D01*
X139849108Y-106834920D01*
X139682082Y-106667894D01*
X139488578Y-106532399D01*
X139274492Y-106432570D01*
X139274477Y-106432564D01*
X139241960Y-106423851D01*
X139182300Y-106387486D01*
X139151772Y-106324638D01*
X139160067Y-106255263D01*
X139204553Y-106201386D01*
X139229257Y-106188452D01*
X139305427Y-106158944D01*
X139479462Y-106051186D01*
X139486248Y-106045000D01*
X141072693Y-106045000D01*
X141091850Y-106202781D01*
X141112193Y-106256420D01*
X141148213Y-106351395D01*
X141238502Y-106482201D01*
X141238504Y-106482203D01*
X141238506Y-106482205D01*
X141357469Y-106587598D01*
X141357471Y-106587599D01*
X141498207Y-106661463D01*
X141575368Y-106680481D01*
X141652528Y-106699500D01*
X141652529Y-106699500D01*
X141811472Y-106699500D01*
X141874361Y-106683999D01*
X141965793Y-106661463D01*
X142106529Y-106587599D01*
X142225498Y-106482201D01*
X142315787Y-106351395D01*
X142372149Y-106202782D01*
X142391307Y-106045000D01*
X142390572Y-106038950D01*
X142372149Y-105887218D01*
X142330499Y-105777396D01*
X153505090Y-105777396D01*
X153524247Y-105935177D01*
X153580611Y-106083793D01*
X153628701Y-106153463D01*
X153670899Y-106214597D01*
X153670901Y-106214599D01*
X153670903Y-106214601D01*
X153789866Y-106319994D01*
X153789868Y-106319995D01*
X153930604Y-106393859D01*
X153987381Y-106407853D01*
X154047762Y-106443009D01*
X154079551Y-106505228D01*
X154080803Y-106543196D01*
X154064193Y-106679999D01*
X154064193Y-106680000D01*
X154083350Y-106837781D01*
X154139714Y-106986397D01*
X154168721Y-107028420D01*
X154230002Y-107117201D01*
X154230004Y-107117203D01*
X154230006Y-107117205D01*
X154348969Y-107222598D01*
X154348971Y-107222599D01*
X154489707Y-107296463D01*
X154566868Y-107315481D01*
X154644028Y-107334500D01*
X154644029Y-107334500D01*
X154802972Y-107334500D01*
X154854411Y-107321821D01*
X154957293Y-107296463D01*
X155098029Y-107222599D01*
X155141598Y-107184000D01*
X164912364Y-107184000D01*
X164969567Y-107397486D01*
X164969570Y-107397492D01*
X165069399Y-107611578D01*
X165204894Y-107805082D01*
X165371917Y-107972105D01*
X165565421Y-108107600D01*
X165779507Y-108207429D01*
X165779516Y-108207433D01*
X165812037Y-108216147D01*
X165871698Y-108252512D01*
X165902227Y-108315358D01*
X165893933Y-108384734D01*
X165849448Y-108438612D01*
X165824739Y-108451548D01*
X165748581Y-108481052D01*
X165748569Y-108481057D01*
X165574539Y-108588812D01*
X165574537Y-108588814D01*
X165423269Y-108726712D01*
X165299912Y-108890064D01*
X165208673Y-109073295D01*
X165152654Y-109270183D01*
X165133768Y-109473999D01*
X165133768Y-109474000D01*
X165152654Y-109677816D01*
X165152654Y-109677818D01*
X165152655Y-109677821D01*
X165204133Y-109858748D01*
X165208673Y-109874704D01*
X165299912Y-110057935D01*
X165423269Y-110221287D01*
X165574537Y-110359185D01*
X165574539Y-110359187D01*
X165748569Y-110466942D01*
X165748575Y-110466945D01*
X165760439Y-110471541D01*
X165939444Y-110540888D01*
X166140653Y-110578500D01*
X166140656Y-110578500D01*
X166345344Y-110578500D01*
X166345347Y-110578500D01*
X166546556Y-110540888D01*
X166737427Y-110466944D01*
X166911462Y-110359186D01*
X167062732Y-110221285D01*
X167186088Y-110057935D01*
X167277328Y-109874701D01*
X167333345Y-109677821D01*
X167352232Y-109474000D01*
X167333345Y-109270179D01*
X167277328Y-109073299D01*
X167186088Y-108890065D01*
X167086275Y-108757891D01*
X167062730Y-108726712D01*
X166911462Y-108588814D01*
X166911460Y-108588812D01*
X166737430Y-108481057D01*
X166737424Y-108481054D01*
X166661261Y-108451549D01*
X166605859Y-108408976D01*
X166582269Y-108343209D01*
X166597980Y-108275129D01*
X166648004Y-108226350D01*
X166673963Y-108216147D01*
X166706481Y-108207434D01*
X166706492Y-108207429D01*
X166920578Y-108107600D01*
X167114082Y-107972105D01*
X167281105Y-107805082D01*
X167416600Y-107611578D01*
X167516429Y-107397492D01*
X167516432Y-107397486D01*
X167573636Y-107184000D01*
X166676686Y-107184000D01*
X166702493Y-107143844D01*
X166743000Y-107005889D01*
X166743000Y-106862111D01*
X166702493Y-106724156D01*
X166676686Y-106684000D01*
X167573636Y-106684000D01*
X167573635Y-106683999D01*
X167516432Y-106470513D01*
X167516429Y-106470507D01*
X167416600Y-106256422D01*
X167416599Y-106256420D01*
X167281113Y-106062926D01*
X167281108Y-106062920D01*
X167114082Y-105895894D01*
X166920578Y-105760399D01*
X166706492Y-105660570D01*
X166706477Y-105660564D01*
X166673960Y-105651851D01*
X166614300Y-105615486D01*
X166583772Y-105552638D01*
X166592067Y-105483263D01*
X166636553Y-105429386D01*
X166661257Y-105416452D01*
X166737427Y-105386944D01*
X166911462Y-105279186D01*
X167062732Y-105141285D01*
X167186088Y-104977935D01*
X167277328Y-104794701D01*
X167333345Y-104597821D01*
X167352232Y-104394000D01*
X167333345Y-104190179D01*
X167277328Y-103993299D01*
X167186088Y-103810065D01*
X167121398Y-103724401D01*
X167062730Y-103646712D01*
X166911462Y-103508814D01*
X166911460Y-103508812D01*
X166737430Y-103401057D01*
X166737424Y-103401054D01*
X166586993Y-103342777D01*
X166546556Y-103327112D01*
X166345347Y-103289500D01*
X166140653Y-103289500D01*
X165939444Y-103327112D01*
X165939441Y-103327112D01*
X165939441Y-103327113D01*
X165748575Y-103401054D01*
X165748569Y-103401057D01*
X165574539Y-103508812D01*
X165574537Y-103508814D01*
X165423269Y-103646712D01*
X165299912Y-103810064D01*
X165208673Y-103993295D01*
X165208672Y-103993299D01*
X165157528Y-104173054D01*
X165152654Y-104190183D01*
X165133768Y-104393999D01*
X165133768Y-104394000D01*
X165152654Y-104597816D01*
X165152654Y-104597818D01*
X165152655Y-104597821D01*
X165205282Y-104782785D01*
X165208673Y-104794704D01*
X165299912Y-104977935D01*
X165423269Y-105141287D01*
X165574537Y-105279185D01*
X165574539Y-105279187D01*
X165748569Y-105386942D01*
X165748571Y-105386943D01*
X165748573Y-105386944D01*
X165748576Y-105386945D01*
X165748578Y-105386946D01*
X165824737Y-105416450D01*
X165880139Y-105459023D01*
X165903730Y-105524789D01*
X165888019Y-105592870D01*
X165837996Y-105641649D01*
X165812040Y-105651851D01*
X165779519Y-105660565D01*
X165779507Y-105660570D01*
X165565422Y-105760399D01*
X165565420Y-105760400D01*
X165371926Y-105895886D01*
X165371920Y-105895891D01*
X165204891Y-106062920D01*
X165204886Y-106062926D01*
X165069400Y-106256420D01*
X165069399Y-106256422D01*
X164969570Y-106470507D01*
X164969567Y-106470513D01*
X164912364Y-106683999D01*
X164912364Y-106684000D01*
X165809314Y-106684000D01*
X165783507Y-106724156D01*
X165743000Y-106862111D01*
X165743000Y-107005889D01*
X165783507Y-107143844D01*
X165809314Y-107184000D01*
X164912364Y-107184000D01*
X155141598Y-107184000D01*
X155216998Y-107117201D01*
X155307287Y-106986395D01*
X155363649Y-106837782D01*
X155382807Y-106680000D01*
X155371587Y-106587598D01*
X155363649Y-106522218D01*
X155348471Y-106482198D01*
X155307287Y-106373605D01*
X155216998Y-106242799D01*
X155216995Y-106242796D01*
X155216993Y-106242794D01*
X155098030Y-106137401D01*
X155030840Y-106102137D01*
X154957293Y-106063537D01*
X154957290Y-106063536D01*
X154900514Y-106049542D01*
X154840133Y-106014385D01*
X154808345Y-105952166D01*
X154807093Y-105914198D01*
X154809317Y-105895886D01*
X154823704Y-105777396D01*
X154804546Y-105619614D01*
X154748184Y-105471001D01*
X154741203Y-105460888D01*
X154690165Y-105386946D01*
X154657895Y-105340195D01*
X154657892Y-105340192D01*
X154657890Y-105340190D01*
X154538927Y-105234797D01*
X154398188Y-105160932D01*
X154243869Y-105122896D01*
X154243868Y-105122896D01*
X154084926Y-105122896D01*
X154084925Y-105122896D01*
X153930605Y-105160932D01*
X153789866Y-105234797D01*
X153670903Y-105340190D01*
X153670897Y-105340197D01*
X153580611Y-105470998D01*
X153524247Y-105619614D01*
X153505090Y-105777395D01*
X153505090Y-105777396D01*
X142330499Y-105777396D01*
X142315787Y-105738605D01*
X142225498Y-105607799D01*
X142225495Y-105607796D01*
X142225493Y-105607794D01*
X142106530Y-105502401D01*
X141965791Y-105428536D01*
X141811472Y-105390500D01*
X141811471Y-105390500D01*
X141652529Y-105390500D01*
X141652528Y-105390500D01*
X141498208Y-105428536D01*
X141357469Y-105502401D01*
X141238506Y-105607794D01*
X141238500Y-105607801D01*
X141148214Y-105738602D01*
X141091850Y-105887218D01*
X141072693Y-106044999D01*
X141072693Y-106045000D01*
X139486248Y-106045000D01*
X139608008Y-105934000D01*
X139630730Y-105913287D01*
X139630732Y-105913285D01*
X139754088Y-105749935D01*
X139845328Y-105566701D01*
X139901345Y-105369821D01*
X139920232Y-105166000D01*
X139920097Y-105164548D01*
X139914098Y-105099801D01*
X139901345Y-104962179D01*
X139884223Y-104902000D01*
X145867193Y-104902000D01*
X145886350Y-105059781D01*
X145942714Y-105208397D01*
X146018843Y-105318689D01*
X146033002Y-105339201D01*
X146033004Y-105339203D01*
X146033006Y-105339205D01*
X146151969Y-105444598D01*
X146151971Y-105444599D01*
X146292707Y-105518463D01*
X146369868Y-105537481D01*
X146447028Y-105556500D01*
X146447029Y-105556500D01*
X146605972Y-105556500D01*
X146657411Y-105543821D01*
X146760293Y-105518463D01*
X146901029Y-105444599D01*
X147019998Y-105339201D01*
X147110287Y-105208395D01*
X147166649Y-105059782D01*
X147185807Y-104902000D01*
X147174587Y-104809598D01*
X147166649Y-104744218D01*
X147151471Y-104704198D01*
X147110287Y-104595605D01*
X147019998Y-104464799D01*
X147019995Y-104464796D01*
X147019993Y-104464794D01*
X146901030Y-104359401D01*
X146760291Y-104285536D01*
X146685087Y-104267000D01*
X147803693Y-104267000D01*
X147822850Y-104424781D01*
X147879214Y-104573397D01*
X147896073Y-104597821D01*
X147969502Y-104704201D01*
X147969504Y-104704203D01*
X147969506Y-104704205D01*
X148088469Y-104809598D01*
X148088471Y-104809599D01*
X148229207Y-104883463D01*
X148306368Y-104902481D01*
X148383528Y-104921500D01*
X148442786Y-104921500D01*
X148509825Y-104941185D01*
X148555580Y-104993989D01*
X148565881Y-105030552D01*
X148569431Y-105059782D01*
X148584850Y-105186781D01*
X148619896Y-105279187D01*
X148640940Y-105334676D01*
X148641214Y-105335397D01*
X148716591Y-105444599D01*
X148731502Y-105466201D01*
X148731504Y-105466203D01*
X148731506Y-105466205D01*
X148850469Y-105571598D01*
X148850471Y-105571599D01*
X148991207Y-105645463D01*
X149068368Y-105664481D01*
X149145528Y-105683500D01*
X149145529Y-105683500D01*
X149304472Y-105683500D01*
X149355911Y-105670821D01*
X149458793Y-105645463D01*
X149599529Y-105571599D01*
X149718498Y-105466201D01*
X149808787Y-105335395D01*
X149865149Y-105186782D01*
X149882338Y-105045213D01*
X149909960Y-104981036D01*
X149967894Y-104941979D01*
X150037746Y-104940444D01*
X150097340Y-104976918D01*
X150127755Y-105039821D01*
X150128530Y-105045214D01*
X150145631Y-105186062D01*
X150180949Y-105279185D01*
X150198470Y-105325385D01*
X150201995Y-105334678D01*
X150258439Y-105416450D01*
X150292283Y-105465482D01*
X150292285Y-105465484D01*
X150292287Y-105465486D01*
X150411250Y-105570879D01*
X150411252Y-105570880D01*
X150551988Y-105644744D01*
X150616172Y-105660564D01*
X150706309Y-105682781D01*
X150706310Y-105682781D01*
X150865253Y-105682781D01*
X150955365Y-105660570D01*
X151019574Y-105644744D01*
X151160310Y-105570880D01*
X151279279Y-105465482D01*
X151369568Y-105334676D01*
X151425930Y-105186063D01*
X151444812Y-105030553D01*
X151472434Y-104966376D01*
X151530368Y-104927319D01*
X151567908Y-104921500D01*
X151590472Y-104921500D01*
X151641911Y-104908821D01*
X151744793Y-104883463D01*
X151885529Y-104809599D01*
X151915794Y-104782786D01*
X154780907Y-104782786D01*
X154800064Y-104940567D01*
X154856428Y-105089183D01*
X154923796Y-105186782D01*
X154946716Y-105219987D01*
X154946718Y-105219989D01*
X154946720Y-105219991D01*
X155065683Y-105325384D01*
X155065685Y-105325385D01*
X155206421Y-105399249D01*
X155276208Y-105416450D01*
X155360742Y-105437286D01*
X155393195Y-105437286D01*
X155460234Y-105456971D01*
X155505989Y-105509775D01*
X155516291Y-105576231D01*
X155513193Y-105601747D01*
X155513193Y-105601749D01*
X155532350Y-105759530D01*
X155588714Y-105908146D01*
X155607373Y-105935178D01*
X155679002Y-106038950D01*
X155679004Y-106038952D01*
X155679006Y-106038954D01*
X155797969Y-106144347D01*
X155797971Y-106144348D01*
X155938707Y-106218212D01*
X155998250Y-106232888D01*
X156093028Y-106256249D01*
X156093029Y-106256249D01*
X156251972Y-106256249D01*
X156306560Y-106242794D01*
X156406293Y-106218212D01*
X156547029Y-106144348D01*
X156665998Y-106038950D01*
X156756287Y-105908144D01*
X156812649Y-105759531D01*
X156831807Y-105601749D01*
X156827551Y-105566701D01*
X156812649Y-105443967D01*
X156802213Y-105416450D01*
X156756287Y-105295354D01*
X156665998Y-105164548D01*
X156665995Y-105164545D01*
X156665993Y-105164543D01*
X156547030Y-105059150D01*
X156406291Y-104985285D01*
X156251972Y-104947249D01*
X156251971Y-104947249D01*
X156219519Y-104947249D01*
X156152480Y-104927564D01*
X156106725Y-104874760D01*
X156096423Y-104808304D01*
X156099521Y-104782787D01*
X156099521Y-104782785D01*
X156080363Y-104625004D01*
X156060790Y-104573395D01*
X156024001Y-104476391D01*
X155933712Y-104345585D01*
X155933709Y-104345582D01*
X155933707Y-104345580D01*
X155814744Y-104240187D01*
X155674005Y-104166322D01*
X155519686Y-104128286D01*
X155519685Y-104128286D01*
X155360743Y-104128286D01*
X155360742Y-104128286D01*
X155206422Y-104166322D01*
X155065683Y-104240187D01*
X154946720Y-104345580D01*
X154946714Y-104345587D01*
X154856428Y-104476388D01*
X154800064Y-104625004D01*
X154780907Y-104782785D01*
X154780907Y-104782786D01*
X151915794Y-104782786D01*
X152004498Y-104704201D01*
X152094787Y-104573395D01*
X152151149Y-104424782D01*
X152170307Y-104267000D01*
X152151149Y-104109218D01*
X152094787Y-103960605D01*
X152004498Y-103829799D01*
X152004495Y-103829796D01*
X152004493Y-103829794D01*
X151885530Y-103724401D01*
X151744791Y-103650536D01*
X151590472Y-103612500D01*
X151590471Y-103612500D01*
X151431529Y-103612500D01*
X151431528Y-103612500D01*
X151277208Y-103650536D01*
X151136469Y-103724401D01*
X151017506Y-103829794D01*
X151017500Y-103829801D01*
X150927214Y-103960602D01*
X150870850Y-104109218D01*
X150853345Y-104253387D01*
X150825723Y-104317565D01*
X150767788Y-104356621D01*
X150697936Y-104358156D01*
X150638342Y-104321681D01*
X150607928Y-104258778D01*
X150607159Y-104253429D01*
X150589649Y-104109218D01*
X150533287Y-103960605D01*
X150442998Y-103829799D01*
X150442995Y-103829796D01*
X150442993Y-103829794D01*
X150324030Y-103724401D01*
X150183291Y-103650536D01*
X150028972Y-103612500D01*
X150028971Y-103612500D01*
X149870029Y-103612500D01*
X149870028Y-103612500D01*
X149715708Y-103650536D01*
X149574969Y-103724401D01*
X149456006Y-103829794D01*
X149456000Y-103829801D01*
X149365714Y-103960602D01*
X149322192Y-104075359D01*
X149280013Y-104131061D01*
X149214416Y-104155118D01*
X149146225Y-104139891D01*
X149097093Y-104090214D01*
X149090308Y-104075359D01*
X149059186Y-103993299D01*
X149046787Y-103960605D01*
X148956498Y-103829799D01*
X148956495Y-103829796D01*
X148956493Y-103829794D01*
X148837530Y-103724401D01*
X148696791Y-103650536D01*
X148542472Y-103612500D01*
X148542471Y-103612500D01*
X148383529Y-103612500D01*
X148383528Y-103612500D01*
X148229208Y-103650536D01*
X148088469Y-103724401D01*
X147969506Y-103829794D01*
X147969500Y-103829801D01*
X147879214Y-103960602D01*
X147822850Y-104109218D01*
X147803693Y-104266999D01*
X147803693Y-104267000D01*
X146685087Y-104267000D01*
X146605972Y-104247500D01*
X146605971Y-104247500D01*
X146447029Y-104247500D01*
X146447028Y-104247500D01*
X146292708Y-104285536D01*
X146151969Y-104359401D01*
X146033006Y-104464794D01*
X146033000Y-104464801D01*
X145942714Y-104595602D01*
X145886350Y-104744218D01*
X145867193Y-104901999D01*
X145867193Y-104902000D01*
X139884223Y-104902000D01*
X139845328Y-104765299D01*
X139754088Y-104582065D01*
X139674285Y-104476388D01*
X139630730Y-104418712D01*
X139479462Y-104280814D01*
X139479460Y-104280812D01*
X139305430Y-104173057D01*
X139305424Y-104173054D01*
X139154993Y-104114777D01*
X139114556Y-104099112D01*
X138913347Y-104061500D01*
X138708653Y-104061500D01*
X138507444Y-104099112D01*
X138507441Y-104099112D01*
X138507441Y-104099113D01*
X138316575Y-104173054D01*
X138316569Y-104173057D01*
X138142539Y-104280812D01*
X138142537Y-104280814D01*
X137991269Y-104418712D01*
X137867912Y-104582064D01*
X137776673Y-104765295D01*
X137764436Y-104808304D01*
X137730574Y-104927319D01*
X137720654Y-104962183D01*
X137701768Y-105165999D01*
X137701768Y-105166000D01*
X137720654Y-105369816D01*
X137720654Y-105369818D01*
X137720655Y-105369821D01*
X137772671Y-105552638D01*
X137776673Y-105566704D01*
X137867912Y-105749935D01*
X137991269Y-105913287D01*
X138142537Y-106051185D01*
X138142539Y-106051187D01*
X138316569Y-106158942D01*
X138316571Y-106158943D01*
X138316573Y-106158944D01*
X138316576Y-106158945D01*
X138316578Y-106158946D01*
X138392737Y-106188450D01*
X138448139Y-106231023D01*
X138471730Y-106296789D01*
X138456019Y-106364870D01*
X138405996Y-106413649D01*
X138380040Y-106423851D01*
X138347519Y-106432565D01*
X138347507Y-106432570D01*
X138133422Y-106532399D01*
X138133420Y-106532400D01*
X137939926Y-106667886D01*
X137939920Y-106667891D01*
X137772891Y-106834920D01*
X137772886Y-106834926D01*
X137637400Y-107028420D01*
X137637399Y-107028422D01*
X137537570Y-107242507D01*
X137537567Y-107242513D01*
X137480364Y-107455999D01*
X137480364Y-107456000D01*
X138377314Y-107456000D01*
X138351507Y-107496156D01*
X138311000Y-107634111D01*
X138311000Y-107777889D01*
X138351507Y-107915844D01*
X138377314Y-107956000D01*
X137480364Y-107956000D01*
X136525500Y-107956000D01*
X136525500Y-102626000D01*
X137701768Y-102626000D01*
X137720654Y-102829816D01*
X137720654Y-102829818D01*
X137720655Y-102829821D01*
X137734003Y-102876734D01*
X137776673Y-103026704D01*
X137867912Y-103209935D01*
X137991269Y-103373287D01*
X138142537Y-103511185D01*
X138142539Y-103511187D01*
X138316569Y-103618942D01*
X138316575Y-103618945D01*
X138357010Y-103634609D01*
X138507444Y-103692888D01*
X138708653Y-103730500D01*
X138708656Y-103730500D01*
X138913344Y-103730500D01*
X138913347Y-103730500D01*
X139114556Y-103692888D01*
X139305427Y-103618944D01*
X139479462Y-103511186D01*
X139630732Y-103373285D01*
X139754088Y-103209935D01*
X139845328Y-103026701D01*
X139901345Y-102829821D01*
X139920232Y-102626000D01*
X139901345Y-102422179D01*
X139848088Y-102235000D01*
X142215693Y-102235000D01*
X142234850Y-102392781D01*
X142264312Y-102470463D01*
X142278737Y-102508500D01*
X142291214Y-102541397D01*
X142349611Y-102625999D01*
X142381502Y-102672201D01*
X142381504Y-102672203D01*
X142381506Y-102672205D01*
X142500469Y-102777598D01*
X142500471Y-102777599D01*
X142641207Y-102851463D01*
X142718368Y-102870481D01*
X142795528Y-102889500D01*
X142795529Y-102889500D01*
X142954472Y-102889500D01*
X143006273Y-102876732D01*
X143108793Y-102851463D01*
X143249529Y-102777599D01*
X143368498Y-102672201D01*
X143438810Y-102570337D01*
X146697758Y-102570337D01*
X146716915Y-102728118D01*
X146735681Y-102777598D01*
X146773278Y-102876732D01*
X146863567Y-103007538D01*
X146863569Y-103007540D01*
X146863571Y-103007542D01*
X146982534Y-103112935D01*
X146982536Y-103112936D01*
X147123272Y-103186800D01*
X147200433Y-103205818D01*
X147277593Y-103224837D01*
X147277594Y-103224837D01*
X147436537Y-103224837D01*
X147496996Y-103209935D01*
X147590858Y-103186800D01*
X147731594Y-103112936D01*
X147850563Y-103007538D01*
X147940852Y-102876732D01*
X147997214Y-102728119D01*
X148016372Y-102570337D01*
X148008145Y-102502584D01*
X148019605Y-102433664D01*
X148066508Y-102381878D01*
X148133964Y-102363670D01*
X148200555Y-102384822D01*
X148213463Y-102394820D01*
X148215471Y-102396599D01*
X148356207Y-102470463D01*
X148433368Y-102489481D01*
X148510528Y-102508500D01*
X148510529Y-102508500D01*
X148669472Y-102508500D01*
X148720911Y-102495821D01*
X148823793Y-102470463D01*
X148964529Y-102396599D01*
X149083498Y-102291201D01*
X149173787Y-102160395D01*
X149230149Y-102011782D01*
X149249307Y-101854000D01*
X149242482Y-101797794D01*
X149230149Y-101696218D01*
X149216592Y-101660472D01*
X149211225Y-101590808D01*
X149244372Y-101529302D01*
X149305510Y-101495481D01*
X149332534Y-101492500D01*
X149377972Y-101492500D01*
X149429411Y-101479821D01*
X149532293Y-101454463D01*
X149673029Y-101380599D01*
X149791998Y-101275201D01*
X149882287Y-101144395D01*
X149938649Y-100995782D01*
X149957807Y-100838000D01*
X149938649Y-100680218D01*
X149882287Y-100531605D01*
X149791998Y-100400799D01*
X149791995Y-100400796D01*
X149791993Y-100400794D01*
X149673030Y-100295401D01*
X149532291Y-100221536D01*
X149377972Y-100183500D01*
X149377971Y-100183500D01*
X149219029Y-100183500D01*
X149219028Y-100183500D01*
X149064708Y-100221536D01*
X148923969Y-100295401D01*
X148805006Y-100400794D01*
X148805000Y-100400801D01*
X148714714Y-100531602D01*
X148658350Y-100680218D01*
X148639193Y-100837999D01*
X148639193Y-100838000D01*
X148658350Y-100995781D01*
X148671908Y-101031528D01*
X148677275Y-101101192D01*
X148644128Y-101162698D01*
X148582990Y-101196519D01*
X148555966Y-101199500D01*
X148510528Y-101199500D01*
X148356208Y-101237536D01*
X148215469Y-101311401D01*
X148096506Y-101416794D01*
X148096500Y-101416801D01*
X148006214Y-101547602D01*
X147949850Y-101696218D01*
X147930693Y-101853999D01*
X147930693Y-101854000D01*
X147938919Y-101921750D01*
X147927458Y-101990673D01*
X147880554Y-102042459D01*
X147813099Y-102060666D01*
X147746508Y-102039513D01*
X147733597Y-102029512D01*
X147731595Y-102027738D01*
X147603026Y-101960260D01*
X147590858Y-101953874D01*
X147590857Y-101953873D01*
X147590856Y-101953873D01*
X147436537Y-101915837D01*
X147436536Y-101915837D01*
X147277594Y-101915837D01*
X147277593Y-101915837D01*
X147123273Y-101953873D01*
X146982534Y-102027738D01*
X146863571Y-102133131D01*
X146863565Y-102133138D01*
X146773279Y-102263939D01*
X146716915Y-102412555D01*
X146697758Y-102570336D01*
X146697758Y-102570337D01*
X143438810Y-102570337D01*
X143458787Y-102541395D01*
X143515149Y-102392782D01*
X143534307Y-102235000D01*
X143515149Y-102077218D01*
X143458787Y-101928605D01*
X143368498Y-101797799D01*
X143368495Y-101797796D01*
X143368493Y-101797794D01*
X143249530Y-101692401D01*
X143108791Y-101618536D01*
X142954472Y-101580500D01*
X142954471Y-101580500D01*
X142795529Y-101580500D01*
X142795528Y-101580500D01*
X142641208Y-101618536D01*
X142500469Y-101692401D01*
X142381506Y-101797794D01*
X142381500Y-101797801D01*
X142291214Y-101928602D01*
X142234850Y-102077218D01*
X142215693Y-102234999D01*
X142215693Y-102235000D01*
X139848088Y-102235000D01*
X139845328Y-102225299D01*
X139754088Y-102042065D01*
X139668405Y-101928602D01*
X139630730Y-101878712D01*
X139479462Y-101740814D01*
X139479460Y-101740812D01*
X139305430Y-101633057D01*
X139305424Y-101633054D01*
X139154993Y-101574777D01*
X139114556Y-101559112D01*
X138913347Y-101521500D01*
X138708653Y-101521500D01*
X138507444Y-101559112D01*
X138507441Y-101559112D01*
X138507441Y-101559113D01*
X138316575Y-101633054D01*
X138316569Y-101633057D01*
X138142539Y-101740812D01*
X138142537Y-101740814D01*
X137991269Y-101878712D01*
X137867912Y-102042064D01*
X137776673Y-102225295D01*
X137768255Y-102254881D01*
X137729020Y-102392781D01*
X137720654Y-102422183D01*
X137701768Y-102625999D01*
X137701768Y-102626000D01*
X136525500Y-102626000D01*
X136525500Y-100961063D01*
X137706500Y-100961063D01*
X137721266Y-101035301D01*
X137777515Y-101119484D01*
X137811234Y-101142014D01*
X137861699Y-101175734D01*
X137861702Y-101175734D01*
X137861703Y-101175735D01*
X137886666Y-101180700D01*
X137935933Y-101190500D01*
X139686066Y-101190499D01*
X139760301Y-101175734D01*
X139844484Y-101119484D01*
X139900734Y-101035301D01*
X139915500Y-100961067D01*
X139915500Y-100630166D01*
X144247693Y-100630166D01*
X144266850Y-100787947D01*
X144323214Y-100936563D01*
X144364090Y-100995781D01*
X144413502Y-101067367D01*
X144413504Y-101067369D01*
X144413506Y-101067371D01*
X144532469Y-101172764D01*
X144532471Y-101172765D01*
X144673207Y-101246629D01*
X144750368Y-101265647D01*
X144827528Y-101284666D01*
X144827529Y-101284666D01*
X144986472Y-101284666D01*
X145037911Y-101271987D01*
X145140793Y-101246629D01*
X145281529Y-101172765D01*
X145400498Y-101067367D01*
X145490787Y-100936561D01*
X145547149Y-100787948D01*
X145566307Y-100630166D01*
X145547149Y-100472384D01*
X145490787Y-100323771D01*
X145400498Y-100192965D01*
X145400495Y-100192962D01*
X145400493Y-100192960D01*
X145281530Y-100087567D01*
X145140791Y-100013702D01*
X144986472Y-99975666D01*
X144986471Y-99975666D01*
X144827529Y-99975666D01*
X144827528Y-99975666D01*
X144673208Y-100013702D01*
X144532469Y-100087567D01*
X144413506Y-100192960D01*
X144413500Y-100192967D01*
X144323214Y-100323768D01*
X144266850Y-100472384D01*
X144247693Y-100630165D01*
X144247693Y-100630166D01*
X139915500Y-100630166D01*
X139915499Y-99210934D01*
X139900734Y-99136699D01*
X139882068Y-99108765D01*
X139844484Y-99052515D01*
X139794019Y-99018796D01*
X139760301Y-98996266D01*
X139760299Y-98996265D01*
X139760296Y-98996264D01*
X139686069Y-98981500D01*
X137935936Y-98981500D01*
X137861698Y-98996266D01*
X137777515Y-99052515D01*
X137721266Y-99136699D01*
X137721264Y-99136703D01*
X137706500Y-99210928D01*
X137706500Y-100961063D01*
X136525500Y-100961063D01*
X136525500Y-95377000D01*
X145136693Y-95377000D01*
X145155850Y-95534781D01*
X145212214Y-95683397D01*
X145287591Y-95792599D01*
X145302502Y-95814201D01*
X145302504Y-95814203D01*
X145302506Y-95814205D01*
X145421469Y-95919598D01*
X145421471Y-95919599D01*
X145562207Y-95993463D01*
X145639368Y-96012481D01*
X145716528Y-96031500D01*
X145716529Y-96031500D01*
X145875472Y-96031500D01*
X145926911Y-96018821D01*
X146029793Y-95993463D01*
X146170529Y-95919599D01*
X146289498Y-95814201D01*
X146379787Y-95683395D01*
X146436149Y-95534782D01*
X146455307Y-95377000D01*
X147041693Y-95377000D01*
X147060850Y-95534781D01*
X147117214Y-95683397D01*
X147192591Y-95792599D01*
X147207502Y-95814201D01*
X147207504Y-95814203D01*
X147207506Y-95814205D01*
X147326469Y-95919598D01*
X147326471Y-95919599D01*
X147467207Y-95993463D01*
X147544368Y-96012481D01*
X147621528Y-96031500D01*
X147621529Y-96031500D01*
X147780472Y-96031500D01*
X147831911Y-96018821D01*
X147934793Y-95993463D01*
X148075529Y-95919599D01*
X148194498Y-95814201D01*
X148284787Y-95683395D01*
X148341149Y-95534782D01*
X148360307Y-95377000D01*
X148344887Y-95250000D01*
X149290193Y-95250000D01*
X149309350Y-95407781D01*
X149365714Y-95556397D01*
X149409789Y-95620250D01*
X149456002Y-95687201D01*
X149456004Y-95687203D01*
X149456006Y-95687205D01*
X149574969Y-95792598D01*
X149574971Y-95792599D01*
X149715707Y-95866463D01*
X149792868Y-95885481D01*
X149870028Y-95904500D01*
X149870029Y-95904500D01*
X150028972Y-95904500D01*
X150080411Y-95891821D01*
X150183293Y-95866463D01*
X150324029Y-95792599D01*
X150442998Y-95687201D01*
X150533287Y-95556395D01*
X150589649Y-95407782D01*
X150608807Y-95250000D01*
X150605069Y-95219218D01*
X150589649Y-95092218D01*
X150574471Y-95052198D01*
X150533287Y-94943605D01*
X150533284Y-94943600D01*
X150533033Y-94943121D01*
X150532954Y-94942731D01*
X150530627Y-94936593D01*
X150531647Y-94936205D01*
X150519311Y-94874612D01*
X150544806Y-94809560D01*
X150601424Y-94768618D01*
X150642832Y-94761500D01*
X150701472Y-94761500D01*
X150849488Y-94725017D01*
X150855793Y-94723463D01*
X150855793Y-94723462D01*
X150861939Y-94721948D01*
X150931741Y-94725017D01*
X150988803Y-94765337D01*
X151007556Y-94798373D01*
X151015561Y-94819479D01*
X151048501Y-94906335D01*
X151054214Y-94921397D01*
X151129591Y-95030599D01*
X151144502Y-95052201D01*
X151144504Y-95052203D01*
X151144506Y-95052205D01*
X151263469Y-95157598D01*
X151263471Y-95157599D01*
X151404207Y-95231463D01*
X151481368Y-95250481D01*
X151558528Y-95269500D01*
X151558529Y-95269500D01*
X151717472Y-95269500D01*
X151769496Y-95256677D01*
X151871793Y-95231463D01*
X152012529Y-95157599D01*
X152131498Y-95052201D01*
X152221787Y-94921395D01*
X152278149Y-94772782D01*
X152297307Y-94615000D01*
X152278149Y-94457218D01*
X152221787Y-94308605D01*
X152131498Y-94177799D01*
X152131495Y-94177796D01*
X152131493Y-94177794D01*
X152012530Y-94072401D01*
X151871791Y-93998536D01*
X151717472Y-93960500D01*
X151717471Y-93960500D01*
X151558529Y-93960500D01*
X151558528Y-93960500D01*
X151398060Y-94000051D01*
X151328257Y-93996982D01*
X151271195Y-93956662D01*
X151252443Y-93923626D01*
X151244510Y-93902708D01*
X151205787Y-93800605D01*
X151203156Y-93796794D01*
X151154290Y-93725999D01*
X151115498Y-93669799D01*
X151115495Y-93669796D01*
X151115493Y-93669794D01*
X150996530Y-93564401D01*
X150855791Y-93490536D01*
X150701472Y-93452500D01*
X150701471Y-93452500D01*
X150542529Y-93452500D01*
X150542528Y-93452500D01*
X150388208Y-93490536D01*
X150247469Y-93564401D01*
X150128506Y-93669794D01*
X150128500Y-93669801D01*
X150038214Y-93800602D01*
X149981850Y-93949218D01*
X149962693Y-94106999D01*
X149962693Y-94107000D01*
X149981850Y-94264781D01*
X150006668Y-94330218D01*
X150034761Y-94404294D01*
X150038215Y-94413399D01*
X150038467Y-94413879D01*
X150038545Y-94414268D01*
X150040873Y-94420407D01*
X150039852Y-94420794D01*
X150052189Y-94482388D01*
X150026694Y-94547440D01*
X149970076Y-94588382D01*
X149928668Y-94595500D01*
X149870028Y-94595500D01*
X149715708Y-94633536D01*
X149574969Y-94707401D01*
X149456006Y-94812794D01*
X149456000Y-94812801D01*
X149365714Y-94943602D01*
X149309350Y-95092218D01*
X149290193Y-95249999D01*
X149290193Y-95250000D01*
X148344887Y-95250000D01*
X148341149Y-95219218D01*
X148284787Y-95070605D01*
X148194498Y-94939799D01*
X148194495Y-94939796D01*
X148194493Y-94939794D01*
X148075530Y-94834401D01*
X147934791Y-94760536D01*
X147780472Y-94722500D01*
X147780471Y-94722500D01*
X147621529Y-94722500D01*
X147621528Y-94722500D01*
X147467208Y-94760536D01*
X147326469Y-94834401D01*
X147207506Y-94939794D01*
X147207500Y-94939801D01*
X147117214Y-95070602D01*
X147060850Y-95219218D01*
X147041693Y-95376999D01*
X147041693Y-95377000D01*
X146455307Y-95377000D01*
X146436149Y-95219218D01*
X146379787Y-95070605D01*
X146289498Y-94939799D01*
X146289495Y-94939796D01*
X146289493Y-94939794D01*
X146170530Y-94834401D01*
X146029791Y-94760536D01*
X145875472Y-94722500D01*
X145875471Y-94722500D01*
X145716529Y-94722500D01*
X145716528Y-94722500D01*
X145562208Y-94760536D01*
X145421469Y-94834401D01*
X145302506Y-94939794D01*
X145302500Y-94939801D01*
X145212214Y-95070602D01*
X145155850Y-95219218D01*
X145136693Y-95376999D01*
X145136693Y-95377000D01*
X136525500Y-95377000D01*
X136525500Y-93726000D01*
X136881693Y-93726000D01*
X136900850Y-93883781D01*
X136930312Y-93961463D01*
X136956235Y-94029817D01*
X136957214Y-94032397D01*
X137008709Y-94107000D01*
X137047502Y-94163201D01*
X137047504Y-94163203D01*
X137047506Y-94163205D01*
X137166469Y-94268598D01*
X137166471Y-94268599D01*
X137307207Y-94342463D01*
X137384368Y-94361481D01*
X137461528Y-94380500D01*
X137461529Y-94380500D01*
X137620472Y-94380500D01*
X137671911Y-94367821D01*
X137774793Y-94342463D01*
X137915529Y-94268599D01*
X138034498Y-94163201D01*
X138124787Y-94032395D01*
X138181149Y-93883782D01*
X138200307Y-93726000D01*
X138193482Y-93669794D01*
X138181149Y-93568218D01*
X138179701Y-93564401D01*
X138124787Y-93419605D01*
X138073291Y-93345000D01*
X152592193Y-93345000D01*
X152611350Y-93502781D01*
X152667714Y-93651397D01*
X152719209Y-93726000D01*
X152758002Y-93782201D01*
X152758004Y-93782203D01*
X152758006Y-93782205D01*
X152876969Y-93887598D01*
X152876971Y-93887599D01*
X153017707Y-93961463D01*
X153152400Y-93994662D01*
X153212779Y-94029817D01*
X153244568Y-94092036D01*
X153245820Y-94130004D01*
X153233193Y-94233999D01*
X153233193Y-94234000D01*
X153252351Y-94391782D01*
X153297317Y-94510348D01*
X153302684Y-94580011D01*
X153269537Y-94641517D01*
X153211051Y-94674716D01*
X153119061Y-94697389D01*
X152978322Y-94771254D01*
X152859359Y-94876647D01*
X152859353Y-94876654D01*
X152769067Y-95007455D01*
X152712703Y-95156071D01*
X152693546Y-95313852D01*
X152693546Y-95313853D01*
X152712703Y-95471634D01*
X152769067Y-95620250D01*
X152812653Y-95683395D01*
X152859355Y-95751054D01*
X152859357Y-95751056D01*
X152859359Y-95751058D01*
X152978322Y-95856451D01*
X152978324Y-95856452D01*
X153119060Y-95930316D01*
X153196221Y-95949334D01*
X153273381Y-95968353D01*
X153273382Y-95968353D01*
X153432325Y-95968353D01*
X153483764Y-95955674D01*
X153586646Y-95930316D01*
X153727382Y-95856452D01*
X153846351Y-95751054D01*
X153936640Y-95620248D01*
X153993002Y-95471635D01*
X154012160Y-95313853D01*
X153993002Y-95156071D01*
X153948034Y-95037503D01*
X153942668Y-94967841D01*
X153975815Y-94906335D01*
X154034301Y-94873136D01*
X154126293Y-94850463D01*
X154267029Y-94776599D01*
X154385998Y-94671201D01*
X154461450Y-94561889D01*
X154515733Y-94517900D01*
X154585182Y-94510240D01*
X154647746Y-94541343D01*
X154683564Y-94601334D01*
X154687500Y-94632330D01*
X154687500Y-101928779D01*
X154684861Y-101954227D01*
X154682580Y-101965100D01*
X154687023Y-102000739D01*
X154687500Y-102008416D01*
X154687500Y-102012443D01*
X154690052Y-102027738D01*
X154691383Y-102035716D01*
X154698248Y-102090787D01*
X154700505Y-102098367D01*
X154703099Y-102105923D01*
X154703100Y-102105927D01*
X154703101Y-102105930D01*
X154703102Y-102105931D01*
X154729496Y-102154704D01*
X154753875Y-102204570D01*
X154758472Y-102211008D01*
X154763382Y-102217317D01*
X154804186Y-102254881D01*
X157934276Y-105384970D01*
X157967761Y-105446293D01*
X157969691Y-105487596D01*
X157963693Y-105536999D01*
X157963693Y-105537000D01*
X157982850Y-105694781D01*
X157999470Y-105738602D01*
X158039213Y-105843395D01*
X158129502Y-105974201D01*
X158129504Y-105974203D01*
X158129506Y-105974205D01*
X158248469Y-106079598D01*
X158248471Y-106079599D01*
X158389207Y-106153463D01*
X158466368Y-106172481D01*
X158543528Y-106191500D01*
X158543529Y-106191500D01*
X158702472Y-106191500D01*
X158753911Y-106178821D01*
X158856793Y-106153463D01*
X158997529Y-106079599D01*
X159116498Y-105974201D01*
X159206787Y-105843395D01*
X159263149Y-105694782D01*
X159282307Y-105537000D01*
X159271087Y-105444598D01*
X159263149Y-105379218D01*
X159247971Y-105339198D01*
X159206787Y-105230605D01*
X159116498Y-105099799D01*
X159116495Y-105099796D01*
X159116493Y-105099794D01*
X158997529Y-104994401D01*
X158997530Y-104994401D01*
X158945848Y-104967276D01*
X158895636Y-104918691D01*
X158879662Y-104850672D01*
X158902998Y-104784814D01*
X158921240Y-104764672D01*
X158989498Y-104704201D01*
X159079787Y-104573395D01*
X159136149Y-104424782D01*
X159155307Y-104267000D01*
X159136149Y-104109218D01*
X159079787Y-103960605D01*
X159003607Y-103850239D01*
X158981724Y-103783884D01*
X158999189Y-103716233D01*
X159050457Y-103668763D01*
X159105657Y-103655799D01*
X159206173Y-103655799D01*
X159257612Y-103643120D01*
X159360494Y-103617762D01*
X159501230Y-103543898D01*
X159620199Y-103438500D01*
X159710488Y-103307694D01*
X159766850Y-103159081D01*
X159786008Y-103001299D01*
X159776244Y-102920888D01*
X159766850Y-102843517D01*
X159727282Y-102739187D01*
X159710488Y-102694904D01*
X159620199Y-102564098D01*
X159620196Y-102564095D01*
X159620194Y-102564093D01*
X159501231Y-102458700D01*
X159360492Y-102384835D01*
X159206173Y-102346799D01*
X159206172Y-102346799D01*
X159047230Y-102346799D01*
X159047229Y-102346799D01*
X158892909Y-102384835D01*
X158752170Y-102458700D01*
X158633207Y-102564093D01*
X158633201Y-102564100D01*
X158542915Y-102694901D01*
X158486551Y-102843517D01*
X158467394Y-103001298D01*
X158467394Y-103001299D01*
X158486551Y-103159080D01*
X158542915Y-103307696D01*
X158619094Y-103418060D01*
X158640977Y-103484415D01*
X158623512Y-103552066D01*
X158572244Y-103599536D01*
X158517044Y-103612500D01*
X158416528Y-103612500D01*
X158262208Y-103650536D01*
X158121469Y-103724401D01*
X158002506Y-103829794D01*
X158002500Y-103829801D01*
X157912214Y-103960603D01*
X157912212Y-103960606D01*
X157889779Y-104019755D01*
X157847600Y-104075457D01*
X157782002Y-104099513D01*
X157713812Y-104084285D01*
X157686157Y-104063463D01*
X155482819Y-101860125D01*
X155479474Y-101854000D01*
X165133768Y-101854000D01*
X165152654Y-102057816D01*
X165152654Y-102057818D01*
X165152655Y-102057821D01*
X165203066Y-102234999D01*
X165208673Y-102254704D01*
X165299912Y-102437935D01*
X165423269Y-102601287D01*
X165574537Y-102739185D01*
X165574539Y-102739187D01*
X165748569Y-102846942D01*
X165748575Y-102846945D01*
X165789010Y-102862609D01*
X165939444Y-102920888D01*
X166140653Y-102958500D01*
X166140656Y-102958500D01*
X166345344Y-102958500D01*
X166345347Y-102958500D01*
X166546556Y-102920888D01*
X166737427Y-102846944D01*
X166911462Y-102739186D01*
X167062732Y-102601285D01*
X167186088Y-102437935D01*
X167277328Y-102254701D01*
X167333345Y-102057821D01*
X167352232Y-101854000D01*
X167333345Y-101650179D01*
X167277328Y-101453299D01*
X167186088Y-101270065D01*
X167062732Y-101106715D01*
X167062730Y-101106712D01*
X166911462Y-100968814D01*
X166911460Y-100968812D01*
X166737430Y-100861057D01*
X166737424Y-100861054D01*
X166586993Y-100802777D01*
X166546556Y-100787112D01*
X166345347Y-100749500D01*
X166140653Y-100749500D01*
X165939444Y-100787112D01*
X165939441Y-100787112D01*
X165939441Y-100787113D01*
X165748575Y-100861054D01*
X165748569Y-100861057D01*
X165574539Y-100968812D01*
X165574537Y-100968814D01*
X165423269Y-101106712D01*
X165299912Y-101270064D01*
X165208673Y-101453295D01*
X165208672Y-101453299D01*
X165157528Y-101633054D01*
X165152654Y-101650183D01*
X165133768Y-101853999D01*
X165133768Y-101854000D01*
X155479474Y-101854000D01*
X155449334Y-101798802D01*
X155446500Y-101772444D01*
X155446500Y-100113500D01*
X156312693Y-100113500D01*
X156331850Y-100271281D01*
X156388214Y-100419897D01*
X156464343Y-100530189D01*
X156478502Y-100550701D01*
X156478504Y-100550703D01*
X156478506Y-100550705D01*
X156597469Y-100656098D01*
X156597471Y-100656099D01*
X156738207Y-100729963D01*
X156815368Y-100748981D01*
X156892528Y-100768000D01*
X156892529Y-100768000D01*
X157051472Y-100768000D01*
X157126528Y-100749500D01*
X157205793Y-100729963D01*
X157346529Y-100656099D01*
X157465498Y-100550701D01*
X157555787Y-100419895D01*
X157612149Y-100271282D01*
X157631307Y-100113500D01*
X162916693Y-100113500D01*
X162935850Y-100271281D01*
X162992214Y-100419897D01*
X163068343Y-100530189D01*
X163082502Y-100550701D01*
X163082504Y-100550703D01*
X163082506Y-100550705D01*
X163201469Y-100656098D01*
X163201471Y-100656099D01*
X163342207Y-100729963D01*
X163419368Y-100748981D01*
X163496528Y-100768000D01*
X163496529Y-100768000D01*
X163655472Y-100768000D01*
X163730528Y-100749500D01*
X163809793Y-100729963D01*
X163950529Y-100656099D01*
X164069498Y-100550701D01*
X164159787Y-100419895D01*
X164216149Y-100271282D01*
X164235307Y-100113500D01*
X164223189Y-100013702D01*
X164216149Y-99955718D01*
X164159787Y-99807105D01*
X164069498Y-99676299D01*
X164069495Y-99676296D01*
X164069493Y-99676294D01*
X163950530Y-99570901D01*
X163809791Y-99497036D01*
X163655472Y-99459000D01*
X163655471Y-99459000D01*
X163496529Y-99459000D01*
X163496528Y-99459000D01*
X163342208Y-99497036D01*
X163201469Y-99570901D01*
X163082506Y-99676294D01*
X163082500Y-99676301D01*
X162992214Y-99807102D01*
X162935850Y-99955718D01*
X162916693Y-100113499D01*
X162916693Y-100113500D01*
X157631307Y-100113500D01*
X157619189Y-100013702D01*
X157612149Y-99955718D01*
X157555787Y-99807105D01*
X157465498Y-99676299D01*
X157465495Y-99676296D01*
X157465493Y-99676294D01*
X157346530Y-99570901D01*
X157205791Y-99497036D01*
X157051472Y-99459000D01*
X157051471Y-99459000D01*
X156892529Y-99459000D01*
X156892528Y-99459000D01*
X156738208Y-99497036D01*
X156597469Y-99570901D01*
X156478506Y-99676294D01*
X156478500Y-99676301D01*
X156388214Y-99807102D01*
X156331850Y-99955718D01*
X156312693Y-100113499D01*
X156312693Y-100113500D01*
X155446500Y-100113500D01*
X155446500Y-99314000D01*
X165133768Y-99314000D01*
X165152654Y-99517816D01*
X165152654Y-99517818D01*
X165152655Y-99517821D01*
X165197746Y-99676299D01*
X165208673Y-99714704D01*
X165299912Y-99897935D01*
X165423269Y-100061287D01*
X165574537Y-100199185D01*
X165574539Y-100199187D01*
X165748569Y-100306942D01*
X165748575Y-100306945D01*
X165789010Y-100322609D01*
X165939444Y-100380888D01*
X166140653Y-100418500D01*
X166140656Y-100418500D01*
X166345344Y-100418500D01*
X166345347Y-100418500D01*
X166546556Y-100380888D01*
X166737427Y-100306944D01*
X166911462Y-100199186D01*
X167062732Y-100061285D01*
X167186088Y-99897935D01*
X167277328Y-99714701D01*
X167333345Y-99517821D01*
X167352232Y-99314000D01*
X167333345Y-99110179D01*
X167277328Y-98913299D01*
X167186088Y-98730065D01*
X167062732Y-98566715D01*
X167062730Y-98566712D01*
X166911462Y-98428814D01*
X166911460Y-98428812D01*
X166737430Y-98321057D01*
X166737424Y-98321054D01*
X166586993Y-98262777D01*
X166546556Y-98247112D01*
X166345347Y-98209500D01*
X166140653Y-98209500D01*
X165939444Y-98247112D01*
X165939441Y-98247112D01*
X165939441Y-98247113D01*
X165748575Y-98321054D01*
X165748569Y-98321057D01*
X165574539Y-98428812D01*
X165574537Y-98428814D01*
X165423269Y-98566712D01*
X165299912Y-98730064D01*
X165208673Y-98913295D01*
X165185066Y-98996266D01*
X165169062Y-99052516D01*
X165152654Y-99110183D01*
X165133768Y-99313999D01*
X165133768Y-99314000D01*
X155446500Y-99314000D01*
X155446500Y-97282000D01*
X159995693Y-97282000D01*
X160014850Y-97439781D01*
X160055427Y-97546773D01*
X160071213Y-97588395D01*
X160161502Y-97719201D01*
X160161504Y-97719203D01*
X160161506Y-97719205D01*
X160280469Y-97824598D01*
X160280471Y-97824599D01*
X160421207Y-97898463D01*
X160498368Y-97917481D01*
X160575528Y-97936500D01*
X160575529Y-97936500D01*
X160734472Y-97936500D01*
X160785911Y-97923821D01*
X160888793Y-97898463D01*
X161029529Y-97824599D01*
X161148498Y-97719201D01*
X161238787Y-97588395D01*
X161295149Y-97439782D01*
X161314307Y-97282000D01*
X161295149Y-97124218D01*
X161276235Y-97074348D01*
X161270869Y-97004687D01*
X161304016Y-96943180D01*
X161365154Y-96909359D01*
X161421851Y-96909980D01*
X161464529Y-96920500D01*
X161464530Y-96920500D01*
X161623472Y-96920500D01*
X161674911Y-96907821D01*
X161777793Y-96882463D01*
X161918529Y-96808599D01*
X162037498Y-96703201D01*
X162127787Y-96572395D01*
X162184149Y-96423782D01*
X162203307Y-96266000D01*
X162184149Y-96108218D01*
X162127787Y-95959605D01*
X162037498Y-95828799D01*
X162037495Y-95828796D01*
X162037493Y-95828794D01*
X161918530Y-95723401D01*
X161777791Y-95649536D01*
X161623472Y-95611500D01*
X161623471Y-95611500D01*
X161464529Y-95611500D01*
X161464528Y-95611500D01*
X161310208Y-95649536D01*
X161169469Y-95723401D01*
X161050506Y-95828794D01*
X161050500Y-95828801D01*
X160960214Y-95959602D01*
X160903850Y-96108218D01*
X160884693Y-96265999D01*
X160884693Y-96266000D01*
X160903851Y-96423782D01*
X160922763Y-96473650D01*
X160928130Y-96543313D01*
X160894982Y-96604820D01*
X160833844Y-96638641D01*
X160777147Y-96638018D01*
X160734473Y-96627500D01*
X160734471Y-96627500D01*
X160575529Y-96627500D01*
X160575528Y-96627500D01*
X160421208Y-96665536D01*
X160280469Y-96739401D01*
X160161506Y-96844794D01*
X160161500Y-96844801D01*
X160071214Y-96975602D01*
X160014850Y-97124218D01*
X159995693Y-97281999D01*
X159995693Y-97282000D01*
X155446500Y-97282000D01*
X155446500Y-95496783D01*
X155466185Y-95429744D01*
X155518989Y-95383989D01*
X155588147Y-95374045D01*
X155628121Y-95386984D01*
X155721402Y-95435942D01*
X155721404Y-95435942D01*
X155721405Y-95435943D01*
X155875723Y-95473979D01*
X155875724Y-95473979D01*
X156034667Y-95473979D01*
X156086106Y-95461300D01*
X156188988Y-95435942D01*
X156301293Y-95377000D01*
X157201693Y-95377000D01*
X157220850Y-95534781D01*
X157277214Y-95683397D01*
X157352591Y-95792599D01*
X157367502Y-95814201D01*
X157367504Y-95814203D01*
X157367506Y-95814205D01*
X157486469Y-95919598D01*
X157486471Y-95919599D01*
X157627207Y-95993463D01*
X157704368Y-96012481D01*
X157781528Y-96031500D01*
X157781529Y-96031500D01*
X157940472Y-96031500D01*
X157991911Y-96018821D01*
X158094793Y-95993463D01*
X158235529Y-95919599D01*
X158354498Y-95814201D01*
X158444787Y-95683395D01*
X158501149Y-95534782D01*
X158520307Y-95377000D01*
X158501149Y-95219218D01*
X158444787Y-95070605D01*
X158354498Y-94939799D01*
X158354495Y-94939796D01*
X158354493Y-94939794D01*
X158235530Y-94834401D01*
X158094791Y-94760536D01*
X157940472Y-94722500D01*
X157940471Y-94722500D01*
X157781529Y-94722500D01*
X157781528Y-94722500D01*
X157627208Y-94760536D01*
X157486469Y-94834401D01*
X157367506Y-94939794D01*
X157367500Y-94939801D01*
X157277214Y-95070602D01*
X157220850Y-95219218D01*
X157201693Y-95376999D01*
X157201693Y-95377000D01*
X156301293Y-95377000D01*
X156329724Y-95362078D01*
X156448693Y-95256680D01*
X156538982Y-95125874D01*
X156595344Y-94977261D01*
X156614502Y-94819479D01*
X156614127Y-94816394D01*
X156595344Y-94661697D01*
X156577634Y-94615000D01*
X156538982Y-94513084D01*
X156537093Y-94510348D01*
X156500420Y-94457218D01*
X156448693Y-94382278D01*
X156448690Y-94382275D01*
X156448688Y-94382273D01*
X156329725Y-94276880D01*
X156188986Y-94203015D01*
X156034667Y-94164979D01*
X156034666Y-94164979D01*
X155875724Y-94164979D01*
X155875723Y-94164979D01*
X155721403Y-94203015D01*
X155628125Y-94251971D01*
X155559616Y-94265695D01*
X155494563Y-94240203D01*
X155453620Y-94183587D01*
X155446500Y-94142174D01*
X155446500Y-93345000D01*
X162117193Y-93345000D01*
X162136350Y-93502781D01*
X162192714Y-93651397D01*
X162244209Y-93726000D01*
X162283002Y-93782201D01*
X162283004Y-93782203D01*
X162283006Y-93782205D01*
X162401969Y-93887598D01*
X162401971Y-93887599D01*
X162542707Y-93961463D01*
X162619868Y-93980481D01*
X162697028Y-93999500D01*
X162697029Y-93999500D01*
X162855973Y-93999500D01*
X162863419Y-93998596D01*
X162863614Y-94000202D01*
X162924506Y-94002870D01*
X162981574Y-94043181D01*
X163007790Y-94107946D01*
X162994829Y-94176603D01*
X162994199Y-94177819D01*
X162992216Y-94181596D01*
X162935850Y-94330218D01*
X162916693Y-94487999D01*
X162916693Y-94488000D01*
X162935850Y-94645781D01*
X162965312Y-94723463D01*
X162985463Y-94776598D01*
X162992214Y-94794397D01*
X163048991Y-94876652D01*
X163082502Y-94925201D01*
X163082504Y-94925203D01*
X163082506Y-94925205D01*
X163201469Y-95030598D01*
X163201471Y-95030599D01*
X163342207Y-95104463D01*
X163419368Y-95123481D01*
X163496528Y-95142500D01*
X163496529Y-95142500D01*
X163655472Y-95142500D01*
X163722925Y-95125874D01*
X163809793Y-95104463D01*
X163950529Y-95030599D01*
X164069498Y-94925201D01*
X164108950Y-94868045D01*
X164163232Y-94824054D01*
X164232681Y-94816394D01*
X164295246Y-94847497D01*
X164313050Y-94868045D01*
X164352497Y-94925195D01*
X164352506Y-94925205D01*
X164471469Y-95030598D01*
X164471471Y-95030599D01*
X164612207Y-95104463D01*
X164689368Y-95123481D01*
X164766528Y-95142500D01*
X164766529Y-95142500D01*
X164925472Y-95142500D01*
X164992925Y-95125874D01*
X165079793Y-95104463D01*
X165220529Y-95030599D01*
X165339498Y-94925201D01*
X165429787Y-94794395D01*
X165486149Y-94645782D01*
X165505307Y-94488000D01*
X165501569Y-94457218D01*
X165486149Y-94330218D01*
X165465920Y-94276880D01*
X165429787Y-94181605D01*
X165427156Y-94177794D01*
X165354409Y-94072401D01*
X165339498Y-94050799D01*
X165339495Y-94050796D01*
X165339493Y-94050794D01*
X165220530Y-93945401D01*
X165079791Y-93871536D01*
X164925472Y-93833500D01*
X164925471Y-93833500D01*
X164766529Y-93833500D01*
X164766528Y-93833500D01*
X164612208Y-93871536D01*
X164471469Y-93945401D01*
X164352506Y-94050794D01*
X164352500Y-94050801D01*
X164313050Y-94107955D01*
X164258767Y-94151945D01*
X164189318Y-94159605D01*
X164126754Y-94128501D01*
X164108950Y-94107955D01*
X164069499Y-94050801D01*
X164069498Y-94050799D01*
X164069495Y-94050796D01*
X164069493Y-94050794D01*
X163950530Y-93945401D01*
X163809791Y-93871536D01*
X163655472Y-93833500D01*
X163655471Y-93833500D01*
X163496529Y-93833500D01*
X163496527Y-93833500D01*
X163489081Y-93834404D01*
X163488886Y-93832801D01*
X163427970Y-93830121D01*
X163370910Y-93789799D01*
X163344707Y-93725029D01*
X163357681Y-93656375D01*
X163358307Y-93655167D01*
X163360285Y-93651398D01*
X163360285Y-93651397D01*
X163360287Y-93651395D01*
X163416649Y-93502782D01*
X163435807Y-93345000D01*
X163428982Y-93288794D01*
X163416649Y-93187218D01*
X163387188Y-93109537D01*
X163360287Y-93038605D01*
X163269998Y-92907799D01*
X163269995Y-92907796D01*
X163269993Y-92907794D01*
X163151030Y-92802401D01*
X163010291Y-92728536D01*
X162855972Y-92690500D01*
X162855971Y-92690500D01*
X162697029Y-92690500D01*
X162697028Y-92690500D01*
X162542708Y-92728536D01*
X162401969Y-92802401D01*
X162283006Y-92907794D01*
X162283000Y-92907801D01*
X162192714Y-93038602D01*
X162136350Y-93187218D01*
X162117193Y-93344999D01*
X162117193Y-93345000D01*
X155446500Y-93345000D01*
X155446500Y-92879144D01*
X155466185Y-92812105D01*
X155518989Y-92766350D01*
X155588147Y-92756406D01*
X155628121Y-92769345D01*
X155721707Y-92818463D01*
X155721709Y-92818463D01*
X155721710Y-92818464D01*
X155876028Y-92856500D01*
X155876029Y-92856500D01*
X156034972Y-92856500D01*
X156086411Y-92843821D01*
X156189293Y-92818463D01*
X156330029Y-92744599D01*
X156448998Y-92639201D01*
X156539287Y-92508395D01*
X156595649Y-92359782D01*
X156614807Y-92202000D01*
X156595649Y-92044218D01*
X156539287Y-91895605D01*
X156448998Y-91764799D01*
X156448995Y-91764796D01*
X156448993Y-91764794D01*
X156330030Y-91659401D01*
X156189291Y-91585536D01*
X156087545Y-91560458D01*
X156027165Y-91525301D01*
X155995377Y-91463082D01*
X156002273Y-91393553D01*
X156045665Y-91338791D01*
X156087545Y-91319664D01*
X156189793Y-91294463D01*
X156330529Y-91220599D01*
X156449498Y-91115201D01*
X156539787Y-90984395D01*
X156596149Y-90835782D01*
X156597974Y-90820750D01*
X160160193Y-90820750D01*
X160179350Y-90978531D01*
X160181575Y-90984397D01*
X160235713Y-91127145D01*
X160326002Y-91257951D01*
X160326004Y-91257953D01*
X160326006Y-91257955D01*
X160444969Y-91363348D01*
X160444971Y-91363349D01*
X160585707Y-91437213D01*
X160662868Y-91456231D01*
X160740028Y-91475250D01*
X160740029Y-91475250D01*
X160898972Y-91475250D01*
X160950411Y-91462571D01*
X161053293Y-91437213D01*
X161194029Y-91363349D01*
X161312998Y-91257951D01*
X161403287Y-91127145D01*
X161459649Y-90978532D01*
X161478807Y-90820750D01*
X161467472Y-90727401D01*
X161459649Y-90662968D01*
X161403287Y-90514355D01*
X161312998Y-90383549D01*
X161312995Y-90383546D01*
X161312993Y-90383544D01*
X161194030Y-90278151D01*
X161053887Y-90204599D01*
X161053293Y-90204287D01*
X161053292Y-90204286D01*
X161053291Y-90204286D01*
X160898972Y-90166250D01*
X160898971Y-90166250D01*
X160740029Y-90166250D01*
X160740028Y-90166250D01*
X160585708Y-90204286D01*
X160444969Y-90278151D01*
X160326006Y-90383544D01*
X160326000Y-90383551D01*
X160235714Y-90514352D01*
X160179350Y-90662968D01*
X160160193Y-90820749D01*
X160160193Y-90820750D01*
X156597974Y-90820750D01*
X156615307Y-90678000D01*
X156596149Y-90520218D01*
X156539787Y-90371605D01*
X156449498Y-90240799D01*
X156449495Y-90240796D01*
X156449493Y-90240794D01*
X156330530Y-90135401D01*
X156189791Y-90061536D01*
X156035472Y-90023500D01*
X156035471Y-90023500D01*
X155876529Y-90023500D01*
X155876528Y-90023500D01*
X155722208Y-90061536D01*
X155581469Y-90135401D01*
X155462506Y-90240794D01*
X155462500Y-90240801D01*
X155372214Y-90371602D01*
X155315850Y-90520218D01*
X155296693Y-90677999D01*
X155302691Y-90727401D01*
X155291230Y-90796325D01*
X155267276Y-90830028D01*
X154835577Y-91261727D01*
X154815727Y-91277848D01*
X154806419Y-91283929D01*
X154784359Y-91312272D01*
X154779281Y-91318024D01*
X154776424Y-91320881D01*
X154776420Y-91320885D01*
X154776419Y-91320887D01*
X154762705Y-91340093D01*
X154744606Y-91363348D01*
X154728623Y-91383883D01*
X154724849Y-91390857D01*
X154721345Y-91398023D01*
X154705520Y-91451182D01*
X154687500Y-91503670D01*
X154686195Y-91511487D01*
X154685207Y-91519413D01*
X154687500Y-91574824D01*
X154687500Y-93835669D01*
X154667815Y-93902708D01*
X154615011Y-93948463D01*
X154545853Y-93958407D01*
X154482297Y-93929382D01*
X154461450Y-93906110D01*
X154412828Y-93835669D01*
X154385998Y-93796799D01*
X154385996Y-93796797D01*
X154385993Y-93796794D01*
X154267030Y-93691401D01*
X154126291Y-93617536D01*
X153991600Y-93584338D01*
X153931219Y-93549182D01*
X153899431Y-93486962D01*
X153898179Y-93449000D01*
X153910807Y-93345000D01*
X153891649Y-93187218D01*
X153835287Y-93038605D01*
X153744998Y-92907799D01*
X153744995Y-92907796D01*
X153744993Y-92907794D01*
X153626030Y-92802401D01*
X153485291Y-92728536D01*
X153330972Y-92690500D01*
X153330971Y-92690500D01*
X153172029Y-92690500D01*
X153172028Y-92690500D01*
X153017708Y-92728536D01*
X152876969Y-92802401D01*
X152758006Y-92907794D01*
X152758000Y-92907801D01*
X152667714Y-93038602D01*
X152611350Y-93187218D01*
X152592193Y-93344999D01*
X152592193Y-93345000D01*
X138073291Y-93345000D01*
X138034498Y-93288799D01*
X138034495Y-93288796D01*
X138034493Y-93288794D01*
X137915530Y-93183401D01*
X137774791Y-93109536D01*
X137620472Y-93071500D01*
X137620471Y-93071500D01*
X137461529Y-93071500D01*
X137461528Y-93071500D01*
X137307208Y-93109536D01*
X137166469Y-93183401D01*
X137047506Y-93288794D01*
X137047500Y-93288801D01*
X136957214Y-93419602D01*
X136900850Y-93568218D01*
X136881693Y-93725999D01*
X136881693Y-93726000D01*
X136525500Y-93726000D01*
X136525500Y-90678000D01*
X150597693Y-90678000D01*
X150616850Y-90835781D01*
X150657427Y-90942773D01*
X150673213Y-90984395D01*
X150763502Y-91115201D01*
X150763504Y-91115203D01*
X150763506Y-91115205D01*
X150882469Y-91220598D01*
X150882471Y-91220599D01*
X151023207Y-91294463D01*
X151095461Y-91312272D01*
X151177528Y-91332500D01*
X151177529Y-91332500D01*
X151336472Y-91332500D01*
X151418539Y-91312272D01*
X151490793Y-91294463D01*
X151631529Y-91220599D01*
X151750498Y-91115201D01*
X151840787Y-90984395D01*
X151897149Y-90835782D01*
X151916307Y-90678000D01*
X151897149Y-90520218D01*
X151840787Y-90371605D01*
X151750498Y-90240799D01*
X151750495Y-90240796D01*
X151750493Y-90240794D01*
X151631530Y-90135401D01*
X151490791Y-90061536D01*
X151336472Y-90023500D01*
X151336471Y-90023500D01*
X151177529Y-90023500D01*
X151177528Y-90023500D01*
X151023208Y-90061536D01*
X150882469Y-90135401D01*
X150763506Y-90240794D01*
X150763500Y-90240801D01*
X150673214Y-90371602D01*
X150616850Y-90520218D01*
X150597693Y-90677999D01*
X150597693Y-90678000D01*
X136525500Y-90678000D01*
X136525500Y-89662000D01*
X158979693Y-89662000D01*
X158998850Y-89819781D01*
X159001588Y-89827000D01*
X159055213Y-89968395D01*
X159145502Y-90099201D01*
X159145504Y-90099203D01*
X159145506Y-90099205D01*
X159264469Y-90204598D01*
X159264471Y-90204599D01*
X159405207Y-90278463D01*
X159482368Y-90297481D01*
X159559528Y-90316500D01*
X159559529Y-90316500D01*
X159718472Y-90316500D01*
X159769911Y-90303821D01*
X159872793Y-90278463D01*
X160013529Y-90204599D01*
X160132498Y-90099201D01*
X160222787Y-89968395D01*
X160276412Y-89827000D01*
X165037693Y-89827000D01*
X165056850Y-89984781D01*
X165113214Y-90133397D01*
X165162146Y-90204287D01*
X165203502Y-90264201D01*
X165203504Y-90264203D01*
X165203506Y-90264205D01*
X165322469Y-90369598D01*
X165322471Y-90369599D01*
X165463207Y-90443463D01*
X165540368Y-90462481D01*
X165617528Y-90481500D01*
X165617529Y-90481500D01*
X165776472Y-90481500D01*
X165827911Y-90468821D01*
X165930793Y-90443463D01*
X166071529Y-90369599D01*
X166190498Y-90264201D01*
X166280787Y-90133395D01*
X166337149Y-89984782D01*
X166356307Y-89827000D01*
X166355430Y-89819781D01*
X166337149Y-89669218D01*
X166334411Y-89661999D01*
X166280787Y-89520605D01*
X166190498Y-89389799D01*
X166190495Y-89389796D01*
X166190493Y-89389794D01*
X166071530Y-89284401D01*
X165930791Y-89210536D01*
X165776472Y-89172500D01*
X165776471Y-89172500D01*
X165617529Y-89172500D01*
X165617528Y-89172500D01*
X165463208Y-89210536D01*
X165322469Y-89284401D01*
X165203506Y-89389794D01*
X165203500Y-89389801D01*
X165113214Y-89520602D01*
X165056850Y-89669218D01*
X165037693Y-89826999D01*
X165037693Y-89827000D01*
X160276412Y-89827000D01*
X160279149Y-89819782D01*
X160298307Y-89662000D01*
X160283486Y-89539936D01*
X160294946Y-89471014D01*
X160341850Y-89419228D01*
X160409306Y-89401021D01*
X160464206Y-89415194D01*
X160585707Y-89478963D01*
X160585706Y-89478963D01*
X160740028Y-89517000D01*
X160740029Y-89517000D01*
X160898972Y-89517000D01*
X160950830Y-89504218D01*
X161053293Y-89478963D01*
X161194029Y-89405099D01*
X161312998Y-89299701D01*
X161403287Y-89168895D01*
X161459649Y-89020282D01*
X161478807Y-88862500D01*
X161459649Y-88704718D01*
X161403287Y-88556105D01*
X161312998Y-88425299D01*
X161312995Y-88425296D01*
X161312993Y-88425294D01*
X161194030Y-88319901D01*
X161053291Y-88246036D01*
X160898972Y-88208000D01*
X160898971Y-88208000D01*
X160740029Y-88208000D01*
X160740028Y-88208000D01*
X160585708Y-88246036D01*
X160444969Y-88319901D01*
X160326006Y-88425294D01*
X160326000Y-88425301D01*
X160235714Y-88556102D01*
X160179350Y-88704718D01*
X160160193Y-88862499D01*
X160160193Y-88862500D01*
X160175013Y-88984562D01*
X160163552Y-89053486D01*
X160116648Y-89105271D01*
X160049192Y-89123478D01*
X159994294Y-89109305D01*
X159872793Y-89045537D01*
X159872792Y-89045536D01*
X159872789Y-89045535D01*
X159718472Y-89007500D01*
X159718471Y-89007500D01*
X159559529Y-89007500D01*
X159559528Y-89007500D01*
X159405208Y-89045536D01*
X159264469Y-89119401D01*
X159145506Y-89224794D01*
X159145500Y-89224801D01*
X159055214Y-89355602D01*
X158998850Y-89504218D01*
X158979693Y-89661999D01*
X158979693Y-89662000D01*
X136525500Y-89662000D01*
X136525500Y-88862500D01*
X156439693Y-88862500D01*
X156458850Y-89020281D01*
X156491083Y-89105271D01*
X156515213Y-89168895D01*
X156605502Y-89299701D01*
X156605504Y-89299703D01*
X156605506Y-89299705D01*
X156724469Y-89405098D01*
X156724471Y-89405099D01*
X156865207Y-89478963D01*
X156942368Y-89497981D01*
X157019528Y-89517000D01*
X157019529Y-89517000D01*
X157178472Y-89517000D01*
X157230330Y-89504218D01*
X157332793Y-89478963D01*
X157473529Y-89405099D01*
X157592498Y-89299701D01*
X157682787Y-89168895D01*
X157739149Y-89020282D01*
X157758307Y-88862500D01*
X157739149Y-88704718D01*
X157682787Y-88556105D01*
X157592498Y-88425299D01*
X157592495Y-88425296D01*
X157592493Y-88425294D01*
X157473530Y-88319901D01*
X157332791Y-88246036D01*
X157178472Y-88208000D01*
X157178471Y-88208000D01*
X157019529Y-88208000D01*
X157019528Y-88208000D01*
X156865208Y-88246036D01*
X156724469Y-88319901D01*
X156605506Y-88425294D01*
X156605500Y-88425301D01*
X156515214Y-88556102D01*
X156458850Y-88704718D01*
X156439693Y-88862499D01*
X156439693Y-88862500D01*
X136525500Y-88862500D01*
X136525500Y-87002000D01*
X155073193Y-87002000D01*
X155092350Y-87159781D01*
X155117784Y-87226842D01*
X155148713Y-87308395D01*
X155239002Y-87439201D01*
X155239004Y-87439203D01*
X155239006Y-87439205D01*
X155357969Y-87544598D01*
X155357971Y-87544599D01*
X155498707Y-87618463D01*
X155575868Y-87637481D01*
X155653028Y-87656500D01*
X155653029Y-87656500D01*
X155811972Y-87656500D01*
X155863411Y-87643821D01*
X155966293Y-87618463D01*
X155991945Y-87605000D01*
X164923693Y-87605000D01*
X164942850Y-87762781D01*
X164983427Y-87869773D01*
X164999213Y-87911395D01*
X165089502Y-88042201D01*
X165089504Y-88042203D01*
X165089506Y-88042205D01*
X165208469Y-88147598D01*
X165208471Y-88147599D01*
X165349207Y-88221463D01*
X165426368Y-88240481D01*
X165503528Y-88259500D01*
X165503529Y-88259500D01*
X165662472Y-88259500D01*
X165717092Y-88246037D01*
X165816793Y-88221463D01*
X165957529Y-88147599D01*
X166076498Y-88042201D01*
X166166787Y-87911395D01*
X166223149Y-87762782D01*
X166242307Y-87605000D01*
X166223149Y-87447218D01*
X166189316Y-87358010D01*
X166183950Y-87288348D01*
X166217097Y-87226842D01*
X166278235Y-87193021D01*
X166347953Y-87197622D01*
X166362877Y-87204240D01*
X166365207Y-87205463D01*
X166480948Y-87233990D01*
X166519528Y-87243500D01*
X166519529Y-87243500D01*
X166678472Y-87243500D01*
X166746055Y-87226842D01*
X166832793Y-87205463D01*
X166973529Y-87131599D01*
X167092498Y-87026201D01*
X167182787Y-86895395D01*
X167239149Y-86746782D01*
X167258307Y-86589000D01*
X167255368Y-86564799D01*
X167239149Y-86431218D01*
X167221824Y-86385536D01*
X167182787Y-86282605D01*
X167092498Y-86151799D01*
X167092495Y-86151796D01*
X167092493Y-86151794D01*
X166973530Y-86046401D01*
X166832791Y-85972536D01*
X166678472Y-85934500D01*
X166678471Y-85934500D01*
X166519529Y-85934500D01*
X166519528Y-85934500D01*
X166365208Y-85972536D01*
X166224469Y-86046401D01*
X166105506Y-86151794D01*
X166105500Y-86151801D01*
X166015214Y-86282602D01*
X165958850Y-86431218D01*
X165939693Y-86588999D01*
X165939693Y-86589000D01*
X165958851Y-86746782D01*
X165992682Y-86835988D01*
X165998049Y-86905651D01*
X165964901Y-86967157D01*
X165903763Y-87000979D01*
X165834045Y-86996377D01*
X165819116Y-86989756D01*
X165816793Y-86988537D01*
X165816793Y-86988536D01*
X165662472Y-86950500D01*
X165662471Y-86950500D01*
X165503529Y-86950500D01*
X165503528Y-86950500D01*
X165349208Y-86988536D01*
X165208469Y-87062401D01*
X165089506Y-87167794D01*
X165089500Y-87167801D01*
X164999214Y-87298602D01*
X164942850Y-87447218D01*
X164923693Y-87604999D01*
X164923693Y-87605000D01*
X155991945Y-87605000D01*
X156107029Y-87544599D01*
X156225998Y-87439201D01*
X156316287Y-87308395D01*
X156372649Y-87159782D01*
X156391807Y-87002000D01*
X156372649Y-86844218D01*
X156316287Y-86695605D01*
X156225998Y-86564799D01*
X156225995Y-86564796D01*
X156225993Y-86564794D01*
X156107030Y-86459401D01*
X155966291Y-86385536D01*
X155811972Y-86347500D01*
X155811971Y-86347500D01*
X155653029Y-86347500D01*
X155653028Y-86347500D01*
X155498708Y-86385536D01*
X155357969Y-86459401D01*
X155239006Y-86564794D01*
X155239000Y-86564801D01*
X155148714Y-86695602D01*
X155092350Y-86844218D01*
X155073193Y-87001999D01*
X155073193Y-87002000D01*
X136525500Y-87002000D01*
X136525500Y-84582000D01*
X147803693Y-84582000D01*
X147822850Y-84739781D01*
X147863427Y-84846773D01*
X147879213Y-84888395D01*
X147969502Y-85019201D01*
X147969504Y-85019203D01*
X147969506Y-85019205D01*
X148088469Y-85124598D01*
X148088471Y-85124599D01*
X148229207Y-85198463D01*
X148306368Y-85217481D01*
X148383528Y-85236500D01*
X148383529Y-85236500D01*
X148542472Y-85236500D01*
X148593911Y-85223821D01*
X148696793Y-85198463D01*
X148837529Y-85124599D01*
X148952274Y-85022942D01*
X149015505Y-84993222D01*
X149084769Y-85002405D01*
X149116724Y-85022941D01*
X149231471Y-85124599D01*
X149372207Y-85198463D01*
X149449368Y-85217481D01*
X149526528Y-85236500D01*
X149526529Y-85236500D01*
X149685472Y-85236500D01*
X149736911Y-85223821D01*
X149839793Y-85198463D01*
X149980529Y-85124599D01*
X150095274Y-85022942D01*
X150158505Y-84993222D01*
X150227769Y-85002405D01*
X150259724Y-85022941D01*
X150374471Y-85124599D01*
X150515207Y-85198463D01*
X150592368Y-85217481D01*
X150669528Y-85236500D01*
X150669529Y-85236500D01*
X150828472Y-85236500D01*
X150879911Y-85223821D01*
X150982793Y-85198463D01*
X151123529Y-85124599D01*
X151242498Y-85019201D01*
X151332787Y-84888395D01*
X151389149Y-84739782D01*
X151408307Y-84582000D01*
X151389149Y-84424218D01*
X151332787Y-84275605D01*
X151242498Y-84144799D01*
X151242495Y-84144796D01*
X151242493Y-84144794D01*
X151162584Y-84074000D01*
X155042693Y-84074000D01*
X155061850Y-84231781D01*
X155078470Y-84275602D01*
X155118213Y-84380395D01*
X155208502Y-84511201D01*
X155208504Y-84511203D01*
X155208506Y-84511205D01*
X155327469Y-84616598D01*
X155327471Y-84616599D01*
X155468207Y-84690463D01*
X155545368Y-84709481D01*
X155622528Y-84728500D01*
X155622529Y-84728500D01*
X155781472Y-84728500D01*
X155832911Y-84715821D01*
X155935793Y-84690463D01*
X156076529Y-84616599D01*
X156195498Y-84511201D01*
X156285787Y-84380395D01*
X156342149Y-84231782D01*
X156361307Y-84074000D01*
X156342149Y-83916218D01*
X156285787Y-83767605D01*
X156195498Y-83636799D01*
X156195495Y-83636796D01*
X156195493Y-83636794D01*
X156076530Y-83531401D01*
X155935791Y-83457536D01*
X155781472Y-83419500D01*
X155781471Y-83419500D01*
X155622529Y-83419500D01*
X155622528Y-83419500D01*
X155468208Y-83457536D01*
X155327469Y-83531401D01*
X155208506Y-83636794D01*
X155208500Y-83636801D01*
X155118214Y-83767602D01*
X155061850Y-83916218D01*
X155042693Y-84073999D01*
X155042693Y-84074000D01*
X151162584Y-84074000D01*
X151123530Y-84039401D01*
X150982791Y-83965536D01*
X150828472Y-83927500D01*
X150828471Y-83927500D01*
X150669529Y-83927500D01*
X150669528Y-83927500D01*
X150515208Y-83965536D01*
X150374469Y-84039401D01*
X150259727Y-84141055D01*
X150196494Y-84170777D01*
X150127231Y-84161593D01*
X150095273Y-84141055D01*
X149980530Y-84039401D01*
X149839791Y-83965536D01*
X149685472Y-83927500D01*
X149685471Y-83927500D01*
X149526529Y-83927500D01*
X149526528Y-83927500D01*
X149372208Y-83965536D01*
X149231469Y-84039401D01*
X149116727Y-84141055D01*
X149053494Y-84170777D01*
X148984231Y-84161593D01*
X148952273Y-84141055D01*
X148837530Y-84039401D01*
X148696791Y-83965536D01*
X148542472Y-83927500D01*
X148542471Y-83927500D01*
X148383529Y-83927500D01*
X148383528Y-83927500D01*
X148229208Y-83965536D01*
X148088469Y-84039401D01*
X147969506Y-84144794D01*
X147969500Y-84144801D01*
X147879214Y-84275602D01*
X147822850Y-84424218D01*
X147803693Y-84581999D01*
X147803693Y-84582000D01*
X136525500Y-84582000D01*
X136525500Y-81915000D01*
X155042693Y-81915000D01*
X155061850Y-82072781D01*
X155118214Y-82221397D01*
X155141131Y-82254598D01*
X155208502Y-82352201D01*
X155208504Y-82352203D01*
X155208506Y-82352205D01*
X155327469Y-82457598D01*
X155327471Y-82457599D01*
X155468207Y-82531463D01*
X155545368Y-82550481D01*
X155622528Y-82569500D01*
X155622529Y-82569500D01*
X155781472Y-82569500D01*
X155832911Y-82556821D01*
X155935793Y-82531463D01*
X156076529Y-82457599D01*
X156195498Y-82352201D01*
X156285787Y-82221395D01*
X156342149Y-82072782D01*
X156361307Y-81915000D01*
X156355816Y-81869781D01*
X156342149Y-81757218D01*
X156325000Y-81712000D01*
X162383693Y-81712000D01*
X162402850Y-81869781D01*
X162459214Y-82018397D01*
X162535343Y-82128689D01*
X162549502Y-82149201D01*
X162549504Y-82149203D01*
X162549506Y-82149205D01*
X162668469Y-82254598D01*
X162668471Y-82254599D01*
X162809207Y-82328463D01*
X162886368Y-82347481D01*
X162963528Y-82366500D01*
X162963529Y-82366500D01*
X163122472Y-82366500D01*
X163180496Y-82352198D01*
X163276793Y-82328463D01*
X163417529Y-82254599D01*
X163536498Y-82149201D01*
X163626787Y-82018395D01*
X163683149Y-81869782D01*
X163702307Y-81712000D01*
X163693079Y-81636000D01*
X165939693Y-81636000D01*
X165958850Y-81793781D01*
X165987674Y-81869781D01*
X166015213Y-81942395D01*
X166105502Y-82073201D01*
X166105504Y-82073203D01*
X166105506Y-82073205D01*
X166224469Y-82178598D01*
X166224471Y-82178599D01*
X166365207Y-82252463D01*
X166442368Y-82271481D01*
X166519528Y-82290500D01*
X166519529Y-82290500D01*
X166678472Y-82290500D01*
X166729911Y-82277821D01*
X166832793Y-82252463D01*
X166973529Y-82178599D01*
X167092498Y-82073201D01*
X167182787Y-81942395D01*
X167239149Y-81793782D01*
X167258307Y-81636000D01*
X167239149Y-81478218D01*
X167182787Y-81329605D01*
X167092498Y-81198799D01*
X167092495Y-81198796D01*
X167092493Y-81198794D01*
X166973530Y-81093401D01*
X166832791Y-81019536D01*
X166678472Y-80981500D01*
X166678471Y-80981500D01*
X166519529Y-80981500D01*
X166519528Y-80981500D01*
X166365208Y-81019536D01*
X166224469Y-81093401D01*
X166105506Y-81198794D01*
X166105500Y-81198801D01*
X166015214Y-81329602D01*
X165958850Y-81478218D01*
X165939693Y-81635999D01*
X165939693Y-81636000D01*
X163693079Y-81636000D01*
X163683149Y-81554218D01*
X163626787Y-81405605D01*
X163536498Y-81274799D01*
X163536495Y-81274796D01*
X163536493Y-81274794D01*
X163417530Y-81169401D01*
X163276791Y-81095536D01*
X163122472Y-81057500D01*
X163122471Y-81057500D01*
X162963529Y-81057500D01*
X162963528Y-81057500D01*
X162809208Y-81095536D01*
X162668469Y-81169401D01*
X162549506Y-81274794D01*
X162549500Y-81274801D01*
X162459214Y-81405602D01*
X162402850Y-81554218D01*
X162383693Y-81711999D01*
X162383693Y-81712000D01*
X156325000Y-81712000D01*
X156285787Y-81608605D01*
X156195498Y-81477799D01*
X156195495Y-81477796D01*
X156195493Y-81477794D01*
X156076530Y-81372401D01*
X155935791Y-81298536D01*
X155781472Y-81260500D01*
X155781471Y-81260500D01*
X155622529Y-81260500D01*
X155622528Y-81260500D01*
X155468208Y-81298536D01*
X155327469Y-81372401D01*
X155208506Y-81477794D01*
X155208500Y-81477801D01*
X155118214Y-81608602D01*
X155061850Y-81757218D01*
X155042693Y-81914999D01*
X155042693Y-81915000D01*
X136525500Y-81915000D01*
X136525500Y-81026000D01*
X139802693Y-81026000D01*
X139821850Y-81183781D01*
X139856370Y-81274801D01*
X139878213Y-81332395D01*
X139968502Y-81463201D01*
X139968504Y-81463203D01*
X139968506Y-81463205D01*
X140087469Y-81568598D01*
X140087471Y-81568599D01*
X140228207Y-81642463D01*
X140305368Y-81661481D01*
X140382528Y-81680500D01*
X140382529Y-81680500D01*
X140541472Y-81680500D01*
X140592911Y-81667821D01*
X140695793Y-81642463D01*
X140836529Y-81568599D01*
X140888671Y-81522405D01*
X140961113Y-81458227D01*
X140962549Y-81459848D01*
X141012544Y-81428481D01*
X141082409Y-81429240D01*
X141140773Y-81467651D01*
X141148231Y-81477388D01*
X141179302Y-81522401D01*
X141179304Y-81522403D01*
X141179306Y-81522405D01*
X141298269Y-81627798D01*
X141298271Y-81627799D01*
X141439007Y-81701663D01*
X141480942Y-81711999D01*
X141593328Y-81739700D01*
X141593329Y-81739700D01*
X141752272Y-81739700D01*
X141803711Y-81727021D01*
X141906593Y-81701663D01*
X142047329Y-81627799D01*
X142166298Y-81522401D01*
X142256587Y-81391595D01*
X142312949Y-81242982D01*
X142332107Y-81085200D01*
X142312949Y-80927418D01*
X142256587Y-80778805D01*
X142166298Y-80647999D01*
X142166295Y-80647996D01*
X142166293Y-80647994D01*
X142047330Y-80542601D01*
X141906591Y-80468736D01*
X141752272Y-80430700D01*
X141752271Y-80430700D01*
X141593329Y-80430700D01*
X141593328Y-80430700D01*
X141439008Y-80468736D01*
X141298269Y-80542601D01*
X141173687Y-80652973D01*
X141172254Y-80651356D01*
X141122216Y-80682729D01*
X141052351Y-80681947D01*
X140993999Y-80643517D01*
X140986570Y-80633814D01*
X140967141Y-80605666D01*
X140955499Y-80588800D01*
X140955493Y-80588794D01*
X140836530Y-80483401D01*
X140695791Y-80409536D01*
X140541472Y-80371500D01*
X140541471Y-80371500D01*
X140382529Y-80371500D01*
X140382528Y-80371500D01*
X140228208Y-80409536D01*
X140087469Y-80483401D01*
X139968506Y-80588794D01*
X139968500Y-80588801D01*
X139878214Y-80719602D01*
X139821850Y-80868218D01*
X139802693Y-81025999D01*
X139802693Y-81026000D01*
X136525500Y-81026000D01*
X136525500Y-74295000D01*
X138024693Y-74295000D01*
X138043850Y-74452781D01*
X138084427Y-74559773D01*
X138100213Y-74601395D01*
X138190502Y-74732201D01*
X138190504Y-74732203D01*
X138190506Y-74732205D01*
X138309469Y-74837598D01*
X138309471Y-74837599D01*
X138450207Y-74911463D01*
X138527368Y-74930481D01*
X138604528Y-74949500D01*
X138604529Y-74949500D01*
X138763472Y-74949500D01*
X138814911Y-74936821D01*
X138917793Y-74911463D01*
X139058529Y-74837599D01*
X139177498Y-74732201D01*
X139267787Y-74601395D01*
X139324149Y-74452782D01*
X139343307Y-74295000D01*
X139324149Y-74137218D01*
X139267787Y-73988605D01*
X139177498Y-73857799D01*
X139177495Y-73857796D01*
X139177493Y-73857794D01*
X139058530Y-73752401D01*
X138917791Y-73678536D01*
X138763472Y-73640500D01*
X138763471Y-73640500D01*
X138604529Y-73640500D01*
X138604528Y-73640500D01*
X138450208Y-73678536D01*
X138309469Y-73752401D01*
X138190506Y-73857794D01*
X138190500Y-73857801D01*
X138100214Y-73988602D01*
X138043850Y-74137218D01*
X138024693Y-74294999D01*
X138024693Y-74295000D01*
X136525500Y-74295000D01*
X136525500Y-71454685D01*
X151799740Y-71454685D01*
X151809755Y-71639406D01*
X151809755Y-71639411D01*
X151859244Y-71817656D01*
X151859247Y-71817662D01*
X151945898Y-71981102D01*
X152008540Y-72054850D01*
X152065663Y-72122100D01*
X152212936Y-72234054D01*
X152380833Y-72311732D01*
X152380834Y-72311732D01*
X152380836Y-72311733D01*
X152435648Y-72323797D01*
X152561503Y-72351500D01*
X152561506Y-72351500D01*
X152700107Y-72351500D01*
X152700113Y-72351500D01*
X152837910Y-72336514D01*
X153013221Y-72277444D01*
X153171736Y-72182070D01*
X153306041Y-72054849D01*
X153409858Y-71901730D01*
X153478331Y-71729875D01*
X153508260Y-71547317D01*
X153498245Y-71362593D01*
X153448754Y-71184341D01*
X153362100Y-71020896D01*
X153299460Y-70947151D01*
X153242337Y-70879900D01*
X153163449Y-70819931D01*
X153095064Y-70767946D01*
X152927167Y-70690268D01*
X152927163Y-70690266D01*
X152746497Y-70650500D01*
X152607887Y-70650500D01*
X152607883Y-70650500D01*
X152470088Y-70665486D01*
X152294776Y-70724557D01*
X152294774Y-70724558D01*
X152136262Y-70819931D01*
X152136261Y-70819932D01*
X152001959Y-70947149D01*
X151898138Y-71100276D01*
X151829669Y-71272122D01*
X151799740Y-71454685D01*
X136525500Y-71454685D01*
X136525500Y-66742763D01*
X137845787Y-66742763D01*
X137875413Y-67012013D01*
X137875415Y-67012024D01*
X137943926Y-67274082D01*
X137943928Y-67274088D01*
X138049870Y-67523390D01*
X138121998Y-67641575D01*
X138190979Y-67754605D01*
X138190986Y-67754615D01*
X138364253Y-67962819D01*
X138364259Y-67962824D01*
X138565998Y-68143582D01*
X138791910Y-68293044D01*
X139037176Y-68408020D01*
X139037183Y-68408022D01*
X139037185Y-68408023D01*
X139296557Y-68486057D01*
X139296564Y-68486058D01*
X139296569Y-68486060D01*
X139564561Y-68525500D01*
X139564566Y-68525500D01*
X139767636Y-68525500D01*
X139819133Y-68521730D01*
X139970156Y-68510677D01*
X140082758Y-68485593D01*
X140234546Y-68451782D01*
X140234548Y-68451781D01*
X140234553Y-68451780D01*
X140487558Y-68355014D01*
X140723777Y-68222441D01*
X140938177Y-68056888D01*
X141126186Y-67861881D01*
X141283799Y-67641579D01*
X141357787Y-67497669D01*
X141407649Y-67400690D01*
X141407651Y-67400684D01*
X141407656Y-67400675D01*
X141495118Y-67144305D01*
X141544319Y-66877933D01*
X141549259Y-66742763D01*
X163245787Y-66742763D01*
X163275413Y-67012013D01*
X163275415Y-67012024D01*
X163343926Y-67274082D01*
X163343928Y-67274088D01*
X163449870Y-67523390D01*
X163521998Y-67641575D01*
X163590979Y-67754605D01*
X163590986Y-67754615D01*
X163764253Y-67962819D01*
X163764259Y-67962824D01*
X163965998Y-68143582D01*
X164191910Y-68293044D01*
X164437176Y-68408020D01*
X164437183Y-68408022D01*
X164437185Y-68408023D01*
X164696557Y-68486057D01*
X164696564Y-68486058D01*
X164696569Y-68486060D01*
X164964561Y-68525500D01*
X164964566Y-68525500D01*
X165167636Y-68525500D01*
X165219133Y-68521730D01*
X165370156Y-68510677D01*
X165482758Y-68485593D01*
X165634546Y-68451782D01*
X165634548Y-68451781D01*
X165634553Y-68451780D01*
X165887558Y-68355014D01*
X166123777Y-68222441D01*
X166338177Y-68056888D01*
X166526186Y-67861881D01*
X166683799Y-67641579D01*
X166757787Y-67497669D01*
X166807649Y-67400690D01*
X166807651Y-67400684D01*
X166807656Y-67400675D01*
X166895118Y-67144305D01*
X166944319Y-66877933D01*
X166954212Y-66607235D01*
X166924586Y-66337982D01*
X166856072Y-66075912D01*
X166750130Y-65826610D01*
X166609018Y-65595390D01*
X166519747Y-65488119D01*
X166435746Y-65387180D01*
X166435740Y-65387175D01*
X166234002Y-65206418D01*
X166008092Y-65056957D01*
X166008090Y-65056956D01*
X165762824Y-64941980D01*
X165762819Y-64941978D01*
X165762814Y-64941976D01*
X165503442Y-64863942D01*
X165503428Y-64863939D01*
X165387791Y-64846921D01*
X165235439Y-64824500D01*
X165032369Y-64824500D01*
X165032364Y-64824500D01*
X164829844Y-64839323D01*
X164829831Y-64839325D01*
X164565453Y-64898217D01*
X164565446Y-64898220D01*
X164312439Y-64994987D01*
X164076226Y-65127557D01*
X163861822Y-65293112D01*
X163673822Y-65488109D01*
X163673816Y-65488116D01*
X163516202Y-65708419D01*
X163516199Y-65708424D01*
X163392350Y-65949309D01*
X163392343Y-65949327D01*
X163304884Y-66205685D01*
X163304881Y-66205699D01*
X163255681Y-66472068D01*
X163255680Y-66472075D01*
X163245787Y-66742763D01*
X141549259Y-66742763D01*
X141554212Y-66607235D01*
X141524586Y-66337982D01*
X141456072Y-66075912D01*
X141350130Y-65826610D01*
X141209018Y-65595390D01*
X141119747Y-65488119D01*
X141035746Y-65387180D01*
X141035740Y-65387175D01*
X140834002Y-65206418D01*
X140608092Y-65056957D01*
X140608090Y-65056956D01*
X140362824Y-64941980D01*
X140362819Y-64941978D01*
X140362814Y-64941976D01*
X140103442Y-64863942D01*
X140103428Y-64863939D01*
X139987791Y-64846921D01*
X139835439Y-64824500D01*
X139632369Y-64824500D01*
X139632364Y-64824500D01*
X139429844Y-64839323D01*
X139429831Y-64839325D01*
X139165453Y-64898217D01*
X139165446Y-64898220D01*
X138912439Y-64994987D01*
X138676226Y-65127557D01*
X138461822Y-65293112D01*
X138273822Y-65488109D01*
X138273816Y-65488116D01*
X138116202Y-65708419D01*
X138116199Y-65708424D01*
X137992350Y-65949309D01*
X137992343Y-65949327D01*
X137904884Y-66205685D01*
X137904881Y-66205699D01*
X137855681Y-66472068D01*
X137855680Y-66472075D01*
X137845787Y-66742763D01*
X136525500Y-66742763D01*
X136525500Y-63624500D01*
X136545185Y-63557461D01*
X136597989Y-63511706D01*
X136649500Y-63500500D01*
X168150500Y-63500500D01*
X168217539Y-63520185D01*
G37*
G04 #@! TD.AperFunction*
G04 #@! TD*
M02*
