M48
; DRILL file {KiCad 7.0.8} date Tue Dec  5 11:00:01 2023
; FORMAT={-:-/ absolute / metric / decimal}
; #@! TF.CreationDate,2023-12-05T11:00:01-06:00
; #@! TF.GenerationSoftware,Kicad,Pcbnew,7.0.8
; #@! TF.FileFunction,Plated,1,4,PTH
FMAT,2
METRIC
; #@! TA.AperFunction,Plated,PTH,ComponentDrill
T1C0.300
; #@! TA.AperFunction,Plated,PTH,ViaDrill
T2C0.400
; #@! TA.AperFunction,Plated,PTH,ComponentDrill
T3C1.000
; #@! TA.AperFunction,Plated,PTH,ComponentDrill
T4C1.200
%
G90
G05
T1
X140.836Y-128.14
X140.836Y-128.84
X140.836Y-129.54
X140.836Y-130.24
X140.836Y-130.94
X141.736Y-128.14
X141.736Y-128.84
X141.736Y-129.54
X141.736Y-130.24
X141.736Y-130.94
X142.636Y-128.14
X142.636Y-128.84
X142.636Y-129.54
X142.636Y-130.24
X142.636Y-130.94
T2
X137.16Y-112.903
X137.16Y-114.554
X137.287Y-128.905
X137.893Y-116.332
X137.922Y-97.028
X138.049Y-99.695
X138.138Y-100.711
X138.285Y-129.565
X138.303Y-138.938
X138.684Y-74.295
X138.938Y-95.504
X139.7Y-98.044
X139.7Y-99.695
X140.208Y-81.026
X140.716Y-108.077
X141.097Y-136.144
X141.351Y-80.667
X141.732Y-106.045
X142.24Y-112.141
X142.494Y-98.298
X142.875Y-102.235
X143.002Y-105.918
X143.002Y-113.538
X143.256Y-116.337
X143.891Y-112.141
X144.399Y-122.555
X144.399Y-136.525
X144.633Y-99.08
X144.78Y-129.54
X144.907Y-110.998
X145.071Y-97.747
X145.381Y-104.677
X145.488Y-99.693
X145.542Y-129.032
X145.542Y-129.921
X145.854Y-113.157
X146.558Y-68.58
X146.558Y-76.073
X146.595Y-95.25
X146.838Y-97.917
X147.131Y-103.189
X147.193Y-79.883
X147.574Y-106.807
X147.701Y-113.538
X148.467Y-106.176
X148.701Y-113.538
X149.352Y-100.965
X149.479Y-102.616
X149.483Y-106.049
X149.987Y-109.316
X150.184Y-101.519
X150.241Y-112.649
X150.335Y-106.934
X150.78Y-108.235
X151.219Y-93.726
X151.325Y-117.661
X151.384Y-118.745
X151.5Y-110.002
X151.892Y-107.315
X152.4Y-145.415
X152.998Y-108.766
X153.035Y-83.439
X153.162Y-122.428
X153.289Y-113.425
X153.539Y-95.754
X153.924Y-112.559
X154.129Y-105.861
X154.305Y-85.217
X154.684Y-104.412
X154.745Y-94.547
X154.813Y-86.741
X154.813Y-90.424
X154.968Y-106.843
X155.448Y-122.428
X155.448Y-130.048
X155.575Y-83.312
X155.575Y-115.443
X155.65Y-93.345
X155.913Y-96.298
X156.374Y-92.456
X156.718Y-121.793
X156.772Y-116.428
X156.845Y-129.667
X156.882Y-95.653
X157.01Y-109.982
X157.189Y-115.316
X157.48Y-112.395
X157.734Y-86.487
X157.861Y-82.042
X157.861Y-122.428
X157.872Y-118.872
X157.988Y-87.63
X158.115Y-138.176
X158.623Y-67.056
X158.623Y-77.551
X158.683Y-105.724
X158.796Y-89.834
X158.877Y-121.793
X158.972Y-117.602
X159.041Y-94.615
X159.249Y-103.124
X159.357Y-88.862
X159.607Y-83.566
X159.766Y-109.982
X159.766Y-114.808
X159.766Y-122.428
X159.803Y-96.931
X159.893Y-129.54
X160.143Y-104.017
X160.147Y-117.602
X160.528Y-92.075
X160.909Y-121.92
X161.186Y-89.624
X161.476Y-99.246
X162.052Y-88.862
X162.272Y-116.967
X162.302Y-98.421
X162.306Y-121.92
X162.403Y-96.55
X162.56Y-115.57
X162.814Y-102.362
X163.195Y-97.504
X163.322Y-112.776
X163.372Y-118.999
X163.449Y-89.408
X163.576Y-74.803
X163.576Y-113.792
X163.578Y-133.707
X163.578Y-138.279
X163.83Y-100.08
X163.83Y-122.301
X164.084Y-102.108
X164.467Y-133.707
X164.467Y-138.279
X164.719Y-80.518
X164.846Y-108.966
X164.973Y-128.27
X165.1Y-126.746
X165.354Y-121.793
X165.356Y-133.707
X165.356Y-138.279
X165.807Y-80.591
X165.985Y-95.508
X166.245Y-133.707
X166.245Y-138.279
X166.448Y-96.433
X166.458Y-86.116
X167.134Y-133.707
X167.134Y-134.596
X167.134Y-135.485
X167.134Y-136.501
X167.134Y-137.39
X167.134Y-138.279
X167.147Y-89.154
X167.268Y-93.844
X167.386Y-85.09
X167.386Y-86.741
X167.513Y-74.676
T3
X138.811Y-102.997
X138.811Y-105.537
X138.811Y-108.077
X138.811Y-110.617
X166.243Y-99.314
X166.243Y-101.854
X166.243Y-104.394
X166.243Y-106.934
X166.243Y-109.474
X166.243Y-112.014
T4
X148.59Y-119.04
X148.59Y-122.54
X148.59Y-126.04
X148.59Y-129.54
X148.59Y-133.04
X148.59Y-136.54
X148.59Y-140.04
X148.59Y-143.54
X156.21Y-133.04
X156.21Y-136.54
X156.21Y-140.04
X156.21Y-143.54
T0
M30
