G04 #@! TF.GenerationSoftware,KiCad,Pcbnew,7.0.8*
G04 #@! TF.CreationDate,2023-12-05T10:59:50-06:00*
G04 #@! TF.ProjectId,Flight_Board,466c6967-6874-45f4-926f-6172642e6b69,rev?*
G04 #@! TF.SameCoordinates,Original*
G04 #@! TF.FileFunction,Copper,L1,Top*
G04 #@! TF.FilePolarity,Positive*
%FSLAX46Y46*%
G04 Gerber Fmt 4.6, Leading zero omitted, Abs format (unit mm)*
G04 Created by KiCad (PCBNEW 7.0.8) date 2023-12-05 10:59:50*
%MOMM*%
%LPD*%
G01*
G04 APERTURE LIST*
G04 Aperture macros list*
%AMRoundRect*
0 Rectangle with rounded corners*
0 $1 Rounding radius*
0 $2 $3 $4 $5 $6 $7 $8 $9 X,Y pos of 4 corners*
0 Add a 4 corners polygon primitive as box body*
4,1,4,$2,$3,$4,$5,$6,$7,$8,$9,$2,$3,0*
0 Add four circle primitives for the rounded corners*
1,1,$1+$1,$2,$3*
1,1,$1+$1,$4,$5*
1,1,$1+$1,$6,$7*
1,1,$1+$1,$8,$9*
0 Add four rect primitives between the rounded corners*
20,1,$1+$1,$2,$3,$4,$5,0*
20,1,$1+$1,$4,$5,$6,$7,0*
20,1,$1+$1,$6,$7,$8,$9,0*
20,1,$1+$1,$8,$9,$2,$3,0*%
%AMFreePoly0*
4,1,9,3.862500,-0.866500,0.737500,-0.866500,0.737500,-0.450000,-0.737500,-0.450000,-0.737500,0.450000,0.737500,0.450000,0.737500,0.866500,3.862500,0.866500,3.862500,-0.866500,3.862500,-0.866500,$1*%
G04 Aperture macros list end*
G04 #@! TA.AperFunction,SMDPad,CuDef*
%ADD10RoundRect,0.237500X0.237500X-0.250000X0.237500X0.250000X-0.237500X0.250000X-0.237500X-0.250000X0*%
G04 #@! TD*
G04 #@! TA.AperFunction,SMDPad,CuDef*
%ADD11RoundRect,0.237500X-0.237500X0.300000X-0.237500X-0.300000X0.237500X-0.300000X0.237500X0.300000X0*%
G04 #@! TD*
G04 #@! TA.AperFunction,SMDPad,CuDef*
%ADD12RoundRect,0.237500X0.250000X0.237500X-0.250000X0.237500X-0.250000X-0.237500X0.250000X-0.237500X0*%
G04 #@! TD*
G04 #@! TA.AperFunction,SMDPad,CuDef*
%ADD13C,1.000000*%
G04 #@! TD*
G04 #@! TA.AperFunction,SMDPad,CuDef*
%ADD14RoundRect,0.237500X-0.300000X-0.237500X0.300000X-0.237500X0.300000X0.237500X-0.300000X0.237500X0*%
G04 #@! TD*
G04 #@! TA.AperFunction,SMDPad,CuDef*
%ADD15RoundRect,0.237500X0.300000X0.237500X-0.300000X0.237500X-0.300000X-0.237500X0.300000X-0.237500X0*%
G04 #@! TD*
G04 #@! TA.AperFunction,SMDPad,CuDef*
%ADD16RoundRect,0.237500X-0.237500X0.250000X-0.237500X-0.250000X0.237500X-0.250000X0.237500X0.250000X0*%
G04 #@! TD*
G04 #@! TA.AperFunction,SMDPad,CuDef*
%ADD17RoundRect,0.237500X-0.287500X-0.237500X0.287500X-0.237500X0.287500X0.237500X-0.287500X0.237500X0*%
G04 #@! TD*
G04 #@! TA.AperFunction,SMDPad,CuDef*
%ADD18RoundRect,0.237500X-0.250000X-0.237500X0.250000X-0.237500X0.250000X0.237500X-0.250000X0.237500X0*%
G04 #@! TD*
G04 #@! TA.AperFunction,SMDPad,CuDef*
%ADD19R,1.300000X0.900000*%
G04 #@! TD*
G04 #@! TA.AperFunction,SMDPad,CuDef*
%ADD20FreePoly0,0.000000*%
G04 #@! TD*
G04 #@! TA.AperFunction,SMDPad,CuDef*
%ADD21RoundRect,0.237500X0.237500X-0.300000X0.237500X0.300000X-0.237500X0.300000X-0.237500X-0.300000X0*%
G04 #@! TD*
G04 #@! TA.AperFunction,SMDPad,CuDef*
%ADD22RoundRect,0.237500X0.237500X-0.287500X0.237500X0.287500X-0.237500X0.287500X-0.237500X-0.287500X0*%
G04 #@! TD*
G04 #@! TA.AperFunction,SMDPad,CuDef*
%ADD23R,0.675000X0.250000*%
G04 #@! TD*
G04 #@! TA.AperFunction,SMDPad,CuDef*
%ADD24R,0.250000X0.675000*%
G04 #@! TD*
G04 #@! TA.AperFunction,SMDPad,CuDef*
%ADD25RoundRect,0.237500X0.044194X0.380070X-0.380070X-0.044194X-0.044194X-0.380070X0.380070X0.044194X0*%
G04 #@! TD*
G04 #@! TA.AperFunction,SMDPad,CuDef*
%ADD26RoundRect,0.062500X-0.362500X-0.062500X0.362500X-0.062500X0.362500X0.062500X-0.362500X0.062500X0*%
G04 #@! TD*
G04 #@! TA.AperFunction,SMDPad,CuDef*
%ADD27RoundRect,0.062500X-0.062500X-0.362500X0.062500X-0.362500X0.062500X0.362500X-0.062500X0.362500X0*%
G04 #@! TD*
G04 #@! TA.AperFunction,ComponentPad*
%ADD28C,0.600000*%
G04 #@! TD*
G04 #@! TA.AperFunction,SMDPad,CuDef*
%ADD29R,2.550000X3.550000*%
G04 #@! TD*
G04 #@! TA.AperFunction,SMDPad,CuDef*
%ADD30RoundRect,0.237500X0.287500X0.237500X-0.287500X0.237500X-0.287500X-0.237500X0.287500X-0.237500X0*%
G04 #@! TD*
G04 #@! TA.AperFunction,SMDPad,CuDef*
%ADD31R,1.600000X1.300000*%
G04 #@! TD*
G04 #@! TA.AperFunction,SMDPad,CuDef*
%ADD32RoundRect,0.250000X-0.750000X-0.250000X0.750000X-0.250000X0.750000X0.250000X-0.750000X0.250000X0*%
G04 #@! TD*
G04 #@! TA.AperFunction,SMDPad,CuDef*
%ADD33RoundRect,0.175000X0.175000X-0.575000X0.175000X0.575000X-0.175000X0.575000X-0.175000X-0.575000X0*%
G04 #@! TD*
G04 #@! TA.AperFunction,SMDPad,CuDef*
%ADD34RoundRect,0.075000X-0.548008X0.441942X0.441942X-0.548008X0.548008X-0.441942X-0.441942X0.548008X0*%
G04 #@! TD*
G04 #@! TA.AperFunction,SMDPad,CuDef*
%ADD35RoundRect,0.075000X-0.548008X-0.441942X-0.441942X-0.548008X0.548008X0.441942X0.441942X0.548008X0*%
G04 #@! TD*
G04 #@! TA.AperFunction,SMDPad,CuDef*
%ADD36R,0.254000X0.279400*%
G04 #@! TD*
G04 #@! TA.AperFunction,SMDPad,CuDef*
%ADD37R,0.279400X0.254000*%
G04 #@! TD*
G04 #@! TA.AperFunction,SMDPad,CuDef*
%ADD38RoundRect,0.150000X-0.325000X-0.150000X0.325000X-0.150000X0.325000X0.150000X-0.325000X0.150000X0*%
G04 #@! TD*
G04 #@! TA.AperFunction,SMDPad,CuDef*
%ADD39RoundRect,0.150000X-0.150000X-0.325000X0.150000X-0.325000X0.150000X0.325000X-0.150000X0.325000X0*%
G04 #@! TD*
G04 #@! TA.AperFunction,ComponentPad*
%ADD40R,2.400000X2.400000*%
G04 #@! TD*
G04 #@! TA.AperFunction,ComponentPad*
%ADD41C,2.400000*%
G04 #@! TD*
G04 #@! TA.AperFunction,ComponentPad*
%ADD42R,1.700000X1.700000*%
G04 #@! TD*
G04 #@! TA.AperFunction,ComponentPad*
%ADD43O,1.700000X1.700000*%
G04 #@! TD*
G04 #@! TA.AperFunction,ViaPad*
%ADD44C,0.800000*%
G04 #@! TD*
G04 #@! TA.AperFunction,Conductor*
%ADD45C,0.250000*%
G04 #@! TD*
G04 #@! TA.AperFunction,Conductor*
%ADD46C,0.762000*%
G04 #@! TD*
G04 APERTURE END LIST*
D10*
G04 #@! TO.P,R8,1*
G04 #@! TO.N,+3.3V*
X167386000Y-83716500D03*
G04 #@! TO.P,R8,2*
G04 #@! TO.N,/Accelerometer/SDA*
X167386000Y-81891500D03*
G04 #@! TD*
D11*
G04 #@! TO.P,C16,1*
G04 #@! TO.N,+3.3V*
X167132000Y-91085500D03*
G04 #@! TO.P,C16,2*
G04 #@! TO.N,GND*
X167132000Y-92810500D03*
G04 #@! TD*
D12*
G04 #@! TO.P,R9,1*
G04 #@! TO.N,Net-(U5-TX)*
X142009500Y-78105000D03*
G04 #@! TO.P,R9,2*
G04 #@! TO.N,/GPS/TXD*
X140184500Y-78105000D03*
G04 #@! TD*
D13*
G04 #@! TO.P,TP1,1,1*
G04 #@! TO.N,GND*
X167005000Y-72898000D03*
G04 #@! TD*
D14*
G04 #@! TO.P,C32,1*
G04 #@! TO.N,/VPYRO*
X145314500Y-131064000D03*
G04 #@! TO.P,C32,2*
G04 #@! TO.N,GND*
X147039500Y-131064000D03*
G04 #@! TD*
G04 #@! TO.P,C24,1*
G04 #@! TO.N,/MicroSD/SDIO_CMD*
X161697500Y-126746000D03*
G04 #@! TO.P,C24,2*
G04 #@! TO.N,GND*
X163422500Y-126746000D03*
G04 #@! TD*
D10*
G04 #@! TO.P,R1,1*
G04 #@! TO.N,+3.3V*
X151892000Y-115974500D03*
G04 #@! TO.P,R1,2*
G04 #@! TO.N,/Barometer/MISO*
X151892000Y-114149500D03*
G04 #@! TD*
G04 #@! TO.P,R2,1*
G04 #@! TO.N,+3.3V*
X150114000Y-115720500D03*
G04 #@! TO.P,R2,2*
G04 #@! TO.N,/CS1*
X150114000Y-113895500D03*
G04 #@! TD*
D15*
G04 #@! TO.P,C28,1*
G04 #@! TO.N,/MicroSD/SDIO_D1*
X156056500Y-126746000D03*
G04 #@! TO.P,C28,2*
G04 #@! TO.N,GND*
X154331500Y-126746000D03*
G04 #@! TD*
D13*
G04 #@! TO.P,TP17,1,1*
G04 #@! TO.N,/MicroSD/SDIO_D0*
X156972000Y-119888000D03*
G04 #@! TD*
D16*
G04 #@! TO.P,R19,1*
G04 #@! TO.N,/Current Switch/EN2*
X139319000Y-123674500D03*
G04 #@! TO.P,R19,2*
G04 #@! TO.N,Net-(U8-EN2)*
X139319000Y-125499500D03*
G04 #@! TD*
D15*
G04 #@! TO.P,C30,1*
G04 #@! TO.N,+3.3V*
X159739500Y-125222000D03*
G04 #@! TO.P,C30,2*
G04 #@! TO.N,GND*
X158014500Y-125222000D03*
G04 #@! TD*
D17*
G04 #@! TO.P,D2,1,K*
G04 #@! TO.N,GND*
X151525000Y-142748000D03*
G04 #@! TO.P,D2,2,A*
G04 #@! TO.N,Net-(D2-A)*
X153275000Y-142748000D03*
G04 #@! TD*
D12*
G04 #@! TO.P,R11,1*
G04 #@! TO.N,Net-(U5-TX)*
X142009500Y-76581000D03*
G04 #@! TO.P,R11,2*
G04 #@! TO.N,Net-(D1-A)*
X140184500Y-76581000D03*
G04 #@! TD*
D18*
G04 #@! TO.P,R17,1*
G04 #@! TO.N,+3.3V*
X154281500Y-125222000D03*
G04 #@! TO.P,R17,2*
G04 #@! TO.N,/MicroSD/SDIO_D0*
X156106500Y-125222000D03*
G04 #@! TD*
D13*
G04 #@! TO.P,TP4,1,1*
G04 #@! TO.N,GND*
X157099000Y-84963000D03*
G04 #@! TD*
D19*
G04 #@! TO.P,U7,1,VIN*
G04 #@! TO.N,/VBAT*
X161800750Y-134493000D03*
D20*
G04 #@! TO.P,U7,2,GND*
G04 #@! TO.N,GND*
X161888250Y-135993000D03*
D19*
G04 #@! TO.P,U7,3,VOUT*
G04 #@! TO.N,+3.3V*
X161800750Y-137493000D03*
G04 #@! TD*
D21*
G04 #@! TO.P,C33,1*
G04 #@! TO.N,/PYRO4*
X146050000Y-139292500D03*
G04 #@! TO.P,C33,2*
G04 #@! TO.N,GND*
X146050000Y-137567500D03*
G04 #@! TD*
D18*
G04 #@! TO.P,FB2,1*
G04 #@! TO.N,+3.3V*
X140184500Y-73533000D03*
G04 #@! TO.P,FB2,2*
G04 #@! TO.N,Net-(U5-VCC)*
X142009500Y-73533000D03*
G04 #@! TD*
D15*
G04 #@! TO.P,C27,1*
G04 #@! TO.N,+3.3V*
X159739500Y-123698000D03*
G04 #@! TO.P,C27,2*
G04 #@! TO.N,GND*
X158014500Y-123698000D03*
G04 #@! TD*
D18*
G04 #@! TO.P,R15,1*
G04 #@! TO.N,+3.3V*
X165330500Y-123698000D03*
G04 #@! TO.P,R15,2*
G04 #@! TO.N,/MicroSD/SDIO_D2*
X167155500Y-123698000D03*
G04 #@! TD*
D15*
G04 #@! TO.P,C4,1*
G04 #@! TO.N,+3.3V*
X148690500Y-96647000D03*
G04 #@! TO.P,C4,2*
G04 #@! TO.N,GND*
X146965500Y-96647000D03*
G04 #@! TD*
D12*
G04 #@! TO.P,R14,1*
G04 #@! TO.N,+3.3V*
X163472500Y-123698000D03*
G04 #@! TO.P,R14,2*
G04 #@! TO.N,/MicroSD/SDIO_D3*
X161647500Y-123698000D03*
G04 #@! TD*
D11*
G04 #@! TO.P,C36,1*
G04 #@! TO.N,/PYRO1*
X146050000Y-119761000D03*
G04 #@! TO.P,C36,2*
G04 #@! TO.N,GND*
X146050000Y-121486000D03*
G04 #@! TD*
D12*
G04 #@! TO.P,R4,1*
G04 #@! TO.N,/VBAT*
X153312500Y-132461000D03*
G04 #@! TO.P,R4,2*
G04 #@! TO.N,/Microcontroller/VBAT_ADC*
X151487500Y-132461000D03*
G04 #@! TD*
D18*
G04 #@! TO.P,R7,1*
G04 #@! TO.N,+3.3V*
X164441500Y-78994000D03*
G04 #@! TO.P,R7,2*
G04 #@! TO.N,/Accelerometer/SCL*
X166266500Y-78994000D03*
G04 #@! TD*
D22*
G04 #@! TO.P,D3,1,K*
G04 #@! TO.N,GND*
X153543000Y-91045000D03*
G04 #@! TO.P,D3,2,A*
G04 #@! TO.N,Net-(D3-A)*
X153543000Y-89295000D03*
G04 #@! TD*
D10*
G04 #@! TO.P,R27,1*
G04 #@! TO.N,/VPYRO*
X144399000Y-121536000D03*
G04 #@! TO.P,R27,2*
G04 #@! TO.N,/PYRO1*
X144399000Y-119711000D03*
G04 #@! TD*
D11*
G04 #@! TO.P,C22,1*
G04 #@! TO.N,+3.3V*
X159940750Y-136908500D03*
G04 #@! TO.P,C22,2*
G04 #@! TO.N,GND*
X159940750Y-138633500D03*
G04 #@! TD*
D14*
G04 #@! TO.P,C18,1*
G04 #@! TO.N,Net-(U5-VCC)*
X140234500Y-72009000D03*
G04 #@! TO.P,C18,2*
G04 #@! TO.N,GND*
X141959500Y-72009000D03*
G04 #@! TD*
D23*
G04 #@! TO.P,U6,1,SDO*
G04 #@! TO.N,/Barometer/MISO*
X159011500Y-91325000D03*
G04 #@! TO.P,U6,2,NC*
G04 #@! TO.N,unconnected-(U6-NC-Pad2)*
X159011500Y-91825000D03*
G04 #@! TO.P,U6,3,NC*
G04 #@! TO.N,unconnected-(U6-NC-Pad3)*
X159011500Y-92325000D03*
G04 #@! TO.P,U6,4,INT1*
G04 #@! TO.N,/IMU/INT1*
X159011500Y-92825000D03*
D24*
G04 #@! TO.P,U6,5,VDDIO*
G04 #@! TO.N,+3.3V*
X159774000Y-93087500D03*
G04 #@! TO.P,U6,6,GNDIO*
G04 #@! TO.N,GND*
X160274000Y-93087500D03*
G04 #@! TO.P,U6,7,GND*
X160774000Y-93087500D03*
D23*
G04 #@! TO.P,U6,8,VDD*
G04 #@! TO.N,+3.3V*
X161536500Y-92825000D03*
G04 #@! TO.P,U6,9,INT2*
G04 #@! TO.N,unconnected-(U6-INT2-Pad9)*
X161536500Y-92325000D03*
G04 #@! TO.P,U6,10,NC*
G04 #@! TO.N,unconnected-(U6-NC-Pad10)*
X161536500Y-91825000D03*
G04 #@! TO.P,U6,11,NC*
G04 #@! TO.N,unconnected-(U6-NC-Pad11)*
X161536500Y-91325000D03*
D24*
G04 #@! TO.P,U6,12,CSB*
G04 #@! TO.N,/CS2*
X160774000Y-91062500D03*
G04 #@! TO.P,U6,13,SCK*
G04 #@! TO.N,/Barometer/SCK*
X160274000Y-91062500D03*
G04 #@! TO.P,U6,14,SDI*
G04 #@! TO.N,/Barometer/MOSI*
X159774000Y-91062500D03*
G04 #@! TD*
D13*
G04 #@! TO.P,TP16,1,1*
G04 #@! TO.N,/MicroSD/SDIO_CMD*
X163830000Y-117475000D03*
G04 #@! TD*
D21*
G04 #@! TO.P,C35,1*
G04 #@! TO.N,/PYRO2*
X146050000Y-125322500D03*
G04 #@! TO.P,C35,2*
G04 #@! TO.N,GND*
X146050000Y-123597500D03*
G04 #@! TD*
D25*
G04 #@! TO.P,C3,1*
G04 #@! TO.N,+3.3V*
X144373880Y-110007120D03*
G04 #@! TO.P,C3,2*
G04 #@! TO.N,GND*
X143154120Y-111226880D03*
G04 #@! TD*
D14*
G04 #@! TO.P,C15,1*
G04 #@! TO.N,+3.3V*
X165634500Y-87884000D03*
G04 #@! TO.P,C15,2*
G04 #@! TO.N,GND*
X167359500Y-87884000D03*
G04 #@! TD*
G04 #@! TO.P,C17,1*
G04 #@! TO.N,Net-(U5-VCC)*
X140234500Y-70485000D03*
G04 #@! TO.P,C17,2*
G04 #@! TO.N,GND*
X141959500Y-70485000D03*
G04 #@! TD*
D16*
G04 #@! TO.P,R18,1*
G04 #@! TO.N,/Current Switch/EN1*
X140970000Y-123674500D03*
G04 #@! TO.P,R18,2*
G04 #@! TO.N,Net-(U8-EN1)*
X140970000Y-125499500D03*
G04 #@! TD*
D14*
G04 #@! TO.P,C31,1*
G04 #@! TO.N,/VPYRO*
X145314500Y-127889000D03*
G04 #@! TO.P,C31,2*
G04 #@! TO.N,GND*
X147039500Y-127889000D03*
G04 #@! TD*
G04 #@! TO.P,C9,1*
G04 #@! TO.N,+3.3V*
X155093500Y-97282000D03*
G04 #@! TO.P,C9,2*
G04 #@! TO.N,GND*
X156818500Y-97282000D03*
G04 #@! TD*
D11*
G04 #@! TO.P,C7,1*
G04 #@! TO.N,Net-(U2-VCAP1)*
X144526000Y-113310500D03*
G04 #@! TO.P,C7,2*
G04 #@! TO.N,GND*
X144526000Y-115035500D03*
G04 #@! TD*
D16*
G04 #@! TO.P,R20,1*
G04 #@! TO.N,/Current Switch/EN3*
X138938000Y-119991500D03*
G04 #@! TO.P,R20,2*
G04 #@! TO.N,Net-(U8-EN3)*
X138938000Y-121816500D03*
G04 #@! TD*
D26*
G04 #@! TO.P,U8,1,EN3*
G04 #@! TO.N,Net-(U8-EN3)*
X139786000Y-127790000D03*
G04 #@! TO.P,U8,2,EN4*
G04 #@! TO.N,Net-(U8-EN4)*
X139786000Y-128290000D03*
G04 #@! TO.P,U8,3,~{ST1}*
G04 #@! TO.N,/Current Switch/~{ST1}*
X139786000Y-128790000D03*
G04 #@! TO.P,U8,4,~{ST2}*
G04 #@! TO.N,/Current Switch/~{ST2}*
X139786000Y-129290000D03*
G04 #@! TO.P,U8,5,~{ST3}*
G04 #@! TO.N,/Current Switch/~{ST3}*
X139786000Y-129790000D03*
G04 #@! TO.P,U8,6,~{ST4}*
G04 #@! TO.N,/Current Switch/~{ST4}*
X139786000Y-130290000D03*
G04 #@! TO.P,U8,7,CL*
G04 #@! TO.N,Net-(U8-CL)*
X139786000Y-130790000D03*
G04 #@! TO.P,U8,8,NC*
G04 #@! TO.N,unconnected-(U8-NC-Pad8)*
X139786000Y-131290000D03*
D27*
G04 #@! TO.P,U8,9,GND*
G04 #@! TO.N,GND*
X140486000Y-131990000D03*
G04 #@! TO.P,U8,10,THER*
X140986000Y-131990000D03*
G04 #@! TO.P,U8,11,DIAG_EN*
G04 #@! TO.N,Net-(U8-DIAG_EN)*
X141486000Y-131990000D03*
G04 #@! TO.P,U8,12,OUT4*
G04 #@! TO.N,/PYRO4*
X141986000Y-131990000D03*
G04 #@! TO.P,U8,13,OUT4*
X142486000Y-131990000D03*
G04 #@! TO.P,U8,14,OUT3*
G04 #@! TO.N,/PYRO3*
X142986000Y-131990000D03*
D26*
G04 #@! TO.P,U8,15,OUT3*
X143686000Y-131290000D03*
G04 #@! TO.P,U8,16,NC*
G04 #@! TO.N,unconnected-(U8-NC-Pad16)*
X143686000Y-130790000D03*
G04 #@! TO.P,U8,17,VS*
G04 #@! TO.N,/VPYRO*
X143686000Y-130290000D03*
G04 #@! TO.P,U8,18,VS*
X143686000Y-129790000D03*
G04 #@! TO.P,U8,19,VS*
X143686000Y-129290000D03*
G04 #@! TO.P,U8,20,VS*
X143686000Y-128790000D03*
G04 #@! TO.P,U8,21,NC*
G04 #@! TO.N,unconnected-(U8-NC-Pad21)*
X143686000Y-128290000D03*
G04 #@! TO.P,U8,22,OUT2*
G04 #@! TO.N,/PYRO2*
X143686000Y-127790000D03*
D27*
G04 #@! TO.P,U8,23,OUT2*
X142986000Y-127090000D03*
G04 #@! TO.P,U8,24,OUT1*
G04 #@! TO.N,/PYRO1*
X142486000Y-127090000D03*
G04 #@! TO.P,U8,25,OUT1*
X141986000Y-127090000D03*
G04 #@! TO.P,U8,26,GND*
G04 #@! TO.N,GND*
X141486000Y-127090000D03*
G04 #@! TO.P,U8,27,EN1*
G04 #@! TO.N,Net-(U8-EN1)*
X140986000Y-127090000D03*
G04 #@! TO.P,U8,28,EN2*
G04 #@! TO.N,Net-(U8-EN2)*
X140486000Y-127090000D03*
D28*
G04 #@! TO.P,U8,29,PAD*
G04 #@! TO.N,GND*
X140836000Y-128140000D03*
X140836000Y-128840000D03*
X140836000Y-129540000D03*
X140836000Y-130240000D03*
X140836000Y-130940000D03*
X141736000Y-128140000D03*
X141736000Y-128840000D03*
X141736000Y-129540000D03*
D29*
X141736000Y-129540000D03*
D28*
X141736000Y-130240000D03*
X141736000Y-130940000D03*
X142636000Y-128140000D03*
X142636000Y-128840000D03*
X142636000Y-129540000D03*
X142636000Y-130240000D03*
X142636000Y-130940000D03*
G04 #@! TD*
D16*
G04 #@! TO.P,R21,1*
G04 #@! TO.N,/Current Switch/EN4*
X139192000Y-116435500D03*
G04 #@! TO.P,R21,2*
G04 #@! TO.N,Net-(U8-EN4)*
X139192000Y-118260500D03*
G04 #@! TD*
D15*
G04 #@! TO.P,C8,1*
G04 #@! TO.N,+3.3V*
X159612500Y-111252000D03*
G04 #@! TO.P,C8,2*
G04 #@! TO.N,GND*
X157887500Y-111252000D03*
G04 #@! TD*
D11*
G04 #@! TO.P,C1,1*
G04 #@! TO.N,+3.3V*
X137668000Y-94133500D03*
G04 #@! TO.P,C1,2*
G04 #@! TO.N,GND*
X137668000Y-95858500D03*
G04 #@! TD*
D10*
G04 #@! TO.P,R25,1*
G04 #@! TO.N,/VPYRO*
X144399000Y-135532500D03*
G04 #@! TO.P,R25,2*
G04 #@! TO.N,/PYRO3*
X144399000Y-133707500D03*
G04 #@! TD*
G04 #@! TO.P,R23,1*
G04 #@! TO.N,+3.3V*
X139954000Y-135405500D03*
G04 #@! TO.P,R23,2*
G04 #@! TO.N,Net-(U8-DIAG_EN)*
X139954000Y-133580500D03*
G04 #@! TD*
D11*
G04 #@! TO.P,C34,1*
G04 #@! TO.N,/PYRO3*
X146050000Y-133757500D03*
G04 #@! TO.P,C34,2*
G04 #@! TO.N,GND*
X146050000Y-135482500D03*
G04 #@! TD*
D21*
G04 #@! TO.P,C11,1*
G04 #@! TO.N,Net-(U2-VDDA)*
X141859000Y-100811500D03*
G04 #@! TO.P,C11,2*
G04 #@! TO.N,GND*
X141859000Y-99086500D03*
G04 #@! TD*
D15*
G04 #@! TO.P,C6,1*
G04 #@! TO.N,+3.3V*
X148182500Y-115062000D03*
G04 #@! TO.P,C6,2*
G04 #@! TO.N,GND*
X146457500Y-115062000D03*
G04 #@! TD*
D30*
G04 #@! TO.P,D1,1,K*
G04 #@! TO.N,GND*
X141972000Y-75057000D03*
G04 #@! TO.P,D1,2,A*
G04 #@! TO.N,Net-(D1-A)*
X140222000Y-75057000D03*
G04 #@! TD*
D15*
G04 #@! TO.P,C29,1*
G04 #@! TO.N,/MicroSD/SDIO_D0*
X156056500Y-123698000D03*
G04 #@! TO.P,C29,2*
G04 #@! TO.N,GND*
X154331500Y-123698000D03*
G04 #@! TD*
D21*
G04 #@! TO.P,C14,1*
G04 #@! TO.N,+3.3V*
X161671000Y-86460500D03*
G04 #@! TO.P,C14,2*
G04 #@! TO.N,GND*
X161671000Y-84735500D03*
G04 #@! TD*
D31*
G04 #@! TO.P,U1,1,GND*
G04 #@! TO.N,GND*
X139555000Y-96754000D03*
G04 #@! TO.P,U1,2,GND*
X143655000Y-96754000D03*
G04 #@! TO.P,U1,3,OUT*
G04 #@! TO.N,/Microcontroller/TCXO_OUT*
X143655000Y-94254000D03*
G04 #@! TO.P,U1,4,VDD*
G04 #@! TO.N,+3.3V*
X139555000Y-94254000D03*
G04 #@! TD*
D18*
G04 #@! TO.P,R10,1*
G04 #@! TO.N,/GPS/RXD*
X140184500Y-79629000D03*
G04 #@! TO.P,R10,2*
G04 #@! TO.N,Net-(U5-RX)*
X142009500Y-79629000D03*
G04 #@! TD*
G04 #@! TO.P,R5,1*
G04 #@! TO.N,/Microcontroller/VBAT_ADC*
X151487500Y-134112000D03*
G04 #@! TO.P,R5,2*
G04 #@! TO.N,GND*
X153312500Y-134112000D03*
G04 #@! TD*
D21*
G04 #@! TO.P,C21,1*
G04 #@! TO.N,/VBAT*
X159940750Y-135077500D03*
G04 #@! TO.P,C21,2*
G04 #@! TO.N,GND*
X159940750Y-133352500D03*
G04 #@! TD*
D10*
G04 #@! TO.P,FB1,1*
G04 #@! TO.N,+3.3V*
X141732000Y-104290500D03*
G04 #@! TO.P,FB1,2*
G04 #@! TO.N,Net-(U2-VDDA)*
X141732000Y-102465500D03*
G04 #@! TD*
D13*
G04 #@! TO.P,TP15,1,1*
G04 #@! TO.N,/MicroSD/SDIO_CLK*
X160020000Y-118999000D03*
G04 #@! TD*
D14*
G04 #@! TO.P,C23,1*
G04 #@! TO.N,/MicroSD/SDIO_CLK*
X158014500Y-126746000D03*
G04 #@! TO.P,C23,2*
G04 #@! TO.N,GND*
X159739500Y-126746000D03*
G04 #@! TD*
D32*
G04 #@! TO.P,U5,1,VCC*
G04 #@! TO.N,Net-(U5-VCC)*
X144454000Y-65551000D03*
G04 #@! TO.P,U5,2,NRESET*
G04 #@! TO.N,unconnected-(U5-NRESET-Pad2)*
X144454000Y-67051000D03*
G04 #@! TO.P,U5,3,GND*
G04 #@! TO.N,GND*
X144454000Y-68551000D03*
G04 #@! TO.P,U5,4,VBACKUP*
G04 #@! TO.N,unconnected-(U5-VBACKUP-Pad4)*
X144454000Y-70051000D03*
G04 #@! TO.P,U5,5,3D-FIX*
G04 #@! TO.N,unconnected-(U5-3D-FIX-Pad5)*
X144454000Y-71551000D03*
G04 #@! TO.P,U5,6,NC*
G04 #@! TO.N,unconnected-(U5-NC-Pad6)*
X144454000Y-73051000D03*
G04 #@! TO.P,U5,7,NC*
G04 #@! TO.N,unconnected-(U5-NC-Pad7)*
X144454000Y-74551000D03*
G04 #@! TO.P,U5,8,GND*
G04 #@! TO.N,GND*
X144454000Y-76051000D03*
G04 #@! TO.P,U5,9,TX*
G04 #@! TO.N,Net-(U5-TX)*
X144454000Y-77551000D03*
G04 #@! TO.P,U5,10,RX*
G04 #@! TO.N,Net-(U5-RX)*
X144454000Y-79051000D03*
G04 #@! TO.P,U5,11,EX_ANT*
G04 #@! TO.N,unconnected-(U5-EX_ANT-Pad11)*
X160454000Y-79051000D03*
G04 #@! TO.P,U5,12,GND*
G04 #@! TO.N,GND*
X160454000Y-77551000D03*
G04 #@! TO.P,U5,13,1PPS*
G04 #@! TO.N,unconnected-(U5-1PPS-Pad13)*
X160454000Y-76051000D03*
G04 #@! TO.P,U5,14,RTCM*
G04 #@! TO.N,unconnected-(U5-RTCM-Pad14)*
X160454000Y-74551000D03*
G04 #@! TO.P,U5,15,NC*
G04 #@! TO.N,unconnected-(U5-NC-Pad15)*
X160454000Y-73051000D03*
G04 #@! TO.P,U5,16,NC*
G04 #@! TO.N,unconnected-(U5-NC-Pad16)*
X160454000Y-71551000D03*
G04 #@! TO.P,U5,17,NC*
G04 #@! TO.N,unconnected-(U5-NC-Pad17)*
X160454000Y-70051000D03*
G04 #@! TO.P,U5,18,NC*
G04 #@! TO.N,unconnected-(U5-NC-Pad18)*
X160454000Y-68551000D03*
G04 #@! TO.P,U5,19,GND*
G04 #@! TO.N,GND*
X160454000Y-67051000D03*
G04 #@! TO.P,U5,20,NC*
G04 #@! TO.N,unconnected-(U5-NC-Pad20)*
X160454000Y-65551000D03*
G04 #@! TD*
D25*
G04 #@! TO.P,C5,1*
G04 #@! TO.N,+3.3V*
X143230880Y-108737120D03*
G04 #@! TO.P,C5,2*
G04 #@! TO.N,GND*
X142011120Y-109956880D03*
G04 #@! TD*
D33*
G04 #@! TO.P,U9,1,ANT_SW*
G04 #@! TO.N,Net-(U9-ANT_SW)*
X146780000Y-92376000D03*
G04 #@! TO.P,U9,2,NRST*
G04 #@! TO.N,/LoRa/LORA_RST*
X147880000Y-92376000D03*
G04 #@! TO.P,U9,3,BUSY*
G04 #@! TO.N,/LoRa/LORA_BUSY*
X148980000Y-92376000D03*
G04 #@! TO.P,U9,4,DIO1*
G04 #@! TO.N,/LoRa/LORA_DIO1*
X150080000Y-92376000D03*
G04 #@! TO.P,U9,5,VDD*
G04 #@! TO.N,+3.3V*
X151180000Y-92376000D03*
G04 #@! TO.P,U9,6,SCK*
G04 #@! TO.N,/LoRa/LORA_SCK*
X151180000Y-82376000D03*
G04 #@! TO.P,U9,7,MOSI*
G04 #@! TO.N,/LoRa/LORA_MOSI*
X150080000Y-82376000D03*
G04 #@! TO.P,U9,8,MISO*
G04 #@! TO.N,/LoRa/LORA_MISO*
X148980000Y-82376000D03*
G04 #@! TO.P,U9,9,NSS*
G04 #@! TO.N,/LoRa/LORA_NSS*
X147880000Y-82376000D03*
G04 #@! TO.P,U9,10,GND*
G04 #@! TO.N,GND*
X146780000Y-82376000D03*
G04 #@! TD*
D10*
G04 #@! TO.P,R3,1*
G04 #@! TO.N,+3.3V*
X154432000Y-116482500D03*
G04 #@! TO.P,R3,2*
G04 #@! TO.N,/CS2*
X154432000Y-114657500D03*
G04 #@! TD*
D34*
G04 #@! TO.P,U2,1,VBAT*
G04 #@! TO.N,+3.3V*
X149133819Y-98618519D03*
G04 #@! TO.P,U2,2,PC13*
G04 #@! TO.N,unconnected-(U2-PC13-Pad2)*
X148780266Y-98972072D03*
G04 #@! TO.P,U2,3,PC14*
G04 #@! TO.N,unconnected-(U2-PC14-Pad3)*
X148426713Y-99325625D03*
G04 #@! TO.P,U2,4,PC15*
G04 #@! TO.N,unconnected-(U2-PC15-Pad4)*
X148073159Y-99679179D03*
G04 #@! TO.P,U2,5,PH0*
G04 #@! TO.N,/Microcontroller/TCXO_OUT*
X147719606Y-100032732D03*
G04 #@! TO.P,U2,6,PH1*
G04 #@! TO.N,unconnected-(U2-PH1-Pad6)*
X147366052Y-100386286D03*
G04 #@! TO.P,U2,7,NRST*
G04 #@! TO.N,/Microcontroller/NRST*
X147012499Y-100739839D03*
G04 #@! TO.P,U2,8,PC0*
G04 #@! TO.N,/Current Switch/EN1*
X146658946Y-101093392D03*
G04 #@! TO.P,U2,9,PC1*
G04 #@! TO.N,/Current Switch/EN2*
X146305392Y-101446946D03*
G04 #@! TO.P,U2,10,PC2*
G04 #@! TO.N,/Current Switch/EN3*
X145951839Y-101800499D03*
G04 #@! TO.P,U2,11,PC3*
G04 #@! TO.N,/Current Switch/EN4*
X145598286Y-102154052D03*
G04 #@! TO.P,U2,12,VSSA*
G04 #@! TO.N,GND*
X145244732Y-102507606D03*
G04 #@! TO.P,U2,13,VDDA*
G04 #@! TO.N,Net-(U2-VDDA)*
X144891179Y-102861159D03*
G04 #@! TO.P,U2,14,PA0*
G04 #@! TO.N,/Microcontroller/VBAT_ADC*
X144537625Y-103214713D03*
G04 #@! TO.P,U2,15,PA1*
G04 #@! TO.N,unconnected-(U2-PA1-Pad15)*
X144184072Y-103568266D03*
G04 #@! TO.P,U2,16,PA2*
G04 #@! TO.N,/Microcontroller/UART_TX*
X143830519Y-103921819D03*
D35*
G04 #@! TO.P,U2,17,PA3*
G04 #@! TO.N,/Microcontroller/UART_RX*
X143830519Y-106644181D03*
G04 #@! TO.P,U2,18,VSS*
G04 #@! TO.N,GND*
X144184072Y-106997734D03*
G04 #@! TO.P,U2,19,VDD*
G04 #@! TO.N,+3.3V*
X144537625Y-107351287D03*
G04 #@! TO.P,U2,20,PA4*
G04 #@! TO.N,/LoRa/LORA_NSS*
X144891179Y-107704841D03*
G04 #@! TO.P,U2,21,PA5*
G04 #@! TO.N,/LoRa/LORA_SCK*
X145244732Y-108058394D03*
G04 #@! TO.P,U2,22,PA6*
G04 #@! TO.N,/LoRa/LORA_MISO*
X145598286Y-108411948D03*
G04 #@! TO.P,U2,23,PA7*
G04 #@! TO.N,/LoRa/LORA_MOSI*
X145951839Y-108765501D03*
G04 #@! TO.P,U2,24,PC4*
G04 #@! TO.N,/LoRa/LORA_RST*
X146305392Y-109119054D03*
G04 #@! TO.P,U2,25,PC5*
G04 #@! TO.N,/LoRa/LORA_BUSY*
X146658946Y-109472608D03*
G04 #@! TO.P,U2,26,PB0*
G04 #@! TO.N,/LoRa/LORA_DIO1*
X147012499Y-109826161D03*
G04 #@! TO.P,U2,27,PB1*
G04 #@! TO.N,/Barometer/INT*
X147366052Y-110179714D03*
G04 #@! TO.P,U2,28,PB2*
G04 #@! TO.N,/IMU/INT1*
X147719606Y-110533268D03*
G04 #@! TO.P,U2,29,PB10*
G04 #@! TO.N,unconnected-(U2-PB10-Pad29)*
X148073159Y-110886821D03*
G04 #@! TO.P,U2,30,VCAP1*
G04 #@! TO.N,Net-(U2-VCAP1)*
X148426713Y-111240375D03*
G04 #@! TO.P,U2,31,VSS*
G04 #@! TO.N,GND*
X148780266Y-111593928D03*
G04 #@! TO.P,U2,32,VDD*
G04 #@! TO.N,+3.3V*
X149133819Y-111947481D03*
D34*
G04 #@! TO.P,U2,33,PB12*
G04 #@! TO.N,unconnected-(U2-PB12-Pad33)*
X151856181Y-111947481D03*
G04 #@! TO.P,U2,34,PB13*
G04 #@! TO.N,/CS1*
X152209734Y-111593928D03*
G04 #@! TO.P,U2,35,PB14*
G04 #@! TO.N,/Barometer/MISO*
X152563287Y-111240375D03*
G04 #@! TO.P,U2,36,PB15*
G04 #@! TO.N,/Barometer/MOSI*
X152916841Y-110886821D03*
G04 #@! TO.P,U2,37,PC6*
G04 #@! TO.N,/CS2*
X153270394Y-110533268D03*
G04 #@! TO.P,U2,38,PC7*
G04 #@! TO.N,/Barometer/SCK*
X153623948Y-110179714D03*
G04 #@! TO.P,U2,39,PC8*
G04 #@! TO.N,/MicroSD/SDIO_D0*
X153977501Y-109826161D03*
G04 #@! TO.P,U2,40,PC9*
G04 #@! TO.N,/MicroSD/SDIO_D1*
X154331054Y-109472608D03*
G04 #@! TO.P,U2,41,PA8*
G04 #@! TO.N,unconnected-(U2-PA8-Pad41)*
X154684608Y-109119054D03*
G04 #@! TO.P,U2,42,PA9*
G04 #@! TO.N,/GPS/RXD*
X155038161Y-108765501D03*
G04 #@! TO.P,U2,43,PA10*
G04 #@! TO.N,/GPS/TXD*
X155391714Y-108411948D03*
G04 #@! TO.P,U2,44,PA11*
G04 #@! TO.N,unconnected-(U2-PA11-Pad44)*
X155745268Y-108058394D03*
G04 #@! TO.P,U2,45,PA12*
G04 #@! TO.N,unconnected-(U2-PA12-Pad45)*
X156098821Y-107704841D03*
G04 #@! TO.P,U2,46,PA13*
G04 #@! TO.N,/Microcontroller/SWDIO*
X156452375Y-107351287D03*
G04 #@! TO.P,U2,47,VSS*
G04 #@! TO.N,GND*
X156805928Y-106997734D03*
G04 #@! TO.P,U2,48,VDD*
G04 #@! TO.N,+3.3V*
X157159481Y-106644181D03*
D35*
G04 #@! TO.P,U2,49,PA14*
G04 #@! TO.N,/Microcontroller/SWCLK*
X157159481Y-103921819D03*
G04 #@! TO.P,U2,50,PA15*
G04 #@! TO.N,/Accelerometer/INT1*
X156805928Y-103568266D03*
G04 #@! TO.P,U2,51,PC10*
G04 #@! TO.N,/MicroSD/SDIO_D2*
X156452375Y-103214713D03*
G04 #@! TO.P,U2,52,PC11*
G04 #@! TO.N,/MicroSD/SDIO_D3*
X156098821Y-102861159D03*
G04 #@! TO.P,U2,53,PC12*
G04 #@! TO.N,/MicroSD/SDIO_CLK*
X155745268Y-102507606D03*
G04 #@! TO.P,U2,54,PD2*
G04 #@! TO.N,/MicroSD/SDIO_CMD*
X155391714Y-102154052D03*
G04 #@! TO.P,U2,55,PB3*
G04 #@! TO.N,/Microcontroller/SWO*
X155038161Y-101800499D03*
G04 #@! TO.P,U2,56,PB4*
G04 #@! TO.N,/Current Switch/~{ST4}*
X154684608Y-101446946D03*
G04 #@! TO.P,U2,57,PB5*
G04 #@! TO.N,/Current Switch/~{ST3}*
X154331054Y-101093392D03*
G04 #@! TO.P,U2,58,PB6*
G04 #@! TO.N,/Current Switch/~{ST2}*
X153977501Y-100739839D03*
G04 #@! TO.P,U2,59,PB7*
G04 #@! TO.N,/Current Switch/~{ST1}*
X153623948Y-100386286D03*
G04 #@! TO.P,U2,60,BOOT0*
G04 #@! TO.N,Net-(U2-BOOT0)*
X153270394Y-100032732D03*
G04 #@! TO.P,U2,61,PB8*
G04 #@! TO.N,/Accelerometer/SCL*
X152916841Y-99679179D03*
G04 #@! TO.P,U2,62,PB9*
G04 #@! TO.N,/Accelerometer/SDA*
X152563287Y-99325625D03*
G04 #@! TO.P,U2,63,VSS*
G04 #@! TO.N,GND*
X152209734Y-98972072D03*
G04 #@! TO.P,U2,64,VDD*
G04 #@! TO.N,+3.3V*
X151856181Y-98618519D03*
G04 #@! TD*
D12*
G04 #@! TO.P,R13,1*
G04 #@! TO.N,+3.3V*
X163472500Y-128270000D03*
G04 #@! TO.P,R13,2*
G04 #@! TO.N,/MicroSD/SDIO_CMD*
X161647500Y-128270000D03*
G04 #@! TD*
D21*
G04 #@! TO.P,C10,1*
G04 #@! TO.N,Net-(U2-VDDA)*
X143383000Y-100811500D03*
G04 #@! TO.P,C10,2*
G04 #@! TO.N,GND*
X143383000Y-99086500D03*
G04 #@! TD*
D36*
G04 #@! TO.P,U4,1,VDDIO*
G04 #@! TO.N,+3.3V*
X165096063Y-91198700D03*
G04 #@! TO.P,U4,2,SCK*
G04 #@! TO.N,/Barometer/SCK*
X164595937Y-91198700D03*
D37*
G04 #@! TO.P,U4,3,VSS*
G04 #@! TO.N,GND*
X164096700Y-91447874D03*
G04 #@! TO.P,U4,4,SDI*
G04 #@! TO.N,/Barometer/MOSI*
X164096700Y-91948000D03*
G04 #@! TO.P,U4,5,SDO*
G04 #@! TO.N,/Barometer/MISO*
X164096700Y-92448126D03*
D36*
G04 #@! TO.P,U4,6,CSB*
G04 #@! TO.N,/CS1*
X164595937Y-92697300D03*
G04 #@! TO.P,U4,7,INT*
G04 #@! TO.N,/Barometer/INT*
X165096063Y-92697300D03*
D37*
G04 #@! TO.P,U4,8,VSS*
G04 #@! TO.N,GND*
X165595300Y-92448126D03*
G04 #@! TO.P,U4,9,VSS*
X165595300Y-91948000D03*
G04 #@! TO.P,U4,10,VDD*
G04 #@! TO.N,+3.3V*
X165595300Y-91447874D03*
G04 #@! TD*
D11*
G04 #@! TO.P,C19,1*
G04 #@! TO.N,+3.3V*
X164465000Y-94768500D03*
G04 #@! TO.P,C19,2*
G04 #@! TO.N,GND*
X164465000Y-96493500D03*
G04 #@! TD*
D16*
G04 #@! TO.P,R26,1*
G04 #@! TO.N,/VPYRO*
X144399000Y-123547500D03*
G04 #@! TO.P,R26,2*
G04 #@! TO.N,/PYRO2*
X144399000Y-125372500D03*
G04 #@! TD*
D15*
G04 #@! TO.P,C26,1*
G04 #@! TO.N,/MicroSD/SDIO_D2*
X167105500Y-125222000D03*
G04 #@! TO.P,C26,2*
G04 #@! TO.N,GND*
X165380500Y-125222000D03*
G04 #@! TD*
D10*
G04 #@! TO.P,R22,1*
G04 #@! TO.N,GND*
X139954000Y-138961500D03*
G04 #@! TO.P,R22,2*
G04 #@! TO.N,Net-(U8-CL)*
X139954000Y-137136500D03*
G04 #@! TD*
G04 #@! TO.P,R28,1*
G04 #@! TO.N,/LoRa/LORA_BUSY*
X156083000Y-90955500D03*
G04 #@! TO.P,R28,2*
G04 #@! TO.N,Net-(D3-A)*
X156083000Y-89130500D03*
G04 #@! TD*
D14*
G04 #@! TO.P,C25,1*
G04 #@! TO.N,/MicroSD/SDIO_D3*
X161697500Y-125222000D03*
G04 #@! TO.P,C25,2*
G04 #@! TO.N,GND*
X163422500Y-125222000D03*
G04 #@! TD*
D12*
G04 #@! TO.P,R30,1*
G04 #@! TO.N,+3.3V*
X156106500Y-82042000D03*
G04 #@! TO.P,R30,2*
G04 #@! TO.N,/LoRa/LORA_MISO*
X154281500Y-82042000D03*
G04 #@! TD*
D14*
G04 #@! TO.P,C20,1*
G04 #@! TO.N,+3.3V*
X160808500Y-94615000D03*
G04 #@! TO.P,C20,2*
G04 #@! TO.N,GND*
X162533500Y-94615000D03*
G04 #@! TD*
D18*
G04 #@! TO.P,R29,1*
G04 #@! TO.N,+3.3V*
X145899500Y-93980000D03*
G04 #@! TO.P,R29,2*
G04 #@! TO.N,Net-(U9-ANT_SW)*
X147724500Y-93980000D03*
G04 #@! TD*
D15*
G04 #@! TO.P,C12,1*
G04 #@! TO.N,GND*
X166089500Y-76073000D03*
G04 #@! TO.P,C12,2*
G04 #@! TO.N,+3.3V*
X164364500Y-76073000D03*
G04 #@! TD*
D38*
G04 #@! TO.P,U3,1,VDDIO*
G04 #@! TO.N,+3.3V*
X163719000Y-82074000D03*
G04 #@! TO.P,U3,2,GND*
G04 #@! TO.N,GND*
X163719000Y-82874000D03*
G04 #@! TO.P,U3,3,NC*
G04 #@! TO.N,unconnected-(U3-NC-Pad3)*
X163719000Y-83674000D03*
G04 #@! TO.P,U3,4,GND*
G04 #@! TO.N,GND*
X163719000Y-84474000D03*
G04 #@! TO.P,U3,5,GND*
X163719000Y-85274000D03*
G04 #@! TO.P,U3,6,VS*
G04 #@! TO.N,+3.3V*
X163719000Y-86074000D03*
D39*
G04 #@! TO.P,U3,7,~{CS}*
X164719000Y-86074000D03*
D38*
G04 #@! TO.P,U3,8,INT1*
G04 #@! TO.N,/Accelerometer/INT1*
X165719000Y-86074000D03*
G04 #@! TO.P,U3,9,INT2*
G04 #@! TO.N,unconnected-(U3-INT2-Pad9)*
X165719000Y-85274000D03*
G04 #@! TO.P,U3,10,NC*
G04 #@! TO.N,unconnected-(U3-NC-Pad10)*
X165719000Y-84474000D03*
G04 #@! TO.P,U3,11,NC*
G04 #@! TO.N,unconnected-(U3-NC-Pad11)*
X165719000Y-83674000D03*
G04 #@! TO.P,U3,12,SDO/ADDR*
G04 #@! TO.N,GND*
X165719000Y-82874000D03*
G04 #@! TO.P,U3,13,SDI/SDA*
G04 #@! TO.N,/Accelerometer/SDA*
X165719000Y-82074000D03*
D39*
G04 #@! TO.P,U3,14,SCK*
G04 #@! TO.N,/Accelerometer/SCL*
X164719000Y-82074000D03*
G04 #@! TD*
D16*
G04 #@! TO.P,R24,1*
G04 #@! TO.N,/VPYRO*
X144399000Y-137517500D03*
G04 #@! TO.P,R24,2*
G04 #@! TO.N,/PYRO4*
X144399000Y-139342500D03*
G04 #@! TD*
D21*
G04 #@! TO.P,C13,1*
G04 #@! TO.N,+3.3V*
X159004000Y-86460500D03*
G04 #@! TO.P,C13,2*
G04 #@! TO.N,GND*
X159004000Y-84735500D03*
G04 #@! TD*
D18*
G04 #@! TO.P,R16,1*
G04 #@! TO.N,+3.3V*
X154281500Y-128270000D03*
G04 #@! TO.P,R16,2*
G04 #@! TO.N,/MicroSD/SDIO_D1*
X156106500Y-128270000D03*
G04 #@! TD*
G04 #@! TO.P,R6,1*
G04 #@! TO.N,Net-(U2-BOOT0)*
X158218500Y-99949000D03*
G04 #@! TO.P,R6,2*
G04 #@! TO.N,GND*
X160043500Y-99949000D03*
G04 #@! TD*
G04 #@! TO.P,R12,1*
G04 #@! TO.N,+3.3V*
X151487500Y-144399000D03*
G04 #@! TO.P,R12,2*
G04 #@! TO.N,Net-(D2-A)*
X153312500Y-144399000D03*
G04 #@! TD*
D40*
G04 #@! TO.P,J2,1,Pin_1*
G04 #@! TO.N,GND*
X148590000Y-143540000D03*
D41*
G04 #@! TO.P,J2,2,Pin_2*
G04 #@! TO.N,/PYRO4*
X148590000Y-140040000D03*
G04 #@! TO.P,J2,3,Pin_3*
G04 #@! TO.N,GND*
X148590000Y-136540000D03*
G04 #@! TO.P,J2,4,Pin_4*
G04 #@! TO.N,/PYRO3*
X148590000Y-133040000D03*
G04 #@! TO.P,J2,5,Pin_5*
G04 #@! TO.N,GND*
X148590000Y-129540000D03*
G04 #@! TO.P,J2,6,Pin_6*
G04 #@! TO.N,/PYRO2*
X148590000Y-126040000D03*
G04 #@! TO.P,J2,7,Pin_7*
G04 #@! TO.N,GND*
X148590000Y-122540000D03*
G04 #@! TO.P,J2,8,Pin_8*
G04 #@! TO.N,/PYRO1*
X148590000Y-119040000D03*
G04 #@! TD*
D42*
G04 #@! TO.P,J3,1,Pin_1*
G04 #@! TO.N,+3.3V*
X138811000Y-102997000D03*
D43*
G04 #@! TO.P,J3,2,Pin_2*
G04 #@! TO.N,/Microcontroller/UART_TX*
X138811000Y-105537000D03*
G04 #@! TO.P,J3,3,Pin_3*
G04 #@! TO.N,/Microcontroller/UART_RX*
X138811000Y-108077000D03*
G04 #@! TO.P,J3,4,Pin_4*
G04 #@! TO.N,GND*
X138811000Y-110617000D03*
G04 #@! TD*
D42*
G04 #@! TO.P,J4,1,Pin_1*
G04 #@! TO.N,+3.3V*
X166243000Y-112014000D03*
D43*
G04 #@! TO.P,J4,2,Pin_2*
G04 #@! TO.N,/Microcontroller/SWCLK*
X166243000Y-109474000D03*
G04 #@! TO.P,J4,3,Pin_3*
G04 #@! TO.N,GND*
X166243000Y-106934000D03*
G04 #@! TO.P,J4,4,Pin_4*
G04 #@! TO.N,/Microcontroller/SWDIO*
X166243000Y-104394000D03*
G04 #@! TO.P,J4,5,Pin_5*
G04 #@! TO.N,/Microcontroller/NRST*
X166243000Y-101854000D03*
G04 #@! TO.P,J4,6,Pin_6*
G04 #@! TO.N,/Microcontroller/SWO*
X166243000Y-99314000D03*
G04 #@! TD*
D40*
G04 #@! TO.P,J1,1,Pin_1*
G04 #@! TO.N,/VBAT*
X156210000Y-133040000D03*
D41*
G04 #@! TO.P,J1,2,Pin_2*
G04 #@! TO.N,GND*
X156210000Y-136540000D03*
G04 #@! TO.P,J1,3,Pin_3*
G04 #@! TO.N,/VPYRO*
X156210000Y-140040000D03*
G04 #@! TO.P,J1,4,Pin_4*
G04 #@! TO.N,GND*
X156210000Y-143540000D03*
G04 #@! TD*
D44*
G04 #@! TO.N,+3.3V*
X163576000Y-74803000D03*
X159766000Y-109982000D03*
X160147000Y-117602000D03*
X155448000Y-130048000D03*
X144907000Y-110998000D03*
X158115000Y-138176000D03*
X159766000Y-122428000D03*
X167146500Y-89154000D03*
X151219500Y-93726000D03*
X151324800Y-117661200D03*
X167386000Y-85090000D03*
X147701000Y-113538000D03*
X146595500Y-95250000D03*
X164973000Y-128270000D03*
X157861000Y-82042000D03*
X138938000Y-95504000D03*
X141732000Y-106045000D03*
X155913500Y-96298257D03*
X163830000Y-122301000D03*
X141097000Y-136144000D03*
X165984701Y-95508299D03*
X152400000Y-145415000D03*
X138684000Y-74295000D03*
G04 #@! TO.N,GND*
X163577750Y-138279000D03*
X164466750Y-138279000D03*
X157861000Y-122428000D03*
X161476201Y-99246201D03*
X145854497Y-113157000D03*
X146838500Y-97917000D03*
X165100000Y-126746000D03*
X159893000Y-129540000D03*
X165355750Y-133707000D03*
X167513000Y-74676000D03*
X159607500Y-83566000D03*
X158623000Y-77551000D03*
X147193000Y-79883000D03*
X158623000Y-67056000D03*
X167133750Y-138279000D03*
X166244750Y-138279000D03*
X146558000Y-76073000D03*
X153162000Y-122428000D03*
X166244750Y-133707000D03*
X167133750Y-137390000D03*
X167133750Y-134596000D03*
X142494000Y-98298000D03*
X157872000Y-118872000D03*
X164466750Y-133707000D03*
X167267681Y-93844319D03*
X157480000Y-112395000D03*
X143891000Y-112141000D03*
X163449000Y-89408000D03*
X146558000Y-68580000D03*
X159803500Y-96930542D03*
X167386000Y-86741000D03*
X165355750Y-138279000D03*
X167133750Y-133707000D03*
X138303000Y-138938000D03*
X154813000Y-90424000D03*
X167133750Y-136501000D03*
X156845000Y-129667000D03*
X167133750Y-135485000D03*
X137922000Y-97028000D03*
X163577750Y-133707000D03*
G04 #@! TO.N,/Microcontroller/NRST*
X143002000Y-113538500D03*
X159766000Y-114808000D03*
X151384000Y-118745000D03*
X145381202Y-104677355D03*
X163576000Y-113792000D03*
X143002000Y-105918000D03*
X164084000Y-102108000D03*
X147130551Y-103188551D03*
X143256000Y-116337500D03*
G04 #@! TO.N,/MicroSD/SDIO_CLK*
X158877000Y-121793000D03*
X158972000Y-117602000D03*
G04 #@! TO.N,/MicroSD/SDIO_CMD*
X160909000Y-121920000D03*
X162560000Y-115570000D03*
G04 #@! TO.N,/MicroSD/SDIO_D3*
X162306000Y-121920000D03*
X162272000Y-116967000D03*
G04 #@! TO.N,/MicroSD/SDIO_D2*
X163372000Y-118999000D03*
X165354000Y-121793000D03*
G04 #@! TO.N,/MicroSD/SDIO_D1*
X157188500Y-115316000D03*
X155448000Y-122428000D03*
G04 #@! TO.N,/MicroSD/SDIO_D0*
X156772000Y-116427811D03*
X156718000Y-121793000D03*
G04 #@! TO.N,/VPYRO*
X145542000Y-129921000D03*
X144399000Y-122555000D03*
X145542000Y-129032000D03*
X144399000Y-136525000D03*
X144780000Y-129540000D03*
G04 #@! TO.N,/Microcontroller/SWCLK*
X160142701Y-104017299D03*
G04 #@! TO.N,/Microcontroller/SWDIO*
X157009500Y-109982000D03*
G04 #@! TO.N,/Microcontroller/VBAT_ADC*
X142875000Y-102235000D03*
X148700503Y-113538000D03*
G04 #@! TO.N,/Accelerometer/SCL*
X163195000Y-97504030D03*
X164719000Y-80518000D03*
G04 #@! TO.N,/Accelerometer/SDA*
X165806600Y-80591300D03*
X162402791Y-96550287D03*
G04 #@! TO.N,/GPS/TXD*
X141351000Y-80667071D03*
X157988000Y-87630000D03*
G04 #@! TO.N,/GPS/RXD*
X140208000Y-81026000D03*
X157734000Y-86487000D03*
G04 #@! TO.N,/Current Switch/EN1*
X145071500Y-97746738D03*
X139700000Y-99695000D03*
X139700000Y-98044000D03*
X142240000Y-112141000D03*
G04 #@! TO.N,/Current Switch/EN2*
X140716000Y-108077000D03*
X145488256Y-99693059D03*
G04 #@! TO.N,/Current Switch/EN3*
X144633000Y-99080000D03*
X138049000Y-99695000D03*
G04 #@! TO.N,/Current Switch/EN4*
X138138500Y-100711000D03*
X137160000Y-112903000D03*
G04 #@! TO.N,/LoRa/LORA_BUSY*
X154745460Y-94547460D03*
X149483299Y-106049299D03*
X155650000Y-93345000D03*
G04 #@! TO.N,/Barometer/MISO*
X151499918Y-110001680D03*
X161186389Y-89624500D03*
X158795500Y-89833758D03*
G04 #@! TO.N,/LoRa/LORA_MISO*
X150183636Y-101519424D03*
X154305000Y-85217000D03*
G04 #@! TO.N,/Accelerometer/INT1*
X159249402Y-103124000D03*
X166457985Y-86115794D03*
G04 #@! TO.N,/LoRa/LORA_SCK*
X149479000Y-102616000D03*
X153035000Y-83439000D03*
G04 #@! TO.N,/LoRa/LORA_MOSI*
X154813000Y-86741000D03*
X147574000Y-106807000D03*
G04 #@! TO.N,/LoRa/LORA_NSS*
X155575000Y-83312000D03*
X149352000Y-100965000D03*
G04 #@! TO.N,/LoRa/LORA_RST*
X153538701Y-95753701D03*
X148467299Y-106176299D03*
G04 #@! TO.N,/LoRa/LORA_DIO1*
X156374500Y-92456000D03*
X150334533Y-106934000D03*
G04 #@! TO.N,/IMU/INT1*
X156882500Y-95653028D03*
X150779732Y-108234732D03*
G04 #@! TO.N,/Barometer/INT*
X164846000Y-108966000D03*
X153289000Y-113425000D03*
X149987000Y-109316275D03*
X150241000Y-112649000D03*
G04 #@! TO.N,/Current Switch/~{ST2}*
X137160000Y-114554000D03*
X154128639Y-105860744D03*
G04 #@! TO.N,/Current Switch/~{ST3}*
X158682899Y-105723899D03*
X138285474Y-129565500D03*
G04 #@! TO.N,/Current Switch/~{ST4}*
X137287000Y-128905000D03*
X154683701Y-104411875D03*
G04 #@! TO.N,/Barometer/MOSI*
X162052000Y-88862037D03*
X159357142Y-88862500D03*
X151892000Y-107315000D03*
G04 #@! TO.N,/Barometer/SCK*
X152997500Y-108765768D03*
X159041500Y-94615000D03*
G04 #@! TO.N,/Current Switch/~{ST1}*
X137893500Y-116332000D03*
X154967639Y-106842755D03*
G04 #@! TO.N,/CS1*
X153924000Y-112559329D03*
X166447951Y-96433451D03*
G04 #@! TO.N,/CS2*
X162814000Y-102362000D03*
X155575000Y-115443000D03*
X163830000Y-100080299D03*
X160528000Y-92075000D03*
X163322000Y-112776000D03*
X162301701Y-98420701D03*
G04 #@! TD*
D45*
G04 #@! TO.N,+3.3V*
X159045972Y-96377528D02*
X160808500Y-94615000D01*
X151487500Y-144399000D02*
X151487500Y-144502500D01*
X154737222Y-97638278D02*
X152836422Y-97638278D01*
X164719000Y-86968500D02*
X165634500Y-87884000D01*
X167146500Y-89154000D02*
X166089500Y-89154000D01*
X162083000Y-93371500D02*
X161536500Y-92825000D01*
X165634500Y-88699000D02*
X166089500Y-89154000D01*
X163719000Y-86097000D02*
X163719000Y-86074000D01*
D46*
X159382500Y-136908500D02*
X158115000Y-138176000D01*
D45*
X159766000Y-123671500D02*
X159739500Y-123698000D01*
X152836422Y-97638278D02*
X151856181Y-98618519D01*
X147975503Y-113838305D02*
X148182500Y-114045302D01*
X159789500Y-123748000D02*
X159739500Y-123698000D01*
X151892000Y-117094000D02*
X151892000Y-115974500D01*
X159004000Y-108488700D02*
X159004000Y-110643500D01*
X147701000Y-113538000D02*
X147975503Y-113812503D01*
X159739500Y-123698000D02*
X159739500Y-125222000D01*
X151219500Y-93726000D02*
X151180000Y-93686500D01*
X147293500Y-95250000D02*
X146595500Y-95250000D01*
X143230880Y-108864120D02*
X144373880Y-110007120D01*
X154281500Y-125222000D02*
X153469000Y-126034500D01*
X148690500Y-96647000D02*
X147293500Y-95250000D01*
X148182500Y-114045302D02*
X148182500Y-115062000D01*
X151487500Y-144502500D02*
X152400000Y-145415000D01*
X151324800Y-117661200D02*
X151892000Y-117094000D01*
X165984701Y-95508299D02*
X163847902Y-93371500D01*
X145899500Y-94554000D02*
X145899500Y-93980000D01*
X146595500Y-95250000D02*
X145899500Y-94554000D01*
X143230880Y-108737120D02*
X143230880Y-108864120D01*
X165096063Y-91198700D02*
X165096063Y-90147437D01*
X153469000Y-126034500D02*
X153469000Y-127457500D01*
X165634500Y-87884000D02*
X165634500Y-88699000D01*
X148690500Y-96647000D02*
X148690500Y-98175200D01*
X159766000Y-111098500D02*
X159612500Y-111252000D01*
X147975503Y-113812503D02*
X147975503Y-113838305D01*
X163472500Y-128270000D02*
X164973000Y-128270000D01*
X163994000Y-81799000D02*
X163719000Y-82074000D01*
X148182500Y-115062000D02*
X146907500Y-113787000D01*
X138938000Y-95504000D02*
X138450000Y-95016000D01*
X155093500Y-97118257D02*
X155093500Y-97282000D01*
X137788500Y-94254000D02*
X138410000Y-94254000D01*
X163847902Y-93371500D02*
X162083000Y-93371500D01*
X164719000Y-86074000D02*
X164719000Y-86968500D01*
X165330500Y-123698000D02*
X163472500Y-123698000D01*
X153469000Y-127457500D02*
X154281500Y-128270000D01*
X144907000Y-110998000D02*
X144907000Y-110540240D01*
X159004000Y-110643500D02*
X159612500Y-111252000D01*
X163994000Y-79441500D02*
X163994000Y-81799000D01*
X153670000Y-115720500D02*
X150114000Y-115720500D01*
X155913500Y-96298257D02*
X155992771Y-96377528D01*
X147235567Y-112734829D02*
X148346471Y-112734829D01*
X139446000Y-73533000D02*
X138684000Y-74295000D01*
X155913500Y-96298257D02*
X155093500Y-97118257D01*
X164364500Y-76073000D02*
X164364500Y-75591500D01*
X140692500Y-136144000D02*
X139954000Y-135405500D01*
X148690500Y-98175200D02*
X149133819Y-98618519D01*
X144537625Y-107351287D02*
X143483500Y-108405412D01*
X164364500Y-75591500D02*
X163576000Y-74803000D01*
X144907000Y-110540240D02*
X144373880Y-110007120D01*
X157159481Y-106644181D02*
X159004000Y-108488700D01*
X140184500Y-73533000D02*
X139446000Y-73533000D01*
X167132000Y-91085500D02*
X165957674Y-91085500D01*
X162719000Y-86074000D02*
X162332500Y-86460500D01*
X155093500Y-97282000D02*
X154737222Y-97638278D01*
X154432000Y-116482500D02*
X153670000Y-115720500D01*
X146907500Y-113787000D02*
X146907500Y-113062896D01*
X163719000Y-86074000D02*
X162719000Y-86074000D01*
D46*
X160525250Y-137493000D02*
X161800750Y-137493000D01*
D45*
X165096063Y-90147437D02*
X165608000Y-89635500D01*
X159766000Y-109982000D02*
X159766000Y-111098500D01*
X162332500Y-86460500D02*
X161671000Y-86460500D01*
X167386000Y-85090000D02*
X167386000Y-83716500D01*
X159774000Y-93580500D02*
X159774000Y-93087500D01*
X163830000Y-122301000D02*
X163472500Y-122658500D01*
X137668000Y-94133500D02*
X137788500Y-94254000D01*
X155448000Y-130048000D02*
X154281500Y-128881500D01*
X151180000Y-93686500D02*
X151180000Y-92376000D01*
X163719000Y-86074000D02*
X164719000Y-86074000D01*
X148346471Y-112734829D02*
X149133819Y-111947481D01*
X165957674Y-91085500D02*
X165595300Y-91447874D01*
X154281500Y-128881500D02*
X154281500Y-128270000D01*
X161671000Y-86460500D02*
X159004000Y-86460500D01*
X159766000Y-122428000D02*
X159766000Y-123671500D01*
X146907500Y-113062896D02*
X147235567Y-112734829D01*
X166089500Y-89154000D02*
X165608000Y-89635500D01*
X164441500Y-78994000D02*
X164441500Y-76250000D01*
X163472500Y-122658500D02*
X163472500Y-123698000D01*
X157861000Y-82042000D02*
X156106500Y-82042000D01*
X160808500Y-94615000D02*
X159774000Y-93580500D01*
X138450000Y-95016000D02*
X138450000Y-94254000D01*
X155992771Y-96377528D02*
X159045972Y-96377528D01*
X141732000Y-104290500D02*
X141732000Y-106045000D01*
X167132000Y-91085500D02*
X167132000Y-89154000D01*
D46*
X159940750Y-136908500D02*
X160525250Y-137493000D01*
D45*
X141097000Y-136144000D02*
X140692500Y-136144000D01*
X164441500Y-78994000D02*
X163994000Y-79441500D01*
D46*
X159940750Y-136908500D02*
X159382500Y-136908500D01*
D45*
X138450000Y-94254000D02*
X139555000Y-94254000D01*
G04 #@! TO.N,GND*
X159803500Y-96930542D02*
X159990458Y-96930542D01*
X144552500Y-115062000D02*
X144526000Y-115035500D01*
X158242000Y-108433806D02*
X158242000Y-110897500D01*
X156845000Y-129667000D02*
X156220504Y-129667000D01*
X167031500Y-92710000D02*
X167132000Y-92810500D01*
X142011120Y-109956880D02*
X142011120Y-108825508D01*
X158014500Y-123698000D02*
X158014500Y-125222000D01*
X137922000Y-97028000D02*
X138176000Y-97028000D01*
X155094000Y-127508500D02*
X154331500Y-126746000D01*
X156805928Y-106997734D02*
X158242000Y-108433806D01*
X159803500Y-96930542D02*
X159452042Y-97282000D01*
X143891000Y-111963760D02*
X143154120Y-111226880D01*
X165595300Y-91948000D02*
X165595300Y-92448126D01*
X151525000Y-142748000D02*
X149382000Y-142748000D01*
X164519000Y-83327248D02*
X164519000Y-84149000D01*
X166769626Y-92448126D02*
X167132000Y-92810500D01*
X162301500Y-94615000D02*
X160774000Y-93087500D01*
D46*
X159454000Y-67051000D02*
X160454000Y-67051000D01*
D45*
X164519000Y-84149000D02*
X164194000Y-84474000D01*
X143042078Y-107794550D02*
X143387256Y-107794550D01*
D46*
X146536000Y-76051000D02*
X146558000Y-76073000D01*
D45*
X147193000Y-81963000D02*
X146780000Y-82376000D01*
X165595300Y-92448126D02*
X166769626Y-92448126D01*
X143387256Y-107794550D02*
X144184072Y-106997734D01*
X144454000Y-68551000D02*
X143893500Y-68551000D01*
X157099000Y-84963000D02*
X158776500Y-84963000D01*
X140986000Y-131090000D02*
X140836000Y-130940000D01*
X139954000Y-138961500D02*
X138326500Y-138961500D01*
X137668000Y-95858500D02*
X137668000Y-96520000D01*
X143655000Y-96754000D02*
X139555000Y-96754000D01*
X140486000Y-131990000D02*
X140986000Y-131990000D01*
X159990458Y-96930542D02*
X162306000Y-94615000D01*
X145854497Y-113707003D02*
X144526000Y-115035500D01*
D46*
X147039500Y-127989500D02*
X148590000Y-129540000D01*
D45*
X141486000Y-127890000D02*
X141736000Y-128140000D01*
X159739500Y-129386500D02*
X159893000Y-129540000D01*
X147193000Y-79883000D02*
X147193000Y-81963000D01*
X137668000Y-96520000D02*
X137922000Y-96774000D01*
X164065752Y-82874000D02*
X164519000Y-83327248D01*
X160274000Y-93087500D02*
X160774000Y-93087500D01*
X148089365Y-112284829D02*
X147049171Y-112284829D01*
X158776500Y-84963000D02*
X159004000Y-84735500D01*
X145244732Y-102507606D02*
X146362000Y-103624874D01*
D46*
X147039500Y-131064000D02*
X147066000Y-131064000D01*
D45*
X164096700Y-91447874D02*
X164096700Y-90055700D01*
X146457500Y-115062000D02*
X144552500Y-115062000D01*
X146362000Y-103624874D02*
X146362000Y-104819806D01*
D46*
X142367000Y-75057000D02*
X143361000Y-76051000D01*
D45*
X154331500Y-123597500D02*
X154331500Y-123698000D01*
X159452042Y-97282000D02*
X156818500Y-97282000D01*
X158014500Y-122581500D02*
X157861000Y-122428000D01*
X146838500Y-97917000D02*
X146965500Y-97790000D01*
X143282500Y-99086500D02*
X143383000Y-99086500D01*
X164465000Y-96493500D02*
X162586500Y-94615000D01*
X143655000Y-97137000D02*
X143655000Y-96754000D01*
X153312500Y-134112000D02*
X153782000Y-134112000D01*
D46*
X147536000Y-121486000D02*
X148590000Y-122540000D01*
X144454000Y-76051000D02*
X146536000Y-76051000D01*
D45*
X154192000Y-91045000D02*
X153543000Y-91045000D01*
X156220504Y-129667000D02*
X155094000Y-128540496D01*
X152209734Y-98972072D02*
X153093528Y-98088278D01*
X153093528Y-98088278D02*
X156012222Y-98088278D01*
X159739500Y-126746000D02*
X159739500Y-129386500D01*
D46*
X147039500Y-127889000D02*
X147039500Y-127989500D01*
D45*
X158242000Y-110897500D02*
X157887500Y-111252000D01*
X154331500Y-126796000D02*
X154281500Y-126746000D01*
X142494000Y-98298000D02*
X143655000Y-97137000D01*
X147049171Y-112284829D02*
X146457500Y-112876500D01*
X159104500Y-84836000D02*
X161570500Y-84836000D01*
X148780266Y-111593928D02*
X148089365Y-112284829D01*
X167031500Y-92556500D02*
X167031500Y-92710000D01*
D46*
X146050000Y-123597500D02*
X147532500Y-123597500D01*
D45*
X163719000Y-82874000D02*
X165719000Y-82874000D01*
X146965500Y-97790000D02*
X146965500Y-96647000D01*
X167513000Y-74676000D02*
X166243000Y-75946000D01*
D46*
X141959500Y-70370288D02*
X143778788Y-68551000D01*
D45*
X161476201Y-99246201D02*
X160773402Y-99949000D01*
X167359500Y-87884000D02*
X167359500Y-86767500D01*
X163719000Y-84474000D02*
X163719000Y-85274000D01*
D46*
X146050000Y-135482500D02*
X147532500Y-135482500D01*
D45*
X141732000Y-99086500D02*
X143383000Y-99086500D01*
X162306000Y-94615000D02*
X162533500Y-94615000D01*
X162586500Y-94615000D02*
X162533500Y-94615000D01*
X161570500Y-84836000D02*
X161671000Y-84735500D01*
D46*
X143361000Y-76051000D02*
X144454000Y-76051000D01*
D45*
X163719000Y-84474000D02*
X161932500Y-84474000D01*
X142011120Y-110083880D02*
X143154120Y-111226880D01*
X146362000Y-104819806D02*
X144184072Y-106997734D01*
X165380500Y-125222000D02*
X163422500Y-125222000D01*
X167267681Y-93844319D02*
X167132000Y-93708638D01*
X163719000Y-82874000D02*
X164065752Y-82874000D01*
X167359500Y-86767500D02*
X167386000Y-86741000D01*
X159607500Y-83566000D02*
X159004000Y-84169500D01*
D46*
X143778788Y-68551000D02*
X144454000Y-68551000D01*
D45*
X153782000Y-134112000D02*
X156210000Y-136540000D01*
D46*
X158623000Y-67056000D02*
X159449000Y-67056000D01*
D45*
X161932500Y-84474000D02*
X161671000Y-84735500D01*
X159004000Y-84169500D02*
X159004000Y-84735500D01*
X146457500Y-112876500D02*
X146457500Y-115062000D01*
X157480000Y-112395000D02*
X157480000Y-111659500D01*
X138326500Y-138961500D02*
X138303000Y-138938000D01*
D46*
X141959500Y-70485000D02*
X141959500Y-70370288D01*
D45*
X145854497Y-113157000D02*
X145854497Y-113707003D01*
X149382000Y-142748000D02*
X148590000Y-143540000D01*
D46*
X159449000Y-67056000D02*
X159454000Y-67051000D01*
X146050000Y-121486000D02*
X147536000Y-121486000D01*
D45*
X156012222Y-98088278D02*
X156818500Y-97282000D01*
X164096700Y-90055700D02*
X163449000Y-89408000D01*
X153162000Y-122428000D02*
X154331500Y-123597500D01*
X155094000Y-128540496D02*
X155094000Y-127508500D01*
D46*
X147532500Y-135482500D02*
X148590000Y-136540000D01*
D45*
X167513000Y-73406000D02*
X167005000Y-72898000D01*
X140986000Y-131990000D02*
X140986000Y-131090000D01*
X154813000Y-90424000D02*
X154192000Y-91045000D01*
X167513000Y-74676000D02*
X167513000Y-73406000D01*
D46*
X141959500Y-70485000D02*
X141959500Y-72009000D01*
X147562500Y-137567500D02*
X148590000Y-136540000D01*
D45*
X146529000Y-68551000D02*
X146558000Y-68580000D01*
X157480000Y-111659500D02*
X157887500Y-111252000D01*
X167132000Y-93708638D02*
X167132000Y-92810500D01*
X153787500Y-91289500D02*
X153543000Y-91045000D01*
X141486000Y-127090000D02*
X141486000Y-127890000D01*
X160773402Y-99949000D02*
X160043500Y-99949000D01*
X143891000Y-112141000D02*
X143891000Y-111963760D01*
D46*
X144454000Y-68551000D02*
X146529000Y-68551000D01*
D45*
X142011120Y-108825508D02*
X143042078Y-107794550D01*
X138176000Y-97028000D02*
X138450000Y-96754000D01*
X164194000Y-84474000D02*
X163719000Y-84474000D01*
D46*
X147066000Y-131064000D02*
X148590000Y-129540000D01*
D45*
X162533500Y-94615000D02*
X162301500Y-94615000D01*
X163422500Y-125222000D02*
X163422500Y-126746000D01*
X142011120Y-109956880D02*
X142011120Y-110083880D01*
X138450000Y-96754000D02*
X139555000Y-96754000D01*
X147092500Y-96818404D02*
X147092500Y-96774000D01*
X163422500Y-126746000D02*
X165100000Y-126746000D01*
X137922000Y-96774000D02*
X137922000Y-97028000D01*
X158014500Y-123698000D02*
X158014500Y-122581500D01*
D46*
X146050000Y-137567500D02*
X147562500Y-137567500D01*
D45*
X147092500Y-96774000D02*
X146965500Y-96647000D01*
D46*
X141972000Y-75057000D02*
X142367000Y-75057000D01*
D45*
X159004000Y-84735500D02*
X159104500Y-84836000D01*
X142494000Y-98298000D02*
X143282500Y-99086500D01*
D46*
X158623000Y-77551000D02*
X160454000Y-77551000D01*
X147532500Y-123597500D02*
X148590000Y-122540000D01*
D45*
G04 #@! TO.N,/Microcontroller/NRST*
X155956000Y-118745000D02*
X157353000Y-117348000D01*
X144521557Y-105537000D02*
X143891000Y-105537000D01*
X147130551Y-103188551D02*
X147606954Y-102712148D01*
X164084000Y-113284000D02*
X163576000Y-113792000D01*
X145381202Y-104677355D02*
X144521557Y-105537000D01*
X159766000Y-115570000D02*
X159766000Y-114808000D01*
X147606954Y-102712148D02*
X147606954Y-101334294D01*
X157988000Y-117348000D02*
X159766000Y-115570000D01*
X143510000Y-105918000D02*
X143002000Y-105918000D01*
X147606954Y-101334294D02*
X147012499Y-100739839D01*
X164084000Y-102108000D02*
X164084000Y-113284000D01*
X143891000Y-105537000D02*
X143510000Y-105918000D01*
X157353000Y-117348000D02*
X157988000Y-117348000D01*
X151384000Y-118745000D02*
X155956000Y-118745000D01*
X143002000Y-116083500D02*
X143002000Y-113538500D01*
X143256000Y-116337500D02*
X143002000Y-116083500D01*
G04 #@! TO.N,Net-(U2-VCAP1)*
X148426713Y-111240375D02*
X147832259Y-111834829D01*
X144626500Y-113310500D02*
X144526000Y-113310500D01*
X144526000Y-113310500D02*
X144780000Y-113564500D01*
X147832259Y-111834829D02*
X146102171Y-111834829D01*
X146102171Y-111834829D02*
X144626500Y-113310500D01*
X144780000Y-113564500D02*
X144780000Y-113702504D01*
G04 #@! TO.N,Net-(U2-VDDA)*
X144891179Y-102861159D02*
X143383000Y-101352980D01*
X143383000Y-100811500D02*
X141732000Y-100811500D01*
X141732000Y-102465500D02*
X141732000Y-100811500D01*
X143383000Y-101352980D02*
X143383000Y-100811500D01*
D46*
G04 #@! TO.N,/VBAT*
X158247500Y-135077500D02*
X156210000Y-133040000D01*
X161800750Y-134493000D02*
X160525250Y-134493000D01*
X160525250Y-134493000D02*
X159940750Y-135077500D01*
X159940750Y-135077500D02*
X158247500Y-135077500D01*
D45*
X153312500Y-132461000D02*
X155631000Y-132461000D01*
X155631000Y-132461000D02*
X156210000Y-133040000D01*
D46*
X161745250Y-134437500D02*
X161800750Y-134493000D01*
D45*
G04 #@! TO.N,Net-(U5-TX)*
X144408000Y-77597000D02*
X142517500Y-77597000D01*
X144454000Y-77551000D02*
X144408000Y-77597000D01*
X142009500Y-76581000D02*
X142009500Y-78105000D01*
X142517500Y-77597000D02*
X142009500Y-78105000D01*
G04 #@! TO.N,Net-(U5-RX)*
X144454000Y-79051000D02*
X142587500Y-79051000D01*
X142587500Y-79051000D02*
X142009500Y-79629000D01*
G04 #@! TO.N,/MicroSD/SDIO_CLK*
X160495827Y-104869827D02*
X156551853Y-104869827D01*
X155150813Y-103102061D02*
X155745268Y-102507606D01*
X160782000Y-105156000D02*
X160495827Y-104869827D01*
X158972000Y-117380000D02*
X160782000Y-115570000D01*
X158972000Y-117602000D02*
X158972000Y-117380000D01*
X158877000Y-125883500D02*
X158877000Y-121793000D01*
X156551853Y-104869827D02*
X155150813Y-103468787D01*
X155150813Y-103468787D02*
X155150813Y-103102061D01*
X158014500Y-126746000D02*
X158877000Y-125883500D01*
X160020000Y-118650000D02*
X158972000Y-117602000D01*
X160020000Y-118999000D02*
X160020000Y-118650000D01*
X160782000Y-115570000D02*
X160782000Y-105156000D01*
G04 #@! TO.N,/MicroSD/SDIO_CMD*
X163830000Y-117475000D02*
X163830000Y-116840000D01*
X156199766Y-101346000D02*
X155391714Y-102154052D01*
X159893000Y-101346000D02*
X156199766Y-101346000D01*
X162560000Y-104013000D02*
X159893000Y-101346000D01*
X161647500Y-126796000D02*
X161697500Y-126746000D01*
X163830000Y-116840000D02*
X162560000Y-115570000D01*
X161647500Y-128270000D02*
X161647500Y-126796000D01*
X160835000Y-125883500D02*
X161697500Y-126746000D01*
X162560000Y-115570000D02*
X162560000Y-104013000D01*
X160835000Y-121994000D02*
X160835000Y-125883500D01*
X160909000Y-121920000D02*
X160835000Y-121994000D01*
G04 #@! TO.N,/MicroSD/SDIO_D3*
X161798000Y-103887396D02*
X159706604Y-101796000D01*
X159706604Y-101796000D02*
X157163980Y-101796000D01*
X161798000Y-116586305D02*
X161798000Y-103887396D01*
X161697500Y-123748000D02*
X161647500Y-123698000D01*
X162178695Y-116967000D02*
X161798000Y-116586305D01*
X157163980Y-101796000D02*
X156098821Y-102861159D01*
X162306000Y-121920000D02*
X161647500Y-122578500D01*
X161697500Y-125222000D02*
X161697500Y-123748000D01*
X162272000Y-116967000D02*
X162178695Y-116967000D01*
X161647500Y-122578500D02*
X161647500Y-123698000D01*
G04 #@! TO.N,/MicroSD/SDIO_D2*
X165354000Y-121793000D02*
X165330500Y-121816500D01*
X167105500Y-125222000D02*
X167105500Y-123748000D01*
X163195000Y-118999000D02*
X161290000Y-117094000D01*
X161290000Y-117094000D02*
X161290000Y-104140000D01*
X161290000Y-104140000D02*
X159396000Y-102246000D01*
X157421088Y-102246000D02*
X156452375Y-103214713D01*
X167105500Y-123748000D02*
X167155500Y-123698000D01*
X165354000Y-121793000D02*
X167155500Y-123594500D01*
X167155500Y-123594500D02*
X167155500Y-123698000D01*
X163372000Y-118999000D02*
X163195000Y-118999000D01*
X159396000Y-102246000D02*
X157421088Y-102246000D01*
X167132000Y-123698000D02*
X167155500Y-123698000D01*
G04 #@! TO.N,/MicroSD/SDIO_D1*
X156056500Y-128220000D02*
X156106500Y-128270000D01*
X156056500Y-126746000D02*
X156056500Y-128220000D01*
X157188500Y-115316000D02*
X157109701Y-115316000D01*
X156056500Y-126746000D02*
X155194000Y-125883500D01*
X155194000Y-125883500D02*
X155194000Y-122682000D01*
X157109701Y-115316000D02*
X156591000Y-114797299D01*
X156591000Y-111732554D02*
X154331054Y-109472608D01*
X155194000Y-122682000D02*
X155448000Y-122428000D01*
X156591000Y-114797299D02*
X156591000Y-111732554D01*
G04 #@! TO.N,/MicroSD/SDIO_D0*
X156718000Y-123036500D02*
X156056500Y-123698000D01*
X156083000Y-114925695D02*
X156083000Y-111931660D01*
X156772000Y-116023488D02*
X156464000Y-115715488D01*
X156106500Y-125272000D02*
X156056500Y-125222000D01*
X156772000Y-116427811D02*
X156772000Y-116023488D01*
X156464000Y-115715488D02*
X156464000Y-115306695D01*
X157480000Y-120142000D02*
X157480000Y-121031000D01*
X156718000Y-121793000D02*
X156718000Y-123036500D01*
X156464000Y-115306695D02*
X156083000Y-114925695D01*
X156056500Y-123698000D02*
X156056500Y-125172000D01*
X156083000Y-111931660D02*
X153977501Y-109826161D01*
X157480000Y-121031000D02*
X156718000Y-121793000D01*
D46*
G04 #@! TO.N,/VPYRO*
X144399000Y-137517500D02*
X144399000Y-136525000D01*
X144399000Y-122555000D02*
X144399000Y-121536000D01*
X144399000Y-136525000D02*
X144399000Y-135532500D01*
X144399000Y-123547500D02*
X144399000Y-122555000D01*
D45*
G04 #@! TO.N,Net-(D1-A)*
X140222000Y-76543500D02*
X140184500Y-76581000D01*
X140222000Y-75057000D02*
X140222000Y-76543500D01*
G04 #@! TO.N,Net-(D2-A)*
X153312500Y-144399000D02*
X153312500Y-142785500D01*
X153312500Y-142785500D02*
X153275000Y-142748000D01*
G04 #@! TO.N,Net-(D3-A)*
X156083000Y-89130500D02*
X155918500Y-89295000D01*
X155918500Y-89295000D02*
X153543000Y-89295000D01*
G04 #@! TO.N,/Microcontroller/UART_TX*
X138811000Y-105537000D02*
X141070000Y-103278000D01*
X141070000Y-103278000D02*
X143186700Y-103278000D01*
X143186700Y-103278000D02*
X143830519Y-103921819D01*
G04 #@! TO.N,/Microcontroller/UART_RX*
X143704700Y-106770000D02*
X140118000Y-106770000D01*
X143830519Y-106644181D02*
X143704700Y-106770000D01*
X140118000Y-106770000D02*
X138811000Y-108077000D01*
G04 #@! TO.N,/Microcontroller/SWCLK*
X160142701Y-104017299D02*
X160047221Y-103921819D01*
X160047221Y-103921819D02*
X157159481Y-103921819D01*
G04 #@! TO.N,/Microcontroller/SWDIO*
X157046829Y-107945741D02*
X156452375Y-107351287D01*
X157009500Y-109982000D02*
X157046829Y-109944671D01*
X157046829Y-109944671D02*
X157046829Y-107945741D01*
G04 #@! TO.N,/Microcontroller/SWO*
X164719000Y-100838000D02*
X156000660Y-100838000D01*
X156000660Y-100838000D02*
X155038161Y-101800499D01*
X166243000Y-99314000D02*
X164719000Y-100838000D01*
G04 #@! TO.N,/Microcontroller/VBAT_ADC*
X143557912Y-102235000D02*
X142875000Y-102235000D01*
X149225000Y-116713000D02*
X150622000Y-118110000D01*
X144537625Y-103214713D02*
X143557912Y-102235000D01*
X150622000Y-131595500D02*
X151487500Y-132461000D01*
X151487500Y-134112000D02*
X151487500Y-132461000D01*
X149225000Y-114062497D02*
X149225000Y-116713000D01*
X148700503Y-113538000D02*
X149225000Y-114062497D01*
X150622000Y-118110000D02*
X150622000Y-131595500D01*
G04 #@! TO.N,Net-(U2-BOOT0)*
X158218500Y-99949000D02*
X155297500Y-99949000D01*
X154786778Y-99438278D02*
X153864848Y-99438278D01*
X155297500Y-99949000D02*
X154786778Y-99438278D01*
X153864848Y-99438278D02*
X153270394Y-100032732D01*
G04 #@! TO.N,/Accelerometer/SCL*
X153607742Y-98988278D02*
X152916841Y-99679179D01*
X163195000Y-97504030D02*
X162193067Y-97504030D01*
X162193067Y-97504030D02*
X160708819Y-98988278D01*
X160708819Y-98988278D02*
X153607742Y-98988278D01*
X164719000Y-80541500D02*
X164719000Y-82074000D01*
X166266500Y-78994000D02*
X164719000Y-80541500D01*
G04 #@! TO.N,/Accelerometer/SDA*
X153350634Y-98538278D02*
X152563287Y-99325625D01*
X165806600Y-80591300D02*
X167106800Y-81891500D01*
X167106800Y-81891500D02*
X167386000Y-81891500D01*
X162402791Y-96677209D02*
X162025668Y-97054332D01*
X162025668Y-97054332D02*
X161390668Y-97054332D01*
X159906722Y-98538278D02*
X153350634Y-98538278D01*
X162402791Y-96550287D02*
X162402791Y-96677209D01*
X165806600Y-80591300D02*
X165806600Y-81986400D01*
X165806600Y-81986400D02*
X165719000Y-82074000D01*
X161390668Y-97054332D02*
X159906722Y-98538278D01*
G04 #@! TO.N,/GPS/TXD*
X150876000Y-99695000D02*
X151453000Y-100272000D01*
X157620500Y-93889723D02*
X155969223Y-95541000D01*
X152614670Y-97188278D02*
X150876000Y-98926948D01*
X154700812Y-107721046D02*
X155391714Y-108411948D01*
X151453000Y-105096604D02*
X154077442Y-107721046D01*
X155969223Y-95541000D02*
X155501504Y-95541000D01*
X157620500Y-87997500D02*
X157620500Y-93889723D01*
X150876000Y-98926948D02*
X150876000Y-99695000D01*
X155501504Y-95541000D02*
X153854226Y-97188278D01*
X151453000Y-100272000D02*
X151453000Y-105096604D01*
X140997000Y-80313071D02*
X140997000Y-78917500D01*
X141351000Y-80667071D02*
X140997000Y-80313071D01*
X153854226Y-97188278D02*
X152614670Y-97188278D01*
X140997000Y-78917500D02*
X140184500Y-78105000D01*
X154077442Y-107721046D02*
X154700812Y-107721046D01*
X157988000Y-87630000D02*
X157620500Y-87997500D01*
G04 #@! TO.N,/GPS/RXD*
X155226000Y-95091000D02*
X153670000Y-96647000D01*
X157734000Y-86487000D02*
X157099000Y-87122000D01*
X157099000Y-87122000D02*
X157099000Y-93774827D01*
X155782827Y-95091000D02*
X155226000Y-95091000D01*
X150426000Y-98740552D02*
X150426000Y-100007000D01*
X151003000Y-105283000D02*
X153891046Y-108171046D01*
X152519552Y-96647000D02*
X150426000Y-98740552D01*
X154443706Y-108171046D02*
X155038161Y-108765501D01*
X151003000Y-100584000D02*
X151003000Y-105283000D01*
X153891046Y-108171046D02*
X154443706Y-108171046D01*
X150426000Y-100007000D02*
X151003000Y-100584000D01*
X140208000Y-81026000D02*
X140184500Y-81002500D01*
X153670000Y-96647000D02*
X152519552Y-96647000D01*
X140184500Y-81002500D02*
X140184500Y-79629000D01*
X157099000Y-93774827D02*
X155782827Y-95091000D01*
G04 #@! TO.N,/Current Switch/EN1*
X141224000Y-118364000D02*
X141224000Y-123420500D01*
X142240000Y-117348000D02*
X141224000Y-118364000D01*
X146304000Y-99314000D02*
X146304000Y-99892702D01*
X145071500Y-98081500D02*
X146304000Y-99314000D01*
X141224000Y-123420500D02*
X140970000Y-123674500D01*
X146304000Y-99892702D02*
X146064491Y-100132211D01*
X146064491Y-100132211D02*
X146064491Y-100498937D01*
X142240000Y-112141000D02*
X142240000Y-117348000D01*
X146064491Y-100498937D02*
X146658946Y-101093392D01*
X145071500Y-97746738D02*
X145071500Y-98081500D01*
X139700000Y-98044000D02*
X139700000Y-99695000D01*
G04 #@! TO.N,Net-(U8-EN1)*
X140986000Y-127090000D02*
X140986000Y-125515500D01*
X140986000Y-125515500D02*
X140970000Y-125499500D01*
G04 #@! TO.N,/Current Switch/EN2*
X145488256Y-100629810D02*
X146305392Y-101446946D01*
X139319000Y-123444000D02*
X139319000Y-123674500D01*
X140716000Y-122047000D02*
X140716000Y-108077000D01*
X145488256Y-99693059D02*
X145488256Y-100629810D01*
X140716000Y-122047000D02*
X139319000Y-123444000D01*
G04 #@! TO.N,Net-(U8-EN2)*
X140486000Y-127090000D02*
X140486000Y-126666500D01*
X140486000Y-126666500D02*
X139319000Y-125499500D01*
G04 #@! TO.N,/Current Switch/EN3*
X139992000Y-114338000D02*
X137414000Y-111760000D01*
X137414000Y-111760000D02*
X137414000Y-100330000D01*
X137414000Y-100330000D02*
X138049000Y-99695000D01*
X144633000Y-99080000D02*
X144633000Y-100481660D01*
X138938000Y-119991500D02*
X139992000Y-118937500D01*
X139992000Y-118937500D02*
X139992000Y-114338000D01*
X144633000Y-100481660D02*
X145951839Y-101800499D01*
G04 #@! TO.N,Net-(U8-EN3)*
X138519000Y-122235500D02*
X138938000Y-121816500D01*
X138519000Y-126523000D02*
X138519000Y-122235500D01*
X139786000Y-127790000D02*
X138519000Y-126523000D01*
G04 #@! TO.N,/Current Switch/EN4*
X143853496Y-99949000D02*
X144183000Y-100278504D01*
X137451000Y-113829000D02*
X137460305Y-113829000D01*
X138138500Y-100711000D02*
X140626504Y-100711000D01*
X140626504Y-100711000D02*
X141388504Y-99949000D01*
X141388504Y-99949000D02*
X143853496Y-99949000D01*
X144183000Y-101003000D02*
X144739597Y-101559597D01*
X137460305Y-113829000D02*
X137885000Y-114253695D01*
X139041500Y-116435500D02*
X139192000Y-116435500D01*
X137885000Y-115279000D02*
X139041500Y-116435500D01*
X144183000Y-100278504D02*
X144183000Y-101003000D01*
X137160000Y-112903000D02*
X137160000Y-113538000D01*
X145003831Y-101559597D02*
X145598286Y-102154052D01*
X137160000Y-113538000D02*
X137451000Y-113829000D01*
X144739597Y-101559597D02*
X145003831Y-101559597D01*
X137885000Y-114253695D02*
X137885000Y-115279000D01*
G04 #@! TO.N,Net-(U8-EN4)*
X139786000Y-128290000D02*
X139312992Y-128290000D01*
X138069000Y-119383500D02*
X139192000Y-118260500D01*
X138069000Y-127046008D02*
X138069000Y-119383500D01*
X139312992Y-128290000D02*
X138069000Y-127046008D01*
G04 #@! TO.N,Net-(U8-CL)*
X139312992Y-130790000D02*
X139786000Y-130790000D01*
X139954000Y-137136500D02*
X138811000Y-135993500D01*
X138811000Y-131291992D02*
X139312992Y-130790000D01*
X138811000Y-135993500D02*
X138811000Y-131291992D01*
G04 #@! TO.N,Net-(U8-DIAG_EN)*
X140429000Y-133580500D02*
X141486000Y-132523500D01*
X141486000Y-132523500D02*
X141486000Y-131990000D01*
X139954000Y-133580500D02*
X140429000Y-133580500D01*
G04 #@! TO.N,Net-(U9-ANT_SW)*
X146780000Y-93035500D02*
X147724500Y-93980000D01*
X146780000Y-92376000D02*
X146780000Y-93035500D01*
G04 #@! TO.N,/LoRa/LORA_BUSY*
X153536305Y-94557000D02*
X153097305Y-94996000D01*
X153097305Y-94996000D02*
X150659892Y-94996000D01*
X154735920Y-94557000D02*
X153536305Y-94557000D01*
X148980000Y-93316108D02*
X148980000Y-92376000D01*
X155067000Y-91971500D02*
X156083000Y-90955500D01*
X150659892Y-94996000D02*
X148980000Y-93316108D01*
X149483299Y-106049299D02*
X149483299Y-106648255D01*
X149483299Y-106648255D02*
X146658946Y-109472608D01*
X154745460Y-94547460D02*
X154735920Y-94557000D01*
X155067000Y-92762000D02*
X155067000Y-91971500D01*
X155650000Y-93345000D02*
X155067000Y-92762000D01*
G04 #@! TO.N,/Barometer/MISO*
X154813000Y-112269396D02*
X154378433Y-111834829D01*
X154813000Y-112993504D02*
X154813000Y-112269396D01*
X158795500Y-89833758D02*
X158795500Y-91109000D01*
X162306000Y-91426201D02*
X163327925Y-92448126D01*
X163327925Y-92448126D02*
X164096700Y-92448126D01*
X151499918Y-110001680D02*
X151499918Y-110177006D01*
X162306000Y-90744111D02*
X162306000Y-91426201D01*
X153657004Y-114149500D02*
X154813000Y-112993504D01*
X151499918Y-110177006D02*
X152563287Y-111240375D01*
X151892000Y-114149500D02*
X153657004Y-114149500D01*
X158795500Y-91109000D02*
X159011500Y-91325000D01*
X153157741Y-111834829D02*
X152563287Y-111240375D01*
X154378433Y-111834829D02*
X153157741Y-111834829D01*
X161186389Y-89624500D02*
X162306000Y-90744111D01*
G04 #@! TO.N,/LoRa/LORA_MISO*
X150495000Y-101830788D02*
X150495000Y-102743000D01*
X146385633Y-106852367D02*
X146385633Y-107624601D01*
X148980000Y-82376000D02*
X148980000Y-81271000D01*
X150183636Y-101519424D02*
X150495000Y-101830788D01*
X153025396Y-80253000D02*
X154178000Y-81405604D01*
X154305000Y-85217000D02*
X154281500Y-85193500D01*
X149998000Y-80253000D02*
X153025396Y-80253000D01*
X154281500Y-85193500D02*
X154281500Y-82042000D01*
X154178000Y-81405604D02*
X154178000Y-82272500D01*
X146385633Y-107624601D02*
X145598286Y-108411948D01*
X150495000Y-102743000D02*
X146385633Y-106852367D01*
X148980000Y-81271000D02*
X149998000Y-80253000D01*
G04 #@! TO.N,/Accelerometer/INT1*
X166416191Y-86074000D02*
X165719000Y-86074000D01*
X159249402Y-103124000D02*
X159099213Y-102973811D01*
X157400383Y-102973811D02*
X156805928Y-103568266D01*
X159099213Y-102973811D02*
X157400383Y-102973811D01*
X166457985Y-86115794D02*
X166416191Y-86074000D01*
G04 #@! TO.N,/LoRa/LORA_SCK*
X151180000Y-81357000D02*
X151384000Y-81153000D01*
X149479000Y-102975598D02*
X145935633Y-106518965D01*
X145935633Y-107367493D02*
X145244732Y-108058394D01*
X149479000Y-102616000D02*
X149479000Y-102975598D01*
X151384000Y-81153000D02*
X152527000Y-81153000D01*
X152908000Y-83312000D02*
X153035000Y-83439000D01*
X145935633Y-106518965D02*
X145935633Y-107367493D01*
X152527000Y-81153000D02*
X152908000Y-81534000D01*
X151180000Y-82376000D02*
X151180000Y-81357000D01*
X152908000Y-81534000D02*
X152908000Y-83312000D01*
G04 #@! TO.N,/LoRa/LORA_MOSI*
X152839000Y-80703000D02*
X150564000Y-80703000D01*
X150080000Y-81187000D02*
X150080000Y-82376000D01*
X154803695Y-86741000D02*
X153543000Y-85480305D01*
X153760000Y-83857000D02*
X153760000Y-83138695D01*
X153416000Y-82794695D02*
X153416000Y-81280000D01*
X153543000Y-85480305D02*
X153543000Y-84074000D01*
X153760000Y-83138695D02*
X153416000Y-82794695D01*
X150564000Y-80703000D02*
X150080000Y-81187000D01*
X153543000Y-84074000D02*
X153760000Y-83857000D01*
X147574000Y-107143340D02*
X145951839Y-108765501D01*
X147574000Y-106807000D02*
X147574000Y-107143340D01*
X154813000Y-86741000D02*
X154803695Y-86741000D01*
X153416000Y-81280000D02*
X152839000Y-80703000D01*
G04 #@! TO.N,/LoRa/LORA_NSS*
X147880000Y-81734604D02*
X147880000Y-82376000D01*
X155575000Y-83312000D02*
X155294000Y-83031000D01*
X148056954Y-103761248D02*
X145485633Y-106332569D01*
X149811604Y-79803000D02*
X147880000Y-81734604D01*
X149352000Y-100965000D02*
X149098000Y-100965000D01*
X145485633Y-107110387D02*
X144891179Y-107704841D01*
X149098000Y-100965000D02*
X148056954Y-102006046D01*
X155294000Y-83031000D02*
X155294000Y-81761000D01*
X155294000Y-81761000D02*
X153336000Y-79803000D01*
X153336000Y-79803000D02*
X149811604Y-79803000D01*
X145485633Y-106332569D02*
X145485633Y-107110387D01*
X148056954Y-102006046D02*
X148056954Y-103761248D01*
G04 #@! TO.N,/LoRa/LORA_RST*
X146305392Y-109100913D02*
X146305392Y-109119054D01*
X147880000Y-92852504D02*
X147880000Y-92376000D01*
X148467299Y-106939006D02*
X146305392Y-109100913D01*
X150781197Y-95753701D02*
X147880000Y-92852504D01*
X148467299Y-106176299D02*
X148467299Y-106939006D01*
X153538701Y-95753701D02*
X150781197Y-95753701D01*
G04 #@! TO.N,/LoRa/LORA_DIO1*
X150956195Y-94488000D02*
X150080000Y-93611805D01*
X149904660Y-106934000D02*
X147012499Y-109826161D01*
X150334533Y-106934000D02*
X149904660Y-106934000D01*
X156374500Y-92456000D02*
X156374500Y-93645805D01*
X153358116Y-93726000D02*
X152596116Y-94488000D01*
X155349695Y-94070000D02*
X155005695Y-93726000D01*
X156374500Y-93645805D02*
X155950305Y-94070000D01*
X150080000Y-93611805D02*
X150080000Y-92376000D01*
X152596116Y-94488000D02*
X150956195Y-94488000D01*
X155005695Y-93726000D02*
X153358116Y-93726000D01*
X155950305Y-94070000D02*
X155349695Y-94070000D01*
G04 #@! TO.N,/IMU/INT1*
X159119104Y-95668000D02*
X159766000Y-95021104D01*
X156882500Y-95653028D02*
X156897472Y-95668000D01*
X150779732Y-108234732D02*
X150749000Y-108265464D01*
X159766000Y-95021104D02*
X159766000Y-94208896D01*
X148397874Y-109855000D02*
X147719606Y-110533268D01*
X156897472Y-95668000D02*
X159119104Y-95668000D01*
X149500420Y-109855000D02*
X148397874Y-109855000D01*
X159070000Y-92883500D02*
X159011500Y-92825000D01*
X150749000Y-109601000D02*
X150308725Y-110041275D01*
X159766000Y-94208896D02*
X159070000Y-93512896D01*
X150749000Y-108265464D02*
X150749000Y-109601000D01*
X150308725Y-110041275D02*
X149686695Y-110041275D01*
X149686695Y-110041275D02*
X149500420Y-109855000D01*
X159070000Y-93512896D02*
X159070000Y-92883500D01*
G04 #@! TO.N,/Barometer/INT*
X148229491Y-109316275D02*
X147366052Y-110179714D01*
X149987000Y-109316275D02*
X148229491Y-109316275D01*
X167005000Y-108204000D02*
X165608000Y-108204000D01*
X167640000Y-107569000D02*
X167005000Y-108204000D01*
X152759489Y-112895489D02*
X150487489Y-112895489D01*
X165096063Y-92697300D02*
X167640000Y-95241237D01*
X167640000Y-95241237D02*
X167640000Y-107569000D01*
X150487489Y-112895489D02*
X150241000Y-112649000D01*
X153289000Y-113425000D02*
X152759489Y-112895489D01*
X165608000Y-108204000D02*
X164846000Y-108966000D01*
G04 #@! TO.N,/Microcontroller/TCXO_OUT*
X143784000Y-94254000D02*
X146077701Y-96547701D01*
X146077701Y-98390827D02*
X147719606Y-100032732D01*
X143655000Y-94254000D02*
X143655000Y-94535126D01*
X146077701Y-96547701D02*
X146077701Y-98390827D01*
X143655000Y-94254000D02*
X143784000Y-94254000D01*
G04 #@! TO.N,/Current Switch/~{ST2}*
X152527000Y-102190340D02*
X153977501Y-100739839D01*
X137169000Y-114563000D02*
X137169000Y-127418800D01*
X137160000Y-114554000D02*
X137169000Y-114563000D01*
X152527000Y-104522396D02*
X152527000Y-102190340D01*
X137169000Y-127418800D02*
X139040200Y-129290000D01*
X153865348Y-105860744D02*
X152527000Y-104522396D01*
X139040200Y-129290000D02*
X139786000Y-129290000D01*
X154128639Y-105860744D02*
X153865348Y-105860744D01*
G04 #@! TO.N,/Current Switch/~{ST3}*
X158278827Y-105319827D02*
X154722827Y-105319827D01*
X153035000Y-104013000D02*
X153035000Y-102389446D01*
X153035000Y-102389446D02*
X154331054Y-101093392D01*
X154722827Y-105319827D02*
X154538744Y-105135744D01*
X138285474Y-129565500D02*
X138509974Y-129790000D01*
X158682899Y-105723899D02*
X158278827Y-105319827D01*
X154538744Y-105135744D02*
X154157744Y-105135744D01*
X138509974Y-129790000D02*
X139786000Y-129790000D01*
X154157744Y-105135744D02*
X153035000Y-104013000D01*
G04 #@! TO.N,/Current Switch/~{ST4}*
X137287000Y-129592331D02*
X137984669Y-130290000D01*
X137984669Y-130290000D02*
X139786000Y-130290000D01*
X154683701Y-104411875D02*
X154090153Y-103818327D01*
X137287000Y-128905000D02*
X137287000Y-129592331D01*
X154090153Y-102041401D02*
X154684608Y-101446946D01*
X154090153Y-103818327D02*
X154090153Y-102041401D01*
G04 #@! TO.N,/Barometer/MOSI*
X151892000Y-107315000D02*
X152146000Y-107569000D01*
X162052000Y-88862037D02*
X162052000Y-89408000D01*
X163870506Y-91948000D02*
X164096700Y-91948000D01*
X152146000Y-109622457D02*
X152322386Y-109798843D01*
X152322386Y-110292366D02*
X152916841Y-110886821D01*
X152322386Y-109798843D02*
X152322386Y-110292366D01*
X159357142Y-88862500D02*
X159774000Y-89279358D01*
X162814000Y-90891494D02*
X163870506Y-91948000D01*
X162814000Y-90170000D02*
X162814000Y-90891494D01*
X159774000Y-89279358D02*
X159774000Y-91062500D01*
X162052000Y-89408000D02*
X162814000Y-90170000D01*
X152146000Y-107569000D02*
X152146000Y-109622457D01*
G04 #@! TO.N,/Barometer/SCK*
X158620000Y-93699292D02*
X158620000Y-93469000D01*
X160274000Y-88900000D02*
X161036000Y-88138000D01*
X159041500Y-94615000D02*
X159041500Y-94120792D01*
X158620000Y-93469000D02*
X158070500Y-92919500D01*
X158070500Y-88944500D02*
X159131000Y-87884000D01*
X159041500Y-94120792D02*
X158620000Y-93699292D01*
X160782000Y-87884000D02*
X161036000Y-88138000D01*
X153029493Y-109585259D02*
X153623948Y-110179714D01*
X158070500Y-92919500D02*
X158070500Y-88944500D01*
X161290000Y-87884000D02*
X163068000Y-87884000D01*
X160274000Y-91062500D02*
X160274000Y-88900000D01*
X152997500Y-108765768D02*
X153029493Y-108797761D01*
X163068000Y-87884000D02*
X164595937Y-89411937D01*
X161036000Y-88138000D02*
X161290000Y-87884000D01*
X153029493Y-108797761D02*
X153029493Y-109585259D01*
X159131000Y-87884000D02*
X160782000Y-87884000D01*
X164595937Y-89411937D02*
X164595937Y-91198700D01*
G04 #@! TO.N,/Current Switch/~{ST1}*
X152019000Y-105026208D02*
X152019000Y-101991234D01*
X137619000Y-116606500D02*
X137619000Y-127232404D01*
X154967639Y-106842755D02*
X153835547Y-106842755D01*
X152019000Y-101991234D02*
X153623948Y-100386286D01*
X153835547Y-106842755D02*
X152019000Y-105026208D01*
X139176596Y-128790000D02*
X139786000Y-128790000D01*
X137893500Y-116332000D02*
X137619000Y-116606500D01*
X137619000Y-127232404D02*
X139176596Y-128790000D01*
G04 #@! TO.N,Net-(U5-VCC)*
X140234500Y-72009000D02*
X140485500Y-72009000D01*
X140485500Y-72009000D02*
X142009500Y-73533000D01*
D46*
X144454000Y-65551000D02*
X143454000Y-65551000D01*
X142875000Y-67437000D02*
X142875000Y-67844500D01*
D45*
X140234500Y-70485000D02*
X140335000Y-70485000D01*
D46*
X142875000Y-67844500D02*
X140234500Y-70485000D01*
X142873000Y-67435000D02*
X142875000Y-67437000D01*
X143454000Y-65551000D02*
X142873000Y-66132000D01*
X140234500Y-70485000D02*
X140234500Y-72009000D01*
X142873000Y-66132000D02*
X142873000Y-67435000D01*
D45*
G04 #@! TO.N,/CS1*
X151486806Y-110871000D02*
X152209734Y-111593928D01*
X167190000Y-95689000D02*
X164595937Y-93094937D01*
X153924000Y-112559329D02*
X153175135Y-112559329D01*
X164595937Y-93094937D02*
X164595937Y-92697300D01*
X150882052Y-110871000D02*
X151486806Y-110871000D01*
X150114000Y-113895500D02*
X149479000Y-113260500D01*
X153175135Y-112559329D02*
X152209734Y-111593928D01*
X166447951Y-96433451D02*
X167190000Y-95691402D01*
X149479000Y-113260500D02*
X149479000Y-112274052D01*
X149479000Y-112274052D02*
X150882052Y-110871000D01*
X167190000Y-95691402D02*
X167190000Y-95689000D01*
G04 #@! TO.N,/CS2*
X160774000Y-91829000D02*
X160774000Y-91062500D01*
X155575000Y-115443000D02*
X154789500Y-114657500D01*
X160528000Y-92075000D02*
X160774000Y-91829000D01*
X155321000Y-113768500D02*
X155321000Y-112141000D01*
X162814000Y-102362000D02*
X163322000Y-102870000D01*
X163830000Y-99949000D02*
X163830000Y-100080299D01*
X154307722Y-111127722D02*
X153864848Y-111127722D01*
X155321000Y-112141000D02*
X154307722Y-111127722D01*
X154432000Y-114657500D02*
X155321000Y-113768500D01*
X163322000Y-102870000D02*
X163322000Y-112776000D01*
X162301701Y-98420701D02*
X163830000Y-99949000D01*
X154789500Y-114657500D02*
X154432000Y-114657500D01*
X153864848Y-111127722D02*
X153270394Y-110533268D01*
G04 #@! TD*
G04 #@! TA.AperFunction,Conductor*
G04 #@! TO.N,/VPYRO*
G36*
X146120039Y-127400685D02*
G01*
X146165794Y-127453489D01*
X146177000Y-127505000D01*
X146177000Y-131448000D01*
X146157315Y-131515039D01*
X146104511Y-131560794D01*
X146053000Y-131572000D01*
X144777000Y-131572000D01*
X144709961Y-131552315D01*
X144664206Y-131499511D01*
X144653000Y-131448000D01*
X144653000Y-130429000D01*
X144185940Y-130429000D01*
X144140974Y-130419031D01*
X144140916Y-130419232D01*
X144137862Y-130418341D01*
X144133537Y-130417383D01*
X144131809Y-130416577D01*
X144085654Y-130410501D01*
X144085649Y-130410500D01*
X144085644Y-130410500D01*
X143389499Y-130410500D01*
X143322460Y-130390815D01*
X143276705Y-130338011D01*
X143265499Y-130286500D01*
X143265499Y-128793500D01*
X143285184Y-128726461D01*
X143337988Y-128680706D01*
X143389499Y-128669500D01*
X144085637Y-128669500D01*
X144085644Y-128669500D01*
X144131811Y-128663422D01*
X144133537Y-128662616D01*
X144137862Y-128661658D01*
X144140916Y-128660768D01*
X144140974Y-128660968D01*
X144185940Y-128651000D01*
X144653000Y-128651000D01*
X144653000Y-127505000D01*
X144672685Y-127437961D01*
X144725489Y-127392206D01*
X144777000Y-127381000D01*
X146053000Y-127381000D01*
X146120039Y-127400685D01*
G37*
G04 #@! TD.AperFunction*
G04 #@! TD*
G04 #@! TA.AperFunction,Conductor*
G04 #@! TO.N,/PYRO1*
G36*
X149240677Y-117621685D02*
G01*
X149261319Y-117638319D01*
X149950681Y-118327681D01*
X149984166Y-118389004D01*
X149987000Y-118415362D01*
X149987000Y-119709638D01*
X149967315Y-119776677D01*
X149950681Y-119797319D01*
X149261319Y-120486681D01*
X149199996Y-120520166D01*
X149173638Y-120523000D01*
X144148999Y-120523000D01*
X143641000Y-121030999D01*
X143641000Y-123773638D01*
X143621315Y-123840677D01*
X143604681Y-123861319D01*
X142625000Y-124840999D01*
X142625000Y-126590059D01*
X142615032Y-126635024D01*
X142615232Y-126635083D01*
X142614345Y-126638122D01*
X142613385Y-126642458D01*
X142612577Y-126644189D01*
X142606501Y-126690345D01*
X142606500Y-126690362D01*
X142606500Y-127384000D01*
X142586815Y-127451039D01*
X142534011Y-127496794D01*
X142482500Y-127508000D01*
X141989500Y-127508000D01*
X141922461Y-127488315D01*
X141876706Y-127435511D01*
X141865500Y-127384000D01*
X141865500Y-126690355D01*
X141863531Y-126675401D01*
X141863000Y-126667299D01*
X141863000Y-118669219D01*
X141882685Y-118602180D01*
X141899146Y-118581711D01*
X142838652Y-117638492D01*
X142899909Y-117604886D01*
X142926506Y-117602000D01*
X149173638Y-117602000D01*
X149240677Y-117621685D01*
G37*
G04 #@! TD.AperFunction*
G04 #@! TD*
G04 #@! TA.AperFunction,Conductor*
G04 #@! TO.N,/PYRO4*
G36*
X142549539Y-131591685D02*
G01*
X142595294Y-131644489D01*
X142606500Y-131696000D01*
X142606500Y-132389637D01*
X142606501Y-132389654D01*
X142612577Y-132435809D01*
X142615232Y-132444916D01*
X142613059Y-132445549D01*
X142621000Y-132481361D01*
X142621000Y-134239000D01*
X143600681Y-135218681D01*
X143634166Y-135280004D01*
X143637000Y-135306362D01*
X143637000Y-138049000D01*
X144145000Y-138557000D01*
X149169638Y-138557000D01*
X149236677Y-138576685D01*
X149257319Y-138593319D01*
X149946681Y-139282681D01*
X149980166Y-139344004D01*
X149983000Y-139370362D01*
X149983000Y-140664638D01*
X149963315Y-140731677D01*
X149946681Y-140752319D01*
X149257319Y-141441681D01*
X149195996Y-141475166D01*
X149169638Y-141478000D01*
X142926362Y-141478000D01*
X142859323Y-141458315D01*
X142838681Y-141441681D01*
X141895319Y-140498319D01*
X141861834Y-140436996D01*
X141859000Y-140410638D01*
X141859000Y-132626452D01*
X141863918Y-132596980D01*
X141863809Y-132596962D01*
X141866802Y-132579025D01*
X141867792Y-132571087D01*
X141865500Y-132515664D01*
X141865500Y-131696000D01*
X141885185Y-131628961D01*
X141937989Y-131583206D01*
X141989500Y-131572000D01*
X142482500Y-131572000D01*
X142549539Y-131591685D01*
G37*
G04 #@! TD.AperFunction*
G04 #@! TD*
G04 #@! TA.AperFunction,Conductor*
G04 #@! TO.N,/PYRO2*
G36*
X149240677Y-124606685D02*
G01*
X149261319Y-124623319D01*
X149950681Y-125312681D01*
X149984166Y-125374004D01*
X149987000Y-125400362D01*
X149987000Y-126694638D01*
X149967315Y-126761677D01*
X149950681Y-126782319D01*
X149261319Y-127471681D01*
X149199996Y-127505166D01*
X149173638Y-127508000D01*
X147897179Y-127508000D01*
X147830140Y-127488315D01*
X147784385Y-127435511D01*
X147781003Y-127427349D01*
X147775758Y-127413285D01*
X147690974Y-127300026D01*
X147598429Y-127230748D01*
X147577718Y-127215244D01*
X147577717Y-127215243D01*
X147577715Y-127215242D01*
X147525035Y-127195593D01*
X147445159Y-127165800D01*
X147386565Y-127159500D01*
X146692446Y-127159500D01*
X146692437Y-127159501D01*
X146633840Y-127165800D01*
X146501290Y-127215239D01*
X146501282Y-127215243D01*
X146472458Y-127236821D01*
X146406994Y-127261236D01*
X146338721Y-127246383D01*
X146312050Y-127226786D01*
X146282869Y-127198629D01*
X146193151Y-127151697D01*
X146193150Y-127151696D01*
X146193147Y-127151695D01*
X146126117Y-127132013D01*
X146126105Y-127132010D01*
X146053001Y-127121500D01*
X146053000Y-127121500D01*
X144777000Y-127121500D01*
X144776991Y-127121500D01*
X144721838Y-127127430D01*
X144670316Y-127138639D01*
X144670317Y-127138639D01*
X144643536Y-127145986D01*
X144555553Y-127196088D01*
X144508545Y-127236821D01*
X144502748Y-127241844D01*
X144485563Y-127259653D01*
X144470630Y-127275129D01*
X144423695Y-127364852D01*
X144404013Y-127431882D01*
X144404010Y-127431894D01*
X144393500Y-127504998D01*
X144393500Y-127765000D01*
X144373815Y-127832039D01*
X144321011Y-127877794D01*
X144269500Y-127889000D01*
X143389499Y-127889000D01*
X143322460Y-127869315D01*
X143276705Y-127816511D01*
X143265499Y-127765000D01*
X143265499Y-127739934D01*
X143262382Y-127724261D01*
X143260000Y-127700073D01*
X143260000Y-127508000D01*
X143003000Y-127508000D01*
X142935961Y-127488315D01*
X142890206Y-127435511D01*
X142879000Y-127384000D01*
X142879000Y-126643665D01*
X142879369Y-126636910D01*
X142884500Y-126590057D01*
X142884500Y-125140862D01*
X142904185Y-125073823D01*
X142920819Y-125053181D01*
X143350681Y-124623319D01*
X143412004Y-124589834D01*
X143438362Y-124587000D01*
X149173638Y-124587000D01*
X149240677Y-124606685D01*
G37*
G04 #@! TD.AperFunction*
G04 #@! TD*
G04 #@! TA.AperFunction,Conductor*
G04 #@! TO.N,/PYRO3*
G36*
X144336539Y-131210685D02*
G01*
X144382294Y-131263489D01*
X144393500Y-131315000D01*
X144393500Y-131448008D01*
X144399430Y-131503161D01*
X144410639Y-131554684D01*
X144410639Y-131554683D01*
X144417986Y-131581463D01*
X144440893Y-131621689D01*
X144468089Y-131669448D01*
X144496198Y-131701887D01*
X144507920Y-131715416D01*
X144513844Y-131722252D01*
X144547131Y-131754371D01*
X144636849Y-131801303D01*
X144703888Y-131820988D01*
X144703892Y-131820988D01*
X144703894Y-131820989D01*
X144715707Y-131822687D01*
X144777000Y-131831500D01*
X144777001Y-131831500D01*
X146052991Y-131831500D01*
X146053000Y-131831500D01*
X146108163Y-131825569D01*
X146144877Y-131817581D01*
X146159684Y-131814361D01*
X146159683Y-131814361D01*
X146173332Y-131810615D01*
X146186461Y-131807014D01*
X146274448Y-131756911D01*
X146315927Y-131720968D01*
X146379481Y-131691944D01*
X146448639Y-131701887D01*
X146471436Y-131715414D01*
X146501285Y-131737758D01*
X146633843Y-131787200D01*
X146692443Y-131793500D01*
X147386556Y-131793499D01*
X147445157Y-131787200D01*
X147577715Y-131737758D01*
X147690974Y-131652974D01*
X147714394Y-131621688D01*
X147770327Y-131579818D01*
X147813660Y-131572000D01*
X149169638Y-131572000D01*
X149236677Y-131591685D01*
X149257319Y-131608319D01*
X149946681Y-132297681D01*
X149980166Y-132359004D01*
X149983000Y-132385362D01*
X149983000Y-133679638D01*
X149963315Y-133746677D01*
X149946681Y-133767319D01*
X149257319Y-134456681D01*
X149195996Y-134490166D01*
X149169638Y-134493000D01*
X143434362Y-134493000D01*
X143367323Y-134473315D01*
X143346681Y-134456681D01*
X142916819Y-134026819D01*
X142883334Y-133965496D01*
X142880500Y-133939138D01*
X142880500Y-132481370D01*
X142880500Y-132481361D01*
X142875369Y-132434518D01*
X142875000Y-132427762D01*
X142875000Y-131696000D01*
X142894685Y-131628961D01*
X142947489Y-131583206D01*
X142999000Y-131572000D01*
X143256000Y-131572000D01*
X143256000Y-131400038D01*
X143258383Y-131375845D01*
X143265500Y-131340068D01*
X143265500Y-131315000D01*
X143285185Y-131247961D01*
X143337989Y-131202206D01*
X143389500Y-131191000D01*
X144269500Y-131191000D01*
X144336539Y-131210685D01*
G37*
G04 #@! TD.AperFunction*
G04 #@! TD*
G04 #@! TA.AperFunction,Conductor*
G04 #@! TO.N,GND*
G36*
X168091039Y-130829685D02*
G01*
X168136794Y-130882489D01*
X168148000Y-130934000D01*
X168148000Y-143728512D01*
X168143154Y-143762840D01*
X168108619Y-143882710D01*
X168106924Y-143887767D01*
X168046687Y-144044689D01*
X167981269Y-144202620D01*
X167979231Y-144207041D01*
X167902349Y-144357933D01*
X167820035Y-144506868D01*
X167817768Y-144510646D01*
X167725099Y-144653344D01*
X167626833Y-144791836D01*
X167624450Y-144794977D01*
X167517974Y-144926463D01*
X167516021Y-144928759D01*
X167403861Y-145054267D01*
X167401471Y-145056795D01*
X167281795Y-145176471D01*
X167279267Y-145178861D01*
X167153759Y-145291021D01*
X167151463Y-145292974D01*
X167019977Y-145399450D01*
X167016836Y-145401833D01*
X166878344Y-145500099D01*
X166735646Y-145592768D01*
X166731868Y-145595035D01*
X166582933Y-145677349D01*
X166432041Y-145754231D01*
X166427620Y-145756269D01*
X166269689Y-145821687D01*
X166112763Y-145881925D01*
X166107706Y-145883620D01*
X165941665Y-145931456D01*
X165781536Y-145974362D01*
X165775872Y-145975599D01*
X165600727Y-146005357D01*
X165442215Y-146030464D01*
X165435988Y-146031130D01*
X165233242Y-146042517D01*
X165131979Y-146047824D01*
X165101620Y-146049415D01*
X165098377Y-146049500D01*
X158366000Y-146049500D01*
X158298961Y-146029815D01*
X158253206Y-145977011D01*
X158242000Y-145925500D01*
X158242000Y-142942763D01*
X163245787Y-142942763D01*
X163275413Y-143212013D01*
X163275415Y-143212024D01*
X163317353Y-143372439D01*
X163343928Y-143474088D01*
X163449870Y-143723390D01*
X163521998Y-143841575D01*
X163590979Y-143954605D01*
X163590986Y-143954615D01*
X163764253Y-144162819D01*
X163764259Y-144162824D01*
X163869240Y-144256887D01*
X163965998Y-144343582D01*
X164191910Y-144493044D01*
X164437176Y-144608020D01*
X164437183Y-144608022D01*
X164437185Y-144608023D01*
X164696557Y-144686057D01*
X164696564Y-144686058D01*
X164696569Y-144686060D01*
X164964561Y-144725500D01*
X164964566Y-144725500D01*
X165167636Y-144725500D01*
X165219133Y-144721730D01*
X165370156Y-144710677D01*
X165482758Y-144685593D01*
X165634546Y-144651782D01*
X165634548Y-144651781D01*
X165634553Y-144651780D01*
X165887558Y-144555014D01*
X166123777Y-144422441D01*
X166338177Y-144256888D01*
X166526186Y-144061881D01*
X166683799Y-143841579D01*
X166757787Y-143697669D01*
X166807649Y-143600690D01*
X166807651Y-143600684D01*
X166807656Y-143600675D01*
X166895118Y-143344305D01*
X166944319Y-143077933D01*
X166954212Y-142807235D01*
X166924586Y-142537982D01*
X166856072Y-142275912D01*
X166750130Y-142026610D01*
X166609018Y-141795390D01*
X166519747Y-141688119D01*
X166435746Y-141587180D01*
X166435740Y-141587175D01*
X166234002Y-141406418D01*
X166008092Y-141256957D01*
X166008090Y-141256956D01*
X165762824Y-141141980D01*
X165762819Y-141141978D01*
X165762814Y-141141976D01*
X165503442Y-141063942D01*
X165503428Y-141063939D01*
X165387791Y-141046921D01*
X165235439Y-141024500D01*
X165032369Y-141024500D01*
X165032364Y-141024500D01*
X164829844Y-141039323D01*
X164829831Y-141039325D01*
X164565453Y-141098217D01*
X164565446Y-141098220D01*
X164312439Y-141194987D01*
X164076226Y-141327557D01*
X163861822Y-141493112D01*
X163673822Y-141688109D01*
X163673816Y-141688116D01*
X163516202Y-141908419D01*
X163516199Y-141908424D01*
X163392350Y-142149309D01*
X163392343Y-142149327D01*
X163304884Y-142405685D01*
X163304881Y-142405699D01*
X163255681Y-142672068D01*
X163255680Y-142672075D01*
X163245787Y-142942763D01*
X158242000Y-142942763D01*
X158242000Y-139014500D01*
X159067058Y-139014500D01*
X159068593Y-139034017D01*
X159068594Y-139034023D01*
X159113529Y-139188689D01*
X159113530Y-139188692D01*
X159195520Y-139327331D01*
X159195526Y-139327339D01*
X159309410Y-139441223D01*
X159309418Y-139441229D01*
X159448054Y-139523217D01*
X159559750Y-139555668D01*
X159559750Y-139014500D01*
X160321750Y-139014500D01*
X160321750Y-139555667D01*
X160433445Y-139523217D01*
X160572081Y-139441229D01*
X160572089Y-139441223D01*
X160685973Y-139327339D01*
X160685979Y-139327331D01*
X160767969Y-139188692D01*
X160767970Y-139188689D01*
X160812905Y-139034023D01*
X160812906Y-139034017D01*
X160814442Y-139014500D01*
X160321750Y-139014500D01*
X159559750Y-139014500D01*
X159067058Y-139014500D01*
X158242000Y-139014500D01*
X158242000Y-138915933D01*
X158261685Y-138848894D01*
X158314489Y-138803139D01*
X158336326Y-138795536D01*
X158338508Y-138794997D01*
X158348793Y-138792463D01*
X158489529Y-138718599D01*
X158608498Y-138613201D01*
X158673335Y-138519265D01*
X158687694Y-138502036D01*
X158913503Y-138276227D01*
X158974824Y-138242744D01*
X159044516Y-138247728D01*
X159051630Y-138252500D01*
X160814443Y-138252500D01*
X160819699Y-138246812D01*
X160829914Y-138198193D01*
X160878965Y-138148437D01*
X160947130Y-138133098D01*
X161008054Y-138153738D01*
X161051449Y-138182734D01*
X161051452Y-138182734D01*
X161051453Y-138182735D01*
X161076416Y-138187700D01*
X161125683Y-138197500D01*
X162475816Y-138197499D01*
X162550051Y-138182734D01*
X162634234Y-138126484D01*
X162690484Y-138042301D01*
X162705250Y-137968067D01*
X162705249Y-137388484D01*
X162724933Y-137321447D01*
X162777737Y-137275692D01*
X162829249Y-137264486D01*
X165750755Y-137264486D01*
X165875894Y-137244666D01*
X165988796Y-137187139D01*
X165988800Y-137187136D01*
X166078386Y-137097550D01*
X166078389Y-137097546D01*
X166135916Y-136984644D01*
X166155736Y-136859505D01*
X166155736Y-136374000D01*
X160722719Y-136374000D01*
X160712149Y-136379771D01*
X160642458Y-136374782D01*
X160586532Y-136332913D01*
X160529724Y-136257026D01*
X160416465Y-136172242D01*
X160363785Y-136152593D01*
X160283909Y-136122800D01*
X160223345Y-136116288D01*
X160158794Y-136089549D01*
X160118947Y-136032156D01*
X160116454Y-135962331D01*
X160152107Y-135902243D01*
X160214587Y-135870969D01*
X160223350Y-135869709D01*
X160225303Y-135869499D01*
X160225306Y-135869499D01*
X160283907Y-135863200D01*
X160416465Y-135813758D01*
X160529724Y-135728974D01*
X160586534Y-135653083D01*
X160642463Y-135611215D01*
X160712154Y-135606229D01*
X160722723Y-135612000D01*
X166155736Y-135612000D01*
X166155736Y-135126494D01*
X166135916Y-135001355D01*
X166078389Y-134888453D01*
X166078386Y-134888449D01*
X165988800Y-134798863D01*
X165988796Y-134798860D01*
X165875894Y-134741333D01*
X165750755Y-134721514D01*
X162829250Y-134721514D01*
X162762211Y-134701829D01*
X162716456Y-134649025D01*
X162705250Y-134597514D01*
X162705249Y-134017936D01*
X162705249Y-134017934D01*
X162690484Y-133943699D01*
X162664713Y-133905131D01*
X162634234Y-133859515D01*
X162583769Y-133825796D01*
X162550051Y-133803266D01*
X162550049Y-133803265D01*
X162550046Y-133803264D01*
X162475819Y-133788500D01*
X161125686Y-133788500D01*
X161051448Y-133803266D01*
X161051445Y-133803267D01*
X161008057Y-133832259D01*
X160941380Y-133853137D01*
X160874000Y-133834652D01*
X160827310Y-133782673D01*
X160819103Y-133738541D01*
X160814442Y-133733500D01*
X159067058Y-133733500D01*
X159068593Y-133753017D01*
X159068594Y-133753023D01*
X159113529Y-133907689D01*
X159113530Y-133907692D01*
X159195520Y-134046331D01*
X159195526Y-134046339D01*
X159309410Y-134160223D01*
X159309422Y-134160232D01*
X159371455Y-134196918D01*
X159419139Y-134247986D01*
X159431643Y-134316728D01*
X159404998Y-134381318D01*
X159382646Y-134402916D01*
X159363477Y-134417266D01*
X159298013Y-134441684D01*
X159289166Y-134442000D01*
X158562095Y-134442000D01*
X158495056Y-134422315D01*
X158474414Y-134405681D01*
X158278319Y-134209586D01*
X158244834Y-134148263D01*
X158242000Y-134121905D01*
X158242000Y-132971500D01*
X159067058Y-132971500D01*
X159559750Y-132971500D01*
X159559750Y-132430329D01*
X160321750Y-132430329D01*
X160321750Y-132971500D01*
X160814442Y-132971500D01*
X160812906Y-132951982D01*
X160812905Y-132951976D01*
X160767970Y-132797310D01*
X160767969Y-132797307D01*
X160685979Y-132658668D01*
X160685973Y-132658660D01*
X160572089Y-132544776D01*
X160572081Y-132544770D01*
X160433442Y-132462780D01*
X160433441Y-132462779D01*
X160321750Y-132430329D01*
X159559750Y-132430329D01*
X159448058Y-132462779D01*
X159448057Y-132462780D01*
X159309418Y-132544770D01*
X159309410Y-132544776D01*
X159195526Y-132658660D01*
X159195520Y-132658668D01*
X159113530Y-132797307D01*
X159113529Y-132797310D01*
X159068594Y-132951976D01*
X159068593Y-132951982D01*
X159067058Y-132971500D01*
X158242000Y-132971500D01*
X158242000Y-130934000D01*
X158261685Y-130866961D01*
X158314489Y-130821206D01*
X158366000Y-130810000D01*
X168024000Y-130810000D01*
X168091039Y-130829685D01*
G37*
G04 #@! TD.AperFunction*
G04 #@! TD*
M02*
