G04 #@! TF.GenerationSoftware,KiCad,Pcbnew,7.0.8*
G04 #@! TF.CreationDate,2023-12-05T10:59:50-06:00*
G04 #@! TF.ProjectId,Flight_Board,466c6967-6874-45f4-926f-6172642e6b69,rev?*
G04 #@! TF.SameCoordinates,Original*
G04 #@! TF.FileFunction,Legend,Bot*
G04 #@! TF.FilePolarity,Positive*
%FSLAX46Y46*%
G04 Gerber Fmt 4.6, Leading zero omitted, Abs format (unit mm)*
G04 Created by KiCad (PCBNEW 7.0.8) date 2023-12-05 10:59:50*
%MOMM*%
%LPD*%
G01*
G04 APERTURE LIST*
G04 Aperture macros list*
%AMRoundRect*
0 Rectangle with rounded corners*
0 $1 Rounding radius*
0 $2 $3 $4 $5 $6 $7 $8 $9 X,Y pos of 4 corners*
0 Add a 4 corners polygon primitive as box body*
4,1,4,$2,$3,$4,$5,$6,$7,$8,$9,$2,$3,0*
0 Add four circle primitives for the rounded corners*
1,1,$1+$1,$2,$3*
1,1,$1+$1,$4,$5*
1,1,$1+$1,$6,$7*
1,1,$1+$1,$8,$9*
0 Add four rect primitives between the rounded corners*
20,1,$1+$1,$2,$3,$4,$5,0*
20,1,$1+$1,$4,$5,$6,$7,0*
20,1,$1+$1,$6,$7,$8,$9,0*
20,1,$1+$1,$8,$9,$2,$3,0*%
G04 Aperture macros list end*
%ADD10C,0.300000*%
%ADD11C,0.150000*%
%ADD12C,0.120000*%
%ADD13C,0.200000*%
%ADD14C,3.200000*%
%ADD15C,1.620000*%
%ADD16C,1.200000*%
%ADD17R,2.400000X2.400000*%
%ADD18C,2.400000*%
%ADD19C,1.000000*%
%ADD20RoundRect,0.102000X-0.400000X-0.600000X0.400000X-0.600000X0.400000X0.600000X-0.400000X0.600000X0*%
%ADD21RoundRect,0.102000X-0.750000X-1.000000X0.750000X-1.000000X0.750000X1.000000X-0.750000X1.000000X0*%
%ADD22R,1.700000X1.700000*%
%ADD23O,1.700000X1.700000*%
G04 APERTURE END LIST*
D10*
X143922750Y-124206000D02*
X141573250Y-124206000D01*
X143922750Y-131318000D02*
X141573250Y-131318000D01*
X143922750Y-127762000D02*
X141573250Y-127762000D01*
X143922750Y-134747000D02*
X141573250Y-134747000D01*
X163258500Y-134874000D02*
X160909000Y-134874000D01*
X143922750Y-120777000D02*
X141573250Y-120777000D01*
X143922750Y-141732000D02*
X141573250Y-141732000D01*
X163258500Y-141732000D02*
X160909000Y-141732000D01*
X163258500Y-138290000D02*
X160909000Y-138290000D01*
X143922750Y-138303000D02*
X141573250Y-138303000D01*
D11*
X163667839Y-104851200D02*
X163524982Y-104898819D01*
X163524982Y-104898819D02*
X163286887Y-104898819D01*
X163286887Y-104898819D02*
X163191649Y-104851200D01*
X163191649Y-104851200D02*
X163144030Y-104803580D01*
X163144030Y-104803580D02*
X163096411Y-104708342D01*
X163096411Y-104708342D02*
X163096411Y-104613104D01*
X163096411Y-104613104D02*
X163144030Y-104517866D01*
X163144030Y-104517866D02*
X163191649Y-104470247D01*
X163191649Y-104470247D02*
X163286887Y-104422628D01*
X163286887Y-104422628D02*
X163477363Y-104375009D01*
X163477363Y-104375009D02*
X163572601Y-104327390D01*
X163572601Y-104327390D02*
X163620220Y-104279771D01*
X163620220Y-104279771D02*
X163667839Y-104184533D01*
X163667839Y-104184533D02*
X163667839Y-104089295D01*
X163667839Y-104089295D02*
X163620220Y-103994057D01*
X163620220Y-103994057D02*
X163572601Y-103946438D01*
X163572601Y-103946438D02*
X163477363Y-103898819D01*
X163477363Y-103898819D02*
X163239268Y-103898819D01*
X163239268Y-103898819D02*
X163096411Y-103946438D01*
X162763077Y-103898819D02*
X162524982Y-104898819D01*
X162524982Y-104898819D02*
X162334506Y-104184533D01*
X162334506Y-104184533D02*
X162144030Y-104898819D01*
X162144030Y-104898819D02*
X161905935Y-103898819D01*
X161524982Y-104898819D02*
X161524982Y-103898819D01*
X161524982Y-103898819D02*
X161286887Y-103898819D01*
X161286887Y-103898819D02*
X161144030Y-103946438D01*
X161144030Y-103946438D02*
X161048792Y-104041676D01*
X161048792Y-104041676D02*
X161001173Y-104136914D01*
X161001173Y-104136914D02*
X160953554Y-104327390D01*
X160953554Y-104327390D02*
X160953554Y-104470247D01*
X160953554Y-104470247D02*
X161001173Y-104660723D01*
X161001173Y-104660723D02*
X161048792Y-104755961D01*
X161048792Y-104755961D02*
X161144030Y-104851200D01*
X161144030Y-104851200D02*
X161286887Y-104898819D01*
X161286887Y-104898819D02*
X161524982Y-104898819D01*
X160524982Y-104898819D02*
X160524982Y-103898819D01*
X159858316Y-103898819D02*
X159667840Y-103898819D01*
X159667840Y-103898819D02*
X159572602Y-103946438D01*
X159572602Y-103946438D02*
X159477364Y-104041676D01*
X159477364Y-104041676D02*
X159429745Y-104232152D01*
X159429745Y-104232152D02*
X159429745Y-104565485D01*
X159429745Y-104565485D02*
X159477364Y-104755961D01*
X159477364Y-104755961D02*
X159572602Y-104851200D01*
X159572602Y-104851200D02*
X159667840Y-104898819D01*
X159667840Y-104898819D02*
X159858316Y-104898819D01*
X159858316Y-104898819D02*
X159953554Y-104851200D01*
X159953554Y-104851200D02*
X160048792Y-104755961D01*
X160048792Y-104755961D02*
X160096411Y-104565485D01*
X160096411Y-104565485D02*
X160096411Y-104232152D01*
X160096411Y-104232152D02*
X160048792Y-104041676D01*
X160048792Y-104041676D02*
X159953554Y-103946438D01*
X159953554Y-103946438D02*
X159858316Y-103898819D01*
X142871649Y-139919152D02*
X142871649Y-140585819D01*
X143109744Y-139538200D02*
X143347839Y-140252485D01*
X143347839Y-140252485D02*
X142728792Y-140252485D01*
X142347839Y-140204866D02*
X141585935Y-140204866D01*
X141966887Y-140585819D02*
X141966887Y-139823914D01*
X161757144Y-80719819D02*
X162090477Y-80243628D01*
X162328572Y-80719819D02*
X162328572Y-79719819D01*
X162328572Y-79719819D02*
X161947620Y-79719819D01*
X161947620Y-79719819D02*
X161852382Y-79767438D01*
X161852382Y-79767438D02*
X161804763Y-79815057D01*
X161804763Y-79815057D02*
X161757144Y-79910295D01*
X161757144Y-79910295D02*
X161757144Y-80053152D01*
X161757144Y-80053152D02*
X161804763Y-80148390D01*
X161804763Y-80148390D02*
X161852382Y-80196009D01*
X161852382Y-80196009D02*
X161947620Y-80243628D01*
X161947620Y-80243628D02*
X162328572Y-80243628D01*
X161185715Y-80719819D02*
X161280953Y-80672200D01*
X161280953Y-80672200D02*
X161328572Y-80624580D01*
X161328572Y-80624580D02*
X161376191Y-80529342D01*
X161376191Y-80529342D02*
X161376191Y-80243628D01*
X161376191Y-80243628D02*
X161328572Y-80148390D01*
X161328572Y-80148390D02*
X161280953Y-80100771D01*
X161280953Y-80100771D02*
X161185715Y-80053152D01*
X161185715Y-80053152D02*
X161042858Y-80053152D01*
X161042858Y-80053152D02*
X160947620Y-80100771D01*
X160947620Y-80100771D02*
X160900001Y-80148390D01*
X160900001Y-80148390D02*
X160852382Y-80243628D01*
X160852382Y-80243628D02*
X160852382Y-80529342D01*
X160852382Y-80529342D02*
X160900001Y-80624580D01*
X160900001Y-80624580D02*
X160947620Y-80672200D01*
X160947620Y-80672200D02*
X161042858Y-80719819D01*
X161042858Y-80719819D02*
X161185715Y-80719819D01*
X159995239Y-80672200D02*
X160090477Y-80719819D01*
X160090477Y-80719819D02*
X160280953Y-80719819D01*
X160280953Y-80719819D02*
X160376191Y-80672200D01*
X160376191Y-80672200D02*
X160423810Y-80624580D01*
X160423810Y-80624580D02*
X160471429Y-80529342D01*
X160471429Y-80529342D02*
X160471429Y-80243628D01*
X160471429Y-80243628D02*
X160423810Y-80148390D01*
X160423810Y-80148390D02*
X160376191Y-80100771D01*
X160376191Y-80100771D02*
X160280953Y-80053152D01*
X160280953Y-80053152D02*
X160090477Y-80053152D01*
X160090477Y-80053152D02*
X159995239Y-80100771D01*
X159566667Y-80719819D02*
X159566667Y-79719819D01*
X159471429Y-80338866D02*
X159185715Y-80719819D01*
X159185715Y-80053152D02*
X159566667Y-80434104D01*
X158376191Y-80672200D02*
X158471429Y-80719819D01*
X158471429Y-80719819D02*
X158661905Y-80719819D01*
X158661905Y-80719819D02*
X158757143Y-80672200D01*
X158757143Y-80672200D02*
X158804762Y-80576961D01*
X158804762Y-80576961D02*
X158804762Y-80196009D01*
X158804762Y-80196009D02*
X158757143Y-80100771D01*
X158757143Y-80100771D02*
X158661905Y-80053152D01*
X158661905Y-80053152D02*
X158471429Y-80053152D01*
X158471429Y-80053152D02*
X158376191Y-80100771D01*
X158376191Y-80100771D02*
X158328572Y-80196009D01*
X158328572Y-80196009D02*
X158328572Y-80291247D01*
X158328572Y-80291247D02*
X158804762Y-80386485D01*
X158042857Y-80053152D02*
X157661905Y-80053152D01*
X157900000Y-79719819D02*
X157900000Y-80576961D01*
X157900000Y-80576961D02*
X157852381Y-80672200D01*
X157852381Y-80672200D02*
X157757143Y-80719819D01*
X157757143Y-80719819D02*
X157661905Y-80719819D01*
X156233333Y-80196009D02*
X156566666Y-80196009D01*
X156566666Y-80719819D02*
X156566666Y-79719819D01*
X156566666Y-79719819D02*
X156090476Y-79719819D01*
X155566666Y-80719819D02*
X155661904Y-80672200D01*
X155661904Y-80672200D02*
X155709523Y-80576961D01*
X155709523Y-80576961D02*
X155709523Y-79719819D01*
X155185713Y-80719819D02*
X155185713Y-80053152D01*
X155185713Y-79719819D02*
X155233332Y-79767438D01*
X155233332Y-79767438D02*
X155185713Y-79815057D01*
X155185713Y-79815057D02*
X155138094Y-79767438D01*
X155138094Y-79767438D02*
X155185713Y-79719819D01*
X155185713Y-79719819D02*
X155185713Y-79815057D01*
X154280952Y-80053152D02*
X154280952Y-80862676D01*
X154280952Y-80862676D02*
X154328571Y-80957914D01*
X154328571Y-80957914D02*
X154376190Y-81005533D01*
X154376190Y-81005533D02*
X154471428Y-81053152D01*
X154471428Y-81053152D02*
X154614285Y-81053152D01*
X154614285Y-81053152D02*
X154709523Y-81005533D01*
X154280952Y-80672200D02*
X154376190Y-80719819D01*
X154376190Y-80719819D02*
X154566666Y-80719819D01*
X154566666Y-80719819D02*
X154661904Y-80672200D01*
X154661904Y-80672200D02*
X154709523Y-80624580D01*
X154709523Y-80624580D02*
X154757142Y-80529342D01*
X154757142Y-80529342D02*
X154757142Y-80243628D01*
X154757142Y-80243628D02*
X154709523Y-80148390D01*
X154709523Y-80148390D02*
X154661904Y-80100771D01*
X154661904Y-80100771D02*
X154566666Y-80053152D01*
X154566666Y-80053152D02*
X154376190Y-80053152D01*
X154376190Y-80053152D02*
X154280952Y-80100771D01*
X153804761Y-80719819D02*
X153804761Y-79719819D01*
X153376190Y-80719819D02*
X153376190Y-80196009D01*
X153376190Y-80196009D02*
X153423809Y-80100771D01*
X153423809Y-80100771D02*
X153519047Y-80053152D01*
X153519047Y-80053152D02*
X153661904Y-80053152D01*
X153661904Y-80053152D02*
X153757142Y-80100771D01*
X153757142Y-80100771D02*
X153804761Y-80148390D01*
X153042856Y-80053152D02*
X152661904Y-80053152D01*
X152899999Y-79719819D02*
X152899999Y-80576961D01*
X152899999Y-80576961D02*
X152852380Y-80672200D01*
X152852380Y-80672200D02*
X152757142Y-80719819D01*
X152757142Y-80719819D02*
X152661904Y-80719819D01*
X150995237Y-80624580D02*
X151042856Y-80672200D01*
X151042856Y-80672200D02*
X151185713Y-80719819D01*
X151185713Y-80719819D02*
X151280951Y-80719819D01*
X151280951Y-80719819D02*
X151423808Y-80672200D01*
X151423808Y-80672200D02*
X151519046Y-80576961D01*
X151519046Y-80576961D02*
X151566665Y-80481723D01*
X151566665Y-80481723D02*
X151614284Y-80291247D01*
X151614284Y-80291247D02*
X151614284Y-80148390D01*
X151614284Y-80148390D02*
X151566665Y-79957914D01*
X151566665Y-79957914D02*
X151519046Y-79862676D01*
X151519046Y-79862676D02*
X151423808Y-79767438D01*
X151423808Y-79767438D02*
X151280951Y-79719819D01*
X151280951Y-79719819D02*
X151185713Y-79719819D01*
X151185713Y-79719819D02*
X151042856Y-79767438D01*
X151042856Y-79767438D02*
X150995237Y-79815057D01*
X150423808Y-80719819D02*
X150519046Y-80672200D01*
X150519046Y-80672200D02*
X150566665Y-80624580D01*
X150566665Y-80624580D02*
X150614284Y-80529342D01*
X150614284Y-80529342D02*
X150614284Y-80243628D01*
X150614284Y-80243628D02*
X150566665Y-80148390D01*
X150566665Y-80148390D02*
X150519046Y-80100771D01*
X150519046Y-80100771D02*
X150423808Y-80053152D01*
X150423808Y-80053152D02*
X150280951Y-80053152D01*
X150280951Y-80053152D02*
X150185713Y-80100771D01*
X150185713Y-80100771D02*
X150138094Y-80148390D01*
X150138094Y-80148390D02*
X150090475Y-80243628D01*
X150090475Y-80243628D02*
X150090475Y-80529342D01*
X150090475Y-80529342D02*
X150138094Y-80624580D01*
X150138094Y-80624580D02*
X150185713Y-80672200D01*
X150185713Y-80672200D02*
X150280951Y-80719819D01*
X150280951Y-80719819D02*
X150423808Y-80719819D01*
X149661903Y-80719819D02*
X149661903Y-80053152D01*
X149661903Y-80148390D02*
X149614284Y-80100771D01*
X149614284Y-80100771D02*
X149519046Y-80053152D01*
X149519046Y-80053152D02*
X149376189Y-80053152D01*
X149376189Y-80053152D02*
X149280951Y-80100771D01*
X149280951Y-80100771D02*
X149233332Y-80196009D01*
X149233332Y-80196009D02*
X149233332Y-80719819D01*
X149233332Y-80196009D02*
X149185713Y-80100771D01*
X149185713Y-80100771D02*
X149090475Y-80053152D01*
X149090475Y-80053152D02*
X148947618Y-80053152D01*
X148947618Y-80053152D02*
X148852379Y-80100771D01*
X148852379Y-80100771D02*
X148804760Y-80196009D01*
X148804760Y-80196009D02*
X148804760Y-80719819D01*
X148328570Y-80053152D02*
X148328570Y-81053152D01*
X148328570Y-80100771D02*
X148233332Y-80053152D01*
X148233332Y-80053152D02*
X148042856Y-80053152D01*
X148042856Y-80053152D02*
X147947618Y-80100771D01*
X147947618Y-80100771D02*
X147899999Y-80148390D01*
X147899999Y-80148390D02*
X147852380Y-80243628D01*
X147852380Y-80243628D02*
X147852380Y-80529342D01*
X147852380Y-80529342D02*
X147899999Y-80624580D01*
X147899999Y-80624580D02*
X147947618Y-80672200D01*
X147947618Y-80672200D02*
X148042856Y-80719819D01*
X148042856Y-80719819D02*
X148233332Y-80719819D01*
X148233332Y-80719819D02*
X148328570Y-80672200D01*
X146995237Y-80053152D02*
X146995237Y-80719819D01*
X147423808Y-80053152D02*
X147423808Y-80576961D01*
X147423808Y-80576961D02*
X147376189Y-80672200D01*
X147376189Y-80672200D02*
X147280951Y-80719819D01*
X147280951Y-80719819D02*
X147138094Y-80719819D01*
X147138094Y-80719819D02*
X147042856Y-80672200D01*
X147042856Y-80672200D02*
X146995237Y-80624580D01*
X146661903Y-80053152D02*
X146280951Y-80053152D01*
X146519046Y-79719819D02*
X146519046Y-80576961D01*
X146519046Y-80576961D02*
X146471427Y-80672200D01*
X146471427Y-80672200D02*
X146376189Y-80719819D01*
X146376189Y-80719819D02*
X146280951Y-80719819D01*
X145566665Y-80672200D02*
X145661903Y-80719819D01*
X145661903Y-80719819D02*
X145852379Y-80719819D01*
X145852379Y-80719819D02*
X145947617Y-80672200D01*
X145947617Y-80672200D02*
X145995236Y-80576961D01*
X145995236Y-80576961D02*
X145995236Y-80196009D01*
X145995236Y-80196009D02*
X145947617Y-80100771D01*
X145947617Y-80100771D02*
X145852379Y-80053152D01*
X145852379Y-80053152D02*
X145661903Y-80053152D01*
X145661903Y-80053152D02*
X145566665Y-80100771D01*
X145566665Y-80100771D02*
X145519046Y-80196009D01*
X145519046Y-80196009D02*
X145519046Y-80291247D01*
X145519046Y-80291247D02*
X145995236Y-80386485D01*
X145090474Y-80719819D02*
X145090474Y-80053152D01*
X145090474Y-80243628D02*
X145042855Y-80148390D01*
X145042855Y-80148390D02*
X144995236Y-80100771D01*
X144995236Y-80100771D02*
X144899998Y-80053152D01*
X144899998Y-80053152D02*
X144804760Y-80053152D01*
X143804759Y-80053152D02*
X143566664Y-80719819D01*
X143566664Y-80719819D02*
X143328569Y-80053152D01*
X142423807Y-80719819D02*
X142995235Y-80719819D01*
X142709521Y-80719819D02*
X142709521Y-79719819D01*
X142709521Y-79719819D02*
X142804759Y-79862676D01*
X142804759Y-79862676D02*
X142899997Y-79957914D01*
X142899997Y-79957914D02*
X142995235Y-80005533D01*
X157066666Y-81425057D02*
X157019047Y-81377438D01*
X157019047Y-81377438D02*
X156923809Y-81329819D01*
X156923809Y-81329819D02*
X156685714Y-81329819D01*
X156685714Y-81329819D02*
X156590476Y-81377438D01*
X156590476Y-81377438D02*
X156542857Y-81425057D01*
X156542857Y-81425057D02*
X156495238Y-81520295D01*
X156495238Y-81520295D02*
X156495238Y-81615533D01*
X156495238Y-81615533D02*
X156542857Y-81758390D01*
X156542857Y-81758390D02*
X157114285Y-82329819D01*
X157114285Y-82329819D02*
X156495238Y-82329819D01*
X155876190Y-81329819D02*
X155780952Y-81329819D01*
X155780952Y-81329819D02*
X155685714Y-81377438D01*
X155685714Y-81377438D02*
X155638095Y-81425057D01*
X155638095Y-81425057D02*
X155590476Y-81520295D01*
X155590476Y-81520295D02*
X155542857Y-81710771D01*
X155542857Y-81710771D02*
X155542857Y-81948866D01*
X155542857Y-81948866D02*
X155590476Y-82139342D01*
X155590476Y-82139342D02*
X155638095Y-82234580D01*
X155638095Y-82234580D02*
X155685714Y-82282200D01*
X155685714Y-82282200D02*
X155780952Y-82329819D01*
X155780952Y-82329819D02*
X155876190Y-82329819D01*
X155876190Y-82329819D02*
X155971428Y-82282200D01*
X155971428Y-82282200D02*
X156019047Y-82234580D01*
X156019047Y-82234580D02*
X156066666Y-82139342D01*
X156066666Y-82139342D02*
X156114285Y-81948866D01*
X156114285Y-81948866D02*
X156114285Y-81710771D01*
X156114285Y-81710771D02*
X156066666Y-81520295D01*
X156066666Y-81520295D02*
X156019047Y-81425057D01*
X156019047Y-81425057D02*
X155971428Y-81377438D01*
X155971428Y-81377438D02*
X155876190Y-81329819D01*
X155161904Y-81425057D02*
X155114285Y-81377438D01*
X155114285Y-81377438D02*
X155019047Y-81329819D01*
X155019047Y-81329819D02*
X154780952Y-81329819D01*
X154780952Y-81329819D02*
X154685714Y-81377438D01*
X154685714Y-81377438D02*
X154638095Y-81425057D01*
X154638095Y-81425057D02*
X154590476Y-81520295D01*
X154590476Y-81520295D02*
X154590476Y-81615533D01*
X154590476Y-81615533D02*
X154638095Y-81758390D01*
X154638095Y-81758390D02*
X155209523Y-82329819D01*
X155209523Y-82329819D02*
X154590476Y-82329819D01*
X154257142Y-81329819D02*
X153638095Y-81329819D01*
X153638095Y-81329819D02*
X153971428Y-81710771D01*
X153971428Y-81710771D02*
X153828571Y-81710771D01*
X153828571Y-81710771D02*
X153733333Y-81758390D01*
X153733333Y-81758390D02*
X153685714Y-81806009D01*
X153685714Y-81806009D02*
X153638095Y-81901247D01*
X153638095Y-81901247D02*
X153638095Y-82139342D01*
X153638095Y-82139342D02*
X153685714Y-82234580D01*
X153685714Y-82234580D02*
X153733333Y-82282200D01*
X153733333Y-82282200D02*
X153828571Y-82329819D01*
X153828571Y-82329819D02*
X154114285Y-82329819D01*
X154114285Y-82329819D02*
X154209523Y-82282200D01*
X154209523Y-82282200D02*
X154257142Y-82234580D01*
X152495238Y-81282200D02*
X153352380Y-82567914D01*
X151638095Y-82329819D02*
X152209523Y-82329819D01*
X151923809Y-82329819D02*
X151923809Y-81329819D01*
X151923809Y-81329819D02*
X152019047Y-81472676D01*
X152019047Y-81472676D02*
X152114285Y-81567914D01*
X152114285Y-81567914D02*
X152209523Y-81615533D01*
X151257142Y-81425057D02*
X151209523Y-81377438D01*
X151209523Y-81377438D02*
X151114285Y-81329819D01*
X151114285Y-81329819D02*
X150876190Y-81329819D01*
X150876190Y-81329819D02*
X150780952Y-81377438D01*
X150780952Y-81377438D02*
X150733333Y-81425057D01*
X150733333Y-81425057D02*
X150685714Y-81520295D01*
X150685714Y-81520295D02*
X150685714Y-81615533D01*
X150685714Y-81615533D02*
X150733333Y-81758390D01*
X150733333Y-81758390D02*
X151304761Y-82329819D01*
X151304761Y-82329819D02*
X150685714Y-82329819D01*
X149542857Y-81282200D02*
X150399999Y-82567914D01*
X149019047Y-81329819D02*
X148923809Y-81329819D01*
X148923809Y-81329819D02*
X148828571Y-81377438D01*
X148828571Y-81377438D02*
X148780952Y-81425057D01*
X148780952Y-81425057D02*
X148733333Y-81520295D01*
X148733333Y-81520295D02*
X148685714Y-81710771D01*
X148685714Y-81710771D02*
X148685714Y-81948866D01*
X148685714Y-81948866D02*
X148733333Y-82139342D01*
X148733333Y-82139342D02*
X148780952Y-82234580D01*
X148780952Y-82234580D02*
X148828571Y-82282200D01*
X148828571Y-82282200D02*
X148923809Y-82329819D01*
X148923809Y-82329819D02*
X149019047Y-82329819D01*
X149019047Y-82329819D02*
X149114285Y-82282200D01*
X149114285Y-82282200D02*
X149161904Y-82234580D01*
X149161904Y-82234580D02*
X149209523Y-82139342D01*
X149209523Y-82139342D02*
X149257142Y-81948866D01*
X149257142Y-81948866D02*
X149257142Y-81710771D01*
X149257142Y-81710771D02*
X149209523Y-81520295D01*
X149209523Y-81520295D02*
X149161904Y-81425057D01*
X149161904Y-81425057D02*
X149114285Y-81377438D01*
X149114285Y-81377438D02*
X149019047Y-81329819D01*
X147828571Y-81663152D02*
X147828571Y-82329819D01*
X148066666Y-81282200D02*
X148304761Y-81996485D01*
X148304761Y-81996485D02*
X147685714Y-81996485D01*
X159471428Y-82939819D02*
X159233333Y-83939819D01*
X159233333Y-83939819D02*
X159042857Y-83225533D01*
X159042857Y-83225533D02*
X158852381Y-83939819D01*
X158852381Y-83939819D02*
X158614286Y-82939819D01*
X158233333Y-83939819D02*
X158233333Y-83273152D01*
X158233333Y-82939819D02*
X158280952Y-82987438D01*
X158280952Y-82987438D02*
X158233333Y-83035057D01*
X158233333Y-83035057D02*
X158185714Y-82987438D01*
X158185714Y-82987438D02*
X158233333Y-82939819D01*
X158233333Y-82939819D02*
X158233333Y-83035057D01*
X157614286Y-83939819D02*
X157709524Y-83892200D01*
X157709524Y-83892200D02*
X157757143Y-83796961D01*
X157757143Y-83796961D02*
X157757143Y-82939819D01*
X157090476Y-83939819D02*
X157185714Y-83892200D01*
X157185714Y-83892200D02*
X157233333Y-83796961D01*
X157233333Y-83796961D02*
X157233333Y-82939819D01*
X156709523Y-83939819D02*
X156709523Y-83273152D01*
X156709523Y-82939819D02*
X156757142Y-82987438D01*
X156757142Y-82987438D02*
X156709523Y-83035057D01*
X156709523Y-83035057D02*
X156661904Y-82987438D01*
X156661904Y-82987438D02*
X156709523Y-82939819D01*
X156709523Y-82939819D02*
X156709523Y-83035057D01*
X155804762Y-83939819D02*
X155804762Y-83416009D01*
X155804762Y-83416009D02*
X155852381Y-83320771D01*
X155852381Y-83320771D02*
X155947619Y-83273152D01*
X155947619Y-83273152D02*
X156138095Y-83273152D01*
X156138095Y-83273152D02*
X156233333Y-83320771D01*
X155804762Y-83892200D02*
X155900000Y-83939819D01*
X155900000Y-83939819D02*
X156138095Y-83939819D01*
X156138095Y-83939819D02*
X156233333Y-83892200D01*
X156233333Y-83892200D02*
X156280952Y-83796961D01*
X156280952Y-83796961D02*
X156280952Y-83701723D01*
X156280952Y-83701723D02*
X156233333Y-83606485D01*
X156233333Y-83606485D02*
X156138095Y-83558866D01*
X156138095Y-83558866D02*
X155900000Y-83558866D01*
X155900000Y-83558866D02*
X155804762Y-83511247D01*
X155328571Y-83939819D02*
X155328571Y-83273152D01*
X155328571Y-83368390D02*
X155280952Y-83320771D01*
X155280952Y-83320771D02*
X155185714Y-83273152D01*
X155185714Y-83273152D02*
X155042857Y-83273152D01*
X155042857Y-83273152D02*
X154947619Y-83320771D01*
X154947619Y-83320771D02*
X154900000Y-83416009D01*
X154900000Y-83416009D02*
X154900000Y-83939819D01*
X154900000Y-83416009D02*
X154852381Y-83320771D01*
X154852381Y-83320771D02*
X154757143Y-83273152D01*
X154757143Y-83273152D02*
X154614286Y-83273152D01*
X154614286Y-83273152D02*
X154519047Y-83320771D01*
X154519047Y-83320771D02*
X154471428Y-83416009D01*
X154471428Y-83416009D02*
X154471428Y-83939819D01*
X153233333Y-83939819D02*
X153233333Y-82939819D01*
X153233333Y-83416009D02*
X152661905Y-83416009D01*
X152661905Y-83939819D02*
X152661905Y-82939819D01*
X151757143Y-83273152D02*
X151757143Y-83939819D01*
X152185714Y-83273152D02*
X152185714Y-83796961D01*
X152185714Y-83796961D02*
X152138095Y-83892200D01*
X152138095Y-83892200D02*
X152042857Y-83939819D01*
X152042857Y-83939819D02*
X151900000Y-83939819D01*
X151900000Y-83939819D02*
X151804762Y-83892200D01*
X151804762Y-83892200D02*
X151757143Y-83844580D01*
X151423809Y-83273152D02*
X151042857Y-83273152D01*
X151280952Y-82939819D02*
X151280952Y-83796961D01*
X151280952Y-83796961D02*
X151233333Y-83892200D01*
X151233333Y-83892200D02*
X151138095Y-83939819D01*
X151138095Y-83939819D02*
X151042857Y-83939819D01*
X150280952Y-83892200D02*
X150376190Y-83939819D01*
X150376190Y-83939819D02*
X150566666Y-83939819D01*
X150566666Y-83939819D02*
X150661904Y-83892200D01*
X150661904Y-83892200D02*
X150709523Y-83844580D01*
X150709523Y-83844580D02*
X150757142Y-83749342D01*
X150757142Y-83749342D02*
X150757142Y-83463628D01*
X150757142Y-83463628D02*
X150709523Y-83368390D01*
X150709523Y-83368390D02*
X150661904Y-83320771D01*
X150661904Y-83320771D02*
X150566666Y-83273152D01*
X150566666Y-83273152D02*
X150376190Y-83273152D01*
X150376190Y-83273152D02*
X150280952Y-83320771D01*
X149852380Y-83939819D02*
X149852380Y-82939819D01*
X149423809Y-83939819D02*
X149423809Y-83416009D01*
X149423809Y-83416009D02*
X149471428Y-83320771D01*
X149471428Y-83320771D02*
X149566666Y-83273152D01*
X149566666Y-83273152D02*
X149709523Y-83273152D01*
X149709523Y-83273152D02*
X149804761Y-83320771D01*
X149804761Y-83320771D02*
X149852380Y-83368390D01*
X148947618Y-83939819D02*
X148947618Y-83273152D01*
X148947618Y-82939819D02*
X148995237Y-82987438D01*
X148995237Y-82987438D02*
X148947618Y-83035057D01*
X148947618Y-83035057D02*
X148899999Y-82987438D01*
X148899999Y-82987438D02*
X148947618Y-82939819D01*
X148947618Y-82939819D02*
X148947618Y-83035057D01*
X148471428Y-83273152D02*
X148471428Y-83939819D01*
X148471428Y-83368390D02*
X148423809Y-83320771D01*
X148423809Y-83320771D02*
X148328571Y-83273152D01*
X148328571Y-83273152D02*
X148185714Y-83273152D01*
X148185714Y-83273152D02*
X148090476Y-83320771D01*
X148090476Y-83320771D02*
X148042857Y-83416009D01*
X148042857Y-83416009D02*
X148042857Y-83939819D01*
X147614285Y-83892200D02*
X147519047Y-83939819D01*
X147519047Y-83939819D02*
X147328571Y-83939819D01*
X147328571Y-83939819D02*
X147233333Y-83892200D01*
X147233333Y-83892200D02*
X147185714Y-83796961D01*
X147185714Y-83796961D02*
X147185714Y-83749342D01*
X147185714Y-83749342D02*
X147233333Y-83654104D01*
X147233333Y-83654104D02*
X147328571Y-83606485D01*
X147328571Y-83606485D02*
X147471428Y-83606485D01*
X147471428Y-83606485D02*
X147566666Y-83558866D01*
X147566666Y-83558866D02*
X147614285Y-83463628D01*
X147614285Y-83463628D02*
X147614285Y-83416009D01*
X147614285Y-83416009D02*
X147566666Y-83320771D01*
X147566666Y-83320771D02*
X147471428Y-83273152D01*
X147471428Y-83273152D02*
X147328571Y-83273152D01*
X147328571Y-83273152D02*
X147233333Y-83320771D01*
X146614285Y-83939819D02*
X146709523Y-83892200D01*
X146709523Y-83892200D02*
X146757142Y-83844580D01*
X146757142Y-83844580D02*
X146804761Y-83749342D01*
X146804761Y-83749342D02*
X146804761Y-83463628D01*
X146804761Y-83463628D02*
X146757142Y-83368390D01*
X146757142Y-83368390D02*
X146709523Y-83320771D01*
X146709523Y-83320771D02*
X146614285Y-83273152D01*
X146614285Y-83273152D02*
X146471428Y-83273152D01*
X146471428Y-83273152D02*
X146376190Y-83320771D01*
X146376190Y-83320771D02*
X146328571Y-83368390D01*
X146328571Y-83368390D02*
X146280952Y-83463628D01*
X146280952Y-83463628D02*
X146280952Y-83749342D01*
X146280952Y-83749342D02*
X146328571Y-83844580D01*
X146328571Y-83844580D02*
X146376190Y-83892200D01*
X146376190Y-83892200D02*
X146471428Y-83939819D01*
X146471428Y-83939819D02*
X146614285Y-83939819D01*
X145852380Y-83273152D02*
X145852380Y-83939819D01*
X145852380Y-83368390D02*
X145804761Y-83320771D01*
X145804761Y-83320771D02*
X145709523Y-83273152D01*
X145709523Y-83273152D02*
X145566666Y-83273152D01*
X145566666Y-83273152D02*
X145471428Y-83320771D01*
X145471428Y-83320771D02*
X145423809Y-83416009D01*
X145423809Y-83416009D02*
X145423809Y-83939819D01*
X158352382Y-85549819D02*
X158685715Y-85073628D01*
X158923810Y-85549819D02*
X158923810Y-84549819D01*
X158923810Y-84549819D02*
X158542858Y-84549819D01*
X158542858Y-84549819D02*
X158447620Y-84597438D01*
X158447620Y-84597438D02*
X158400001Y-84645057D01*
X158400001Y-84645057D02*
X158352382Y-84740295D01*
X158352382Y-84740295D02*
X158352382Y-84883152D01*
X158352382Y-84883152D02*
X158400001Y-84978390D01*
X158400001Y-84978390D02*
X158447620Y-85026009D01*
X158447620Y-85026009D02*
X158542858Y-85073628D01*
X158542858Y-85073628D02*
X158923810Y-85073628D01*
X158019048Y-84883152D02*
X157780953Y-85549819D01*
X157542858Y-84883152D02*
X157780953Y-85549819D01*
X157780953Y-85549819D02*
X157876191Y-85787914D01*
X157876191Y-85787914D02*
X157923810Y-85835533D01*
X157923810Y-85835533D02*
X158019048Y-85883152D01*
X156685715Y-85549819D02*
X157161905Y-85549819D01*
X157161905Y-85549819D02*
X157161905Y-84549819D01*
X156447619Y-84883152D02*
X156209524Y-85549819D01*
X155971429Y-84883152D02*
X156209524Y-85549819D01*
X156209524Y-85549819D02*
X156304762Y-85787914D01*
X156304762Y-85787914D02*
X156352381Y-85835533D01*
X156352381Y-85835533D02*
X156447619Y-85883152D01*
X155590476Y-84883152D02*
X155590476Y-85549819D01*
X155590476Y-84978390D02*
X155542857Y-84930771D01*
X155542857Y-84930771D02*
X155447619Y-84883152D01*
X155447619Y-84883152D02*
X155304762Y-84883152D01*
X155304762Y-84883152D02*
X155209524Y-84930771D01*
X155209524Y-84930771D02*
X155161905Y-85026009D01*
X155161905Y-85026009D02*
X155161905Y-85549819D01*
X154257143Y-85549819D02*
X154257143Y-84549819D01*
X154257143Y-85502200D02*
X154352381Y-85549819D01*
X154352381Y-85549819D02*
X154542857Y-85549819D01*
X154542857Y-85549819D02*
X154638095Y-85502200D01*
X154638095Y-85502200D02*
X154685714Y-85454580D01*
X154685714Y-85454580D02*
X154733333Y-85359342D01*
X154733333Y-85359342D02*
X154733333Y-85073628D01*
X154733333Y-85073628D02*
X154685714Y-84978390D01*
X154685714Y-84978390D02*
X154638095Y-84930771D01*
X154638095Y-84930771D02*
X154542857Y-84883152D01*
X154542857Y-84883152D02*
X154352381Y-84883152D01*
X154352381Y-84883152D02*
X154257143Y-84930771D01*
X152685714Y-85026009D02*
X152542857Y-85073628D01*
X152542857Y-85073628D02*
X152495238Y-85121247D01*
X152495238Y-85121247D02*
X152447619Y-85216485D01*
X152447619Y-85216485D02*
X152447619Y-85359342D01*
X152447619Y-85359342D02*
X152495238Y-85454580D01*
X152495238Y-85454580D02*
X152542857Y-85502200D01*
X152542857Y-85502200D02*
X152638095Y-85549819D01*
X152638095Y-85549819D02*
X153019047Y-85549819D01*
X153019047Y-85549819D02*
X153019047Y-84549819D01*
X153019047Y-84549819D02*
X152685714Y-84549819D01*
X152685714Y-84549819D02*
X152590476Y-84597438D01*
X152590476Y-84597438D02*
X152542857Y-84645057D01*
X152542857Y-84645057D02*
X152495238Y-84740295D01*
X152495238Y-84740295D02*
X152495238Y-84835533D01*
X152495238Y-84835533D02*
X152542857Y-84930771D01*
X152542857Y-84930771D02*
X152590476Y-84978390D01*
X152590476Y-84978390D02*
X152685714Y-85026009D01*
X152685714Y-85026009D02*
X153019047Y-85026009D01*
X151590476Y-84883152D02*
X151590476Y-85549819D01*
X152019047Y-84883152D02*
X152019047Y-85406961D01*
X152019047Y-85406961D02*
X151971428Y-85502200D01*
X151971428Y-85502200D02*
X151876190Y-85549819D01*
X151876190Y-85549819D02*
X151733333Y-85549819D01*
X151733333Y-85549819D02*
X151638095Y-85502200D01*
X151638095Y-85502200D02*
X151590476Y-85454580D01*
X150971428Y-85549819D02*
X151066666Y-85502200D01*
X151066666Y-85502200D02*
X151114285Y-85406961D01*
X151114285Y-85406961D02*
X151114285Y-84549819D01*
X150447618Y-85549819D02*
X150542856Y-85502200D01*
X150542856Y-85502200D02*
X150590475Y-85406961D01*
X150590475Y-85406961D02*
X150590475Y-84549819D01*
X150066665Y-85549819D02*
X150066665Y-84883152D01*
X150066665Y-84549819D02*
X150114284Y-84597438D01*
X150114284Y-84597438D02*
X150066665Y-84645057D01*
X150066665Y-84645057D02*
X150019046Y-84597438D01*
X150019046Y-84597438D02*
X150066665Y-84549819D01*
X150066665Y-84549819D02*
X150066665Y-84645057D01*
X149590475Y-84883152D02*
X149590475Y-85549819D01*
X149590475Y-84978390D02*
X149542856Y-84930771D01*
X149542856Y-84930771D02*
X149447618Y-84883152D01*
X149447618Y-84883152D02*
X149304761Y-84883152D01*
X149304761Y-84883152D02*
X149209523Y-84930771D01*
X149209523Y-84930771D02*
X149161904Y-85026009D01*
X149161904Y-85026009D02*
X149161904Y-85549819D01*
X148257142Y-84883152D02*
X148257142Y-85692676D01*
X148257142Y-85692676D02*
X148304761Y-85787914D01*
X148304761Y-85787914D02*
X148352380Y-85835533D01*
X148352380Y-85835533D02*
X148447618Y-85883152D01*
X148447618Y-85883152D02*
X148590475Y-85883152D01*
X148590475Y-85883152D02*
X148685713Y-85835533D01*
X148257142Y-85502200D02*
X148352380Y-85549819D01*
X148352380Y-85549819D02*
X148542856Y-85549819D01*
X148542856Y-85549819D02*
X148638094Y-85502200D01*
X148638094Y-85502200D02*
X148685713Y-85454580D01*
X148685713Y-85454580D02*
X148733332Y-85359342D01*
X148733332Y-85359342D02*
X148733332Y-85073628D01*
X148733332Y-85073628D02*
X148685713Y-84978390D01*
X148685713Y-84978390D02*
X148638094Y-84930771D01*
X148638094Y-84930771D02*
X148542856Y-84883152D01*
X148542856Y-84883152D02*
X148352380Y-84883152D01*
X148352380Y-84883152D02*
X148257142Y-84930771D01*
X147923808Y-84883152D02*
X147542856Y-84883152D01*
X147780951Y-84549819D02*
X147780951Y-85406961D01*
X147780951Y-85406961D02*
X147733332Y-85502200D01*
X147733332Y-85502200D02*
X147638094Y-85549819D01*
X147638094Y-85549819D02*
X147542856Y-85549819D01*
X147066665Y-85549819D02*
X147161903Y-85502200D01*
X147161903Y-85502200D02*
X147209522Y-85454580D01*
X147209522Y-85454580D02*
X147257141Y-85359342D01*
X147257141Y-85359342D02*
X147257141Y-85073628D01*
X147257141Y-85073628D02*
X147209522Y-84978390D01*
X147209522Y-84978390D02*
X147161903Y-84930771D01*
X147161903Y-84930771D02*
X147066665Y-84883152D01*
X147066665Y-84883152D02*
X146923808Y-84883152D01*
X146923808Y-84883152D02*
X146828570Y-84930771D01*
X146828570Y-84930771D02*
X146780951Y-84978390D01*
X146780951Y-84978390D02*
X146733332Y-85073628D01*
X146733332Y-85073628D02*
X146733332Y-85359342D01*
X146733332Y-85359342D02*
X146780951Y-85454580D01*
X146780951Y-85454580D02*
X146828570Y-85502200D01*
X146828570Y-85502200D02*
X146923808Y-85549819D01*
X146923808Y-85549819D02*
X147066665Y-85549819D01*
X146304760Y-84883152D02*
X146304760Y-85549819D01*
X146304760Y-84978390D02*
X146257141Y-84930771D01*
X146257141Y-84930771D02*
X146161903Y-84883152D01*
X146161903Y-84883152D02*
X146019046Y-84883152D01*
X146019046Y-84883152D02*
X145923808Y-84930771D01*
X145923808Y-84930771D02*
X145876189Y-85026009D01*
X145876189Y-85026009D02*
X145876189Y-85549819D01*
X156161905Y-87159819D02*
X156495238Y-86683628D01*
X156733333Y-87159819D02*
X156733333Y-86159819D01*
X156733333Y-86159819D02*
X156352381Y-86159819D01*
X156352381Y-86159819D02*
X156257143Y-86207438D01*
X156257143Y-86207438D02*
X156209524Y-86255057D01*
X156209524Y-86255057D02*
X156161905Y-86350295D01*
X156161905Y-86350295D02*
X156161905Y-86493152D01*
X156161905Y-86493152D02*
X156209524Y-86588390D01*
X156209524Y-86588390D02*
X156257143Y-86636009D01*
X156257143Y-86636009D02*
X156352381Y-86683628D01*
X156352381Y-86683628D02*
X156733333Y-86683628D01*
X155828571Y-86493152D02*
X155590476Y-87159819D01*
X155352381Y-86493152D02*
X155590476Y-87159819D01*
X155590476Y-87159819D02*
X155685714Y-87397914D01*
X155685714Y-87397914D02*
X155733333Y-87445533D01*
X155733333Y-87445533D02*
X155828571Y-87493152D01*
X154542857Y-87159819D02*
X154542857Y-86636009D01*
X154542857Y-86636009D02*
X154590476Y-86540771D01*
X154590476Y-86540771D02*
X154685714Y-86493152D01*
X154685714Y-86493152D02*
X154876190Y-86493152D01*
X154876190Y-86493152D02*
X154971428Y-86540771D01*
X154542857Y-87112200D02*
X154638095Y-87159819D01*
X154638095Y-87159819D02*
X154876190Y-87159819D01*
X154876190Y-87159819D02*
X154971428Y-87112200D01*
X154971428Y-87112200D02*
X155019047Y-87016961D01*
X155019047Y-87016961D02*
X155019047Y-86921723D01*
X155019047Y-86921723D02*
X154971428Y-86826485D01*
X154971428Y-86826485D02*
X154876190Y-86778866D01*
X154876190Y-86778866D02*
X154638095Y-86778866D01*
X154638095Y-86778866D02*
X154542857Y-86731247D01*
X154066666Y-86493152D02*
X154066666Y-87159819D01*
X154066666Y-86588390D02*
X154019047Y-86540771D01*
X154019047Y-86540771D02*
X153923809Y-86493152D01*
X153923809Y-86493152D02*
X153780952Y-86493152D01*
X153780952Y-86493152D02*
X153685714Y-86540771D01*
X153685714Y-86540771D02*
X153638095Y-86636009D01*
X153638095Y-86636009D02*
X153638095Y-87159819D01*
X152399999Y-87159819D02*
X152399999Y-86159819D01*
X152399999Y-86159819D02*
X152019047Y-86159819D01*
X152019047Y-86159819D02*
X151923809Y-86207438D01*
X151923809Y-86207438D02*
X151876190Y-86255057D01*
X151876190Y-86255057D02*
X151828571Y-86350295D01*
X151828571Y-86350295D02*
X151828571Y-86493152D01*
X151828571Y-86493152D02*
X151876190Y-86588390D01*
X151876190Y-86588390D02*
X151923809Y-86636009D01*
X151923809Y-86636009D02*
X152019047Y-86683628D01*
X152019047Y-86683628D02*
X152399999Y-86683628D01*
X150971428Y-87159819D02*
X150971428Y-86636009D01*
X150971428Y-86636009D02*
X151019047Y-86540771D01*
X151019047Y-86540771D02*
X151114285Y-86493152D01*
X151114285Y-86493152D02*
X151304761Y-86493152D01*
X151304761Y-86493152D02*
X151399999Y-86540771D01*
X150971428Y-87112200D02*
X151066666Y-87159819D01*
X151066666Y-87159819D02*
X151304761Y-87159819D01*
X151304761Y-87159819D02*
X151399999Y-87112200D01*
X151399999Y-87112200D02*
X151447618Y-87016961D01*
X151447618Y-87016961D02*
X151447618Y-86921723D01*
X151447618Y-86921723D02*
X151399999Y-86826485D01*
X151399999Y-86826485D02*
X151304761Y-86778866D01*
X151304761Y-86778866D02*
X151066666Y-86778866D01*
X151066666Y-86778866D02*
X150971428Y-86731247D01*
X150495237Y-87159819D02*
X150495237Y-86493152D01*
X150495237Y-86683628D02*
X150447618Y-86588390D01*
X150447618Y-86588390D02*
X150399999Y-86540771D01*
X150399999Y-86540771D02*
X150304761Y-86493152D01*
X150304761Y-86493152D02*
X150209523Y-86493152D01*
X149876189Y-87159819D02*
X149876189Y-86159819D01*
X149780951Y-86778866D02*
X149495237Y-87159819D01*
X149495237Y-86493152D02*
X149876189Y-86874104D01*
X148685713Y-87112200D02*
X148780951Y-87159819D01*
X148780951Y-87159819D02*
X148971427Y-87159819D01*
X148971427Y-87159819D02*
X149066665Y-87112200D01*
X149066665Y-87112200D02*
X149114284Y-87016961D01*
X149114284Y-87016961D02*
X149114284Y-86636009D01*
X149114284Y-86636009D02*
X149066665Y-86540771D01*
X149066665Y-86540771D02*
X148971427Y-86493152D01*
X148971427Y-86493152D02*
X148780951Y-86493152D01*
X148780951Y-86493152D02*
X148685713Y-86540771D01*
X148685713Y-86540771D02*
X148638094Y-86636009D01*
X148638094Y-86636009D02*
X148638094Y-86731247D01*
X148638094Y-86731247D02*
X149114284Y-86826485D01*
X148209522Y-87159819D02*
X148209522Y-86493152D01*
X148209522Y-86683628D02*
X148161903Y-86588390D01*
X148161903Y-86588390D02*
X148114284Y-86540771D01*
X148114284Y-86540771D02*
X148019046Y-86493152D01*
X148019046Y-86493152D02*
X147923808Y-86493152D01*
X158495238Y-88246009D02*
X158161905Y-88246009D01*
X158019048Y-88769819D02*
X158495238Y-88769819D01*
X158495238Y-88769819D02*
X158495238Y-87769819D01*
X158495238Y-87769819D02*
X158019048Y-87769819D01*
X157733333Y-88103152D02*
X157352381Y-88103152D01*
X157590476Y-87769819D02*
X157590476Y-88626961D01*
X157590476Y-88626961D02*
X157542857Y-88722200D01*
X157542857Y-88722200D02*
X157447619Y-88769819D01*
X157447619Y-88769819D02*
X157352381Y-88769819D01*
X157019047Y-88769819D02*
X157019047Y-87769819D01*
X156590476Y-88769819D02*
X156590476Y-88246009D01*
X156590476Y-88246009D02*
X156638095Y-88150771D01*
X156638095Y-88150771D02*
X156733333Y-88103152D01*
X156733333Y-88103152D02*
X156876190Y-88103152D01*
X156876190Y-88103152D02*
X156971428Y-88150771D01*
X156971428Y-88150771D02*
X157019047Y-88198390D01*
X155685714Y-88769819D02*
X155685714Y-88246009D01*
X155685714Y-88246009D02*
X155733333Y-88150771D01*
X155733333Y-88150771D02*
X155828571Y-88103152D01*
X155828571Y-88103152D02*
X156019047Y-88103152D01*
X156019047Y-88103152D02*
X156114285Y-88150771D01*
X155685714Y-88722200D02*
X155780952Y-88769819D01*
X155780952Y-88769819D02*
X156019047Y-88769819D01*
X156019047Y-88769819D02*
X156114285Y-88722200D01*
X156114285Y-88722200D02*
X156161904Y-88626961D01*
X156161904Y-88626961D02*
X156161904Y-88531723D01*
X156161904Y-88531723D02*
X156114285Y-88436485D01*
X156114285Y-88436485D02*
X156019047Y-88388866D01*
X156019047Y-88388866D02*
X155780952Y-88388866D01*
X155780952Y-88388866D02*
X155685714Y-88341247D01*
X155209523Y-88103152D02*
X155209523Y-88769819D01*
X155209523Y-88198390D02*
X155161904Y-88150771D01*
X155161904Y-88150771D02*
X155066666Y-88103152D01*
X155066666Y-88103152D02*
X154923809Y-88103152D01*
X154923809Y-88103152D02*
X154828571Y-88150771D01*
X154828571Y-88150771D02*
X154780952Y-88246009D01*
X154780952Y-88246009D02*
X154780952Y-88769819D01*
X153209523Y-88246009D02*
X153066666Y-88293628D01*
X153066666Y-88293628D02*
X153019047Y-88341247D01*
X153019047Y-88341247D02*
X152971428Y-88436485D01*
X152971428Y-88436485D02*
X152971428Y-88579342D01*
X152971428Y-88579342D02*
X153019047Y-88674580D01*
X153019047Y-88674580D02*
X153066666Y-88722200D01*
X153066666Y-88722200D02*
X153161904Y-88769819D01*
X153161904Y-88769819D02*
X153542856Y-88769819D01*
X153542856Y-88769819D02*
X153542856Y-87769819D01*
X153542856Y-87769819D02*
X153209523Y-87769819D01*
X153209523Y-87769819D02*
X153114285Y-87817438D01*
X153114285Y-87817438D02*
X153066666Y-87865057D01*
X153066666Y-87865057D02*
X153019047Y-87960295D01*
X153019047Y-87960295D02*
X153019047Y-88055533D01*
X153019047Y-88055533D02*
X153066666Y-88150771D01*
X153066666Y-88150771D02*
X153114285Y-88198390D01*
X153114285Y-88198390D02*
X153209523Y-88246009D01*
X153209523Y-88246009D02*
X153542856Y-88246009D01*
X152114285Y-88769819D02*
X152114285Y-88246009D01*
X152114285Y-88246009D02*
X152161904Y-88150771D01*
X152161904Y-88150771D02*
X152257142Y-88103152D01*
X152257142Y-88103152D02*
X152447618Y-88103152D01*
X152447618Y-88103152D02*
X152542856Y-88150771D01*
X152114285Y-88722200D02*
X152209523Y-88769819D01*
X152209523Y-88769819D02*
X152447618Y-88769819D01*
X152447618Y-88769819D02*
X152542856Y-88722200D01*
X152542856Y-88722200D02*
X152590475Y-88626961D01*
X152590475Y-88626961D02*
X152590475Y-88531723D01*
X152590475Y-88531723D02*
X152542856Y-88436485D01*
X152542856Y-88436485D02*
X152447618Y-88388866D01*
X152447618Y-88388866D02*
X152209523Y-88388866D01*
X152209523Y-88388866D02*
X152114285Y-88341247D01*
X151638094Y-88769819D02*
X151638094Y-88103152D01*
X151638094Y-88293628D02*
X151590475Y-88198390D01*
X151590475Y-88198390D02*
X151542856Y-88150771D01*
X151542856Y-88150771D02*
X151447618Y-88103152D01*
X151447618Y-88103152D02*
X151352380Y-88103152D01*
X150590475Y-88769819D02*
X150590475Y-88246009D01*
X150590475Y-88246009D02*
X150638094Y-88150771D01*
X150638094Y-88150771D02*
X150733332Y-88103152D01*
X150733332Y-88103152D02*
X150923808Y-88103152D01*
X150923808Y-88103152D02*
X151019046Y-88150771D01*
X150590475Y-88722200D02*
X150685713Y-88769819D01*
X150685713Y-88769819D02*
X150923808Y-88769819D01*
X150923808Y-88769819D02*
X151019046Y-88722200D01*
X151019046Y-88722200D02*
X151066665Y-88626961D01*
X151066665Y-88626961D02*
X151066665Y-88531723D01*
X151066665Y-88531723D02*
X151019046Y-88436485D01*
X151019046Y-88436485D02*
X150923808Y-88388866D01*
X150923808Y-88388866D02*
X150685713Y-88388866D01*
X150685713Y-88388866D02*
X150590475Y-88341247D01*
X150114284Y-88103152D02*
X150114284Y-88769819D01*
X150114284Y-88198390D02*
X150066665Y-88150771D01*
X150066665Y-88150771D02*
X149971427Y-88103152D01*
X149971427Y-88103152D02*
X149828570Y-88103152D01*
X149828570Y-88103152D02*
X149733332Y-88150771D01*
X149733332Y-88150771D02*
X149685713Y-88246009D01*
X149685713Y-88246009D02*
X149685713Y-88769819D01*
X148780951Y-88722200D02*
X148876189Y-88769819D01*
X148876189Y-88769819D02*
X149066665Y-88769819D01*
X149066665Y-88769819D02*
X149161903Y-88722200D01*
X149161903Y-88722200D02*
X149209522Y-88674580D01*
X149209522Y-88674580D02*
X149257141Y-88579342D01*
X149257141Y-88579342D02*
X149257141Y-88293628D01*
X149257141Y-88293628D02*
X149209522Y-88198390D01*
X149209522Y-88198390D02*
X149161903Y-88150771D01*
X149161903Y-88150771D02*
X149066665Y-88103152D01*
X149066665Y-88103152D02*
X148876189Y-88103152D01*
X148876189Y-88103152D02*
X148780951Y-88150771D01*
X148447617Y-88103152D02*
X147923808Y-88103152D01*
X147923808Y-88103152D02*
X148447617Y-88769819D01*
X148447617Y-88769819D02*
X147923808Y-88769819D01*
X147114284Y-88103152D02*
X147114284Y-88769819D01*
X147542855Y-88103152D02*
X147542855Y-88626961D01*
X147542855Y-88626961D02*
X147495236Y-88722200D01*
X147495236Y-88722200D02*
X147399998Y-88769819D01*
X147399998Y-88769819D02*
X147257141Y-88769819D01*
X147257141Y-88769819D02*
X147161903Y-88722200D01*
X147161903Y-88722200D02*
X147114284Y-88674580D01*
X146638093Y-88769819D02*
X146638093Y-87769819D01*
X146542855Y-88388866D02*
X146257141Y-88769819D01*
X146257141Y-88103152D02*
X146638093Y-88484104D01*
X142776411Y-119630819D02*
X143347839Y-119630819D01*
X143062125Y-119630819D02*
X143062125Y-118630819D01*
X143062125Y-118630819D02*
X143157363Y-118773676D01*
X143157363Y-118773676D02*
X143252601Y-118868914D01*
X143252601Y-118868914D02*
X143347839Y-118916533D01*
X142347839Y-119249866D02*
X141585935Y-119249866D01*
X141966887Y-119630819D02*
X141966887Y-118868914D01*
X143300220Y-122551866D02*
X142538316Y-122551866D01*
X163715458Y-111518819D02*
X163096411Y-111518819D01*
X163096411Y-111518819D02*
X163429744Y-111899771D01*
X163429744Y-111899771D02*
X163286887Y-111899771D01*
X163286887Y-111899771D02*
X163191649Y-111947390D01*
X163191649Y-111947390D02*
X163144030Y-111995009D01*
X163144030Y-111995009D02*
X163096411Y-112090247D01*
X163096411Y-112090247D02*
X163096411Y-112328342D01*
X163096411Y-112328342D02*
X163144030Y-112423580D01*
X163144030Y-112423580D02*
X163191649Y-112471200D01*
X163191649Y-112471200D02*
X163286887Y-112518819D01*
X163286887Y-112518819D02*
X163572601Y-112518819D01*
X163572601Y-112518819D02*
X163667839Y-112471200D01*
X163667839Y-112471200D02*
X163715458Y-112423580D01*
X162667839Y-112423580D02*
X162620220Y-112471200D01*
X162620220Y-112471200D02*
X162667839Y-112518819D01*
X162667839Y-112518819D02*
X162715458Y-112471200D01*
X162715458Y-112471200D02*
X162667839Y-112423580D01*
X162667839Y-112423580D02*
X162667839Y-112518819D01*
X162286887Y-111518819D02*
X161667840Y-111518819D01*
X161667840Y-111518819D02*
X162001173Y-111899771D01*
X162001173Y-111899771D02*
X161858316Y-111899771D01*
X161858316Y-111899771D02*
X161763078Y-111947390D01*
X161763078Y-111947390D02*
X161715459Y-111995009D01*
X161715459Y-111995009D02*
X161667840Y-112090247D01*
X161667840Y-112090247D02*
X161667840Y-112328342D01*
X161667840Y-112328342D02*
X161715459Y-112423580D01*
X161715459Y-112423580D02*
X161763078Y-112471200D01*
X161763078Y-112471200D02*
X161858316Y-112518819D01*
X161858316Y-112518819D02*
X162144030Y-112518819D01*
X162144030Y-112518819D02*
X162239268Y-112471200D01*
X162239268Y-112471200D02*
X162286887Y-112423580D01*
X161382125Y-111518819D02*
X161048792Y-112518819D01*
X161048792Y-112518819D02*
X160715459Y-111518819D01*
X163048792Y-102358819D02*
X163382125Y-101882628D01*
X163620220Y-102358819D02*
X163620220Y-101358819D01*
X163620220Y-101358819D02*
X163239268Y-101358819D01*
X163239268Y-101358819D02*
X163144030Y-101406438D01*
X163144030Y-101406438D02*
X163096411Y-101454057D01*
X163096411Y-101454057D02*
X163048792Y-101549295D01*
X163048792Y-101549295D02*
X163048792Y-101692152D01*
X163048792Y-101692152D02*
X163096411Y-101787390D01*
X163096411Y-101787390D02*
X163144030Y-101835009D01*
X163144030Y-101835009D02*
X163239268Y-101882628D01*
X163239268Y-101882628D02*
X163620220Y-101882628D01*
X162667839Y-102311200D02*
X162524982Y-102358819D01*
X162524982Y-102358819D02*
X162286887Y-102358819D01*
X162286887Y-102358819D02*
X162191649Y-102311200D01*
X162191649Y-102311200D02*
X162144030Y-102263580D01*
X162144030Y-102263580D02*
X162096411Y-102168342D01*
X162096411Y-102168342D02*
X162096411Y-102073104D01*
X162096411Y-102073104D02*
X162144030Y-101977866D01*
X162144030Y-101977866D02*
X162191649Y-101930247D01*
X162191649Y-101930247D02*
X162286887Y-101882628D01*
X162286887Y-101882628D02*
X162477363Y-101835009D01*
X162477363Y-101835009D02*
X162572601Y-101787390D01*
X162572601Y-101787390D02*
X162620220Y-101739771D01*
X162620220Y-101739771D02*
X162667839Y-101644533D01*
X162667839Y-101644533D02*
X162667839Y-101549295D01*
X162667839Y-101549295D02*
X162620220Y-101454057D01*
X162620220Y-101454057D02*
X162572601Y-101406438D01*
X162572601Y-101406438D02*
X162477363Y-101358819D01*
X162477363Y-101358819D02*
X162239268Y-101358819D01*
X162239268Y-101358819D02*
X162096411Y-101406438D01*
X161810696Y-101358819D02*
X161239268Y-101358819D01*
X161524982Y-102358819D02*
X161524982Y-101358819D01*
X143300220Y-136521866D02*
X142538316Y-136521866D01*
X143157411Y-110169438D02*
X143252649Y-110121819D01*
X143252649Y-110121819D02*
X143395506Y-110121819D01*
X143395506Y-110121819D02*
X143538363Y-110169438D01*
X143538363Y-110169438D02*
X143633601Y-110264676D01*
X143633601Y-110264676D02*
X143681220Y-110359914D01*
X143681220Y-110359914D02*
X143728839Y-110550390D01*
X143728839Y-110550390D02*
X143728839Y-110693247D01*
X143728839Y-110693247D02*
X143681220Y-110883723D01*
X143681220Y-110883723D02*
X143633601Y-110978961D01*
X143633601Y-110978961D02*
X143538363Y-111074200D01*
X143538363Y-111074200D02*
X143395506Y-111121819D01*
X143395506Y-111121819D02*
X143300268Y-111121819D01*
X143300268Y-111121819D02*
X143157411Y-111074200D01*
X143157411Y-111074200D02*
X143109792Y-111026580D01*
X143109792Y-111026580D02*
X143109792Y-110693247D01*
X143109792Y-110693247D02*
X143300268Y-110693247D01*
X142681220Y-111121819D02*
X142681220Y-110121819D01*
X142681220Y-110121819D02*
X142109792Y-111121819D01*
X142109792Y-111121819D02*
X142109792Y-110121819D01*
X141633601Y-111121819D02*
X141633601Y-110121819D01*
X141633601Y-110121819D02*
X141395506Y-110121819D01*
X141395506Y-110121819D02*
X141252649Y-110169438D01*
X141252649Y-110169438D02*
X141157411Y-110264676D01*
X141157411Y-110264676D02*
X141109792Y-110359914D01*
X141109792Y-110359914D02*
X141062173Y-110550390D01*
X141062173Y-110550390D02*
X141062173Y-110693247D01*
X141062173Y-110693247D02*
X141109792Y-110883723D01*
X141109792Y-110883723D02*
X141157411Y-110978961D01*
X141157411Y-110978961D02*
X141252649Y-111074200D01*
X141252649Y-111074200D02*
X141395506Y-111121819D01*
X141395506Y-111121819D02*
X141633601Y-111121819D01*
X162223220Y-136648866D02*
X161461316Y-136648866D01*
X143395458Y-132473819D02*
X142776411Y-132473819D01*
X142776411Y-132473819D02*
X143109744Y-132854771D01*
X143109744Y-132854771D02*
X142966887Y-132854771D01*
X142966887Y-132854771D02*
X142871649Y-132902390D01*
X142871649Y-132902390D02*
X142824030Y-132950009D01*
X142824030Y-132950009D02*
X142776411Y-133045247D01*
X142776411Y-133045247D02*
X142776411Y-133283342D01*
X142776411Y-133283342D02*
X142824030Y-133378580D01*
X142824030Y-133378580D02*
X142871649Y-133426200D01*
X142871649Y-133426200D02*
X142966887Y-133473819D01*
X142966887Y-133473819D02*
X143252601Y-133473819D01*
X143252601Y-133473819D02*
X143347839Y-133426200D01*
X143347839Y-133426200D02*
X143395458Y-133378580D01*
X142347839Y-133092866D02*
X141585935Y-133092866D01*
X141966887Y-133473819D02*
X141966887Y-132711914D01*
X143300220Y-143506866D02*
X142538316Y-143506866D01*
X162599618Y-133077009D02*
X162456761Y-133124628D01*
X162456761Y-133124628D02*
X162409142Y-133172247D01*
X162409142Y-133172247D02*
X162361523Y-133267485D01*
X162361523Y-133267485D02*
X162361523Y-133410342D01*
X162361523Y-133410342D02*
X162409142Y-133505580D01*
X162409142Y-133505580D02*
X162456761Y-133553200D01*
X162456761Y-133553200D02*
X162551999Y-133600819D01*
X162551999Y-133600819D02*
X162932951Y-133600819D01*
X162932951Y-133600819D02*
X162932951Y-132600819D01*
X162932951Y-132600819D02*
X162599618Y-132600819D01*
X162599618Y-132600819D02*
X162504380Y-132648438D01*
X162504380Y-132648438D02*
X162456761Y-132696057D01*
X162456761Y-132696057D02*
X162409142Y-132791295D01*
X162409142Y-132791295D02*
X162409142Y-132886533D01*
X162409142Y-132886533D02*
X162456761Y-132981771D01*
X162456761Y-132981771D02*
X162504380Y-133029390D01*
X162504380Y-133029390D02*
X162599618Y-133077009D01*
X162599618Y-133077009D02*
X162932951Y-133077009D01*
X161932951Y-133219866D02*
X161171047Y-133219866D01*
X161551999Y-133600819D02*
X161551999Y-132838914D01*
X162858220Y-140585819D02*
X162858220Y-139585819D01*
X162858220Y-139585819D02*
X162477268Y-139585819D01*
X162477268Y-139585819D02*
X162382030Y-139633438D01*
X162382030Y-139633438D02*
X162334411Y-139681057D01*
X162334411Y-139681057D02*
X162286792Y-139776295D01*
X162286792Y-139776295D02*
X162286792Y-139919152D01*
X162286792Y-139919152D02*
X162334411Y-140014390D01*
X162334411Y-140014390D02*
X162382030Y-140062009D01*
X162382030Y-140062009D02*
X162477268Y-140109628D01*
X162477268Y-140109628D02*
X162858220Y-140109628D01*
X161858220Y-140204866D02*
X161096316Y-140204866D01*
X161477268Y-140585819D02*
X161477268Y-139823914D01*
X143649458Y-102501819D02*
X143030411Y-102501819D01*
X143030411Y-102501819D02*
X143363744Y-102882771D01*
X143363744Y-102882771D02*
X143220887Y-102882771D01*
X143220887Y-102882771D02*
X143125649Y-102930390D01*
X143125649Y-102930390D02*
X143078030Y-102978009D01*
X143078030Y-102978009D02*
X143030411Y-103073247D01*
X143030411Y-103073247D02*
X143030411Y-103311342D01*
X143030411Y-103311342D02*
X143078030Y-103406580D01*
X143078030Y-103406580D02*
X143125649Y-103454200D01*
X143125649Y-103454200D02*
X143220887Y-103501819D01*
X143220887Y-103501819D02*
X143506601Y-103501819D01*
X143506601Y-103501819D02*
X143601839Y-103454200D01*
X143601839Y-103454200D02*
X143649458Y-103406580D01*
X142601839Y-103406580D02*
X142554220Y-103454200D01*
X142554220Y-103454200D02*
X142601839Y-103501819D01*
X142601839Y-103501819D02*
X142649458Y-103454200D01*
X142649458Y-103454200D02*
X142601839Y-103406580D01*
X142601839Y-103406580D02*
X142601839Y-103501819D01*
X142220887Y-102501819D02*
X141601840Y-102501819D01*
X141601840Y-102501819D02*
X141935173Y-102882771D01*
X141935173Y-102882771D02*
X141792316Y-102882771D01*
X141792316Y-102882771D02*
X141697078Y-102930390D01*
X141697078Y-102930390D02*
X141649459Y-102978009D01*
X141649459Y-102978009D02*
X141601840Y-103073247D01*
X141601840Y-103073247D02*
X141601840Y-103311342D01*
X141601840Y-103311342D02*
X141649459Y-103406580D01*
X141649459Y-103406580D02*
X141697078Y-103454200D01*
X141697078Y-103454200D02*
X141792316Y-103501819D01*
X141792316Y-103501819D02*
X142078030Y-103501819D01*
X142078030Y-103501819D02*
X142173268Y-103454200D01*
X142173268Y-103454200D02*
X142220887Y-103406580D01*
X141316125Y-102501819D02*
X140982792Y-103501819D01*
X140982792Y-103501819D02*
X140649459Y-102501819D01*
X143697077Y-105041819D02*
X143125649Y-105041819D01*
X143411363Y-106041819D02*
X143411363Y-105041819D01*
X142887553Y-105041819D02*
X142220887Y-106041819D01*
X142220887Y-105041819D02*
X142887553Y-106041819D01*
X163667839Y-109931200D02*
X163524982Y-109978819D01*
X163524982Y-109978819D02*
X163286887Y-109978819D01*
X163286887Y-109978819D02*
X163191649Y-109931200D01*
X163191649Y-109931200D02*
X163144030Y-109883580D01*
X163144030Y-109883580D02*
X163096411Y-109788342D01*
X163096411Y-109788342D02*
X163096411Y-109693104D01*
X163096411Y-109693104D02*
X163144030Y-109597866D01*
X163144030Y-109597866D02*
X163191649Y-109550247D01*
X163191649Y-109550247D02*
X163286887Y-109502628D01*
X163286887Y-109502628D02*
X163477363Y-109455009D01*
X163477363Y-109455009D02*
X163572601Y-109407390D01*
X163572601Y-109407390D02*
X163620220Y-109359771D01*
X163620220Y-109359771D02*
X163667839Y-109264533D01*
X163667839Y-109264533D02*
X163667839Y-109169295D01*
X163667839Y-109169295D02*
X163620220Y-109074057D01*
X163620220Y-109074057D02*
X163572601Y-109026438D01*
X163572601Y-109026438D02*
X163477363Y-108978819D01*
X163477363Y-108978819D02*
X163239268Y-108978819D01*
X163239268Y-108978819D02*
X163096411Y-109026438D01*
X162763077Y-108978819D02*
X162524982Y-109978819D01*
X162524982Y-109978819D02*
X162334506Y-109264533D01*
X162334506Y-109264533D02*
X162144030Y-109978819D01*
X162144030Y-109978819D02*
X161905935Y-108978819D01*
X160953554Y-109883580D02*
X161001173Y-109931200D01*
X161001173Y-109931200D02*
X161144030Y-109978819D01*
X161144030Y-109978819D02*
X161239268Y-109978819D01*
X161239268Y-109978819D02*
X161382125Y-109931200D01*
X161382125Y-109931200D02*
X161477363Y-109835961D01*
X161477363Y-109835961D02*
X161524982Y-109740723D01*
X161524982Y-109740723D02*
X161572601Y-109550247D01*
X161572601Y-109550247D02*
X161572601Y-109407390D01*
X161572601Y-109407390D02*
X161524982Y-109216914D01*
X161524982Y-109216914D02*
X161477363Y-109121676D01*
X161477363Y-109121676D02*
X161382125Y-109026438D01*
X161382125Y-109026438D02*
X161239268Y-108978819D01*
X161239268Y-108978819D02*
X161144030Y-108978819D01*
X161144030Y-108978819D02*
X161001173Y-109026438D01*
X161001173Y-109026438D02*
X160953554Y-109074057D01*
X160048792Y-109978819D02*
X160524982Y-109978819D01*
X160524982Y-109978819D02*
X160524982Y-108978819D01*
X159715458Y-109978819D02*
X159715458Y-108978819D01*
X159144030Y-109978819D02*
X159572601Y-109407390D01*
X159144030Y-108978819D02*
X159715458Y-109550247D01*
X162223220Y-143633866D02*
X161461316Y-143633866D01*
X163096411Y-106486438D02*
X163191649Y-106438819D01*
X163191649Y-106438819D02*
X163334506Y-106438819D01*
X163334506Y-106438819D02*
X163477363Y-106486438D01*
X163477363Y-106486438D02*
X163572601Y-106581676D01*
X163572601Y-106581676D02*
X163620220Y-106676914D01*
X163620220Y-106676914D02*
X163667839Y-106867390D01*
X163667839Y-106867390D02*
X163667839Y-107010247D01*
X163667839Y-107010247D02*
X163620220Y-107200723D01*
X163620220Y-107200723D02*
X163572601Y-107295961D01*
X163572601Y-107295961D02*
X163477363Y-107391200D01*
X163477363Y-107391200D02*
X163334506Y-107438819D01*
X163334506Y-107438819D02*
X163239268Y-107438819D01*
X163239268Y-107438819D02*
X163096411Y-107391200D01*
X163096411Y-107391200D02*
X163048792Y-107343580D01*
X163048792Y-107343580D02*
X163048792Y-107010247D01*
X163048792Y-107010247D02*
X163239268Y-107010247D01*
X162620220Y-107438819D02*
X162620220Y-106438819D01*
X162620220Y-106438819D02*
X162048792Y-107438819D01*
X162048792Y-107438819D02*
X162048792Y-106438819D01*
X161572601Y-107438819D02*
X161572601Y-106438819D01*
X161572601Y-106438819D02*
X161334506Y-106438819D01*
X161334506Y-106438819D02*
X161191649Y-106486438D01*
X161191649Y-106486438D02*
X161096411Y-106581676D01*
X161096411Y-106581676D02*
X161048792Y-106676914D01*
X161048792Y-106676914D02*
X161001173Y-106867390D01*
X161001173Y-106867390D02*
X161001173Y-107010247D01*
X161001173Y-107010247D02*
X161048792Y-107200723D01*
X161048792Y-107200723D02*
X161096411Y-107295961D01*
X161096411Y-107295961D02*
X161191649Y-107391200D01*
X161191649Y-107391200D02*
X161334506Y-107438819D01*
X161334506Y-107438819D02*
X161572601Y-107438819D01*
X143109792Y-108581819D02*
X143443125Y-108105628D01*
X143681220Y-108581819D02*
X143681220Y-107581819D01*
X143681220Y-107581819D02*
X143300268Y-107581819D01*
X143300268Y-107581819D02*
X143205030Y-107629438D01*
X143205030Y-107629438D02*
X143157411Y-107677057D01*
X143157411Y-107677057D02*
X143109792Y-107772295D01*
X143109792Y-107772295D02*
X143109792Y-107915152D01*
X143109792Y-107915152D02*
X143157411Y-108010390D01*
X143157411Y-108010390D02*
X143205030Y-108058009D01*
X143205030Y-108058009D02*
X143300268Y-108105628D01*
X143300268Y-108105628D02*
X143681220Y-108105628D01*
X142776458Y-107581819D02*
X142109792Y-108581819D01*
X142109792Y-107581819D02*
X142776458Y-108581819D01*
X143347839Y-125584057D02*
X143300220Y-125536438D01*
X143300220Y-125536438D02*
X143204982Y-125488819D01*
X143204982Y-125488819D02*
X142966887Y-125488819D01*
X142966887Y-125488819D02*
X142871649Y-125536438D01*
X142871649Y-125536438D02*
X142824030Y-125584057D01*
X142824030Y-125584057D02*
X142776411Y-125679295D01*
X142776411Y-125679295D02*
X142776411Y-125774533D01*
X142776411Y-125774533D02*
X142824030Y-125917390D01*
X142824030Y-125917390D02*
X143395458Y-126488819D01*
X143395458Y-126488819D02*
X142776411Y-126488819D01*
X142347839Y-126107866D02*
X141585935Y-126107866D01*
X141966887Y-126488819D02*
X141966887Y-125726914D01*
X163667839Y-99771200D02*
X163524982Y-99818819D01*
X163524982Y-99818819D02*
X163286887Y-99818819D01*
X163286887Y-99818819D02*
X163191649Y-99771200D01*
X163191649Y-99771200D02*
X163144030Y-99723580D01*
X163144030Y-99723580D02*
X163096411Y-99628342D01*
X163096411Y-99628342D02*
X163096411Y-99533104D01*
X163096411Y-99533104D02*
X163144030Y-99437866D01*
X163144030Y-99437866D02*
X163191649Y-99390247D01*
X163191649Y-99390247D02*
X163286887Y-99342628D01*
X163286887Y-99342628D02*
X163477363Y-99295009D01*
X163477363Y-99295009D02*
X163572601Y-99247390D01*
X163572601Y-99247390D02*
X163620220Y-99199771D01*
X163620220Y-99199771D02*
X163667839Y-99104533D01*
X163667839Y-99104533D02*
X163667839Y-99009295D01*
X163667839Y-99009295D02*
X163620220Y-98914057D01*
X163620220Y-98914057D02*
X163572601Y-98866438D01*
X163572601Y-98866438D02*
X163477363Y-98818819D01*
X163477363Y-98818819D02*
X163239268Y-98818819D01*
X163239268Y-98818819D02*
X163096411Y-98866438D01*
X162763077Y-98818819D02*
X162524982Y-99818819D01*
X162524982Y-99818819D02*
X162334506Y-99104533D01*
X162334506Y-99104533D02*
X162144030Y-99818819D01*
X162144030Y-99818819D02*
X161905935Y-98818819D01*
X161334506Y-98818819D02*
X161144030Y-98818819D01*
X161144030Y-98818819D02*
X161048792Y-98866438D01*
X161048792Y-98866438D02*
X160953554Y-98961676D01*
X160953554Y-98961676D02*
X160905935Y-99152152D01*
X160905935Y-99152152D02*
X160905935Y-99485485D01*
X160905935Y-99485485D02*
X160953554Y-99675961D01*
X160953554Y-99675961D02*
X161048792Y-99771200D01*
X161048792Y-99771200D02*
X161144030Y-99818819D01*
X161144030Y-99818819D02*
X161334506Y-99818819D01*
X161334506Y-99818819D02*
X161429744Y-99771200D01*
X161429744Y-99771200D02*
X161524982Y-99675961D01*
X161524982Y-99675961D02*
X161572601Y-99485485D01*
X161572601Y-99485485D02*
X161572601Y-99152152D01*
X161572601Y-99152152D02*
X161524982Y-98961676D01*
X161524982Y-98961676D02*
X161429744Y-98866438D01*
X161429744Y-98866438D02*
X161334506Y-98818819D01*
X143300220Y-129536866D02*
X142538316Y-129536866D01*
D12*
G04 #@! TO.C,J2*
X143790000Y-145590000D02*
X143790000Y-145190000D01*
X144430000Y-145590000D02*
X143790000Y-145590000D01*
X144030000Y-145350000D02*
X144030000Y-117230000D01*
X144490000Y-145350000D02*
X144490000Y-117230000D01*
X145590000Y-145350000D02*
X145590000Y-117230000D01*
X151750000Y-145350000D02*
X144030000Y-145350000D01*
X151750000Y-145350000D02*
X151750000Y-117230000D01*
X147649000Y-141185000D02*
X147521000Y-141314000D01*
X147409000Y-141015000D02*
X147316000Y-141109000D01*
X149865000Y-138970000D02*
X149771000Y-139064000D01*
X149659000Y-138765000D02*
X149531000Y-138894000D01*
X147649000Y-137685000D02*
X147521000Y-137814000D01*
X147409000Y-137515000D02*
X147316000Y-137609000D01*
X149865000Y-135470000D02*
X149771000Y-135564000D01*
X149659000Y-135265000D02*
X149531000Y-135394000D01*
X147649000Y-134185000D02*
X147521000Y-134314000D01*
X147409000Y-134015000D02*
X147316000Y-134109000D01*
X149865000Y-131970000D02*
X149771000Y-132064000D01*
X149659000Y-131765000D02*
X149531000Y-131894000D01*
X147649000Y-130685000D02*
X147521000Y-130814000D01*
X147409000Y-130515000D02*
X147316000Y-130609000D01*
X149865000Y-128470000D02*
X149771000Y-128564000D01*
X149659000Y-128265000D02*
X149531000Y-128394000D01*
X147649000Y-127185000D02*
X147521000Y-127314000D01*
X147409000Y-127015000D02*
X147316000Y-127109000D01*
X149865000Y-124970000D02*
X149771000Y-125064000D01*
X149659000Y-124765000D02*
X149531000Y-124894000D01*
X147649000Y-123685000D02*
X147521000Y-123814000D01*
X147409000Y-123515000D02*
X147316000Y-123609000D01*
X149865000Y-121470000D02*
X149771000Y-121564000D01*
X149659000Y-121265000D02*
X149531000Y-121394000D01*
X147649000Y-120185000D02*
X147521000Y-120314000D01*
X147409000Y-120015000D02*
X147316000Y-120109000D01*
X149865000Y-117970000D02*
X149771000Y-118064000D01*
X149659000Y-117765000D02*
X149531000Y-117894000D01*
X151750000Y-117230000D02*
X144030000Y-117230000D01*
X147700106Y-144965358D02*
G75*
G03*
X149456000Y-144980000I889894J1425356D01*
G01*
X146909902Y-143511326D02*
G75*
G03*
X147150000Y-144406000I1680112J-28671D01*
G01*
X147165279Y-142649736D02*
G75*
G03*
X146910000Y-143540000I1424711J-890261D01*
G01*
X150015358Y-144429894D02*
G75*
G03*
X150030000Y-142674000I-1425356J889894D01*
G01*
X149480193Y-142114496D02*
G75*
G03*
X147699000Y-142115000I-890193J-1425507D01*
G01*
X150270000Y-140040000D02*
G75*
G03*
X150270000Y-140040000I-1680000J0D01*
G01*
X150270000Y-136540000D02*
G75*
G03*
X150270000Y-136540000I-1680000J0D01*
G01*
X150270000Y-133040000D02*
G75*
G03*
X150270000Y-133040000I-1680000J0D01*
G01*
X150270000Y-129540000D02*
G75*
G03*
X150270000Y-129540000I-1680000J0D01*
G01*
X150270000Y-126040000D02*
G75*
G03*
X150270000Y-126040000I-1680000J0D01*
G01*
X150270000Y-122540000D02*
G75*
G03*
X150270000Y-122540000I-1680000J0D01*
G01*
X150270000Y-119040000D02*
G75*
G03*
X150270000Y-119040000I-1680000J0D01*
G01*
G04 #@! TO.C,TP11*
X163895000Y-77470000D02*
G75*
G03*
X163895000Y-77470000I-700000J0D01*
G01*
G04 #@! TO.C,TP3*
X160466000Y-107823000D02*
G75*
G03*
X160466000Y-107823000I-700000J0D01*
G01*
G04 #@! TO.C,TP10*
X168213000Y-77470000D02*
G75*
G03*
X168213000Y-77470000I-700000J0D01*
G01*
G04 #@! TO.C,TP8*
X156529000Y-112395000D02*
G75*
G03*
X156529000Y-112395000I-700000J0D01*
G01*
G04 #@! TO.C,TP5*
X163133000Y-90297000D02*
G75*
G03*
X163133000Y-90297000I-700000J0D01*
G01*
D13*
G04 #@! TO.C,J5*
X153347000Y-115838000D02*
X153347000Y-116788000D01*
X153347000Y-115838000D02*
X154897000Y-115838000D01*
X153347000Y-127788000D02*
X153347000Y-130288000D01*
X153347000Y-130288000D02*
X166947000Y-130288000D01*
X165397000Y-115838000D02*
X166947000Y-115838000D01*
X166947000Y-115838000D02*
X166947000Y-116788000D01*
X166947000Y-127788000D02*
X166947000Y-130288000D01*
X154897000Y-115837999D02*
G75*
G03*
X165397000Y-115837999I5250000J9038540D01*
G01*
X164447000Y-120363000D02*
G75*
G03*
X164447000Y-120363000I-100000J0D01*
G01*
D12*
G04 #@! TO.C,TP9*
X160974000Y-112903000D02*
G75*
G03*
X160974000Y-112903000I-700000J0D01*
G01*
G04 #@! TO.C,J3*
X140141000Y-111947000D02*
X137481000Y-111947000D01*
X140141000Y-104267000D02*
X140141000Y-111947000D01*
X140141000Y-104267000D02*
X137481000Y-104267000D01*
X140141000Y-102997000D02*
X140141000Y-101667000D01*
X140141000Y-101667000D02*
X138811000Y-101667000D01*
X137481000Y-104267000D02*
X137481000Y-111947000D01*
G04 #@! TO.C,TP7*
X160339000Y-93472000D02*
G75*
G03*
X160339000Y-93472000I-700000J0D01*
G01*
G04 #@! TO.C,J4*
X164913000Y-97984000D02*
X167573000Y-97984000D01*
X164913000Y-110744000D02*
X164913000Y-97984000D01*
X164913000Y-110744000D02*
X167573000Y-110744000D01*
X164913000Y-112014000D02*
X164913000Y-113344000D01*
X164913000Y-113344000D02*
X166243000Y-113344000D01*
X167573000Y-110744000D02*
X167573000Y-97984000D01*
G04 #@! TO.C,TP2*
X165546000Y-73406000D02*
G75*
G03*
X165546000Y-73406000I-700000J0D01*
G01*
G04 #@! TO.C,J1*
X161010000Y-130990000D02*
X161010000Y-131390000D01*
X160370000Y-130990000D02*
X161010000Y-130990000D01*
X160770000Y-131230000D02*
X160770000Y-145350000D01*
X160310000Y-131230000D02*
X160310000Y-145350000D01*
X159210000Y-131230000D02*
X159210000Y-145350000D01*
X153050000Y-131230000D02*
X160770000Y-131230000D01*
X153050000Y-131230000D02*
X153050000Y-145350000D01*
X157151000Y-135395000D02*
X157279000Y-135266000D01*
X157391000Y-135565000D02*
X157484000Y-135471000D01*
X154935000Y-137610000D02*
X155029000Y-137516000D01*
X155141000Y-137815000D02*
X155269000Y-137686000D01*
X157151000Y-138895000D02*
X157279000Y-138766000D01*
X157391000Y-139065000D02*
X157484000Y-138971000D01*
X154935000Y-141110000D02*
X155029000Y-141016000D01*
X155141000Y-141315000D02*
X155269000Y-141186000D01*
X157151000Y-142395000D02*
X157279000Y-142266000D01*
X157391000Y-142565000D02*
X157484000Y-142471000D01*
X154935000Y-144610000D02*
X155029000Y-144516000D01*
X155141000Y-144815000D02*
X155269000Y-144686000D01*
X153050000Y-145350000D02*
X160770000Y-145350000D01*
X157099894Y-131614642D02*
G75*
G03*
X155344000Y-131600000I-889894J-1425356D01*
G01*
X157890098Y-133068674D02*
G75*
G03*
X157650000Y-132174000I-1680112J28671D01*
G01*
X157634721Y-133930264D02*
G75*
G03*
X157890000Y-133040000I-1424711J890261D01*
G01*
X154784642Y-132150106D02*
G75*
G03*
X154770000Y-133906000I1425356J-889894D01*
G01*
X155319807Y-134465504D02*
G75*
G03*
X157101000Y-134465000I890193J1425507D01*
G01*
X157890000Y-136540000D02*
G75*
G03*
X157890000Y-136540000I-1680000J0D01*
G01*
X157890000Y-140040000D02*
G75*
G03*
X157890000Y-140040000I-1680000J0D01*
G01*
X157890000Y-143540000D02*
G75*
G03*
X157890000Y-143540000I-1680000J0D01*
G01*
G04 #@! TO.C,TP6*
X164022000Y-87884000D02*
G75*
G03*
X164022000Y-87884000I-700000J0D01*
G01*
G04 #@! TD*
%LPC*%
D14*
G04 #@! TO.C,H4*
X165100000Y-142875000D03*
G04 #@! TD*
G04 #@! TO.C,H1*
X139700000Y-66675000D03*
G04 #@! TD*
G04 #@! TO.C,H3*
X139700000Y-142875000D03*
G04 #@! TD*
D15*
G04 #@! TO.C,H5*
X137922000Y-83185000D03*
G04 #@! TD*
D14*
G04 #@! TO.C,H2*
X165100000Y-66675000D03*
G04 #@! TD*
D15*
G04 #@! TO.C,H7*
X163449000Y-71501000D03*
G04 #@! TD*
D16*
G04 #@! TO.C,U5*
X152654000Y-71501000D03*
G04 #@! TD*
D15*
G04 #@! TO.C,H6*
X137541000Y-136017000D03*
G04 #@! TD*
D17*
G04 #@! TO.C,J2*
X148590000Y-143540000D03*
D18*
X148590000Y-140040000D03*
X148590000Y-136540000D03*
X148590000Y-133040000D03*
X148590000Y-129540000D03*
X148590000Y-126040000D03*
X148590000Y-122540000D03*
X148590000Y-119040000D03*
G04 #@! TD*
D19*
G04 #@! TO.C,TP11*
X163195000Y-77470000D03*
G04 #@! TD*
G04 #@! TO.C,TP3*
X159766000Y-107823000D03*
G04 #@! TD*
G04 #@! TO.C,TP10*
X167513000Y-77470000D03*
G04 #@! TD*
G04 #@! TO.C,TP8*
X155829000Y-112395000D03*
G04 #@! TD*
G04 #@! TO.C,TP5*
X162433000Y-90297000D03*
G04 #@! TD*
D20*
G04 #@! TO.C,J5*
X163372000Y-120438000D03*
X162272000Y-120438000D03*
X161172000Y-120438000D03*
X160072000Y-120438000D03*
X158972000Y-120438000D03*
X157872000Y-120438000D03*
X156772000Y-120438000D03*
X155672000Y-120438000D03*
D21*
X153202000Y-118238000D03*
X153202000Y-126438000D03*
X167092000Y-126438000D03*
X167092000Y-118238000D03*
G04 #@! TD*
D19*
G04 #@! TO.C,TP9*
X160274000Y-112903000D03*
G04 #@! TD*
D22*
G04 #@! TO.C,J3*
X138811000Y-102997000D03*
D23*
X138811000Y-105537000D03*
X138811000Y-108077000D03*
X138811000Y-110617000D03*
G04 #@! TD*
D19*
G04 #@! TO.C,TP7*
X159639000Y-93472000D03*
G04 #@! TD*
D22*
G04 #@! TO.C,J4*
X166243000Y-112014000D03*
D23*
X166243000Y-109474000D03*
X166243000Y-106934000D03*
X166243000Y-104394000D03*
X166243000Y-101854000D03*
X166243000Y-99314000D03*
G04 #@! TD*
D19*
G04 #@! TO.C,TP2*
X164846000Y-73406000D03*
G04 #@! TD*
D17*
G04 #@! TO.C,J1*
X156210000Y-133040000D03*
D18*
X156210000Y-136540000D03*
X156210000Y-140040000D03*
X156210000Y-143540000D03*
G04 #@! TD*
D19*
G04 #@! TO.C,TP6*
X163322000Y-87884000D03*
G04 #@! TD*
%LPD*%
M02*
