G04 #@! TF.GenerationSoftware,KiCad,Pcbnew,7.0.8*
G04 #@! TF.CreationDate,2023-11-27T14:39:53-06:00*
G04 #@! TF.ProjectId,Flight_Board,466c6967-6874-45f4-926f-6172642e6b69,rev?*
G04 #@! TF.SameCoordinates,Original*
G04 #@! TF.FileFunction,Legend,Bot*
G04 #@! TF.FilePolarity,Positive*
%FSLAX46Y46*%
G04 Gerber Fmt 4.6, Leading zero omitted, Abs format (unit mm)*
G04 Created by KiCad (PCBNEW 7.0.8) date 2023-11-27 14:39:53*
%MOMM*%
%LPD*%
G01*
G04 APERTURE LIST*
G04 Aperture macros list*
%AMRoundRect*
0 Rectangle with rounded corners*
0 $1 Rounding radius*
0 $2 $3 $4 $5 $6 $7 $8 $9 X,Y pos of 4 corners*
0 Add a 4 corners polygon primitive as box body*
4,1,4,$2,$3,$4,$5,$6,$7,$8,$9,$2,$3,0*
0 Add four circle primitives for the rounded corners*
1,1,$1+$1,$2,$3*
1,1,$1+$1,$4,$5*
1,1,$1+$1,$6,$7*
1,1,$1+$1,$8,$9*
0 Add four rect primitives between the rounded corners*
20,1,$1+$1,$2,$3,$4,$5,0*
20,1,$1+$1,$4,$5,$6,$7,0*
20,1,$1+$1,$6,$7,$8,$9,0*
20,1,$1+$1,$8,$9,$2,$3,0*%
G04 Aperture macros list end*
%ADD10C,0.300000*%
%ADD11C,0.150000*%
%ADD12C,0.120000*%
%ADD13C,0.200000*%
%ADD14C,3.200000*%
%ADD15R,1.700000X1.700000*%
%ADD16O,1.700000X1.700000*%
%ADD17C,1.200000*%
%ADD18R,2.400000X2.400000*%
%ADD19C,2.400000*%
%ADD20RoundRect,0.102000X-0.400000X-0.600000X0.400000X-0.600000X0.400000X0.600000X-0.400000X0.600000X0*%
%ADD21RoundRect,0.102000X-0.750000X-1.000000X0.750000X-1.000000X0.750000X1.000000X-0.750000X1.000000X0*%
G04 APERTURE END LIST*
D10*
X143922750Y-124206000D02*
X141573250Y-124206000D01*
X143922750Y-131318000D02*
X141573250Y-131318000D01*
X143922750Y-127762000D02*
X141573250Y-127762000D01*
X143922750Y-134747000D02*
X141573250Y-134747000D01*
X163258500Y-134874000D02*
X160909000Y-134874000D01*
X143922750Y-120777000D02*
X141573250Y-120777000D01*
X143922750Y-141732000D02*
X141573250Y-141732000D01*
X163258500Y-141732000D02*
X160909000Y-141732000D01*
X163258500Y-138290000D02*
X160909000Y-138290000D01*
X143922750Y-138303000D02*
X141573250Y-138303000D01*
D11*
X142871649Y-139919152D02*
X142871649Y-140585819D01*
X143109744Y-139538200D02*
X143347839Y-140252485D01*
X143347839Y-140252485D02*
X142728792Y-140252485D01*
X142347839Y-140204866D02*
X141585935Y-140204866D01*
X141966887Y-140585819D02*
X141966887Y-139823914D01*
X161757144Y-106119819D02*
X162090477Y-105643628D01*
X162328572Y-106119819D02*
X162328572Y-105119819D01*
X162328572Y-105119819D02*
X161947620Y-105119819D01*
X161947620Y-105119819D02*
X161852382Y-105167438D01*
X161852382Y-105167438D02*
X161804763Y-105215057D01*
X161804763Y-105215057D02*
X161757144Y-105310295D01*
X161757144Y-105310295D02*
X161757144Y-105453152D01*
X161757144Y-105453152D02*
X161804763Y-105548390D01*
X161804763Y-105548390D02*
X161852382Y-105596009D01*
X161852382Y-105596009D02*
X161947620Y-105643628D01*
X161947620Y-105643628D02*
X162328572Y-105643628D01*
X161185715Y-106119819D02*
X161280953Y-106072200D01*
X161280953Y-106072200D02*
X161328572Y-106024580D01*
X161328572Y-106024580D02*
X161376191Y-105929342D01*
X161376191Y-105929342D02*
X161376191Y-105643628D01*
X161376191Y-105643628D02*
X161328572Y-105548390D01*
X161328572Y-105548390D02*
X161280953Y-105500771D01*
X161280953Y-105500771D02*
X161185715Y-105453152D01*
X161185715Y-105453152D02*
X161042858Y-105453152D01*
X161042858Y-105453152D02*
X160947620Y-105500771D01*
X160947620Y-105500771D02*
X160900001Y-105548390D01*
X160900001Y-105548390D02*
X160852382Y-105643628D01*
X160852382Y-105643628D02*
X160852382Y-105929342D01*
X160852382Y-105929342D02*
X160900001Y-106024580D01*
X160900001Y-106024580D02*
X160947620Y-106072200D01*
X160947620Y-106072200D02*
X161042858Y-106119819D01*
X161042858Y-106119819D02*
X161185715Y-106119819D01*
X159995239Y-106072200D02*
X160090477Y-106119819D01*
X160090477Y-106119819D02*
X160280953Y-106119819D01*
X160280953Y-106119819D02*
X160376191Y-106072200D01*
X160376191Y-106072200D02*
X160423810Y-106024580D01*
X160423810Y-106024580D02*
X160471429Y-105929342D01*
X160471429Y-105929342D02*
X160471429Y-105643628D01*
X160471429Y-105643628D02*
X160423810Y-105548390D01*
X160423810Y-105548390D02*
X160376191Y-105500771D01*
X160376191Y-105500771D02*
X160280953Y-105453152D01*
X160280953Y-105453152D02*
X160090477Y-105453152D01*
X160090477Y-105453152D02*
X159995239Y-105500771D01*
X159566667Y-106119819D02*
X159566667Y-105119819D01*
X159471429Y-105738866D02*
X159185715Y-106119819D01*
X159185715Y-105453152D02*
X159566667Y-105834104D01*
X158376191Y-106072200D02*
X158471429Y-106119819D01*
X158471429Y-106119819D02*
X158661905Y-106119819D01*
X158661905Y-106119819D02*
X158757143Y-106072200D01*
X158757143Y-106072200D02*
X158804762Y-105976961D01*
X158804762Y-105976961D02*
X158804762Y-105596009D01*
X158804762Y-105596009D02*
X158757143Y-105500771D01*
X158757143Y-105500771D02*
X158661905Y-105453152D01*
X158661905Y-105453152D02*
X158471429Y-105453152D01*
X158471429Y-105453152D02*
X158376191Y-105500771D01*
X158376191Y-105500771D02*
X158328572Y-105596009D01*
X158328572Y-105596009D02*
X158328572Y-105691247D01*
X158328572Y-105691247D02*
X158804762Y-105786485D01*
X158042857Y-105453152D02*
X157661905Y-105453152D01*
X157900000Y-105119819D02*
X157900000Y-105976961D01*
X157900000Y-105976961D02*
X157852381Y-106072200D01*
X157852381Y-106072200D02*
X157757143Y-106119819D01*
X157757143Y-106119819D02*
X157661905Y-106119819D01*
X156233333Y-105596009D02*
X156566666Y-105596009D01*
X156566666Y-106119819D02*
X156566666Y-105119819D01*
X156566666Y-105119819D02*
X156090476Y-105119819D01*
X155566666Y-106119819D02*
X155661904Y-106072200D01*
X155661904Y-106072200D02*
X155709523Y-105976961D01*
X155709523Y-105976961D02*
X155709523Y-105119819D01*
X155185713Y-106119819D02*
X155185713Y-105453152D01*
X155185713Y-105119819D02*
X155233332Y-105167438D01*
X155233332Y-105167438D02*
X155185713Y-105215057D01*
X155185713Y-105215057D02*
X155138094Y-105167438D01*
X155138094Y-105167438D02*
X155185713Y-105119819D01*
X155185713Y-105119819D02*
X155185713Y-105215057D01*
X154280952Y-105453152D02*
X154280952Y-106262676D01*
X154280952Y-106262676D02*
X154328571Y-106357914D01*
X154328571Y-106357914D02*
X154376190Y-106405533D01*
X154376190Y-106405533D02*
X154471428Y-106453152D01*
X154471428Y-106453152D02*
X154614285Y-106453152D01*
X154614285Y-106453152D02*
X154709523Y-106405533D01*
X154280952Y-106072200D02*
X154376190Y-106119819D01*
X154376190Y-106119819D02*
X154566666Y-106119819D01*
X154566666Y-106119819D02*
X154661904Y-106072200D01*
X154661904Y-106072200D02*
X154709523Y-106024580D01*
X154709523Y-106024580D02*
X154757142Y-105929342D01*
X154757142Y-105929342D02*
X154757142Y-105643628D01*
X154757142Y-105643628D02*
X154709523Y-105548390D01*
X154709523Y-105548390D02*
X154661904Y-105500771D01*
X154661904Y-105500771D02*
X154566666Y-105453152D01*
X154566666Y-105453152D02*
X154376190Y-105453152D01*
X154376190Y-105453152D02*
X154280952Y-105500771D01*
X153804761Y-106119819D02*
X153804761Y-105119819D01*
X153376190Y-106119819D02*
X153376190Y-105596009D01*
X153376190Y-105596009D02*
X153423809Y-105500771D01*
X153423809Y-105500771D02*
X153519047Y-105453152D01*
X153519047Y-105453152D02*
X153661904Y-105453152D01*
X153661904Y-105453152D02*
X153757142Y-105500771D01*
X153757142Y-105500771D02*
X153804761Y-105548390D01*
X153042856Y-105453152D02*
X152661904Y-105453152D01*
X152899999Y-105119819D02*
X152899999Y-105976961D01*
X152899999Y-105976961D02*
X152852380Y-106072200D01*
X152852380Y-106072200D02*
X152757142Y-106119819D01*
X152757142Y-106119819D02*
X152661904Y-106119819D01*
X150995237Y-106024580D02*
X151042856Y-106072200D01*
X151042856Y-106072200D02*
X151185713Y-106119819D01*
X151185713Y-106119819D02*
X151280951Y-106119819D01*
X151280951Y-106119819D02*
X151423808Y-106072200D01*
X151423808Y-106072200D02*
X151519046Y-105976961D01*
X151519046Y-105976961D02*
X151566665Y-105881723D01*
X151566665Y-105881723D02*
X151614284Y-105691247D01*
X151614284Y-105691247D02*
X151614284Y-105548390D01*
X151614284Y-105548390D02*
X151566665Y-105357914D01*
X151566665Y-105357914D02*
X151519046Y-105262676D01*
X151519046Y-105262676D02*
X151423808Y-105167438D01*
X151423808Y-105167438D02*
X151280951Y-105119819D01*
X151280951Y-105119819D02*
X151185713Y-105119819D01*
X151185713Y-105119819D02*
X151042856Y-105167438D01*
X151042856Y-105167438D02*
X150995237Y-105215057D01*
X150423808Y-106119819D02*
X150519046Y-106072200D01*
X150519046Y-106072200D02*
X150566665Y-106024580D01*
X150566665Y-106024580D02*
X150614284Y-105929342D01*
X150614284Y-105929342D02*
X150614284Y-105643628D01*
X150614284Y-105643628D02*
X150566665Y-105548390D01*
X150566665Y-105548390D02*
X150519046Y-105500771D01*
X150519046Y-105500771D02*
X150423808Y-105453152D01*
X150423808Y-105453152D02*
X150280951Y-105453152D01*
X150280951Y-105453152D02*
X150185713Y-105500771D01*
X150185713Y-105500771D02*
X150138094Y-105548390D01*
X150138094Y-105548390D02*
X150090475Y-105643628D01*
X150090475Y-105643628D02*
X150090475Y-105929342D01*
X150090475Y-105929342D02*
X150138094Y-106024580D01*
X150138094Y-106024580D02*
X150185713Y-106072200D01*
X150185713Y-106072200D02*
X150280951Y-106119819D01*
X150280951Y-106119819D02*
X150423808Y-106119819D01*
X149661903Y-106119819D02*
X149661903Y-105453152D01*
X149661903Y-105548390D02*
X149614284Y-105500771D01*
X149614284Y-105500771D02*
X149519046Y-105453152D01*
X149519046Y-105453152D02*
X149376189Y-105453152D01*
X149376189Y-105453152D02*
X149280951Y-105500771D01*
X149280951Y-105500771D02*
X149233332Y-105596009D01*
X149233332Y-105596009D02*
X149233332Y-106119819D01*
X149233332Y-105596009D02*
X149185713Y-105500771D01*
X149185713Y-105500771D02*
X149090475Y-105453152D01*
X149090475Y-105453152D02*
X148947618Y-105453152D01*
X148947618Y-105453152D02*
X148852379Y-105500771D01*
X148852379Y-105500771D02*
X148804760Y-105596009D01*
X148804760Y-105596009D02*
X148804760Y-106119819D01*
X148328570Y-105453152D02*
X148328570Y-106453152D01*
X148328570Y-105500771D02*
X148233332Y-105453152D01*
X148233332Y-105453152D02*
X148042856Y-105453152D01*
X148042856Y-105453152D02*
X147947618Y-105500771D01*
X147947618Y-105500771D02*
X147899999Y-105548390D01*
X147899999Y-105548390D02*
X147852380Y-105643628D01*
X147852380Y-105643628D02*
X147852380Y-105929342D01*
X147852380Y-105929342D02*
X147899999Y-106024580D01*
X147899999Y-106024580D02*
X147947618Y-106072200D01*
X147947618Y-106072200D02*
X148042856Y-106119819D01*
X148042856Y-106119819D02*
X148233332Y-106119819D01*
X148233332Y-106119819D02*
X148328570Y-106072200D01*
X146995237Y-105453152D02*
X146995237Y-106119819D01*
X147423808Y-105453152D02*
X147423808Y-105976961D01*
X147423808Y-105976961D02*
X147376189Y-106072200D01*
X147376189Y-106072200D02*
X147280951Y-106119819D01*
X147280951Y-106119819D02*
X147138094Y-106119819D01*
X147138094Y-106119819D02*
X147042856Y-106072200D01*
X147042856Y-106072200D02*
X146995237Y-106024580D01*
X146661903Y-105453152D02*
X146280951Y-105453152D01*
X146519046Y-105119819D02*
X146519046Y-105976961D01*
X146519046Y-105976961D02*
X146471427Y-106072200D01*
X146471427Y-106072200D02*
X146376189Y-106119819D01*
X146376189Y-106119819D02*
X146280951Y-106119819D01*
X145566665Y-106072200D02*
X145661903Y-106119819D01*
X145661903Y-106119819D02*
X145852379Y-106119819D01*
X145852379Y-106119819D02*
X145947617Y-106072200D01*
X145947617Y-106072200D02*
X145995236Y-105976961D01*
X145995236Y-105976961D02*
X145995236Y-105596009D01*
X145995236Y-105596009D02*
X145947617Y-105500771D01*
X145947617Y-105500771D02*
X145852379Y-105453152D01*
X145852379Y-105453152D02*
X145661903Y-105453152D01*
X145661903Y-105453152D02*
X145566665Y-105500771D01*
X145566665Y-105500771D02*
X145519046Y-105596009D01*
X145519046Y-105596009D02*
X145519046Y-105691247D01*
X145519046Y-105691247D02*
X145995236Y-105786485D01*
X145090474Y-106119819D02*
X145090474Y-105453152D01*
X145090474Y-105643628D02*
X145042855Y-105548390D01*
X145042855Y-105548390D02*
X144995236Y-105500771D01*
X144995236Y-105500771D02*
X144899998Y-105453152D01*
X144899998Y-105453152D02*
X144804760Y-105453152D01*
X143804759Y-105453152D02*
X143566664Y-106119819D01*
X143566664Y-106119819D02*
X143328569Y-105453152D01*
X142423807Y-106119819D02*
X142995235Y-106119819D01*
X142709521Y-106119819D02*
X142709521Y-105119819D01*
X142709521Y-105119819D02*
X142804759Y-105262676D01*
X142804759Y-105262676D02*
X142899997Y-105357914D01*
X142899997Y-105357914D02*
X142995235Y-105405533D01*
X159471428Y-108339819D02*
X159233333Y-109339819D01*
X159233333Y-109339819D02*
X159042857Y-108625533D01*
X159042857Y-108625533D02*
X158852381Y-109339819D01*
X158852381Y-109339819D02*
X158614286Y-108339819D01*
X158233333Y-109339819D02*
X158233333Y-108673152D01*
X158233333Y-108339819D02*
X158280952Y-108387438D01*
X158280952Y-108387438D02*
X158233333Y-108435057D01*
X158233333Y-108435057D02*
X158185714Y-108387438D01*
X158185714Y-108387438D02*
X158233333Y-108339819D01*
X158233333Y-108339819D02*
X158233333Y-108435057D01*
X157614286Y-109339819D02*
X157709524Y-109292200D01*
X157709524Y-109292200D02*
X157757143Y-109196961D01*
X157757143Y-109196961D02*
X157757143Y-108339819D01*
X157090476Y-109339819D02*
X157185714Y-109292200D01*
X157185714Y-109292200D02*
X157233333Y-109196961D01*
X157233333Y-109196961D02*
X157233333Y-108339819D01*
X156709523Y-109339819D02*
X156709523Y-108673152D01*
X156709523Y-108339819D02*
X156757142Y-108387438D01*
X156757142Y-108387438D02*
X156709523Y-108435057D01*
X156709523Y-108435057D02*
X156661904Y-108387438D01*
X156661904Y-108387438D02*
X156709523Y-108339819D01*
X156709523Y-108339819D02*
X156709523Y-108435057D01*
X155804762Y-109339819D02*
X155804762Y-108816009D01*
X155804762Y-108816009D02*
X155852381Y-108720771D01*
X155852381Y-108720771D02*
X155947619Y-108673152D01*
X155947619Y-108673152D02*
X156138095Y-108673152D01*
X156138095Y-108673152D02*
X156233333Y-108720771D01*
X155804762Y-109292200D02*
X155900000Y-109339819D01*
X155900000Y-109339819D02*
X156138095Y-109339819D01*
X156138095Y-109339819D02*
X156233333Y-109292200D01*
X156233333Y-109292200D02*
X156280952Y-109196961D01*
X156280952Y-109196961D02*
X156280952Y-109101723D01*
X156280952Y-109101723D02*
X156233333Y-109006485D01*
X156233333Y-109006485D02*
X156138095Y-108958866D01*
X156138095Y-108958866D02*
X155900000Y-108958866D01*
X155900000Y-108958866D02*
X155804762Y-108911247D01*
X155328571Y-109339819D02*
X155328571Y-108673152D01*
X155328571Y-108768390D02*
X155280952Y-108720771D01*
X155280952Y-108720771D02*
X155185714Y-108673152D01*
X155185714Y-108673152D02*
X155042857Y-108673152D01*
X155042857Y-108673152D02*
X154947619Y-108720771D01*
X154947619Y-108720771D02*
X154900000Y-108816009D01*
X154900000Y-108816009D02*
X154900000Y-109339819D01*
X154900000Y-108816009D02*
X154852381Y-108720771D01*
X154852381Y-108720771D02*
X154757143Y-108673152D01*
X154757143Y-108673152D02*
X154614286Y-108673152D01*
X154614286Y-108673152D02*
X154519047Y-108720771D01*
X154519047Y-108720771D02*
X154471428Y-108816009D01*
X154471428Y-108816009D02*
X154471428Y-109339819D01*
X153233333Y-109339819D02*
X153233333Y-108339819D01*
X153233333Y-108816009D02*
X152661905Y-108816009D01*
X152661905Y-109339819D02*
X152661905Y-108339819D01*
X151757143Y-108673152D02*
X151757143Y-109339819D01*
X152185714Y-108673152D02*
X152185714Y-109196961D01*
X152185714Y-109196961D02*
X152138095Y-109292200D01*
X152138095Y-109292200D02*
X152042857Y-109339819D01*
X152042857Y-109339819D02*
X151900000Y-109339819D01*
X151900000Y-109339819D02*
X151804762Y-109292200D01*
X151804762Y-109292200D02*
X151757143Y-109244580D01*
X151423809Y-108673152D02*
X151042857Y-108673152D01*
X151280952Y-108339819D02*
X151280952Y-109196961D01*
X151280952Y-109196961D02*
X151233333Y-109292200D01*
X151233333Y-109292200D02*
X151138095Y-109339819D01*
X151138095Y-109339819D02*
X151042857Y-109339819D01*
X150280952Y-109292200D02*
X150376190Y-109339819D01*
X150376190Y-109339819D02*
X150566666Y-109339819D01*
X150566666Y-109339819D02*
X150661904Y-109292200D01*
X150661904Y-109292200D02*
X150709523Y-109244580D01*
X150709523Y-109244580D02*
X150757142Y-109149342D01*
X150757142Y-109149342D02*
X150757142Y-108863628D01*
X150757142Y-108863628D02*
X150709523Y-108768390D01*
X150709523Y-108768390D02*
X150661904Y-108720771D01*
X150661904Y-108720771D02*
X150566666Y-108673152D01*
X150566666Y-108673152D02*
X150376190Y-108673152D01*
X150376190Y-108673152D02*
X150280952Y-108720771D01*
X149852380Y-109339819D02*
X149852380Y-108339819D01*
X149423809Y-109339819D02*
X149423809Y-108816009D01*
X149423809Y-108816009D02*
X149471428Y-108720771D01*
X149471428Y-108720771D02*
X149566666Y-108673152D01*
X149566666Y-108673152D02*
X149709523Y-108673152D01*
X149709523Y-108673152D02*
X149804761Y-108720771D01*
X149804761Y-108720771D02*
X149852380Y-108768390D01*
X148947618Y-109339819D02*
X148947618Y-108673152D01*
X148947618Y-108339819D02*
X148995237Y-108387438D01*
X148995237Y-108387438D02*
X148947618Y-108435057D01*
X148947618Y-108435057D02*
X148899999Y-108387438D01*
X148899999Y-108387438D02*
X148947618Y-108339819D01*
X148947618Y-108339819D02*
X148947618Y-108435057D01*
X148471428Y-108673152D02*
X148471428Y-109339819D01*
X148471428Y-108768390D02*
X148423809Y-108720771D01*
X148423809Y-108720771D02*
X148328571Y-108673152D01*
X148328571Y-108673152D02*
X148185714Y-108673152D01*
X148185714Y-108673152D02*
X148090476Y-108720771D01*
X148090476Y-108720771D02*
X148042857Y-108816009D01*
X148042857Y-108816009D02*
X148042857Y-109339819D01*
X147614285Y-109292200D02*
X147519047Y-109339819D01*
X147519047Y-109339819D02*
X147328571Y-109339819D01*
X147328571Y-109339819D02*
X147233333Y-109292200D01*
X147233333Y-109292200D02*
X147185714Y-109196961D01*
X147185714Y-109196961D02*
X147185714Y-109149342D01*
X147185714Y-109149342D02*
X147233333Y-109054104D01*
X147233333Y-109054104D02*
X147328571Y-109006485D01*
X147328571Y-109006485D02*
X147471428Y-109006485D01*
X147471428Y-109006485D02*
X147566666Y-108958866D01*
X147566666Y-108958866D02*
X147614285Y-108863628D01*
X147614285Y-108863628D02*
X147614285Y-108816009D01*
X147614285Y-108816009D02*
X147566666Y-108720771D01*
X147566666Y-108720771D02*
X147471428Y-108673152D01*
X147471428Y-108673152D02*
X147328571Y-108673152D01*
X147328571Y-108673152D02*
X147233333Y-108720771D01*
X146614285Y-109339819D02*
X146709523Y-109292200D01*
X146709523Y-109292200D02*
X146757142Y-109244580D01*
X146757142Y-109244580D02*
X146804761Y-109149342D01*
X146804761Y-109149342D02*
X146804761Y-108863628D01*
X146804761Y-108863628D02*
X146757142Y-108768390D01*
X146757142Y-108768390D02*
X146709523Y-108720771D01*
X146709523Y-108720771D02*
X146614285Y-108673152D01*
X146614285Y-108673152D02*
X146471428Y-108673152D01*
X146471428Y-108673152D02*
X146376190Y-108720771D01*
X146376190Y-108720771D02*
X146328571Y-108768390D01*
X146328571Y-108768390D02*
X146280952Y-108863628D01*
X146280952Y-108863628D02*
X146280952Y-109149342D01*
X146280952Y-109149342D02*
X146328571Y-109244580D01*
X146328571Y-109244580D02*
X146376190Y-109292200D01*
X146376190Y-109292200D02*
X146471428Y-109339819D01*
X146471428Y-109339819D02*
X146614285Y-109339819D01*
X145852380Y-108673152D02*
X145852380Y-109339819D01*
X145852380Y-108768390D02*
X145804761Y-108720771D01*
X145804761Y-108720771D02*
X145709523Y-108673152D01*
X145709523Y-108673152D02*
X145566666Y-108673152D01*
X145566666Y-108673152D02*
X145471428Y-108720771D01*
X145471428Y-108720771D02*
X145423809Y-108816009D01*
X145423809Y-108816009D02*
X145423809Y-109339819D01*
X158352382Y-110949819D02*
X158685715Y-110473628D01*
X158923810Y-110949819D02*
X158923810Y-109949819D01*
X158923810Y-109949819D02*
X158542858Y-109949819D01*
X158542858Y-109949819D02*
X158447620Y-109997438D01*
X158447620Y-109997438D02*
X158400001Y-110045057D01*
X158400001Y-110045057D02*
X158352382Y-110140295D01*
X158352382Y-110140295D02*
X158352382Y-110283152D01*
X158352382Y-110283152D02*
X158400001Y-110378390D01*
X158400001Y-110378390D02*
X158447620Y-110426009D01*
X158447620Y-110426009D02*
X158542858Y-110473628D01*
X158542858Y-110473628D02*
X158923810Y-110473628D01*
X158019048Y-110283152D02*
X157780953Y-110949819D01*
X157542858Y-110283152D02*
X157780953Y-110949819D01*
X157780953Y-110949819D02*
X157876191Y-111187914D01*
X157876191Y-111187914D02*
X157923810Y-111235533D01*
X157923810Y-111235533D02*
X158019048Y-111283152D01*
X156685715Y-110949819D02*
X157161905Y-110949819D01*
X157161905Y-110949819D02*
X157161905Y-109949819D01*
X156447619Y-110283152D02*
X156209524Y-110949819D01*
X155971429Y-110283152D02*
X156209524Y-110949819D01*
X156209524Y-110949819D02*
X156304762Y-111187914D01*
X156304762Y-111187914D02*
X156352381Y-111235533D01*
X156352381Y-111235533D02*
X156447619Y-111283152D01*
X155590476Y-110283152D02*
X155590476Y-110949819D01*
X155590476Y-110378390D02*
X155542857Y-110330771D01*
X155542857Y-110330771D02*
X155447619Y-110283152D01*
X155447619Y-110283152D02*
X155304762Y-110283152D01*
X155304762Y-110283152D02*
X155209524Y-110330771D01*
X155209524Y-110330771D02*
X155161905Y-110426009D01*
X155161905Y-110426009D02*
X155161905Y-110949819D01*
X154257143Y-110949819D02*
X154257143Y-109949819D01*
X154257143Y-110902200D02*
X154352381Y-110949819D01*
X154352381Y-110949819D02*
X154542857Y-110949819D01*
X154542857Y-110949819D02*
X154638095Y-110902200D01*
X154638095Y-110902200D02*
X154685714Y-110854580D01*
X154685714Y-110854580D02*
X154733333Y-110759342D01*
X154733333Y-110759342D02*
X154733333Y-110473628D01*
X154733333Y-110473628D02*
X154685714Y-110378390D01*
X154685714Y-110378390D02*
X154638095Y-110330771D01*
X154638095Y-110330771D02*
X154542857Y-110283152D01*
X154542857Y-110283152D02*
X154352381Y-110283152D01*
X154352381Y-110283152D02*
X154257143Y-110330771D01*
X152685714Y-110426009D02*
X152542857Y-110473628D01*
X152542857Y-110473628D02*
X152495238Y-110521247D01*
X152495238Y-110521247D02*
X152447619Y-110616485D01*
X152447619Y-110616485D02*
X152447619Y-110759342D01*
X152447619Y-110759342D02*
X152495238Y-110854580D01*
X152495238Y-110854580D02*
X152542857Y-110902200D01*
X152542857Y-110902200D02*
X152638095Y-110949819D01*
X152638095Y-110949819D02*
X153019047Y-110949819D01*
X153019047Y-110949819D02*
X153019047Y-109949819D01*
X153019047Y-109949819D02*
X152685714Y-109949819D01*
X152685714Y-109949819D02*
X152590476Y-109997438D01*
X152590476Y-109997438D02*
X152542857Y-110045057D01*
X152542857Y-110045057D02*
X152495238Y-110140295D01*
X152495238Y-110140295D02*
X152495238Y-110235533D01*
X152495238Y-110235533D02*
X152542857Y-110330771D01*
X152542857Y-110330771D02*
X152590476Y-110378390D01*
X152590476Y-110378390D02*
X152685714Y-110426009D01*
X152685714Y-110426009D02*
X153019047Y-110426009D01*
X151590476Y-110283152D02*
X151590476Y-110949819D01*
X152019047Y-110283152D02*
X152019047Y-110806961D01*
X152019047Y-110806961D02*
X151971428Y-110902200D01*
X151971428Y-110902200D02*
X151876190Y-110949819D01*
X151876190Y-110949819D02*
X151733333Y-110949819D01*
X151733333Y-110949819D02*
X151638095Y-110902200D01*
X151638095Y-110902200D02*
X151590476Y-110854580D01*
X150971428Y-110949819D02*
X151066666Y-110902200D01*
X151066666Y-110902200D02*
X151114285Y-110806961D01*
X151114285Y-110806961D02*
X151114285Y-109949819D01*
X150447618Y-110949819D02*
X150542856Y-110902200D01*
X150542856Y-110902200D02*
X150590475Y-110806961D01*
X150590475Y-110806961D02*
X150590475Y-109949819D01*
X150066665Y-110949819D02*
X150066665Y-110283152D01*
X150066665Y-109949819D02*
X150114284Y-109997438D01*
X150114284Y-109997438D02*
X150066665Y-110045057D01*
X150066665Y-110045057D02*
X150019046Y-109997438D01*
X150019046Y-109997438D02*
X150066665Y-109949819D01*
X150066665Y-109949819D02*
X150066665Y-110045057D01*
X149590475Y-110283152D02*
X149590475Y-110949819D01*
X149590475Y-110378390D02*
X149542856Y-110330771D01*
X149542856Y-110330771D02*
X149447618Y-110283152D01*
X149447618Y-110283152D02*
X149304761Y-110283152D01*
X149304761Y-110283152D02*
X149209523Y-110330771D01*
X149209523Y-110330771D02*
X149161904Y-110426009D01*
X149161904Y-110426009D02*
X149161904Y-110949819D01*
X148257142Y-110283152D02*
X148257142Y-111092676D01*
X148257142Y-111092676D02*
X148304761Y-111187914D01*
X148304761Y-111187914D02*
X148352380Y-111235533D01*
X148352380Y-111235533D02*
X148447618Y-111283152D01*
X148447618Y-111283152D02*
X148590475Y-111283152D01*
X148590475Y-111283152D02*
X148685713Y-111235533D01*
X148257142Y-110902200D02*
X148352380Y-110949819D01*
X148352380Y-110949819D02*
X148542856Y-110949819D01*
X148542856Y-110949819D02*
X148638094Y-110902200D01*
X148638094Y-110902200D02*
X148685713Y-110854580D01*
X148685713Y-110854580D02*
X148733332Y-110759342D01*
X148733332Y-110759342D02*
X148733332Y-110473628D01*
X148733332Y-110473628D02*
X148685713Y-110378390D01*
X148685713Y-110378390D02*
X148638094Y-110330771D01*
X148638094Y-110330771D02*
X148542856Y-110283152D01*
X148542856Y-110283152D02*
X148352380Y-110283152D01*
X148352380Y-110283152D02*
X148257142Y-110330771D01*
X147923808Y-110283152D02*
X147542856Y-110283152D01*
X147780951Y-109949819D02*
X147780951Y-110806961D01*
X147780951Y-110806961D02*
X147733332Y-110902200D01*
X147733332Y-110902200D02*
X147638094Y-110949819D01*
X147638094Y-110949819D02*
X147542856Y-110949819D01*
X147066665Y-110949819D02*
X147161903Y-110902200D01*
X147161903Y-110902200D02*
X147209522Y-110854580D01*
X147209522Y-110854580D02*
X147257141Y-110759342D01*
X147257141Y-110759342D02*
X147257141Y-110473628D01*
X147257141Y-110473628D02*
X147209522Y-110378390D01*
X147209522Y-110378390D02*
X147161903Y-110330771D01*
X147161903Y-110330771D02*
X147066665Y-110283152D01*
X147066665Y-110283152D02*
X146923808Y-110283152D01*
X146923808Y-110283152D02*
X146828570Y-110330771D01*
X146828570Y-110330771D02*
X146780951Y-110378390D01*
X146780951Y-110378390D02*
X146733332Y-110473628D01*
X146733332Y-110473628D02*
X146733332Y-110759342D01*
X146733332Y-110759342D02*
X146780951Y-110854580D01*
X146780951Y-110854580D02*
X146828570Y-110902200D01*
X146828570Y-110902200D02*
X146923808Y-110949819D01*
X146923808Y-110949819D02*
X147066665Y-110949819D01*
X146304760Y-110283152D02*
X146304760Y-110949819D01*
X146304760Y-110378390D02*
X146257141Y-110330771D01*
X146257141Y-110330771D02*
X146161903Y-110283152D01*
X146161903Y-110283152D02*
X146019046Y-110283152D01*
X146019046Y-110283152D02*
X145923808Y-110330771D01*
X145923808Y-110330771D02*
X145876189Y-110426009D01*
X145876189Y-110426009D02*
X145876189Y-110949819D01*
X156161905Y-112559819D02*
X156495238Y-112083628D01*
X156733333Y-112559819D02*
X156733333Y-111559819D01*
X156733333Y-111559819D02*
X156352381Y-111559819D01*
X156352381Y-111559819D02*
X156257143Y-111607438D01*
X156257143Y-111607438D02*
X156209524Y-111655057D01*
X156209524Y-111655057D02*
X156161905Y-111750295D01*
X156161905Y-111750295D02*
X156161905Y-111893152D01*
X156161905Y-111893152D02*
X156209524Y-111988390D01*
X156209524Y-111988390D02*
X156257143Y-112036009D01*
X156257143Y-112036009D02*
X156352381Y-112083628D01*
X156352381Y-112083628D02*
X156733333Y-112083628D01*
X155828571Y-111893152D02*
X155590476Y-112559819D01*
X155352381Y-111893152D02*
X155590476Y-112559819D01*
X155590476Y-112559819D02*
X155685714Y-112797914D01*
X155685714Y-112797914D02*
X155733333Y-112845533D01*
X155733333Y-112845533D02*
X155828571Y-112893152D01*
X154542857Y-112559819D02*
X154542857Y-112036009D01*
X154542857Y-112036009D02*
X154590476Y-111940771D01*
X154590476Y-111940771D02*
X154685714Y-111893152D01*
X154685714Y-111893152D02*
X154876190Y-111893152D01*
X154876190Y-111893152D02*
X154971428Y-111940771D01*
X154542857Y-112512200D02*
X154638095Y-112559819D01*
X154638095Y-112559819D02*
X154876190Y-112559819D01*
X154876190Y-112559819D02*
X154971428Y-112512200D01*
X154971428Y-112512200D02*
X155019047Y-112416961D01*
X155019047Y-112416961D02*
X155019047Y-112321723D01*
X155019047Y-112321723D02*
X154971428Y-112226485D01*
X154971428Y-112226485D02*
X154876190Y-112178866D01*
X154876190Y-112178866D02*
X154638095Y-112178866D01*
X154638095Y-112178866D02*
X154542857Y-112131247D01*
X154066666Y-111893152D02*
X154066666Y-112559819D01*
X154066666Y-111988390D02*
X154019047Y-111940771D01*
X154019047Y-111940771D02*
X153923809Y-111893152D01*
X153923809Y-111893152D02*
X153780952Y-111893152D01*
X153780952Y-111893152D02*
X153685714Y-111940771D01*
X153685714Y-111940771D02*
X153638095Y-112036009D01*
X153638095Y-112036009D02*
X153638095Y-112559819D01*
X152399999Y-112559819D02*
X152399999Y-111559819D01*
X152399999Y-111559819D02*
X152019047Y-111559819D01*
X152019047Y-111559819D02*
X151923809Y-111607438D01*
X151923809Y-111607438D02*
X151876190Y-111655057D01*
X151876190Y-111655057D02*
X151828571Y-111750295D01*
X151828571Y-111750295D02*
X151828571Y-111893152D01*
X151828571Y-111893152D02*
X151876190Y-111988390D01*
X151876190Y-111988390D02*
X151923809Y-112036009D01*
X151923809Y-112036009D02*
X152019047Y-112083628D01*
X152019047Y-112083628D02*
X152399999Y-112083628D01*
X150971428Y-112559819D02*
X150971428Y-112036009D01*
X150971428Y-112036009D02*
X151019047Y-111940771D01*
X151019047Y-111940771D02*
X151114285Y-111893152D01*
X151114285Y-111893152D02*
X151304761Y-111893152D01*
X151304761Y-111893152D02*
X151399999Y-111940771D01*
X150971428Y-112512200D02*
X151066666Y-112559819D01*
X151066666Y-112559819D02*
X151304761Y-112559819D01*
X151304761Y-112559819D02*
X151399999Y-112512200D01*
X151399999Y-112512200D02*
X151447618Y-112416961D01*
X151447618Y-112416961D02*
X151447618Y-112321723D01*
X151447618Y-112321723D02*
X151399999Y-112226485D01*
X151399999Y-112226485D02*
X151304761Y-112178866D01*
X151304761Y-112178866D02*
X151066666Y-112178866D01*
X151066666Y-112178866D02*
X150971428Y-112131247D01*
X150495237Y-112559819D02*
X150495237Y-111893152D01*
X150495237Y-112083628D02*
X150447618Y-111988390D01*
X150447618Y-111988390D02*
X150399999Y-111940771D01*
X150399999Y-111940771D02*
X150304761Y-111893152D01*
X150304761Y-111893152D02*
X150209523Y-111893152D01*
X149876189Y-112559819D02*
X149876189Y-111559819D01*
X149780951Y-112178866D02*
X149495237Y-112559819D01*
X149495237Y-111893152D02*
X149876189Y-112274104D01*
X148685713Y-112512200D02*
X148780951Y-112559819D01*
X148780951Y-112559819D02*
X148971427Y-112559819D01*
X148971427Y-112559819D02*
X149066665Y-112512200D01*
X149066665Y-112512200D02*
X149114284Y-112416961D01*
X149114284Y-112416961D02*
X149114284Y-112036009D01*
X149114284Y-112036009D02*
X149066665Y-111940771D01*
X149066665Y-111940771D02*
X148971427Y-111893152D01*
X148971427Y-111893152D02*
X148780951Y-111893152D01*
X148780951Y-111893152D02*
X148685713Y-111940771D01*
X148685713Y-111940771D02*
X148638094Y-112036009D01*
X148638094Y-112036009D02*
X148638094Y-112131247D01*
X148638094Y-112131247D02*
X149114284Y-112226485D01*
X148209522Y-112559819D02*
X148209522Y-111893152D01*
X148209522Y-112083628D02*
X148161903Y-111988390D01*
X148161903Y-111988390D02*
X148114284Y-111940771D01*
X148114284Y-111940771D02*
X148019046Y-111893152D01*
X148019046Y-111893152D02*
X147923808Y-111893152D01*
X158495238Y-113646009D02*
X158161905Y-113646009D01*
X158019048Y-114169819D02*
X158495238Y-114169819D01*
X158495238Y-114169819D02*
X158495238Y-113169819D01*
X158495238Y-113169819D02*
X158019048Y-113169819D01*
X157733333Y-113503152D02*
X157352381Y-113503152D01*
X157590476Y-113169819D02*
X157590476Y-114026961D01*
X157590476Y-114026961D02*
X157542857Y-114122200D01*
X157542857Y-114122200D02*
X157447619Y-114169819D01*
X157447619Y-114169819D02*
X157352381Y-114169819D01*
X157019047Y-114169819D02*
X157019047Y-113169819D01*
X156590476Y-114169819D02*
X156590476Y-113646009D01*
X156590476Y-113646009D02*
X156638095Y-113550771D01*
X156638095Y-113550771D02*
X156733333Y-113503152D01*
X156733333Y-113503152D02*
X156876190Y-113503152D01*
X156876190Y-113503152D02*
X156971428Y-113550771D01*
X156971428Y-113550771D02*
X157019047Y-113598390D01*
X155685714Y-114169819D02*
X155685714Y-113646009D01*
X155685714Y-113646009D02*
X155733333Y-113550771D01*
X155733333Y-113550771D02*
X155828571Y-113503152D01*
X155828571Y-113503152D02*
X156019047Y-113503152D01*
X156019047Y-113503152D02*
X156114285Y-113550771D01*
X155685714Y-114122200D02*
X155780952Y-114169819D01*
X155780952Y-114169819D02*
X156019047Y-114169819D01*
X156019047Y-114169819D02*
X156114285Y-114122200D01*
X156114285Y-114122200D02*
X156161904Y-114026961D01*
X156161904Y-114026961D02*
X156161904Y-113931723D01*
X156161904Y-113931723D02*
X156114285Y-113836485D01*
X156114285Y-113836485D02*
X156019047Y-113788866D01*
X156019047Y-113788866D02*
X155780952Y-113788866D01*
X155780952Y-113788866D02*
X155685714Y-113741247D01*
X155209523Y-113503152D02*
X155209523Y-114169819D01*
X155209523Y-113598390D02*
X155161904Y-113550771D01*
X155161904Y-113550771D02*
X155066666Y-113503152D01*
X155066666Y-113503152D02*
X154923809Y-113503152D01*
X154923809Y-113503152D02*
X154828571Y-113550771D01*
X154828571Y-113550771D02*
X154780952Y-113646009D01*
X154780952Y-113646009D02*
X154780952Y-114169819D01*
X153209523Y-113646009D02*
X153066666Y-113693628D01*
X153066666Y-113693628D02*
X153019047Y-113741247D01*
X153019047Y-113741247D02*
X152971428Y-113836485D01*
X152971428Y-113836485D02*
X152971428Y-113979342D01*
X152971428Y-113979342D02*
X153019047Y-114074580D01*
X153019047Y-114074580D02*
X153066666Y-114122200D01*
X153066666Y-114122200D02*
X153161904Y-114169819D01*
X153161904Y-114169819D02*
X153542856Y-114169819D01*
X153542856Y-114169819D02*
X153542856Y-113169819D01*
X153542856Y-113169819D02*
X153209523Y-113169819D01*
X153209523Y-113169819D02*
X153114285Y-113217438D01*
X153114285Y-113217438D02*
X153066666Y-113265057D01*
X153066666Y-113265057D02*
X153019047Y-113360295D01*
X153019047Y-113360295D02*
X153019047Y-113455533D01*
X153019047Y-113455533D02*
X153066666Y-113550771D01*
X153066666Y-113550771D02*
X153114285Y-113598390D01*
X153114285Y-113598390D02*
X153209523Y-113646009D01*
X153209523Y-113646009D02*
X153542856Y-113646009D01*
X152114285Y-114169819D02*
X152114285Y-113646009D01*
X152114285Y-113646009D02*
X152161904Y-113550771D01*
X152161904Y-113550771D02*
X152257142Y-113503152D01*
X152257142Y-113503152D02*
X152447618Y-113503152D01*
X152447618Y-113503152D02*
X152542856Y-113550771D01*
X152114285Y-114122200D02*
X152209523Y-114169819D01*
X152209523Y-114169819D02*
X152447618Y-114169819D01*
X152447618Y-114169819D02*
X152542856Y-114122200D01*
X152542856Y-114122200D02*
X152590475Y-114026961D01*
X152590475Y-114026961D02*
X152590475Y-113931723D01*
X152590475Y-113931723D02*
X152542856Y-113836485D01*
X152542856Y-113836485D02*
X152447618Y-113788866D01*
X152447618Y-113788866D02*
X152209523Y-113788866D01*
X152209523Y-113788866D02*
X152114285Y-113741247D01*
X151638094Y-114169819D02*
X151638094Y-113503152D01*
X151638094Y-113693628D02*
X151590475Y-113598390D01*
X151590475Y-113598390D02*
X151542856Y-113550771D01*
X151542856Y-113550771D02*
X151447618Y-113503152D01*
X151447618Y-113503152D02*
X151352380Y-113503152D01*
X150590475Y-114169819D02*
X150590475Y-113646009D01*
X150590475Y-113646009D02*
X150638094Y-113550771D01*
X150638094Y-113550771D02*
X150733332Y-113503152D01*
X150733332Y-113503152D02*
X150923808Y-113503152D01*
X150923808Y-113503152D02*
X151019046Y-113550771D01*
X150590475Y-114122200D02*
X150685713Y-114169819D01*
X150685713Y-114169819D02*
X150923808Y-114169819D01*
X150923808Y-114169819D02*
X151019046Y-114122200D01*
X151019046Y-114122200D02*
X151066665Y-114026961D01*
X151066665Y-114026961D02*
X151066665Y-113931723D01*
X151066665Y-113931723D02*
X151019046Y-113836485D01*
X151019046Y-113836485D02*
X150923808Y-113788866D01*
X150923808Y-113788866D02*
X150685713Y-113788866D01*
X150685713Y-113788866D02*
X150590475Y-113741247D01*
X150114284Y-113503152D02*
X150114284Y-114169819D01*
X150114284Y-113598390D02*
X150066665Y-113550771D01*
X150066665Y-113550771D02*
X149971427Y-113503152D01*
X149971427Y-113503152D02*
X149828570Y-113503152D01*
X149828570Y-113503152D02*
X149733332Y-113550771D01*
X149733332Y-113550771D02*
X149685713Y-113646009D01*
X149685713Y-113646009D02*
X149685713Y-114169819D01*
X148780951Y-114122200D02*
X148876189Y-114169819D01*
X148876189Y-114169819D02*
X149066665Y-114169819D01*
X149066665Y-114169819D02*
X149161903Y-114122200D01*
X149161903Y-114122200D02*
X149209522Y-114074580D01*
X149209522Y-114074580D02*
X149257141Y-113979342D01*
X149257141Y-113979342D02*
X149257141Y-113693628D01*
X149257141Y-113693628D02*
X149209522Y-113598390D01*
X149209522Y-113598390D02*
X149161903Y-113550771D01*
X149161903Y-113550771D02*
X149066665Y-113503152D01*
X149066665Y-113503152D02*
X148876189Y-113503152D01*
X148876189Y-113503152D02*
X148780951Y-113550771D01*
X148447617Y-113503152D02*
X147923808Y-113503152D01*
X147923808Y-113503152D02*
X148447617Y-114169819D01*
X148447617Y-114169819D02*
X147923808Y-114169819D01*
X147114284Y-113503152D02*
X147114284Y-114169819D01*
X147542855Y-113503152D02*
X147542855Y-114026961D01*
X147542855Y-114026961D02*
X147495236Y-114122200D01*
X147495236Y-114122200D02*
X147399998Y-114169819D01*
X147399998Y-114169819D02*
X147257141Y-114169819D01*
X147257141Y-114169819D02*
X147161903Y-114122200D01*
X147161903Y-114122200D02*
X147114284Y-114074580D01*
X146638093Y-114169819D02*
X146638093Y-113169819D01*
X146542855Y-113788866D02*
X146257141Y-114169819D01*
X146257141Y-113503152D02*
X146638093Y-113884104D01*
X142776411Y-119630819D02*
X143347839Y-119630819D01*
X143062125Y-119630819D02*
X143062125Y-118630819D01*
X143062125Y-118630819D02*
X143157363Y-118773676D01*
X143157363Y-118773676D02*
X143252601Y-118868914D01*
X143252601Y-118868914D02*
X143347839Y-118916533D01*
X142347839Y-119249866D02*
X141585935Y-119249866D01*
X141966887Y-119630819D02*
X141966887Y-118868914D01*
X143300220Y-122551866D02*
X142538316Y-122551866D01*
X143300220Y-136521866D02*
X142538316Y-136521866D01*
X162223220Y-136648866D02*
X161461316Y-136648866D01*
X143395458Y-132473819D02*
X142776411Y-132473819D01*
X142776411Y-132473819D02*
X143109744Y-132854771D01*
X143109744Y-132854771D02*
X142966887Y-132854771D01*
X142966887Y-132854771D02*
X142871649Y-132902390D01*
X142871649Y-132902390D02*
X142824030Y-132950009D01*
X142824030Y-132950009D02*
X142776411Y-133045247D01*
X142776411Y-133045247D02*
X142776411Y-133283342D01*
X142776411Y-133283342D02*
X142824030Y-133378580D01*
X142824030Y-133378580D02*
X142871649Y-133426200D01*
X142871649Y-133426200D02*
X142966887Y-133473819D01*
X142966887Y-133473819D02*
X143252601Y-133473819D01*
X143252601Y-133473819D02*
X143347839Y-133426200D01*
X143347839Y-133426200D02*
X143395458Y-133378580D01*
X142347839Y-133092866D02*
X141585935Y-133092866D01*
X141966887Y-133473819D02*
X141966887Y-132711914D01*
X143300220Y-143506866D02*
X142538316Y-143506866D01*
X162599618Y-133077009D02*
X162456761Y-133124628D01*
X162456761Y-133124628D02*
X162409142Y-133172247D01*
X162409142Y-133172247D02*
X162361523Y-133267485D01*
X162361523Y-133267485D02*
X162361523Y-133410342D01*
X162361523Y-133410342D02*
X162409142Y-133505580D01*
X162409142Y-133505580D02*
X162456761Y-133553200D01*
X162456761Y-133553200D02*
X162551999Y-133600819D01*
X162551999Y-133600819D02*
X162932951Y-133600819D01*
X162932951Y-133600819D02*
X162932951Y-132600819D01*
X162932951Y-132600819D02*
X162599618Y-132600819D01*
X162599618Y-132600819D02*
X162504380Y-132648438D01*
X162504380Y-132648438D02*
X162456761Y-132696057D01*
X162456761Y-132696057D02*
X162409142Y-132791295D01*
X162409142Y-132791295D02*
X162409142Y-132886533D01*
X162409142Y-132886533D02*
X162456761Y-132981771D01*
X162456761Y-132981771D02*
X162504380Y-133029390D01*
X162504380Y-133029390D02*
X162599618Y-133077009D01*
X162599618Y-133077009D02*
X162932951Y-133077009D01*
X161932951Y-133219866D02*
X161171047Y-133219866D01*
X161551999Y-133600819D02*
X161551999Y-132838914D01*
X162858220Y-140585819D02*
X162858220Y-139585819D01*
X162858220Y-139585819D02*
X162477268Y-139585819D01*
X162477268Y-139585819D02*
X162382030Y-139633438D01*
X162382030Y-139633438D02*
X162334411Y-139681057D01*
X162334411Y-139681057D02*
X162286792Y-139776295D01*
X162286792Y-139776295D02*
X162286792Y-139919152D01*
X162286792Y-139919152D02*
X162334411Y-140014390D01*
X162334411Y-140014390D02*
X162382030Y-140062009D01*
X162382030Y-140062009D02*
X162477268Y-140109628D01*
X162477268Y-140109628D02*
X162858220Y-140109628D01*
X161858220Y-140204866D02*
X161096316Y-140204866D01*
X161477268Y-140585819D02*
X161477268Y-139823914D01*
X162223220Y-143633866D02*
X161461316Y-143633866D01*
X143347839Y-125584057D02*
X143300220Y-125536438D01*
X143300220Y-125536438D02*
X143204982Y-125488819D01*
X143204982Y-125488819D02*
X142966887Y-125488819D01*
X142966887Y-125488819D02*
X142871649Y-125536438D01*
X142871649Y-125536438D02*
X142824030Y-125584057D01*
X142824030Y-125584057D02*
X142776411Y-125679295D01*
X142776411Y-125679295D02*
X142776411Y-125774533D01*
X142776411Y-125774533D02*
X142824030Y-125917390D01*
X142824030Y-125917390D02*
X143395458Y-126488819D01*
X143395458Y-126488819D02*
X142776411Y-126488819D01*
X142347839Y-126107866D02*
X141585935Y-126107866D01*
X141966887Y-126488819D02*
X141966887Y-125726914D01*
X143300220Y-129536866D02*
X142538316Y-129536866D01*
D12*
G04 #@! TO.C,J2*
X143790000Y-145590000D02*
X143790000Y-145190000D01*
X144430000Y-145590000D02*
X143790000Y-145590000D01*
X144030000Y-145350000D02*
X144030000Y-117230000D01*
X144490000Y-145350000D02*
X144490000Y-117230000D01*
X145590000Y-145350000D02*
X145590000Y-117230000D01*
X151750000Y-145350000D02*
X144030000Y-145350000D01*
X151750000Y-145350000D02*
X151750000Y-117230000D01*
X147649000Y-141185000D02*
X147521000Y-141314000D01*
X147409000Y-141015000D02*
X147316000Y-141109000D01*
X149865000Y-138970000D02*
X149771000Y-139064000D01*
X149659000Y-138765000D02*
X149531000Y-138894000D01*
X147649000Y-137685000D02*
X147521000Y-137814000D01*
X147409000Y-137515000D02*
X147316000Y-137609000D01*
X149865000Y-135470000D02*
X149771000Y-135564000D01*
X149659000Y-135265000D02*
X149531000Y-135394000D01*
X147649000Y-134185000D02*
X147521000Y-134314000D01*
X147409000Y-134015000D02*
X147316000Y-134109000D01*
X149865000Y-131970000D02*
X149771000Y-132064000D01*
X149659000Y-131765000D02*
X149531000Y-131894000D01*
X147649000Y-130685000D02*
X147521000Y-130814000D01*
X147409000Y-130515000D02*
X147316000Y-130609000D01*
X149865000Y-128470000D02*
X149771000Y-128564000D01*
X149659000Y-128265000D02*
X149531000Y-128394000D01*
X147649000Y-127185000D02*
X147521000Y-127314000D01*
X147409000Y-127015000D02*
X147316000Y-127109000D01*
X149865000Y-124970000D02*
X149771000Y-125064000D01*
X149659000Y-124765000D02*
X149531000Y-124894000D01*
X147649000Y-123685000D02*
X147521000Y-123814000D01*
X147409000Y-123515000D02*
X147316000Y-123609000D01*
X149865000Y-121470000D02*
X149771000Y-121564000D01*
X149659000Y-121265000D02*
X149531000Y-121394000D01*
X147649000Y-120185000D02*
X147521000Y-120314000D01*
X147409000Y-120015000D02*
X147316000Y-120109000D01*
X149865000Y-117970000D02*
X149771000Y-118064000D01*
X149659000Y-117765000D02*
X149531000Y-117894000D01*
X151750000Y-117230000D02*
X144030000Y-117230000D01*
X147700106Y-144965358D02*
G75*
G03*
X149456000Y-144980000I889894J1425356D01*
G01*
X146909902Y-143511326D02*
G75*
G03*
X147150000Y-144406000I1680112J-28671D01*
G01*
X147165279Y-142649736D02*
G75*
G03*
X146910000Y-143540000I1424711J-890261D01*
G01*
X150015358Y-144429894D02*
G75*
G03*
X150030000Y-142674000I-1425356J889894D01*
G01*
X149480193Y-142114496D02*
G75*
G03*
X147699000Y-142115000I-890193J-1425507D01*
G01*
X150270000Y-140040000D02*
G75*
G03*
X150270000Y-140040000I-1680000J0D01*
G01*
X150270000Y-136540000D02*
G75*
G03*
X150270000Y-136540000I-1680000J0D01*
G01*
X150270000Y-133040000D02*
G75*
G03*
X150270000Y-133040000I-1680000J0D01*
G01*
X150270000Y-129540000D02*
G75*
G03*
X150270000Y-129540000I-1680000J0D01*
G01*
X150270000Y-126040000D02*
G75*
G03*
X150270000Y-126040000I-1680000J0D01*
G01*
X150270000Y-122540000D02*
G75*
G03*
X150270000Y-122540000I-1680000J0D01*
G01*
X150270000Y-119040000D02*
G75*
G03*
X150270000Y-119040000I-1680000J0D01*
G01*
D13*
G04 #@! TO.C,J5*
X153347000Y-115838000D02*
X153347000Y-116788000D01*
X153347000Y-115838000D02*
X154897000Y-115838000D01*
X153347000Y-127788000D02*
X153347000Y-130288000D01*
X153347000Y-130288000D02*
X166947000Y-130288000D01*
X165397000Y-115838000D02*
X166947000Y-115838000D01*
X166947000Y-115838000D02*
X166947000Y-116788000D01*
X166947000Y-127788000D02*
X166947000Y-130288000D01*
X154897000Y-115837999D02*
G75*
G03*
X165397000Y-115837999I5250000J9038540D01*
G01*
X164447000Y-120363000D02*
G75*
G03*
X164447000Y-120363000I-100000J0D01*
G01*
D12*
G04 #@! TO.C,J1*
X161010000Y-130990000D02*
X161010000Y-131390000D01*
X160370000Y-130990000D02*
X161010000Y-130990000D01*
X160770000Y-131230000D02*
X160770000Y-145350000D01*
X160310000Y-131230000D02*
X160310000Y-145350000D01*
X159210000Y-131230000D02*
X159210000Y-145350000D01*
X153050000Y-131230000D02*
X160770000Y-131230000D01*
X153050000Y-131230000D02*
X153050000Y-145350000D01*
X157151000Y-135395000D02*
X157279000Y-135266000D01*
X157391000Y-135565000D02*
X157484000Y-135471000D01*
X154935000Y-137610000D02*
X155029000Y-137516000D01*
X155141000Y-137815000D02*
X155269000Y-137686000D01*
X157151000Y-138895000D02*
X157279000Y-138766000D01*
X157391000Y-139065000D02*
X157484000Y-138971000D01*
X154935000Y-141110000D02*
X155029000Y-141016000D01*
X155141000Y-141315000D02*
X155269000Y-141186000D01*
X157151000Y-142395000D02*
X157279000Y-142266000D01*
X157391000Y-142565000D02*
X157484000Y-142471000D01*
X154935000Y-144610000D02*
X155029000Y-144516000D01*
X155141000Y-144815000D02*
X155269000Y-144686000D01*
X153050000Y-145350000D02*
X160770000Y-145350000D01*
X157099894Y-131614642D02*
G75*
G03*
X155344000Y-131600000I-889894J-1425356D01*
G01*
X157890098Y-133068674D02*
G75*
G03*
X157650000Y-132174000I-1680112J28671D01*
G01*
X157634721Y-133930264D02*
G75*
G03*
X157890000Y-133040000I-1424711J890261D01*
G01*
X154784642Y-132150106D02*
G75*
G03*
X154770000Y-133906000I1425356J-889894D01*
G01*
X155319807Y-134465504D02*
G75*
G03*
X157101000Y-134465000I890193J1425507D01*
G01*
X157890000Y-136540000D02*
G75*
G03*
X157890000Y-136540000I-1680000J0D01*
G01*
X157890000Y-140040000D02*
G75*
G03*
X157890000Y-140040000I-1680000J0D01*
G01*
X157890000Y-143540000D02*
G75*
G03*
X157890000Y-143540000I-1680000J0D01*
G01*
G04 #@! TD*
%LPC*%
D14*
G04 #@! TO.C,H4*
X165100000Y-142875000D03*
G04 #@! TD*
G04 #@! TO.C,H1*
X139700000Y-66675000D03*
G04 #@! TD*
G04 #@! TO.C,H3*
X139700000Y-142875000D03*
G04 #@! TD*
G04 #@! TO.C,H2*
X165100000Y-66675000D03*
G04 #@! TD*
D15*
G04 #@! TO.C,J3*
X138811000Y-100086000D03*
D16*
X138811000Y-102626000D03*
X138811000Y-105166000D03*
X138811000Y-107706000D03*
G04 #@! TD*
D15*
G04 #@! TO.C,J4*
X166243000Y-112014000D03*
D16*
X166243000Y-109474000D03*
X166243000Y-106934000D03*
X166243000Y-104394000D03*
X166243000Y-101854000D03*
X166243000Y-99314000D03*
G04 #@! TD*
D17*
G04 #@! TO.C,U5*
X152654000Y-71501000D03*
G04 #@! TD*
D18*
G04 #@! TO.C,J2*
X148590000Y-143540000D03*
D19*
X148590000Y-140040000D03*
X148590000Y-136540000D03*
X148590000Y-133040000D03*
X148590000Y-129540000D03*
X148590000Y-126040000D03*
X148590000Y-122540000D03*
X148590000Y-119040000D03*
G04 #@! TD*
D20*
G04 #@! TO.C,J5*
X163372000Y-120438000D03*
X162272000Y-120438000D03*
X161172000Y-120438000D03*
X160072000Y-120438000D03*
X158972000Y-120438000D03*
X157872000Y-120438000D03*
X156772000Y-120438000D03*
X155672000Y-120438000D03*
D21*
X153202000Y-118238000D03*
X153202000Y-126438000D03*
X167092000Y-126438000D03*
X167092000Y-118238000D03*
G04 #@! TD*
D18*
G04 #@! TO.C,J1*
X156210000Y-133040000D03*
D19*
X156210000Y-136540000D03*
X156210000Y-140040000D03*
X156210000Y-143540000D03*
G04 #@! TD*
%LPD*%
M02*
