G04 #@! TF.GenerationSoftware,KiCad,Pcbnew,7.0.8*
G04 #@! TF.CreationDate,2023-12-05T10:59:50-06:00*
G04 #@! TF.ProjectId,Flight_Board,466c6967-6874-45f4-926f-6172642e6b69,rev?*
G04 #@! TF.SameCoordinates,Original*
G04 #@! TF.FileFunction,Soldermask,Top*
G04 #@! TF.FilePolarity,Negative*
%FSLAX46Y46*%
G04 Gerber Fmt 4.6, Leading zero omitted, Abs format (unit mm)*
G04 Created by KiCad (PCBNEW 7.0.8) date 2023-12-05 10:59:50*
%MOMM*%
%LPD*%
G01*
G04 APERTURE LIST*
G04 Aperture macros list*
%AMRoundRect*
0 Rectangle with rounded corners*
0 $1 Rounding radius*
0 $2 $3 $4 $5 $6 $7 $8 $9 X,Y pos of 4 corners*
0 Add a 4 corners polygon primitive as box body*
4,1,4,$2,$3,$4,$5,$6,$7,$8,$9,$2,$3,0*
0 Add four circle primitives for the rounded corners*
1,1,$1+$1,$2,$3*
1,1,$1+$1,$4,$5*
1,1,$1+$1,$6,$7*
1,1,$1+$1,$8,$9*
0 Add four rect primitives between the rounded corners*
20,1,$1+$1,$2,$3,$4,$5,0*
20,1,$1+$1,$4,$5,$6,$7,0*
20,1,$1+$1,$6,$7,$8,$9,0*
20,1,$1+$1,$8,$9,$2,$3,0*%
%AMFreePoly0*
4,1,9,3.862500,-0.866500,0.737500,-0.866500,0.737500,-0.450000,-0.737500,-0.450000,-0.737500,0.450000,0.737500,0.450000,0.737500,0.866500,3.862500,0.866500,3.862500,-0.866500,3.862500,-0.866500,$1*%
G04 Aperture macros list end*
%ADD10C,3.200000*%
%ADD11RoundRect,0.237500X0.237500X-0.250000X0.237500X0.250000X-0.237500X0.250000X-0.237500X-0.250000X0*%
%ADD12RoundRect,0.237500X-0.237500X0.300000X-0.237500X-0.300000X0.237500X-0.300000X0.237500X0.300000X0*%
%ADD13RoundRect,0.237500X0.250000X0.237500X-0.250000X0.237500X-0.250000X-0.237500X0.250000X-0.237500X0*%
%ADD14C,1.000000*%
%ADD15RoundRect,0.237500X-0.300000X-0.237500X0.300000X-0.237500X0.300000X0.237500X-0.300000X0.237500X0*%
%ADD16RoundRect,0.237500X0.300000X0.237500X-0.300000X0.237500X-0.300000X-0.237500X0.300000X-0.237500X0*%
%ADD17RoundRect,0.237500X-0.237500X0.250000X-0.237500X-0.250000X0.237500X-0.250000X0.237500X0.250000X0*%
%ADD18RoundRect,0.237500X-0.287500X-0.237500X0.287500X-0.237500X0.287500X0.237500X-0.287500X0.237500X0*%
%ADD19RoundRect,0.237500X-0.250000X-0.237500X0.250000X-0.237500X0.250000X0.237500X-0.250000X0.237500X0*%
%ADD20R,1.300000X0.900000*%
%ADD21FreePoly0,0.000000*%
%ADD22RoundRect,0.237500X0.237500X-0.300000X0.237500X0.300000X-0.237500X0.300000X-0.237500X-0.300000X0*%
%ADD23C,1.620000*%
%ADD24RoundRect,0.237500X0.237500X-0.287500X0.237500X0.287500X-0.237500X0.287500X-0.237500X-0.287500X0*%
%ADD25R,0.675000X0.250000*%
%ADD26R,0.250000X0.675000*%
%ADD27RoundRect,0.237500X0.044194X0.380070X-0.380070X-0.044194X-0.044194X-0.380070X0.380070X0.044194X0*%
%ADD28RoundRect,0.062500X-0.362500X-0.062500X0.362500X-0.062500X0.362500X0.062500X-0.362500X0.062500X0*%
%ADD29RoundRect,0.062500X-0.062500X-0.362500X0.062500X-0.362500X0.062500X0.362500X-0.062500X0.362500X0*%
%ADD30R,2.550000X3.550000*%
%ADD31RoundRect,0.237500X0.287500X0.237500X-0.287500X0.237500X-0.287500X-0.237500X0.287500X-0.237500X0*%
%ADD32R,1.600000X1.300000*%
%ADD33C,1.200000*%
%ADD34RoundRect,0.250000X-0.750000X-0.250000X0.750000X-0.250000X0.750000X0.250000X-0.750000X0.250000X0*%
%ADD35RoundRect,0.175000X0.175000X-0.575000X0.175000X0.575000X-0.175000X0.575000X-0.175000X-0.575000X0*%
%ADD36RoundRect,0.075000X-0.548008X0.441942X0.441942X-0.548008X0.548008X-0.441942X-0.441942X0.548008X0*%
%ADD37RoundRect,0.075000X-0.548008X-0.441942X-0.441942X-0.548008X0.548008X0.441942X0.441942X0.548008X0*%
%ADD38R,0.254000X0.279400*%
%ADD39R,0.279400X0.254000*%
%ADD40RoundRect,0.150000X-0.325000X-0.150000X0.325000X-0.150000X0.325000X0.150000X-0.325000X0.150000X0*%
%ADD41RoundRect,0.150000X-0.150000X-0.325000X0.150000X-0.325000X0.150000X0.325000X-0.150000X0.325000X0*%
%ADD42R,2.400000X2.400000*%
%ADD43C,2.400000*%
%ADD44R,1.700000X1.700000*%
%ADD45O,1.700000X1.700000*%
G04 APERTURE END LIST*
D10*
G04 #@! TO.C,H4*
X165100000Y-142875000D03*
G04 #@! TD*
D11*
G04 #@! TO.C,R8*
X167386000Y-83716500D03*
X167386000Y-81891500D03*
G04 #@! TD*
D12*
G04 #@! TO.C,C16*
X167132000Y-91085500D03*
X167132000Y-92810500D03*
G04 #@! TD*
D13*
G04 #@! TO.C,R9*
X142009500Y-78105000D03*
X140184500Y-78105000D03*
G04 #@! TD*
D14*
G04 #@! TO.C,TP1*
X167005000Y-72898000D03*
G04 #@! TD*
D15*
G04 #@! TO.C,C32*
X145314500Y-131064000D03*
X147039500Y-131064000D03*
G04 #@! TD*
G04 #@! TO.C,C24*
X161697500Y-126746000D03*
X163422500Y-126746000D03*
G04 #@! TD*
D11*
G04 #@! TO.C,R1*
X151892000Y-115974500D03*
X151892000Y-114149500D03*
G04 #@! TD*
G04 #@! TO.C,R2*
X150114000Y-115720500D03*
X150114000Y-113895500D03*
G04 #@! TD*
D16*
G04 #@! TO.C,C28*
X156056500Y-126746000D03*
X154331500Y-126746000D03*
G04 #@! TD*
D14*
G04 #@! TO.C,TP17*
X156972000Y-119888000D03*
G04 #@! TD*
D17*
G04 #@! TO.C,R19*
X139319000Y-123674500D03*
X139319000Y-125499500D03*
G04 #@! TD*
D16*
G04 #@! TO.C,C30*
X159739500Y-125222000D03*
X158014500Y-125222000D03*
G04 #@! TD*
D18*
G04 #@! TO.C,D2*
X151525000Y-142748000D03*
X153275000Y-142748000D03*
G04 #@! TD*
D13*
G04 #@! TO.C,R11*
X142009500Y-76581000D03*
X140184500Y-76581000D03*
G04 #@! TD*
D19*
G04 #@! TO.C,R17*
X154281500Y-125222000D03*
X156106500Y-125222000D03*
G04 #@! TD*
D14*
G04 #@! TO.C,TP4*
X157099000Y-84963000D03*
G04 #@! TD*
D20*
G04 #@! TO.C,U7*
X161800750Y-134493000D03*
D21*
X161888250Y-135993000D03*
D20*
X161800750Y-137493000D03*
G04 #@! TD*
D10*
G04 #@! TO.C,H1*
X139700000Y-66675000D03*
G04 #@! TD*
D22*
G04 #@! TO.C,C33*
X146050000Y-139292500D03*
X146050000Y-137567500D03*
G04 #@! TD*
D10*
G04 #@! TO.C,H3*
X139700000Y-142875000D03*
G04 #@! TD*
D19*
G04 #@! TO.C,FB2*
X140184500Y-73533000D03*
X142009500Y-73533000D03*
G04 #@! TD*
D16*
G04 #@! TO.C,C27*
X159739500Y-123698000D03*
X158014500Y-123698000D03*
G04 #@! TD*
D19*
G04 #@! TO.C,R15*
X165330500Y-123698000D03*
X167155500Y-123698000D03*
G04 #@! TD*
D16*
G04 #@! TO.C,C4*
X148690500Y-96647000D03*
X146965500Y-96647000D03*
G04 #@! TD*
D13*
G04 #@! TO.C,R14*
X163472500Y-123698000D03*
X161647500Y-123698000D03*
G04 #@! TD*
D12*
G04 #@! TO.C,C36*
X146050000Y-119761000D03*
X146050000Y-121486000D03*
G04 #@! TD*
D13*
G04 #@! TO.C,R4*
X153312500Y-132461000D03*
X151487500Y-132461000D03*
G04 #@! TD*
D23*
G04 #@! TO.C,H5*
X137922000Y-83185000D03*
G04 #@! TD*
D19*
G04 #@! TO.C,R7*
X164441500Y-78994000D03*
X166266500Y-78994000D03*
G04 #@! TD*
D24*
G04 #@! TO.C,D3*
X153543000Y-91045000D03*
X153543000Y-89295000D03*
G04 #@! TD*
D11*
G04 #@! TO.C,R27*
X144399000Y-121536000D03*
X144399000Y-119711000D03*
G04 #@! TD*
D12*
G04 #@! TO.C,C22*
X159940750Y-136908500D03*
X159940750Y-138633500D03*
G04 #@! TD*
D15*
G04 #@! TO.C,C18*
X140234500Y-72009000D03*
X141959500Y-72009000D03*
G04 #@! TD*
D25*
G04 #@! TO.C,U6*
X159011500Y-91325000D03*
X159011500Y-91825000D03*
X159011500Y-92325000D03*
X159011500Y-92825000D03*
D26*
X159774000Y-93087500D03*
X160274000Y-93087500D03*
X160774000Y-93087500D03*
D25*
X161536500Y-92825000D03*
X161536500Y-92325000D03*
X161536500Y-91825000D03*
X161536500Y-91325000D03*
D26*
X160774000Y-91062500D03*
X160274000Y-91062500D03*
X159774000Y-91062500D03*
G04 #@! TD*
D14*
G04 #@! TO.C,TP16*
X163830000Y-117475000D03*
G04 #@! TD*
D22*
G04 #@! TO.C,C35*
X146050000Y-125322500D03*
X146050000Y-123597500D03*
G04 #@! TD*
D27*
G04 #@! TO.C,C3*
X144373880Y-110007120D03*
X143154120Y-111226880D03*
G04 #@! TD*
D15*
G04 #@! TO.C,C15*
X165634500Y-87884000D03*
X167359500Y-87884000D03*
G04 #@! TD*
G04 #@! TO.C,C17*
X140234500Y-70485000D03*
X141959500Y-70485000D03*
G04 #@! TD*
D10*
G04 #@! TO.C,H2*
X165100000Y-66675000D03*
G04 #@! TD*
D17*
G04 #@! TO.C,R18*
X140970000Y-123674500D03*
X140970000Y-125499500D03*
G04 #@! TD*
D15*
G04 #@! TO.C,C31*
X145314500Y-127889000D03*
X147039500Y-127889000D03*
G04 #@! TD*
G04 #@! TO.C,C9*
X155093500Y-97282000D03*
X156818500Y-97282000D03*
G04 #@! TD*
D12*
G04 #@! TO.C,C7*
X144526000Y-113310500D03*
X144526000Y-115035500D03*
G04 #@! TD*
D17*
G04 #@! TO.C,R20*
X138938000Y-119991500D03*
X138938000Y-121816500D03*
G04 #@! TD*
D28*
G04 #@! TO.C,U8*
X139786000Y-127790000D03*
X139786000Y-128290000D03*
X139786000Y-128790000D03*
X139786000Y-129290000D03*
X139786000Y-129790000D03*
X139786000Y-130290000D03*
X139786000Y-130790000D03*
X139786000Y-131290000D03*
D29*
X140486000Y-131990000D03*
X140986000Y-131990000D03*
X141486000Y-131990000D03*
X141986000Y-131990000D03*
X142486000Y-131990000D03*
X142986000Y-131990000D03*
D28*
X143686000Y-131290000D03*
X143686000Y-130790000D03*
X143686000Y-130290000D03*
X143686000Y-129790000D03*
X143686000Y-129290000D03*
X143686000Y-128790000D03*
X143686000Y-128290000D03*
X143686000Y-127790000D03*
D29*
X142986000Y-127090000D03*
X142486000Y-127090000D03*
X141986000Y-127090000D03*
X141486000Y-127090000D03*
X140986000Y-127090000D03*
X140486000Y-127090000D03*
D30*
X141736000Y-129540000D03*
G04 #@! TD*
D23*
G04 #@! TO.C,H7*
X163449000Y-71501000D03*
G04 #@! TD*
D17*
G04 #@! TO.C,R21*
X139192000Y-116435500D03*
X139192000Y-118260500D03*
G04 #@! TD*
D16*
G04 #@! TO.C,C8*
X159612500Y-111252000D03*
X157887500Y-111252000D03*
G04 #@! TD*
D12*
G04 #@! TO.C,C1*
X137668000Y-94133500D03*
X137668000Y-95858500D03*
G04 #@! TD*
D11*
G04 #@! TO.C,R25*
X144399000Y-135532500D03*
X144399000Y-133707500D03*
G04 #@! TD*
G04 #@! TO.C,R23*
X139954000Y-135405500D03*
X139954000Y-133580500D03*
G04 #@! TD*
D12*
G04 #@! TO.C,C34*
X146050000Y-133757500D03*
X146050000Y-135482500D03*
G04 #@! TD*
D22*
G04 #@! TO.C,C11*
X141859000Y-100811500D03*
X141859000Y-99086500D03*
G04 #@! TD*
D16*
G04 #@! TO.C,C6*
X148182500Y-115062000D03*
X146457500Y-115062000D03*
G04 #@! TD*
D31*
G04 #@! TO.C,D1*
X141972000Y-75057000D03*
X140222000Y-75057000D03*
G04 #@! TD*
D16*
G04 #@! TO.C,C29*
X156056500Y-123698000D03*
X154331500Y-123698000D03*
G04 #@! TD*
D22*
G04 #@! TO.C,C14*
X161671000Y-86460500D03*
X161671000Y-84735500D03*
G04 #@! TD*
D32*
G04 #@! TO.C,U1*
X139555000Y-96754000D03*
X143655000Y-96754000D03*
X143655000Y-94254000D03*
X139555000Y-94254000D03*
G04 #@! TD*
D19*
G04 #@! TO.C,R10*
X140184500Y-79629000D03*
X142009500Y-79629000D03*
G04 #@! TD*
G04 #@! TO.C,R5*
X151487500Y-134112000D03*
X153312500Y-134112000D03*
G04 #@! TD*
D22*
G04 #@! TO.C,C21*
X159940750Y-135077500D03*
X159940750Y-133352500D03*
G04 #@! TD*
D11*
G04 #@! TO.C,FB1*
X141732000Y-104290500D03*
X141732000Y-102465500D03*
G04 #@! TD*
D14*
G04 #@! TO.C,TP15*
X160020000Y-118999000D03*
G04 #@! TD*
D15*
G04 #@! TO.C,C23*
X158014500Y-126746000D03*
X159739500Y-126746000D03*
G04 #@! TD*
D33*
G04 #@! TO.C,U5*
X152654000Y-71501000D03*
D34*
X144454000Y-65551000D03*
X144454000Y-67051000D03*
X144454000Y-68551000D03*
X144454000Y-70051000D03*
X144454000Y-71551000D03*
X144454000Y-73051000D03*
X144454000Y-74551000D03*
X144454000Y-76051000D03*
X144454000Y-77551000D03*
X144454000Y-79051000D03*
X160454000Y-79051000D03*
X160454000Y-77551000D03*
X160454000Y-76051000D03*
X160454000Y-74551000D03*
X160454000Y-73051000D03*
X160454000Y-71551000D03*
X160454000Y-70051000D03*
X160454000Y-68551000D03*
X160454000Y-67051000D03*
X160454000Y-65551000D03*
G04 #@! TD*
D27*
G04 #@! TO.C,C5*
X143230880Y-108737120D03*
X142011120Y-109956880D03*
G04 #@! TD*
D35*
G04 #@! TO.C,U9*
X146780000Y-92376000D03*
X147880000Y-92376000D03*
X148980000Y-92376000D03*
X150080000Y-92376000D03*
X151180000Y-92376000D03*
X151180000Y-82376000D03*
X150080000Y-82376000D03*
X148980000Y-82376000D03*
X147880000Y-82376000D03*
X146780000Y-82376000D03*
G04 #@! TD*
D11*
G04 #@! TO.C,R3*
X154432000Y-116482500D03*
X154432000Y-114657500D03*
G04 #@! TD*
D36*
G04 #@! TO.C,U2*
X149133819Y-98618519D03*
X148780266Y-98972072D03*
X148426713Y-99325625D03*
X148073159Y-99679179D03*
X147719606Y-100032732D03*
X147366052Y-100386286D03*
X147012499Y-100739839D03*
X146658946Y-101093392D03*
X146305392Y-101446946D03*
X145951839Y-101800499D03*
X145598286Y-102154052D03*
X145244732Y-102507606D03*
X144891179Y-102861159D03*
X144537625Y-103214713D03*
X144184072Y-103568266D03*
X143830519Y-103921819D03*
D37*
X143830519Y-106644181D03*
X144184072Y-106997734D03*
X144537625Y-107351287D03*
X144891179Y-107704841D03*
X145244732Y-108058394D03*
X145598286Y-108411948D03*
X145951839Y-108765501D03*
X146305392Y-109119054D03*
X146658946Y-109472608D03*
X147012499Y-109826161D03*
X147366052Y-110179714D03*
X147719606Y-110533268D03*
X148073159Y-110886821D03*
X148426713Y-111240375D03*
X148780266Y-111593928D03*
X149133819Y-111947481D03*
D36*
X151856181Y-111947481D03*
X152209734Y-111593928D03*
X152563287Y-111240375D03*
X152916841Y-110886821D03*
X153270394Y-110533268D03*
X153623948Y-110179714D03*
X153977501Y-109826161D03*
X154331054Y-109472608D03*
X154684608Y-109119054D03*
X155038161Y-108765501D03*
X155391714Y-108411948D03*
X155745268Y-108058394D03*
X156098821Y-107704841D03*
X156452375Y-107351287D03*
X156805928Y-106997734D03*
X157159481Y-106644181D03*
D37*
X157159481Y-103921819D03*
X156805928Y-103568266D03*
X156452375Y-103214713D03*
X156098821Y-102861159D03*
X155745268Y-102507606D03*
X155391714Y-102154052D03*
X155038161Y-101800499D03*
X154684608Y-101446946D03*
X154331054Y-101093392D03*
X153977501Y-100739839D03*
X153623948Y-100386286D03*
X153270394Y-100032732D03*
X152916841Y-99679179D03*
X152563287Y-99325625D03*
X152209734Y-98972072D03*
X151856181Y-98618519D03*
G04 #@! TD*
D23*
G04 #@! TO.C,H6*
X137541000Y-136017000D03*
G04 #@! TD*
D13*
G04 #@! TO.C,R13*
X163472500Y-128270000D03*
X161647500Y-128270000D03*
G04 #@! TD*
D22*
G04 #@! TO.C,C10*
X143383000Y-100811500D03*
X143383000Y-99086500D03*
G04 #@! TD*
D38*
G04 #@! TO.C,U4*
X165096063Y-91198700D03*
X164595937Y-91198700D03*
D39*
X164096700Y-91447874D03*
X164096700Y-91948000D03*
X164096700Y-92448126D03*
D38*
X164595937Y-92697300D03*
X165096063Y-92697300D03*
D39*
X165595300Y-92448126D03*
X165595300Y-91948000D03*
X165595300Y-91447874D03*
G04 #@! TD*
D12*
G04 #@! TO.C,C19*
X164465000Y-94768500D03*
X164465000Y-96493500D03*
G04 #@! TD*
D17*
G04 #@! TO.C,R26*
X144399000Y-123547500D03*
X144399000Y-125372500D03*
G04 #@! TD*
D16*
G04 #@! TO.C,C26*
X167105500Y-125222000D03*
X165380500Y-125222000D03*
G04 #@! TD*
D11*
G04 #@! TO.C,R22*
X139954000Y-138961500D03*
X139954000Y-137136500D03*
G04 #@! TD*
G04 #@! TO.C,R28*
X156083000Y-90955500D03*
X156083000Y-89130500D03*
G04 #@! TD*
D15*
G04 #@! TO.C,C25*
X161697500Y-125222000D03*
X163422500Y-125222000D03*
G04 #@! TD*
D13*
G04 #@! TO.C,R30*
X156106500Y-82042000D03*
X154281500Y-82042000D03*
G04 #@! TD*
D15*
G04 #@! TO.C,C20*
X160808500Y-94615000D03*
X162533500Y-94615000D03*
G04 #@! TD*
D19*
G04 #@! TO.C,R29*
X145899500Y-93980000D03*
X147724500Y-93980000D03*
G04 #@! TD*
D16*
G04 #@! TO.C,C12*
X166089500Y-76073000D03*
X164364500Y-76073000D03*
G04 #@! TD*
D40*
G04 #@! TO.C,U3*
X163719000Y-82074000D03*
X163719000Y-82874000D03*
X163719000Y-83674000D03*
X163719000Y-84474000D03*
X163719000Y-85274000D03*
X163719000Y-86074000D03*
D41*
X164719000Y-86074000D03*
D40*
X165719000Y-86074000D03*
X165719000Y-85274000D03*
X165719000Y-84474000D03*
X165719000Y-83674000D03*
X165719000Y-82874000D03*
X165719000Y-82074000D03*
D41*
X164719000Y-82074000D03*
G04 #@! TD*
D17*
G04 #@! TO.C,R24*
X144399000Y-137517500D03*
X144399000Y-139342500D03*
G04 #@! TD*
D22*
G04 #@! TO.C,C13*
X159004000Y-86460500D03*
X159004000Y-84735500D03*
G04 #@! TD*
D19*
G04 #@! TO.C,R16*
X154281500Y-128270000D03*
X156106500Y-128270000D03*
G04 #@! TD*
G04 #@! TO.C,R6*
X158218500Y-99949000D03*
X160043500Y-99949000D03*
G04 #@! TD*
G04 #@! TO.C,R12*
X151487500Y-144399000D03*
X153312500Y-144399000D03*
G04 #@! TD*
D42*
G04 #@! TO.C,J2*
X148590000Y-143540000D03*
D43*
X148590000Y-140040000D03*
X148590000Y-136540000D03*
X148590000Y-133040000D03*
X148590000Y-129540000D03*
X148590000Y-126040000D03*
X148590000Y-122540000D03*
X148590000Y-119040000D03*
G04 #@! TD*
D44*
G04 #@! TO.C,J3*
X138811000Y-102997000D03*
D45*
X138811000Y-105537000D03*
X138811000Y-108077000D03*
X138811000Y-110617000D03*
G04 #@! TD*
D44*
G04 #@! TO.C,J4*
X166243000Y-112014000D03*
D45*
X166243000Y-109474000D03*
X166243000Y-106934000D03*
X166243000Y-104394000D03*
X166243000Y-101854000D03*
X166243000Y-99314000D03*
G04 #@! TD*
D42*
G04 #@! TO.C,J1*
X156210000Y-133040000D03*
D43*
X156210000Y-136540000D03*
X156210000Y-140040000D03*
X156210000Y-143540000D03*
G04 #@! TD*
M02*
