G04 #@! TF.GenerationSoftware,KiCad,Pcbnew,7.0.8*
G04 #@! TF.CreationDate,2023-12-05T10:59:50-06:00*
G04 #@! TF.ProjectId,Flight_Board,466c6967-6874-45f4-926f-6172642e6b69,rev?*
G04 #@! TF.SameCoordinates,Original*
G04 #@! TF.FileFunction,Legend,Top*
G04 #@! TF.FilePolarity,Positive*
%FSLAX46Y46*%
G04 Gerber Fmt 4.6, Leading zero omitted, Abs format (unit mm)*
G04 Created by KiCad (PCBNEW 7.0.8) date 2023-12-05 10:59:50*
%MOMM*%
%LPD*%
G01*
G04 APERTURE LIST*
G04 Aperture macros list*
%AMRoundRect*
0 Rectangle with rounded corners*
0 $1 Rounding radius*
0 $2 $3 $4 $5 $6 $7 $8 $9 X,Y pos of 4 corners*
0 Add a 4 corners polygon primitive as box body*
4,1,4,$2,$3,$4,$5,$6,$7,$8,$9,$2,$3,0*
0 Add four circle primitives for the rounded corners*
1,1,$1+$1,$2,$3*
1,1,$1+$1,$4,$5*
1,1,$1+$1,$6,$7*
1,1,$1+$1,$8,$9*
0 Add four rect primitives between the rounded corners*
20,1,$1+$1,$2,$3,$4,$5,0*
20,1,$1+$1,$4,$5,$6,$7,0*
20,1,$1+$1,$6,$7,$8,$9,0*
20,1,$1+$1,$8,$9,$2,$3,0*%
%AMFreePoly0*
4,1,9,3.862500,-0.866500,0.737500,-0.866500,0.737500,-0.450000,-0.737500,-0.450000,-0.737500,0.450000,0.737500,0.450000,0.737500,0.866500,3.862500,0.866500,3.862500,-0.866500,3.862500,-0.866500,$1*%
G04 Aperture macros list end*
%ADD10C,0.200000*%
%ADD11C,0.150000*%
%ADD12C,0.100000*%
%ADD13C,0.120000*%
%ADD14C,0.152400*%
%ADD15C,3.200000*%
%ADD16RoundRect,0.237500X0.237500X-0.250000X0.237500X0.250000X-0.237500X0.250000X-0.237500X-0.250000X0*%
%ADD17RoundRect,0.237500X-0.237500X0.300000X-0.237500X-0.300000X0.237500X-0.300000X0.237500X0.300000X0*%
%ADD18RoundRect,0.237500X0.250000X0.237500X-0.250000X0.237500X-0.250000X-0.237500X0.250000X-0.237500X0*%
%ADD19C,1.000000*%
%ADD20RoundRect,0.237500X-0.300000X-0.237500X0.300000X-0.237500X0.300000X0.237500X-0.300000X0.237500X0*%
%ADD21RoundRect,0.237500X0.300000X0.237500X-0.300000X0.237500X-0.300000X-0.237500X0.300000X-0.237500X0*%
%ADD22RoundRect,0.237500X-0.237500X0.250000X-0.237500X-0.250000X0.237500X-0.250000X0.237500X0.250000X0*%
%ADD23RoundRect,0.237500X-0.287500X-0.237500X0.287500X-0.237500X0.287500X0.237500X-0.287500X0.237500X0*%
%ADD24RoundRect,0.237500X-0.250000X-0.237500X0.250000X-0.237500X0.250000X0.237500X-0.250000X0.237500X0*%
%ADD25R,1.300000X0.900000*%
%ADD26FreePoly0,0.000000*%
%ADD27RoundRect,0.237500X0.237500X-0.300000X0.237500X0.300000X-0.237500X0.300000X-0.237500X-0.300000X0*%
%ADD28C,1.620000*%
%ADD29RoundRect,0.237500X0.237500X-0.287500X0.237500X0.287500X-0.237500X0.287500X-0.237500X-0.287500X0*%
%ADD30R,0.675000X0.250000*%
%ADD31R,0.250000X0.675000*%
%ADD32RoundRect,0.237500X0.044194X0.380070X-0.380070X-0.044194X-0.044194X-0.380070X0.380070X0.044194X0*%
%ADD33RoundRect,0.062500X-0.362500X-0.062500X0.362500X-0.062500X0.362500X0.062500X-0.362500X0.062500X0*%
%ADD34RoundRect,0.062500X-0.062500X-0.362500X0.062500X-0.362500X0.062500X0.362500X-0.062500X0.362500X0*%
%ADD35R,2.550000X3.550000*%
%ADD36RoundRect,0.237500X0.287500X0.237500X-0.287500X0.237500X-0.287500X-0.237500X0.287500X-0.237500X0*%
%ADD37R,1.600000X1.300000*%
%ADD38C,1.200000*%
%ADD39RoundRect,0.250000X-0.750000X-0.250000X0.750000X-0.250000X0.750000X0.250000X-0.750000X0.250000X0*%
%ADD40RoundRect,0.175000X0.175000X-0.575000X0.175000X0.575000X-0.175000X0.575000X-0.175000X-0.575000X0*%
%ADD41RoundRect,0.075000X-0.548008X0.441942X0.441942X-0.548008X0.548008X-0.441942X-0.441942X0.548008X0*%
%ADD42RoundRect,0.075000X-0.548008X-0.441942X-0.441942X-0.548008X0.548008X0.441942X0.441942X0.548008X0*%
%ADD43R,0.254000X0.279400*%
%ADD44R,0.279400X0.254000*%
%ADD45RoundRect,0.150000X-0.325000X-0.150000X0.325000X-0.150000X0.325000X0.150000X-0.325000X0.150000X0*%
%ADD46RoundRect,0.150000X-0.150000X-0.325000X0.150000X-0.325000X0.150000X0.325000X-0.150000X0.325000X0*%
%ADD47R,2.400000X2.400000*%
%ADD48C,2.400000*%
%ADD49R,1.700000X1.700000*%
%ADD50O,1.700000X1.700000*%
G04 APERTURE END LIST*
D10*
X163449000Y-81026000D02*
G75*
G03*
X163449000Y-81026000I-127000J0D01*
G01*
X138938000Y-127000000D02*
G75*
G03*
X138938000Y-127000000I-127000J0D01*
G01*
X158242000Y-91313000D02*
G75*
G03*
X158242000Y-91313000I-127000J0D01*
G01*
X146177000Y-92964000D02*
G75*
G03*
X146177000Y-92964000I-127000J0D01*
G01*
X165227000Y-90297000D02*
G75*
G03*
X165227000Y-90297000I-127000J0D01*
G01*
X143256000Y-65278000D02*
G75*
G03*
X143256000Y-65278000I-127000J0D01*
G01*
X148336000Y-97663000D02*
G75*
G03*
X148336000Y-97663000I-127000J0D01*
G01*
D11*
X167092333Y-80972819D02*
X166759000Y-80496628D01*
X166520905Y-80972819D02*
X166520905Y-79972819D01*
X166520905Y-79972819D02*
X166901857Y-79972819D01*
X166901857Y-79972819D02*
X166997095Y-80020438D01*
X166997095Y-80020438D02*
X167044714Y-80068057D01*
X167044714Y-80068057D02*
X167092333Y-80163295D01*
X167092333Y-80163295D02*
X167092333Y-80306152D01*
X167092333Y-80306152D02*
X167044714Y-80401390D01*
X167044714Y-80401390D02*
X166997095Y-80449009D01*
X166997095Y-80449009D02*
X166901857Y-80496628D01*
X166901857Y-80496628D02*
X166520905Y-80496628D01*
X167663762Y-80401390D02*
X167568524Y-80353771D01*
X167568524Y-80353771D02*
X167520905Y-80306152D01*
X167520905Y-80306152D02*
X167473286Y-80210914D01*
X167473286Y-80210914D02*
X167473286Y-80163295D01*
X167473286Y-80163295D02*
X167520905Y-80068057D01*
X167520905Y-80068057D02*
X167568524Y-80020438D01*
X167568524Y-80020438D02*
X167663762Y-79972819D01*
X167663762Y-79972819D02*
X167854238Y-79972819D01*
X167854238Y-79972819D02*
X167949476Y-80020438D01*
X167949476Y-80020438D02*
X167997095Y-80068057D01*
X167997095Y-80068057D02*
X168044714Y-80163295D01*
X168044714Y-80163295D02*
X168044714Y-80210914D01*
X168044714Y-80210914D02*
X167997095Y-80306152D01*
X167997095Y-80306152D02*
X167949476Y-80353771D01*
X167949476Y-80353771D02*
X167854238Y-80401390D01*
X167854238Y-80401390D02*
X167663762Y-80401390D01*
X167663762Y-80401390D02*
X167568524Y-80449009D01*
X167568524Y-80449009D02*
X167520905Y-80496628D01*
X167520905Y-80496628D02*
X167473286Y-80591866D01*
X167473286Y-80591866D02*
X167473286Y-80782342D01*
X167473286Y-80782342D02*
X167520905Y-80877580D01*
X167520905Y-80877580D02*
X167568524Y-80925200D01*
X167568524Y-80925200D02*
X167663762Y-80972819D01*
X167663762Y-80972819D02*
X167854238Y-80972819D01*
X167854238Y-80972819D02*
X167949476Y-80925200D01*
X167949476Y-80925200D02*
X167997095Y-80877580D01*
X167997095Y-80877580D02*
X168044714Y-80782342D01*
X168044714Y-80782342D02*
X168044714Y-80591866D01*
X168044714Y-80591866D02*
X167997095Y-80496628D01*
X167997095Y-80496628D02*
X167949476Y-80449009D01*
X167949476Y-80449009D02*
X167854238Y-80401390D01*
X166108142Y-90021580D02*
X166060523Y-90069200D01*
X166060523Y-90069200D02*
X165917666Y-90116819D01*
X165917666Y-90116819D02*
X165822428Y-90116819D01*
X165822428Y-90116819D02*
X165679571Y-90069200D01*
X165679571Y-90069200D02*
X165584333Y-89973961D01*
X165584333Y-89973961D02*
X165536714Y-89878723D01*
X165536714Y-89878723D02*
X165489095Y-89688247D01*
X165489095Y-89688247D02*
X165489095Y-89545390D01*
X165489095Y-89545390D02*
X165536714Y-89354914D01*
X165536714Y-89354914D02*
X165584333Y-89259676D01*
X165584333Y-89259676D02*
X165679571Y-89164438D01*
X165679571Y-89164438D02*
X165822428Y-89116819D01*
X165822428Y-89116819D02*
X165917666Y-89116819D01*
X165917666Y-89116819D02*
X166060523Y-89164438D01*
X166060523Y-89164438D02*
X166108142Y-89212057D01*
X167060523Y-90116819D02*
X166489095Y-90116819D01*
X166774809Y-90116819D02*
X166774809Y-89116819D01*
X166774809Y-89116819D02*
X166679571Y-89259676D01*
X166679571Y-89259676D02*
X166584333Y-89354914D01*
X166584333Y-89354914D02*
X166489095Y-89402533D01*
X167917666Y-89116819D02*
X167727190Y-89116819D01*
X167727190Y-89116819D02*
X167631952Y-89164438D01*
X167631952Y-89164438D02*
X167584333Y-89212057D01*
X167584333Y-89212057D02*
X167489095Y-89354914D01*
X167489095Y-89354914D02*
X167441476Y-89545390D01*
X167441476Y-89545390D02*
X167441476Y-89926342D01*
X167441476Y-89926342D02*
X167489095Y-90021580D01*
X167489095Y-90021580D02*
X167536714Y-90069200D01*
X167536714Y-90069200D02*
X167631952Y-90116819D01*
X167631952Y-90116819D02*
X167822428Y-90116819D01*
X167822428Y-90116819D02*
X167917666Y-90069200D01*
X167917666Y-90069200D02*
X167965285Y-90021580D01*
X167965285Y-90021580D02*
X168012904Y-89926342D01*
X168012904Y-89926342D02*
X168012904Y-89688247D01*
X168012904Y-89688247D02*
X167965285Y-89593009D01*
X167965285Y-89593009D02*
X167917666Y-89545390D01*
X167917666Y-89545390D02*
X167822428Y-89497771D01*
X167822428Y-89497771D02*
X167631952Y-89497771D01*
X167631952Y-89497771D02*
X167536714Y-89545390D01*
X167536714Y-89545390D02*
X167489095Y-89593009D01*
X167489095Y-89593009D02*
X167441476Y-89688247D01*
X137374333Y-78686819D02*
X137041000Y-78210628D01*
X136802905Y-78686819D02*
X136802905Y-77686819D01*
X136802905Y-77686819D02*
X137183857Y-77686819D01*
X137183857Y-77686819D02*
X137279095Y-77734438D01*
X137279095Y-77734438D02*
X137326714Y-77782057D01*
X137326714Y-77782057D02*
X137374333Y-77877295D01*
X137374333Y-77877295D02*
X137374333Y-78020152D01*
X137374333Y-78020152D02*
X137326714Y-78115390D01*
X137326714Y-78115390D02*
X137279095Y-78163009D01*
X137279095Y-78163009D02*
X137183857Y-78210628D01*
X137183857Y-78210628D02*
X136802905Y-78210628D01*
X137850524Y-78686819D02*
X138041000Y-78686819D01*
X138041000Y-78686819D02*
X138136238Y-78639200D01*
X138136238Y-78639200D02*
X138183857Y-78591580D01*
X138183857Y-78591580D02*
X138279095Y-78448723D01*
X138279095Y-78448723D02*
X138326714Y-78258247D01*
X138326714Y-78258247D02*
X138326714Y-77877295D01*
X138326714Y-77877295D02*
X138279095Y-77782057D01*
X138279095Y-77782057D02*
X138231476Y-77734438D01*
X138231476Y-77734438D02*
X138136238Y-77686819D01*
X138136238Y-77686819D02*
X137945762Y-77686819D01*
X137945762Y-77686819D02*
X137850524Y-77734438D01*
X137850524Y-77734438D02*
X137802905Y-77782057D01*
X137802905Y-77782057D02*
X137755286Y-77877295D01*
X137755286Y-77877295D02*
X137755286Y-78115390D01*
X137755286Y-78115390D02*
X137802905Y-78210628D01*
X137802905Y-78210628D02*
X137850524Y-78258247D01*
X137850524Y-78258247D02*
X137945762Y-78305866D01*
X137945762Y-78305866D02*
X138136238Y-78305866D01*
X138136238Y-78305866D02*
X138231476Y-78258247D01*
X138231476Y-78258247D02*
X138279095Y-78210628D01*
X138279095Y-78210628D02*
X138326714Y-78115390D01*
X145153142Y-132820580D02*
X145105523Y-132868200D01*
X145105523Y-132868200D02*
X144962666Y-132915819D01*
X144962666Y-132915819D02*
X144867428Y-132915819D01*
X144867428Y-132915819D02*
X144724571Y-132868200D01*
X144724571Y-132868200D02*
X144629333Y-132772961D01*
X144629333Y-132772961D02*
X144581714Y-132677723D01*
X144581714Y-132677723D02*
X144534095Y-132487247D01*
X144534095Y-132487247D02*
X144534095Y-132344390D01*
X144534095Y-132344390D02*
X144581714Y-132153914D01*
X144581714Y-132153914D02*
X144629333Y-132058676D01*
X144629333Y-132058676D02*
X144724571Y-131963438D01*
X144724571Y-131963438D02*
X144867428Y-131915819D01*
X144867428Y-131915819D02*
X144962666Y-131915819D01*
X144962666Y-131915819D02*
X145105523Y-131963438D01*
X145105523Y-131963438D02*
X145153142Y-132011057D01*
X145486476Y-131915819D02*
X146105523Y-131915819D01*
X146105523Y-131915819D02*
X145772190Y-132296771D01*
X145772190Y-132296771D02*
X145915047Y-132296771D01*
X145915047Y-132296771D02*
X146010285Y-132344390D01*
X146010285Y-132344390D02*
X146057904Y-132392009D01*
X146057904Y-132392009D02*
X146105523Y-132487247D01*
X146105523Y-132487247D02*
X146105523Y-132725342D01*
X146105523Y-132725342D02*
X146057904Y-132820580D01*
X146057904Y-132820580D02*
X146010285Y-132868200D01*
X146010285Y-132868200D02*
X145915047Y-132915819D01*
X145915047Y-132915819D02*
X145629333Y-132915819D01*
X145629333Y-132915819D02*
X145534095Y-132868200D01*
X145534095Y-132868200D02*
X145486476Y-132820580D01*
X146486476Y-132011057D02*
X146534095Y-131963438D01*
X146534095Y-131963438D02*
X146629333Y-131915819D01*
X146629333Y-131915819D02*
X146867428Y-131915819D01*
X146867428Y-131915819D02*
X146962666Y-131963438D01*
X146962666Y-131963438D02*
X147010285Y-132011057D01*
X147010285Y-132011057D02*
X147057904Y-132106295D01*
X147057904Y-132106295D02*
X147057904Y-132201533D01*
X147057904Y-132201533D02*
X147010285Y-132344390D01*
X147010285Y-132344390D02*
X146438857Y-132915819D01*
X146438857Y-132915819D02*
X147057904Y-132915819D01*
X161917142Y-130026580D02*
X161869523Y-130074200D01*
X161869523Y-130074200D02*
X161726666Y-130121819D01*
X161726666Y-130121819D02*
X161631428Y-130121819D01*
X161631428Y-130121819D02*
X161488571Y-130074200D01*
X161488571Y-130074200D02*
X161393333Y-129978961D01*
X161393333Y-129978961D02*
X161345714Y-129883723D01*
X161345714Y-129883723D02*
X161298095Y-129693247D01*
X161298095Y-129693247D02*
X161298095Y-129550390D01*
X161298095Y-129550390D02*
X161345714Y-129359914D01*
X161345714Y-129359914D02*
X161393333Y-129264676D01*
X161393333Y-129264676D02*
X161488571Y-129169438D01*
X161488571Y-129169438D02*
X161631428Y-129121819D01*
X161631428Y-129121819D02*
X161726666Y-129121819D01*
X161726666Y-129121819D02*
X161869523Y-129169438D01*
X161869523Y-129169438D02*
X161917142Y-129217057D01*
X162298095Y-129217057D02*
X162345714Y-129169438D01*
X162345714Y-129169438D02*
X162440952Y-129121819D01*
X162440952Y-129121819D02*
X162679047Y-129121819D01*
X162679047Y-129121819D02*
X162774285Y-129169438D01*
X162774285Y-129169438D02*
X162821904Y-129217057D01*
X162821904Y-129217057D02*
X162869523Y-129312295D01*
X162869523Y-129312295D02*
X162869523Y-129407533D01*
X162869523Y-129407533D02*
X162821904Y-129550390D01*
X162821904Y-129550390D02*
X162250476Y-130121819D01*
X162250476Y-130121819D02*
X162869523Y-130121819D01*
X163726666Y-129455152D02*
X163726666Y-130121819D01*
X163488571Y-129074200D02*
X163250476Y-129788485D01*
X163250476Y-129788485D02*
X163869523Y-129788485D01*
X151852333Y-117929819D02*
X151519000Y-117453628D01*
X151280905Y-117929819D02*
X151280905Y-116929819D01*
X151280905Y-116929819D02*
X151661857Y-116929819D01*
X151661857Y-116929819D02*
X151757095Y-116977438D01*
X151757095Y-116977438D02*
X151804714Y-117025057D01*
X151804714Y-117025057D02*
X151852333Y-117120295D01*
X151852333Y-117120295D02*
X151852333Y-117263152D01*
X151852333Y-117263152D02*
X151804714Y-117358390D01*
X151804714Y-117358390D02*
X151757095Y-117406009D01*
X151757095Y-117406009D02*
X151661857Y-117453628D01*
X151661857Y-117453628D02*
X151280905Y-117453628D01*
X152804714Y-117929819D02*
X152233286Y-117929819D01*
X152519000Y-117929819D02*
X152519000Y-116929819D01*
X152519000Y-116929819D02*
X152423762Y-117072676D01*
X152423762Y-117072676D02*
X152328524Y-117167914D01*
X152328524Y-117167914D02*
X152233286Y-117215533D01*
X149566333Y-117548819D02*
X149233000Y-117072628D01*
X148994905Y-117548819D02*
X148994905Y-116548819D01*
X148994905Y-116548819D02*
X149375857Y-116548819D01*
X149375857Y-116548819D02*
X149471095Y-116596438D01*
X149471095Y-116596438D02*
X149518714Y-116644057D01*
X149518714Y-116644057D02*
X149566333Y-116739295D01*
X149566333Y-116739295D02*
X149566333Y-116882152D01*
X149566333Y-116882152D02*
X149518714Y-116977390D01*
X149518714Y-116977390D02*
X149471095Y-117025009D01*
X149471095Y-117025009D02*
X149375857Y-117072628D01*
X149375857Y-117072628D02*
X148994905Y-117072628D01*
X149947286Y-116644057D02*
X149994905Y-116596438D01*
X149994905Y-116596438D02*
X150090143Y-116548819D01*
X150090143Y-116548819D02*
X150328238Y-116548819D01*
X150328238Y-116548819D02*
X150423476Y-116596438D01*
X150423476Y-116596438D02*
X150471095Y-116644057D01*
X150471095Y-116644057D02*
X150518714Y-116739295D01*
X150518714Y-116739295D02*
X150518714Y-116834533D01*
X150518714Y-116834533D02*
X150471095Y-116977390D01*
X150471095Y-116977390D02*
X149899667Y-117548819D01*
X149899667Y-117548819D02*
X150518714Y-117548819D01*
X154551142Y-130026580D02*
X154503523Y-130074200D01*
X154503523Y-130074200D02*
X154360666Y-130121819D01*
X154360666Y-130121819D02*
X154265428Y-130121819D01*
X154265428Y-130121819D02*
X154122571Y-130074200D01*
X154122571Y-130074200D02*
X154027333Y-129978961D01*
X154027333Y-129978961D02*
X153979714Y-129883723D01*
X153979714Y-129883723D02*
X153932095Y-129693247D01*
X153932095Y-129693247D02*
X153932095Y-129550390D01*
X153932095Y-129550390D02*
X153979714Y-129359914D01*
X153979714Y-129359914D02*
X154027333Y-129264676D01*
X154027333Y-129264676D02*
X154122571Y-129169438D01*
X154122571Y-129169438D02*
X154265428Y-129121819D01*
X154265428Y-129121819D02*
X154360666Y-129121819D01*
X154360666Y-129121819D02*
X154503523Y-129169438D01*
X154503523Y-129169438D02*
X154551142Y-129217057D01*
X154932095Y-129217057D02*
X154979714Y-129169438D01*
X154979714Y-129169438D02*
X155074952Y-129121819D01*
X155074952Y-129121819D02*
X155313047Y-129121819D01*
X155313047Y-129121819D02*
X155408285Y-129169438D01*
X155408285Y-129169438D02*
X155455904Y-129217057D01*
X155455904Y-129217057D02*
X155503523Y-129312295D01*
X155503523Y-129312295D02*
X155503523Y-129407533D01*
X155503523Y-129407533D02*
X155455904Y-129550390D01*
X155455904Y-129550390D02*
X154884476Y-130121819D01*
X154884476Y-130121819D02*
X155503523Y-130121819D01*
X156074952Y-129550390D02*
X155979714Y-129502771D01*
X155979714Y-129502771D02*
X155932095Y-129455152D01*
X155932095Y-129455152D02*
X155884476Y-129359914D01*
X155884476Y-129359914D02*
X155884476Y-129312295D01*
X155884476Y-129312295D02*
X155932095Y-129217057D01*
X155932095Y-129217057D02*
X155979714Y-129169438D01*
X155979714Y-129169438D02*
X156074952Y-129121819D01*
X156074952Y-129121819D02*
X156265428Y-129121819D01*
X156265428Y-129121819D02*
X156360666Y-129169438D01*
X156360666Y-129169438D02*
X156408285Y-129217057D01*
X156408285Y-129217057D02*
X156455904Y-129312295D01*
X156455904Y-129312295D02*
X156455904Y-129359914D01*
X156455904Y-129359914D02*
X156408285Y-129455152D01*
X156408285Y-129455152D02*
X156360666Y-129502771D01*
X156360666Y-129502771D02*
X156265428Y-129550390D01*
X156265428Y-129550390D02*
X156074952Y-129550390D01*
X156074952Y-129550390D02*
X155979714Y-129598009D01*
X155979714Y-129598009D02*
X155932095Y-129645628D01*
X155932095Y-129645628D02*
X155884476Y-129740866D01*
X155884476Y-129740866D02*
X155884476Y-129931342D01*
X155884476Y-129931342D02*
X155932095Y-130026580D01*
X155932095Y-130026580D02*
X155979714Y-130074200D01*
X155979714Y-130074200D02*
X156074952Y-130121819D01*
X156074952Y-130121819D02*
X156265428Y-130121819D01*
X156265428Y-130121819D02*
X156360666Y-130074200D01*
X156360666Y-130074200D02*
X156408285Y-130026580D01*
X156408285Y-130026580D02*
X156455904Y-129931342D01*
X156455904Y-129931342D02*
X156455904Y-129740866D01*
X156455904Y-129740866D02*
X156408285Y-129645628D01*
X156408285Y-129645628D02*
X156360666Y-129598009D01*
X156360666Y-129598009D02*
X156265428Y-129550390D01*
X138249819Y-125229857D02*
X137773628Y-125563190D01*
X138249819Y-125801285D02*
X137249819Y-125801285D01*
X137249819Y-125801285D02*
X137249819Y-125420333D01*
X137249819Y-125420333D02*
X137297438Y-125325095D01*
X137297438Y-125325095D02*
X137345057Y-125277476D01*
X137345057Y-125277476D02*
X137440295Y-125229857D01*
X137440295Y-125229857D02*
X137583152Y-125229857D01*
X137583152Y-125229857D02*
X137678390Y-125277476D01*
X137678390Y-125277476D02*
X137726009Y-125325095D01*
X137726009Y-125325095D02*
X137773628Y-125420333D01*
X137773628Y-125420333D02*
X137773628Y-125801285D01*
X138249819Y-124277476D02*
X138249819Y-124848904D01*
X138249819Y-124563190D02*
X137249819Y-124563190D01*
X137249819Y-124563190D02*
X137392676Y-124658428D01*
X137392676Y-124658428D02*
X137487914Y-124753666D01*
X137487914Y-124753666D02*
X137535533Y-124848904D01*
X138249819Y-123801285D02*
X138249819Y-123610809D01*
X138249819Y-123610809D02*
X138202200Y-123515571D01*
X138202200Y-123515571D02*
X138154580Y-123467952D01*
X138154580Y-123467952D02*
X138011723Y-123372714D01*
X138011723Y-123372714D02*
X137821247Y-123325095D01*
X137821247Y-123325095D02*
X137440295Y-123325095D01*
X137440295Y-123325095D02*
X137345057Y-123372714D01*
X137345057Y-123372714D02*
X137297438Y-123420333D01*
X137297438Y-123420333D02*
X137249819Y-123515571D01*
X137249819Y-123515571D02*
X137249819Y-123706047D01*
X137249819Y-123706047D02*
X137297438Y-123801285D01*
X137297438Y-123801285D02*
X137345057Y-123848904D01*
X137345057Y-123848904D02*
X137440295Y-123896523D01*
X137440295Y-123896523D02*
X137678390Y-123896523D01*
X137678390Y-123896523D02*
X137773628Y-123848904D01*
X137773628Y-123848904D02*
X137821247Y-123801285D01*
X137821247Y-123801285D02*
X137868866Y-123706047D01*
X137868866Y-123706047D02*
X137868866Y-123515571D01*
X137868866Y-123515571D02*
X137821247Y-123420333D01*
X137821247Y-123420333D02*
X137773628Y-123372714D01*
X137773628Y-123372714D02*
X137678390Y-123325095D01*
X158234142Y-122660580D02*
X158186523Y-122708200D01*
X158186523Y-122708200D02*
X158043666Y-122755819D01*
X158043666Y-122755819D02*
X157948428Y-122755819D01*
X157948428Y-122755819D02*
X157805571Y-122708200D01*
X157805571Y-122708200D02*
X157710333Y-122612961D01*
X157710333Y-122612961D02*
X157662714Y-122517723D01*
X157662714Y-122517723D02*
X157615095Y-122327247D01*
X157615095Y-122327247D02*
X157615095Y-122184390D01*
X157615095Y-122184390D02*
X157662714Y-121993914D01*
X157662714Y-121993914D02*
X157710333Y-121898676D01*
X157710333Y-121898676D02*
X157805571Y-121803438D01*
X157805571Y-121803438D02*
X157948428Y-121755819D01*
X157948428Y-121755819D02*
X158043666Y-121755819D01*
X158043666Y-121755819D02*
X158186523Y-121803438D01*
X158186523Y-121803438D02*
X158234142Y-121851057D01*
X158567476Y-121755819D02*
X159186523Y-121755819D01*
X159186523Y-121755819D02*
X158853190Y-122136771D01*
X158853190Y-122136771D02*
X158996047Y-122136771D01*
X158996047Y-122136771D02*
X159091285Y-122184390D01*
X159091285Y-122184390D02*
X159138904Y-122232009D01*
X159138904Y-122232009D02*
X159186523Y-122327247D01*
X159186523Y-122327247D02*
X159186523Y-122565342D01*
X159186523Y-122565342D02*
X159138904Y-122660580D01*
X159138904Y-122660580D02*
X159091285Y-122708200D01*
X159091285Y-122708200D02*
X158996047Y-122755819D01*
X158996047Y-122755819D02*
X158710333Y-122755819D01*
X158710333Y-122755819D02*
X158615095Y-122708200D01*
X158615095Y-122708200D02*
X158567476Y-122660580D01*
X159805571Y-121755819D02*
X159900809Y-121755819D01*
X159900809Y-121755819D02*
X159996047Y-121803438D01*
X159996047Y-121803438D02*
X160043666Y-121851057D01*
X160043666Y-121851057D02*
X160091285Y-121946295D01*
X160091285Y-121946295D02*
X160138904Y-122136771D01*
X160138904Y-122136771D02*
X160138904Y-122374866D01*
X160138904Y-122374866D02*
X160091285Y-122565342D01*
X160091285Y-122565342D02*
X160043666Y-122660580D01*
X160043666Y-122660580D02*
X159996047Y-122708200D01*
X159996047Y-122708200D02*
X159900809Y-122755819D01*
X159900809Y-122755819D02*
X159805571Y-122755819D01*
X159805571Y-122755819D02*
X159710333Y-122708200D01*
X159710333Y-122708200D02*
X159662714Y-122660580D01*
X159662714Y-122660580D02*
X159615095Y-122565342D01*
X159615095Y-122565342D02*
X159567476Y-122374866D01*
X159567476Y-122374866D02*
X159567476Y-122136771D01*
X159567476Y-122136771D02*
X159615095Y-121946295D01*
X159615095Y-121946295D02*
X159662714Y-121851057D01*
X159662714Y-121851057D02*
X159710333Y-121803438D01*
X159710333Y-121803438D02*
X159805571Y-121755819D01*
X151661905Y-140535819D02*
X151661905Y-139535819D01*
X151661905Y-139535819D02*
X151900000Y-139535819D01*
X151900000Y-139535819D02*
X152042857Y-139583438D01*
X152042857Y-139583438D02*
X152138095Y-139678676D01*
X152138095Y-139678676D02*
X152185714Y-139773914D01*
X152185714Y-139773914D02*
X152233333Y-139964390D01*
X152233333Y-139964390D02*
X152233333Y-140107247D01*
X152233333Y-140107247D02*
X152185714Y-140297723D01*
X152185714Y-140297723D02*
X152138095Y-140392961D01*
X152138095Y-140392961D02*
X152042857Y-140488200D01*
X152042857Y-140488200D02*
X151900000Y-140535819D01*
X151900000Y-140535819D02*
X151661905Y-140535819D01*
X152614286Y-139631057D02*
X152661905Y-139583438D01*
X152661905Y-139583438D02*
X152757143Y-139535819D01*
X152757143Y-139535819D02*
X152995238Y-139535819D01*
X152995238Y-139535819D02*
X153090476Y-139583438D01*
X153090476Y-139583438D02*
X153138095Y-139631057D01*
X153138095Y-139631057D02*
X153185714Y-139726295D01*
X153185714Y-139726295D02*
X153185714Y-139821533D01*
X153185714Y-139821533D02*
X153138095Y-139964390D01*
X153138095Y-139964390D02*
X152566667Y-140535819D01*
X152566667Y-140535819D02*
X153185714Y-140535819D01*
X137406142Y-77162819D02*
X137072809Y-76686628D01*
X136834714Y-77162819D02*
X136834714Y-76162819D01*
X136834714Y-76162819D02*
X137215666Y-76162819D01*
X137215666Y-76162819D02*
X137310904Y-76210438D01*
X137310904Y-76210438D02*
X137358523Y-76258057D01*
X137358523Y-76258057D02*
X137406142Y-76353295D01*
X137406142Y-76353295D02*
X137406142Y-76496152D01*
X137406142Y-76496152D02*
X137358523Y-76591390D01*
X137358523Y-76591390D02*
X137310904Y-76639009D01*
X137310904Y-76639009D02*
X137215666Y-76686628D01*
X137215666Y-76686628D02*
X136834714Y-76686628D01*
X138358523Y-77162819D02*
X137787095Y-77162819D01*
X138072809Y-77162819D02*
X138072809Y-76162819D01*
X138072809Y-76162819D02*
X137977571Y-76305676D01*
X137977571Y-76305676D02*
X137882333Y-76400914D01*
X137882333Y-76400914D02*
X137787095Y-76448533D01*
X139310904Y-77162819D02*
X138739476Y-77162819D01*
X139025190Y-77162819D02*
X139025190Y-76162819D01*
X139025190Y-76162819D02*
X138929952Y-76305676D01*
X138929952Y-76305676D02*
X138834714Y-76400914D01*
X138834714Y-76400914D02*
X138739476Y-76448533D01*
X154551142Y-122755819D02*
X154217809Y-122279628D01*
X153979714Y-122755819D02*
X153979714Y-121755819D01*
X153979714Y-121755819D02*
X154360666Y-121755819D01*
X154360666Y-121755819D02*
X154455904Y-121803438D01*
X154455904Y-121803438D02*
X154503523Y-121851057D01*
X154503523Y-121851057D02*
X154551142Y-121946295D01*
X154551142Y-121946295D02*
X154551142Y-122089152D01*
X154551142Y-122089152D02*
X154503523Y-122184390D01*
X154503523Y-122184390D02*
X154455904Y-122232009D01*
X154455904Y-122232009D02*
X154360666Y-122279628D01*
X154360666Y-122279628D02*
X153979714Y-122279628D01*
X155503523Y-122755819D02*
X154932095Y-122755819D01*
X155217809Y-122755819D02*
X155217809Y-121755819D01*
X155217809Y-121755819D02*
X155122571Y-121898676D01*
X155122571Y-121898676D02*
X155027333Y-121993914D01*
X155027333Y-121993914D02*
X154932095Y-122041533D01*
X155836857Y-121755819D02*
X156503523Y-121755819D01*
X156503523Y-121755819D02*
X156074952Y-122755819D01*
X163195095Y-132169819D02*
X163195095Y-132979342D01*
X163195095Y-132979342D02*
X163242714Y-133074580D01*
X163242714Y-133074580D02*
X163290333Y-133122200D01*
X163290333Y-133122200D02*
X163385571Y-133169819D01*
X163385571Y-133169819D02*
X163576047Y-133169819D01*
X163576047Y-133169819D02*
X163671285Y-133122200D01*
X163671285Y-133122200D02*
X163718904Y-133074580D01*
X163718904Y-133074580D02*
X163766523Y-132979342D01*
X163766523Y-132979342D02*
X163766523Y-132169819D01*
X164147476Y-132169819D02*
X164814142Y-132169819D01*
X164814142Y-132169819D02*
X164385571Y-133169819D01*
X145153142Y-141329580D02*
X145105523Y-141377200D01*
X145105523Y-141377200D02*
X144962666Y-141424819D01*
X144962666Y-141424819D02*
X144867428Y-141424819D01*
X144867428Y-141424819D02*
X144724571Y-141377200D01*
X144724571Y-141377200D02*
X144629333Y-141281961D01*
X144629333Y-141281961D02*
X144581714Y-141186723D01*
X144581714Y-141186723D02*
X144534095Y-140996247D01*
X144534095Y-140996247D02*
X144534095Y-140853390D01*
X144534095Y-140853390D02*
X144581714Y-140662914D01*
X144581714Y-140662914D02*
X144629333Y-140567676D01*
X144629333Y-140567676D02*
X144724571Y-140472438D01*
X144724571Y-140472438D02*
X144867428Y-140424819D01*
X144867428Y-140424819D02*
X144962666Y-140424819D01*
X144962666Y-140424819D02*
X145105523Y-140472438D01*
X145105523Y-140472438D02*
X145153142Y-140520057D01*
X145486476Y-140424819D02*
X146105523Y-140424819D01*
X146105523Y-140424819D02*
X145772190Y-140805771D01*
X145772190Y-140805771D02*
X145915047Y-140805771D01*
X145915047Y-140805771D02*
X146010285Y-140853390D01*
X146010285Y-140853390D02*
X146057904Y-140901009D01*
X146057904Y-140901009D02*
X146105523Y-140996247D01*
X146105523Y-140996247D02*
X146105523Y-141234342D01*
X146105523Y-141234342D02*
X146057904Y-141329580D01*
X146057904Y-141329580D02*
X146010285Y-141377200D01*
X146010285Y-141377200D02*
X145915047Y-141424819D01*
X145915047Y-141424819D02*
X145629333Y-141424819D01*
X145629333Y-141424819D02*
X145534095Y-141377200D01*
X145534095Y-141377200D02*
X145486476Y-141329580D01*
X146438857Y-140424819D02*
X147057904Y-140424819D01*
X147057904Y-140424819D02*
X146724571Y-140805771D01*
X146724571Y-140805771D02*
X146867428Y-140805771D01*
X146867428Y-140805771D02*
X146962666Y-140853390D01*
X146962666Y-140853390D02*
X147010285Y-140901009D01*
X147010285Y-140901009D02*
X147057904Y-140996247D01*
X147057904Y-140996247D02*
X147057904Y-141234342D01*
X147057904Y-141234342D02*
X147010285Y-141329580D01*
X147010285Y-141329580D02*
X146962666Y-141377200D01*
X146962666Y-141377200D02*
X146867428Y-141424819D01*
X146867428Y-141424819D02*
X146581714Y-141424819D01*
X146581714Y-141424819D02*
X146486476Y-141377200D01*
X146486476Y-141377200D02*
X146438857Y-141329580D01*
X137215666Y-73464009D02*
X136882333Y-73464009D01*
X136882333Y-73987819D02*
X136882333Y-72987819D01*
X136882333Y-72987819D02*
X137358523Y-72987819D01*
X138072809Y-73464009D02*
X138215666Y-73511628D01*
X138215666Y-73511628D02*
X138263285Y-73559247D01*
X138263285Y-73559247D02*
X138310904Y-73654485D01*
X138310904Y-73654485D02*
X138310904Y-73797342D01*
X138310904Y-73797342D02*
X138263285Y-73892580D01*
X138263285Y-73892580D02*
X138215666Y-73940200D01*
X138215666Y-73940200D02*
X138120428Y-73987819D01*
X138120428Y-73987819D02*
X137739476Y-73987819D01*
X137739476Y-73987819D02*
X137739476Y-72987819D01*
X137739476Y-72987819D02*
X138072809Y-72987819D01*
X138072809Y-72987819D02*
X138168047Y-73035438D01*
X138168047Y-73035438D02*
X138215666Y-73083057D01*
X138215666Y-73083057D02*
X138263285Y-73178295D01*
X138263285Y-73178295D02*
X138263285Y-73273533D01*
X138263285Y-73273533D02*
X138215666Y-73368771D01*
X138215666Y-73368771D02*
X138168047Y-73416390D01*
X138168047Y-73416390D02*
X138072809Y-73464009D01*
X138072809Y-73464009D02*
X137739476Y-73464009D01*
X138691857Y-73083057D02*
X138739476Y-73035438D01*
X138739476Y-73035438D02*
X138834714Y-72987819D01*
X138834714Y-72987819D02*
X139072809Y-72987819D01*
X139072809Y-72987819D02*
X139168047Y-73035438D01*
X139168047Y-73035438D02*
X139215666Y-73083057D01*
X139215666Y-73083057D02*
X139263285Y-73178295D01*
X139263285Y-73178295D02*
X139263285Y-73273533D01*
X139263285Y-73273533D02*
X139215666Y-73416390D01*
X139215666Y-73416390D02*
X138644238Y-73987819D01*
X138644238Y-73987819D02*
X139263285Y-73987819D01*
X158234142Y-121390580D02*
X158186523Y-121438200D01*
X158186523Y-121438200D02*
X158043666Y-121485819D01*
X158043666Y-121485819D02*
X157948428Y-121485819D01*
X157948428Y-121485819D02*
X157805571Y-121438200D01*
X157805571Y-121438200D02*
X157710333Y-121342961D01*
X157710333Y-121342961D02*
X157662714Y-121247723D01*
X157662714Y-121247723D02*
X157615095Y-121057247D01*
X157615095Y-121057247D02*
X157615095Y-120914390D01*
X157615095Y-120914390D02*
X157662714Y-120723914D01*
X157662714Y-120723914D02*
X157710333Y-120628676D01*
X157710333Y-120628676D02*
X157805571Y-120533438D01*
X157805571Y-120533438D02*
X157948428Y-120485819D01*
X157948428Y-120485819D02*
X158043666Y-120485819D01*
X158043666Y-120485819D02*
X158186523Y-120533438D01*
X158186523Y-120533438D02*
X158234142Y-120581057D01*
X158615095Y-120581057D02*
X158662714Y-120533438D01*
X158662714Y-120533438D02*
X158757952Y-120485819D01*
X158757952Y-120485819D02*
X158996047Y-120485819D01*
X158996047Y-120485819D02*
X159091285Y-120533438D01*
X159091285Y-120533438D02*
X159138904Y-120581057D01*
X159138904Y-120581057D02*
X159186523Y-120676295D01*
X159186523Y-120676295D02*
X159186523Y-120771533D01*
X159186523Y-120771533D02*
X159138904Y-120914390D01*
X159138904Y-120914390D02*
X158567476Y-121485819D01*
X158567476Y-121485819D02*
X159186523Y-121485819D01*
X159519857Y-120485819D02*
X160186523Y-120485819D01*
X160186523Y-120485819D02*
X159757952Y-121485819D01*
X165600142Y-122755819D02*
X165266809Y-122279628D01*
X165028714Y-122755819D02*
X165028714Y-121755819D01*
X165028714Y-121755819D02*
X165409666Y-121755819D01*
X165409666Y-121755819D02*
X165504904Y-121803438D01*
X165504904Y-121803438D02*
X165552523Y-121851057D01*
X165552523Y-121851057D02*
X165600142Y-121946295D01*
X165600142Y-121946295D02*
X165600142Y-122089152D01*
X165600142Y-122089152D02*
X165552523Y-122184390D01*
X165552523Y-122184390D02*
X165504904Y-122232009D01*
X165504904Y-122232009D02*
X165409666Y-122279628D01*
X165409666Y-122279628D02*
X165028714Y-122279628D01*
X166552523Y-122755819D02*
X165981095Y-122755819D01*
X166266809Y-122755819D02*
X166266809Y-121755819D01*
X166266809Y-121755819D02*
X166171571Y-121898676D01*
X166171571Y-121898676D02*
X166076333Y-121993914D01*
X166076333Y-121993914D02*
X165981095Y-122041533D01*
X167457285Y-121755819D02*
X166981095Y-121755819D01*
X166981095Y-121755819D02*
X166933476Y-122232009D01*
X166933476Y-122232009D02*
X166981095Y-122184390D01*
X166981095Y-122184390D02*
X167076333Y-122136771D01*
X167076333Y-122136771D02*
X167314428Y-122136771D01*
X167314428Y-122136771D02*
X167409666Y-122184390D01*
X167409666Y-122184390D02*
X167457285Y-122232009D01*
X167457285Y-122232009D02*
X167504904Y-122327247D01*
X167504904Y-122327247D02*
X167504904Y-122565342D01*
X167504904Y-122565342D02*
X167457285Y-122660580D01*
X167457285Y-122660580D02*
X167409666Y-122708200D01*
X167409666Y-122708200D02*
X167314428Y-122755819D01*
X167314428Y-122755819D02*
X167076333Y-122755819D01*
X167076333Y-122755819D02*
X166981095Y-122708200D01*
X166981095Y-122708200D02*
X166933476Y-122660580D01*
X147661333Y-95736580D02*
X147613714Y-95784200D01*
X147613714Y-95784200D02*
X147470857Y-95831819D01*
X147470857Y-95831819D02*
X147375619Y-95831819D01*
X147375619Y-95831819D02*
X147232762Y-95784200D01*
X147232762Y-95784200D02*
X147137524Y-95688961D01*
X147137524Y-95688961D02*
X147089905Y-95593723D01*
X147089905Y-95593723D02*
X147042286Y-95403247D01*
X147042286Y-95403247D02*
X147042286Y-95260390D01*
X147042286Y-95260390D02*
X147089905Y-95069914D01*
X147089905Y-95069914D02*
X147137524Y-94974676D01*
X147137524Y-94974676D02*
X147232762Y-94879438D01*
X147232762Y-94879438D02*
X147375619Y-94831819D01*
X147375619Y-94831819D02*
X147470857Y-94831819D01*
X147470857Y-94831819D02*
X147613714Y-94879438D01*
X147613714Y-94879438D02*
X147661333Y-94927057D01*
X148518476Y-95165152D02*
X148518476Y-95831819D01*
X148280381Y-94784200D02*
X148042286Y-95498485D01*
X148042286Y-95498485D02*
X148661333Y-95498485D01*
X161917142Y-121485819D02*
X161583809Y-121009628D01*
X161345714Y-121485819D02*
X161345714Y-120485819D01*
X161345714Y-120485819D02*
X161726666Y-120485819D01*
X161726666Y-120485819D02*
X161821904Y-120533438D01*
X161821904Y-120533438D02*
X161869523Y-120581057D01*
X161869523Y-120581057D02*
X161917142Y-120676295D01*
X161917142Y-120676295D02*
X161917142Y-120819152D01*
X161917142Y-120819152D02*
X161869523Y-120914390D01*
X161869523Y-120914390D02*
X161821904Y-120962009D01*
X161821904Y-120962009D02*
X161726666Y-121009628D01*
X161726666Y-121009628D02*
X161345714Y-121009628D01*
X162869523Y-121485819D02*
X162298095Y-121485819D01*
X162583809Y-121485819D02*
X162583809Y-120485819D01*
X162583809Y-120485819D02*
X162488571Y-120628676D01*
X162488571Y-120628676D02*
X162393333Y-120723914D01*
X162393333Y-120723914D02*
X162298095Y-120771533D01*
X163726666Y-120819152D02*
X163726666Y-121485819D01*
X163488571Y-120438200D02*
X163250476Y-121152485D01*
X163250476Y-121152485D02*
X163869523Y-121152485D01*
X147566142Y-121136580D02*
X147518523Y-121184200D01*
X147518523Y-121184200D02*
X147375666Y-121231819D01*
X147375666Y-121231819D02*
X147280428Y-121231819D01*
X147280428Y-121231819D02*
X147137571Y-121184200D01*
X147137571Y-121184200D02*
X147042333Y-121088961D01*
X147042333Y-121088961D02*
X146994714Y-120993723D01*
X146994714Y-120993723D02*
X146947095Y-120803247D01*
X146947095Y-120803247D02*
X146947095Y-120660390D01*
X146947095Y-120660390D02*
X146994714Y-120469914D01*
X146994714Y-120469914D02*
X147042333Y-120374676D01*
X147042333Y-120374676D02*
X147137571Y-120279438D01*
X147137571Y-120279438D02*
X147280428Y-120231819D01*
X147280428Y-120231819D02*
X147375666Y-120231819D01*
X147375666Y-120231819D02*
X147518523Y-120279438D01*
X147518523Y-120279438D02*
X147566142Y-120327057D01*
X147899476Y-120231819D02*
X148518523Y-120231819D01*
X148518523Y-120231819D02*
X148185190Y-120612771D01*
X148185190Y-120612771D02*
X148328047Y-120612771D01*
X148328047Y-120612771D02*
X148423285Y-120660390D01*
X148423285Y-120660390D02*
X148470904Y-120708009D01*
X148470904Y-120708009D02*
X148518523Y-120803247D01*
X148518523Y-120803247D02*
X148518523Y-121041342D01*
X148518523Y-121041342D02*
X148470904Y-121136580D01*
X148470904Y-121136580D02*
X148423285Y-121184200D01*
X148423285Y-121184200D02*
X148328047Y-121231819D01*
X148328047Y-121231819D02*
X148042333Y-121231819D01*
X148042333Y-121231819D02*
X147947095Y-121184200D01*
X147947095Y-121184200D02*
X147899476Y-121136580D01*
X149375666Y-120231819D02*
X149185190Y-120231819D01*
X149185190Y-120231819D02*
X149089952Y-120279438D01*
X149089952Y-120279438D02*
X149042333Y-120327057D01*
X149042333Y-120327057D02*
X148947095Y-120469914D01*
X148947095Y-120469914D02*
X148899476Y-120660390D01*
X148899476Y-120660390D02*
X148899476Y-121041342D01*
X148899476Y-121041342D02*
X148947095Y-121136580D01*
X148947095Y-121136580D02*
X148994714Y-121184200D01*
X148994714Y-121184200D02*
X149089952Y-121231819D01*
X149089952Y-121231819D02*
X149280428Y-121231819D01*
X149280428Y-121231819D02*
X149375666Y-121184200D01*
X149375666Y-121184200D02*
X149423285Y-121136580D01*
X149423285Y-121136580D02*
X149470904Y-121041342D01*
X149470904Y-121041342D02*
X149470904Y-120803247D01*
X149470904Y-120803247D02*
X149423285Y-120708009D01*
X149423285Y-120708009D02*
X149375666Y-120660390D01*
X149375666Y-120660390D02*
X149280428Y-120612771D01*
X149280428Y-120612771D02*
X149089952Y-120612771D01*
X149089952Y-120612771D02*
X148994714Y-120660390D01*
X148994714Y-120660390D02*
X148947095Y-120708009D01*
X148947095Y-120708009D02*
X148899476Y-120803247D01*
X152233333Y-131518819D02*
X151900000Y-131042628D01*
X151661905Y-131518819D02*
X151661905Y-130518819D01*
X151661905Y-130518819D02*
X152042857Y-130518819D01*
X152042857Y-130518819D02*
X152138095Y-130566438D01*
X152138095Y-130566438D02*
X152185714Y-130614057D01*
X152185714Y-130614057D02*
X152233333Y-130709295D01*
X152233333Y-130709295D02*
X152233333Y-130852152D01*
X152233333Y-130852152D02*
X152185714Y-130947390D01*
X152185714Y-130947390D02*
X152138095Y-130995009D01*
X152138095Y-130995009D02*
X152042857Y-131042628D01*
X152042857Y-131042628D02*
X151661905Y-131042628D01*
X153090476Y-130852152D02*
X153090476Y-131518819D01*
X152852381Y-130471200D02*
X152614286Y-131185485D01*
X152614286Y-131185485D02*
X153233333Y-131185485D01*
X165314333Y-78178819D02*
X164981000Y-77702628D01*
X164742905Y-78178819D02*
X164742905Y-77178819D01*
X164742905Y-77178819D02*
X165123857Y-77178819D01*
X165123857Y-77178819D02*
X165219095Y-77226438D01*
X165219095Y-77226438D02*
X165266714Y-77274057D01*
X165266714Y-77274057D02*
X165314333Y-77369295D01*
X165314333Y-77369295D02*
X165314333Y-77512152D01*
X165314333Y-77512152D02*
X165266714Y-77607390D01*
X165266714Y-77607390D02*
X165219095Y-77655009D01*
X165219095Y-77655009D02*
X165123857Y-77702628D01*
X165123857Y-77702628D02*
X164742905Y-77702628D01*
X165647667Y-77178819D02*
X166314333Y-77178819D01*
X166314333Y-77178819D02*
X165885762Y-78178819D01*
X152804905Y-88338819D02*
X152804905Y-87338819D01*
X152804905Y-87338819D02*
X153043000Y-87338819D01*
X153043000Y-87338819D02*
X153185857Y-87386438D01*
X153185857Y-87386438D02*
X153281095Y-87481676D01*
X153281095Y-87481676D02*
X153328714Y-87576914D01*
X153328714Y-87576914D02*
X153376333Y-87767390D01*
X153376333Y-87767390D02*
X153376333Y-87910247D01*
X153376333Y-87910247D02*
X153328714Y-88100723D01*
X153328714Y-88100723D02*
X153281095Y-88195961D01*
X153281095Y-88195961D02*
X153185857Y-88291200D01*
X153185857Y-88291200D02*
X153043000Y-88338819D01*
X153043000Y-88338819D02*
X152804905Y-88338819D01*
X153709667Y-87338819D02*
X154328714Y-87338819D01*
X154328714Y-87338819D02*
X153995381Y-87719771D01*
X153995381Y-87719771D02*
X154138238Y-87719771D01*
X154138238Y-87719771D02*
X154233476Y-87767390D01*
X154233476Y-87767390D02*
X154281095Y-87815009D01*
X154281095Y-87815009D02*
X154328714Y-87910247D01*
X154328714Y-87910247D02*
X154328714Y-88148342D01*
X154328714Y-88148342D02*
X154281095Y-88243580D01*
X154281095Y-88243580D02*
X154233476Y-88291200D01*
X154233476Y-88291200D02*
X154138238Y-88338819D01*
X154138238Y-88338819D02*
X153852524Y-88338819D01*
X153852524Y-88338819D02*
X153757286Y-88291200D01*
X153757286Y-88291200D02*
X153709667Y-88243580D01*
X143756142Y-118564819D02*
X143422809Y-118088628D01*
X143184714Y-118564819D02*
X143184714Y-117564819D01*
X143184714Y-117564819D02*
X143565666Y-117564819D01*
X143565666Y-117564819D02*
X143660904Y-117612438D01*
X143660904Y-117612438D02*
X143708523Y-117660057D01*
X143708523Y-117660057D02*
X143756142Y-117755295D01*
X143756142Y-117755295D02*
X143756142Y-117898152D01*
X143756142Y-117898152D02*
X143708523Y-117993390D01*
X143708523Y-117993390D02*
X143660904Y-118041009D01*
X143660904Y-118041009D02*
X143565666Y-118088628D01*
X143565666Y-118088628D02*
X143184714Y-118088628D01*
X144137095Y-117660057D02*
X144184714Y-117612438D01*
X144184714Y-117612438D02*
X144279952Y-117564819D01*
X144279952Y-117564819D02*
X144518047Y-117564819D01*
X144518047Y-117564819D02*
X144613285Y-117612438D01*
X144613285Y-117612438D02*
X144660904Y-117660057D01*
X144660904Y-117660057D02*
X144708523Y-117755295D01*
X144708523Y-117755295D02*
X144708523Y-117850533D01*
X144708523Y-117850533D02*
X144660904Y-117993390D01*
X144660904Y-117993390D02*
X144089476Y-118564819D01*
X144089476Y-118564819D02*
X144708523Y-118564819D01*
X145041857Y-117564819D02*
X145708523Y-117564819D01*
X145708523Y-117564819D02*
X145279952Y-118564819D01*
X158996142Y-140694580D02*
X158948523Y-140742200D01*
X158948523Y-140742200D02*
X158805666Y-140789819D01*
X158805666Y-140789819D02*
X158710428Y-140789819D01*
X158710428Y-140789819D02*
X158567571Y-140742200D01*
X158567571Y-140742200D02*
X158472333Y-140646961D01*
X158472333Y-140646961D02*
X158424714Y-140551723D01*
X158424714Y-140551723D02*
X158377095Y-140361247D01*
X158377095Y-140361247D02*
X158377095Y-140218390D01*
X158377095Y-140218390D02*
X158424714Y-140027914D01*
X158424714Y-140027914D02*
X158472333Y-139932676D01*
X158472333Y-139932676D02*
X158567571Y-139837438D01*
X158567571Y-139837438D02*
X158710428Y-139789819D01*
X158710428Y-139789819D02*
X158805666Y-139789819D01*
X158805666Y-139789819D02*
X158948523Y-139837438D01*
X158948523Y-139837438D02*
X158996142Y-139885057D01*
X159377095Y-139885057D02*
X159424714Y-139837438D01*
X159424714Y-139837438D02*
X159519952Y-139789819D01*
X159519952Y-139789819D02*
X159758047Y-139789819D01*
X159758047Y-139789819D02*
X159853285Y-139837438D01*
X159853285Y-139837438D02*
X159900904Y-139885057D01*
X159900904Y-139885057D02*
X159948523Y-139980295D01*
X159948523Y-139980295D02*
X159948523Y-140075533D01*
X159948523Y-140075533D02*
X159900904Y-140218390D01*
X159900904Y-140218390D02*
X159329476Y-140789819D01*
X159329476Y-140789819D02*
X159948523Y-140789819D01*
X160329476Y-139885057D02*
X160377095Y-139837438D01*
X160377095Y-139837438D02*
X160472333Y-139789819D01*
X160472333Y-139789819D02*
X160710428Y-139789819D01*
X160710428Y-139789819D02*
X160805666Y-139837438D01*
X160805666Y-139837438D02*
X160853285Y-139885057D01*
X160853285Y-139885057D02*
X160900904Y-139980295D01*
X160900904Y-139980295D02*
X160900904Y-140075533D01*
X160900904Y-140075533D02*
X160853285Y-140218390D01*
X160853285Y-140218390D02*
X160281857Y-140789819D01*
X160281857Y-140789819D02*
X160900904Y-140789819D01*
X137406142Y-72368580D02*
X137358523Y-72416200D01*
X137358523Y-72416200D02*
X137215666Y-72463819D01*
X137215666Y-72463819D02*
X137120428Y-72463819D01*
X137120428Y-72463819D02*
X136977571Y-72416200D01*
X136977571Y-72416200D02*
X136882333Y-72320961D01*
X136882333Y-72320961D02*
X136834714Y-72225723D01*
X136834714Y-72225723D02*
X136787095Y-72035247D01*
X136787095Y-72035247D02*
X136787095Y-71892390D01*
X136787095Y-71892390D02*
X136834714Y-71701914D01*
X136834714Y-71701914D02*
X136882333Y-71606676D01*
X136882333Y-71606676D02*
X136977571Y-71511438D01*
X136977571Y-71511438D02*
X137120428Y-71463819D01*
X137120428Y-71463819D02*
X137215666Y-71463819D01*
X137215666Y-71463819D02*
X137358523Y-71511438D01*
X137358523Y-71511438D02*
X137406142Y-71559057D01*
X138358523Y-72463819D02*
X137787095Y-72463819D01*
X138072809Y-72463819D02*
X138072809Y-71463819D01*
X138072809Y-71463819D02*
X137977571Y-71606676D01*
X137977571Y-71606676D02*
X137882333Y-71701914D01*
X137882333Y-71701914D02*
X137787095Y-71749533D01*
X138929952Y-71892390D02*
X138834714Y-71844771D01*
X138834714Y-71844771D02*
X138787095Y-71797152D01*
X138787095Y-71797152D02*
X138739476Y-71701914D01*
X138739476Y-71701914D02*
X138739476Y-71654295D01*
X138739476Y-71654295D02*
X138787095Y-71559057D01*
X138787095Y-71559057D02*
X138834714Y-71511438D01*
X138834714Y-71511438D02*
X138929952Y-71463819D01*
X138929952Y-71463819D02*
X139120428Y-71463819D01*
X139120428Y-71463819D02*
X139215666Y-71511438D01*
X139215666Y-71511438D02*
X139263285Y-71559057D01*
X139263285Y-71559057D02*
X139310904Y-71654295D01*
X139310904Y-71654295D02*
X139310904Y-71701914D01*
X139310904Y-71701914D02*
X139263285Y-71797152D01*
X139263285Y-71797152D02*
X139215666Y-71844771D01*
X139215666Y-71844771D02*
X139120428Y-71892390D01*
X139120428Y-71892390D02*
X138929952Y-71892390D01*
X138929952Y-71892390D02*
X138834714Y-71940009D01*
X138834714Y-71940009D02*
X138787095Y-71987628D01*
X138787095Y-71987628D02*
X138739476Y-72082866D01*
X138739476Y-72082866D02*
X138739476Y-72273342D01*
X138739476Y-72273342D02*
X138787095Y-72368580D01*
X138787095Y-72368580D02*
X138834714Y-72416200D01*
X138834714Y-72416200D02*
X138929952Y-72463819D01*
X138929952Y-72463819D02*
X139120428Y-72463819D01*
X139120428Y-72463819D02*
X139215666Y-72416200D01*
X139215666Y-72416200D02*
X139263285Y-72368580D01*
X139263285Y-72368580D02*
X139310904Y-72273342D01*
X139310904Y-72273342D02*
X139310904Y-72082866D01*
X139310904Y-72082866D02*
X139263285Y-71987628D01*
X139263285Y-71987628D02*
X139215666Y-71940009D01*
X139215666Y-71940009D02*
X139120428Y-71892390D01*
X159512095Y-89029819D02*
X159512095Y-89839342D01*
X159512095Y-89839342D02*
X159559714Y-89934580D01*
X159559714Y-89934580D02*
X159607333Y-89982200D01*
X159607333Y-89982200D02*
X159702571Y-90029819D01*
X159702571Y-90029819D02*
X159893047Y-90029819D01*
X159893047Y-90029819D02*
X159988285Y-89982200D01*
X159988285Y-89982200D02*
X160035904Y-89934580D01*
X160035904Y-89934580D02*
X160083523Y-89839342D01*
X160083523Y-89839342D02*
X160083523Y-89029819D01*
X160988285Y-89029819D02*
X160797809Y-89029819D01*
X160797809Y-89029819D02*
X160702571Y-89077438D01*
X160702571Y-89077438D02*
X160654952Y-89125057D01*
X160654952Y-89125057D02*
X160559714Y-89267914D01*
X160559714Y-89267914D02*
X160512095Y-89458390D01*
X160512095Y-89458390D02*
X160512095Y-89839342D01*
X160512095Y-89839342D02*
X160559714Y-89934580D01*
X160559714Y-89934580D02*
X160607333Y-89982200D01*
X160607333Y-89982200D02*
X160702571Y-90029819D01*
X160702571Y-90029819D02*
X160893047Y-90029819D01*
X160893047Y-90029819D02*
X160988285Y-89982200D01*
X160988285Y-89982200D02*
X161035904Y-89934580D01*
X161035904Y-89934580D02*
X161083523Y-89839342D01*
X161083523Y-89839342D02*
X161083523Y-89601247D01*
X161083523Y-89601247D02*
X161035904Y-89506009D01*
X161035904Y-89506009D02*
X160988285Y-89458390D01*
X160988285Y-89458390D02*
X160893047Y-89410771D01*
X160893047Y-89410771D02*
X160702571Y-89410771D01*
X160702571Y-89410771D02*
X160607333Y-89458390D01*
X160607333Y-89458390D02*
X160559714Y-89506009D01*
X160559714Y-89506009D02*
X160512095Y-89601247D01*
X147566142Y-124692580D02*
X147518523Y-124740200D01*
X147518523Y-124740200D02*
X147375666Y-124787819D01*
X147375666Y-124787819D02*
X147280428Y-124787819D01*
X147280428Y-124787819D02*
X147137571Y-124740200D01*
X147137571Y-124740200D02*
X147042333Y-124644961D01*
X147042333Y-124644961D02*
X146994714Y-124549723D01*
X146994714Y-124549723D02*
X146947095Y-124359247D01*
X146947095Y-124359247D02*
X146947095Y-124216390D01*
X146947095Y-124216390D02*
X146994714Y-124025914D01*
X146994714Y-124025914D02*
X147042333Y-123930676D01*
X147042333Y-123930676D02*
X147137571Y-123835438D01*
X147137571Y-123835438D02*
X147280428Y-123787819D01*
X147280428Y-123787819D02*
X147375666Y-123787819D01*
X147375666Y-123787819D02*
X147518523Y-123835438D01*
X147518523Y-123835438D02*
X147566142Y-123883057D01*
X147899476Y-123787819D02*
X148518523Y-123787819D01*
X148518523Y-123787819D02*
X148185190Y-124168771D01*
X148185190Y-124168771D02*
X148328047Y-124168771D01*
X148328047Y-124168771D02*
X148423285Y-124216390D01*
X148423285Y-124216390D02*
X148470904Y-124264009D01*
X148470904Y-124264009D02*
X148518523Y-124359247D01*
X148518523Y-124359247D02*
X148518523Y-124597342D01*
X148518523Y-124597342D02*
X148470904Y-124692580D01*
X148470904Y-124692580D02*
X148423285Y-124740200D01*
X148423285Y-124740200D02*
X148328047Y-124787819D01*
X148328047Y-124787819D02*
X148042333Y-124787819D01*
X148042333Y-124787819D02*
X147947095Y-124740200D01*
X147947095Y-124740200D02*
X147899476Y-124692580D01*
X149423285Y-123787819D02*
X148947095Y-123787819D01*
X148947095Y-123787819D02*
X148899476Y-124264009D01*
X148899476Y-124264009D02*
X148947095Y-124216390D01*
X148947095Y-124216390D02*
X149042333Y-124168771D01*
X149042333Y-124168771D02*
X149280428Y-124168771D01*
X149280428Y-124168771D02*
X149375666Y-124216390D01*
X149375666Y-124216390D02*
X149423285Y-124264009D01*
X149423285Y-124264009D02*
X149470904Y-124359247D01*
X149470904Y-124359247D02*
X149470904Y-124597342D01*
X149470904Y-124597342D02*
X149423285Y-124692580D01*
X149423285Y-124692580D02*
X149375666Y-124740200D01*
X149375666Y-124740200D02*
X149280428Y-124787819D01*
X149280428Y-124787819D02*
X149042333Y-124787819D01*
X149042333Y-124787819D02*
X148947095Y-124740200D01*
X148947095Y-124740200D02*
X148899476Y-124692580D01*
X144994333Y-111992580D02*
X144946714Y-112040200D01*
X144946714Y-112040200D02*
X144803857Y-112087819D01*
X144803857Y-112087819D02*
X144708619Y-112087819D01*
X144708619Y-112087819D02*
X144565762Y-112040200D01*
X144565762Y-112040200D02*
X144470524Y-111944961D01*
X144470524Y-111944961D02*
X144422905Y-111849723D01*
X144422905Y-111849723D02*
X144375286Y-111659247D01*
X144375286Y-111659247D02*
X144375286Y-111516390D01*
X144375286Y-111516390D02*
X144422905Y-111325914D01*
X144422905Y-111325914D02*
X144470524Y-111230676D01*
X144470524Y-111230676D02*
X144565762Y-111135438D01*
X144565762Y-111135438D02*
X144708619Y-111087819D01*
X144708619Y-111087819D02*
X144803857Y-111087819D01*
X144803857Y-111087819D02*
X144946714Y-111135438D01*
X144946714Y-111135438D02*
X144994333Y-111183057D01*
X145327667Y-111087819D02*
X145946714Y-111087819D01*
X145946714Y-111087819D02*
X145613381Y-111468771D01*
X145613381Y-111468771D02*
X145756238Y-111468771D01*
X145756238Y-111468771D02*
X145851476Y-111516390D01*
X145851476Y-111516390D02*
X145899095Y-111564009D01*
X145899095Y-111564009D02*
X145946714Y-111659247D01*
X145946714Y-111659247D02*
X145946714Y-111897342D01*
X145946714Y-111897342D02*
X145899095Y-111992580D01*
X145899095Y-111992580D02*
X145851476Y-112040200D01*
X145851476Y-112040200D02*
X145756238Y-112087819D01*
X145756238Y-112087819D02*
X145470524Y-112087819D01*
X145470524Y-112087819D02*
X145375286Y-112040200D01*
X145375286Y-112040200D02*
X145327667Y-111992580D01*
X162806142Y-88243580D02*
X162758523Y-88291200D01*
X162758523Y-88291200D02*
X162615666Y-88338819D01*
X162615666Y-88338819D02*
X162520428Y-88338819D01*
X162520428Y-88338819D02*
X162377571Y-88291200D01*
X162377571Y-88291200D02*
X162282333Y-88195961D01*
X162282333Y-88195961D02*
X162234714Y-88100723D01*
X162234714Y-88100723D02*
X162187095Y-87910247D01*
X162187095Y-87910247D02*
X162187095Y-87767390D01*
X162187095Y-87767390D02*
X162234714Y-87576914D01*
X162234714Y-87576914D02*
X162282333Y-87481676D01*
X162282333Y-87481676D02*
X162377571Y-87386438D01*
X162377571Y-87386438D02*
X162520428Y-87338819D01*
X162520428Y-87338819D02*
X162615666Y-87338819D01*
X162615666Y-87338819D02*
X162758523Y-87386438D01*
X162758523Y-87386438D02*
X162806142Y-87434057D01*
X163758523Y-88338819D02*
X163187095Y-88338819D01*
X163472809Y-88338819D02*
X163472809Y-87338819D01*
X163472809Y-87338819D02*
X163377571Y-87481676D01*
X163377571Y-87481676D02*
X163282333Y-87576914D01*
X163282333Y-87576914D02*
X163187095Y-87624533D01*
X164663285Y-87338819D02*
X164187095Y-87338819D01*
X164187095Y-87338819D02*
X164139476Y-87815009D01*
X164139476Y-87815009D02*
X164187095Y-87767390D01*
X164187095Y-87767390D02*
X164282333Y-87719771D01*
X164282333Y-87719771D02*
X164520428Y-87719771D01*
X164520428Y-87719771D02*
X164615666Y-87767390D01*
X164615666Y-87767390D02*
X164663285Y-87815009D01*
X164663285Y-87815009D02*
X164710904Y-87910247D01*
X164710904Y-87910247D02*
X164710904Y-88148342D01*
X164710904Y-88148342D02*
X164663285Y-88243580D01*
X164663285Y-88243580D02*
X164615666Y-88291200D01*
X164615666Y-88291200D02*
X164520428Y-88338819D01*
X164520428Y-88338819D02*
X164282333Y-88338819D01*
X164282333Y-88338819D02*
X164187095Y-88291200D01*
X164187095Y-88291200D02*
X164139476Y-88243580D01*
X137406142Y-70971580D02*
X137358523Y-71019200D01*
X137358523Y-71019200D02*
X137215666Y-71066819D01*
X137215666Y-71066819D02*
X137120428Y-71066819D01*
X137120428Y-71066819D02*
X136977571Y-71019200D01*
X136977571Y-71019200D02*
X136882333Y-70923961D01*
X136882333Y-70923961D02*
X136834714Y-70828723D01*
X136834714Y-70828723D02*
X136787095Y-70638247D01*
X136787095Y-70638247D02*
X136787095Y-70495390D01*
X136787095Y-70495390D02*
X136834714Y-70304914D01*
X136834714Y-70304914D02*
X136882333Y-70209676D01*
X136882333Y-70209676D02*
X136977571Y-70114438D01*
X136977571Y-70114438D02*
X137120428Y-70066819D01*
X137120428Y-70066819D02*
X137215666Y-70066819D01*
X137215666Y-70066819D02*
X137358523Y-70114438D01*
X137358523Y-70114438D02*
X137406142Y-70162057D01*
X138358523Y-71066819D02*
X137787095Y-71066819D01*
X138072809Y-71066819D02*
X138072809Y-70066819D01*
X138072809Y-70066819D02*
X137977571Y-70209676D01*
X137977571Y-70209676D02*
X137882333Y-70304914D01*
X137882333Y-70304914D02*
X137787095Y-70352533D01*
X138691857Y-70066819D02*
X139358523Y-70066819D01*
X139358523Y-70066819D02*
X138929952Y-71066819D01*
X140581142Y-122755819D02*
X140247809Y-122279628D01*
X140009714Y-122755819D02*
X140009714Y-121755819D01*
X140009714Y-121755819D02*
X140390666Y-121755819D01*
X140390666Y-121755819D02*
X140485904Y-121803438D01*
X140485904Y-121803438D02*
X140533523Y-121851057D01*
X140533523Y-121851057D02*
X140581142Y-121946295D01*
X140581142Y-121946295D02*
X140581142Y-122089152D01*
X140581142Y-122089152D02*
X140533523Y-122184390D01*
X140533523Y-122184390D02*
X140485904Y-122232009D01*
X140485904Y-122232009D02*
X140390666Y-122279628D01*
X140390666Y-122279628D02*
X140009714Y-122279628D01*
X141533523Y-122755819D02*
X140962095Y-122755819D01*
X141247809Y-122755819D02*
X141247809Y-121755819D01*
X141247809Y-121755819D02*
X141152571Y-121898676D01*
X141152571Y-121898676D02*
X141057333Y-121993914D01*
X141057333Y-121993914D02*
X140962095Y-122041533D01*
X142104952Y-122184390D02*
X142009714Y-122136771D01*
X142009714Y-122136771D02*
X141962095Y-122089152D01*
X141962095Y-122089152D02*
X141914476Y-121993914D01*
X141914476Y-121993914D02*
X141914476Y-121946295D01*
X141914476Y-121946295D02*
X141962095Y-121851057D01*
X141962095Y-121851057D02*
X142009714Y-121803438D01*
X142009714Y-121803438D02*
X142104952Y-121755819D01*
X142104952Y-121755819D02*
X142295428Y-121755819D01*
X142295428Y-121755819D02*
X142390666Y-121803438D01*
X142390666Y-121803438D02*
X142438285Y-121851057D01*
X142438285Y-121851057D02*
X142485904Y-121946295D01*
X142485904Y-121946295D02*
X142485904Y-121993914D01*
X142485904Y-121993914D02*
X142438285Y-122089152D01*
X142438285Y-122089152D02*
X142390666Y-122136771D01*
X142390666Y-122136771D02*
X142295428Y-122184390D01*
X142295428Y-122184390D02*
X142104952Y-122184390D01*
X142104952Y-122184390D02*
X142009714Y-122232009D01*
X142009714Y-122232009D02*
X141962095Y-122279628D01*
X141962095Y-122279628D02*
X141914476Y-122374866D01*
X141914476Y-122374866D02*
X141914476Y-122565342D01*
X141914476Y-122565342D02*
X141962095Y-122660580D01*
X141962095Y-122660580D02*
X142009714Y-122708200D01*
X142009714Y-122708200D02*
X142104952Y-122755819D01*
X142104952Y-122755819D02*
X142295428Y-122755819D01*
X142295428Y-122755819D02*
X142390666Y-122708200D01*
X142390666Y-122708200D02*
X142438285Y-122660580D01*
X142438285Y-122660580D02*
X142485904Y-122565342D01*
X142485904Y-122565342D02*
X142485904Y-122374866D01*
X142485904Y-122374866D02*
X142438285Y-122279628D01*
X142438285Y-122279628D02*
X142390666Y-122232009D01*
X142390666Y-122232009D02*
X142295428Y-122184390D01*
X145280142Y-126978580D02*
X145232523Y-127026200D01*
X145232523Y-127026200D02*
X145089666Y-127073819D01*
X145089666Y-127073819D02*
X144994428Y-127073819D01*
X144994428Y-127073819D02*
X144851571Y-127026200D01*
X144851571Y-127026200D02*
X144756333Y-126930961D01*
X144756333Y-126930961D02*
X144708714Y-126835723D01*
X144708714Y-126835723D02*
X144661095Y-126645247D01*
X144661095Y-126645247D02*
X144661095Y-126502390D01*
X144661095Y-126502390D02*
X144708714Y-126311914D01*
X144708714Y-126311914D02*
X144756333Y-126216676D01*
X144756333Y-126216676D02*
X144851571Y-126121438D01*
X144851571Y-126121438D02*
X144994428Y-126073819D01*
X144994428Y-126073819D02*
X145089666Y-126073819D01*
X145089666Y-126073819D02*
X145232523Y-126121438D01*
X145232523Y-126121438D02*
X145280142Y-126169057D01*
X145613476Y-126073819D02*
X146232523Y-126073819D01*
X146232523Y-126073819D02*
X145899190Y-126454771D01*
X145899190Y-126454771D02*
X146042047Y-126454771D01*
X146042047Y-126454771D02*
X146137285Y-126502390D01*
X146137285Y-126502390D02*
X146184904Y-126550009D01*
X146184904Y-126550009D02*
X146232523Y-126645247D01*
X146232523Y-126645247D02*
X146232523Y-126883342D01*
X146232523Y-126883342D02*
X146184904Y-126978580D01*
X146184904Y-126978580D02*
X146137285Y-127026200D01*
X146137285Y-127026200D02*
X146042047Y-127073819D01*
X146042047Y-127073819D02*
X145756333Y-127073819D01*
X145756333Y-127073819D02*
X145661095Y-127026200D01*
X145661095Y-127026200D02*
X145613476Y-126978580D01*
X147184904Y-127073819D02*
X146613476Y-127073819D01*
X146899190Y-127073819D02*
X146899190Y-126073819D01*
X146899190Y-126073819D02*
X146803952Y-126216676D01*
X146803952Y-126216676D02*
X146708714Y-126311914D01*
X146708714Y-126311914D02*
X146613476Y-126359533D01*
X155789333Y-95990580D02*
X155741714Y-96038200D01*
X155741714Y-96038200D02*
X155598857Y-96085819D01*
X155598857Y-96085819D02*
X155503619Y-96085819D01*
X155503619Y-96085819D02*
X155360762Y-96038200D01*
X155360762Y-96038200D02*
X155265524Y-95942961D01*
X155265524Y-95942961D02*
X155217905Y-95847723D01*
X155217905Y-95847723D02*
X155170286Y-95657247D01*
X155170286Y-95657247D02*
X155170286Y-95514390D01*
X155170286Y-95514390D02*
X155217905Y-95323914D01*
X155217905Y-95323914D02*
X155265524Y-95228676D01*
X155265524Y-95228676D02*
X155360762Y-95133438D01*
X155360762Y-95133438D02*
X155503619Y-95085819D01*
X155503619Y-95085819D02*
X155598857Y-95085819D01*
X155598857Y-95085819D02*
X155741714Y-95133438D01*
X155741714Y-95133438D02*
X155789333Y-95181057D01*
X156265524Y-96085819D02*
X156456000Y-96085819D01*
X156456000Y-96085819D02*
X156551238Y-96038200D01*
X156551238Y-96038200D02*
X156598857Y-95990580D01*
X156598857Y-95990580D02*
X156694095Y-95847723D01*
X156694095Y-95847723D02*
X156741714Y-95657247D01*
X156741714Y-95657247D02*
X156741714Y-95276295D01*
X156741714Y-95276295D02*
X156694095Y-95181057D01*
X156694095Y-95181057D02*
X156646476Y-95133438D01*
X156646476Y-95133438D02*
X156551238Y-95085819D01*
X156551238Y-95085819D02*
X156360762Y-95085819D01*
X156360762Y-95085819D02*
X156265524Y-95133438D01*
X156265524Y-95133438D02*
X156217905Y-95181057D01*
X156217905Y-95181057D02*
X156170286Y-95276295D01*
X156170286Y-95276295D02*
X156170286Y-95514390D01*
X156170286Y-95514390D02*
X156217905Y-95609628D01*
X156217905Y-95609628D02*
X156265524Y-95657247D01*
X156265524Y-95657247D02*
X156360762Y-95704866D01*
X156360762Y-95704866D02*
X156551238Y-95704866D01*
X156551238Y-95704866D02*
X156646476Y-95657247D01*
X156646476Y-95657247D02*
X156694095Y-95609628D01*
X156694095Y-95609628D02*
X156741714Y-95514390D01*
X142581333Y-114024580D02*
X142533714Y-114072200D01*
X142533714Y-114072200D02*
X142390857Y-114119819D01*
X142390857Y-114119819D02*
X142295619Y-114119819D01*
X142295619Y-114119819D02*
X142152762Y-114072200D01*
X142152762Y-114072200D02*
X142057524Y-113976961D01*
X142057524Y-113976961D02*
X142009905Y-113881723D01*
X142009905Y-113881723D02*
X141962286Y-113691247D01*
X141962286Y-113691247D02*
X141962286Y-113548390D01*
X141962286Y-113548390D02*
X142009905Y-113357914D01*
X142009905Y-113357914D02*
X142057524Y-113262676D01*
X142057524Y-113262676D02*
X142152762Y-113167438D01*
X142152762Y-113167438D02*
X142295619Y-113119819D01*
X142295619Y-113119819D02*
X142390857Y-113119819D01*
X142390857Y-113119819D02*
X142533714Y-113167438D01*
X142533714Y-113167438D02*
X142581333Y-113215057D01*
X142914667Y-113119819D02*
X143581333Y-113119819D01*
X143581333Y-113119819D02*
X143152762Y-114119819D01*
X140454142Y-120342819D02*
X140120809Y-119866628D01*
X139882714Y-120342819D02*
X139882714Y-119342819D01*
X139882714Y-119342819D02*
X140263666Y-119342819D01*
X140263666Y-119342819D02*
X140358904Y-119390438D01*
X140358904Y-119390438D02*
X140406523Y-119438057D01*
X140406523Y-119438057D02*
X140454142Y-119533295D01*
X140454142Y-119533295D02*
X140454142Y-119676152D01*
X140454142Y-119676152D02*
X140406523Y-119771390D01*
X140406523Y-119771390D02*
X140358904Y-119819009D01*
X140358904Y-119819009D02*
X140263666Y-119866628D01*
X140263666Y-119866628D02*
X139882714Y-119866628D01*
X140835095Y-119438057D02*
X140882714Y-119390438D01*
X140882714Y-119390438D02*
X140977952Y-119342819D01*
X140977952Y-119342819D02*
X141216047Y-119342819D01*
X141216047Y-119342819D02*
X141311285Y-119390438D01*
X141311285Y-119390438D02*
X141358904Y-119438057D01*
X141358904Y-119438057D02*
X141406523Y-119533295D01*
X141406523Y-119533295D02*
X141406523Y-119628533D01*
X141406523Y-119628533D02*
X141358904Y-119771390D01*
X141358904Y-119771390D02*
X140787476Y-120342819D01*
X140787476Y-120342819D02*
X141406523Y-120342819D01*
X142025571Y-119342819D02*
X142120809Y-119342819D01*
X142120809Y-119342819D02*
X142216047Y-119390438D01*
X142216047Y-119390438D02*
X142263666Y-119438057D01*
X142263666Y-119438057D02*
X142311285Y-119533295D01*
X142311285Y-119533295D02*
X142358904Y-119723771D01*
X142358904Y-119723771D02*
X142358904Y-119961866D01*
X142358904Y-119961866D02*
X142311285Y-120152342D01*
X142311285Y-120152342D02*
X142263666Y-120247580D01*
X142263666Y-120247580D02*
X142216047Y-120295200D01*
X142216047Y-120295200D02*
X142120809Y-120342819D01*
X142120809Y-120342819D02*
X142025571Y-120342819D01*
X142025571Y-120342819D02*
X141930333Y-120295200D01*
X141930333Y-120295200D02*
X141882714Y-120247580D01*
X141882714Y-120247580D02*
X141835095Y-120152342D01*
X141835095Y-120152342D02*
X141787476Y-119961866D01*
X141787476Y-119961866D02*
X141787476Y-119723771D01*
X141787476Y-119723771D02*
X141835095Y-119533295D01*
X141835095Y-119533295D02*
X141882714Y-119438057D01*
X141882714Y-119438057D02*
X141930333Y-119390438D01*
X141930333Y-119390438D02*
X142025571Y-119342819D01*
X137287095Y-127470819D02*
X137287095Y-128280342D01*
X137287095Y-128280342D02*
X137334714Y-128375580D01*
X137334714Y-128375580D02*
X137382333Y-128423200D01*
X137382333Y-128423200D02*
X137477571Y-128470819D01*
X137477571Y-128470819D02*
X137668047Y-128470819D01*
X137668047Y-128470819D02*
X137763285Y-128423200D01*
X137763285Y-128423200D02*
X137810904Y-128375580D01*
X137810904Y-128375580D02*
X137858523Y-128280342D01*
X137858523Y-128280342D02*
X137858523Y-127470819D01*
X138477571Y-127899390D02*
X138382333Y-127851771D01*
X138382333Y-127851771D02*
X138334714Y-127804152D01*
X138334714Y-127804152D02*
X138287095Y-127708914D01*
X138287095Y-127708914D02*
X138287095Y-127661295D01*
X138287095Y-127661295D02*
X138334714Y-127566057D01*
X138334714Y-127566057D02*
X138382333Y-127518438D01*
X138382333Y-127518438D02*
X138477571Y-127470819D01*
X138477571Y-127470819D02*
X138668047Y-127470819D01*
X138668047Y-127470819D02*
X138763285Y-127518438D01*
X138763285Y-127518438D02*
X138810904Y-127566057D01*
X138810904Y-127566057D02*
X138858523Y-127661295D01*
X138858523Y-127661295D02*
X138858523Y-127708914D01*
X138858523Y-127708914D02*
X138810904Y-127804152D01*
X138810904Y-127804152D02*
X138763285Y-127851771D01*
X138763285Y-127851771D02*
X138668047Y-127899390D01*
X138668047Y-127899390D02*
X138477571Y-127899390D01*
X138477571Y-127899390D02*
X138382333Y-127947009D01*
X138382333Y-127947009D02*
X138334714Y-127994628D01*
X138334714Y-127994628D02*
X138287095Y-128089866D01*
X138287095Y-128089866D02*
X138287095Y-128280342D01*
X138287095Y-128280342D02*
X138334714Y-128375580D01*
X138334714Y-128375580D02*
X138382333Y-128423200D01*
X138382333Y-128423200D02*
X138477571Y-128470819D01*
X138477571Y-128470819D02*
X138668047Y-128470819D01*
X138668047Y-128470819D02*
X138763285Y-128423200D01*
X138763285Y-128423200D02*
X138810904Y-128375580D01*
X138810904Y-128375580D02*
X138858523Y-128280342D01*
X138858523Y-128280342D02*
X138858523Y-128089866D01*
X138858523Y-128089866D02*
X138810904Y-127994628D01*
X138810904Y-127994628D02*
X138763285Y-127947009D01*
X138763285Y-127947009D02*
X138668047Y-127899390D01*
X140708142Y-116786819D02*
X140374809Y-116310628D01*
X140136714Y-116786819D02*
X140136714Y-115786819D01*
X140136714Y-115786819D02*
X140517666Y-115786819D01*
X140517666Y-115786819D02*
X140612904Y-115834438D01*
X140612904Y-115834438D02*
X140660523Y-115882057D01*
X140660523Y-115882057D02*
X140708142Y-115977295D01*
X140708142Y-115977295D02*
X140708142Y-116120152D01*
X140708142Y-116120152D02*
X140660523Y-116215390D01*
X140660523Y-116215390D02*
X140612904Y-116263009D01*
X140612904Y-116263009D02*
X140517666Y-116310628D01*
X140517666Y-116310628D02*
X140136714Y-116310628D01*
X141089095Y-115882057D02*
X141136714Y-115834438D01*
X141136714Y-115834438D02*
X141231952Y-115786819D01*
X141231952Y-115786819D02*
X141470047Y-115786819D01*
X141470047Y-115786819D02*
X141565285Y-115834438D01*
X141565285Y-115834438D02*
X141612904Y-115882057D01*
X141612904Y-115882057D02*
X141660523Y-115977295D01*
X141660523Y-115977295D02*
X141660523Y-116072533D01*
X141660523Y-116072533D02*
X141612904Y-116215390D01*
X141612904Y-116215390D02*
X141041476Y-116786819D01*
X141041476Y-116786819D02*
X141660523Y-116786819D01*
X142612904Y-116786819D02*
X142041476Y-116786819D01*
X142327190Y-116786819D02*
X142327190Y-115786819D01*
X142327190Y-115786819D02*
X142231952Y-115929676D01*
X142231952Y-115929676D02*
X142136714Y-116024914D01*
X142136714Y-116024914D02*
X142041476Y-116072533D01*
X158583333Y-113041580D02*
X158535714Y-113089200D01*
X158535714Y-113089200D02*
X158392857Y-113136819D01*
X158392857Y-113136819D02*
X158297619Y-113136819D01*
X158297619Y-113136819D02*
X158154762Y-113089200D01*
X158154762Y-113089200D02*
X158059524Y-112993961D01*
X158059524Y-112993961D02*
X158011905Y-112898723D01*
X158011905Y-112898723D02*
X157964286Y-112708247D01*
X157964286Y-112708247D02*
X157964286Y-112565390D01*
X157964286Y-112565390D02*
X158011905Y-112374914D01*
X158011905Y-112374914D02*
X158059524Y-112279676D01*
X158059524Y-112279676D02*
X158154762Y-112184438D01*
X158154762Y-112184438D02*
X158297619Y-112136819D01*
X158297619Y-112136819D02*
X158392857Y-112136819D01*
X158392857Y-112136819D02*
X158535714Y-112184438D01*
X158535714Y-112184438D02*
X158583333Y-112232057D01*
X159154762Y-112565390D02*
X159059524Y-112517771D01*
X159059524Y-112517771D02*
X159011905Y-112470152D01*
X159011905Y-112470152D02*
X158964286Y-112374914D01*
X158964286Y-112374914D02*
X158964286Y-112327295D01*
X158964286Y-112327295D02*
X159011905Y-112232057D01*
X159011905Y-112232057D02*
X159059524Y-112184438D01*
X159059524Y-112184438D02*
X159154762Y-112136819D01*
X159154762Y-112136819D02*
X159345238Y-112136819D01*
X159345238Y-112136819D02*
X159440476Y-112184438D01*
X159440476Y-112184438D02*
X159488095Y-112232057D01*
X159488095Y-112232057D02*
X159535714Y-112327295D01*
X159535714Y-112327295D02*
X159535714Y-112374914D01*
X159535714Y-112374914D02*
X159488095Y-112470152D01*
X159488095Y-112470152D02*
X159440476Y-112517771D01*
X159440476Y-112517771D02*
X159345238Y-112565390D01*
X159345238Y-112565390D02*
X159154762Y-112565390D01*
X159154762Y-112565390D02*
X159059524Y-112613009D01*
X159059524Y-112613009D02*
X159011905Y-112660628D01*
X159011905Y-112660628D02*
X158964286Y-112755866D01*
X158964286Y-112755866D02*
X158964286Y-112946342D01*
X158964286Y-112946342D02*
X159011905Y-113041580D01*
X159011905Y-113041580D02*
X159059524Y-113089200D01*
X159059524Y-113089200D02*
X159154762Y-113136819D01*
X159154762Y-113136819D02*
X159345238Y-113136819D01*
X159345238Y-113136819D02*
X159440476Y-113089200D01*
X159440476Y-113089200D02*
X159488095Y-113041580D01*
X159488095Y-113041580D02*
X159535714Y-112946342D01*
X159535714Y-112946342D02*
X159535714Y-112755866D01*
X159535714Y-112755866D02*
X159488095Y-112660628D01*
X159488095Y-112660628D02*
X159440476Y-112613009D01*
X159440476Y-112613009D02*
X159345238Y-112565390D01*
X137501333Y-98149580D02*
X137453714Y-98197200D01*
X137453714Y-98197200D02*
X137310857Y-98244819D01*
X137310857Y-98244819D02*
X137215619Y-98244819D01*
X137215619Y-98244819D02*
X137072762Y-98197200D01*
X137072762Y-98197200D02*
X136977524Y-98101961D01*
X136977524Y-98101961D02*
X136929905Y-98006723D01*
X136929905Y-98006723D02*
X136882286Y-97816247D01*
X136882286Y-97816247D02*
X136882286Y-97673390D01*
X136882286Y-97673390D02*
X136929905Y-97482914D01*
X136929905Y-97482914D02*
X136977524Y-97387676D01*
X136977524Y-97387676D02*
X137072762Y-97292438D01*
X137072762Y-97292438D02*
X137215619Y-97244819D01*
X137215619Y-97244819D02*
X137310857Y-97244819D01*
X137310857Y-97244819D02*
X137453714Y-97292438D01*
X137453714Y-97292438D02*
X137501333Y-97340057D01*
X138453714Y-98244819D02*
X137882286Y-98244819D01*
X138168000Y-98244819D02*
X138168000Y-97244819D01*
X138168000Y-97244819D02*
X138072762Y-97387676D01*
X138072762Y-97387676D02*
X137977524Y-97482914D01*
X137977524Y-97482914D02*
X137882286Y-97530533D01*
X141470142Y-135074819D02*
X141136809Y-134598628D01*
X140898714Y-135074819D02*
X140898714Y-134074819D01*
X140898714Y-134074819D02*
X141279666Y-134074819D01*
X141279666Y-134074819D02*
X141374904Y-134122438D01*
X141374904Y-134122438D02*
X141422523Y-134170057D01*
X141422523Y-134170057D02*
X141470142Y-134265295D01*
X141470142Y-134265295D02*
X141470142Y-134408152D01*
X141470142Y-134408152D02*
X141422523Y-134503390D01*
X141422523Y-134503390D02*
X141374904Y-134551009D01*
X141374904Y-134551009D02*
X141279666Y-134598628D01*
X141279666Y-134598628D02*
X140898714Y-134598628D01*
X141851095Y-134170057D02*
X141898714Y-134122438D01*
X141898714Y-134122438D02*
X141993952Y-134074819D01*
X141993952Y-134074819D02*
X142232047Y-134074819D01*
X142232047Y-134074819D02*
X142327285Y-134122438D01*
X142327285Y-134122438D02*
X142374904Y-134170057D01*
X142374904Y-134170057D02*
X142422523Y-134265295D01*
X142422523Y-134265295D02*
X142422523Y-134360533D01*
X142422523Y-134360533D02*
X142374904Y-134503390D01*
X142374904Y-134503390D02*
X141803476Y-135074819D01*
X141803476Y-135074819D02*
X142422523Y-135074819D01*
X143327285Y-134074819D02*
X142851095Y-134074819D01*
X142851095Y-134074819D02*
X142803476Y-134551009D01*
X142803476Y-134551009D02*
X142851095Y-134503390D01*
X142851095Y-134503390D02*
X142946333Y-134455771D01*
X142946333Y-134455771D02*
X143184428Y-134455771D01*
X143184428Y-134455771D02*
X143279666Y-134503390D01*
X143279666Y-134503390D02*
X143327285Y-134551009D01*
X143327285Y-134551009D02*
X143374904Y-134646247D01*
X143374904Y-134646247D02*
X143374904Y-134884342D01*
X143374904Y-134884342D02*
X143327285Y-134979580D01*
X143327285Y-134979580D02*
X143279666Y-135027200D01*
X143279666Y-135027200D02*
X143184428Y-135074819D01*
X143184428Y-135074819D02*
X142946333Y-135074819D01*
X142946333Y-135074819D02*
X142851095Y-135027200D01*
X142851095Y-135027200D02*
X142803476Y-134979580D01*
X137279142Y-133931819D02*
X136945809Y-133455628D01*
X136707714Y-133931819D02*
X136707714Y-132931819D01*
X136707714Y-132931819D02*
X137088666Y-132931819D01*
X137088666Y-132931819D02*
X137183904Y-132979438D01*
X137183904Y-132979438D02*
X137231523Y-133027057D01*
X137231523Y-133027057D02*
X137279142Y-133122295D01*
X137279142Y-133122295D02*
X137279142Y-133265152D01*
X137279142Y-133265152D02*
X137231523Y-133360390D01*
X137231523Y-133360390D02*
X137183904Y-133408009D01*
X137183904Y-133408009D02*
X137088666Y-133455628D01*
X137088666Y-133455628D02*
X136707714Y-133455628D01*
X137660095Y-133027057D02*
X137707714Y-132979438D01*
X137707714Y-132979438D02*
X137802952Y-132931819D01*
X137802952Y-132931819D02*
X138041047Y-132931819D01*
X138041047Y-132931819D02*
X138136285Y-132979438D01*
X138136285Y-132979438D02*
X138183904Y-133027057D01*
X138183904Y-133027057D02*
X138231523Y-133122295D01*
X138231523Y-133122295D02*
X138231523Y-133217533D01*
X138231523Y-133217533D02*
X138183904Y-133360390D01*
X138183904Y-133360390D02*
X137612476Y-133931819D01*
X137612476Y-133931819D02*
X138231523Y-133931819D01*
X138564857Y-132931819D02*
X139183904Y-132931819D01*
X139183904Y-132931819D02*
X138850571Y-133312771D01*
X138850571Y-133312771D02*
X138993428Y-133312771D01*
X138993428Y-133312771D02*
X139088666Y-133360390D01*
X139088666Y-133360390D02*
X139136285Y-133408009D01*
X139136285Y-133408009D02*
X139183904Y-133503247D01*
X139183904Y-133503247D02*
X139183904Y-133741342D01*
X139183904Y-133741342D02*
X139136285Y-133836580D01*
X139136285Y-133836580D02*
X139088666Y-133884200D01*
X139088666Y-133884200D02*
X138993428Y-133931819D01*
X138993428Y-133931819D02*
X138707714Y-133931819D01*
X138707714Y-133931819D02*
X138612476Y-133884200D01*
X138612476Y-133884200D02*
X138564857Y-133836580D01*
X147566142Y-135233580D02*
X147518523Y-135281200D01*
X147518523Y-135281200D02*
X147375666Y-135328819D01*
X147375666Y-135328819D02*
X147280428Y-135328819D01*
X147280428Y-135328819D02*
X147137571Y-135281200D01*
X147137571Y-135281200D02*
X147042333Y-135185961D01*
X147042333Y-135185961D02*
X146994714Y-135090723D01*
X146994714Y-135090723D02*
X146947095Y-134900247D01*
X146947095Y-134900247D02*
X146947095Y-134757390D01*
X146947095Y-134757390D02*
X146994714Y-134566914D01*
X146994714Y-134566914D02*
X147042333Y-134471676D01*
X147042333Y-134471676D02*
X147137571Y-134376438D01*
X147137571Y-134376438D02*
X147280428Y-134328819D01*
X147280428Y-134328819D02*
X147375666Y-134328819D01*
X147375666Y-134328819D02*
X147518523Y-134376438D01*
X147518523Y-134376438D02*
X147566142Y-134424057D01*
X147899476Y-134328819D02*
X148518523Y-134328819D01*
X148518523Y-134328819D02*
X148185190Y-134709771D01*
X148185190Y-134709771D02*
X148328047Y-134709771D01*
X148328047Y-134709771D02*
X148423285Y-134757390D01*
X148423285Y-134757390D02*
X148470904Y-134805009D01*
X148470904Y-134805009D02*
X148518523Y-134900247D01*
X148518523Y-134900247D02*
X148518523Y-135138342D01*
X148518523Y-135138342D02*
X148470904Y-135233580D01*
X148470904Y-135233580D02*
X148423285Y-135281200D01*
X148423285Y-135281200D02*
X148328047Y-135328819D01*
X148328047Y-135328819D02*
X148042333Y-135328819D01*
X148042333Y-135328819D02*
X147947095Y-135281200D01*
X147947095Y-135281200D02*
X147899476Y-135233580D01*
X149375666Y-134662152D02*
X149375666Y-135328819D01*
X149137571Y-134281200D02*
X148899476Y-134995485D01*
X148899476Y-134995485D02*
X149518523Y-134995485D01*
X139057142Y-99292580D02*
X139009523Y-99340200D01*
X139009523Y-99340200D02*
X138866666Y-99387819D01*
X138866666Y-99387819D02*
X138771428Y-99387819D01*
X138771428Y-99387819D02*
X138628571Y-99340200D01*
X138628571Y-99340200D02*
X138533333Y-99244961D01*
X138533333Y-99244961D02*
X138485714Y-99149723D01*
X138485714Y-99149723D02*
X138438095Y-98959247D01*
X138438095Y-98959247D02*
X138438095Y-98816390D01*
X138438095Y-98816390D02*
X138485714Y-98625914D01*
X138485714Y-98625914D02*
X138533333Y-98530676D01*
X138533333Y-98530676D02*
X138628571Y-98435438D01*
X138628571Y-98435438D02*
X138771428Y-98387819D01*
X138771428Y-98387819D02*
X138866666Y-98387819D01*
X138866666Y-98387819D02*
X139009523Y-98435438D01*
X139009523Y-98435438D02*
X139057142Y-98483057D01*
X140009523Y-99387819D02*
X139438095Y-99387819D01*
X139723809Y-99387819D02*
X139723809Y-98387819D01*
X139723809Y-98387819D02*
X139628571Y-98530676D01*
X139628571Y-98530676D02*
X139533333Y-98625914D01*
X139533333Y-98625914D02*
X139438095Y-98673533D01*
X140961904Y-99387819D02*
X140390476Y-99387819D01*
X140676190Y-99387819D02*
X140676190Y-98387819D01*
X140676190Y-98387819D02*
X140580952Y-98530676D01*
X140580952Y-98530676D02*
X140485714Y-98625914D01*
X140485714Y-98625914D02*
X140390476Y-98673533D01*
X147153333Y-114024580D02*
X147105714Y-114072200D01*
X147105714Y-114072200D02*
X146962857Y-114119819D01*
X146962857Y-114119819D02*
X146867619Y-114119819D01*
X146867619Y-114119819D02*
X146724762Y-114072200D01*
X146724762Y-114072200D02*
X146629524Y-113976961D01*
X146629524Y-113976961D02*
X146581905Y-113881723D01*
X146581905Y-113881723D02*
X146534286Y-113691247D01*
X146534286Y-113691247D02*
X146534286Y-113548390D01*
X146534286Y-113548390D02*
X146581905Y-113357914D01*
X146581905Y-113357914D02*
X146629524Y-113262676D01*
X146629524Y-113262676D02*
X146724762Y-113167438D01*
X146724762Y-113167438D02*
X146867619Y-113119819D01*
X146867619Y-113119819D02*
X146962857Y-113119819D01*
X146962857Y-113119819D02*
X147105714Y-113167438D01*
X147105714Y-113167438D02*
X147153333Y-113215057D01*
X148010476Y-113119819D02*
X147820000Y-113119819D01*
X147820000Y-113119819D02*
X147724762Y-113167438D01*
X147724762Y-113167438D02*
X147677143Y-113215057D01*
X147677143Y-113215057D02*
X147581905Y-113357914D01*
X147581905Y-113357914D02*
X147534286Y-113548390D01*
X147534286Y-113548390D02*
X147534286Y-113929342D01*
X147534286Y-113929342D02*
X147581905Y-114024580D01*
X147581905Y-114024580D02*
X147629524Y-114072200D01*
X147629524Y-114072200D02*
X147724762Y-114119819D01*
X147724762Y-114119819D02*
X147915238Y-114119819D01*
X147915238Y-114119819D02*
X148010476Y-114072200D01*
X148010476Y-114072200D02*
X148058095Y-114024580D01*
X148058095Y-114024580D02*
X148105714Y-113929342D01*
X148105714Y-113929342D02*
X148105714Y-113691247D01*
X148105714Y-113691247D02*
X148058095Y-113596009D01*
X148058095Y-113596009D02*
X148010476Y-113548390D01*
X148010476Y-113548390D02*
X147915238Y-113500771D01*
X147915238Y-113500771D02*
X147724762Y-113500771D01*
X147724762Y-113500771D02*
X147629524Y-113548390D01*
X147629524Y-113548390D02*
X147581905Y-113596009D01*
X147581905Y-113596009D02*
X147534286Y-113691247D01*
X136802905Y-75638819D02*
X136802905Y-74638819D01*
X136802905Y-74638819D02*
X137041000Y-74638819D01*
X137041000Y-74638819D02*
X137183857Y-74686438D01*
X137183857Y-74686438D02*
X137279095Y-74781676D01*
X137279095Y-74781676D02*
X137326714Y-74876914D01*
X137326714Y-74876914D02*
X137374333Y-75067390D01*
X137374333Y-75067390D02*
X137374333Y-75210247D01*
X137374333Y-75210247D02*
X137326714Y-75400723D01*
X137326714Y-75400723D02*
X137279095Y-75495961D01*
X137279095Y-75495961D02*
X137183857Y-75591200D01*
X137183857Y-75591200D02*
X137041000Y-75638819D01*
X137041000Y-75638819D02*
X136802905Y-75638819D01*
X138326714Y-75638819D02*
X137755286Y-75638819D01*
X138041000Y-75638819D02*
X138041000Y-74638819D01*
X138041000Y-74638819D02*
X137945762Y-74781676D01*
X137945762Y-74781676D02*
X137850524Y-74876914D01*
X137850524Y-74876914D02*
X137755286Y-74924533D01*
X154551142Y-121390580D02*
X154503523Y-121438200D01*
X154503523Y-121438200D02*
X154360666Y-121485819D01*
X154360666Y-121485819D02*
X154265428Y-121485819D01*
X154265428Y-121485819D02*
X154122571Y-121438200D01*
X154122571Y-121438200D02*
X154027333Y-121342961D01*
X154027333Y-121342961D02*
X153979714Y-121247723D01*
X153979714Y-121247723D02*
X153932095Y-121057247D01*
X153932095Y-121057247D02*
X153932095Y-120914390D01*
X153932095Y-120914390D02*
X153979714Y-120723914D01*
X153979714Y-120723914D02*
X154027333Y-120628676D01*
X154027333Y-120628676D02*
X154122571Y-120533438D01*
X154122571Y-120533438D02*
X154265428Y-120485819D01*
X154265428Y-120485819D02*
X154360666Y-120485819D01*
X154360666Y-120485819D02*
X154503523Y-120533438D01*
X154503523Y-120533438D02*
X154551142Y-120581057D01*
X154932095Y-120581057D02*
X154979714Y-120533438D01*
X154979714Y-120533438D02*
X155074952Y-120485819D01*
X155074952Y-120485819D02*
X155313047Y-120485819D01*
X155313047Y-120485819D02*
X155408285Y-120533438D01*
X155408285Y-120533438D02*
X155455904Y-120581057D01*
X155455904Y-120581057D02*
X155503523Y-120676295D01*
X155503523Y-120676295D02*
X155503523Y-120771533D01*
X155503523Y-120771533D02*
X155455904Y-120914390D01*
X155455904Y-120914390D02*
X154884476Y-121485819D01*
X154884476Y-121485819D02*
X155503523Y-121485819D01*
X155979714Y-121485819D02*
X156170190Y-121485819D01*
X156170190Y-121485819D02*
X156265428Y-121438200D01*
X156265428Y-121438200D02*
X156313047Y-121390580D01*
X156313047Y-121390580D02*
X156408285Y-121247723D01*
X156408285Y-121247723D02*
X156455904Y-121057247D01*
X156455904Y-121057247D02*
X156455904Y-120676295D01*
X156455904Y-120676295D02*
X156408285Y-120581057D01*
X156408285Y-120581057D02*
X156360666Y-120533438D01*
X156360666Y-120533438D02*
X156265428Y-120485819D01*
X156265428Y-120485819D02*
X156074952Y-120485819D01*
X156074952Y-120485819D02*
X155979714Y-120533438D01*
X155979714Y-120533438D02*
X155932095Y-120581057D01*
X155932095Y-120581057D02*
X155884476Y-120676295D01*
X155884476Y-120676295D02*
X155884476Y-120914390D01*
X155884476Y-120914390D02*
X155932095Y-121009628D01*
X155932095Y-121009628D02*
X155979714Y-121057247D01*
X155979714Y-121057247D02*
X156074952Y-121104866D01*
X156074952Y-121104866D02*
X156265428Y-121104866D01*
X156265428Y-121104866D02*
X156360666Y-121057247D01*
X156360666Y-121057247D02*
X156408285Y-121009628D01*
X156408285Y-121009628D02*
X156455904Y-120914390D01*
X160901142Y-83671580D02*
X160853523Y-83719200D01*
X160853523Y-83719200D02*
X160710666Y-83766819D01*
X160710666Y-83766819D02*
X160615428Y-83766819D01*
X160615428Y-83766819D02*
X160472571Y-83719200D01*
X160472571Y-83719200D02*
X160377333Y-83623961D01*
X160377333Y-83623961D02*
X160329714Y-83528723D01*
X160329714Y-83528723D02*
X160282095Y-83338247D01*
X160282095Y-83338247D02*
X160282095Y-83195390D01*
X160282095Y-83195390D02*
X160329714Y-83004914D01*
X160329714Y-83004914D02*
X160377333Y-82909676D01*
X160377333Y-82909676D02*
X160472571Y-82814438D01*
X160472571Y-82814438D02*
X160615428Y-82766819D01*
X160615428Y-82766819D02*
X160710666Y-82766819D01*
X160710666Y-82766819D02*
X160853523Y-82814438D01*
X160853523Y-82814438D02*
X160901142Y-82862057D01*
X161853523Y-83766819D02*
X161282095Y-83766819D01*
X161567809Y-83766819D02*
X161567809Y-82766819D01*
X161567809Y-82766819D02*
X161472571Y-82909676D01*
X161472571Y-82909676D02*
X161377333Y-83004914D01*
X161377333Y-83004914D02*
X161282095Y-83052533D01*
X162710666Y-83100152D02*
X162710666Y-83766819D01*
X162472571Y-82719200D02*
X162234476Y-83433485D01*
X162234476Y-83433485D02*
X162853523Y-83433485D01*
X140716095Y-92545819D02*
X140716095Y-93355342D01*
X140716095Y-93355342D02*
X140763714Y-93450580D01*
X140763714Y-93450580D02*
X140811333Y-93498200D01*
X140811333Y-93498200D02*
X140906571Y-93545819D01*
X140906571Y-93545819D02*
X141097047Y-93545819D01*
X141097047Y-93545819D02*
X141192285Y-93498200D01*
X141192285Y-93498200D02*
X141239904Y-93450580D01*
X141239904Y-93450580D02*
X141287523Y-93355342D01*
X141287523Y-93355342D02*
X141287523Y-92545819D01*
X142287523Y-93545819D02*
X141716095Y-93545819D01*
X142001809Y-93545819D02*
X142001809Y-92545819D01*
X142001809Y-92545819D02*
X141906571Y-92688676D01*
X141906571Y-92688676D02*
X141811333Y-92783914D01*
X141811333Y-92783914D02*
X141716095Y-92831533D01*
X137406142Y-80083819D02*
X137072809Y-79607628D01*
X136834714Y-80083819D02*
X136834714Y-79083819D01*
X136834714Y-79083819D02*
X137215666Y-79083819D01*
X137215666Y-79083819D02*
X137310904Y-79131438D01*
X137310904Y-79131438D02*
X137358523Y-79179057D01*
X137358523Y-79179057D02*
X137406142Y-79274295D01*
X137406142Y-79274295D02*
X137406142Y-79417152D01*
X137406142Y-79417152D02*
X137358523Y-79512390D01*
X137358523Y-79512390D02*
X137310904Y-79560009D01*
X137310904Y-79560009D02*
X137215666Y-79607628D01*
X137215666Y-79607628D02*
X136834714Y-79607628D01*
X138358523Y-80083819D02*
X137787095Y-80083819D01*
X138072809Y-80083819D02*
X138072809Y-79083819D01*
X138072809Y-79083819D02*
X137977571Y-79226676D01*
X137977571Y-79226676D02*
X137882333Y-79321914D01*
X137882333Y-79321914D02*
X137787095Y-79369533D01*
X138977571Y-79083819D02*
X139072809Y-79083819D01*
X139072809Y-79083819D02*
X139168047Y-79131438D01*
X139168047Y-79131438D02*
X139215666Y-79179057D01*
X139215666Y-79179057D02*
X139263285Y-79274295D01*
X139263285Y-79274295D02*
X139310904Y-79464771D01*
X139310904Y-79464771D02*
X139310904Y-79702866D01*
X139310904Y-79702866D02*
X139263285Y-79893342D01*
X139263285Y-79893342D02*
X139215666Y-79988580D01*
X139215666Y-79988580D02*
X139168047Y-80036200D01*
X139168047Y-80036200D02*
X139072809Y-80083819D01*
X139072809Y-80083819D02*
X138977571Y-80083819D01*
X138977571Y-80083819D02*
X138882333Y-80036200D01*
X138882333Y-80036200D02*
X138834714Y-79988580D01*
X138834714Y-79988580D02*
X138787095Y-79893342D01*
X138787095Y-79893342D02*
X138739476Y-79702866D01*
X138739476Y-79702866D02*
X138739476Y-79464771D01*
X138739476Y-79464771D02*
X138787095Y-79274295D01*
X138787095Y-79274295D02*
X138834714Y-79179057D01*
X138834714Y-79179057D02*
X138882333Y-79131438D01*
X138882333Y-79131438D02*
X138977571Y-79083819D01*
X152233333Y-136090819D02*
X151900000Y-135614628D01*
X151661905Y-136090819D02*
X151661905Y-135090819D01*
X151661905Y-135090819D02*
X152042857Y-135090819D01*
X152042857Y-135090819D02*
X152138095Y-135138438D01*
X152138095Y-135138438D02*
X152185714Y-135186057D01*
X152185714Y-135186057D02*
X152233333Y-135281295D01*
X152233333Y-135281295D02*
X152233333Y-135424152D01*
X152233333Y-135424152D02*
X152185714Y-135519390D01*
X152185714Y-135519390D02*
X152138095Y-135567009D01*
X152138095Y-135567009D02*
X152042857Y-135614628D01*
X152042857Y-135614628D02*
X151661905Y-135614628D01*
X153138095Y-135090819D02*
X152661905Y-135090819D01*
X152661905Y-135090819D02*
X152614286Y-135567009D01*
X152614286Y-135567009D02*
X152661905Y-135519390D01*
X152661905Y-135519390D02*
X152757143Y-135471771D01*
X152757143Y-135471771D02*
X152995238Y-135471771D01*
X152995238Y-135471771D02*
X153090476Y-135519390D01*
X153090476Y-135519390D02*
X153138095Y-135567009D01*
X153138095Y-135567009D02*
X153185714Y-135662247D01*
X153185714Y-135662247D02*
X153185714Y-135900342D01*
X153185714Y-135900342D02*
X153138095Y-135995580D01*
X153138095Y-135995580D02*
X153090476Y-136043200D01*
X153090476Y-136043200D02*
X152995238Y-136090819D01*
X152995238Y-136090819D02*
X152757143Y-136090819D01*
X152757143Y-136090819D02*
X152661905Y-136043200D01*
X152661905Y-136043200D02*
X152614286Y-135995580D01*
X159123142Y-132185580D02*
X159075523Y-132233200D01*
X159075523Y-132233200D02*
X158932666Y-132280819D01*
X158932666Y-132280819D02*
X158837428Y-132280819D01*
X158837428Y-132280819D02*
X158694571Y-132233200D01*
X158694571Y-132233200D02*
X158599333Y-132137961D01*
X158599333Y-132137961D02*
X158551714Y-132042723D01*
X158551714Y-132042723D02*
X158504095Y-131852247D01*
X158504095Y-131852247D02*
X158504095Y-131709390D01*
X158504095Y-131709390D02*
X158551714Y-131518914D01*
X158551714Y-131518914D02*
X158599333Y-131423676D01*
X158599333Y-131423676D02*
X158694571Y-131328438D01*
X158694571Y-131328438D02*
X158837428Y-131280819D01*
X158837428Y-131280819D02*
X158932666Y-131280819D01*
X158932666Y-131280819D02*
X159075523Y-131328438D01*
X159075523Y-131328438D02*
X159123142Y-131376057D01*
X159504095Y-131376057D02*
X159551714Y-131328438D01*
X159551714Y-131328438D02*
X159646952Y-131280819D01*
X159646952Y-131280819D02*
X159885047Y-131280819D01*
X159885047Y-131280819D02*
X159980285Y-131328438D01*
X159980285Y-131328438D02*
X160027904Y-131376057D01*
X160027904Y-131376057D02*
X160075523Y-131471295D01*
X160075523Y-131471295D02*
X160075523Y-131566533D01*
X160075523Y-131566533D02*
X160027904Y-131709390D01*
X160027904Y-131709390D02*
X159456476Y-132280819D01*
X159456476Y-132280819D02*
X160075523Y-132280819D01*
X161027904Y-132280819D02*
X160456476Y-132280819D01*
X160742190Y-132280819D02*
X160742190Y-131280819D01*
X160742190Y-131280819D02*
X160646952Y-131423676D01*
X160646952Y-131423676D02*
X160551714Y-131518914D01*
X160551714Y-131518914D02*
X160456476Y-131566533D01*
X141025666Y-105722009D02*
X140692333Y-105722009D01*
X140692333Y-106245819D02*
X140692333Y-105245819D01*
X140692333Y-105245819D02*
X141168523Y-105245819D01*
X141882809Y-105722009D02*
X142025666Y-105769628D01*
X142025666Y-105769628D02*
X142073285Y-105817247D01*
X142073285Y-105817247D02*
X142120904Y-105912485D01*
X142120904Y-105912485D02*
X142120904Y-106055342D01*
X142120904Y-106055342D02*
X142073285Y-106150580D01*
X142073285Y-106150580D02*
X142025666Y-106198200D01*
X142025666Y-106198200D02*
X141930428Y-106245819D01*
X141930428Y-106245819D02*
X141549476Y-106245819D01*
X141549476Y-106245819D02*
X141549476Y-105245819D01*
X141549476Y-105245819D02*
X141882809Y-105245819D01*
X141882809Y-105245819D02*
X141978047Y-105293438D01*
X141978047Y-105293438D02*
X142025666Y-105341057D01*
X142025666Y-105341057D02*
X142073285Y-105436295D01*
X142073285Y-105436295D02*
X142073285Y-105531533D01*
X142073285Y-105531533D02*
X142025666Y-105626771D01*
X142025666Y-105626771D02*
X141978047Y-105674390D01*
X141978047Y-105674390D02*
X141882809Y-105722009D01*
X141882809Y-105722009D02*
X141549476Y-105722009D01*
X143073285Y-106245819D02*
X142501857Y-106245819D01*
X142787571Y-106245819D02*
X142787571Y-105245819D01*
X142787571Y-105245819D02*
X142692333Y-105388676D01*
X142692333Y-105388676D02*
X142597095Y-105483914D01*
X142597095Y-105483914D02*
X142501857Y-105531533D01*
X158234142Y-128629580D02*
X158186523Y-128677200D01*
X158186523Y-128677200D02*
X158043666Y-128724819D01*
X158043666Y-128724819D02*
X157948428Y-128724819D01*
X157948428Y-128724819D02*
X157805571Y-128677200D01*
X157805571Y-128677200D02*
X157710333Y-128581961D01*
X157710333Y-128581961D02*
X157662714Y-128486723D01*
X157662714Y-128486723D02*
X157615095Y-128296247D01*
X157615095Y-128296247D02*
X157615095Y-128153390D01*
X157615095Y-128153390D02*
X157662714Y-127962914D01*
X157662714Y-127962914D02*
X157710333Y-127867676D01*
X157710333Y-127867676D02*
X157805571Y-127772438D01*
X157805571Y-127772438D02*
X157948428Y-127724819D01*
X157948428Y-127724819D02*
X158043666Y-127724819D01*
X158043666Y-127724819D02*
X158186523Y-127772438D01*
X158186523Y-127772438D02*
X158234142Y-127820057D01*
X158615095Y-127820057D02*
X158662714Y-127772438D01*
X158662714Y-127772438D02*
X158757952Y-127724819D01*
X158757952Y-127724819D02*
X158996047Y-127724819D01*
X158996047Y-127724819D02*
X159091285Y-127772438D01*
X159091285Y-127772438D02*
X159138904Y-127820057D01*
X159138904Y-127820057D02*
X159186523Y-127915295D01*
X159186523Y-127915295D02*
X159186523Y-128010533D01*
X159186523Y-128010533D02*
X159138904Y-128153390D01*
X159138904Y-128153390D02*
X158567476Y-128724819D01*
X158567476Y-128724819D02*
X159186523Y-128724819D01*
X159519857Y-127724819D02*
X160138904Y-127724819D01*
X160138904Y-127724819D02*
X159805571Y-128105771D01*
X159805571Y-128105771D02*
X159948428Y-128105771D01*
X159948428Y-128105771D02*
X160043666Y-128153390D01*
X160043666Y-128153390D02*
X160091285Y-128201009D01*
X160091285Y-128201009D02*
X160138904Y-128296247D01*
X160138904Y-128296247D02*
X160138904Y-128534342D01*
X160138904Y-128534342D02*
X160091285Y-128629580D01*
X160091285Y-128629580D02*
X160043666Y-128677200D01*
X160043666Y-128677200D02*
X159948428Y-128724819D01*
X159948428Y-128724819D02*
X159662714Y-128724819D01*
X159662714Y-128724819D02*
X159567476Y-128677200D01*
X159567476Y-128677200D02*
X159519857Y-128629580D01*
D12*
X142367095Y-63846419D02*
X142367095Y-64655942D01*
X142367095Y-64655942D02*
X142414714Y-64751180D01*
X142414714Y-64751180D02*
X142462333Y-64798800D01*
X142462333Y-64798800D02*
X142557571Y-64846419D01*
X142557571Y-64846419D02*
X142748047Y-64846419D01*
X142748047Y-64846419D02*
X142843285Y-64798800D01*
X142843285Y-64798800D02*
X142890904Y-64751180D01*
X142890904Y-64751180D02*
X142938523Y-64655942D01*
X142938523Y-64655942D02*
X142938523Y-63846419D01*
X143890904Y-63846419D02*
X143414714Y-63846419D01*
X143414714Y-63846419D02*
X143367095Y-64322609D01*
X143367095Y-64322609D02*
X143414714Y-64274990D01*
X143414714Y-64274990D02*
X143509952Y-64227371D01*
X143509952Y-64227371D02*
X143748047Y-64227371D01*
X143748047Y-64227371D02*
X143843285Y-64274990D01*
X143843285Y-64274990D02*
X143890904Y-64322609D01*
X143890904Y-64322609D02*
X143938523Y-64417847D01*
X143938523Y-64417847D02*
X143938523Y-64655942D01*
X143938523Y-64655942D02*
X143890904Y-64751180D01*
X143890904Y-64751180D02*
X143843285Y-64798800D01*
X143843285Y-64798800D02*
X143748047Y-64846419D01*
X143748047Y-64846419D02*
X143509952Y-64846419D01*
X143509952Y-64846419D02*
X143414714Y-64798800D01*
X143414714Y-64798800D02*
X143367095Y-64751180D01*
D11*
X141565333Y-108055580D02*
X141517714Y-108103200D01*
X141517714Y-108103200D02*
X141374857Y-108150819D01*
X141374857Y-108150819D02*
X141279619Y-108150819D01*
X141279619Y-108150819D02*
X141136762Y-108103200D01*
X141136762Y-108103200D02*
X141041524Y-108007961D01*
X141041524Y-108007961D02*
X140993905Y-107912723D01*
X140993905Y-107912723D02*
X140946286Y-107722247D01*
X140946286Y-107722247D02*
X140946286Y-107579390D01*
X140946286Y-107579390D02*
X140993905Y-107388914D01*
X140993905Y-107388914D02*
X141041524Y-107293676D01*
X141041524Y-107293676D02*
X141136762Y-107198438D01*
X141136762Y-107198438D02*
X141279619Y-107150819D01*
X141279619Y-107150819D02*
X141374857Y-107150819D01*
X141374857Y-107150819D02*
X141517714Y-107198438D01*
X141517714Y-107198438D02*
X141565333Y-107246057D01*
X142470095Y-107150819D02*
X141993905Y-107150819D01*
X141993905Y-107150819D02*
X141946286Y-107627009D01*
X141946286Y-107627009D02*
X141993905Y-107579390D01*
X141993905Y-107579390D02*
X142089143Y-107531771D01*
X142089143Y-107531771D02*
X142327238Y-107531771D01*
X142327238Y-107531771D02*
X142422476Y-107579390D01*
X142422476Y-107579390D02*
X142470095Y-107627009D01*
X142470095Y-107627009D02*
X142517714Y-107722247D01*
X142517714Y-107722247D02*
X142517714Y-107960342D01*
X142517714Y-107960342D02*
X142470095Y-108055580D01*
X142470095Y-108055580D02*
X142422476Y-108103200D01*
X142422476Y-108103200D02*
X142327238Y-108150819D01*
X142327238Y-108150819D02*
X142089143Y-108150819D01*
X142089143Y-108150819D02*
X141993905Y-108103200D01*
X141993905Y-108103200D02*
X141946286Y-108055580D01*
X136906095Y-80353819D02*
X136906095Y-81163342D01*
X136906095Y-81163342D02*
X136953714Y-81258580D01*
X136953714Y-81258580D02*
X137001333Y-81306200D01*
X137001333Y-81306200D02*
X137096571Y-81353819D01*
X137096571Y-81353819D02*
X137287047Y-81353819D01*
X137287047Y-81353819D02*
X137382285Y-81306200D01*
X137382285Y-81306200D02*
X137429904Y-81258580D01*
X137429904Y-81258580D02*
X137477523Y-81163342D01*
X137477523Y-81163342D02*
X137477523Y-80353819D01*
X138001333Y-81353819D02*
X138191809Y-81353819D01*
X138191809Y-81353819D02*
X138287047Y-81306200D01*
X138287047Y-81306200D02*
X138334666Y-81258580D01*
X138334666Y-81258580D02*
X138429904Y-81115723D01*
X138429904Y-81115723D02*
X138477523Y-80925247D01*
X138477523Y-80925247D02*
X138477523Y-80544295D01*
X138477523Y-80544295D02*
X138429904Y-80449057D01*
X138429904Y-80449057D02*
X138382285Y-80401438D01*
X138382285Y-80401438D02*
X138287047Y-80353819D01*
X138287047Y-80353819D02*
X138096571Y-80353819D01*
X138096571Y-80353819D02*
X138001333Y-80401438D01*
X138001333Y-80401438D02*
X137953714Y-80449057D01*
X137953714Y-80449057D02*
X137906095Y-80544295D01*
X137906095Y-80544295D02*
X137906095Y-80782390D01*
X137906095Y-80782390D02*
X137953714Y-80877628D01*
X137953714Y-80877628D02*
X138001333Y-80925247D01*
X138001333Y-80925247D02*
X138096571Y-80972866D01*
X138096571Y-80972866D02*
X138287047Y-80972866D01*
X138287047Y-80972866D02*
X138382285Y-80925247D01*
X138382285Y-80925247D02*
X138429904Y-80877628D01*
X138429904Y-80877628D02*
X138477523Y-80782390D01*
X154265333Y-118437819D02*
X153932000Y-117961628D01*
X153693905Y-118437819D02*
X153693905Y-117437819D01*
X153693905Y-117437819D02*
X154074857Y-117437819D01*
X154074857Y-117437819D02*
X154170095Y-117485438D01*
X154170095Y-117485438D02*
X154217714Y-117533057D01*
X154217714Y-117533057D02*
X154265333Y-117628295D01*
X154265333Y-117628295D02*
X154265333Y-117771152D01*
X154265333Y-117771152D02*
X154217714Y-117866390D01*
X154217714Y-117866390D02*
X154170095Y-117914009D01*
X154170095Y-117914009D02*
X154074857Y-117961628D01*
X154074857Y-117961628D02*
X153693905Y-117961628D01*
X154598667Y-117437819D02*
X155217714Y-117437819D01*
X155217714Y-117437819D02*
X154884381Y-117818771D01*
X154884381Y-117818771D02*
X155027238Y-117818771D01*
X155027238Y-117818771D02*
X155122476Y-117866390D01*
X155122476Y-117866390D02*
X155170095Y-117914009D01*
X155170095Y-117914009D02*
X155217714Y-118009247D01*
X155217714Y-118009247D02*
X155217714Y-118247342D01*
X155217714Y-118247342D02*
X155170095Y-118342580D01*
X155170095Y-118342580D02*
X155122476Y-118390200D01*
X155122476Y-118390200D02*
X155027238Y-118437819D01*
X155027238Y-118437819D02*
X154741524Y-118437819D01*
X154741524Y-118437819D02*
X154646286Y-118390200D01*
X154646286Y-118390200D02*
X154598667Y-118342580D01*
X150849753Y-96357750D02*
X150277333Y-96930170D01*
X150277333Y-96930170D02*
X150243661Y-97031185D01*
X150243661Y-97031185D02*
X150243661Y-97098529D01*
X150243661Y-97098529D02*
X150277333Y-97199544D01*
X150277333Y-97199544D02*
X150412020Y-97334231D01*
X150412020Y-97334231D02*
X150513035Y-97367903D01*
X150513035Y-97367903D02*
X150580379Y-97367903D01*
X150580379Y-97367903D02*
X150681394Y-97334231D01*
X150681394Y-97334231D02*
X151253814Y-96761811D01*
X151489516Y-97132201D02*
X151556859Y-97132201D01*
X151556859Y-97132201D02*
X151657875Y-97165872D01*
X151657875Y-97165872D02*
X151826233Y-97334231D01*
X151826233Y-97334231D02*
X151859905Y-97435246D01*
X151859905Y-97435246D02*
X151859905Y-97502590D01*
X151859905Y-97502590D02*
X151826233Y-97603605D01*
X151826233Y-97603605D02*
X151758890Y-97670949D01*
X151758890Y-97670949D02*
X151624203Y-97738292D01*
X151624203Y-97738292D02*
X150816081Y-97738292D01*
X150816081Y-97738292D02*
X151253814Y-98176025D01*
X161917142Y-131518819D02*
X161583809Y-131042628D01*
X161345714Y-131518819D02*
X161345714Y-130518819D01*
X161345714Y-130518819D02*
X161726666Y-130518819D01*
X161726666Y-130518819D02*
X161821904Y-130566438D01*
X161821904Y-130566438D02*
X161869523Y-130614057D01*
X161869523Y-130614057D02*
X161917142Y-130709295D01*
X161917142Y-130709295D02*
X161917142Y-130852152D01*
X161917142Y-130852152D02*
X161869523Y-130947390D01*
X161869523Y-130947390D02*
X161821904Y-130995009D01*
X161821904Y-130995009D02*
X161726666Y-131042628D01*
X161726666Y-131042628D02*
X161345714Y-131042628D01*
X162869523Y-131518819D02*
X162298095Y-131518819D01*
X162583809Y-131518819D02*
X162583809Y-130518819D01*
X162583809Y-130518819D02*
X162488571Y-130661676D01*
X162488571Y-130661676D02*
X162393333Y-130756914D01*
X162393333Y-130756914D02*
X162298095Y-130804533D01*
X163202857Y-130518819D02*
X163821904Y-130518819D01*
X163821904Y-130518819D02*
X163488571Y-130899771D01*
X163488571Y-130899771D02*
X163631428Y-130899771D01*
X163631428Y-130899771D02*
X163726666Y-130947390D01*
X163726666Y-130947390D02*
X163774285Y-130995009D01*
X163774285Y-130995009D02*
X163821904Y-131090247D01*
X163821904Y-131090247D02*
X163821904Y-131328342D01*
X163821904Y-131328342D02*
X163774285Y-131423580D01*
X163774285Y-131423580D02*
X163726666Y-131471200D01*
X163726666Y-131471200D02*
X163631428Y-131518819D01*
X163631428Y-131518819D02*
X163345714Y-131518819D01*
X163345714Y-131518819D02*
X163250476Y-131471200D01*
X163250476Y-131471200D02*
X163202857Y-131423580D01*
X144899142Y-99292580D02*
X144851523Y-99340200D01*
X144851523Y-99340200D02*
X144708666Y-99387819D01*
X144708666Y-99387819D02*
X144613428Y-99387819D01*
X144613428Y-99387819D02*
X144470571Y-99340200D01*
X144470571Y-99340200D02*
X144375333Y-99244961D01*
X144375333Y-99244961D02*
X144327714Y-99149723D01*
X144327714Y-99149723D02*
X144280095Y-98959247D01*
X144280095Y-98959247D02*
X144280095Y-98816390D01*
X144280095Y-98816390D02*
X144327714Y-98625914D01*
X144327714Y-98625914D02*
X144375333Y-98530676D01*
X144375333Y-98530676D02*
X144470571Y-98435438D01*
X144470571Y-98435438D02*
X144613428Y-98387819D01*
X144613428Y-98387819D02*
X144708666Y-98387819D01*
X144708666Y-98387819D02*
X144851523Y-98435438D01*
X144851523Y-98435438D02*
X144899142Y-98483057D01*
X145851523Y-99387819D02*
X145280095Y-99387819D01*
X145565809Y-99387819D02*
X145565809Y-98387819D01*
X145565809Y-98387819D02*
X145470571Y-98530676D01*
X145470571Y-98530676D02*
X145375333Y-98625914D01*
X145375333Y-98625914D02*
X145280095Y-98673533D01*
X146470571Y-98387819D02*
X146565809Y-98387819D01*
X146565809Y-98387819D02*
X146661047Y-98435438D01*
X146661047Y-98435438D02*
X146708666Y-98483057D01*
X146708666Y-98483057D02*
X146756285Y-98578295D01*
X146756285Y-98578295D02*
X146803904Y-98768771D01*
X146803904Y-98768771D02*
X146803904Y-99006866D01*
X146803904Y-99006866D02*
X146756285Y-99197342D01*
X146756285Y-99197342D02*
X146708666Y-99292580D01*
X146708666Y-99292580D02*
X146661047Y-99340200D01*
X146661047Y-99340200D02*
X146565809Y-99387819D01*
X146565809Y-99387819D02*
X146470571Y-99387819D01*
X146470571Y-99387819D02*
X146375333Y-99340200D01*
X146375333Y-99340200D02*
X146327714Y-99292580D01*
X146327714Y-99292580D02*
X146280095Y-99197342D01*
X146280095Y-99197342D02*
X146232476Y-99006866D01*
X146232476Y-99006866D02*
X146232476Y-98768771D01*
X146232476Y-98768771D02*
X146280095Y-98578295D01*
X146280095Y-98578295D02*
X146327714Y-98483057D01*
X146327714Y-98483057D02*
X146375333Y-98435438D01*
X146375333Y-98435438D02*
X146470571Y-98387819D01*
X162560095Y-89370819D02*
X162560095Y-90180342D01*
X162560095Y-90180342D02*
X162607714Y-90275580D01*
X162607714Y-90275580D02*
X162655333Y-90323200D01*
X162655333Y-90323200D02*
X162750571Y-90370819D01*
X162750571Y-90370819D02*
X162941047Y-90370819D01*
X162941047Y-90370819D02*
X163036285Y-90323200D01*
X163036285Y-90323200D02*
X163083904Y-90275580D01*
X163083904Y-90275580D02*
X163131523Y-90180342D01*
X163131523Y-90180342D02*
X163131523Y-89370819D01*
X164036285Y-89704152D02*
X164036285Y-90370819D01*
X163798190Y-89323200D02*
X163560095Y-90037485D01*
X163560095Y-90037485D02*
X164179142Y-90037485D01*
X166108142Y-95863580D02*
X166060523Y-95911200D01*
X166060523Y-95911200D02*
X165917666Y-95958819D01*
X165917666Y-95958819D02*
X165822428Y-95958819D01*
X165822428Y-95958819D02*
X165679571Y-95911200D01*
X165679571Y-95911200D02*
X165584333Y-95815961D01*
X165584333Y-95815961D02*
X165536714Y-95720723D01*
X165536714Y-95720723D02*
X165489095Y-95530247D01*
X165489095Y-95530247D02*
X165489095Y-95387390D01*
X165489095Y-95387390D02*
X165536714Y-95196914D01*
X165536714Y-95196914D02*
X165584333Y-95101676D01*
X165584333Y-95101676D02*
X165679571Y-95006438D01*
X165679571Y-95006438D02*
X165822428Y-94958819D01*
X165822428Y-94958819D02*
X165917666Y-94958819D01*
X165917666Y-94958819D02*
X166060523Y-95006438D01*
X166060523Y-95006438D02*
X166108142Y-95054057D01*
X167060523Y-95958819D02*
X166489095Y-95958819D01*
X166774809Y-95958819D02*
X166774809Y-94958819D01*
X166774809Y-94958819D02*
X166679571Y-95101676D01*
X166679571Y-95101676D02*
X166584333Y-95196914D01*
X166584333Y-95196914D02*
X166489095Y-95244533D01*
X167536714Y-95958819D02*
X167727190Y-95958819D01*
X167727190Y-95958819D02*
X167822428Y-95911200D01*
X167822428Y-95911200D02*
X167870047Y-95863580D01*
X167870047Y-95863580D02*
X167965285Y-95720723D01*
X167965285Y-95720723D02*
X168012904Y-95530247D01*
X168012904Y-95530247D02*
X168012904Y-95149295D01*
X168012904Y-95149295D02*
X167965285Y-95054057D01*
X167965285Y-95054057D02*
X167917666Y-95006438D01*
X167917666Y-95006438D02*
X167822428Y-94958819D01*
X167822428Y-94958819D02*
X167631952Y-94958819D01*
X167631952Y-94958819D02*
X167536714Y-95006438D01*
X167536714Y-95006438D02*
X167489095Y-95054057D01*
X167489095Y-95054057D02*
X167441476Y-95149295D01*
X167441476Y-95149295D02*
X167441476Y-95387390D01*
X167441476Y-95387390D02*
X167489095Y-95482628D01*
X167489095Y-95482628D02*
X167536714Y-95530247D01*
X167536714Y-95530247D02*
X167631952Y-95577866D01*
X167631952Y-95577866D02*
X167822428Y-95577866D01*
X167822428Y-95577866D02*
X167917666Y-95530247D01*
X167917666Y-95530247D02*
X167965285Y-95482628D01*
X167965285Y-95482628D02*
X168012904Y-95387390D01*
X143075819Y-125102857D02*
X142599628Y-125436190D01*
X143075819Y-125674285D02*
X142075819Y-125674285D01*
X142075819Y-125674285D02*
X142075819Y-125293333D01*
X142075819Y-125293333D02*
X142123438Y-125198095D01*
X142123438Y-125198095D02*
X142171057Y-125150476D01*
X142171057Y-125150476D02*
X142266295Y-125102857D01*
X142266295Y-125102857D02*
X142409152Y-125102857D01*
X142409152Y-125102857D02*
X142504390Y-125150476D01*
X142504390Y-125150476D02*
X142552009Y-125198095D01*
X142552009Y-125198095D02*
X142599628Y-125293333D01*
X142599628Y-125293333D02*
X142599628Y-125674285D01*
X142171057Y-124721904D02*
X142123438Y-124674285D01*
X142123438Y-124674285D02*
X142075819Y-124579047D01*
X142075819Y-124579047D02*
X142075819Y-124340952D01*
X142075819Y-124340952D02*
X142123438Y-124245714D01*
X142123438Y-124245714D02*
X142171057Y-124198095D01*
X142171057Y-124198095D02*
X142266295Y-124150476D01*
X142266295Y-124150476D02*
X142361533Y-124150476D01*
X142361533Y-124150476D02*
X142504390Y-124198095D01*
X142504390Y-124198095D02*
X143075819Y-124769523D01*
X143075819Y-124769523D02*
X143075819Y-124150476D01*
X142075819Y-123293333D02*
X142075819Y-123483809D01*
X142075819Y-123483809D02*
X142123438Y-123579047D01*
X142123438Y-123579047D02*
X142171057Y-123626666D01*
X142171057Y-123626666D02*
X142313914Y-123721904D01*
X142313914Y-123721904D02*
X142504390Y-123769523D01*
X142504390Y-123769523D02*
X142885342Y-123769523D01*
X142885342Y-123769523D02*
X142980580Y-123721904D01*
X142980580Y-123721904D02*
X143028200Y-123674285D01*
X143028200Y-123674285D02*
X143075819Y-123579047D01*
X143075819Y-123579047D02*
X143075819Y-123388571D01*
X143075819Y-123388571D02*
X143028200Y-123293333D01*
X143028200Y-123293333D02*
X142980580Y-123245714D01*
X142980580Y-123245714D02*
X142885342Y-123198095D01*
X142885342Y-123198095D02*
X142647247Y-123198095D01*
X142647247Y-123198095D02*
X142552009Y-123245714D01*
X142552009Y-123245714D02*
X142504390Y-123293333D01*
X142504390Y-123293333D02*
X142456771Y-123388571D01*
X142456771Y-123388571D02*
X142456771Y-123579047D01*
X142456771Y-123579047D02*
X142504390Y-123674285D01*
X142504390Y-123674285D02*
X142552009Y-123721904D01*
X142552009Y-123721904D02*
X142647247Y-123769523D01*
X165600142Y-127105580D02*
X165552523Y-127153200D01*
X165552523Y-127153200D02*
X165409666Y-127200819D01*
X165409666Y-127200819D02*
X165314428Y-127200819D01*
X165314428Y-127200819D02*
X165171571Y-127153200D01*
X165171571Y-127153200D02*
X165076333Y-127057961D01*
X165076333Y-127057961D02*
X165028714Y-126962723D01*
X165028714Y-126962723D02*
X164981095Y-126772247D01*
X164981095Y-126772247D02*
X164981095Y-126629390D01*
X164981095Y-126629390D02*
X165028714Y-126438914D01*
X165028714Y-126438914D02*
X165076333Y-126343676D01*
X165076333Y-126343676D02*
X165171571Y-126248438D01*
X165171571Y-126248438D02*
X165314428Y-126200819D01*
X165314428Y-126200819D02*
X165409666Y-126200819D01*
X165409666Y-126200819D02*
X165552523Y-126248438D01*
X165552523Y-126248438D02*
X165600142Y-126296057D01*
X165981095Y-126296057D02*
X166028714Y-126248438D01*
X166028714Y-126248438D02*
X166123952Y-126200819D01*
X166123952Y-126200819D02*
X166362047Y-126200819D01*
X166362047Y-126200819D02*
X166457285Y-126248438D01*
X166457285Y-126248438D02*
X166504904Y-126296057D01*
X166504904Y-126296057D02*
X166552523Y-126391295D01*
X166552523Y-126391295D02*
X166552523Y-126486533D01*
X166552523Y-126486533D02*
X166504904Y-126629390D01*
X166504904Y-126629390D02*
X165933476Y-127200819D01*
X165933476Y-127200819D02*
X166552523Y-127200819D01*
X167409666Y-126200819D02*
X167219190Y-126200819D01*
X167219190Y-126200819D02*
X167123952Y-126248438D01*
X167123952Y-126248438D02*
X167076333Y-126296057D01*
X167076333Y-126296057D02*
X166981095Y-126438914D01*
X166981095Y-126438914D02*
X166933476Y-126629390D01*
X166933476Y-126629390D02*
X166933476Y-127010342D01*
X166933476Y-127010342D02*
X166981095Y-127105580D01*
X166981095Y-127105580D02*
X167028714Y-127153200D01*
X167028714Y-127153200D02*
X167123952Y-127200819D01*
X167123952Y-127200819D02*
X167314428Y-127200819D01*
X167314428Y-127200819D02*
X167409666Y-127153200D01*
X167409666Y-127153200D02*
X167457285Y-127105580D01*
X167457285Y-127105580D02*
X167504904Y-127010342D01*
X167504904Y-127010342D02*
X167504904Y-126772247D01*
X167504904Y-126772247D02*
X167457285Y-126677009D01*
X167457285Y-126677009D02*
X167409666Y-126629390D01*
X167409666Y-126629390D02*
X167314428Y-126581771D01*
X167314428Y-126581771D02*
X167123952Y-126581771D01*
X167123952Y-126581771D02*
X167028714Y-126629390D01*
X167028714Y-126629390D02*
X166981095Y-126677009D01*
X166981095Y-126677009D02*
X166933476Y-126772247D01*
X137279142Y-138249819D02*
X136945809Y-137773628D01*
X136707714Y-138249819D02*
X136707714Y-137249819D01*
X136707714Y-137249819D02*
X137088666Y-137249819D01*
X137088666Y-137249819D02*
X137183904Y-137297438D01*
X137183904Y-137297438D02*
X137231523Y-137345057D01*
X137231523Y-137345057D02*
X137279142Y-137440295D01*
X137279142Y-137440295D02*
X137279142Y-137583152D01*
X137279142Y-137583152D02*
X137231523Y-137678390D01*
X137231523Y-137678390D02*
X137183904Y-137726009D01*
X137183904Y-137726009D02*
X137088666Y-137773628D01*
X137088666Y-137773628D02*
X136707714Y-137773628D01*
X137660095Y-137345057D02*
X137707714Y-137297438D01*
X137707714Y-137297438D02*
X137802952Y-137249819D01*
X137802952Y-137249819D02*
X138041047Y-137249819D01*
X138041047Y-137249819D02*
X138136285Y-137297438D01*
X138136285Y-137297438D02*
X138183904Y-137345057D01*
X138183904Y-137345057D02*
X138231523Y-137440295D01*
X138231523Y-137440295D02*
X138231523Y-137535533D01*
X138231523Y-137535533D02*
X138183904Y-137678390D01*
X138183904Y-137678390D02*
X137612476Y-138249819D01*
X137612476Y-138249819D02*
X138231523Y-138249819D01*
X138612476Y-137345057D02*
X138660095Y-137297438D01*
X138660095Y-137297438D02*
X138755333Y-137249819D01*
X138755333Y-137249819D02*
X138993428Y-137249819D01*
X138993428Y-137249819D02*
X139088666Y-137297438D01*
X139088666Y-137297438D02*
X139136285Y-137345057D01*
X139136285Y-137345057D02*
X139183904Y-137440295D01*
X139183904Y-137440295D02*
X139183904Y-137535533D01*
X139183904Y-137535533D02*
X139136285Y-137678390D01*
X139136285Y-137678390D02*
X138564857Y-138249819D01*
X138564857Y-138249819D02*
X139183904Y-138249819D01*
X155313142Y-88211819D02*
X154979809Y-87735628D01*
X154741714Y-88211819D02*
X154741714Y-87211819D01*
X154741714Y-87211819D02*
X155122666Y-87211819D01*
X155122666Y-87211819D02*
X155217904Y-87259438D01*
X155217904Y-87259438D02*
X155265523Y-87307057D01*
X155265523Y-87307057D02*
X155313142Y-87402295D01*
X155313142Y-87402295D02*
X155313142Y-87545152D01*
X155313142Y-87545152D02*
X155265523Y-87640390D01*
X155265523Y-87640390D02*
X155217904Y-87688009D01*
X155217904Y-87688009D02*
X155122666Y-87735628D01*
X155122666Y-87735628D02*
X154741714Y-87735628D01*
X155694095Y-87307057D02*
X155741714Y-87259438D01*
X155741714Y-87259438D02*
X155836952Y-87211819D01*
X155836952Y-87211819D02*
X156075047Y-87211819D01*
X156075047Y-87211819D02*
X156170285Y-87259438D01*
X156170285Y-87259438D02*
X156217904Y-87307057D01*
X156217904Y-87307057D02*
X156265523Y-87402295D01*
X156265523Y-87402295D02*
X156265523Y-87497533D01*
X156265523Y-87497533D02*
X156217904Y-87640390D01*
X156217904Y-87640390D02*
X155646476Y-88211819D01*
X155646476Y-88211819D02*
X156265523Y-88211819D01*
X156836952Y-87640390D02*
X156741714Y-87592771D01*
X156741714Y-87592771D02*
X156694095Y-87545152D01*
X156694095Y-87545152D02*
X156646476Y-87449914D01*
X156646476Y-87449914D02*
X156646476Y-87402295D01*
X156646476Y-87402295D02*
X156694095Y-87307057D01*
X156694095Y-87307057D02*
X156741714Y-87259438D01*
X156741714Y-87259438D02*
X156836952Y-87211819D01*
X156836952Y-87211819D02*
X157027428Y-87211819D01*
X157027428Y-87211819D02*
X157122666Y-87259438D01*
X157122666Y-87259438D02*
X157170285Y-87307057D01*
X157170285Y-87307057D02*
X157217904Y-87402295D01*
X157217904Y-87402295D02*
X157217904Y-87449914D01*
X157217904Y-87449914D02*
X157170285Y-87545152D01*
X157170285Y-87545152D02*
X157122666Y-87592771D01*
X157122666Y-87592771D02*
X157027428Y-87640390D01*
X157027428Y-87640390D02*
X156836952Y-87640390D01*
X156836952Y-87640390D02*
X156741714Y-87688009D01*
X156741714Y-87688009D02*
X156694095Y-87735628D01*
X156694095Y-87735628D02*
X156646476Y-87830866D01*
X156646476Y-87830866D02*
X156646476Y-88021342D01*
X156646476Y-88021342D02*
X156694095Y-88116580D01*
X156694095Y-88116580D02*
X156741714Y-88164200D01*
X156741714Y-88164200D02*
X156836952Y-88211819D01*
X156836952Y-88211819D02*
X157027428Y-88211819D01*
X157027428Y-88211819D02*
X157122666Y-88164200D01*
X157122666Y-88164200D02*
X157170285Y-88116580D01*
X157170285Y-88116580D02*
X157217904Y-88021342D01*
X157217904Y-88021342D02*
X157217904Y-87830866D01*
X157217904Y-87830866D02*
X157170285Y-87735628D01*
X157170285Y-87735628D02*
X157122666Y-87688009D01*
X157122666Y-87688009D02*
X157027428Y-87640390D01*
X161917142Y-122660580D02*
X161869523Y-122708200D01*
X161869523Y-122708200D02*
X161726666Y-122755819D01*
X161726666Y-122755819D02*
X161631428Y-122755819D01*
X161631428Y-122755819D02*
X161488571Y-122708200D01*
X161488571Y-122708200D02*
X161393333Y-122612961D01*
X161393333Y-122612961D02*
X161345714Y-122517723D01*
X161345714Y-122517723D02*
X161298095Y-122327247D01*
X161298095Y-122327247D02*
X161298095Y-122184390D01*
X161298095Y-122184390D02*
X161345714Y-121993914D01*
X161345714Y-121993914D02*
X161393333Y-121898676D01*
X161393333Y-121898676D02*
X161488571Y-121803438D01*
X161488571Y-121803438D02*
X161631428Y-121755819D01*
X161631428Y-121755819D02*
X161726666Y-121755819D01*
X161726666Y-121755819D02*
X161869523Y-121803438D01*
X161869523Y-121803438D02*
X161917142Y-121851057D01*
X162298095Y-121851057D02*
X162345714Y-121803438D01*
X162345714Y-121803438D02*
X162440952Y-121755819D01*
X162440952Y-121755819D02*
X162679047Y-121755819D01*
X162679047Y-121755819D02*
X162774285Y-121803438D01*
X162774285Y-121803438D02*
X162821904Y-121851057D01*
X162821904Y-121851057D02*
X162869523Y-121946295D01*
X162869523Y-121946295D02*
X162869523Y-122041533D01*
X162869523Y-122041533D02*
X162821904Y-122184390D01*
X162821904Y-122184390D02*
X162250476Y-122755819D01*
X162250476Y-122755819D02*
X162869523Y-122755819D01*
X163774285Y-121755819D02*
X163298095Y-121755819D01*
X163298095Y-121755819D02*
X163250476Y-122232009D01*
X163250476Y-122232009D02*
X163298095Y-122184390D01*
X163298095Y-122184390D02*
X163393333Y-122136771D01*
X163393333Y-122136771D02*
X163631428Y-122136771D01*
X163631428Y-122136771D02*
X163726666Y-122184390D01*
X163726666Y-122184390D02*
X163774285Y-122232009D01*
X163774285Y-122232009D02*
X163821904Y-122327247D01*
X163821904Y-122327247D02*
X163821904Y-122565342D01*
X163821904Y-122565342D02*
X163774285Y-122660580D01*
X163774285Y-122660580D02*
X163726666Y-122708200D01*
X163726666Y-122708200D02*
X163631428Y-122755819D01*
X163631428Y-122755819D02*
X163393333Y-122755819D01*
X163393333Y-122755819D02*
X163298095Y-122708200D01*
X163298095Y-122708200D02*
X163250476Y-122660580D01*
X154551142Y-84020819D02*
X154217809Y-83544628D01*
X153979714Y-84020819D02*
X153979714Y-83020819D01*
X153979714Y-83020819D02*
X154360666Y-83020819D01*
X154360666Y-83020819D02*
X154455904Y-83068438D01*
X154455904Y-83068438D02*
X154503523Y-83116057D01*
X154503523Y-83116057D02*
X154551142Y-83211295D01*
X154551142Y-83211295D02*
X154551142Y-83354152D01*
X154551142Y-83354152D02*
X154503523Y-83449390D01*
X154503523Y-83449390D02*
X154455904Y-83497009D01*
X154455904Y-83497009D02*
X154360666Y-83544628D01*
X154360666Y-83544628D02*
X153979714Y-83544628D01*
X154884476Y-83020819D02*
X155503523Y-83020819D01*
X155503523Y-83020819D02*
X155170190Y-83401771D01*
X155170190Y-83401771D02*
X155313047Y-83401771D01*
X155313047Y-83401771D02*
X155408285Y-83449390D01*
X155408285Y-83449390D02*
X155455904Y-83497009D01*
X155455904Y-83497009D02*
X155503523Y-83592247D01*
X155503523Y-83592247D02*
X155503523Y-83830342D01*
X155503523Y-83830342D02*
X155455904Y-83925580D01*
X155455904Y-83925580D02*
X155408285Y-83973200D01*
X155408285Y-83973200D02*
X155313047Y-84020819D01*
X155313047Y-84020819D02*
X155027333Y-84020819D01*
X155027333Y-84020819D02*
X154932095Y-83973200D01*
X154932095Y-83973200D02*
X154884476Y-83925580D01*
X156122571Y-83020819D02*
X156217809Y-83020819D01*
X156217809Y-83020819D02*
X156313047Y-83068438D01*
X156313047Y-83068438D02*
X156360666Y-83116057D01*
X156360666Y-83116057D02*
X156408285Y-83211295D01*
X156408285Y-83211295D02*
X156455904Y-83401771D01*
X156455904Y-83401771D02*
X156455904Y-83639866D01*
X156455904Y-83639866D02*
X156408285Y-83830342D01*
X156408285Y-83830342D02*
X156360666Y-83925580D01*
X156360666Y-83925580D02*
X156313047Y-83973200D01*
X156313047Y-83973200D02*
X156217809Y-84020819D01*
X156217809Y-84020819D02*
X156122571Y-84020819D01*
X156122571Y-84020819D02*
X156027333Y-83973200D01*
X156027333Y-83973200D02*
X155979714Y-83925580D01*
X155979714Y-83925580D02*
X155932095Y-83830342D01*
X155932095Y-83830342D02*
X155884476Y-83639866D01*
X155884476Y-83639866D02*
X155884476Y-83401771D01*
X155884476Y-83401771D02*
X155932095Y-83211295D01*
X155932095Y-83211295D02*
X155979714Y-83116057D01*
X155979714Y-83116057D02*
X156027333Y-83068438D01*
X156027333Y-83068438D02*
X156122571Y-83020819D01*
X161028142Y-96498580D02*
X160980523Y-96546200D01*
X160980523Y-96546200D02*
X160837666Y-96593819D01*
X160837666Y-96593819D02*
X160742428Y-96593819D01*
X160742428Y-96593819D02*
X160599571Y-96546200D01*
X160599571Y-96546200D02*
X160504333Y-96450961D01*
X160504333Y-96450961D02*
X160456714Y-96355723D01*
X160456714Y-96355723D02*
X160409095Y-96165247D01*
X160409095Y-96165247D02*
X160409095Y-96022390D01*
X160409095Y-96022390D02*
X160456714Y-95831914D01*
X160456714Y-95831914D02*
X160504333Y-95736676D01*
X160504333Y-95736676D02*
X160599571Y-95641438D01*
X160599571Y-95641438D02*
X160742428Y-95593819D01*
X160742428Y-95593819D02*
X160837666Y-95593819D01*
X160837666Y-95593819D02*
X160980523Y-95641438D01*
X160980523Y-95641438D02*
X161028142Y-95689057D01*
X161409095Y-95689057D02*
X161456714Y-95641438D01*
X161456714Y-95641438D02*
X161551952Y-95593819D01*
X161551952Y-95593819D02*
X161790047Y-95593819D01*
X161790047Y-95593819D02*
X161885285Y-95641438D01*
X161885285Y-95641438D02*
X161932904Y-95689057D01*
X161932904Y-95689057D02*
X161980523Y-95784295D01*
X161980523Y-95784295D02*
X161980523Y-95879533D01*
X161980523Y-95879533D02*
X161932904Y-96022390D01*
X161932904Y-96022390D02*
X161361476Y-96593819D01*
X161361476Y-96593819D02*
X161980523Y-96593819D01*
X162599571Y-95593819D02*
X162694809Y-95593819D01*
X162694809Y-95593819D02*
X162790047Y-95641438D01*
X162790047Y-95641438D02*
X162837666Y-95689057D01*
X162837666Y-95689057D02*
X162885285Y-95784295D01*
X162885285Y-95784295D02*
X162932904Y-95974771D01*
X162932904Y-95974771D02*
X162932904Y-96212866D01*
X162932904Y-96212866D02*
X162885285Y-96403342D01*
X162885285Y-96403342D02*
X162837666Y-96498580D01*
X162837666Y-96498580D02*
X162790047Y-96546200D01*
X162790047Y-96546200D02*
X162694809Y-96593819D01*
X162694809Y-96593819D02*
X162599571Y-96593819D01*
X162599571Y-96593819D02*
X162504333Y-96546200D01*
X162504333Y-96546200D02*
X162456714Y-96498580D01*
X162456714Y-96498580D02*
X162409095Y-96403342D01*
X162409095Y-96403342D02*
X162361476Y-96212866D01*
X162361476Y-96212866D02*
X162361476Y-95974771D01*
X162361476Y-95974771D02*
X162409095Y-95784295D01*
X162409095Y-95784295D02*
X162456714Y-95689057D01*
X162456714Y-95689057D02*
X162504333Y-95641438D01*
X162504333Y-95641438D02*
X162599571Y-95593819D01*
X149471142Y-94434819D02*
X149137809Y-93958628D01*
X148899714Y-94434819D02*
X148899714Y-93434819D01*
X148899714Y-93434819D02*
X149280666Y-93434819D01*
X149280666Y-93434819D02*
X149375904Y-93482438D01*
X149375904Y-93482438D02*
X149423523Y-93530057D01*
X149423523Y-93530057D02*
X149471142Y-93625295D01*
X149471142Y-93625295D02*
X149471142Y-93768152D01*
X149471142Y-93768152D02*
X149423523Y-93863390D01*
X149423523Y-93863390D02*
X149375904Y-93911009D01*
X149375904Y-93911009D02*
X149280666Y-93958628D01*
X149280666Y-93958628D02*
X148899714Y-93958628D01*
X149852095Y-93530057D02*
X149899714Y-93482438D01*
X149899714Y-93482438D02*
X149994952Y-93434819D01*
X149994952Y-93434819D02*
X150233047Y-93434819D01*
X150233047Y-93434819D02*
X150328285Y-93482438D01*
X150328285Y-93482438D02*
X150375904Y-93530057D01*
X150375904Y-93530057D02*
X150423523Y-93625295D01*
X150423523Y-93625295D02*
X150423523Y-93720533D01*
X150423523Y-93720533D02*
X150375904Y-93863390D01*
X150375904Y-93863390D02*
X149804476Y-94434819D01*
X149804476Y-94434819D02*
X150423523Y-94434819D01*
X150899714Y-94434819D02*
X151090190Y-94434819D01*
X151090190Y-94434819D02*
X151185428Y-94387200D01*
X151185428Y-94387200D02*
X151233047Y-94339580D01*
X151233047Y-94339580D02*
X151328285Y-94196723D01*
X151328285Y-94196723D02*
X151375904Y-94006247D01*
X151375904Y-94006247D02*
X151375904Y-93625295D01*
X151375904Y-93625295D02*
X151328285Y-93530057D01*
X151328285Y-93530057D02*
X151280666Y-93482438D01*
X151280666Y-93482438D02*
X151185428Y-93434819D01*
X151185428Y-93434819D02*
X150994952Y-93434819D01*
X150994952Y-93434819D02*
X150899714Y-93482438D01*
X150899714Y-93482438D02*
X150852095Y-93530057D01*
X150852095Y-93530057D02*
X150804476Y-93625295D01*
X150804476Y-93625295D02*
X150804476Y-93863390D01*
X150804476Y-93863390D02*
X150852095Y-93958628D01*
X150852095Y-93958628D02*
X150899714Y-94006247D01*
X150899714Y-94006247D02*
X150994952Y-94053866D01*
X150994952Y-94053866D02*
X151185428Y-94053866D01*
X151185428Y-94053866D02*
X151280666Y-94006247D01*
X151280666Y-94006247D02*
X151328285Y-93958628D01*
X151328285Y-93958628D02*
X151375904Y-93863390D01*
X164734642Y-75035580D02*
X164687023Y-75083200D01*
X164687023Y-75083200D02*
X164544166Y-75130819D01*
X164544166Y-75130819D02*
X164448928Y-75130819D01*
X164448928Y-75130819D02*
X164306071Y-75083200D01*
X164306071Y-75083200D02*
X164210833Y-74987961D01*
X164210833Y-74987961D02*
X164163214Y-74892723D01*
X164163214Y-74892723D02*
X164115595Y-74702247D01*
X164115595Y-74702247D02*
X164115595Y-74559390D01*
X164115595Y-74559390D02*
X164163214Y-74368914D01*
X164163214Y-74368914D02*
X164210833Y-74273676D01*
X164210833Y-74273676D02*
X164306071Y-74178438D01*
X164306071Y-74178438D02*
X164448928Y-74130819D01*
X164448928Y-74130819D02*
X164544166Y-74130819D01*
X164544166Y-74130819D02*
X164687023Y-74178438D01*
X164687023Y-74178438D02*
X164734642Y-74226057D01*
X165687023Y-75130819D02*
X165115595Y-75130819D01*
X165401309Y-75130819D02*
X165401309Y-74130819D01*
X165401309Y-74130819D02*
X165306071Y-74273676D01*
X165306071Y-74273676D02*
X165210833Y-74368914D01*
X165210833Y-74368914D02*
X165115595Y-74416533D01*
X166067976Y-74226057D02*
X166115595Y-74178438D01*
X166115595Y-74178438D02*
X166210833Y-74130819D01*
X166210833Y-74130819D02*
X166448928Y-74130819D01*
X166448928Y-74130819D02*
X166544166Y-74178438D01*
X166544166Y-74178438D02*
X166591785Y-74226057D01*
X166591785Y-74226057D02*
X166639404Y-74321295D01*
X166639404Y-74321295D02*
X166639404Y-74416533D01*
X166639404Y-74416533D02*
X166591785Y-74559390D01*
X166591785Y-74559390D02*
X166020357Y-75130819D01*
X166020357Y-75130819D02*
X166639404Y-75130819D01*
X161163095Y-81369819D02*
X161163095Y-82179342D01*
X161163095Y-82179342D02*
X161210714Y-82274580D01*
X161210714Y-82274580D02*
X161258333Y-82322200D01*
X161258333Y-82322200D02*
X161353571Y-82369819D01*
X161353571Y-82369819D02*
X161544047Y-82369819D01*
X161544047Y-82369819D02*
X161639285Y-82322200D01*
X161639285Y-82322200D02*
X161686904Y-82274580D01*
X161686904Y-82274580D02*
X161734523Y-82179342D01*
X161734523Y-82179342D02*
X161734523Y-81369819D01*
X162115476Y-81369819D02*
X162734523Y-81369819D01*
X162734523Y-81369819D02*
X162401190Y-81750771D01*
X162401190Y-81750771D02*
X162544047Y-81750771D01*
X162544047Y-81750771D02*
X162639285Y-81798390D01*
X162639285Y-81798390D02*
X162686904Y-81846009D01*
X162686904Y-81846009D02*
X162734523Y-81941247D01*
X162734523Y-81941247D02*
X162734523Y-82179342D01*
X162734523Y-82179342D02*
X162686904Y-82274580D01*
X162686904Y-82274580D02*
X162639285Y-82322200D01*
X162639285Y-82322200D02*
X162544047Y-82369819D01*
X162544047Y-82369819D02*
X162258333Y-82369819D01*
X162258333Y-82369819D02*
X162163095Y-82322200D01*
X162163095Y-82322200D02*
X162115476Y-82274580D01*
X141470142Y-138884819D02*
X141136809Y-138408628D01*
X140898714Y-138884819D02*
X140898714Y-137884819D01*
X140898714Y-137884819D02*
X141279666Y-137884819D01*
X141279666Y-137884819D02*
X141374904Y-137932438D01*
X141374904Y-137932438D02*
X141422523Y-137980057D01*
X141422523Y-137980057D02*
X141470142Y-138075295D01*
X141470142Y-138075295D02*
X141470142Y-138218152D01*
X141470142Y-138218152D02*
X141422523Y-138313390D01*
X141422523Y-138313390D02*
X141374904Y-138361009D01*
X141374904Y-138361009D02*
X141279666Y-138408628D01*
X141279666Y-138408628D02*
X140898714Y-138408628D01*
X141851095Y-137980057D02*
X141898714Y-137932438D01*
X141898714Y-137932438D02*
X141993952Y-137884819D01*
X141993952Y-137884819D02*
X142232047Y-137884819D01*
X142232047Y-137884819D02*
X142327285Y-137932438D01*
X142327285Y-137932438D02*
X142374904Y-137980057D01*
X142374904Y-137980057D02*
X142422523Y-138075295D01*
X142422523Y-138075295D02*
X142422523Y-138170533D01*
X142422523Y-138170533D02*
X142374904Y-138313390D01*
X142374904Y-138313390D02*
X141803476Y-138884819D01*
X141803476Y-138884819D02*
X142422523Y-138884819D01*
X143279666Y-138218152D02*
X143279666Y-138884819D01*
X143041571Y-137837200D02*
X142803476Y-138551485D01*
X142803476Y-138551485D02*
X143422523Y-138551485D01*
X157853142Y-83671580D02*
X157805523Y-83719200D01*
X157805523Y-83719200D02*
X157662666Y-83766819D01*
X157662666Y-83766819D02*
X157567428Y-83766819D01*
X157567428Y-83766819D02*
X157424571Y-83719200D01*
X157424571Y-83719200D02*
X157329333Y-83623961D01*
X157329333Y-83623961D02*
X157281714Y-83528723D01*
X157281714Y-83528723D02*
X157234095Y-83338247D01*
X157234095Y-83338247D02*
X157234095Y-83195390D01*
X157234095Y-83195390D02*
X157281714Y-83004914D01*
X157281714Y-83004914D02*
X157329333Y-82909676D01*
X157329333Y-82909676D02*
X157424571Y-82814438D01*
X157424571Y-82814438D02*
X157567428Y-82766819D01*
X157567428Y-82766819D02*
X157662666Y-82766819D01*
X157662666Y-82766819D02*
X157805523Y-82814438D01*
X157805523Y-82814438D02*
X157853142Y-82862057D01*
X158805523Y-83766819D02*
X158234095Y-83766819D01*
X158519809Y-83766819D02*
X158519809Y-82766819D01*
X158519809Y-82766819D02*
X158424571Y-82909676D01*
X158424571Y-82909676D02*
X158329333Y-83004914D01*
X158329333Y-83004914D02*
X158234095Y-83052533D01*
X159138857Y-82766819D02*
X159757904Y-82766819D01*
X159757904Y-82766819D02*
X159424571Y-83147771D01*
X159424571Y-83147771D02*
X159567428Y-83147771D01*
X159567428Y-83147771D02*
X159662666Y-83195390D01*
X159662666Y-83195390D02*
X159710285Y-83243009D01*
X159710285Y-83243009D02*
X159757904Y-83338247D01*
X159757904Y-83338247D02*
X159757904Y-83576342D01*
X159757904Y-83576342D02*
X159710285Y-83671580D01*
X159710285Y-83671580D02*
X159662666Y-83719200D01*
X159662666Y-83719200D02*
X159567428Y-83766819D01*
X159567428Y-83766819D02*
X159281714Y-83766819D01*
X159281714Y-83766819D02*
X159186476Y-83719200D01*
X159186476Y-83719200D02*
X159138857Y-83671580D01*
X154551142Y-131391819D02*
X154217809Y-130915628D01*
X153979714Y-131391819D02*
X153979714Y-130391819D01*
X153979714Y-130391819D02*
X154360666Y-130391819D01*
X154360666Y-130391819D02*
X154455904Y-130439438D01*
X154455904Y-130439438D02*
X154503523Y-130487057D01*
X154503523Y-130487057D02*
X154551142Y-130582295D01*
X154551142Y-130582295D02*
X154551142Y-130725152D01*
X154551142Y-130725152D02*
X154503523Y-130820390D01*
X154503523Y-130820390D02*
X154455904Y-130868009D01*
X154455904Y-130868009D02*
X154360666Y-130915628D01*
X154360666Y-130915628D02*
X153979714Y-130915628D01*
X155503523Y-131391819D02*
X154932095Y-131391819D01*
X155217809Y-131391819D02*
X155217809Y-130391819D01*
X155217809Y-130391819D02*
X155122571Y-130534676D01*
X155122571Y-130534676D02*
X155027333Y-130629914D01*
X155027333Y-130629914D02*
X154932095Y-130677533D01*
X156360666Y-130391819D02*
X156170190Y-130391819D01*
X156170190Y-130391819D02*
X156074952Y-130439438D01*
X156074952Y-130439438D02*
X156027333Y-130487057D01*
X156027333Y-130487057D02*
X155932095Y-130629914D01*
X155932095Y-130629914D02*
X155884476Y-130820390D01*
X155884476Y-130820390D02*
X155884476Y-131201342D01*
X155884476Y-131201342D02*
X155932095Y-131296580D01*
X155932095Y-131296580D02*
X155979714Y-131344200D01*
X155979714Y-131344200D02*
X156074952Y-131391819D01*
X156074952Y-131391819D02*
X156265428Y-131391819D01*
X156265428Y-131391819D02*
X156360666Y-131344200D01*
X156360666Y-131344200D02*
X156408285Y-131296580D01*
X156408285Y-131296580D02*
X156455904Y-131201342D01*
X156455904Y-131201342D02*
X156455904Y-130963247D01*
X156455904Y-130963247D02*
X156408285Y-130868009D01*
X156408285Y-130868009D02*
X156360666Y-130820390D01*
X156360666Y-130820390D02*
X156265428Y-130772771D01*
X156265428Y-130772771D02*
X156074952Y-130772771D01*
X156074952Y-130772771D02*
X155979714Y-130820390D01*
X155979714Y-130820390D02*
X155932095Y-130868009D01*
X155932095Y-130868009D02*
X155884476Y-130963247D01*
X158964333Y-98973819D02*
X158631000Y-98497628D01*
X158392905Y-98973819D02*
X158392905Y-97973819D01*
X158392905Y-97973819D02*
X158773857Y-97973819D01*
X158773857Y-97973819D02*
X158869095Y-98021438D01*
X158869095Y-98021438D02*
X158916714Y-98069057D01*
X158916714Y-98069057D02*
X158964333Y-98164295D01*
X158964333Y-98164295D02*
X158964333Y-98307152D01*
X158964333Y-98307152D02*
X158916714Y-98402390D01*
X158916714Y-98402390D02*
X158869095Y-98450009D01*
X158869095Y-98450009D02*
X158773857Y-98497628D01*
X158773857Y-98497628D02*
X158392905Y-98497628D01*
X159821476Y-97973819D02*
X159631000Y-97973819D01*
X159631000Y-97973819D02*
X159535762Y-98021438D01*
X159535762Y-98021438D02*
X159488143Y-98069057D01*
X159488143Y-98069057D02*
X159392905Y-98211914D01*
X159392905Y-98211914D02*
X159345286Y-98402390D01*
X159345286Y-98402390D02*
X159345286Y-98783342D01*
X159345286Y-98783342D02*
X159392905Y-98878580D01*
X159392905Y-98878580D02*
X159440524Y-98926200D01*
X159440524Y-98926200D02*
X159535762Y-98973819D01*
X159535762Y-98973819D02*
X159726238Y-98973819D01*
X159726238Y-98973819D02*
X159821476Y-98926200D01*
X159821476Y-98926200D02*
X159869095Y-98878580D01*
X159869095Y-98878580D02*
X159916714Y-98783342D01*
X159916714Y-98783342D02*
X159916714Y-98545247D01*
X159916714Y-98545247D02*
X159869095Y-98450009D01*
X159869095Y-98450009D02*
X159821476Y-98402390D01*
X159821476Y-98402390D02*
X159726238Y-98354771D01*
X159726238Y-98354771D02*
X159535762Y-98354771D01*
X159535762Y-98354771D02*
X159440524Y-98402390D01*
X159440524Y-98402390D02*
X159392905Y-98450009D01*
X159392905Y-98450009D02*
X159345286Y-98545247D01*
X151757142Y-141805819D02*
X151423809Y-141329628D01*
X151185714Y-141805819D02*
X151185714Y-140805819D01*
X151185714Y-140805819D02*
X151566666Y-140805819D01*
X151566666Y-140805819D02*
X151661904Y-140853438D01*
X151661904Y-140853438D02*
X151709523Y-140901057D01*
X151709523Y-140901057D02*
X151757142Y-140996295D01*
X151757142Y-140996295D02*
X151757142Y-141139152D01*
X151757142Y-141139152D02*
X151709523Y-141234390D01*
X151709523Y-141234390D02*
X151661904Y-141282009D01*
X151661904Y-141282009D02*
X151566666Y-141329628D01*
X151566666Y-141329628D02*
X151185714Y-141329628D01*
X152709523Y-141805819D02*
X152138095Y-141805819D01*
X152423809Y-141805819D02*
X152423809Y-140805819D01*
X152423809Y-140805819D02*
X152328571Y-140948676D01*
X152328571Y-140948676D02*
X152233333Y-141043914D01*
X152233333Y-141043914D02*
X152138095Y-141091533D01*
X153090476Y-140901057D02*
X153138095Y-140853438D01*
X153138095Y-140853438D02*
X153233333Y-140805819D01*
X153233333Y-140805819D02*
X153471428Y-140805819D01*
X153471428Y-140805819D02*
X153566666Y-140853438D01*
X153566666Y-140853438D02*
X153614285Y-140901057D01*
X153614285Y-140901057D02*
X153661904Y-140996295D01*
X153661904Y-140996295D02*
X153661904Y-141091533D01*
X153661904Y-141091533D02*
X153614285Y-141234390D01*
X153614285Y-141234390D02*
X153042857Y-141805819D01*
X153042857Y-141805819D02*
X153661904Y-141805819D01*
D13*
G04 #@! TO.C,R8*
X166863500Y-83058724D02*
X166863500Y-82549276D01*
X167908500Y-83058724D02*
X167908500Y-82549276D01*
G04 #@! TO.C,C16*
X167642000Y-91801733D02*
X167642000Y-92094267D01*
X166622000Y-91801733D02*
X166622000Y-92094267D01*
G04 #@! TO.C,R9*
X141351724Y-78627500D02*
X140842276Y-78627500D01*
X141351724Y-77582500D02*
X140842276Y-77582500D01*
G04 #@! TO.C,TP1*
X167705000Y-72898000D02*
G75*
G03*
X167705000Y-72898000I-700000J0D01*
G01*
G04 #@! TO.C,C32*
X146030733Y-130554000D02*
X146323267Y-130554000D01*
X146030733Y-131574000D02*
X146323267Y-131574000D01*
G04 #@! TO.C,C24*
X162413733Y-126236000D02*
X162706267Y-126236000D01*
X162413733Y-127256000D02*
X162706267Y-127256000D01*
G04 #@! TO.C,R1*
X151369500Y-115316724D02*
X151369500Y-114807276D01*
X152414500Y-115316724D02*
X152414500Y-114807276D01*
G04 #@! TO.C,R2*
X149591500Y-115062724D02*
X149591500Y-114553276D01*
X150636500Y-115062724D02*
X150636500Y-114553276D01*
G04 #@! TO.C,C28*
X155340267Y-127256000D02*
X155047733Y-127256000D01*
X155340267Y-126236000D02*
X155047733Y-126236000D01*
G04 #@! TO.C,TP17*
X157672000Y-119888000D02*
G75*
G03*
X157672000Y-119888000I-700000J0D01*
G01*
G04 #@! TO.C,R19*
X139841500Y-124332276D02*
X139841500Y-124841724D01*
X138796500Y-124332276D02*
X138796500Y-124841724D01*
G04 #@! TO.C,C30*
X159023267Y-125732000D02*
X158730733Y-125732000D01*
X159023267Y-124712000D02*
X158730733Y-124712000D01*
G04 #@! TO.C,D2*
X150740000Y-142013000D02*
X150740000Y-143483000D01*
X150740000Y-143483000D02*
X153200000Y-143483000D01*
X153200000Y-142013000D02*
X150740000Y-142013000D01*
G04 #@! TO.C,R11*
X141351724Y-77103500D02*
X140842276Y-77103500D01*
X141351724Y-76058500D02*
X140842276Y-76058500D01*
G04 #@! TO.C,R17*
X154939276Y-124699500D02*
X155448724Y-124699500D01*
X154939276Y-125744500D02*
X155448724Y-125744500D01*
G04 #@! TO.C,TP4*
X157799000Y-84963000D02*
G75*
G03*
X157799000Y-84963000I-700000J0D01*
G01*
G04 #@! TO.C,U7*
X161250750Y-133863000D02*
X162390750Y-133863000D01*
X162390750Y-133633000D02*
X162390750Y-133863000D01*
X162390750Y-133633000D02*
X165110750Y-133633000D01*
X162390750Y-138353000D02*
X162390750Y-138123000D01*
X165110750Y-133633000D02*
X165110750Y-134943000D01*
X165110750Y-137043000D02*
X165110750Y-138353000D01*
X165110750Y-138353000D02*
X162390750Y-138353000D01*
G04 #@! TO.C,C33*
X145540000Y-138576267D02*
X145540000Y-138283733D01*
X146560000Y-138576267D02*
X146560000Y-138283733D01*
G04 #@! TO.C,FB2*
X140842276Y-73010500D02*
X141351724Y-73010500D01*
X140842276Y-74055500D02*
X141351724Y-74055500D01*
G04 #@! TO.C,C27*
X159023267Y-124208000D02*
X158730733Y-124208000D01*
X159023267Y-123188000D02*
X158730733Y-123188000D01*
G04 #@! TO.C,R15*
X165988276Y-123175500D02*
X166497724Y-123175500D01*
X165988276Y-124220500D02*
X166497724Y-124220500D01*
G04 #@! TO.C,C4*
X147974267Y-97157000D02*
X147681733Y-97157000D01*
X147974267Y-96137000D02*
X147681733Y-96137000D01*
G04 #@! TO.C,R14*
X162814724Y-124220500D02*
X162305276Y-124220500D01*
X162814724Y-123175500D02*
X162305276Y-123175500D01*
G04 #@! TO.C,C36*
X146560000Y-120477233D02*
X146560000Y-120769767D01*
X145540000Y-120477233D02*
X145540000Y-120769767D01*
G04 #@! TO.C,R4*
X152654724Y-132983500D02*
X152145276Y-132983500D01*
X152654724Y-131938500D02*
X152145276Y-131938500D01*
G04 #@! TO.C,R7*
X165099276Y-78471500D02*
X165608724Y-78471500D01*
X165099276Y-79516500D02*
X165608724Y-79516500D01*
G04 #@! TO.C,D3*
X152808000Y-91830000D02*
X154278000Y-91830000D01*
X154278000Y-91830000D02*
X154278000Y-89370000D01*
X152808000Y-89370000D02*
X152808000Y-91830000D01*
G04 #@! TO.C,R27*
X143876500Y-120878224D02*
X143876500Y-120368776D01*
X144921500Y-120878224D02*
X144921500Y-120368776D01*
G04 #@! TO.C,C22*
X160450750Y-137624733D02*
X160450750Y-137917267D01*
X159430750Y-137624733D02*
X159430750Y-137917267D01*
G04 #@! TO.C,C18*
X140950733Y-71499000D02*
X141243267Y-71499000D01*
X140950733Y-72519000D02*
X141243267Y-72519000D01*
D12*
G04 #@! TO.C,U6*
X158574000Y-90725000D02*
X159394000Y-90725000D01*
X158674000Y-93425000D02*
X158674000Y-93205000D01*
X158674000Y-93425000D02*
X159394000Y-93425000D01*
X161154000Y-90725000D02*
X161874000Y-90725000D01*
X161874000Y-90725000D02*
X161874000Y-90945000D01*
X161874000Y-93205000D02*
X161874000Y-93425000D01*
X161874000Y-93425000D02*
X161154000Y-93425000D01*
D13*
G04 #@! TO.C,TP16*
X164530000Y-117475000D02*
G75*
G03*
X164530000Y-117475000I-700000J0D01*
G01*
G04 #@! TO.C,C35*
X145540000Y-124606267D02*
X145540000Y-124313733D01*
X146560000Y-124606267D02*
X146560000Y-124313733D01*
G04 #@! TO.C,C3*
X144228051Y-110874198D02*
X144021198Y-111081051D01*
X143506802Y-110152949D02*
X143299949Y-110359802D01*
G04 #@! TO.C,C15*
X166350733Y-87374000D02*
X166643267Y-87374000D01*
X166350733Y-88394000D02*
X166643267Y-88394000D01*
G04 #@! TO.C,C17*
X140950733Y-69975000D02*
X141243267Y-69975000D01*
X140950733Y-70995000D02*
X141243267Y-70995000D01*
G04 #@! TO.C,R18*
X141492500Y-124332276D02*
X141492500Y-124841724D01*
X140447500Y-124332276D02*
X140447500Y-124841724D01*
G04 #@! TO.C,C31*
X146030733Y-127379000D02*
X146323267Y-127379000D01*
X146030733Y-128399000D02*
X146323267Y-128399000D01*
G04 #@! TO.C,C9*
X155809733Y-96772000D02*
X156102267Y-96772000D01*
X155809733Y-97792000D02*
X156102267Y-97792000D01*
G04 #@! TO.C,C7*
X145036000Y-114026733D02*
X145036000Y-114319267D01*
X144016000Y-114026733D02*
X144016000Y-114319267D01*
G04 #@! TO.C,R20*
X139460500Y-120649276D02*
X139460500Y-121158724D01*
X138415500Y-120649276D02*
X138415500Y-121158724D01*
G04 #@! TO.C,U8*
X139626000Y-132150000D02*
X139626000Y-131675000D01*
X140101000Y-126930000D02*
X139626000Y-126930000D01*
X140101000Y-132150000D02*
X139626000Y-132150000D01*
X143371000Y-126930000D02*
X143846000Y-126930000D01*
X143371000Y-132150000D02*
X143846000Y-132150000D01*
X143846000Y-126930000D02*
X143846000Y-127405000D01*
X143846000Y-132150000D02*
X143846000Y-131675000D01*
G04 #@! TO.C,R21*
X139714500Y-117093276D02*
X139714500Y-117602724D01*
X138669500Y-117093276D02*
X138669500Y-117602724D01*
G04 #@! TO.C,C8*
X158896267Y-111762000D02*
X158603733Y-111762000D01*
X158896267Y-110742000D02*
X158603733Y-110742000D01*
G04 #@! TO.C,C1*
X138178000Y-94849733D02*
X138178000Y-95142267D01*
X137158000Y-94849733D02*
X137158000Y-95142267D01*
G04 #@! TO.C,R25*
X143876500Y-134874724D02*
X143876500Y-134365276D01*
X144921500Y-134874724D02*
X144921500Y-134365276D01*
G04 #@! TO.C,R23*
X139431500Y-134747724D02*
X139431500Y-134238276D01*
X140476500Y-134747724D02*
X140476500Y-134238276D01*
G04 #@! TO.C,C34*
X146560000Y-134473733D02*
X146560000Y-134766267D01*
X145540000Y-134473733D02*
X145540000Y-134766267D01*
G04 #@! TO.C,C11*
X141349000Y-100095267D02*
X141349000Y-99802733D01*
X142369000Y-100095267D02*
X142369000Y-99802733D01*
G04 #@! TO.C,C6*
X147466267Y-115572000D02*
X147173733Y-115572000D01*
X147466267Y-114552000D02*
X147173733Y-114552000D01*
G04 #@! TO.C,D1*
X142757000Y-75792000D02*
X142757000Y-74322000D01*
X142757000Y-74322000D02*
X140297000Y-74322000D01*
X140297000Y-75792000D02*
X142757000Y-75792000D01*
G04 #@! TO.C,C29*
X155340267Y-124208000D02*
X155047733Y-124208000D01*
X155340267Y-123188000D02*
X155047733Y-123188000D01*
G04 #@! TO.C,C14*
X161161000Y-85744267D02*
X161161000Y-85451733D01*
X162181000Y-85744267D02*
X162181000Y-85451733D01*
G04 #@! TO.C,U1*
X140605000Y-97204000D02*
X140605000Y-97654000D01*
X142605000Y-97204000D02*
X140605000Y-97204000D01*
X139005000Y-95854000D02*
X138505000Y-95854000D01*
X139005000Y-95854000D02*
X139005000Y-95154000D01*
X144205000Y-95154000D02*
X144205000Y-95854000D01*
X140505000Y-93804000D02*
X142705000Y-93804000D01*
G04 #@! TO.C,R10*
X140842276Y-79106500D02*
X141351724Y-79106500D01*
X140842276Y-80151500D02*
X141351724Y-80151500D01*
G04 #@! TO.C,R5*
X152145276Y-133589500D02*
X152654724Y-133589500D01*
X152145276Y-134634500D02*
X152654724Y-134634500D01*
G04 #@! TO.C,C21*
X159430750Y-134361267D02*
X159430750Y-134068733D01*
X160450750Y-134361267D02*
X160450750Y-134068733D01*
G04 #@! TO.C,FB1*
X141209500Y-103632724D02*
X141209500Y-103123276D01*
X142254500Y-103632724D02*
X142254500Y-103123276D01*
G04 #@! TO.C,TP15*
X160720000Y-118999000D02*
G75*
G03*
X160720000Y-118999000I-700000J0D01*
G01*
G04 #@! TO.C,C23*
X158730733Y-126236000D02*
X159023267Y-126236000D01*
X158730733Y-127256000D02*
X159023267Y-127256000D01*
D12*
G04 #@! TO.C,U5*
X144454000Y-64301000D02*
X160454000Y-64301000D01*
X160454000Y-64301000D02*
X160454000Y-80301000D01*
X160454000Y-80301000D02*
X144454000Y-80301000D01*
X144454000Y-80301000D02*
X144454000Y-64301000D01*
X147454000Y-65301000D02*
G75*
G03*
X147454000Y-65301000I-500000J0D01*
G01*
D13*
G04 #@! TO.C,C5*
X143085051Y-109604198D02*
X142878198Y-109811051D01*
X142363802Y-108882949D02*
X142156949Y-109089802D01*
G04 #@! TO.C,U9*
X137280000Y-92376000D02*
X152280000Y-92376000D01*
X152280000Y-92376000D02*
X152280000Y-82376000D01*
X152280000Y-82376000D02*
X137280000Y-82376000D01*
X137280000Y-82376000D02*
X137280000Y-92376000D01*
X138680000Y-91176000D02*
X140680000Y-91176000D01*
X140680000Y-91176000D02*
X140680000Y-89176000D01*
X140680000Y-89176000D02*
X138680000Y-89176000D01*
X138680000Y-89176000D02*
X138680000Y-91176000D01*
X140430000Y-90176000D02*
G75*
G03*
X140430000Y-90176000I-750000J0D01*
G01*
G04 #@! TO.C,R3*
X153909500Y-115824724D02*
X153909500Y-115315276D01*
X154954500Y-115824724D02*
X154954500Y-115315276D01*
G04 #@! TO.C,U2*
X150495000Y-98056369D02*
X149823249Y-98728120D01*
X149823249Y-98728120D02*
X148875725Y-97780597D01*
X143268369Y-105283000D02*
X143940120Y-104611249D01*
X151166751Y-98728120D02*
X150495000Y-98056369D01*
X143940120Y-105954751D02*
X143268369Y-105283000D01*
X157049880Y-104611249D02*
X157721631Y-105283000D01*
X149823249Y-111837880D02*
X150495000Y-112509631D01*
X157721631Y-105283000D02*
X157049880Y-105954751D01*
X150495000Y-112509631D02*
X151166751Y-111837880D01*
G04 #@! TO.C,R13*
X162814724Y-128792500D02*
X162305276Y-128792500D01*
X162814724Y-127747500D02*
X162305276Y-127747500D01*
G04 #@! TO.C,C10*
X142873000Y-100095267D02*
X142873000Y-99802733D01*
X143893000Y-100095267D02*
X143893000Y-99802733D01*
D14*
G04 #@! TO.C,U4*
X163690300Y-90792300D02*
X163690300Y-91121909D01*
X163690300Y-92774091D02*
X163690300Y-93103700D01*
X163690300Y-93103700D02*
X164269972Y-93103700D01*
X164269972Y-90792300D02*
X163690300Y-90792300D01*
X165422028Y-93103700D02*
X166001700Y-93103700D01*
X166001700Y-90792300D02*
X165422028Y-90792300D01*
X166001700Y-91121909D02*
X166001700Y-90792300D01*
X166001700Y-93103700D02*
X166001700Y-92774091D01*
G36*
X164786437Y-90805000D02*
G01*
X164405437Y-90805000D01*
X164405437Y-90551000D01*
X164786437Y-90551000D01*
X164786437Y-90805000D01*
G37*
D13*
G04 #@! TO.C,C19*
X164975000Y-95484733D02*
X164975000Y-95777267D01*
X163955000Y-95484733D02*
X163955000Y-95777267D01*
G04 #@! TO.C,R26*
X144921500Y-124205276D02*
X144921500Y-124714724D01*
X143876500Y-124205276D02*
X143876500Y-124714724D01*
G04 #@! TO.C,C26*
X166389267Y-125732000D02*
X166096733Y-125732000D01*
X166389267Y-124712000D02*
X166096733Y-124712000D01*
G04 #@! TO.C,R22*
X139431500Y-138303724D02*
X139431500Y-137794276D01*
X140476500Y-138303724D02*
X140476500Y-137794276D01*
G04 #@! TO.C,R28*
X155560500Y-90297724D02*
X155560500Y-89788276D01*
X156605500Y-90297724D02*
X156605500Y-89788276D01*
G04 #@! TO.C,C25*
X162413733Y-124712000D02*
X162706267Y-124712000D01*
X162413733Y-125732000D02*
X162706267Y-125732000D01*
G04 #@! TO.C,R30*
X155448724Y-82564500D02*
X154939276Y-82564500D01*
X155448724Y-81519500D02*
X154939276Y-81519500D01*
G04 #@! TO.C,C20*
X161524733Y-94105000D02*
X161817267Y-94105000D01*
X161524733Y-95125000D02*
X161817267Y-95125000D01*
G04 #@! TO.C,R29*
X146557276Y-93457500D02*
X147066724Y-93457500D01*
X146557276Y-94502500D02*
X147066724Y-94502500D01*
G04 #@! TO.C,C12*
X165373267Y-76583000D02*
X165080733Y-76583000D01*
X165373267Y-75563000D02*
X165080733Y-75563000D01*
G04 #@! TO.C,U3*
X164159000Y-86684000D02*
X163109000Y-86684000D01*
X165279000Y-81464000D02*
X166329000Y-81464000D01*
X165279000Y-86684000D02*
X166329000Y-86684000D01*
G04 #@! TO.C,R24*
X144921500Y-138175276D02*
X144921500Y-138684724D01*
X143876500Y-138175276D02*
X143876500Y-138684724D01*
G04 #@! TO.C,C13*
X158494000Y-85744267D02*
X158494000Y-85451733D01*
X159514000Y-85744267D02*
X159514000Y-85451733D01*
G04 #@! TO.C,R16*
X154939276Y-127747500D02*
X155448724Y-127747500D01*
X154939276Y-128792500D02*
X155448724Y-128792500D01*
G04 #@! TO.C,R6*
X158876276Y-99426500D02*
X159385724Y-99426500D01*
X158876276Y-100471500D02*
X159385724Y-100471500D01*
G04 #@! TO.C,R12*
X152145276Y-143876500D02*
X152654724Y-143876500D01*
X152145276Y-144921500D02*
X152654724Y-144921500D01*
G04 #@! TD*
%LPC*%
D15*
G04 #@! TO.C,H4*
X165100000Y-142875000D03*
G04 #@! TD*
D16*
G04 #@! TO.C,R8*
X167386000Y-83716500D03*
X167386000Y-81891500D03*
G04 #@! TD*
D17*
G04 #@! TO.C,C16*
X167132000Y-91085500D03*
X167132000Y-92810500D03*
G04 #@! TD*
D18*
G04 #@! TO.C,R9*
X142009500Y-78105000D03*
X140184500Y-78105000D03*
G04 #@! TD*
D19*
G04 #@! TO.C,TP1*
X167005000Y-72898000D03*
G04 #@! TD*
D20*
G04 #@! TO.C,C32*
X145314500Y-131064000D03*
X147039500Y-131064000D03*
G04 #@! TD*
G04 #@! TO.C,C24*
X161697500Y-126746000D03*
X163422500Y-126746000D03*
G04 #@! TD*
D16*
G04 #@! TO.C,R1*
X151892000Y-115974500D03*
X151892000Y-114149500D03*
G04 #@! TD*
G04 #@! TO.C,R2*
X150114000Y-115720500D03*
X150114000Y-113895500D03*
G04 #@! TD*
D21*
G04 #@! TO.C,C28*
X156056500Y-126746000D03*
X154331500Y-126746000D03*
G04 #@! TD*
D19*
G04 #@! TO.C,TP17*
X156972000Y-119888000D03*
G04 #@! TD*
D22*
G04 #@! TO.C,R19*
X139319000Y-123674500D03*
X139319000Y-125499500D03*
G04 #@! TD*
D21*
G04 #@! TO.C,C30*
X159739500Y-125222000D03*
X158014500Y-125222000D03*
G04 #@! TD*
D23*
G04 #@! TO.C,D2*
X151525000Y-142748000D03*
X153275000Y-142748000D03*
G04 #@! TD*
D18*
G04 #@! TO.C,R11*
X142009500Y-76581000D03*
X140184500Y-76581000D03*
G04 #@! TD*
D24*
G04 #@! TO.C,R17*
X154281500Y-125222000D03*
X156106500Y-125222000D03*
G04 #@! TD*
D19*
G04 #@! TO.C,TP4*
X157099000Y-84963000D03*
G04 #@! TD*
D25*
G04 #@! TO.C,U7*
X161800750Y-134493000D03*
D26*
X161888250Y-135993000D03*
D25*
X161800750Y-137493000D03*
G04 #@! TD*
D15*
G04 #@! TO.C,H1*
X139700000Y-66675000D03*
G04 #@! TD*
D27*
G04 #@! TO.C,C33*
X146050000Y-139292500D03*
X146050000Y-137567500D03*
G04 #@! TD*
D15*
G04 #@! TO.C,H3*
X139700000Y-142875000D03*
G04 #@! TD*
D24*
G04 #@! TO.C,FB2*
X140184500Y-73533000D03*
X142009500Y-73533000D03*
G04 #@! TD*
D21*
G04 #@! TO.C,C27*
X159739500Y-123698000D03*
X158014500Y-123698000D03*
G04 #@! TD*
D24*
G04 #@! TO.C,R15*
X165330500Y-123698000D03*
X167155500Y-123698000D03*
G04 #@! TD*
D21*
G04 #@! TO.C,C4*
X148690500Y-96647000D03*
X146965500Y-96647000D03*
G04 #@! TD*
D18*
G04 #@! TO.C,R14*
X163472500Y-123698000D03*
X161647500Y-123698000D03*
G04 #@! TD*
D17*
G04 #@! TO.C,C36*
X146050000Y-119761000D03*
X146050000Y-121486000D03*
G04 #@! TD*
D18*
G04 #@! TO.C,R4*
X153312500Y-132461000D03*
X151487500Y-132461000D03*
G04 #@! TD*
D28*
G04 #@! TO.C,H5*
X137922000Y-83185000D03*
G04 #@! TD*
D24*
G04 #@! TO.C,R7*
X164441500Y-78994000D03*
X166266500Y-78994000D03*
G04 #@! TD*
D29*
G04 #@! TO.C,D3*
X153543000Y-91045000D03*
X153543000Y-89295000D03*
G04 #@! TD*
D16*
G04 #@! TO.C,R27*
X144399000Y-121536000D03*
X144399000Y-119711000D03*
G04 #@! TD*
D17*
G04 #@! TO.C,C22*
X159940750Y-136908500D03*
X159940750Y-138633500D03*
G04 #@! TD*
D20*
G04 #@! TO.C,C18*
X140234500Y-72009000D03*
X141959500Y-72009000D03*
G04 #@! TD*
D30*
G04 #@! TO.C,U6*
X159011500Y-91325000D03*
X159011500Y-91825000D03*
X159011500Y-92325000D03*
X159011500Y-92825000D03*
D31*
X159774000Y-93087500D03*
X160274000Y-93087500D03*
X160774000Y-93087500D03*
D30*
X161536500Y-92825000D03*
X161536500Y-92325000D03*
X161536500Y-91825000D03*
X161536500Y-91325000D03*
D31*
X160774000Y-91062500D03*
X160274000Y-91062500D03*
X159774000Y-91062500D03*
G04 #@! TD*
D19*
G04 #@! TO.C,TP16*
X163830000Y-117475000D03*
G04 #@! TD*
D27*
G04 #@! TO.C,C35*
X146050000Y-125322500D03*
X146050000Y-123597500D03*
G04 #@! TD*
D32*
G04 #@! TO.C,C3*
X144373880Y-110007120D03*
X143154120Y-111226880D03*
G04 #@! TD*
D20*
G04 #@! TO.C,C15*
X165634500Y-87884000D03*
X167359500Y-87884000D03*
G04 #@! TD*
G04 #@! TO.C,C17*
X140234500Y-70485000D03*
X141959500Y-70485000D03*
G04 #@! TD*
D15*
G04 #@! TO.C,H2*
X165100000Y-66675000D03*
G04 #@! TD*
D22*
G04 #@! TO.C,R18*
X140970000Y-123674500D03*
X140970000Y-125499500D03*
G04 #@! TD*
D20*
G04 #@! TO.C,C31*
X145314500Y-127889000D03*
X147039500Y-127889000D03*
G04 #@! TD*
G04 #@! TO.C,C9*
X155093500Y-97282000D03*
X156818500Y-97282000D03*
G04 #@! TD*
D17*
G04 #@! TO.C,C7*
X144526000Y-113310500D03*
X144526000Y-115035500D03*
G04 #@! TD*
D22*
G04 #@! TO.C,R20*
X138938000Y-119991500D03*
X138938000Y-121816500D03*
G04 #@! TD*
D33*
G04 #@! TO.C,U8*
X139786000Y-127790000D03*
X139786000Y-128290000D03*
X139786000Y-128790000D03*
X139786000Y-129290000D03*
X139786000Y-129790000D03*
X139786000Y-130290000D03*
X139786000Y-130790000D03*
X139786000Y-131290000D03*
D34*
X140486000Y-131990000D03*
X140986000Y-131990000D03*
X141486000Y-131990000D03*
X141986000Y-131990000D03*
X142486000Y-131990000D03*
X142986000Y-131990000D03*
D33*
X143686000Y-131290000D03*
X143686000Y-130790000D03*
X143686000Y-130290000D03*
X143686000Y-129790000D03*
X143686000Y-129290000D03*
X143686000Y-128790000D03*
X143686000Y-128290000D03*
X143686000Y-127790000D03*
D34*
X142986000Y-127090000D03*
X142486000Y-127090000D03*
X141986000Y-127090000D03*
X141486000Y-127090000D03*
X140986000Y-127090000D03*
X140486000Y-127090000D03*
D35*
X141736000Y-129540000D03*
G04 #@! TD*
D28*
G04 #@! TO.C,H7*
X163449000Y-71501000D03*
G04 #@! TD*
D22*
G04 #@! TO.C,R21*
X139192000Y-116435500D03*
X139192000Y-118260500D03*
G04 #@! TD*
D21*
G04 #@! TO.C,C8*
X159612500Y-111252000D03*
X157887500Y-111252000D03*
G04 #@! TD*
D17*
G04 #@! TO.C,C1*
X137668000Y-94133500D03*
X137668000Y-95858500D03*
G04 #@! TD*
D16*
G04 #@! TO.C,R25*
X144399000Y-135532500D03*
X144399000Y-133707500D03*
G04 #@! TD*
G04 #@! TO.C,R23*
X139954000Y-135405500D03*
X139954000Y-133580500D03*
G04 #@! TD*
D17*
G04 #@! TO.C,C34*
X146050000Y-133757500D03*
X146050000Y-135482500D03*
G04 #@! TD*
D27*
G04 #@! TO.C,C11*
X141859000Y-100811500D03*
X141859000Y-99086500D03*
G04 #@! TD*
D21*
G04 #@! TO.C,C6*
X148182500Y-115062000D03*
X146457500Y-115062000D03*
G04 #@! TD*
D36*
G04 #@! TO.C,D1*
X141972000Y-75057000D03*
X140222000Y-75057000D03*
G04 #@! TD*
D21*
G04 #@! TO.C,C29*
X156056500Y-123698000D03*
X154331500Y-123698000D03*
G04 #@! TD*
D27*
G04 #@! TO.C,C14*
X161671000Y-86460500D03*
X161671000Y-84735500D03*
G04 #@! TD*
D37*
G04 #@! TO.C,U1*
X139555000Y-96754000D03*
X143655000Y-96754000D03*
X143655000Y-94254000D03*
X139555000Y-94254000D03*
G04 #@! TD*
D24*
G04 #@! TO.C,R10*
X140184500Y-79629000D03*
X142009500Y-79629000D03*
G04 #@! TD*
G04 #@! TO.C,R5*
X151487500Y-134112000D03*
X153312500Y-134112000D03*
G04 #@! TD*
D27*
G04 #@! TO.C,C21*
X159940750Y-135077500D03*
X159940750Y-133352500D03*
G04 #@! TD*
D16*
G04 #@! TO.C,FB1*
X141732000Y-104290500D03*
X141732000Y-102465500D03*
G04 #@! TD*
D19*
G04 #@! TO.C,TP15*
X160020000Y-118999000D03*
G04 #@! TD*
D20*
G04 #@! TO.C,C23*
X158014500Y-126746000D03*
X159739500Y-126746000D03*
G04 #@! TD*
D38*
G04 #@! TO.C,U5*
X152654000Y-71501000D03*
D39*
X144454000Y-65551000D03*
X144454000Y-67051000D03*
X144454000Y-68551000D03*
X144454000Y-70051000D03*
X144454000Y-71551000D03*
X144454000Y-73051000D03*
X144454000Y-74551000D03*
X144454000Y-76051000D03*
X144454000Y-77551000D03*
X144454000Y-79051000D03*
X160454000Y-79051000D03*
X160454000Y-77551000D03*
X160454000Y-76051000D03*
X160454000Y-74551000D03*
X160454000Y-73051000D03*
X160454000Y-71551000D03*
X160454000Y-70051000D03*
X160454000Y-68551000D03*
X160454000Y-67051000D03*
X160454000Y-65551000D03*
G04 #@! TD*
D32*
G04 #@! TO.C,C5*
X143230880Y-108737120D03*
X142011120Y-109956880D03*
G04 #@! TD*
D40*
G04 #@! TO.C,U9*
X146780000Y-92376000D03*
X147880000Y-92376000D03*
X148980000Y-92376000D03*
X150080000Y-92376000D03*
X151180000Y-92376000D03*
X151180000Y-82376000D03*
X150080000Y-82376000D03*
X148980000Y-82376000D03*
X147880000Y-82376000D03*
X146780000Y-82376000D03*
G04 #@! TD*
D16*
G04 #@! TO.C,R3*
X154432000Y-116482500D03*
X154432000Y-114657500D03*
G04 #@! TD*
D41*
G04 #@! TO.C,U2*
X149133819Y-98618519D03*
X148780266Y-98972072D03*
X148426713Y-99325625D03*
X148073159Y-99679179D03*
X147719606Y-100032732D03*
X147366052Y-100386286D03*
X147012499Y-100739839D03*
X146658946Y-101093392D03*
X146305392Y-101446946D03*
X145951839Y-101800499D03*
X145598286Y-102154052D03*
X145244732Y-102507606D03*
X144891179Y-102861159D03*
X144537625Y-103214713D03*
X144184072Y-103568266D03*
X143830519Y-103921819D03*
D42*
X143830519Y-106644181D03*
X144184072Y-106997734D03*
X144537625Y-107351287D03*
X144891179Y-107704841D03*
X145244732Y-108058394D03*
X145598286Y-108411948D03*
X145951839Y-108765501D03*
X146305392Y-109119054D03*
X146658946Y-109472608D03*
X147012499Y-109826161D03*
X147366052Y-110179714D03*
X147719606Y-110533268D03*
X148073159Y-110886821D03*
X148426713Y-111240375D03*
X148780266Y-111593928D03*
X149133819Y-111947481D03*
D41*
X151856181Y-111947481D03*
X152209734Y-111593928D03*
X152563287Y-111240375D03*
X152916841Y-110886821D03*
X153270394Y-110533268D03*
X153623948Y-110179714D03*
X153977501Y-109826161D03*
X154331054Y-109472608D03*
X154684608Y-109119054D03*
X155038161Y-108765501D03*
X155391714Y-108411948D03*
X155745268Y-108058394D03*
X156098821Y-107704841D03*
X156452375Y-107351287D03*
X156805928Y-106997734D03*
X157159481Y-106644181D03*
D42*
X157159481Y-103921819D03*
X156805928Y-103568266D03*
X156452375Y-103214713D03*
X156098821Y-102861159D03*
X155745268Y-102507606D03*
X155391714Y-102154052D03*
X155038161Y-101800499D03*
X154684608Y-101446946D03*
X154331054Y-101093392D03*
X153977501Y-100739839D03*
X153623948Y-100386286D03*
X153270394Y-100032732D03*
X152916841Y-99679179D03*
X152563287Y-99325625D03*
X152209734Y-98972072D03*
X151856181Y-98618519D03*
G04 #@! TD*
D28*
G04 #@! TO.C,H6*
X137541000Y-136017000D03*
G04 #@! TD*
D18*
G04 #@! TO.C,R13*
X163472500Y-128270000D03*
X161647500Y-128270000D03*
G04 #@! TD*
D27*
G04 #@! TO.C,C10*
X143383000Y-100811500D03*
X143383000Y-99086500D03*
G04 #@! TD*
D43*
G04 #@! TO.C,U4*
X165096063Y-91198700D03*
X164595937Y-91198700D03*
D44*
X164096700Y-91447874D03*
X164096700Y-91948000D03*
X164096700Y-92448126D03*
D43*
X164595937Y-92697300D03*
X165096063Y-92697300D03*
D44*
X165595300Y-92448126D03*
X165595300Y-91948000D03*
X165595300Y-91447874D03*
G04 #@! TD*
D17*
G04 #@! TO.C,C19*
X164465000Y-94768500D03*
X164465000Y-96493500D03*
G04 #@! TD*
D22*
G04 #@! TO.C,R26*
X144399000Y-123547500D03*
X144399000Y-125372500D03*
G04 #@! TD*
D21*
G04 #@! TO.C,C26*
X167105500Y-125222000D03*
X165380500Y-125222000D03*
G04 #@! TD*
D16*
G04 #@! TO.C,R22*
X139954000Y-138961500D03*
X139954000Y-137136500D03*
G04 #@! TD*
G04 #@! TO.C,R28*
X156083000Y-90955500D03*
X156083000Y-89130500D03*
G04 #@! TD*
D20*
G04 #@! TO.C,C25*
X161697500Y-125222000D03*
X163422500Y-125222000D03*
G04 #@! TD*
D18*
G04 #@! TO.C,R30*
X156106500Y-82042000D03*
X154281500Y-82042000D03*
G04 #@! TD*
D20*
G04 #@! TO.C,C20*
X160808500Y-94615000D03*
X162533500Y-94615000D03*
G04 #@! TD*
D24*
G04 #@! TO.C,R29*
X145899500Y-93980000D03*
X147724500Y-93980000D03*
G04 #@! TD*
D21*
G04 #@! TO.C,C12*
X166089500Y-76073000D03*
X164364500Y-76073000D03*
G04 #@! TD*
D45*
G04 #@! TO.C,U3*
X163719000Y-82074000D03*
X163719000Y-82874000D03*
X163719000Y-83674000D03*
X163719000Y-84474000D03*
X163719000Y-85274000D03*
X163719000Y-86074000D03*
D46*
X164719000Y-86074000D03*
D45*
X165719000Y-86074000D03*
X165719000Y-85274000D03*
X165719000Y-84474000D03*
X165719000Y-83674000D03*
X165719000Y-82874000D03*
X165719000Y-82074000D03*
D46*
X164719000Y-82074000D03*
G04 #@! TD*
D22*
G04 #@! TO.C,R24*
X144399000Y-137517500D03*
X144399000Y-139342500D03*
G04 #@! TD*
D27*
G04 #@! TO.C,C13*
X159004000Y-86460500D03*
X159004000Y-84735500D03*
G04 #@! TD*
D24*
G04 #@! TO.C,R16*
X154281500Y-128270000D03*
X156106500Y-128270000D03*
G04 #@! TD*
G04 #@! TO.C,R6*
X158218500Y-99949000D03*
X160043500Y-99949000D03*
G04 #@! TD*
G04 #@! TO.C,R12*
X151487500Y-144399000D03*
X153312500Y-144399000D03*
G04 #@! TD*
D47*
G04 #@! TO.C,J2*
X148590000Y-143540000D03*
D48*
X148590000Y-140040000D03*
X148590000Y-136540000D03*
X148590000Y-133040000D03*
X148590000Y-129540000D03*
X148590000Y-126040000D03*
X148590000Y-122540000D03*
X148590000Y-119040000D03*
G04 #@! TD*
D49*
G04 #@! TO.C,J3*
X138811000Y-102997000D03*
D50*
X138811000Y-105537000D03*
X138811000Y-108077000D03*
X138811000Y-110617000D03*
G04 #@! TD*
D49*
G04 #@! TO.C,J4*
X166243000Y-112014000D03*
D50*
X166243000Y-109474000D03*
X166243000Y-106934000D03*
X166243000Y-104394000D03*
X166243000Y-101854000D03*
X166243000Y-99314000D03*
G04 #@! TD*
D47*
G04 #@! TO.C,J1*
X156210000Y-133040000D03*
D48*
X156210000Y-136540000D03*
X156210000Y-140040000D03*
X156210000Y-143540000D03*
G04 #@! TD*
%LPD*%
M02*
