M48
; DRILL file {KiCad 7.0.8} date Mon Nov 27 14:39:49 2023
; FORMAT={-:-/ absolute / inch / decimal}
; #@! TF.CreationDate,2023-11-27T14:39:49-06:00
; #@! TF.GenerationSoftware,Kicad,Pcbnew,7.0.8
; #@! TF.FileFunction,Plated,1,4,PTH
FMAT,2
INCH
; #@! TA.AperFunction,Plated,PTH,ComponentDrill
T1C0.0118
; #@! TA.AperFunction,Plated,PTH,ViaDrill
T2C0.0157
; #@! TA.AperFunction,Plated,PTH,ComponentDrill
T3C0.0394
; #@! TA.AperFunction,Plated,PTH,ComponentDrill
T4C0.0472
%
G90
G05
T1
X5.5447Y-5.0449
X5.5447Y-5.0724
X5.5447Y-5.1
X5.5447Y-5.1276
X5.5447Y-5.1551
X5.5802Y-5.0449
X5.5802Y-5.0724
X5.5802Y-5.1
X5.5802Y-5.1276
X5.5802Y-5.1551
X5.6156Y-5.0449
X5.6156Y-5.0724
X5.6156Y-5.1
X5.6156Y-5.1276
X5.6156Y-5.1551
T2
X5.4Y-4.605
X5.405Y-5.075
X5.415Y-3.69
X5.43Y-3.865
X5.4402Y-4.6052
X5.4443Y-5.101
X5.445Y-5.47
X5.46Y-2.925
X5.47Y-4.415
X5.475Y-5.2963
X5.5062Y-4.4305
X5.52Y-4.5123
X5.53Y-3.19
X5.5777Y-3.1923
X5.58Y-4.175
X5.58Y-4.42
X5.625Y-4.025
X5.645Y-4.42
X5.645Y-4.53
X5.685Y-4.825
X5.685Y-5.375
X5.7Y-5.1
X5.705Y-3.9618
X5.715Y-3.89
X5.73Y-3.805
X5.73Y-5.08
X5.73Y-5.115
X5.74Y-3.755
X5.75Y-3.24
X5.76Y-4.38
X5.7688Y-4.13
X5.77Y-2.995
X5.8015Y-4.0382
X5.815Y-3.755
X5.815Y-4.585
X5.845Y-3.33
X5.845Y-4.105
X5.85Y-4.01
X5.875Y-4.135
X5.8779Y-3.97
X5.89Y-3.33
X5.9Y-4.345
X5.9035Y-3.75
X5.9035Y-4.105
X5.9042Y-4.2495
X5.9292Y-4.2933
X5.93Y-3.705
X5.935Y-3.33
X5.9364Y-4.135
X5.9403Y-4.2118
X5.9517Y-4.3372
X5.955Y-4.675
X5.955Y-3.57
X5.955Y-4.62
X5.965Y-4.105
X5.9668Y-4.2818
X5.97Y-3.725
X6.0Y-5.725
X6.005Y-4.52
X6.0242Y-4.2852
X6.03Y-4.82
X6.0335Y-3.675
X6.0375Y-3.7525
X6.0588Y-3.71
X6.0695Y-4.1645
X6.07Y-3.375
X6.0915Y-4.2
X6.1197Y-4.1253
X6.12Y-4.82
X6.12Y-5.12
X6.125Y-4.58
X6.13Y-3.225
X6.13Y-3.31
X6.1312Y-3.4253
X6.14Y-3.7331
X6.14Y-3.63
X6.14Y-3.57
X6.14Y-3.795
X6.1485Y-4.1575
X6.1504Y-4.3304
X6.165Y-4.47
X6.17Y-4.795
X6.175Y-4.675
X6.175Y-5.105
X6.18Y-3.9415
X6.185Y-3.4985
X6.195Y-4.52
X6.21Y-2.845
X6.215Y-3.755
X6.215Y-4.82
X6.2154Y-4.63
X6.225Y-4.47
X6.225Y-5.44
X6.24Y-4.105
X6.245Y-4.155
X6.2523Y-3.7873
X6.255Y-4.795
X6.2587Y-4.675
X6.2648Y-4.0552
X6.275Y-3.905
X6.285Y-3.53
X6.29Y-4.82
X6.295Y-5.1
X6.305Y-4.63
X6.325Y-3.83
X6.3315Y-3.4985
X6.3315Y-3.5756
X6.335Y-4.8
X6.3454Y-4.525
X6.36Y-3.79
X6.3887Y-4.605
X6.39Y-4.8
X6.4085Y-3.5525
X6.4085Y-3.675
X6.419Y-3.217
X6.432Y-4.685
X6.44Y-3.72
X6.44Y-3.9415
X6.4401Y-5.2641
X6.4401Y-5.2991
X6.4401Y-5.4091
X6.4401Y-5.4441
X6.45Y-4.815
X6.4751Y-5.2641
X6.4751Y-5.2991
X6.4751Y-5.4091
X6.4751Y-5.4441
X6.49Y-3.72
X6.495Y-5.05
X6.5Y-4.99
X6.51Y-4.795
X6.5101Y-5.2641
X6.5101Y-5.2991
X6.5101Y-5.4091
X6.5101Y-5.4441
X6.5185Y-3.6715
X6.519Y-3.449
X6.5235Y-3.5365
X6.5451Y-5.2641
X6.5451Y-5.2991
X6.5451Y-5.3341
X6.5451Y-5.3741
X6.5451Y-5.4091
X6.5451Y-5.4441
X6.559Y-3.214
X6.559Y-3.409
X6.5801Y-5.2641
X6.5801Y-5.2991
X6.5801Y-5.3341
X6.5801Y-5.3741
X6.5801Y-5.4091
X6.5801Y-5.4441
T3
X5.465Y-3.9404
X5.465Y-4.0404
X5.465Y-4.1404
X5.465Y-4.2404
X6.545Y-3.91
X6.545Y-4.01
X6.545Y-4.11
X6.545Y-4.21
X6.545Y-4.31
X6.545Y-4.41
T4
X5.85Y-4.6866
X5.85Y-4.8244
X5.85Y-4.9622
X5.85Y-5.1
X5.85Y-5.2378
X5.85Y-5.3756
X5.85Y-5.5134
X5.85Y-5.6512
X6.15Y-5.2378
X6.15Y-5.3756
X6.15Y-5.5134
X6.15Y-5.6512
T0
M30
