G04 #@! TF.GenerationSoftware,KiCad,Pcbnew,7.0.8*
G04 #@! TF.CreationDate,2023-11-27T14:39:53-06:00*
G04 #@! TF.ProjectId,Flight_Board,466c6967-6874-45f4-926f-6172642e6b69,rev?*
G04 #@! TF.SameCoordinates,Original*
G04 #@! TF.FileFunction,Copper,L4,Bot*
G04 #@! TF.FilePolarity,Positive*
%FSLAX46Y46*%
G04 Gerber Fmt 4.6, Leading zero omitted, Abs format (unit mm)*
G04 Created by KiCad (PCBNEW 7.0.8) date 2023-11-27 14:39:53*
%MOMM*%
%LPD*%
G01*
G04 APERTURE LIST*
G04 #@! TA.AperFunction,ComponentPad*
%ADD10C,0.600000*%
G04 #@! TD*
G04 #@! TA.AperFunction,SMDPad,CuDef*
%ADD11R,2.550000X3.550000*%
G04 #@! TD*
G04 #@! TA.AperFunction,ComponentPad*
%ADD12R,1.700000X1.700000*%
G04 #@! TD*
G04 #@! TA.AperFunction,ComponentPad*
%ADD13O,1.700000X1.700000*%
G04 #@! TD*
G04 #@! TA.AperFunction,ComponentPad*
%ADD14R,2.400000X2.400000*%
G04 #@! TD*
G04 #@! TA.AperFunction,ComponentPad*
%ADD15C,2.400000*%
G04 #@! TD*
G04 #@! TA.AperFunction,SMDPad,CuDef*
%ADD16R,0.800000X1.200000*%
G04 #@! TD*
G04 #@! TA.AperFunction,SMDPad,CuDef*
%ADD17R,1.500000X2.000000*%
G04 #@! TD*
G04 #@! TA.AperFunction,ViaPad*
%ADD18C,0.800000*%
G04 #@! TD*
G04 #@! TA.AperFunction,Conductor*
%ADD19C,0.250000*%
G04 #@! TD*
G04 APERTURE END LIST*
D10*
G04 #@! TO.P,U8,29,PAD*
G04 #@! TO.N,GND*
X140836000Y-128140000D03*
X140836000Y-128840000D03*
X140836000Y-129540000D03*
X140836000Y-130240000D03*
X140836000Y-130940000D03*
X141736000Y-128140000D03*
X141736000Y-128840000D03*
X141736000Y-129540000D03*
D11*
X141736000Y-129540000D03*
D10*
X141736000Y-130240000D03*
X141736000Y-130940000D03*
X142636000Y-128140000D03*
X142636000Y-128840000D03*
X142636000Y-129540000D03*
X142636000Y-130240000D03*
X142636000Y-130940000D03*
G04 #@! TD*
D12*
G04 #@! TO.P,J3,1,Pin_1*
G04 #@! TO.N,+3.3V*
X138811000Y-100086000D03*
D13*
G04 #@! TO.P,J3,2,Pin_2*
G04 #@! TO.N,/Microcontroller/UART_TX*
X138811000Y-102626000D03*
G04 #@! TO.P,J3,3,Pin_3*
G04 #@! TO.N,/Microcontroller/UART_RX*
X138811000Y-105166000D03*
G04 #@! TO.P,J3,4,Pin_4*
G04 #@! TO.N,GND*
X138811000Y-107706000D03*
G04 #@! TD*
D12*
G04 #@! TO.P,J4,1,Pin_1*
G04 #@! TO.N,+3.3V*
X166243000Y-112014000D03*
D13*
G04 #@! TO.P,J4,2,Pin_2*
G04 #@! TO.N,/Microcontroller/SWCLK*
X166243000Y-109474000D03*
G04 #@! TO.P,J4,3,Pin_3*
G04 #@! TO.N,GND*
X166243000Y-106934000D03*
G04 #@! TO.P,J4,4,Pin_4*
G04 #@! TO.N,/Microcontroller/SWDIO*
X166243000Y-104394000D03*
G04 #@! TO.P,J4,5,Pin_5*
G04 #@! TO.N,/Microcontroller/NRST*
X166243000Y-101854000D03*
G04 #@! TO.P,J4,6,Pin_6*
G04 #@! TO.N,/Microcontroller/SWO*
X166243000Y-99314000D03*
G04 #@! TD*
D14*
G04 #@! TO.P,J2,1,Pin_1*
G04 #@! TO.N,GND*
X148590000Y-143540000D03*
D15*
G04 #@! TO.P,J2,2,Pin_2*
G04 #@! TO.N,/PYRO4*
X148590000Y-140040000D03*
G04 #@! TO.P,J2,3,Pin_3*
G04 #@! TO.N,GND*
X148590000Y-136540000D03*
G04 #@! TO.P,J2,4,Pin_4*
G04 #@! TO.N,/PYRO3*
X148590000Y-133040000D03*
G04 #@! TO.P,J2,5,Pin_5*
G04 #@! TO.N,GND*
X148590000Y-129540000D03*
G04 #@! TO.P,J2,6,Pin_6*
G04 #@! TO.N,/PYRO2*
X148590000Y-126040000D03*
G04 #@! TO.P,J2,7,Pin_7*
G04 #@! TO.N,GND*
X148590000Y-122540000D03*
G04 #@! TO.P,J2,8,Pin_8*
G04 #@! TO.N,/PYRO1*
X148590000Y-119040000D03*
G04 #@! TD*
D16*
G04 #@! TO.P,J5,1,DAT2*
G04 #@! TO.N,/MicroSD/SDIO_D2*
X163372000Y-120438000D03*
G04 #@! TO.P,J5,2,CD/DAT3*
G04 #@! TO.N,/MicroSD/SDIO_D3*
X162272000Y-120438000D03*
G04 #@! TO.P,J5,3,CMD*
G04 #@! TO.N,/MicroSD/SDIO_CMD*
X161172000Y-120438000D03*
G04 #@! TO.P,J5,4,VDD*
G04 #@! TO.N,+3.3V*
X160072000Y-120438000D03*
G04 #@! TO.P,J5,5,CLK*
G04 #@! TO.N,/MicroSD/SDIO_CLK*
X158972000Y-120438000D03*
G04 #@! TO.P,J5,6,VSS*
G04 #@! TO.N,GND*
X157872000Y-120438000D03*
G04 #@! TO.P,J5,7,DAT0*
G04 #@! TO.N,/MicroSD/SDIO_D0*
X156772000Y-120438000D03*
G04 #@! TO.P,J5,8,DAT1*
G04 #@! TO.N,/MicroSD/SDIO_D1*
X155672000Y-120438000D03*
D17*
G04 #@! TO.P,J5,9,SHIELD*
G04 #@! TO.N,GND*
X153202000Y-118238000D03*
G04 #@! TO.P,J5,10,SHIELD*
X153202000Y-126438000D03*
G04 #@! TO.P,J5,11,SHIELD*
X167092000Y-126438000D03*
G04 #@! TO.P,J5,12,SHIELD*
X167092000Y-118238000D03*
G04 #@! TD*
D14*
G04 #@! TO.P,J1,1,Pin_1*
G04 #@! TO.N,/VBAT*
X156210000Y-133040000D03*
D15*
G04 #@! TO.P,J1,2,Pin_2*
G04 #@! TO.N,GND*
X156210000Y-136540000D03*
G04 #@! TO.P,J1,3,Pin_3*
G04 #@! TO.N,/VPYRO*
X156210000Y-140040000D03*
G04 #@! TO.P,J1,4,Pin_4*
G04 #@! TO.N,GND*
X156210000Y-143540000D03*
G04 #@! TD*
D18*
G04 #@! TO.N,+3.3V*
X162776500Y-93345000D03*
X155732500Y-87002000D03*
X153352853Y-95313853D03*
X158115000Y-113538000D03*
X160147000Y-117602000D03*
X155448000Y-130048000D03*
X158115000Y-138176000D03*
X159766000Y-122428000D03*
X165697000Y-89827000D03*
X151257000Y-90678000D03*
X151257000Y-117348000D03*
X166599000Y-86589000D03*
X147701000Y-116459000D03*
X145796000Y-95377000D03*
X147701000Y-95377000D03*
X164973000Y-128270000D03*
X155702000Y-84074000D03*
X155702000Y-81915000D03*
X141732000Y-106045000D03*
X157861000Y-95377000D03*
X137541000Y-93726000D03*
X163830000Y-122301000D03*
X139065000Y-134526250D03*
X143383000Y-112268000D03*
X152400000Y-145415000D03*
X138684000Y-74295000D03*
G04 #@! TO.N,GND*
X163577750Y-137390000D03*
X166244750Y-134596000D03*
X154178000Y-85725000D03*
X165355750Y-134596000D03*
X163577750Y-138279000D03*
X164466750Y-138279000D03*
X157861000Y-122428000D03*
X166244750Y-135485000D03*
X143383000Y-115062000D03*
X159385000Y-99187000D03*
X165100000Y-126746000D03*
X159893000Y-129540000D03*
X165570000Y-93256000D03*
X165355750Y-133707000D03*
X162776000Y-90234500D03*
X166244750Y-136501000D03*
X137922000Y-98171000D03*
X146050000Y-82296000D03*
X157734000Y-72263000D03*
X167133750Y-138279000D03*
X166244750Y-138279000D03*
X146558000Y-76073000D03*
X153162000Y-122428000D03*
X166244750Y-133707000D03*
X167133750Y-137390000D03*
X167133750Y-134596000D03*
X155956000Y-96393000D03*
X145161000Y-98806000D03*
X157872000Y-117602000D03*
X164466750Y-133707000D03*
X156591000Y-113538000D03*
X158809200Y-96198200D03*
X164466750Y-137390000D03*
X165355750Y-138279000D03*
X141732000Y-112268000D03*
X167133750Y-133707000D03*
X138303000Y-138938000D03*
X167133750Y-136501000D03*
X165355750Y-137390000D03*
X166244750Y-137390000D03*
X156845000Y-129667000D03*
X163577750Y-134596000D03*
X145542000Y-96647000D03*
X167133750Y-135485000D03*
X163577750Y-133707000D03*
X164466750Y-134596000D03*
G04 #@! TO.N,/Microcontroller/NRST*
X156972000Y-100113500D03*
X163576000Y-100113500D03*
X148590000Y-101854000D03*
G04 #@! TO.N,/MicroSD/SDIO_CLK*
X158877000Y-121793000D03*
X158972000Y-118745000D03*
G04 #@! TO.N,/MicroSD/SDIO_CMD*
X160909000Y-121920000D03*
X161172000Y-114935000D03*
G04 #@! TO.N,/MicroSD/SDIO_D3*
X162306000Y-121920000D03*
X162272000Y-116967000D03*
G04 #@! TO.N,/MicroSD/SDIO_D2*
X163372000Y-118999000D03*
X165354000Y-121793000D03*
G04 #@! TO.N,/MicroSD/SDIO_D1*
X155575000Y-116332000D03*
X155448000Y-122428000D03*
G04 #@! TO.N,/MicroSD/SDIO_D0*
X156845000Y-118745000D03*
X156718000Y-121793000D03*
G04 #@! TO.N,/VPYRO*
X145542000Y-129921000D03*
X144399000Y-122555000D03*
X145542000Y-129032000D03*
X144399000Y-136525000D03*
X144780000Y-129540000D03*
G04 #@! TO.N,/Microcontroller/SWCLK*
X158496000Y-104267000D03*
G04 #@! TO.N,/Microcontroller/SWDIO*
X156218952Y-109990952D03*
G04 #@! TO.N,/Microcontroller/VBAT_ADC*
X142875000Y-102235000D03*
X149860000Y-110363000D03*
G04 #@! TO.N,/Accelerometer/SCL*
X160655000Y-97282000D03*
X163043000Y-81712000D03*
G04 #@! TO.N,/Accelerometer/SDA*
X166599000Y-81636000D03*
X161544000Y-96266000D03*
G04 #@! TO.N,/GPS/TXD*
X141672800Y-81085200D03*
X150884233Y-106979732D03*
G04 #@! TO.N,/GPS/RXD*
X140462000Y-81026000D03*
X149966134Y-107938530D03*
G04 #@! TO.N,/Current Switch/EN2*
X144907000Y-100630166D03*
X139856687Y-112534723D03*
G04 #@! TO.N,/Current Switch/EN3*
X147357065Y-102570337D03*
X140208000Y-114612500D03*
G04 #@! TO.N,/Current Switch/EN4*
X146526500Y-104902000D03*
X138938000Y-112141000D03*
G04 #@! TO.N,/LoRa/LORA_BUSY*
X150622000Y-94107000D03*
X150785781Y-105028281D03*
X153251500Y-93345000D03*
G04 #@! TO.N,/Barometer/MISO*
X151174234Y-110165146D03*
X160819500Y-90820750D03*
X155955500Y-92202000D03*
G04 #@! TO.N,/LoRa/LORA_MISO*
X149606000Y-84582000D03*
X148463000Y-104267000D03*
G04 #@! TO.N,/Accelerometer/INT1*
X159126701Y-103001299D03*
X165583000Y-87605000D03*
G04 #@! TO.N,/LoRa/LORA_MOSI*
X149225000Y-105029000D03*
X150749000Y-84582000D03*
G04 #@! TO.N,/LoRa/LORA_NSS*
X149298500Y-100838000D03*
X148463000Y-84582000D03*
G04 #@! TO.N,/LoRa/LORA_RST*
X149949500Y-95250000D03*
X149949500Y-104267000D03*
G04 #@! TO.N,/LoRa/LORA_DIO1*
X151638000Y-94615000D03*
X151511000Y-104267000D03*
G04 #@! TO.N,/IMU/INT1*
X153892500Y-94234000D03*
X150601039Y-109050040D03*
G04 #@! TO.N,/Barometer/INT*
X157353000Y-114808000D03*
X146304000Y-111252000D03*
X164846000Y-94488000D03*
G04 #@! TO.N,/Current Switch/~{ST2}*
X137160000Y-116967000D03*
X154164397Y-105777396D03*
G04 #@! TO.N,/Current Switch/~{ST3}*
X156172500Y-105601749D03*
X138285474Y-129565500D03*
G04 #@! TO.N,/Current Switch/~{ST4}*
X137287000Y-128905000D03*
X155440214Y-104782786D03*
G04 #@! TO.N,/Barometer/MOSI*
X160819500Y-88862500D03*
X157099000Y-88862500D03*
X151556891Y-108757891D03*
G04 #@! TO.N,/Barometer/SCK*
X153015260Y-108844564D03*
X155955195Y-94819479D03*
G04 #@! TO.N,/Current Switch/~{ST1}*
X138180299Y-116971299D03*
X154723500Y-106680000D03*
G04 #@! TO.N,/CS1*
X163576000Y-94488000D03*
X152527000Y-114807812D03*
G04 #@! TO.N,/CS2*
X151256500Y-118745000D03*
X158623000Y-105537000D03*
X155956000Y-90678000D03*
X159639000Y-89662000D03*
G04 #@! TD*
D19*
G04 #@! TO.N,+3.3V*
X160072000Y-117677000D02*
X160072000Y-120438000D01*
X160147000Y-117602000D02*
X160072000Y-117677000D01*
X160072000Y-120438000D02*
X160072000Y-122122000D01*
X160072000Y-122122000D02*
X159766000Y-122428000D01*
G04 #@! TO.N,GND*
X157872000Y-117602000D02*
X157872000Y-120438000D01*
G04 #@! TO.N,/Microcontroller/NRST*
X166243000Y-101854000D02*
X165316500Y-101854000D01*
X165316500Y-101854000D02*
X163576000Y-100113500D01*
G04 #@! TO.N,/MicroSD/SDIO_CLK*
X158972000Y-118745000D02*
X158972000Y-120438000D01*
X158877000Y-121793000D02*
X158877000Y-120533000D01*
X158877000Y-120533000D02*
X158972000Y-120438000D01*
G04 #@! TO.N,/MicroSD/SDIO_CMD*
X161172000Y-121657000D02*
X160909000Y-121920000D01*
X161172000Y-114935000D02*
X161172000Y-120438000D01*
X161172000Y-120438000D02*
X161172000Y-121657000D01*
G04 #@! TO.N,/MicroSD/SDIO_D3*
X162272000Y-116967000D02*
X162272000Y-120438000D01*
X162306000Y-121920000D02*
X162272000Y-121886000D01*
X162272000Y-121886000D02*
X162272000Y-120438000D01*
G04 #@! TO.N,/MicroSD/SDIO_D2*
X165354000Y-121793000D02*
X163999000Y-120438000D01*
X163999000Y-120438000D02*
X163372000Y-120438000D01*
X163372000Y-118999000D02*
X163372000Y-120438000D01*
G04 #@! TO.N,/MicroSD/SDIO_D1*
X155575000Y-116332000D02*
X155575000Y-120341000D01*
X155575000Y-120341000D02*
X155672000Y-120438000D01*
X155448000Y-122428000D02*
X155448000Y-120662000D01*
X155448000Y-120662000D02*
X155672000Y-120438000D01*
G04 #@! TO.N,/MicroSD/SDIO_D0*
X156772000Y-118818000D02*
X156845000Y-118745000D01*
X156772000Y-120438000D02*
X156772000Y-121739000D01*
X156772000Y-121739000D02*
X156718000Y-121793000D01*
X156772000Y-120438000D02*
X156772000Y-118818000D01*
G04 #@! TO.N,/Microcontroller/SWCLK*
X163703000Y-109474000D02*
X158496000Y-104267000D01*
X166243000Y-109474000D02*
X163703000Y-109474000D01*
G04 #@! TO.N,/Microcontroller/VBAT_ADC*
X149860000Y-110363000D02*
X147320000Y-110363000D01*
X142875000Y-105918000D02*
X142875000Y-102235000D01*
X147320000Y-110363000D02*
X142875000Y-105918000D01*
G04 #@! TO.N,/Accelerometer/SCL*
X163678000Y-90357805D02*
X163678000Y-82347000D01*
X160655000Y-93345000D02*
X161290000Y-92710000D01*
X161290000Y-92710000D02*
X161325805Y-92710000D01*
X163678000Y-82347000D02*
X163043000Y-81712000D01*
X160655000Y-97282000D02*
X160655000Y-93345000D01*
X161325805Y-92710000D02*
X163678000Y-90357805D01*
G04 #@! TO.N,/Accelerometer/SDA*
X164128000Y-90544201D02*
X164128000Y-84107000D01*
X161994000Y-95816000D02*
X161994000Y-92678201D01*
X164128000Y-84107000D02*
X166599000Y-81636000D01*
X161544000Y-96266000D02*
X161994000Y-95816000D01*
X161994000Y-92678201D02*
X164128000Y-90544201D01*
G04 #@! TO.N,/GPS/TXD*
X146813396Y-106934000D02*
X144087000Y-104207604D01*
X144087000Y-83499400D02*
X141672800Y-81085200D01*
X144087000Y-104207604D02*
X144087000Y-83499400D01*
X150838501Y-106934000D02*
X146813396Y-106934000D01*
X150884233Y-106979732D02*
X150838501Y-106934000D01*
G04 #@! TO.N,/GPS/RXD*
X149966134Y-107938530D02*
X149954664Y-107950000D01*
X143637000Y-104394000D02*
X143637000Y-84074000D01*
X149954664Y-107950000D02*
X147193000Y-107950000D01*
X147193000Y-107950000D02*
X143637000Y-104394000D01*
X140589000Y-81026000D02*
X140462000Y-81026000D01*
X143637000Y-84074000D02*
X140589000Y-81026000D01*
G04 #@! TO.N,/LoRa/LORA_BUSY*
X153251500Y-93345000D02*
X151384000Y-93345000D01*
X151373000Y-103379695D02*
X151373000Y-95375305D01*
X151384000Y-93345000D02*
X150622000Y-94107000D01*
X150785781Y-103966914D02*
X151373000Y-103379695D01*
X151373000Y-95375305D02*
X150622000Y-94624305D01*
X150785781Y-105028281D02*
X150785781Y-103966914D01*
X150622000Y-94624305D02*
X150622000Y-94107000D01*
G04 #@! TO.N,/Barometer/MISO*
X152290260Y-109049120D02*
X152290260Y-108544259D01*
X153855000Y-104425799D02*
X153855000Y-96472701D01*
X152798432Y-105482367D02*
X153855000Y-104425799D01*
X160708250Y-90932000D02*
X160819500Y-90820750D01*
X153855000Y-96472701D02*
X155067000Y-95260701D01*
X155067000Y-95260701D02*
X155067000Y-93090500D01*
X152290260Y-108544259D02*
X152798432Y-108036087D01*
X151174234Y-110165146D02*
X152290260Y-109049120D01*
X157225500Y-90932000D02*
X160708250Y-90932000D01*
X152798432Y-108036087D02*
X152798432Y-105482367D01*
X155067000Y-93090500D02*
X155955500Y-92202000D01*
X155955500Y-92202000D02*
X157225500Y-90932000D01*
G04 #@! TO.N,/LoRa/LORA_MISO*
X148774500Y-95736701D02*
X148774500Y-85920104D01*
X149859302Y-84835302D02*
X149606000Y-84582000D01*
X148775000Y-103955000D02*
X148775000Y-103779799D01*
X150023000Y-102531799D02*
X150023000Y-96985201D01*
X150023000Y-96985201D02*
X148774500Y-95736701D01*
X148774500Y-85920104D02*
X149859302Y-84835302D01*
X148775000Y-103779799D02*
X150023000Y-102531799D01*
X148463000Y-104267000D02*
X148775000Y-103955000D01*
G04 #@! TO.N,/Accelerometer/INT1*
X166422000Y-95706000D02*
X159126701Y-103001299D01*
X165583000Y-87605000D02*
X166422000Y-88444000D01*
X166422000Y-88444000D02*
X166422000Y-95706000D01*
G04 #@! TO.N,/LoRa/LORA_MOSI*
X150473000Y-102718195D02*
X150473000Y-96798805D01*
X149225000Y-103966195D02*
X150473000Y-102718195D01*
X149225000Y-105029000D02*
X149225000Y-103966195D01*
X150473000Y-96798805D02*
X149224500Y-95550305D01*
X149224500Y-95550305D02*
X149224500Y-86106500D01*
X149224500Y-86106500D02*
X150749000Y-84582000D01*
G04 #@! TO.N,/LoRa/LORA_NSS*
X146976000Y-86069000D02*
X148463000Y-84582000D01*
X146976000Y-95677305D02*
X146976000Y-86069000D01*
X149298500Y-100838000D02*
X147447000Y-98986500D01*
X147447000Y-98986500D02*
X147447000Y-96148305D01*
X147447000Y-96148305D02*
X146976000Y-95677305D01*
G04 #@! TO.N,/LoRa/LORA_RST*
X149949500Y-104166799D02*
X150923000Y-103193299D01*
X150923000Y-96223500D02*
X149949500Y-95250000D01*
X149949500Y-104267000D02*
X149949500Y-104166799D01*
X150923000Y-103193299D02*
X150923000Y-96223500D01*
G04 #@! TO.N,/LoRa/LORA_DIO1*
X151511000Y-104267000D02*
X151823000Y-103955000D01*
X151823000Y-94800000D02*
X151638000Y-94615000D01*
X151823000Y-103955000D02*
X151823000Y-94800000D01*
G04 #@! TO.N,/IMU/INT1*
X151811305Y-107395695D02*
X150601039Y-108605961D01*
X152273000Y-95368402D02*
X152273000Y-104566367D01*
X153407402Y-94234000D02*
X152273000Y-95368402D01*
X153892500Y-94234000D02*
X153407402Y-94234000D01*
X151811305Y-105028062D02*
X151811305Y-107395695D01*
X150601039Y-108605961D02*
X150601039Y-109050040D01*
X152273000Y-104566367D02*
X151811305Y-105028062D01*
G04 #@! TO.N,/Barometer/INT*
X157353000Y-113274695D02*
X157353000Y-114808000D01*
X157480698Y-103124698D02*
X157480698Y-113146997D01*
X164846000Y-95759396D02*
X157480698Y-103124698D01*
X164846000Y-94488000D02*
X164846000Y-95759396D01*
X157480698Y-113146997D02*
X157353000Y-113274695D01*
G04 #@! TO.N,/Current Switch/~{ST2}*
X153797000Y-106144793D02*
X153797000Y-109088129D01*
X142901500Y-114337000D02*
X141901500Y-115337000D01*
X138790000Y-115337000D02*
X137160000Y-116967000D01*
X148548129Y-114337000D02*
X142901500Y-114337000D01*
X153797000Y-109088129D02*
X148548129Y-114337000D01*
X141901500Y-115337000D02*
X138790000Y-115337000D01*
X154164397Y-105777396D02*
X153797000Y-106144793D01*
G04 #@! TO.N,/Current Switch/~{ST3}*
X156259177Y-105688426D02*
X156259177Y-108926128D01*
X156259177Y-108926128D02*
X140298000Y-124887305D01*
X138091685Y-129371711D02*
X138285474Y-129565500D01*
X140298000Y-124887305D02*
X140298000Y-127165396D01*
X140298000Y-127165396D02*
X138091685Y-129371711D01*
X156172500Y-105601749D02*
X156259177Y-105688426D01*
G04 #@! TO.N,/Current Switch/~{ST4}*
X155448000Y-109100909D02*
X148814909Y-115734000D01*
X155448000Y-104790572D02*
X155448000Y-109100909D01*
X137287000Y-125847695D02*
X137287000Y-128905000D01*
X147400695Y-115734000D02*
X137287000Y-125847695D01*
X148814909Y-115734000D02*
X147400695Y-115734000D01*
X155440214Y-104782786D02*
X155448000Y-104790572D01*
G04 #@! TO.N,/Barometer/MOSI*
X152348432Y-107849691D02*
X152348432Y-105295971D01*
X153405000Y-104239403D02*
X153405000Y-96286305D01*
X151556891Y-108641232D02*
X152348432Y-107849691D01*
X160782000Y-88900000D02*
X157136500Y-88900000D01*
X160819500Y-88862500D02*
X160782000Y-88900000D01*
X154617000Y-90492293D02*
X156246793Y-88862500D01*
X152348432Y-105295971D02*
X153405000Y-104239403D01*
X151556891Y-108757891D02*
X151556891Y-108641232D01*
X156246793Y-88862500D02*
X157099000Y-88862500D01*
X153405000Y-96286305D02*
X154617000Y-95074305D01*
X157136500Y-88900000D02*
X157099000Y-88862500D01*
X154617000Y-95074305D02*
X154617000Y-90492293D01*
G04 #@! TO.N,/Barometer/SCK*
X155955195Y-94819479D02*
X155955195Y-95368500D01*
X153248432Y-108611392D02*
X153015260Y-108844564D01*
X154305000Y-97018695D02*
X154305000Y-104612195D01*
X155955195Y-95368500D02*
X154305000Y-97018695D01*
X153248432Y-105668763D02*
X153248432Y-108611392D01*
X154305000Y-104612195D02*
X153248432Y-105668763D01*
G04 #@! TO.N,/Current Switch/~{ST1}*
X146711299Y-115787000D02*
X139364598Y-115787000D01*
X148237525Y-115284000D02*
X147214299Y-115284000D01*
X154723500Y-108798025D02*
X148237525Y-115284000D01*
X147214299Y-115284000D02*
X146711299Y-115787000D01*
X139364598Y-115787000D02*
X138180299Y-116971299D01*
X154723500Y-106680000D02*
X154723500Y-108798025D01*
G04 #@! TO.N,/CS1*
X152672002Y-114807812D02*
X156984177Y-110495637D01*
X152527000Y-114807812D02*
X152672002Y-114807812D01*
X163576000Y-96393000D02*
X163576000Y-94488000D01*
X156984177Y-110495637D02*
X156984177Y-102984823D01*
X156984177Y-102984823D02*
X163576000Y-96393000D01*
G04 #@! TO.N,/CS2*
X158840000Y-114346305D02*
X158840000Y-105754000D01*
X156972000Y-89662000D02*
X159639000Y-89662000D01*
X152127000Y-117874500D02*
X152127000Y-116976695D01*
X157616305Y-115570000D02*
X158840000Y-114346305D01*
X152127000Y-116976695D02*
X153533695Y-115570000D01*
X151256500Y-118745000D02*
X152127000Y-117874500D01*
X155956000Y-90678000D02*
X156972000Y-89662000D01*
X158840000Y-105754000D02*
X158623000Y-105537000D01*
X153533695Y-115570000D02*
X157616305Y-115570000D01*
G04 #@! TD*
G04 #@! TA.AperFunction,Conductor*
G04 #@! TO.N,GND*
G36*
X165989000Y-131058382D02*
G01*
X168148000Y-131064000D01*
X168148000Y-145925500D01*
X168128315Y-145992539D01*
X168075511Y-146038294D01*
X168024000Y-146049500D01*
X158366000Y-146049500D01*
X158298961Y-146029815D01*
X158253206Y-145977011D01*
X158242000Y-145925500D01*
X158242000Y-142942763D01*
X163245787Y-142942763D01*
X163275413Y-143212013D01*
X163275415Y-143212024D01*
X163343926Y-143474082D01*
X163343928Y-143474088D01*
X163449870Y-143723390D01*
X163521998Y-143841575D01*
X163590979Y-143954605D01*
X163590986Y-143954615D01*
X163764253Y-144162819D01*
X163764259Y-144162824D01*
X163965998Y-144343582D01*
X164191910Y-144493044D01*
X164437176Y-144608020D01*
X164437183Y-144608022D01*
X164437185Y-144608023D01*
X164696557Y-144686057D01*
X164696564Y-144686058D01*
X164696569Y-144686060D01*
X164964561Y-144725500D01*
X164964566Y-144725500D01*
X165167636Y-144725500D01*
X165219133Y-144721730D01*
X165370156Y-144710677D01*
X165482758Y-144685593D01*
X165634546Y-144651782D01*
X165634548Y-144651781D01*
X165634553Y-144651780D01*
X165887558Y-144555014D01*
X166123777Y-144422441D01*
X166338177Y-144256888D01*
X166526186Y-144061881D01*
X166683799Y-143841579D01*
X166757787Y-143697669D01*
X166807649Y-143600690D01*
X166807651Y-143600684D01*
X166807656Y-143600675D01*
X166895118Y-143344305D01*
X166944319Y-143077933D01*
X166954212Y-142807235D01*
X166924586Y-142537982D01*
X166856072Y-142275912D01*
X166750130Y-142026610D01*
X166609018Y-141795390D01*
X166519747Y-141688119D01*
X166435746Y-141587180D01*
X166435740Y-141587175D01*
X166234002Y-141406418D01*
X166008092Y-141256957D01*
X166008090Y-141256956D01*
X165762824Y-141141980D01*
X165762819Y-141141978D01*
X165762814Y-141141976D01*
X165503442Y-141063942D01*
X165503428Y-141063939D01*
X165387791Y-141046921D01*
X165235439Y-141024500D01*
X165032369Y-141024500D01*
X165032364Y-141024500D01*
X164829844Y-141039323D01*
X164829831Y-141039325D01*
X164565453Y-141098217D01*
X164565446Y-141098220D01*
X164312439Y-141194987D01*
X164076226Y-141327557D01*
X163861822Y-141493112D01*
X163673822Y-141688109D01*
X163673816Y-141688116D01*
X163516202Y-141908419D01*
X163516199Y-141908424D01*
X163392350Y-142149309D01*
X163392343Y-142149327D01*
X163304884Y-142405685D01*
X163304881Y-142405699D01*
X163255681Y-142672068D01*
X163255680Y-142672075D01*
X163245787Y-142942763D01*
X158242000Y-142942763D01*
X158242000Y-138915933D01*
X158261685Y-138848894D01*
X158314489Y-138803139D01*
X158336326Y-138795536D01*
X158338508Y-138794997D01*
X158348793Y-138792463D01*
X158489529Y-138718599D01*
X158608498Y-138613201D01*
X158698787Y-138482395D01*
X158755149Y-138333782D01*
X158774307Y-138176000D01*
X158755149Y-138018218D01*
X158698787Y-137869605D01*
X158608498Y-137738799D01*
X158608495Y-137738796D01*
X158608493Y-137738794D01*
X158489530Y-137633401D01*
X158425244Y-137599661D01*
X158348793Y-137559537D01*
X158348790Y-137559536D01*
X158348788Y-137559535D01*
X158336322Y-137556462D01*
X158275942Y-137521304D01*
X158244155Y-137459084D01*
X158242000Y-137436066D01*
X158242000Y-130934000D01*
X158261685Y-130866961D01*
X158314489Y-130821206D01*
X158366000Y-130810000D01*
X165989000Y-130810000D01*
X165989000Y-131058382D01*
G37*
G04 #@! TD.AperFunction*
G04 #@! TD*
G04 #@! TA.AperFunction,Conductor*
G04 #@! TO.N,GND*
G36*
X154248039Y-115969185D02*
G01*
X154293794Y-116021989D01*
X154305000Y-116073500D01*
X154305000Y-130431676D01*
X154285315Y-130498715D01*
X154232511Y-130544470D01*
X154180677Y-130555676D01*
X152269677Y-130550703D01*
X152202689Y-130530844D01*
X152157072Y-130477921D01*
X152146000Y-130426703D01*
X152146000Y-118443555D01*
X152165685Y-118376516D01*
X152182319Y-118355874D01*
X152358425Y-118179767D01*
X152378279Y-118163645D01*
X152387582Y-118157568D01*
X152409640Y-118129226D01*
X152414729Y-118123463D01*
X152417581Y-118120613D01*
X152431294Y-118101406D01*
X152465375Y-118057619D01*
X152465376Y-118057613D01*
X152469159Y-118050626D01*
X152472653Y-118043478D01*
X152488479Y-117990318D01*
X152492984Y-117977194D01*
X152506500Y-117937827D01*
X152506500Y-117937824D01*
X152507802Y-117930021D01*
X152508792Y-117922088D01*
X152506500Y-117866674D01*
X152506500Y-117185251D01*
X152526185Y-117118212D01*
X152542819Y-117097570D01*
X153654570Y-115985819D01*
X153715893Y-115952334D01*
X153742251Y-115949500D01*
X154181000Y-115949500D01*
X154248039Y-115969185D01*
G37*
G04 #@! TD.AperFunction*
G04 #@! TD*
G04 #@! TA.AperFunction,Conductor*
G04 #@! TO.N,GND*
G36*
X168091039Y-115462685D02*
G01*
X168136794Y-115515489D01*
X168148000Y-115567000D01*
X168148000Y-131064000D01*
X165989000Y-131058382D01*
X165989000Y-121986727D01*
X165992605Y-121957046D01*
X165994149Y-121950782D01*
X166013307Y-121793000D01*
X166013307Y-121792999D01*
X165994149Y-121635219D01*
X165992603Y-121628946D01*
X165989000Y-121599271D01*
X165989000Y-115567000D01*
X166008685Y-115499961D01*
X166061489Y-115454206D01*
X166113000Y-115443000D01*
X168024000Y-115443000D01*
X168091039Y-115462685D01*
G37*
G04 #@! TD.AperFunction*
G04 #@! TD*
M02*
