G04 #@! TF.GenerationSoftware,KiCad,Pcbnew,7.0.8*
G04 #@! TF.CreationDate,2023-11-27T14:39:53-06:00*
G04 #@! TF.ProjectId,Flight_Board,466c6967-6874-45f4-926f-6172642e6b69,rev?*
G04 #@! TF.SameCoordinates,Original*
G04 #@! TF.FileFunction,Copper,L3,Inr*
G04 #@! TF.FilePolarity,Positive*
%FSLAX46Y46*%
G04 Gerber Fmt 4.6, Leading zero omitted, Abs format (unit mm)*
G04 Created by KiCad (PCBNEW 7.0.8) date 2023-11-27 14:39:53*
%MOMM*%
%LPD*%
G01*
G04 APERTURE LIST*
G04 #@! TA.AperFunction,ComponentPad*
%ADD10C,0.600000*%
G04 #@! TD*
G04 #@! TA.AperFunction,ComponentPad*
%ADD11R,1.700000X1.700000*%
G04 #@! TD*
G04 #@! TA.AperFunction,ComponentPad*
%ADD12O,1.700000X1.700000*%
G04 #@! TD*
G04 #@! TA.AperFunction,ComponentPad*
%ADD13R,2.400000X2.400000*%
G04 #@! TD*
G04 #@! TA.AperFunction,ComponentPad*
%ADD14C,2.400000*%
G04 #@! TD*
G04 #@! TA.AperFunction,ViaPad*
%ADD15C,0.800000*%
G04 #@! TD*
G04 #@! TA.AperFunction,Conductor*
%ADD16C,0.250000*%
G04 #@! TD*
G04 APERTURE END LIST*
D10*
G04 #@! TO.N,GND*
G04 #@! TO.C,U8*
X140836000Y-128140000D03*
X140836000Y-128840000D03*
X140836000Y-129540000D03*
X140836000Y-130240000D03*
X140836000Y-130940000D03*
X141736000Y-128140000D03*
X141736000Y-128840000D03*
X141736000Y-129540000D03*
X141736000Y-130240000D03*
X141736000Y-130940000D03*
X142636000Y-128140000D03*
X142636000Y-128840000D03*
X142636000Y-129540000D03*
X142636000Y-130240000D03*
X142636000Y-130940000D03*
G04 #@! TD*
D11*
G04 #@! TO.N,+3.3V*
G04 #@! TO.C,J3*
X138811000Y-100086000D03*
D12*
G04 #@! TO.N,/Microcontroller/UART_TX*
X138811000Y-102626000D03*
G04 #@! TO.N,/Microcontroller/UART_RX*
X138811000Y-105166000D03*
G04 #@! TO.N,GND*
X138811000Y-107706000D03*
G04 #@! TD*
D11*
G04 #@! TO.N,+3.3V*
G04 #@! TO.C,J4*
X166243000Y-112014000D03*
D12*
G04 #@! TO.N,/Microcontroller/SWCLK*
X166243000Y-109474000D03*
G04 #@! TO.N,GND*
X166243000Y-106934000D03*
G04 #@! TO.N,/Microcontroller/SWDIO*
X166243000Y-104394000D03*
G04 #@! TO.N,/Microcontroller/NRST*
X166243000Y-101854000D03*
G04 #@! TO.N,/Microcontroller/SWO*
X166243000Y-99314000D03*
G04 #@! TD*
D13*
G04 #@! TO.N,GND*
G04 #@! TO.C,J2*
X148590000Y-143540000D03*
D14*
G04 #@! TO.N,/PYRO4*
X148590000Y-140040000D03*
G04 #@! TO.N,GND*
X148590000Y-136540000D03*
G04 #@! TO.N,/PYRO3*
X148590000Y-133040000D03*
G04 #@! TO.N,GND*
X148590000Y-129540000D03*
G04 #@! TO.N,/PYRO2*
X148590000Y-126040000D03*
G04 #@! TO.N,GND*
X148590000Y-122540000D03*
G04 #@! TO.N,/PYRO1*
X148590000Y-119040000D03*
G04 #@! TD*
D13*
G04 #@! TO.N,/VBAT*
G04 #@! TO.C,J1*
X156210000Y-133040000D03*
D14*
G04 #@! TO.N,GND*
X156210000Y-136540000D03*
G04 #@! TO.N,/VPYRO*
X156210000Y-140040000D03*
G04 #@! TO.N,GND*
X156210000Y-143540000D03*
G04 #@! TD*
D15*
G04 #@! TO.N,+3.3V*
X162776500Y-93345000D03*
X155732500Y-87002000D03*
X153352853Y-95313853D03*
X158115000Y-113538000D03*
X160147000Y-117602000D03*
X155448000Y-130048000D03*
X158115000Y-138176000D03*
X159766000Y-122428000D03*
X165697000Y-89827000D03*
X151257000Y-90678000D03*
X151257000Y-117348000D03*
X166599000Y-86589000D03*
X147701000Y-116459000D03*
X145796000Y-95377000D03*
X147701000Y-95377000D03*
X164973000Y-128270000D03*
X155702000Y-84074000D03*
X155702000Y-81915000D03*
X141732000Y-106045000D03*
X157861000Y-95377000D03*
X137541000Y-93726000D03*
X163830000Y-122301000D03*
X139065000Y-134526250D03*
X143383000Y-112268000D03*
X152400000Y-145415000D03*
X138684000Y-74295000D03*
G04 #@! TO.N,GND*
X163577750Y-137390000D03*
X166244750Y-134596000D03*
X154178000Y-85725000D03*
X165355750Y-134596000D03*
X163577750Y-138279000D03*
X164466750Y-138279000D03*
X157861000Y-122428000D03*
X166244750Y-135485000D03*
X143383000Y-115062000D03*
X159385000Y-99187000D03*
X165100000Y-126746000D03*
X159893000Y-129540000D03*
X165570000Y-93256000D03*
X165355750Y-133707000D03*
X162776000Y-90234500D03*
X166244750Y-136501000D03*
X137922000Y-98171000D03*
X146050000Y-82296000D03*
X157734000Y-72263000D03*
X167133750Y-138279000D03*
X166244750Y-138279000D03*
X146558000Y-76073000D03*
X153162000Y-122428000D03*
X166244750Y-133707000D03*
X167133750Y-137390000D03*
X167133750Y-134596000D03*
X155956000Y-96393000D03*
X145161000Y-98806000D03*
X157872000Y-117602000D03*
X164466750Y-133707000D03*
X156591000Y-113538000D03*
X158809200Y-96198200D03*
X164466750Y-137390000D03*
X165355750Y-138279000D03*
X141732000Y-112268000D03*
X167133750Y-133707000D03*
X138303000Y-138938000D03*
X167133750Y-136501000D03*
X165355750Y-137390000D03*
X166244750Y-137390000D03*
X156845000Y-129667000D03*
X163577750Y-134596000D03*
X145542000Y-96647000D03*
X167133750Y-135485000D03*
X163577750Y-133707000D03*
X164466750Y-134596000D03*
G04 #@! TO.N,/Microcontroller/NRST*
X156972000Y-100113500D03*
X163576000Y-100113500D03*
X148590000Y-101854000D03*
G04 #@! TO.N,/MicroSD/SDIO_CLK*
X158877000Y-121793000D03*
X158972000Y-118745000D03*
G04 #@! TO.N,/MicroSD/SDIO_CMD*
X160909000Y-121920000D03*
X161172000Y-114935000D03*
G04 #@! TO.N,/MicroSD/SDIO_D3*
X162306000Y-121920000D03*
X162272000Y-116967000D03*
G04 #@! TO.N,/MicroSD/SDIO_D2*
X163372000Y-118999000D03*
X165354000Y-121793000D03*
G04 #@! TO.N,/MicroSD/SDIO_D1*
X155575000Y-116332000D03*
X155448000Y-122428000D03*
G04 #@! TO.N,/MicroSD/SDIO_D0*
X156845000Y-118745000D03*
X156718000Y-121793000D03*
G04 #@! TO.N,/VPYRO*
X145542000Y-129921000D03*
X144399000Y-122555000D03*
X145542000Y-129032000D03*
X144399000Y-136525000D03*
X144780000Y-129540000D03*
G04 #@! TO.N,/Microcontroller/SWCLK*
X158496000Y-104267000D03*
G04 #@! TO.N,/Microcontroller/SWDIO*
X156218952Y-109990952D03*
G04 #@! TO.N,/Microcontroller/VBAT_ADC*
X142875000Y-102235000D03*
X149860000Y-110363000D03*
G04 #@! TO.N,/Accelerometer/SCL*
X160655000Y-97282000D03*
X163043000Y-81712000D03*
G04 #@! TO.N,/Accelerometer/SDA*
X166599000Y-81636000D03*
X161544000Y-96266000D03*
G04 #@! TO.N,/GPS/TXD*
X141672800Y-81085200D03*
X150884233Y-106979732D03*
G04 #@! TO.N,/GPS/RXD*
X140462000Y-81026000D03*
X149966134Y-107938530D03*
G04 #@! TO.N,/Current Switch/EN2*
X144907000Y-100630166D03*
X139856687Y-112534723D03*
G04 #@! TO.N,/Current Switch/EN3*
X147357065Y-102570337D03*
X140208000Y-114612500D03*
G04 #@! TO.N,/Current Switch/EN4*
X146526500Y-104902000D03*
X138938000Y-112141000D03*
G04 #@! TO.N,/LoRa/LORA_BUSY*
X150622000Y-94107000D03*
X150785781Y-105028281D03*
X153251500Y-93345000D03*
G04 #@! TO.N,/Barometer/MISO*
X151174234Y-110165146D03*
X160819500Y-90820750D03*
X155955500Y-92202000D03*
G04 #@! TO.N,/LoRa/LORA_MISO*
X149606000Y-84582000D03*
X148463000Y-104267000D03*
G04 #@! TO.N,/Accelerometer/INT1*
X159126701Y-103001299D03*
X165583000Y-87605000D03*
G04 #@! TO.N,/LoRa/LORA_MOSI*
X149225000Y-105029000D03*
X150749000Y-84582000D03*
G04 #@! TO.N,/LoRa/LORA_NSS*
X149298500Y-100838000D03*
X148463000Y-84582000D03*
G04 #@! TO.N,/LoRa/LORA_RST*
X149949500Y-95250000D03*
X149949500Y-104267000D03*
G04 #@! TO.N,/LoRa/LORA_DIO1*
X151638000Y-94615000D03*
X151511000Y-104267000D03*
G04 #@! TO.N,/IMU/INT1*
X153892500Y-94234000D03*
X150601039Y-109050040D03*
G04 #@! TO.N,/Barometer/INT*
X157353000Y-114808000D03*
X146304000Y-111252000D03*
X164846000Y-94488000D03*
G04 #@! TO.N,/Current Switch/~{ST2}*
X137160000Y-116967000D03*
X154164397Y-105777396D03*
G04 #@! TO.N,/Current Switch/~{ST3}*
X156172500Y-105601749D03*
X138285474Y-129565500D03*
G04 #@! TO.N,/Current Switch/~{ST4}*
X137287000Y-128905000D03*
X155440214Y-104782786D03*
G04 #@! TO.N,/Barometer/MOSI*
X160819500Y-88862500D03*
X157099000Y-88862500D03*
X151556891Y-108757891D03*
G04 #@! TO.N,/Barometer/SCK*
X153015260Y-108844564D03*
X155955195Y-94819479D03*
G04 #@! TO.N,/Current Switch/~{ST1}*
X138180299Y-116971299D03*
X154723500Y-106680000D03*
G04 #@! TO.N,/CS1*
X163576000Y-94488000D03*
X152527000Y-114807812D03*
G04 #@! TO.N,/CS2*
X151256500Y-118745000D03*
X158623000Y-105537000D03*
X155956000Y-90678000D03*
X159639000Y-89662000D03*
G04 #@! TD*
D16*
G04 #@! TO.N,/Microcontroller/NRST*
X148590000Y-101854000D02*
X155231500Y-101854000D01*
X155231500Y-101854000D02*
X156972000Y-100113500D01*
G04 #@! TO.N,/Microcontroller/SWDIO*
X161815904Y-104394000D02*
X166243000Y-104394000D01*
X156218952Y-109990952D02*
X161815904Y-104394000D01*
G04 #@! TO.N,/Current Switch/EN2*
X139856687Y-112492313D02*
X139856687Y-112534723D01*
X140806000Y-111543000D02*
X139856687Y-112492313D01*
X142245299Y-111543000D02*
X140806000Y-111543000D01*
X144907000Y-101854000D02*
X147251500Y-104198500D01*
X147251500Y-106536799D02*
X142245299Y-111543000D01*
X147251500Y-104198500D02*
X147251500Y-106536799D01*
X144907000Y-100630166D02*
X144907000Y-101854000D01*
G04 #@! TO.N,/Current Switch/EN3*
X140208000Y-114612500D02*
X140412805Y-114612500D01*
X140412805Y-114612500D02*
X142457000Y-112568305D01*
X147701500Y-106723195D02*
X147701500Y-102914772D01*
X147701500Y-102914772D02*
X147357065Y-102570337D01*
X142457000Y-112568305D02*
X142457000Y-111967695D01*
X142457000Y-111967695D02*
X147701500Y-106723195D01*
G04 #@! TO.N,/Current Switch/EN4*
X146526500Y-106625403D02*
X142058903Y-111093000D01*
X146526500Y-104902000D02*
X146526500Y-106625403D01*
X142058903Y-111093000D02*
X139986000Y-111093000D01*
X139986000Y-111093000D02*
X138938000Y-112141000D01*
G04 #@! TD*
G04 #@! TA.AperFunction,Conductor*
G04 #@! TO.N,/VPYRO*
G36*
X150256677Y-120542685D02*
G01*
X150277319Y-120559319D01*
X150966681Y-121248681D01*
X151000166Y-121310004D01*
X151003000Y-121336362D01*
X151003000Y-138430000D01*
X156920638Y-138430000D01*
X156987677Y-138449685D01*
X157008319Y-138466319D01*
X157697681Y-139155681D01*
X157731166Y-139217004D01*
X157734000Y-139243362D01*
X157734000Y-141045638D01*
X157714315Y-141112677D01*
X157697681Y-141133319D01*
X157008319Y-141822681D01*
X156946996Y-141856166D01*
X156920638Y-141859000D01*
X144450362Y-141859000D01*
X144383323Y-141839315D01*
X144362681Y-141822681D01*
X143673319Y-141133319D01*
X143639834Y-141071996D01*
X143637000Y-141045638D01*
X143637000Y-140040006D01*
X147130515Y-140040006D01*
X147150418Y-140280215D01*
X147150420Y-140280226D01*
X147209593Y-140513892D01*
X147306421Y-140734639D01*
X147438259Y-140936431D01*
X147438261Y-140936434D01*
X147600504Y-141112677D01*
X147601520Y-141113780D01*
X147601524Y-141113783D01*
X147791737Y-141261832D01*
X147791739Y-141261833D01*
X147791742Y-141261835D01*
X147914981Y-141328527D01*
X148003732Y-141376557D01*
X148231718Y-141454825D01*
X148469477Y-141494500D01*
X148469478Y-141494500D01*
X148710522Y-141494500D01*
X148710523Y-141494500D01*
X148948282Y-141454825D01*
X149176268Y-141376557D01*
X149388263Y-141261832D01*
X149578482Y-141113778D01*
X149741739Y-140936434D01*
X149873579Y-140734638D01*
X149970406Y-140513894D01*
X150029580Y-140280223D01*
X150049485Y-140040000D01*
X150049485Y-140039993D01*
X150029581Y-139799784D01*
X150029579Y-139799773D01*
X149970406Y-139566107D01*
X149873578Y-139345360D01*
X149741740Y-139143568D01*
X149741739Y-139143566D01*
X149578482Y-138966222D01*
X149578481Y-138966221D01*
X149578479Y-138966219D01*
X149578475Y-138966216D01*
X149388266Y-138818170D01*
X149388257Y-138818164D01*
X149176274Y-138703446D01*
X149176271Y-138703445D01*
X149176268Y-138703443D01*
X149176262Y-138703441D01*
X149176260Y-138703440D01*
X148948284Y-138625175D01*
X148789776Y-138598725D01*
X148710523Y-138585500D01*
X148469477Y-138585500D01*
X148410037Y-138595418D01*
X148231715Y-138625175D01*
X148003739Y-138703440D01*
X148003725Y-138703446D01*
X147791742Y-138818164D01*
X147791733Y-138818170D01*
X147601524Y-138966216D01*
X147601520Y-138966219D01*
X147438262Y-139143564D01*
X147438259Y-139143568D01*
X147306421Y-139345360D01*
X147209593Y-139566107D01*
X147150420Y-139799773D01*
X147150418Y-139799784D01*
X147130515Y-140039993D01*
X147130515Y-140040006D01*
X143637000Y-140040006D01*
X143637000Y-136540006D01*
X147130515Y-136540006D01*
X147150418Y-136780215D01*
X147150420Y-136780226D01*
X147209593Y-137013892D01*
X147306421Y-137234639D01*
X147438259Y-137436431D01*
X147438262Y-137436435D01*
X147601520Y-137613780D01*
X147601524Y-137613783D01*
X147762144Y-137738799D01*
X147791737Y-137761832D01*
X147791739Y-137761833D01*
X147791742Y-137761835D01*
X147914981Y-137828527D01*
X148003732Y-137876557D01*
X148231718Y-137954825D01*
X148469477Y-137994500D01*
X148469478Y-137994500D01*
X148710522Y-137994500D01*
X148710523Y-137994500D01*
X148948282Y-137954825D01*
X149176268Y-137876557D01*
X149388263Y-137761832D01*
X149578482Y-137613778D01*
X149741739Y-137436434D01*
X149873579Y-137234638D01*
X149970406Y-137013894D01*
X150029580Y-136780223D01*
X150049485Y-136540000D01*
X150049485Y-136539993D01*
X150029581Y-136299784D01*
X150029579Y-136299773D01*
X149970406Y-136066107D01*
X149873578Y-135845360D01*
X149741740Y-135643568D01*
X149741739Y-135643566D01*
X149578482Y-135466222D01*
X149578481Y-135466221D01*
X149578479Y-135466219D01*
X149578475Y-135466216D01*
X149388266Y-135318170D01*
X149388257Y-135318164D01*
X149176274Y-135203446D01*
X149176271Y-135203445D01*
X149176268Y-135203443D01*
X149176262Y-135203441D01*
X149176260Y-135203440D01*
X148948284Y-135125175D01*
X148789776Y-135098725D01*
X148710523Y-135085500D01*
X148469477Y-135085500D01*
X148410037Y-135095418D01*
X148231715Y-135125175D01*
X148003739Y-135203440D01*
X148003725Y-135203446D01*
X147791742Y-135318164D01*
X147791733Y-135318170D01*
X147601524Y-135466216D01*
X147601520Y-135466219D01*
X147438262Y-135643564D01*
X147438259Y-135643568D01*
X147306421Y-135845360D01*
X147209593Y-136066107D01*
X147150420Y-136299773D01*
X147150418Y-136299784D01*
X147130515Y-136539993D01*
X147130515Y-136540006D01*
X143637000Y-136540006D01*
X143637000Y-133040006D01*
X147130515Y-133040006D01*
X147150418Y-133280215D01*
X147150420Y-133280226D01*
X147209593Y-133513892D01*
X147306421Y-133734639D01*
X147438259Y-133936431D01*
X147438262Y-133936435D01*
X147601520Y-134113780D01*
X147601524Y-134113783D01*
X147791737Y-134261832D01*
X147791739Y-134261833D01*
X147791742Y-134261835D01*
X147914981Y-134328527D01*
X148003732Y-134376557D01*
X148231718Y-134454825D01*
X148469477Y-134494500D01*
X148469478Y-134494500D01*
X148710522Y-134494500D01*
X148710523Y-134494500D01*
X148948282Y-134454825D01*
X149176268Y-134376557D01*
X149388263Y-134261832D01*
X149578482Y-134113778D01*
X149741739Y-133936434D01*
X149873579Y-133734638D01*
X149970406Y-133513894D01*
X150029580Y-133280223D01*
X150049485Y-133040000D01*
X150049485Y-133039993D01*
X150029581Y-132799784D01*
X150029579Y-132799773D01*
X149970406Y-132566107D01*
X149873578Y-132345360D01*
X149741740Y-132143568D01*
X149741739Y-132143566D01*
X149578482Y-131966222D01*
X149578481Y-131966221D01*
X149578479Y-131966219D01*
X149578475Y-131966216D01*
X149388266Y-131818170D01*
X149388257Y-131818164D01*
X149176274Y-131703446D01*
X149176271Y-131703445D01*
X149176268Y-131703443D01*
X149176262Y-131703441D01*
X149176260Y-131703440D01*
X148948284Y-131625175D01*
X148789776Y-131598725D01*
X148710523Y-131585500D01*
X148469477Y-131585500D01*
X148410037Y-131595418D01*
X148231715Y-131625175D01*
X148003739Y-131703440D01*
X148003725Y-131703446D01*
X147791742Y-131818164D01*
X147791733Y-131818170D01*
X147601524Y-131966216D01*
X147601520Y-131966219D01*
X147438262Y-132143564D01*
X147438259Y-132143568D01*
X147306421Y-132345360D01*
X147209593Y-132566107D01*
X147150420Y-132799773D01*
X147150418Y-132799784D01*
X147130515Y-133039993D01*
X147130515Y-133040006D01*
X143637000Y-133040006D01*
X143637000Y-129540006D01*
X147130515Y-129540006D01*
X147150418Y-129780215D01*
X147150420Y-129780226D01*
X147209593Y-130013892D01*
X147306421Y-130234639D01*
X147438259Y-130436431D01*
X147438262Y-130436435D01*
X147601520Y-130613780D01*
X147601524Y-130613783D01*
X147791733Y-130761829D01*
X147791737Y-130761832D01*
X147791739Y-130761833D01*
X147791742Y-130761835D01*
X147914981Y-130828527D01*
X148003732Y-130876557D01*
X148231718Y-130954825D01*
X148469477Y-130994500D01*
X148469478Y-130994500D01*
X148710522Y-130994500D01*
X148710523Y-130994500D01*
X148948282Y-130954825D01*
X149176268Y-130876557D01*
X149388263Y-130761832D01*
X149578482Y-130613778D01*
X149741739Y-130436434D01*
X149873579Y-130234638D01*
X149970406Y-130013894D01*
X150029580Y-129780223D01*
X150049485Y-129540000D01*
X150049485Y-129539993D01*
X150029581Y-129299784D01*
X150029579Y-129299773D01*
X149970406Y-129066107D01*
X149963576Y-129050537D01*
X149873579Y-128845362D01*
X149741739Y-128643566D01*
X149578482Y-128466222D01*
X149578481Y-128466221D01*
X149578479Y-128466219D01*
X149578475Y-128466216D01*
X149388266Y-128318170D01*
X149388257Y-128318164D01*
X149176274Y-128203446D01*
X149176271Y-128203445D01*
X149176268Y-128203443D01*
X149176262Y-128203441D01*
X149176260Y-128203440D01*
X148948284Y-128125175D01*
X148789776Y-128098725D01*
X148710523Y-128085500D01*
X148469477Y-128085500D01*
X148410037Y-128095418D01*
X148231715Y-128125175D01*
X148003739Y-128203440D01*
X148003725Y-128203446D01*
X147791742Y-128318164D01*
X147791733Y-128318170D01*
X147601524Y-128466216D01*
X147601520Y-128466219D01*
X147438262Y-128643564D01*
X147438259Y-128643568D01*
X147306421Y-128845360D01*
X147209593Y-129066107D01*
X147150420Y-129299773D01*
X147150418Y-129299784D01*
X147130515Y-129539993D01*
X147130515Y-129540006D01*
X143637000Y-129540006D01*
X143637000Y-126040006D01*
X147130515Y-126040006D01*
X147150418Y-126280215D01*
X147150420Y-126280226D01*
X147209593Y-126513892D01*
X147306421Y-126734639D01*
X147438259Y-126936431D01*
X147438262Y-126936435D01*
X147601520Y-127113780D01*
X147601524Y-127113783D01*
X147791737Y-127261832D01*
X147791739Y-127261833D01*
X147791742Y-127261835D01*
X147914981Y-127328527D01*
X148003732Y-127376557D01*
X148231718Y-127454825D01*
X148469477Y-127494500D01*
X148469478Y-127494500D01*
X148710522Y-127494500D01*
X148710523Y-127494500D01*
X148948282Y-127454825D01*
X149176268Y-127376557D01*
X149388263Y-127261832D01*
X149578482Y-127113778D01*
X149741739Y-126936434D01*
X149873579Y-126734638D01*
X149970406Y-126513894D01*
X150029580Y-126280223D01*
X150049485Y-126040000D01*
X150049485Y-126039993D01*
X150029581Y-125799784D01*
X150029579Y-125799773D01*
X149970406Y-125566107D01*
X149873578Y-125345360D01*
X149741740Y-125143568D01*
X149741739Y-125143566D01*
X149578482Y-124966222D01*
X149578481Y-124966221D01*
X149578479Y-124966219D01*
X149578475Y-124966216D01*
X149388266Y-124818170D01*
X149388257Y-124818164D01*
X149176274Y-124703446D01*
X149176271Y-124703445D01*
X149176268Y-124703443D01*
X149176262Y-124703441D01*
X149176260Y-124703440D01*
X148948284Y-124625175D01*
X148789776Y-124598725D01*
X148710523Y-124585500D01*
X148469477Y-124585500D01*
X148410037Y-124595418D01*
X148231715Y-124625175D01*
X148003739Y-124703440D01*
X148003725Y-124703446D01*
X147791742Y-124818164D01*
X147791733Y-124818170D01*
X147601524Y-124966216D01*
X147601520Y-124966219D01*
X147438262Y-125143564D01*
X147438259Y-125143568D01*
X147306421Y-125345360D01*
X147209593Y-125566107D01*
X147150420Y-125799773D01*
X147150418Y-125799784D01*
X147130515Y-126039993D01*
X147130515Y-126040006D01*
X143637000Y-126040006D01*
X143637000Y-122540006D01*
X147130515Y-122540006D01*
X147150418Y-122780215D01*
X147150420Y-122780226D01*
X147209593Y-123013892D01*
X147306421Y-123234639D01*
X147438259Y-123436431D01*
X147438262Y-123436435D01*
X147601520Y-123613780D01*
X147601524Y-123613783D01*
X147791737Y-123761832D01*
X147791739Y-123761833D01*
X147791742Y-123761835D01*
X147914981Y-123828527D01*
X148003732Y-123876557D01*
X148231718Y-123954825D01*
X148469477Y-123994500D01*
X148469478Y-123994500D01*
X148710522Y-123994500D01*
X148710523Y-123994500D01*
X148948282Y-123954825D01*
X149176268Y-123876557D01*
X149388263Y-123761832D01*
X149578482Y-123613778D01*
X149741739Y-123436434D01*
X149873579Y-123234638D01*
X149970406Y-123013894D01*
X150029580Y-122780223D01*
X150029581Y-122780215D01*
X150049485Y-122540006D01*
X150049485Y-122539993D01*
X150029581Y-122299784D01*
X150029579Y-122299773D01*
X149970406Y-122066107D01*
X149873578Y-121845360D01*
X149741740Y-121643568D01*
X149741739Y-121643566D01*
X149578482Y-121466222D01*
X149578481Y-121466221D01*
X149578479Y-121466219D01*
X149578475Y-121466216D01*
X149388266Y-121318170D01*
X149388257Y-121318164D01*
X149176274Y-121203446D01*
X149176271Y-121203445D01*
X149176268Y-121203443D01*
X149176262Y-121203441D01*
X149176260Y-121203440D01*
X148948284Y-121125175D01*
X148789776Y-121098725D01*
X148710523Y-121085500D01*
X148469477Y-121085500D01*
X148410037Y-121095418D01*
X148231715Y-121125175D01*
X148003739Y-121203440D01*
X148003725Y-121203446D01*
X147791742Y-121318164D01*
X147791733Y-121318170D01*
X147601524Y-121466216D01*
X147601520Y-121466219D01*
X147438262Y-121643564D01*
X147438259Y-121643568D01*
X147306421Y-121845360D01*
X147209593Y-122066107D01*
X147150420Y-122299773D01*
X147150418Y-122299784D01*
X147130515Y-122539993D01*
X147130515Y-122540006D01*
X143637000Y-122540006D01*
X143637000Y-121336362D01*
X143656685Y-121269323D01*
X143673319Y-121248681D01*
X144362681Y-120559319D01*
X144424004Y-120525834D01*
X144450362Y-120523000D01*
X150189638Y-120523000D01*
X150256677Y-120542685D01*
G37*
G04 #@! TD.AperFunction*
G04 #@! TD*
G04 #@! TA.AperFunction,Conductor*
G04 #@! TO.N,+3.3V*
G36*
X168217539Y-63520185D02*
G01*
X168263294Y-63572989D01*
X168274500Y-63624500D01*
X168274500Y-145925500D01*
X168254815Y-145992539D01*
X168202011Y-146038294D01*
X168150500Y-146049500D01*
X136649500Y-146049500D01*
X136582461Y-146029815D01*
X136536706Y-145977011D01*
X136525500Y-145925500D01*
X136525500Y-142942763D01*
X137845787Y-142942763D01*
X137875413Y-143212013D01*
X137875415Y-143212024D01*
X137943926Y-143474082D01*
X137943928Y-143474088D01*
X138049870Y-143723390D01*
X138084550Y-143780215D01*
X138190979Y-143954605D01*
X138190986Y-143954615D01*
X138364253Y-144162819D01*
X138364259Y-144162824D01*
X138565998Y-144343582D01*
X138791910Y-144493044D01*
X139037176Y-144608020D01*
X139037183Y-144608022D01*
X139037185Y-144608023D01*
X139296557Y-144686057D01*
X139296564Y-144686058D01*
X139296569Y-144686060D01*
X139564561Y-144725500D01*
X139564566Y-144725500D01*
X139767636Y-144725500D01*
X139819133Y-144721730D01*
X139970156Y-144710677D01*
X140082758Y-144685593D01*
X140234546Y-144651782D01*
X140234548Y-144651781D01*
X140234553Y-144651780D01*
X140487558Y-144555014D01*
X140723777Y-144422441D01*
X140938177Y-144256888D01*
X141126186Y-144061881D01*
X141283799Y-143841579D01*
X141357787Y-143697669D01*
X141407649Y-143600690D01*
X141407651Y-143600684D01*
X141407656Y-143600675D01*
X141495118Y-143344305D01*
X141544319Y-143077933D01*
X141554212Y-142807235D01*
X141524586Y-142537982D01*
X141456072Y-142275912D01*
X141350130Y-142026610D01*
X141209018Y-141795390D01*
X141119747Y-141688119D01*
X141035746Y-141587180D01*
X141035740Y-141587175D01*
X140834002Y-141406418D01*
X140608092Y-141256957D01*
X140608090Y-141256956D01*
X140362824Y-141141980D01*
X140362819Y-141141978D01*
X140362814Y-141141976D01*
X140103442Y-141063942D01*
X140103428Y-141063939D01*
X139979070Y-141045638D01*
X139835439Y-141024500D01*
X139632369Y-141024500D01*
X139632364Y-141024500D01*
X139429844Y-141039323D01*
X139429831Y-141039325D01*
X139165453Y-141098217D01*
X139165446Y-141098220D01*
X138912439Y-141194987D01*
X138676226Y-141327557D01*
X138461822Y-141493112D01*
X138273822Y-141688109D01*
X138273816Y-141688116D01*
X138116202Y-141908419D01*
X138116199Y-141908424D01*
X137992350Y-142149309D01*
X137992343Y-142149327D01*
X137904884Y-142405685D01*
X137904881Y-142405699D01*
X137855681Y-142672068D01*
X137855680Y-142672075D01*
X137845787Y-142942763D01*
X136525500Y-142942763D01*
X136525500Y-138938000D01*
X137643693Y-138938000D01*
X137662850Y-139095781D01*
X137698303Y-139189260D01*
X137719213Y-139244395D01*
X137809502Y-139375201D01*
X137809504Y-139375203D01*
X137809506Y-139375205D01*
X137928469Y-139480598D01*
X137928471Y-139480599D01*
X138069207Y-139554463D01*
X138146368Y-139573481D01*
X138223528Y-139592500D01*
X138223529Y-139592500D01*
X138382472Y-139592500D01*
X138433911Y-139579821D01*
X138536793Y-139554463D01*
X138677529Y-139480599D01*
X138796498Y-139375201D01*
X138886787Y-139244395D01*
X138943149Y-139095782D01*
X138962307Y-138938000D01*
X138948161Y-138821500D01*
X138943149Y-138780218D01*
X138935333Y-138759609D01*
X138886787Y-138631605D01*
X138796498Y-138500799D01*
X138796495Y-138500796D01*
X138796493Y-138500794D01*
X138677530Y-138395401D01*
X138536791Y-138321536D01*
X138382472Y-138283500D01*
X138382471Y-138283500D01*
X138223529Y-138283500D01*
X138223528Y-138283500D01*
X138069208Y-138321536D01*
X137928469Y-138395401D01*
X137809506Y-138500794D01*
X137809500Y-138500801D01*
X137719214Y-138631602D01*
X137662850Y-138780218D01*
X137643693Y-138937999D01*
X137643693Y-138938000D01*
X136525500Y-138938000D01*
X136525500Y-130940001D01*
X140276715Y-130940001D01*
X140295771Y-131084752D01*
X140295773Y-131084757D01*
X140351642Y-131219638D01*
X140351645Y-131219644D01*
X140440525Y-131335473D01*
X140440526Y-131335474D01*
X140556355Y-131424354D01*
X140556361Y-131424357D01*
X140623801Y-131452291D01*
X140691246Y-131480228D01*
X140763623Y-131489756D01*
X140835999Y-131499285D01*
X140836000Y-131499285D01*
X140836001Y-131499285D01*
X140884251Y-131492932D01*
X140980754Y-131480228D01*
X141115643Y-131424355D01*
X141210513Y-131351557D01*
X141275682Y-131326363D01*
X141344127Y-131340401D01*
X141361487Y-131351558D01*
X141456355Y-131424354D01*
X141456361Y-131424357D01*
X141523801Y-131452291D01*
X141591246Y-131480228D01*
X141663623Y-131489756D01*
X141735999Y-131499285D01*
X141736000Y-131499285D01*
X141736001Y-131499285D01*
X141784251Y-131492932D01*
X141880754Y-131480228D01*
X142015643Y-131424355D01*
X142110513Y-131351557D01*
X142175682Y-131326363D01*
X142244127Y-131340401D01*
X142261487Y-131351558D01*
X142356355Y-131424354D01*
X142356361Y-131424357D01*
X142423801Y-131452291D01*
X142491246Y-131480228D01*
X142563623Y-131489756D01*
X142635999Y-131499285D01*
X142636000Y-131499285D01*
X142636001Y-131499285D01*
X142684251Y-131492932D01*
X142780754Y-131480228D01*
X142915643Y-131424355D01*
X143031474Y-131335474D01*
X143120355Y-131219643D01*
X143138939Y-131174778D01*
X143182779Y-131120374D01*
X143249073Y-131098309D01*
X143316773Y-131115588D01*
X143364384Y-131166725D01*
X143377500Y-131222230D01*
X143377500Y-133040003D01*
X143377500Y-136540003D01*
X143377500Y-140040003D01*
X143377500Y-141052588D01*
X143378244Y-141066469D01*
X143378245Y-141066477D01*
X143381821Y-141099738D01*
X143381821Y-141099739D01*
X143395047Y-141141976D01*
X143412076Y-141196361D01*
X143412078Y-141196365D01*
X143412079Y-141196367D01*
X143445562Y-141257687D01*
X143489816Y-141316802D01*
X143489834Y-141316823D01*
X144184099Y-142011087D01*
X144184100Y-142011088D01*
X144194443Y-142020380D01*
X144194443Y-142020379D01*
X144220497Y-142041374D01*
X144220499Y-142041375D01*
X144310207Y-142088301D01*
X144310212Y-142088304D01*
X144360340Y-142103022D01*
X144377250Y-142107988D01*
X144377254Y-142107988D01*
X144377256Y-142107989D01*
X144389069Y-142109687D01*
X144450362Y-142118500D01*
X147023478Y-142118500D01*
X147090517Y-142138185D01*
X147136272Y-142190989D01*
X147146216Y-142260147D01*
X147145096Y-142266690D01*
X147135500Y-142314934D01*
X147135500Y-144765063D01*
X147150266Y-144839301D01*
X147206515Y-144923484D01*
X147240234Y-144946014D01*
X147290699Y-144979734D01*
X147290702Y-144979734D01*
X147290703Y-144979735D01*
X147315666Y-144984700D01*
X147364933Y-144994500D01*
X149815066Y-144994499D01*
X149889301Y-144979734D01*
X149973484Y-144923484D01*
X150029734Y-144839301D01*
X150044500Y-144765067D01*
X150044499Y-142314934D01*
X150034903Y-142266687D01*
X150041132Y-142197098D01*
X150083996Y-142141921D01*
X150149886Y-142118678D01*
X150156521Y-142118500D01*
X155307072Y-142118500D01*
X155374111Y-142138185D01*
X155419866Y-142190989D01*
X155429810Y-142260147D01*
X155400785Y-142323703D01*
X155383240Y-142340347D01*
X155299296Y-142405685D01*
X155221519Y-142466221D01*
X155058262Y-142643564D01*
X155058259Y-142643568D01*
X154926421Y-142845360D01*
X154829593Y-143066107D01*
X154770420Y-143299773D01*
X154770418Y-143299784D01*
X154750515Y-143539993D01*
X154750515Y-143540006D01*
X154770418Y-143780215D01*
X154770420Y-143780226D01*
X154829593Y-144013892D01*
X154926421Y-144234639D01*
X155058259Y-144436431D01*
X155058261Y-144436434D01*
X155216217Y-144608020D01*
X155221520Y-144613780D01*
X155221524Y-144613783D01*
X155365058Y-144725500D01*
X155411737Y-144761832D01*
X155411739Y-144761833D01*
X155411742Y-144761835D01*
X155417722Y-144765071D01*
X155623732Y-144876557D01*
X155851718Y-144954825D01*
X156089477Y-144994500D01*
X156089478Y-144994500D01*
X156330522Y-144994500D01*
X156330523Y-144994500D01*
X156568282Y-144954825D01*
X156796268Y-144876557D01*
X157008263Y-144761832D01*
X157198482Y-144613778D01*
X157361739Y-144436434D01*
X157493579Y-144234638D01*
X157590406Y-144013894D01*
X157649580Y-143780223D01*
X157649581Y-143780215D01*
X157669485Y-143540006D01*
X157669485Y-143539993D01*
X157649581Y-143299784D01*
X157649579Y-143299773D01*
X157593401Y-143077933D01*
X157590406Y-143066106D01*
X157536303Y-142942763D01*
X163245787Y-142942763D01*
X163275413Y-143212013D01*
X163275415Y-143212024D01*
X163343926Y-143474082D01*
X163343928Y-143474088D01*
X163449870Y-143723390D01*
X163484550Y-143780215D01*
X163590979Y-143954605D01*
X163590986Y-143954615D01*
X163764253Y-144162819D01*
X163764259Y-144162824D01*
X163965998Y-144343582D01*
X164191910Y-144493044D01*
X164437176Y-144608020D01*
X164437183Y-144608022D01*
X164437185Y-144608023D01*
X164696557Y-144686057D01*
X164696564Y-144686058D01*
X164696569Y-144686060D01*
X164964561Y-144725500D01*
X164964566Y-144725500D01*
X165167636Y-144725500D01*
X165219133Y-144721730D01*
X165370156Y-144710677D01*
X165482758Y-144685593D01*
X165634546Y-144651782D01*
X165634548Y-144651781D01*
X165634553Y-144651780D01*
X165887558Y-144555014D01*
X166123777Y-144422441D01*
X166338177Y-144256888D01*
X166526186Y-144061881D01*
X166683799Y-143841579D01*
X166757787Y-143697669D01*
X166807649Y-143600690D01*
X166807651Y-143600684D01*
X166807656Y-143600675D01*
X166895118Y-143344305D01*
X166944319Y-143077933D01*
X166954212Y-142807235D01*
X166924586Y-142537982D01*
X166856072Y-142275912D01*
X166750130Y-142026610D01*
X166609018Y-141795390D01*
X166519747Y-141688119D01*
X166435746Y-141587180D01*
X166435740Y-141587175D01*
X166234002Y-141406418D01*
X166008092Y-141256957D01*
X166008090Y-141256956D01*
X165762824Y-141141980D01*
X165762819Y-141141978D01*
X165762814Y-141141976D01*
X165503442Y-141063942D01*
X165503428Y-141063939D01*
X165379070Y-141045638D01*
X165235439Y-141024500D01*
X165032369Y-141024500D01*
X165032364Y-141024500D01*
X164829844Y-141039323D01*
X164829831Y-141039325D01*
X164565453Y-141098217D01*
X164565446Y-141098220D01*
X164312439Y-141194987D01*
X164076226Y-141327557D01*
X163861822Y-141493112D01*
X163673822Y-141688109D01*
X163673816Y-141688116D01*
X163516202Y-141908419D01*
X163516199Y-141908424D01*
X163392350Y-142149309D01*
X163392343Y-142149327D01*
X163304884Y-142405685D01*
X163304881Y-142405699D01*
X163255681Y-142672068D01*
X163255680Y-142672075D01*
X163245787Y-142942763D01*
X157536303Y-142942763D01*
X157493579Y-142845362D01*
X157468669Y-142807235D01*
X157380360Y-142672068D01*
X157361739Y-142643566D01*
X157198482Y-142466222D01*
X157198481Y-142466221D01*
X157198479Y-142466219D01*
X157198475Y-142466216D01*
X157008265Y-142318169D01*
X157006206Y-142316824D01*
X157005552Y-142316058D01*
X157004216Y-142315018D01*
X157004430Y-142314742D01*
X156960855Y-142263673D01*
X156951438Y-142194441D01*
X156980946Y-142131108D01*
X157036982Y-142094688D01*
X157071361Y-142083924D01*
X157132684Y-142050439D01*
X157191813Y-142006175D01*
X157886090Y-141311898D01*
X157887658Y-141310151D01*
X157895380Y-141301557D01*
X157895379Y-141301557D01*
X157916374Y-141275503D01*
X157963303Y-141185789D01*
X157982988Y-141118750D01*
X157993500Y-141045638D01*
X157993500Y-139236412D01*
X157992756Y-139222531D01*
X157989179Y-139189263D01*
X157958924Y-139092639D01*
X157925439Y-139031316D01*
X157925437Y-139031312D01*
X157881183Y-138972197D01*
X157881178Y-138972192D01*
X157881175Y-138972187D01*
X157881171Y-138972183D01*
X157881165Y-138972176D01*
X157187988Y-138279000D01*
X162918443Y-138279000D01*
X162937600Y-138436781D01*
X162993964Y-138585397D01*
X163070093Y-138695689D01*
X163084252Y-138716201D01*
X163084254Y-138716203D01*
X163084256Y-138716205D01*
X163203219Y-138821598D01*
X163203221Y-138821599D01*
X163343957Y-138895463D01*
X163421118Y-138914481D01*
X163498278Y-138933500D01*
X163498279Y-138933500D01*
X163657222Y-138933500D01*
X163708661Y-138920821D01*
X163811543Y-138895463D01*
X163952279Y-138821599D01*
X163952279Y-138821598D01*
X163958921Y-138818113D01*
X163959575Y-138819360D01*
X164018167Y-138800040D01*
X164085818Y-138817507D01*
X164092034Y-138821500D01*
X164092218Y-138821596D01*
X164092221Y-138821599D01*
X164232957Y-138895463D01*
X164310118Y-138914481D01*
X164387278Y-138933500D01*
X164387279Y-138933500D01*
X164546222Y-138933500D01*
X164597661Y-138920821D01*
X164700543Y-138895463D01*
X164841279Y-138821599D01*
X164841279Y-138821598D01*
X164847921Y-138818113D01*
X164848575Y-138819360D01*
X164907167Y-138800040D01*
X164974818Y-138817507D01*
X164981034Y-138821500D01*
X164981218Y-138821596D01*
X164981221Y-138821599D01*
X165121957Y-138895463D01*
X165199118Y-138914481D01*
X165276278Y-138933500D01*
X165276279Y-138933500D01*
X165435222Y-138933500D01*
X165486661Y-138920821D01*
X165589543Y-138895463D01*
X165730279Y-138821599D01*
X165730279Y-138821598D01*
X165736921Y-138818113D01*
X165737575Y-138819360D01*
X165796167Y-138800040D01*
X165863818Y-138817507D01*
X165870034Y-138821500D01*
X165870218Y-138821596D01*
X165870221Y-138821599D01*
X166010957Y-138895463D01*
X166088118Y-138914481D01*
X166165278Y-138933500D01*
X166165279Y-138933500D01*
X166324222Y-138933500D01*
X166375661Y-138920821D01*
X166478543Y-138895463D01*
X166619279Y-138821599D01*
X166619279Y-138821598D01*
X166625921Y-138818113D01*
X166626575Y-138819360D01*
X166685167Y-138800040D01*
X166752818Y-138817507D01*
X166759034Y-138821500D01*
X166759218Y-138821596D01*
X166759221Y-138821599D01*
X166899957Y-138895463D01*
X166977118Y-138914481D01*
X167054278Y-138933500D01*
X167054279Y-138933500D01*
X167213222Y-138933500D01*
X167264661Y-138920821D01*
X167367543Y-138895463D01*
X167508279Y-138821599D01*
X167627248Y-138716201D01*
X167717537Y-138585395D01*
X167773899Y-138436782D01*
X167793057Y-138279000D01*
X167773899Y-138121218D01*
X167717537Y-137972605D01*
X167670830Y-137904939D01*
X167648948Y-137838586D01*
X167666413Y-137770934D01*
X167670831Y-137764060D01*
X167672371Y-137761829D01*
X167717537Y-137696395D01*
X167773899Y-137547782D01*
X167793057Y-137390000D01*
X167773899Y-137232218D01*
X167717537Y-137083605D01*
X167670830Y-137015939D01*
X167648948Y-136949586D01*
X167666413Y-136881934D01*
X167670831Y-136875060D01*
X167717537Y-136807395D01*
X167773899Y-136658782D01*
X167793057Y-136501000D01*
X167773899Y-136343218D01*
X167717537Y-136194605D01*
X167627248Y-136063799D01*
X167627247Y-136063798D01*
X167627000Y-136063440D01*
X167605117Y-135997086D01*
X167622582Y-135929434D01*
X167627000Y-135922560D01*
X167680286Y-135845362D01*
X167717537Y-135791395D01*
X167773899Y-135642782D01*
X167793057Y-135485000D01*
X167773899Y-135327218D01*
X167717537Y-135178605D01*
X167670830Y-135110939D01*
X167648948Y-135044586D01*
X167666413Y-134976934D01*
X167670831Y-134970060D01*
X167717537Y-134902395D01*
X167773899Y-134753782D01*
X167793057Y-134596000D01*
X167773899Y-134438218D01*
X167717537Y-134289605D01*
X167670830Y-134221939D01*
X167648948Y-134155586D01*
X167666413Y-134087934D01*
X167670831Y-134081060D01*
X167717537Y-134013395D01*
X167773899Y-133864782D01*
X167793057Y-133707000D01*
X167773899Y-133549218D01*
X167717537Y-133400605D01*
X167627248Y-133269799D01*
X167627245Y-133269796D01*
X167627243Y-133269794D01*
X167508280Y-133164401D01*
X167367541Y-133090536D01*
X167213222Y-133052500D01*
X167213221Y-133052500D01*
X167054279Y-133052500D01*
X167054278Y-133052500D01*
X166899958Y-133090536D01*
X166752579Y-133167887D01*
X166751924Y-133166639D01*
X166693333Y-133185960D01*
X166625682Y-133168493D01*
X166619465Y-133164499D01*
X166619280Y-133164401D01*
X166619279Y-133164401D01*
X166478543Y-133090537D01*
X166478542Y-133090536D01*
X166478541Y-133090536D01*
X166324222Y-133052500D01*
X166324221Y-133052500D01*
X166165279Y-133052500D01*
X166165278Y-133052500D01*
X166010958Y-133090536D01*
X165863579Y-133167887D01*
X165862924Y-133166639D01*
X165804333Y-133185960D01*
X165736682Y-133168493D01*
X165730465Y-133164499D01*
X165730280Y-133164401D01*
X165730279Y-133164401D01*
X165589543Y-133090537D01*
X165589542Y-133090536D01*
X165589541Y-133090536D01*
X165435222Y-133052500D01*
X165435221Y-133052500D01*
X165276279Y-133052500D01*
X165276278Y-133052500D01*
X165121958Y-133090536D01*
X164974579Y-133167887D01*
X164973924Y-133166639D01*
X164915333Y-133185960D01*
X164847682Y-133168493D01*
X164841465Y-133164499D01*
X164841280Y-133164401D01*
X164841279Y-133164401D01*
X164700543Y-133090537D01*
X164700542Y-133090536D01*
X164700541Y-133090536D01*
X164546222Y-133052500D01*
X164546221Y-133052500D01*
X164387279Y-133052500D01*
X164387278Y-133052500D01*
X164232958Y-133090536D01*
X164085579Y-133167887D01*
X164084924Y-133166639D01*
X164026333Y-133185960D01*
X163958682Y-133168493D01*
X163952465Y-133164499D01*
X163952280Y-133164401D01*
X163952279Y-133164401D01*
X163811543Y-133090537D01*
X163811542Y-133090536D01*
X163811541Y-133090536D01*
X163657222Y-133052500D01*
X163657221Y-133052500D01*
X163498279Y-133052500D01*
X163498278Y-133052500D01*
X163343958Y-133090536D01*
X163203219Y-133164401D01*
X163084256Y-133269794D01*
X163084250Y-133269801D01*
X162993964Y-133400602D01*
X162937600Y-133549218D01*
X162918443Y-133706999D01*
X162918443Y-133707000D01*
X162937600Y-133864781D01*
X162993964Y-134013398D01*
X162993966Y-134013401D01*
X163040668Y-134081061D01*
X163062551Y-134147415D01*
X163045085Y-134215067D01*
X163040668Y-134221939D01*
X162993966Y-134289598D01*
X162993964Y-134289601D01*
X162937600Y-134438218D01*
X162918443Y-134595999D01*
X162918443Y-134596000D01*
X162937600Y-134753781D01*
X162978177Y-134860773D01*
X162993963Y-134902395D01*
X163084252Y-135033201D01*
X163084254Y-135033203D01*
X163084256Y-135033205D01*
X163203219Y-135138598D01*
X163203221Y-135138599D01*
X163343957Y-135212463D01*
X163421118Y-135231481D01*
X163498278Y-135250500D01*
X163498279Y-135250500D01*
X163657222Y-135250500D01*
X163708661Y-135237821D01*
X163811543Y-135212463D01*
X163952279Y-135138599D01*
X163952279Y-135138598D01*
X163958921Y-135135113D01*
X163959575Y-135136360D01*
X164018167Y-135117040D01*
X164085818Y-135134507D01*
X164092034Y-135138500D01*
X164092218Y-135138596D01*
X164092221Y-135138599D01*
X164232957Y-135212463D01*
X164310118Y-135231481D01*
X164387278Y-135250500D01*
X164387279Y-135250500D01*
X164546222Y-135250500D01*
X164597661Y-135237821D01*
X164700543Y-135212463D01*
X164841279Y-135138599D01*
X164841279Y-135138598D01*
X164847921Y-135135113D01*
X164848575Y-135136360D01*
X164907167Y-135117040D01*
X164974818Y-135134507D01*
X164981034Y-135138500D01*
X164981218Y-135138596D01*
X164981221Y-135138599D01*
X165121957Y-135212463D01*
X165199118Y-135231481D01*
X165276278Y-135250500D01*
X165276279Y-135250500D01*
X165435222Y-135250500D01*
X165440829Y-135249117D01*
X165444998Y-135248090D01*
X165514801Y-135251155D01*
X165571865Y-135291472D01*
X165598073Y-135356240D01*
X165597775Y-135383431D01*
X165585443Y-135484999D01*
X165585443Y-135485000D01*
X165604600Y-135642781D01*
X165660964Y-135791397D01*
X165751499Y-135922560D01*
X165773382Y-135988915D01*
X165755916Y-136056566D01*
X165751499Y-136063440D01*
X165660964Y-136194602D01*
X165604600Y-136343218D01*
X165585443Y-136500999D01*
X165585443Y-136501000D01*
X165597775Y-136602568D01*
X165586314Y-136671491D01*
X165539410Y-136723277D01*
X165471954Y-136741484D01*
X165445005Y-136737911D01*
X165435223Y-136735500D01*
X165435221Y-136735500D01*
X165276279Y-136735500D01*
X165276278Y-136735500D01*
X165121958Y-136773536D01*
X164974579Y-136850887D01*
X164973924Y-136849639D01*
X164915333Y-136868960D01*
X164847682Y-136851493D01*
X164841465Y-136847499D01*
X164841280Y-136847401D01*
X164841279Y-136847401D01*
X164700543Y-136773537D01*
X164700542Y-136773536D01*
X164700541Y-136773536D01*
X164546222Y-136735500D01*
X164546221Y-136735500D01*
X164387279Y-136735500D01*
X164387278Y-136735500D01*
X164232958Y-136773536D01*
X164085579Y-136850887D01*
X164084924Y-136849639D01*
X164026333Y-136868960D01*
X163958682Y-136851493D01*
X163952465Y-136847499D01*
X163952280Y-136847401D01*
X163952279Y-136847401D01*
X163811543Y-136773537D01*
X163811542Y-136773536D01*
X163811541Y-136773536D01*
X163657222Y-136735500D01*
X163657221Y-136735500D01*
X163498279Y-136735500D01*
X163498278Y-136735500D01*
X163343958Y-136773536D01*
X163203219Y-136847401D01*
X163084256Y-136952794D01*
X163084250Y-136952801D01*
X162993964Y-137083602D01*
X162937600Y-137232218D01*
X162918443Y-137389999D01*
X162918443Y-137390000D01*
X162937600Y-137547781D01*
X162993964Y-137696398D01*
X162993966Y-137696401D01*
X163040668Y-137764061D01*
X163062551Y-137830415D01*
X163045085Y-137898067D01*
X163040668Y-137904939D01*
X162993966Y-137972598D01*
X162993964Y-137972601D01*
X162937600Y-138121218D01*
X162918443Y-138278999D01*
X162918443Y-138279000D01*
X157187988Y-138279000D01*
X157186901Y-138277913D01*
X157186900Y-138277912D01*
X157176557Y-138268620D01*
X157176557Y-138268621D01*
X157150503Y-138247626D01*
X157150501Y-138247625D01*
X157150500Y-138247624D01*
X157060792Y-138200698D01*
X157060787Y-138200695D01*
X156993755Y-138181013D01*
X156993743Y-138181010D01*
X156920639Y-138170500D01*
X156920638Y-138170500D01*
X156683134Y-138170500D01*
X156616095Y-138150815D01*
X156570340Y-138098011D01*
X156560396Y-138028853D01*
X156589421Y-137965297D01*
X156642871Y-137929219D01*
X156713594Y-137904939D01*
X156796268Y-137876557D01*
X157008263Y-137761832D01*
X157198482Y-137613778D01*
X157361739Y-137436434D01*
X157493579Y-137234638D01*
X157590406Y-137013894D01*
X157649580Y-136780223D01*
X157669485Y-136540000D01*
X157669485Y-136539993D01*
X157649581Y-136299784D01*
X157649579Y-136299773D01*
X157590406Y-136066107D01*
X157589236Y-136063440D01*
X157493579Y-135845362D01*
X157361739Y-135643566D01*
X157198482Y-135466222D01*
X157198481Y-135466221D01*
X157198479Y-135466219D01*
X157198475Y-135466216D01*
X157008266Y-135318170D01*
X157008257Y-135318164D01*
X156796274Y-135203446D01*
X156796271Y-135203445D01*
X156796268Y-135203443D01*
X156796262Y-135203441D01*
X156796260Y-135203440D01*
X156568284Y-135125175D01*
X156409776Y-135098725D01*
X156330523Y-135085500D01*
X156089477Y-135085500D01*
X156030037Y-135095418D01*
X155851715Y-135125175D01*
X155623739Y-135203440D01*
X155623725Y-135203446D01*
X155411742Y-135318164D01*
X155411733Y-135318170D01*
X155221524Y-135466216D01*
X155221520Y-135466219D01*
X155058262Y-135643564D01*
X155058259Y-135643568D01*
X154926421Y-135845360D01*
X154829593Y-136066107D01*
X154770420Y-136299773D01*
X154770418Y-136299784D01*
X154750515Y-136539993D01*
X154750515Y-136540006D01*
X154770418Y-136780215D01*
X154770420Y-136780226D01*
X154829593Y-137013892D01*
X154926421Y-137234639D01*
X155058259Y-137436431D01*
X155058262Y-137436435D01*
X155221520Y-137613780D01*
X155221524Y-137613783D01*
X155411733Y-137761829D01*
X155411737Y-137761832D01*
X155411739Y-137761833D01*
X155411742Y-137761835D01*
X155428556Y-137770934D01*
X155623732Y-137876557D01*
X155686388Y-137898067D01*
X155777129Y-137929219D01*
X155834144Y-137969605D01*
X155860275Y-138034404D01*
X155847223Y-138103044D01*
X155799135Y-138153732D01*
X155736866Y-138170500D01*
X151386500Y-138170500D01*
X151319461Y-138150815D01*
X151273706Y-138098011D01*
X151262500Y-138046500D01*
X151262500Y-134265063D01*
X154755500Y-134265063D01*
X154770266Y-134339301D01*
X154826515Y-134423484D01*
X154860234Y-134446014D01*
X154910699Y-134479734D01*
X154910702Y-134479734D01*
X154910703Y-134479735D01*
X154935666Y-134484700D01*
X154984933Y-134494500D01*
X157435066Y-134494499D01*
X157509301Y-134479734D01*
X157593484Y-134423484D01*
X157649734Y-134339301D01*
X157664500Y-134265067D01*
X157664499Y-131814934D01*
X157649734Y-131740699D01*
X157631068Y-131712765D01*
X157593484Y-131656515D01*
X157543019Y-131622796D01*
X157509301Y-131600266D01*
X157509299Y-131600265D01*
X157509296Y-131600264D01*
X157435069Y-131585500D01*
X154984936Y-131585500D01*
X154910698Y-131600266D01*
X154826515Y-131656515D01*
X154770266Y-131740699D01*
X154770264Y-131740703D01*
X154755500Y-131814928D01*
X154755500Y-134265063D01*
X151262500Y-134265063D01*
X151262500Y-129667000D01*
X156185693Y-129667000D01*
X156204850Y-129824781D01*
X156239288Y-129915585D01*
X156256269Y-129960360D01*
X156261214Y-129973397D01*
X156336591Y-130082599D01*
X156351502Y-130104201D01*
X156351504Y-130104203D01*
X156351506Y-130104205D01*
X156470469Y-130209598D01*
X156470471Y-130209599D01*
X156611207Y-130283463D01*
X156688368Y-130302481D01*
X156765528Y-130321500D01*
X156765529Y-130321500D01*
X156924472Y-130321500D01*
X156975911Y-130308821D01*
X157078793Y-130283463D01*
X157219529Y-130209599D01*
X157338498Y-130104201D01*
X157428787Y-129973395D01*
X157485149Y-129824782D01*
X157504307Y-129667000D01*
X157488887Y-129540000D01*
X159233693Y-129540000D01*
X159252850Y-129697781D01*
X159309214Y-129846397D01*
X159356971Y-129915585D01*
X159399502Y-129977201D01*
X159399504Y-129977203D01*
X159399506Y-129977205D01*
X159518469Y-130082598D01*
X159518471Y-130082599D01*
X159659207Y-130156463D01*
X159736368Y-130175481D01*
X159813528Y-130194500D01*
X159813529Y-130194500D01*
X159972472Y-130194500D01*
X160023911Y-130181821D01*
X160126793Y-130156463D01*
X160267529Y-130082599D01*
X160386498Y-129977201D01*
X160476787Y-129846395D01*
X160533149Y-129697782D01*
X160552307Y-129540000D01*
X160551589Y-129534090D01*
X160533149Y-129382218D01*
X160521637Y-129351863D01*
X160476787Y-129233605D01*
X160474156Y-129229794D01*
X160406562Y-129131867D01*
X160386498Y-129102799D01*
X160386495Y-129102796D01*
X160386493Y-129102794D01*
X160267530Y-128997401D01*
X160126791Y-128923536D01*
X159972472Y-128885500D01*
X159972471Y-128885500D01*
X159813529Y-128885500D01*
X159813528Y-128885500D01*
X159659208Y-128923536D01*
X159518469Y-128997401D01*
X159399506Y-129102794D01*
X159399500Y-129102801D01*
X159309214Y-129233602D01*
X159252850Y-129382218D01*
X159233693Y-129539999D01*
X159233693Y-129540000D01*
X157488887Y-129540000D01*
X157485149Y-129509218D01*
X157428787Y-129360605D01*
X157338498Y-129229799D01*
X157338495Y-129229796D01*
X157338493Y-129229794D01*
X157219530Y-129124401D01*
X157078791Y-129050536D01*
X156924472Y-129012500D01*
X156924471Y-129012500D01*
X156765529Y-129012500D01*
X156765528Y-129012500D01*
X156611208Y-129050536D01*
X156470469Y-129124401D01*
X156351506Y-129229794D01*
X156351500Y-129229801D01*
X156261214Y-129360602D01*
X156204850Y-129509218D01*
X156185693Y-129666999D01*
X156185693Y-129667000D01*
X151262500Y-129667000D01*
X151262500Y-126746000D01*
X164440693Y-126746000D01*
X164459850Y-126903781D01*
X164500427Y-127010773D01*
X164516213Y-127052395D01*
X164606502Y-127183201D01*
X164606504Y-127183203D01*
X164606506Y-127183205D01*
X164725469Y-127288598D01*
X164725471Y-127288599D01*
X164866207Y-127362463D01*
X164943368Y-127381481D01*
X165020528Y-127400500D01*
X165020529Y-127400500D01*
X165179472Y-127400500D01*
X165230911Y-127387821D01*
X165333793Y-127362463D01*
X165474529Y-127288599D01*
X165593498Y-127183201D01*
X165683787Y-127052395D01*
X165740149Y-126903782D01*
X165759307Y-126746000D01*
X165740149Y-126588218D01*
X165683787Y-126439605D01*
X165593498Y-126308799D01*
X165593495Y-126308796D01*
X165593493Y-126308794D01*
X165474530Y-126203401D01*
X165333791Y-126129536D01*
X165179472Y-126091500D01*
X165179471Y-126091500D01*
X165020529Y-126091500D01*
X165020528Y-126091500D01*
X164866208Y-126129536D01*
X164725469Y-126203401D01*
X164606506Y-126308794D01*
X164606500Y-126308801D01*
X164516214Y-126439602D01*
X164459850Y-126588218D01*
X164440693Y-126745999D01*
X164440693Y-126746000D01*
X151262500Y-126746000D01*
X151262500Y-122428000D01*
X152502693Y-122428000D01*
X152521850Y-122585781D01*
X152562427Y-122692773D01*
X152578213Y-122734395D01*
X152668502Y-122865201D01*
X152668504Y-122865203D01*
X152668506Y-122865205D01*
X152787469Y-122970598D01*
X152787471Y-122970599D01*
X152928207Y-123044463D01*
X153005368Y-123063481D01*
X153082528Y-123082500D01*
X153082529Y-123082500D01*
X153241472Y-123082500D01*
X153292911Y-123069821D01*
X153395793Y-123044463D01*
X153536529Y-122970599D01*
X153655498Y-122865201D01*
X153745787Y-122734395D01*
X153802149Y-122585782D01*
X153821307Y-122428000D01*
X154788693Y-122428000D01*
X154807850Y-122585781D01*
X154848427Y-122692773D01*
X154864213Y-122734395D01*
X154954502Y-122865201D01*
X154954504Y-122865203D01*
X154954506Y-122865205D01*
X155073469Y-122970598D01*
X155073471Y-122970599D01*
X155214207Y-123044463D01*
X155291368Y-123063481D01*
X155368528Y-123082500D01*
X155368529Y-123082500D01*
X155527472Y-123082500D01*
X155578911Y-123069821D01*
X155681793Y-123044463D01*
X155822529Y-122970599D01*
X155941498Y-122865201D01*
X156031787Y-122734395D01*
X156088149Y-122585782D01*
X156107307Y-122428000D01*
X156105679Y-122414595D01*
X156117139Y-122345674D01*
X156164041Y-122293887D01*
X156231497Y-122275679D01*
X156298088Y-122296830D01*
X156310996Y-122306829D01*
X156343471Y-122335599D01*
X156484207Y-122409463D01*
X156559423Y-122428002D01*
X156638528Y-122447500D01*
X156638529Y-122447500D01*
X156797472Y-122447500D01*
X156876577Y-122428002D01*
X156951793Y-122409463D01*
X157025537Y-122370758D01*
X157094045Y-122357033D01*
X157159099Y-122382526D01*
X157200043Y-122439141D01*
X157206259Y-122465608D01*
X157220850Y-122585781D01*
X157261427Y-122692773D01*
X157277213Y-122734395D01*
X157367502Y-122865201D01*
X157367504Y-122865203D01*
X157367506Y-122865205D01*
X157486469Y-122970598D01*
X157486471Y-122970599D01*
X157627207Y-123044463D01*
X157704368Y-123063481D01*
X157781528Y-123082500D01*
X157781529Y-123082500D01*
X157940472Y-123082500D01*
X157991911Y-123069821D01*
X158094793Y-123044463D01*
X158235529Y-122970599D01*
X158354498Y-122865201D01*
X158444787Y-122734395D01*
X158501149Y-122585782D01*
X158509192Y-122519536D01*
X158536813Y-122455359D01*
X158594747Y-122416302D01*
X158661963Y-122414086D01*
X158797528Y-122447500D01*
X158797529Y-122447500D01*
X158956472Y-122447500D01*
X159035577Y-122428002D01*
X159110793Y-122409463D01*
X159251529Y-122335599D01*
X159370498Y-122230201D01*
X159460787Y-122099395D01*
X159517149Y-121950782D01*
X159520887Y-121920000D01*
X160249693Y-121920000D01*
X160268850Y-122077781D01*
X160325214Y-122226397D01*
X160400591Y-122335599D01*
X160415502Y-122357201D01*
X160415504Y-122357203D01*
X160415506Y-122357205D01*
X160534469Y-122462598D01*
X160534471Y-122462599D01*
X160675207Y-122536463D01*
X160752368Y-122555481D01*
X160829528Y-122574500D01*
X160829529Y-122574500D01*
X160988472Y-122574500D01*
X161039911Y-122561821D01*
X161142793Y-122536463D01*
X161283529Y-122462599D01*
X161402498Y-122357201D01*
X161492787Y-122226395D01*
X161492790Y-122226384D01*
X161496271Y-122219756D01*
X161498252Y-122220795D01*
X161533729Y-122173936D01*
X161599325Y-122149875D01*
X161667516Y-122165097D01*
X161716653Y-122214769D01*
X161720280Y-122222711D01*
X161722211Y-122226391D01*
X161722213Y-122226395D01*
X161812502Y-122357201D01*
X161812504Y-122357203D01*
X161812506Y-122357205D01*
X161931469Y-122462598D01*
X161931471Y-122462599D01*
X162072207Y-122536463D01*
X162149368Y-122555481D01*
X162226528Y-122574500D01*
X162226529Y-122574500D01*
X162385472Y-122574500D01*
X162436911Y-122561821D01*
X162539793Y-122536463D01*
X162680529Y-122462599D01*
X162799498Y-122357201D01*
X162889787Y-122226395D01*
X162946149Y-122077782D01*
X162965307Y-121920000D01*
X162960655Y-121881691D01*
X162949886Y-121793000D01*
X164694693Y-121793000D01*
X164713850Y-121950781D01*
X164729028Y-121990801D01*
X164770213Y-122099395D01*
X164860502Y-122230201D01*
X164860504Y-122230203D01*
X164860506Y-122230205D01*
X164979469Y-122335598D01*
X164979471Y-122335599D01*
X165120207Y-122409463D01*
X165195423Y-122428002D01*
X165274528Y-122447500D01*
X165274529Y-122447500D01*
X165433472Y-122447500D01*
X165512577Y-122428002D01*
X165587793Y-122409463D01*
X165728529Y-122335599D01*
X165847498Y-122230201D01*
X165937787Y-122099395D01*
X165994149Y-121950782D01*
X166013307Y-121793000D01*
X166009569Y-121762218D01*
X165994149Y-121635218D01*
X165985951Y-121613602D01*
X165937787Y-121486605D01*
X165935156Y-121482794D01*
X165847499Y-121355801D01*
X165847498Y-121355799D01*
X165847495Y-121355796D01*
X165847493Y-121355794D01*
X165728530Y-121250401D01*
X165587791Y-121176536D01*
X165433472Y-121138500D01*
X165433471Y-121138500D01*
X165274529Y-121138500D01*
X165274528Y-121138500D01*
X165120208Y-121176536D01*
X164979469Y-121250401D01*
X164860506Y-121355794D01*
X164860500Y-121355801D01*
X164770214Y-121486602D01*
X164713850Y-121635218D01*
X164694693Y-121792999D01*
X164694693Y-121793000D01*
X162949886Y-121793000D01*
X162946149Y-121762218D01*
X162909684Y-121666069D01*
X162889787Y-121613605D01*
X162799498Y-121482799D01*
X162799495Y-121482796D01*
X162799493Y-121482794D01*
X162680530Y-121377401D01*
X162539791Y-121303536D01*
X162385472Y-121265500D01*
X162385471Y-121265500D01*
X162226529Y-121265500D01*
X162226528Y-121265500D01*
X162072208Y-121303536D01*
X161931469Y-121377401D01*
X161812506Y-121482794D01*
X161812500Y-121482801D01*
X161722214Y-121613603D01*
X161718729Y-121620244D01*
X161716748Y-121619204D01*
X161681262Y-121666069D01*
X161615664Y-121690125D01*
X161547474Y-121674897D01*
X161498342Y-121625220D01*
X161494719Y-121617287D01*
X161492789Y-121613611D01*
X161492787Y-121613605D01*
X161402498Y-121482799D01*
X161402495Y-121482796D01*
X161402493Y-121482794D01*
X161283530Y-121377401D01*
X161142791Y-121303536D01*
X160988472Y-121265500D01*
X160988471Y-121265500D01*
X160829529Y-121265500D01*
X160829528Y-121265500D01*
X160675208Y-121303536D01*
X160534469Y-121377401D01*
X160415506Y-121482794D01*
X160415500Y-121482801D01*
X160325214Y-121613602D01*
X160268850Y-121762218D01*
X160249693Y-121919999D01*
X160249693Y-121920000D01*
X159520887Y-121920000D01*
X159536307Y-121793000D01*
X159532569Y-121762218D01*
X159517149Y-121635218D01*
X159508951Y-121613602D01*
X159460787Y-121486605D01*
X159458156Y-121482794D01*
X159370499Y-121355801D01*
X159370498Y-121355799D01*
X159370495Y-121355796D01*
X159370493Y-121355794D01*
X159251530Y-121250401D01*
X159110791Y-121176536D01*
X158956472Y-121138500D01*
X158956471Y-121138500D01*
X158797529Y-121138500D01*
X158797528Y-121138500D01*
X158643208Y-121176536D01*
X158502469Y-121250401D01*
X158383506Y-121355794D01*
X158383500Y-121355801D01*
X158293214Y-121486602D01*
X158236850Y-121635218D01*
X158228807Y-121701463D01*
X158201185Y-121765641D01*
X158143250Y-121804697D01*
X158076036Y-121806913D01*
X157940472Y-121773500D01*
X157940471Y-121773500D01*
X157781529Y-121773500D01*
X157781528Y-121773500D01*
X157627206Y-121811536D01*
X157627206Y-121811537D01*
X157553460Y-121850241D01*
X157484952Y-121863965D01*
X157419899Y-121838472D01*
X157378955Y-121781856D01*
X157372740Y-121755390D01*
X157366192Y-121701463D01*
X157358149Y-121635218D01*
X157301787Y-121486605D01*
X157299156Y-121482794D01*
X157211499Y-121355801D01*
X157211498Y-121355799D01*
X157211495Y-121355796D01*
X157211493Y-121355794D01*
X157092530Y-121250401D01*
X156951791Y-121176536D01*
X156797472Y-121138500D01*
X156797471Y-121138500D01*
X156638529Y-121138500D01*
X156638528Y-121138500D01*
X156484208Y-121176536D01*
X156343469Y-121250401D01*
X156224506Y-121355794D01*
X156224500Y-121355801D01*
X156134214Y-121486602D01*
X156077850Y-121635218D01*
X156058693Y-121792999D01*
X156058693Y-121793004D01*
X156060320Y-121806407D01*
X156048858Y-121875330D01*
X156001953Y-121927115D01*
X155934497Y-121945320D01*
X155867907Y-121924166D01*
X155855001Y-121914168D01*
X155822529Y-121885401D01*
X155681793Y-121811537D01*
X155681792Y-121811536D01*
X155681791Y-121811536D01*
X155527472Y-121773500D01*
X155527471Y-121773500D01*
X155368529Y-121773500D01*
X155368528Y-121773500D01*
X155214208Y-121811536D01*
X155073469Y-121885401D01*
X154954506Y-121990794D01*
X154954500Y-121990801D01*
X154864214Y-122121602D01*
X154807850Y-122270218D01*
X154788693Y-122427999D01*
X154788693Y-122428000D01*
X153821307Y-122428000D01*
X153810087Y-122335598D01*
X153802149Y-122270218D01*
X153786971Y-122230198D01*
X153745787Y-122121605D01*
X153655498Y-121990799D01*
X153655495Y-121990796D01*
X153655493Y-121990794D01*
X153536530Y-121885401D01*
X153395791Y-121811536D01*
X153241472Y-121773500D01*
X153241471Y-121773500D01*
X153082529Y-121773500D01*
X153082528Y-121773500D01*
X152928208Y-121811536D01*
X152787469Y-121885401D01*
X152668506Y-121990794D01*
X152668500Y-121990801D01*
X152578214Y-122121602D01*
X152521850Y-122270218D01*
X152502693Y-122427999D01*
X152502693Y-122428000D01*
X151262500Y-122428000D01*
X151262500Y-121329415D01*
X151262500Y-121329412D01*
X151261756Y-121315531D01*
X151258179Y-121282263D01*
X151227924Y-121185639D01*
X151194439Y-121124316D01*
X151194437Y-121124312D01*
X151150183Y-121065197D01*
X151150178Y-121065192D01*
X151150175Y-121065187D01*
X151150171Y-121065183D01*
X151150165Y-121065176D01*
X150455901Y-120370913D01*
X150455900Y-120370912D01*
X150445557Y-120361620D01*
X150445557Y-120361621D01*
X150419503Y-120340626D01*
X150419501Y-120340625D01*
X150419500Y-120340624D01*
X150329792Y-120293698D01*
X150329787Y-120293695D01*
X150262755Y-120274013D01*
X150262743Y-120274010D01*
X150189639Y-120263500D01*
X150189638Y-120263500D01*
X149723345Y-120263500D01*
X149656306Y-120243815D01*
X149610551Y-120191011D01*
X149600607Y-120121853D01*
X149629632Y-120058297D01*
X149632115Y-120055517D01*
X149741739Y-119936434D01*
X149873579Y-119734638D01*
X149970406Y-119513894D01*
X150029580Y-119280223D01*
X150037702Y-119182205D01*
X150049485Y-119040006D01*
X150049485Y-119039993D01*
X150029581Y-118799784D01*
X150029579Y-118799773D01*
X150015708Y-118745000D01*
X150597193Y-118745000D01*
X150616350Y-118902781D01*
X150652842Y-118998999D01*
X150668391Y-119040000D01*
X150672714Y-119051397D01*
X150748843Y-119161689D01*
X150763002Y-119182201D01*
X150763004Y-119182203D01*
X150763006Y-119182205D01*
X150881969Y-119287598D01*
X150881971Y-119287599D01*
X151022707Y-119361463D01*
X151099868Y-119380481D01*
X151177028Y-119399500D01*
X151177029Y-119399500D01*
X151335972Y-119399500D01*
X151387411Y-119386821D01*
X151490293Y-119361463D01*
X151631029Y-119287599D01*
X151749998Y-119182201D01*
X151840287Y-119051395D01*
X151896649Y-118902782D01*
X151915807Y-118745000D01*
X156185693Y-118745000D01*
X156204850Y-118902781D01*
X156241342Y-118998999D01*
X156256891Y-119040000D01*
X156261214Y-119051397D01*
X156337343Y-119161689D01*
X156351502Y-119182201D01*
X156351504Y-119182203D01*
X156351506Y-119182205D01*
X156470469Y-119287598D01*
X156470471Y-119287599D01*
X156611207Y-119361463D01*
X156688368Y-119380481D01*
X156765528Y-119399500D01*
X156765529Y-119399500D01*
X156924472Y-119399500D01*
X156975911Y-119386821D01*
X157078793Y-119361463D01*
X157219529Y-119287599D01*
X157338498Y-119182201D01*
X157428787Y-119051395D01*
X157485149Y-118902782D01*
X157504307Y-118745000D01*
X158312693Y-118745000D01*
X158331850Y-118902781D01*
X158368342Y-118998999D01*
X158383891Y-119040000D01*
X158388214Y-119051397D01*
X158464343Y-119161689D01*
X158478502Y-119182201D01*
X158478504Y-119182203D01*
X158478506Y-119182205D01*
X158597469Y-119287598D01*
X158597471Y-119287599D01*
X158738207Y-119361463D01*
X158815368Y-119380481D01*
X158892528Y-119399500D01*
X158892529Y-119399500D01*
X159051472Y-119399500D01*
X159102911Y-119386821D01*
X159205793Y-119361463D01*
X159346529Y-119287599D01*
X159465498Y-119182201D01*
X159555787Y-119051395D01*
X159575658Y-118999000D01*
X162712693Y-118999000D01*
X162731850Y-119156781D01*
X162772427Y-119263773D01*
X162788213Y-119305395D01*
X162878502Y-119436201D01*
X162878504Y-119436203D01*
X162878506Y-119436205D01*
X162997469Y-119541598D01*
X162997471Y-119541599D01*
X163138207Y-119615463D01*
X163215368Y-119634481D01*
X163292528Y-119653500D01*
X163292529Y-119653500D01*
X163451472Y-119653500D01*
X163502911Y-119640821D01*
X163605793Y-119615463D01*
X163746529Y-119541599D01*
X163865498Y-119436201D01*
X163955787Y-119305395D01*
X164012149Y-119156782D01*
X164031307Y-118999000D01*
X164012149Y-118841218D01*
X163955787Y-118692605D01*
X163865498Y-118561799D01*
X163865495Y-118561796D01*
X163865493Y-118561794D01*
X163746530Y-118456401D01*
X163605791Y-118382536D01*
X163451472Y-118344500D01*
X163451471Y-118344500D01*
X163292529Y-118344500D01*
X163292528Y-118344500D01*
X163138208Y-118382536D01*
X162997469Y-118456401D01*
X162878506Y-118561794D01*
X162878500Y-118561801D01*
X162788214Y-118692602D01*
X162731850Y-118841218D01*
X162712693Y-118998999D01*
X162712693Y-118999000D01*
X159575658Y-118999000D01*
X159612149Y-118902782D01*
X159631307Y-118745000D01*
X159612149Y-118587218D01*
X159555787Y-118438605D01*
X159465498Y-118307799D01*
X159465495Y-118307796D01*
X159465493Y-118307794D01*
X159346530Y-118202401D01*
X159205791Y-118128536D01*
X159051472Y-118090500D01*
X159051471Y-118090500D01*
X158892529Y-118090500D01*
X158892528Y-118090500D01*
X158738208Y-118128536D01*
X158597469Y-118202401D01*
X158478506Y-118307794D01*
X158478500Y-118307801D01*
X158388214Y-118438602D01*
X158331850Y-118587218D01*
X158312693Y-118744999D01*
X158312693Y-118745000D01*
X157504307Y-118745000D01*
X157485149Y-118587218D01*
X157428787Y-118438605D01*
X157357335Y-118335090D01*
X157335453Y-118268737D01*
X157352918Y-118201085D01*
X157404186Y-118153615D01*
X157472979Y-118141398D01*
X157517007Y-118154852D01*
X157638207Y-118218463D01*
X157638209Y-118218463D01*
X157638210Y-118218464D01*
X157792528Y-118256500D01*
X157792529Y-118256500D01*
X157951472Y-118256500D01*
X158002911Y-118243821D01*
X158105793Y-118218463D01*
X158246529Y-118144599D01*
X158365498Y-118039201D01*
X158455787Y-117908395D01*
X158512149Y-117759782D01*
X158531307Y-117602000D01*
X158520609Y-117513897D01*
X158512149Y-117444218D01*
X158498603Y-117408500D01*
X158455787Y-117295605D01*
X158365498Y-117164799D01*
X158365495Y-117164796D01*
X158365493Y-117164794D01*
X158246530Y-117059401D01*
X158105791Y-116985536D01*
X158030587Y-116967000D01*
X161612693Y-116967000D01*
X161631850Y-117124781D01*
X161688214Y-117273397D01*
X161703541Y-117295602D01*
X161778502Y-117404201D01*
X161778504Y-117404203D01*
X161778506Y-117404205D01*
X161897469Y-117509598D01*
X161897471Y-117509599D01*
X162038207Y-117583463D01*
X162115368Y-117602481D01*
X162192528Y-117621500D01*
X162192529Y-117621500D01*
X162351472Y-117621500D01*
X162402911Y-117608821D01*
X162505793Y-117583463D01*
X162646529Y-117509599D01*
X162765498Y-117404201D01*
X162855787Y-117273395D01*
X162912149Y-117124782D01*
X162931307Y-116967000D01*
X162920087Y-116874598D01*
X162912149Y-116809218D01*
X162857417Y-116664904D01*
X162855787Y-116660605D01*
X162765498Y-116529799D01*
X162765495Y-116529796D01*
X162765493Y-116529794D01*
X162646530Y-116424401D01*
X162505791Y-116350536D01*
X162351472Y-116312500D01*
X162351471Y-116312500D01*
X162192529Y-116312500D01*
X162192528Y-116312500D01*
X162038208Y-116350536D01*
X161897469Y-116424401D01*
X161778506Y-116529794D01*
X161778500Y-116529801D01*
X161688214Y-116660602D01*
X161631850Y-116809218D01*
X161612693Y-116966999D01*
X161612693Y-116967000D01*
X158030587Y-116967000D01*
X157951472Y-116947500D01*
X157951471Y-116947500D01*
X157792529Y-116947500D01*
X157792528Y-116947500D01*
X157638208Y-116985536D01*
X157497469Y-117059401D01*
X157378506Y-117164794D01*
X157378500Y-117164801D01*
X157288214Y-117295602D01*
X157231850Y-117444218D01*
X157212693Y-117601999D01*
X157212693Y-117602000D01*
X157231850Y-117759781D01*
X157288214Y-117908397D01*
X157359663Y-118011908D01*
X157381546Y-118078262D01*
X157364081Y-118145914D01*
X157312813Y-118193384D01*
X157244020Y-118205601D01*
X157199988Y-118192145D01*
X157078791Y-118128536D01*
X156924472Y-118090500D01*
X156924471Y-118090500D01*
X156765529Y-118090500D01*
X156765528Y-118090500D01*
X156611208Y-118128536D01*
X156470469Y-118202401D01*
X156351506Y-118307794D01*
X156351500Y-118307801D01*
X156261214Y-118438602D01*
X156204850Y-118587218D01*
X156185693Y-118744999D01*
X156185693Y-118745000D01*
X151915807Y-118745000D01*
X151896649Y-118587218D01*
X151840287Y-118438605D01*
X151749998Y-118307799D01*
X151749995Y-118307796D01*
X151749993Y-118307794D01*
X151631030Y-118202401D01*
X151490291Y-118128536D01*
X151335972Y-118090500D01*
X151335971Y-118090500D01*
X151177029Y-118090500D01*
X151177028Y-118090500D01*
X151022708Y-118128536D01*
X150881969Y-118202401D01*
X150763006Y-118307794D01*
X150763000Y-118307801D01*
X150672714Y-118438602D01*
X150616350Y-118587218D01*
X150597193Y-118744999D01*
X150597193Y-118745000D01*
X150015708Y-118745000D01*
X149970406Y-118566107D01*
X149968517Y-118561801D01*
X149873579Y-118345362D01*
X149741739Y-118143566D01*
X149578482Y-117966222D01*
X149578481Y-117966221D01*
X149578479Y-117966219D01*
X149578475Y-117966216D01*
X149388266Y-117818170D01*
X149388257Y-117818164D01*
X149176274Y-117703446D01*
X149176271Y-117703445D01*
X149176268Y-117703443D01*
X149176262Y-117703441D01*
X149176260Y-117703440D01*
X148948284Y-117625175D01*
X148724078Y-117587762D01*
X148710523Y-117585500D01*
X148469477Y-117585500D01*
X148455922Y-117587762D01*
X148231715Y-117625175D01*
X148003739Y-117703440D01*
X148003725Y-117703446D01*
X147791742Y-117818164D01*
X147791733Y-117818170D01*
X147601524Y-117966216D01*
X147601520Y-117966219D01*
X147438262Y-118143564D01*
X147438259Y-118143568D01*
X147306421Y-118345360D01*
X147209593Y-118566107D01*
X147150420Y-118799773D01*
X147150418Y-118799784D01*
X147130515Y-119039993D01*
X147130515Y-119040006D01*
X147150418Y-119280215D01*
X147150420Y-119280226D01*
X147209593Y-119513892D01*
X147306421Y-119734639D01*
X147438259Y-119936431D01*
X147438262Y-119936435D01*
X147547885Y-120055517D01*
X147578807Y-120118172D01*
X147570947Y-120187598D01*
X147526800Y-120241753D01*
X147460382Y-120263444D01*
X147456655Y-120263500D01*
X144443412Y-120263500D01*
X144429531Y-120264244D01*
X144416416Y-120265654D01*
X144396261Y-120267821D01*
X144396260Y-120267821D01*
X144299642Y-120298075D01*
X144299639Y-120298076D01*
X144299637Y-120298076D01*
X144299632Y-120298079D01*
X144238312Y-120331562D01*
X144179197Y-120375816D01*
X144179176Y-120375834D01*
X143484913Y-121070099D01*
X143484912Y-121070100D01*
X143475620Y-121080443D01*
X143475621Y-121080443D01*
X143454624Y-121106499D01*
X143407698Y-121196207D01*
X143407695Y-121196212D01*
X143388013Y-121263244D01*
X143388010Y-121263256D01*
X143377500Y-121336360D01*
X143377500Y-127857770D01*
X143357815Y-127924809D01*
X143305011Y-127970564D01*
X143235853Y-127980508D01*
X143172297Y-127951483D01*
X143138939Y-127905223D01*
X143120356Y-127860361D01*
X143120355Y-127860358D01*
X143031474Y-127744526D01*
X142915643Y-127655645D01*
X142915640Y-127655644D01*
X142915638Y-127655642D01*
X142780757Y-127599773D01*
X142780752Y-127599771D01*
X142636001Y-127580715D01*
X142635999Y-127580715D01*
X142491247Y-127599771D01*
X142491245Y-127599772D01*
X142356360Y-127655643D01*
X142356357Y-127655645D01*
X142261486Y-127728442D01*
X142196317Y-127753636D01*
X142127872Y-127739597D01*
X142110514Y-127728442D01*
X142015643Y-127655645D01*
X142015638Y-127655642D01*
X141880757Y-127599773D01*
X141880752Y-127599771D01*
X141736001Y-127580715D01*
X141735999Y-127580715D01*
X141591247Y-127599771D01*
X141591245Y-127599772D01*
X141456360Y-127655643D01*
X141456357Y-127655645D01*
X141361486Y-127728442D01*
X141296317Y-127753636D01*
X141227872Y-127739597D01*
X141210514Y-127728442D01*
X141115643Y-127655645D01*
X141115638Y-127655642D01*
X140980757Y-127599773D01*
X140980752Y-127599771D01*
X140836001Y-127580715D01*
X140835999Y-127580715D01*
X140691247Y-127599771D01*
X140691245Y-127599772D01*
X140556361Y-127655643D01*
X140440526Y-127744526D01*
X140351643Y-127860361D01*
X140295772Y-127995245D01*
X140295771Y-127995247D01*
X140276715Y-128139998D01*
X140276715Y-128140001D01*
X140295771Y-128284752D01*
X140295773Y-128284757D01*
X140351642Y-128419638D01*
X140355707Y-128426678D01*
X140353015Y-128428231D01*
X140372905Y-128479703D01*
X140358855Y-128548145D01*
X140355577Y-128553246D01*
X140355707Y-128553321D01*
X140351646Y-128560354D01*
X140295772Y-128695245D01*
X140295771Y-128695247D01*
X140276715Y-128839998D01*
X140276715Y-128840001D01*
X140295771Y-128984752D01*
X140295773Y-128984757D01*
X140351642Y-129119638D01*
X140355707Y-129126678D01*
X140353015Y-129128231D01*
X140372905Y-129179703D01*
X140358855Y-129248145D01*
X140355577Y-129253246D01*
X140355707Y-129253321D01*
X140351646Y-129260354D01*
X140295772Y-129395245D01*
X140295771Y-129395247D01*
X140276715Y-129539998D01*
X140276715Y-129540001D01*
X140295771Y-129684752D01*
X140295773Y-129684757D01*
X140351642Y-129819638D01*
X140355707Y-129826678D01*
X140353015Y-129828231D01*
X140372905Y-129879703D01*
X140358855Y-129948145D01*
X140355577Y-129953246D01*
X140355707Y-129953321D01*
X140351646Y-129960354D01*
X140295772Y-130095245D01*
X140295771Y-130095247D01*
X140276715Y-130239998D01*
X140276715Y-130240001D01*
X140295771Y-130384752D01*
X140295773Y-130384757D01*
X140351642Y-130519638D01*
X140355707Y-130526678D01*
X140353015Y-130528231D01*
X140372905Y-130579703D01*
X140358855Y-130648145D01*
X140355577Y-130653246D01*
X140355707Y-130653321D01*
X140351646Y-130660354D01*
X140295772Y-130795245D01*
X140295771Y-130795247D01*
X140276715Y-130939998D01*
X140276715Y-130940001D01*
X136525500Y-130940001D01*
X136525500Y-129351863D01*
X136545185Y-129284824D01*
X136597989Y-129239069D01*
X136667147Y-129229125D01*
X136730703Y-129258150D01*
X136751549Y-129281422D01*
X136793502Y-129342201D01*
X136793504Y-129342203D01*
X136793506Y-129342205D01*
X136912469Y-129447598D01*
X136912471Y-129447599D01*
X137053207Y-129521463D01*
X137128419Y-129540001D01*
X137207528Y-129559500D01*
X137207529Y-129559500D01*
X137366470Y-129559500D01*
X137366471Y-129559500D01*
X137482014Y-129531021D01*
X137551815Y-129534090D01*
X137608877Y-129574409D01*
X137634784Y-129636471D01*
X137645324Y-129723281D01*
X137661801Y-129766725D01*
X137701687Y-129871895D01*
X137791976Y-130002701D01*
X137791978Y-130002703D01*
X137791980Y-130002705D01*
X137910943Y-130108098D01*
X137910945Y-130108099D01*
X138051681Y-130181963D01*
X138102546Y-130194500D01*
X138206002Y-130220000D01*
X138206003Y-130220000D01*
X138364946Y-130220000D01*
X138416385Y-130207321D01*
X138519267Y-130181963D01*
X138660003Y-130108099D01*
X138778972Y-130002701D01*
X138869261Y-129871895D01*
X138925623Y-129723282D01*
X138944781Y-129565500D01*
X138944052Y-129559500D01*
X138925623Y-129407718D01*
X138920893Y-129395246D01*
X138869261Y-129259105D01*
X138778972Y-129128299D01*
X138778969Y-129128296D01*
X138778967Y-129128294D01*
X138660004Y-129022901D01*
X138519265Y-128949036D01*
X138364946Y-128911000D01*
X138364945Y-128911000D01*
X138206003Y-128911000D01*
X138206002Y-128911000D01*
X138090460Y-128939478D01*
X138020657Y-128936409D01*
X137963595Y-128896089D01*
X137937689Y-128834027D01*
X137927149Y-128747218D01*
X137901849Y-128680508D01*
X137870787Y-128598605D01*
X137780498Y-128467799D01*
X137780495Y-128467796D01*
X137780493Y-128467794D01*
X137661530Y-128362401D01*
X137520791Y-128288536D01*
X137366472Y-128250500D01*
X137366471Y-128250500D01*
X137207529Y-128250500D01*
X137207528Y-128250500D01*
X137053208Y-128288536D01*
X136912469Y-128362401D01*
X136793506Y-128467794D01*
X136793498Y-128467803D01*
X136751549Y-128528577D01*
X136697266Y-128572567D01*
X136627818Y-128580226D01*
X136565253Y-128549122D01*
X136529436Y-128489131D01*
X136525500Y-128458136D01*
X136525500Y-117554801D01*
X136545185Y-117487762D01*
X136597989Y-117442007D01*
X136667147Y-117432063D01*
X136730703Y-117461088D01*
X136731671Y-117461936D01*
X136785471Y-117509599D01*
X136926207Y-117583463D01*
X137003368Y-117602481D01*
X137080528Y-117621500D01*
X137080529Y-117621500D01*
X137239472Y-117621500D01*
X137290911Y-117608821D01*
X137393793Y-117583463D01*
X137534529Y-117509599D01*
X137585498Y-117464444D01*
X137648727Y-117434724D01*
X137717991Y-117443906D01*
X137749951Y-117464446D01*
X137805768Y-117513897D01*
X137805770Y-117513898D01*
X137946506Y-117587762D01*
X138004268Y-117601999D01*
X138100827Y-117625799D01*
X138100828Y-117625799D01*
X138259771Y-117625799D01*
X138311210Y-117613120D01*
X138414092Y-117587762D01*
X138554828Y-117513898D01*
X138673797Y-117408500D01*
X138764086Y-117277694D01*
X138820448Y-117129081D01*
X138839606Y-116971299D01*
X138827864Y-116874598D01*
X138820448Y-116813517D01*
X138813168Y-116794322D01*
X138764086Y-116664904D01*
X138673797Y-116534098D01*
X138673794Y-116534095D01*
X138673792Y-116534093D01*
X138554829Y-116428700D01*
X138414090Y-116354835D01*
X138321444Y-116332000D01*
X154915693Y-116332000D01*
X154934850Y-116489781D01*
X154975427Y-116596773D01*
X154991213Y-116638395D01*
X155081502Y-116769201D01*
X155081504Y-116769203D01*
X155081506Y-116769205D01*
X155200469Y-116874598D01*
X155200471Y-116874599D01*
X155341207Y-116948463D01*
X155418368Y-116967481D01*
X155495528Y-116986500D01*
X155495529Y-116986500D01*
X155654472Y-116986500D01*
X155716148Y-116971298D01*
X155808793Y-116948463D01*
X155949529Y-116874599D01*
X156068498Y-116769201D01*
X156158787Y-116638395D01*
X156215149Y-116489782D01*
X156234307Y-116332000D01*
X156215149Y-116174218D01*
X156158787Y-116025605D01*
X156068498Y-115894799D01*
X156068495Y-115894796D01*
X156068493Y-115894794D01*
X155949530Y-115789401D01*
X155808791Y-115715536D01*
X155654472Y-115677500D01*
X155654471Y-115677500D01*
X155495529Y-115677500D01*
X155495528Y-115677500D01*
X155341208Y-115715536D01*
X155200469Y-115789401D01*
X155081506Y-115894794D01*
X155081500Y-115894801D01*
X154991214Y-116025602D01*
X154934850Y-116174218D01*
X154915693Y-116331999D01*
X154915693Y-116332000D01*
X138321444Y-116332000D01*
X138259771Y-116316799D01*
X138259770Y-116316799D01*
X138100828Y-116316799D01*
X138100827Y-116316799D01*
X137946507Y-116354835D01*
X137805768Y-116428700D01*
X137754801Y-116473853D01*
X137691568Y-116503574D01*
X137622304Y-116494390D01*
X137590348Y-116473852D01*
X137534530Y-116424401D01*
X137393791Y-116350536D01*
X137239472Y-116312500D01*
X137239471Y-116312500D01*
X137080529Y-116312500D01*
X137080528Y-116312500D01*
X136926208Y-116350536D01*
X136785472Y-116424400D01*
X136731727Y-116472014D01*
X136668493Y-116501735D01*
X136599230Y-116492551D01*
X136545927Y-116447379D01*
X136525507Y-116380559D01*
X136525500Y-116379198D01*
X136525500Y-112141000D01*
X138278693Y-112141000D01*
X138297850Y-112298781D01*
X138354214Y-112447397D01*
X138400187Y-112514000D01*
X138444502Y-112578201D01*
X138444504Y-112578203D01*
X138444506Y-112578205D01*
X138563469Y-112683598D01*
X138563471Y-112683599D01*
X138704207Y-112757463D01*
X138747416Y-112768113D01*
X138858528Y-112795500D01*
X138858529Y-112795500D01*
X139017470Y-112795500D01*
X139017471Y-112795500D01*
X139128583Y-112768113D01*
X139198382Y-112771182D01*
X139255445Y-112811501D01*
X139268700Y-112834854D01*
X139269416Y-112834479D01*
X139272898Y-112841114D01*
X139272900Y-112841118D01*
X139363189Y-112971924D01*
X139363191Y-112971926D01*
X139363193Y-112971928D01*
X139482156Y-113077321D01*
X139482158Y-113077322D01*
X139622894Y-113151186D01*
X139700055Y-113170204D01*
X139777215Y-113189223D01*
X139777216Y-113189223D01*
X139936159Y-113189223D01*
X139987598Y-113176544D01*
X140090480Y-113151186D01*
X140231216Y-113077322D01*
X140350185Y-112971924D01*
X140440474Y-112841118D01*
X140496836Y-112692505D01*
X140515994Y-112534723D01*
X140505403Y-112447500D01*
X140516863Y-112378579D01*
X140540815Y-112344877D01*
X140881485Y-112004208D01*
X140942807Y-111970724D01*
X141012499Y-111975708D01*
X141068432Y-112017580D01*
X141092849Y-112083044D01*
X141092261Y-112106836D01*
X141072693Y-112267999D01*
X141072693Y-112268000D01*
X141091850Y-112425781D01*
X141148214Y-112574397D01*
X141223591Y-112683599D01*
X141238502Y-112705201D01*
X141238504Y-112705203D01*
X141238506Y-112705205D01*
X141312979Y-112771182D01*
X141357471Y-112810599D01*
X141418465Y-112842611D01*
X141468678Y-112891194D01*
X141484653Y-112959212D01*
X141461319Y-113025071D01*
X141448521Y-113040088D01*
X140531984Y-113956625D01*
X140470661Y-113990110D01*
X140414628Y-113989341D01*
X140287472Y-113958000D01*
X140287471Y-113958000D01*
X140128529Y-113958000D01*
X140128528Y-113958000D01*
X139974208Y-113996036D01*
X139833469Y-114069901D01*
X139714506Y-114175294D01*
X139714500Y-114175301D01*
X139624214Y-114306102D01*
X139567850Y-114454718D01*
X139548693Y-114612499D01*
X139548693Y-114612500D01*
X139567850Y-114770281D01*
X139624214Y-114918897D01*
X139635329Y-114935000D01*
X139714502Y-115049701D01*
X139714504Y-115049703D01*
X139714506Y-115049705D01*
X139833469Y-115155098D01*
X139833471Y-115155099D01*
X139974207Y-115228963D01*
X140024646Y-115241395D01*
X140128528Y-115267000D01*
X140128529Y-115267000D01*
X140287472Y-115267000D01*
X140338911Y-115254321D01*
X140441793Y-115228963D01*
X140582529Y-115155099D01*
X140687615Y-115062000D01*
X142723693Y-115062000D01*
X142742850Y-115219781D01*
X142783427Y-115326773D01*
X142792463Y-115350598D01*
X142799214Y-115368397D01*
X142874591Y-115477599D01*
X142889502Y-115499201D01*
X142889504Y-115499203D01*
X142889506Y-115499205D01*
X143008469Y-115604598D01*
X143008471Y-115604599D01*
X143149207Y-115678463D01*
X143226368Y-115697481D01*
X143303528Y-115716500D01*
X143303529Y-115716500D01*
X143462472Y-115716500D01*
X143513911Y-115703821D01*
X143616793Y-115678463D01*
X143757529Y-115604599D01*
X143876498Y-115499201D01*
X143966787Y-115368395D01*
X144023149Y-115219782D01*
X144042307Y-115062000D01*
X144023149Y-114904218D01*
X143986587Y-114807812D01*
X151867693Y-114807812D01*
X151886850Y-114965593D01*
X151886922Y-114965782D01*
X151935087Y-115092782D01*
X151943214Y-115114209D01*
X151943344Y-115114397D01*
X152033502Y-115245013D01*
X152033504Y-115245015D01*
X152033506Y-115245017D01*
X152152469Y-115350410D01*
X152152471Y-115350411D01*
X152293207Y-115424275D01*
X152370368Y-115443293D01*
X152447528Y-115462312D01*
X152447529Y-115462312D01*
X152606472Y-115462312D01*
X152657911Y-115449633D01*
X152760793Y-115424275D01*
X152901529Y-115350411D01*
X153020498Y-115245013D01*
X153110787Y-115114207D01*
X153167149Y-114965594D01*
X153186307Y-114807812D01*
X153167149Y-114650030D01*
X153110787Y-114501417D01*
X153020498Y-114370611D01*
X153020495Y-114370608D01*
X153020493Y-114370606D01*
X152901530Y-114265213D01*
X152760791Y-114191348D01*
X152606472Y-114153312D01*
X152606471Y-114153312D01*
X152447529Y-114153312D01*
X152447528Y-114153312D01*
X152293208Y-114191348D01*
X152152469Y-114265213D01*
X152033506Y-114370606D01*
X152033500Y-114370613D01*
X151943214Y-114501414D01*
X151886850Y-114650030D01*
X151867693Y-114807811D01*
X151867693Y-114807812D01*
X143986587Y-114807812D01*
X143966787Y-114755605D01*
X143876498Y-114624799D01*
X143876495Y-114624796D01*
X143876493Y-114624794D01*
X143757530Y-114519401D01*
X143616791Y-114445536D01*
X143462472Y-114407500D01*
X143462471Y-114407500D01*
X143303529Y-114407500D01*
X143303528Y-114407500D01*
X143149208Y-114445536D01*
X143008469Y-114519401D01*
X142889506Y-114624794D01*
X142889500Y-114624801D01*
X142799214Y-114755602D01*
X142742850Y-114904218D01*
X142723693Y-115061999D01*
X142723693Y-115062000D01*
X140687615Y-115062000D01*
X140701498Y-115049701D01*
X140791787Y-114918895D01*
X140848149Y-114770282D01*
X140850790Y-114748528D01*
X140878407Y-114684354D01*
X140886193Y-114675804D01*
X142023997Y-113538000D01*
X155931693Y-113538000D01*
X155950850Y-113695781D01*
X155991427Y-113802773D01*
X156007213Y-113844395D01*
X156097502Y-113975201D01*
X156097504Y-113975203D01*
X156097506Y-113975205D01*
X156216469Y-114080598D01*
X156216471Y-114080599D01*
X156357207Y-114154463D01*
X156411922Y-114167949D01*
X156511528Y-114192500D01*
X156511529Y-114192500D01*
X156670470Y-114192500D01*
X156670471Y-114192500D01*
X156729096Y-114178050D01*
X156798897Y-114181119D01*
X156855960Y-114221438D01*
X156882165Y-114286207D01*
X156869194Y-114354863D01*
X156860821Y-114368887D01*
X156769214Y-114501602D01*
X156712850Y-114650218D01*
X156693693Y-114807999D01*
X156693693Y-114808000D01*
X156712850Y-114965781D01*
X156744679Y-115049705D01*
X156769142Y-115114209D01*
X156769214Y-115114397D01*
X156845343Y-115224689D01*
X156859502Y-115245201D01*
X156859504Y-115245203D01*
X156859506Y-115245205D01*
X156978469Y-115350598D01*
X156978471Y-115350599D01*
X157119207Y-115424463D01*
X157196368Y-115443481D01*
X157273528Y-115462500D01*
X157273529Y-115462500D01*
X157432472Y-115462500D01*
X157483911Y-115449821D01*
X157586793Y-115424463D01*
X157727529Y-115350599D01*
X157846498Y-115245201D01*
X157936787Y-115114395D01*
X157993149Y-114965782D01*
X157996887Y-114935000D01*
X160512693Y-114935000D01*
X160531850Y-115092781D01*
X160588214Y-115241397D01*
X160663591Y-115350599D01*
X160678502Y-115372201D01*
X160678504Y-115372203D01*
X160678506Y-115372205D01*
X160797469Y-115477598D01*
X160797471Y-115477599D01*
X160938207Y-115551463D01*
X161015368Y-115570481D01*
X161092528Y-115589500D01*
X161092529Y-115589500D01*
X161251472Y-115589500D01*
X161302911Y-115576821D01*
X161405793Y-115551463D01*
X161546529Y-115477599D01*
X161665498Y-115372201D01*
X161755787Y-115241395D01*
X161812149Y-115092782D01*
X161831307Y-114935000D01*
X161827569Y-114904218D01*
X161812149Y-114777218D01*
X161801270Y-114748533D01*
X161755787Y-114628605D01*
X161753156Y-114624794D01*
X161665499Y-114497801D01*
X161665498Y-114497799D01*
X161665495Y-114497796D01*
X161665493Y-114497794D01*
X161546530Y-114392401D01*
X161405791Y-114318536D01*
X161251472Y-114280500D01*
X161251471Y-114280500D01*
X161092529Y-114280500D01*
X161092528Y-114280500D01*
X160938208Y-114318536D01*
X160797469Y-114392401D01*
X160678506Y-114497794D01*
X160678500Y-114497801D01*
X160588214Y-114628602D01*
X160531850Y-114777218D01*
X160512693Y-114934999D01*
X160512693Y-114935000D01*
X157996887Y-114935000D01*
X158012307Y-114808000D01*
X158008569Y-114777218D01*
X157993149Y-114650218D01*
X157984951Y-114628602D01*
X157936787Y-114501605D01*
X157934156Y-114497794D01*
X157846499Y-114370801D01*
X157846498Y-114370799D01*
X157846495Y-114370796D01*
X157846493Y-114370794D01*
X157727530Y-114265401D01*
X157586791Y-114191536D01*
X157432472Y-114153500D01*
X157432471Y-114153500D01*
X157273529Y-114153500D01*
X157273527Y-114153500D01*
X157214902Y-114167949D01*
X157145099Y-114164879D01*
X157088038Y-114124559D01*
X157061833Y-114059789D01*
X157074806Y-113991134D01*
X157083178Y-113977111D01*
X157084493Y-113975204D01*
X157084498Y-113975201D01*
X157174787Y-113844395D01*
X157231149Y-113695782D01*
X157250307Y-113538000D01*
X157231149Y-113380218D01*
X157174787Y-113231605D01*
X157084498Y-113100799D01*
X157084495Y-113100796D01*
X157084493Y-113100794D01*
X156965530Y-112995401D01*
X156824791Y-112921536D01*
X156785469Y-112911844D01*
X164893000Y-112911844D01*
X164899401Y-112971372D01*
X164899403Y-112971379D01*
X164949645Y-113106086D01*
X164949649Y-113106093D01*
X165035809Y-113221187D01*
X165035812Y-113221190D01*
X165150906Y-113307350D01*
X165150913Y-113307354D01*
X165285620Y-113357596D01*
X165285627Y-113357598D01*
X165345155Y-113363999D01*
X165345172Y-113364000D01*
X165993000Y-113364000D01*
X165993000Y-112449501D01*
X166100685Y-112498680D01*
X166207237Y-112514000D01*
X166278763Y-112514000D01*
X166385315Y-112498680D01*
X166493000Y-112449501D01*
X166493000Y-113364000D01*
X167140828Y-113364000D01*
X167140844Y-113363999D01*
X167200372Y-113357598D01*
X167200379Y-113357596D01*
X167335086Y-113307354D01*
X167335093Y-113307350D01*
X167450187Y-113221190D01*
X167450190Y-113221187D01*
X167536350Y-113106093D01*
X167536354Y-113106086D01*
X167586596Y-112971379D01*
X167586598Y-112971372D01*
X167592999Y-112911844D01*
X167593000Y-112911827D01*
X167593000Y-112264000D01*
X166676686Y-112264000D01*
X166702493Y-112223844D01*
X166743000Y-112085889D01*
X166743000Y-111942111D01*
X166702493Y-111804156D01*
X166676686Y-111764000D01*
X167593000Y-111764000D01*
X167593000Y-111116172D01*
X167592999Y-111116155D01*
X167586598Y-111056627D01*
X167586596Y-111056620D01*
X167536354Y-110921913D01*
X167536350Y-110921906D01*
X167450190Y-110806812D01*
X167450187Y-110806809D01*
X167335093Y-110720649D01*
X167335086Y-110720645D01*
X167200379Y-110670403D01*
X167200372Y-110670401D01*
X167140844Y-110664000D01*
X166854985Y-110664000D01*
X166787946Y-110644315D01*
X166742191Y-110591511D01*
X166732247Y-110522353D01*
X166761272Y-110458797D01*
X166789708Y-110434573D01*
X166905302Y-110363000D01*
X166911462Y-110359186D01*
X167062732Y-110221285D01*
X167186088Y-110057935D01*
X167277328Y-109874701D01*
X167333345Y-109677821D01*
X167352232Y-109474000D01*
X167333345Y-109270179D01*
X167277328Y-109073299D01*
X167186088Y-108890065D01*
X167062732Y-108726715D01*
X167062730Y-108726712D01*
X166911462Y-108588814D01*
X166911460Y-108588812D01*
X166737430Y-108481057D01*
X166737424Y-108481054D01*
X166586993Y-108422777D01*
X166546556Y-108407112D01*
X166345347Y-108369500D01*
X166140653Y-108369500D01*
X165939444Y-108407112D01*
X165939441Y-108407112D01*
X165939441Y-108407113D01*
X165748575Y-108481054D01*
X165748569Y-108481057D01*
X165574539Y-108588812D01*
X165574537Y-108588814D01*
X165423269Y-108726712D01*
X165299912Y-108890064D01*
X165208673Y-109073295D01*
X165152654Y-109270183D01*
X165133768Y-109473999D01*
X165133768Y-109474000D01*
X165152654Y-109677816D01*
X165152654Y-109677818D01*
X165152655Y-109677821D01*
X165198492Y-109838921D01*
X165208673Y-109874704D01*
X165299912Y-110057935D01*
X165423269Y-110221287D01*
X165574537Y-110359185D01*
X165574539Y-110359187D01*
X165696292Y-110434573D01*
X165742928Y-110486601D01*
X165754032Y-110555582D01*
X165726079Y-110619617D01*
X165667944Y-110658373D01*
X165631015Y-110664000D01*
X165345155Y-110664000D01*
X165285627Y-110670401D01*
X165285620Y-110670403D01*
X165150913Y-110720645D01*
X165150906Y-110720649D01*
X165035812Y-110806809D01*
X165035809Y-110806812D01*
X164949649Y-110921906D01*
X164949645Y-110921913D01*
X164899403Y-111056620D01*
X164899401Y-111056627D01*
X164893000Y-111116155D01*
X164893000Y-111764000D01*
X165809314Y-111764000D01*
X165783507Y-111804156D01*
X165743000Y-111942111D01*
X165743000Y-112085889D01*
X165783507Y-112223844D01*
X165809314Y-112264000D01*
X164893000Y-112264000D01*
X164893000Y-112911844D01*
X156785469Y-112911844D01*
X156670472Y-112883500D01*
X156670471Y-112883500D01*
X156511529Y-112883500D01*
X156511528Y-112883500D01*
X156357208Y-112921536D01*
X156216469Y-112995401D01*
X156097506Y-113100794D01*
X156097500Y-113100801D01*
X156007214Y-113231602D01*
X155950850Y-113380218D01*
X155931693Y-113537999D01*
X155931693Y-113538000D01*
X142023997Y-113538000D01*
X142688425Y-112873572D01*
X142708279Y-112857450D01*
X142717582Y-112851373D01*
X142739640Y-112823031D01*
X142744722Y-112817275D01*
X142747580Y-112814419D01*
X142761293Y-112795211D01*
X142795375Y-112751424D01*
X142795376Y-112751418D01*
X142799168Y-112744414D01*
X142802651Y-112737289D01*
X142802651Y-112737286D01*
X142802653Y-112737285D01*
X142818478Y-112684125D01*
X142836500Y-112631632D01*
X142836500Y-112631629D01*
X142837801Y-112623837D01*
X142838791Y-112615893D01*
X142836500Y-112560494D01*
X142836500Y-112176250D01*
X142856185Y-112109211D01*
X142872814Y-112088574D01*
X143709388Y-111252000D01*
X145644693Y-111252000D01*
X145663850Y-111409781D01*
X145695821Y-111494080D01*
X145720213Y-111558395D01*
X145810502Y-111689201D01*
X145810504Y-111689203D01*
X145810506Y-111689205D01*
X145929469Y-111794598D01*
X145929471Y-111794599D01*
X146070207Y-111868463D01*
X146147368Y-111887481D01*
X146224528Y-111906500D01*
X146224529Y-111906500D01*
X146383472Y-111906500D01*
X146434911Y-111893821D01*
X146537793Y-111868463D01*
X146678529Y-111794599D01*
X146797498Y-111689201D01*
X146887787Y-111558395D01*
X146944149Y-111409782D01*
X146963307Y-111252000D01*
X146944149Y-111094218D01*
X146887787Y-110945605D01*
X146797498Y-110814799D01*
X146797495Y-110814796D01*
X146797493Y-110814794D01*
X146678530Y-110709401D01*
X146537791Y-110635536D01*
X146383472Y-110597500D01*
X146383471Y-110597500D01*
X146224529Y-110597500D01*
X146224528Y-110597500D01*
X146070208Y-110635536D01*
X145929469Y-110709401D01*
X145810506Y-110814794D01*
X145810500Y-110814801D01*
X145720214Y-110945602D01*
X145663850Y-111094218D01*
X145644693Y-111251999D01*
X145644693Y-111252000D01*
X143709388Y-111252000D01*
X144598388Y-110363000D01*
X149200693Y-110363000D01*
X149219850Y-110520781D01*
X149276214Y-110669397D01*
X149309337Y-110717383D01*
X149366502Y-110800201D01*
X149366504Y-110800203D01*
X149366506Y-110800205D01*
X149485469Y-110905598D01*
X149485471Y-110905599D01*
X149626207Y-110979463D01*
X149703368Y-110998481D01*
X149780528Y-111017500D01*
X149780529Y-111017500D01*
X149939472Y-111017500D01*
X149990911Y-111004821D01*
X150093793Y-110979463D01*
X150234529Y-110905599D01*
X150353498Y-110800201D01*
X150443787Y-110669395D01*
X150460442Y-110625479D01*
X150502618Y-110569778D01*
X150568215Y-110545720D01*
X150636406Y-110560946D01*
X150678431Y-110599008D01*
X150680733Y-110602343D01*
X150680740Y-110602351D01*
X150799703Y-110707744D01*
X150799705Y-110707745D01*
X150940441Y-110781609D01*
X151015859Y-110800198D01*
X151094762Y-110819646D01*
X151094763Y-110819646D01*
X151253706Y-110819646D01*
X151332596Y-110800201D01*
X151408027Y-110781609D01*
X151548763Y-110707745D01*
X151667732Y-110602347D01*
X151758021Y-110471541D01*
X151814383Y-110322928D01*
X151833541Y-110165146D01*
X151814383Y-110007364D01*
X151808159Y-109990952D01*
X155559645Y-109990952D01*
X155578802Y-110148733D01*
X155635166Y-110297349D01*
X155652822Y-110322928D01*
X155725454Y-110428153D01*
X155725456Y-110428155D01*
X155725458Y-110428157D01*
X155844421Y-110533550D01*
X155844423Y-110533551D01*
X155985159Y-110607415D01*
X156058456Y-110625481D01*
X156139480Y-110645452D01*
X156139481Y-110645452D01*
X156298424Y-110645452D01*
X156379448Y-110625481D01*
X156452745Y-110607415D01*
X156593481Y-110533551D01*
X156712450Y-110428153D01*
X156802739Y-110297347D01*
X156859101Y-110148734D01*
X156878259Y-109990952D01*
X156872260Y-109941547D01*
X156883720Y-109872626D01*
X156907672Y-109838924D01*
X159812597Y-106934000D01*
X165133768Y-106934000D01*
X165152654Y-107137816D01*
X165152654Y-107137818D01*
X165152655Y-107137821D01*
X165205077Y-107322066D01*
X165208673Y-107334704D01*
X165299912Y-107517935D01*
X165423269Y-107681287D01*
X165574537Y-107819185D01*
X165574539Y-107819187D01*
X165748569Y-107926942D01*
X165748575Y-107926945D01*
X165778477Y-107938529D01*
X165939444Y-108000888D01*
X166140653Y-108038500D01*
X166140656Y-108038500D01*
X166345344Y-108038500D01*
X166345347Y-108038500D01*
X166546556Y-108000888D01*
X166737427Y-107926944D01*
X166911462Y-107819186D01*
X167062732Y-107681285D01*
X167186088Y-107517935D01*
X167277328Y-107334701D01*
X167333345Y-107137821D01*
X167352232Y-106934000D01*
X167349666Y-106906314D01*
X167341849Y-106821950D01*
X167333345Y-106730179D01*
X167277328Y-106533299D01*
X167186088Y-106350065D01*
X167097599Y-106232886D01*
X167062730Y-106186712D01*
X166911462Y-106048814D01*
X166911460Y-106048812D01*
X166737430Y-105941057D01*
X166737424Y-105941054D01*
X166586993Y-105882777D01*
X166546556Y-105867112D01*
X166345347Y-105829500D01*
X166140653Y-105829500D01*
X165939444Y-105867112D01*
X165939441Y-105867112D01*
X165939441Y-105867113D01*
X165748575Y-105941054D01*
X165748569Y-105941057D01*
X165574539Y-106048812D01*
X165574537Y-106048814D01*
X165423269Y-106186712D01*
X165299912Y-106350064D01*
X165208673Y-106533295D01*
X165208672Y-106533299D01*
X165157528Y-106713054D01*
X165152654Y-106730183D01*
X165133768Y-106933999D01*
X165133768Y-106934000D01*
X159812597Y-106934000D01*
X161936779Y-104809819D01*
X161998102Y-104776334D01*
X162024460Y-104773500D01*
X165121337Y-104773500D01*
X165188376Y-104793185D01*
X165232337Y-104842228D01*
X165299912Y-104977935D01*
X165423269Y-105141287D01*
X165574537Y-105279185D01*
X165574539Y-105279187D01*
X165748569Y-105386942D01*
X165748575Y-105386945D01*
X165780336Y-105399249D01*
X165939444Y-105460888D01*
X166140653Y-105498500D01*
X166140656Y-105498500D01*
X166345344Y-105498500D01*
X166345347Y-105498500D01*
X166546556Y-105460888D01*
X166737427Y-105386944D01*
X166911462Y-105279186D01*
X167062732Y-105141285D01*
X167186088Y-104977935D01*
X167277328Y-104794701D01*
X167333345Y-104597821D01*
X167352232Y-104394000D01*
X167333345Y-104190179D01*
X167277328Y-103993299D01*
X167186088Y-103810065D01*
X167121398Y-103724401D01*
X167062730Y-103646712D01*
X166911462Y-103508814D01*
X166911460Y-103508812D01*
X166737430Y-103401057D01*
X166737424Y-103401054D01*
X166561574Y-103332930D01*
X166546556Y-103327112D01*
X166345347Y-103289500D01*
X166140653Y-103289500D01*
X165939444Y-103327112D01*
X165939441Y-103327112D01*
X165939441Y-103327113D01*
X165748575Y-103401054D01*
X165748569Y-103401057D01*
X165574539Y-103508812D01*
X165574537Y-103508814D01*
X165423269Y-103646712D01*
X165299912Y-103810064D01*
X165232337Y-103945772D01*
X165184834Y-103997009D01*
X165121337Y-104014500D01*
X161868119Y-104014500D01*
X161842674Y-104011861D01*
X161831805Y-104009582D01*
X161831802Y-104009582D01*
X161796171Y-104014023D01*
X161788495Y-104014500D01*
X161784460Y-104014500D01*
X161761178Y-104018385D01*
X161706117Y-104025248D01*
X161698498Y-104027516D01*
X161690981Y-104030097D01*
X161642199Y-104056496D01*
X161592336Y-104080873D01*
X161585880Y-104085482D01*
X161579589Y-104090379D01*
X161542023Y-104131186D01*
X156373076Y-109300133D01*
X156311753Y-109333618D01*
X156285395Y-109336452D01*
X156139480Y-109336452D01*
X155985160Y-109374488D01*
X155844421Y-109448353D01*
X155725458Y-109553746D01*
X155725452Y-109553753D01*
X155635166Y-109684554D01*
X155578802Y-109833170D01*
X155559645Y-109990951D01*
X155559645Y-109990952D01*
X151808159Y-109990952D01*
X151758021Y-109858751D01*
X151667732Y-109727945D01*
X151556278Y-109629205D01*
X151519153Y-109570016D01*
X151519921Y-109500151D01*
X151558339Y-109441791D01*
X151622210Y-109413467D01*
X151633809Y-109412701D01*
X151636361Y-109412391D01*
X151636362Y-109412391D01*
X151790684Y-109374354D01*
X151931420Y-109300490D01*
X152050389Y-109195092D01*
X152140678Y-109064286D01*
X152153698Y-109029953D01*
X152195873Y-108974253D01*
X152261471Y-108950195D01*
X152329661Y-108965421D01*
X152378795Y-109015096D01*
X152385581Y-109029954D01*
X152431474Y-109150961D01*
X152470722Y-109207821D01*
X152521762Y-109281765D01*
X152521764Y-109281767D01*
X152521766Y-109281769D01*
X152640729Y-109387162D01*
X152640731Y-109387163D01*
X152781467Y-109461027D01*
X152858628Y-109480045D01*
X152935788Y-109499064D01*
X152935789Y-109499064D01*
X153094732Y-109499064D01*
X153146171Y-109486385D01*
X153249053Y-109461027D01*
X153389789Y-109387163D01*
X153508758Y-109281765D01*
X153599047Y-109150959D01*
X153655409Y-109002346D01*
X153674567Y-108844564D01*
X153655409Y-108686782D01*
X153599047Y-108538169D01*
X153508758Y-108407363D01*
X153508755Y-108407360D01*
X153508753Y-108407358D01*
X153389790Y-108301965D01*
X153249051Y-108228100D01*
X153094732Y-108190064D01*
X153094731Y-108190064D01*
X152935789Y-108190064D01*
X152935788Y-108190064D01*
X152781468Y-108228100D01*
X152640729Y-108301965D01*
X152521766Y-108407358D01*
X152521760Y-108407365D01*
X152431474Y-108538167D01*
X152431472Y-108538170D01*
X152418452Y-108572501D01*
X152376274Y-108628203D01*
X152310676Y-108652259D01*
X152242486Y-108637031D01*
X152193353Y-108587355D01*
X152186570Y-108572502D01*
X152140678Y-108451496D01*
X152050389Y-108320690D01*
X152050386Y-108320687D01*
X152050384Y-108320685D01*
X151931421Y-108215292D01*
X151790682Y-108141427D01*
X151636363Y-108103391D01*
X151636362Y-108103391D01*
X151477420Y-108103391D01*
X151477419Y-108103391D01*
X151323099Y-108141427D01*
X151182360Y-108215292D01*
X151063397Y-108320685D01*
X151063394Y-108320688D01*
X151007816Y-108401207D01*
X150953532Y-108445197D01*
X150884084Y-108452856D01*
X150848145Y-108440564D01*
X150834832Y-108433577D01*
X150834829Y-108433576D01*
X150834827Y-108433575D01*
X150680511Y-108395540D01*
X150680510Y-108395540D01*
X150672445Y-108395540D01*
X150605406Y-108375855D01*
X150559651Y-108323051D01*
X150549707Y-108253893D01*
X150556501Y-108227573D01*
X150606283Y-108096312D01*
X150625441Y-107938530D01*
X150606283Y-107780748D01*
X150606281Y-107780744D01*
X150604488Y-107773464D01*
X150607286Y-107772774D01*
X150602921Y-107716463D01*
X150636039Y-107654941D01*
X150697161Y-107621090D01*
X150753917Y-107621700D01*
X150804761Y-107634232D01*
X150804762Y-107634232D01*
X150963705Y-107634232D01*
X151017023Y-107621090D01*
X151118026Y-107596195D01*
X151258762Y-107522331D01*
X151377731Y-107416933D01*
X151468020Y-107286127D01*
X151524382Y-107137514D01*
X151543540Y-106979732D01*
X151533776Y-106899321D01*
X151524382Y-106821950D01*
X151510946Y-106786522D01*
X151468020Y-106673337D01*
X151377731Y-106542531D01*
X151377728Y-106542528D01*
X151377726Y-106542526D01*
X151258763Y-106437133D01*
X151118024Y-106363268D01*
X150963705Y-106325232D01*
X150963704Y-106325232D01*
X150804762Y-106325232D01*
X150804761Y-106325232D01*
X150650441Y-106363268D01*
X150509702Y-106437133D01*
X150390739Y-106542526D01*
X150390733Y-106542533D01*
X150300447Y-106673334D01*
X150244083Y-106821950D01*
X150224926Y-106979731D01*
X150224926Y-106979732D01*
X150244084Y-107137515D01*
X150245879Y-107144798D01*
X150243086Y-107145486D01*
X150247437Y-107201837D01*
X150214299Y-107263348D01*
X150153166Y-107297179D01*
X150096450Y-107296561D01*
X150045607Y-107284030D01*
X150045605Y-107284030D01*
X149886663Y-107284030D01*
X149886662Y-107284030D01*
X149732342Y-107322066D01*
X149591603Y-107395931D01*
X149472640Y-107501324D01*
X149472634Y-107501331D01*
X149382348Y-107632132D01*
X149325984Y-107780748D01*
X149306827Y-107938529D01*
X149306827Y-107938530D01*
X149325984Y-108096311D01*
X149329925Y-108106701D01*
X149375966Y-108228101D01*
X149382348Y-108244927D01*
X149458477Y-108355219D01*
X149472636Y-108375731D01*
X149472638Y-108375733D01*
X149472640Y-108375735D01*
X149591603Y-108481128D01*
X149591605Y-108481129D01*
X149732341Y-108554993D01*
X149769874Y-108564244D01*
X149886662Y-108593030D01*
X149894728Y-108593030D01*
X149961767Y-108612715D01*
X150007522Y-108665519D01*
X150017466Y-108734677D01*
X150010671Y-108760996D01*
X149991897Y-108810500D01*
X149960889Y-108892258D01*
X149941732Y-109050039D01*
X149941732Y-109050040D01*
X149960889Y-109207821D01*
X149995899Y-109300133D01*
X150009673Y-109336452D01*
X150017253Y-109356437D01*
X150089447Y-109461027D01*
X150107541Y-109487241D01*
X150141775Y-109517570D01*
X150178901Y-109576758D01*
X150178133Y-109646623D01*
X150139716Y-109704983D01*
X150075845Y-109733308D01*
X150029873Y-109730781D01*
X149939473Y-109708500D01*
X149939471Y-109708500D01*
X149780529Y-109708500D01*
X149780528Y-109708500D01*
X149626208Y-109746536D01*
X149485469Y-109820401D01*
X149366506Y-109925794D01*
X149366500Y-109925801D01*
X149276214Y-110056602D01*
X149219850Y-110205218D01*
X149200693Y-110362999D01*
X149200693Y-110363000D01*
X144598388Y-110363000D01*
X147932925Y-107028462D01*
X147952779Y-107012340D01*
X147962082Y-107006263D01*
X147984140Y-106977921D01*
X147989229Y-106972158D01*
X147992081Y-106969308D01*
X148005794Y-106950101D01*
X148039875Y-106906314D01*
X148039876Y-106906308D01*
X148043659Y-106899321D01*
X148047153Y-106892173D01*
X148062979Y-106839013D01*
X148069227Y-106820812D01*
X148081000Y-106786522D01*
X148081000Y-106786519D01*
X148082302Y-106778716D01*
X148083292Y-106770783D01*
X148081000Y-106715369D01*
X148081000Y-105777396D01*
X153505090Y-105777396D01*
X153524247Y-105935177D01*
X153580611Y-106083793D01*
X153628701Y-106153463D01*
X153670899Y-106214597D01*
X153670901Y-106214599D01*
X153670903Y-106214601D01*
X153789866Y-106319994D01*
X153789868Y-106319995D01*
X153930604Y-106393859D01*
X153987381Y-106407853D01*
X154047762Y-106443009D01*
X154079551Y-106505228D01*
X154080803Y-106543196D01*
X154064193Y-106679999D01*
X154064193Y-106680000D01*
X154083350Y-106837781D01*
X154103979Y-106892173D01*
X154139713Y-106986395D01*
X154230002Y-107117201D01*
X154230004Y-107117203D01*
X154230006Y-107117205D01*
X154348969Y-107222598D01*
X154348971Y-107222599D01*
X154489707Y-107296463D01*
X154566868Y-107315481D01*
X154644028Y-107334500D01*
X154644029Y-107334500D01*
X154802972Y-107334500D01*
X154854411Y-107321821D01*
X154957293Y-107296463D01*
X155098029Y-107222599D01*
X155216998Y-107117201D01*
X155307287Y-106986395D01*
X155363649Y-106837782D01*
X155382807Y-106680000D01*
X155377842Y-106639113D01*
X155363649Y-106522218D01*
X155343166Y-106468209D01*
X155307287Y-106373605D01*
X155216998Y-106242799D01*
X155216995Y-106242796D01*
X155216993Y-106242794D01*
X155098030Y-106137401D01*
X155030840Y-106102137D01*
X154957293Y-106063537D01*
X154957290Y-106063536D01*
X154900514Y-106049542D01*
X154840133Y-106014385D01*
X154808345Y-105952166D01*
X154807093Y-105914198D01*
X154812811Y-105867112D01*
X154823704Y-105777396D01*
X154804546Y-105619614D01*
X154748184Y-105471001D01*
X154741203Y-105460888D01*
X154690164Y-105386945D01*
X154657895Y-105340195D01*
X154657892Y-105340192D01*
X154657890Y-105340190D01*
X154538927Y-105234797D01*
X154398188Y-105160932D01*
X154243869Y-105122896D01*
X154243868Y-105122896D01*
X154084926Y-105122896D01*
X154084925Y-105122896D01*
X153930605Y-105160932D01*
X153789866Y-105234797D01*
X153670903Y-105340190D01*
X153670897Y-105340197D01*
X153580611Y-105470998D01*
X153524247Y-105619614D01*
X153505090Y-105777395D01*
X153505090Y-105777396D01*
X148081000Y-105777396D01*
X148081000Y-105005207D01*
X148100685Y-104938168D01*
X148153489Y-104892413D01*
X148222647Y-104882469D01*
X148234656Y-104884806D01*
X148383529Y-104921500D01*
X148383530Y-104921500D01*
X148442786Y-104921500D01*
X148509825Y-104941185D01*
X148555580Y-104993989D01*
X148565881Y-105030552D01*
X148569431Y-105059782D01*
X148584850Y-105186781D01*
X148619896Y-105279187D01*
X148640940Y-105334676D01*
X148641214Y-105335397D01*
X148708691Y-105433153D01*
X148731502Y-105466201D01*
X148731504Y-105466203D01*
X148731506Y-105466205D01*
X148850469Y-105571598D01*
X148850471Y-105571599D01*
X148991207Y-105645463D01*
X149068368Y-105664481D01*
X149145528Y-105683500D01*
X149145529Y-105683500D01*
X149304472Y-105683500D01*
X149355911Y-105670821D01*
X149458793Y-105645463D01*
X149599529Y-105571599D01*
X149718498Y-105466201D01*
X149808787Y-105335395D01*
X149865149Y-105186782D01*
X149882338Y-105045213D01*
X149909960Y-104981036D01*
X149967894Y-104941979D01*
X150037746Y-104940444D01*
X150097340Y-104976918D01*
X150127755Y-105039821D01*
X150128530Y-105045214D01*
X150145631Y-105186062D01*
X150180949Y-105279185D01*
X150198470Y-105325385D01*
X150201995Y-105334678D01*
X150249284Y-105403187D01*
X150292283Y-105465482D01*
X150292285Y-105465484D01*
X150292287Y-105465486D01*
X150411250Y-105570879D01*
X150411252Y-105570880D01*
X150551988Y-105644744D01*
X150629149Y-105663762D01*
X150706309Y-105682781D01*
X150706310Y-105682781D01*
X150865253Y-105682781D01*
X150916692Y-105670102D01*
X151019574Y-105644744D01*
X151160310Y-105570880D01*
X151279279Y-105465482D01*
X151369568Y-105334676D01*
X151425930Y-105186063D01*
X151444812Y-105030553D01*
X151472434Y-104966376D01*
X151530368Y-104927319D01*
X151567908Y-104921500D01*
X151590472Y-104921500D01*
X151641911Y-104908821D01*
X151744793Y-104883463D01*
X151885529Y-104809599D01*
X151915794Y-104782786D01*
X154780907Y-104782786D01*
X154800064Y-104940567D01*
X154856428Y-105089183D01*
X154923796Y-105186782D01*
X154946716Y-105219987D01*
X154946718Y-105219989D01*
X154946720Y-105219991D01*
X155065683Y-105325384D01*
X155065685Y-105325385D01*
X155206421Y-105399249D01*
X155283582Y-105418267D01*
X155360742Y-105437286D01*
X155393195Y-105437286D01*
X155460234Y-105456971D01*
X155505989Y-105509775D01*
X155516291Y-105576231D01*
X155513193Y-105601747D01*
X155513193Y-105601749D01*
X155532350Y-105759530D01*
X155588714Y-105908146D01*
X155611431Y-105941057D01*
X155679002Y-106038950D01*
X155679004Y-106038952D01*
X155679006Y-106038954D01*
X155797969Y-106144347D01*
X155797971Y-106144348D01*
X155938707Y-106218212D01*
X155998242Y-106232886D01*
X156093028Y-106256249D01*
X156093029Y-106256249D01*
X156251972Y-106256249D01*
X156306560Y-106242794D01*
X156406293Y-106218212D01*
X156547029Y-106144348D01*
X156665998Y-106038950D01*
X156756287Y-105908144D01*
X156812649Y-105759531D01*
X156831807Y-105601749D01*
X156827551Y-105566701D01*
X156812649Y-105443967D01*
X156797183Y-105403187D01*
X156756287Y-105295354D01*
X156665998Y-105164548D01*
X156665995Y-105164545D01*
X156665993Y-105164543D01*
X156547030Y-105059150D01*
X156406291Y-104985285D01*
X156251972Y-104947249D01*
X156251971Y-104947249D01*
X156219519Y-104947249D01*
X156152480Y-104927564D01*
X156106725Y-104874760D01*
X156096423Y-104808304D01*
X156099521Y-104782787D01*
X156099521Y-104782785D01*
X156080363Y-104625004D01*
X156060790Y-104573395D01*
X156024001Y-104476391D01*
X155933712Y-104345585D01*
X155933709Y-104345582D01*
X155933707Y-104345580D01*
X155845009Y-104267000D01*
X157836693Y-104267000D01*
X157855850Y-104424781D01*
X157912214Y-104573397D01*
X157929073Y-104597821D01*
X158002502Y-104704201D01*
X158002504Y-104704203D01*
X158002506Y-104704205D01*
X158121470Y-104809598D01*
X158121472Y-104809600D01*
X158173150Y-104836723D01*
X158223363Y-104885307D01*
X158239337Y-104953327D01*
X158216002Y-105019184D01*
X158197752Y-105039334D01*
X158129502Y-105099798D01*
X158129500Y-105099801D01*
X158039214Y-105230602D01*
X157982850Y-105379218D01*
X157963693Y-105536999D01*
X157963693Y-105537000D01*
X157982850Y-105694781D01*
X158039214Y-105843397D01*
X158055584Y-105867113D01*
X158129502Y-105974201D01*
X158129504Y-105974203D01*
X158129506Y-105974205D01*
X158248469Y-106079598D01*
X158248471Y-106079599D01*
X158389207Y-106153463D01*
X158466368Y-106172481D01*
X158543528Y-106191500D01*
X158543529Y-106191500D01*
X158702472Y-106191500D01*
X158753911Y-106178821D01*
X158856793Y-106153463D01*
X158997529Y-106079599D01*
X159116498Y-105974201D01*
X159206787Y-105843395D01*
X159263149Y-105694782D01*
X159282307Y-105537000D01*
X159263149Y-105379218D01*
X159206787Y-105230605D01*
X159116498Y-105099799D01*
X159116495Y-105099796D01*
X159116493Y-105099794D01*
X158997529Y-104994401D01*
X158997530Y-104994401D01*
X158945848Y-104967276D01*
X158895636Y-104918691D01*
X158879662Y-104850672D01*
X158902998Y-104784814D01*
X158921240Y-104764672D01*
X158989498Y-104704201D01*
X159079787Y-104573395D01*
X159136149Y-104424782D01*
X159155307Y-104267000D01*
X159136149Y-104109218D01*
X159079787Y-103960605D01*
X159003607Y-103850239D01*
X158981724Y-103783884D01*
X158999189Y-103716233D01*
X159050457Y-103668763D01*
X159105657Y-103655799D01*
X159206173Y-103655799D01*
X159257612Y-103643120D01*
X159360494Y-103617762D01*
X159501230Y-103543898D01*
X159620199Y-103438500D01*
X159710488Y-103307694D01*
X159766850Y-103159081D01*
X159786008Y-103001299D01*
X159781842Y-102966992D01*
X159766850Y-102843517D01*
X159761654Y-102829816D01*
X159710488Y-102694904D01*
X159620199Y-102564098D01*
X159620196Y-102564095D01*
X159620194Y-102564093D01*
X159501231Y-102458700D01*
X159360492Y-102384835D01*
X159206173Y-102346799D01*
X159206172Y-102346799D01*
X159047230Y-102346799D01*
X159047229Y-102346799D01*
X158892909Y-102384835D01*
X158752170Y-102458700D01*
X158633207Y-102564093D01*
X158633201Y-102564100D01*
X158542915Y-102694901D01*
X158486551Y-102843517D01*
X158467394Y-103001298D01*
X158467394Y-103001299D01*
X158486551Y-103159080D01*
X158542915Y-103307696D01*
X158619094Y-103418060D01*
X158640977Y-103484415D01*
X158623512Y-103552066D01*
X158572244Y-103599536D01*
X158517044Y-103612500D01*
X158416528Y-103612500D01*
X158262208Y-103650536D01*
X158121469Y-103724401D01*
X158002506Y-103829794D01*
X158002500Y-103829801D01*
X157912214Y-103960602D01*
X157855850Y-104109218D01*
X157836693Y-104266999D01*
X157836693Y-104267000D01*
X155845009Y-104267000D01*
X155814744Y-104240187D01*
X155674005Y-104166322D01*
X155519686Y-104128286D01*
X155519685Y-104128286D01*
X155360743Y-104128286D01*
X155360742Y-104128286D01*
X155206422Y-104166322D01*
X155065683Y-104240187D01*
X154946720Y-104345580D01*
X154946714Y-104345587D01*
X154856428Y-104476388D01*
X154800064Y-104625004D01*
X154780907Y-104782785D01*
X154780907Y-104782786D01*
X151915794Y-104782786D01*
X152004498Y-104704201D01*
X152094787Y-104573395D01*
X152151149Y-104424782D01*
X152170307Y-104267000D01*
X152151149Y-104109218D01*
X152094787Y-103960605D01*
X152004498Y-103829799D01*
X152004495Y-103829796D01*
X152004493Y-103829794D01*
X151885530Y-103724401D01*
X151744791Y-103650536D01*
X151590472Y-103612500D01*
X151590471Y-103612500D01*
X151431529Y-103612500D01*
X151431528Y-103612500D01*
X151277208Y-103650536D01*
X151136469Y-103724401D01*
X151017506Y-103829794D01*
X151017500Y-103829801D01*
X150927214Y-103960602D01*
X150870850Y-104109218D01*
X150853345Y-104253387D01*
X150825723Y-104317565D01*
X150767788Y-104356621D01*
X150697936Y-104358156D01*
X150638342Y-104321681D01*
X150607928Y-104258778D01*
X150607159Y-104253429D01*
X150589649Y-104109218D01*
X150533287Y-103960605D01*
X150442998Y-103829799D01*
X150442995Y-103829796D01*
X150442993Y-103829794D01*
X150324030Y-103724401D01*
X150183291Y-103650536D01*
X150028972Y-103612500D01*
X150028971Y-103612500D01*
X149870029Y-103612500D01*
X149870028Y-103612500D01*
X149715708Y-103650536D01*
X149574969Y-103724401D01*
X149456006Y-103829794D01*
X149456000Y-103829801D01*
X149365714Y-103960602D01*
X149322192Y-104075359D01*
X149280013Y-104131061D01*
X149214416Y-104155118D01*
X149146225Y-104139891D01*
X149097093Y-104090214D01*
X149090308Y-104075359D01*
X149068700Y-104018385D01*
X149046787Y-103960605D01*
X148956498Y-103829799D01*
X148956495Y-103829796D01*
X148956493Y-103829794D01*
X148837530Y-103724401D01*
X148696791Y-103650536D01*
X148542472Y-103612500D01*
X148542471Y-103612500D01*
X148383529Y-103612500D01*
X148383528Y-103612500D01*
X148234675Y-103649189D01*
X148164873Y-103646120D01*
X148107811Y-103605800D01*
X148081605Y-103541031D01*
X148081000Y-103528792D01*
X148081000Y-102966992D01*
X148083639Y-102941547D01*
X148084301Y-102938383D01*
X148085919Y-102930672D01*
X148083812Y-102913771D01*
X148081477Y-102895032D01*
X148081000Y-102887356D01*
X148081000Y-102883329D01*
X148077116Y-102860053D01*
X148075482Y-102846944D01*
X148070252Y-102804990D01*
X148070251Y-102804988D01*
X148070251Y-102804986D01*
X148067989Y-102797390D01*
X148065398Y-102789840D01*
X148038999Y-102741061D01*
X148020387Y-102702988D01*
X148008629Y-102634115D01*
X148008692Y-102633581D01*
X148016372Y-102570337D01*
X148008145Y-102502584D01*
X148019605Y-102433664D01*
X148066509Y-102381877D01*
X148133964Y-102363670D01*
X148200555Y-102384822D01*
X148213463Y-102394820D01*
X148215471Y-102396599D01*
X148356207Y-102470463D01*
X148433368Y-102489481D01*
X148510528Y-102508500D01*
X148510529Y-102508500D01*
X148669472Y-102508500D01*
X148720911Y-102495821D01*
X148823793Y-102470463D01*
X148964529Y-102396599D01*
X149083498Y-102291201D01*
X149086355Y-102287062D01*
X149140637Y-102243070D01*
X149188406Y-102233500D01*
X155179280Y-102233500D01*
X155204725Y-102236139D01*
X155208620Y-102236955D01*
X155215600Y-102238419D01*
X155234116Y-102236110D01*
X155251240Y-102233977D01*
X155258916Y-102233500D01*
X155262940Y-102233500D01*
X155262943Y-102233500D01*
X155280375Y-102230590D01*
X155286216Y-102229616D01*
X155292319Y-102228855D01*
X155341283Y-102222752D01*
X155341288Y-102222749D01*
X155348891Y-102220486D01*
X155356423Y-102217900D01*
X155356427Y-102217900D01*
X155405205Y-102191502D01*
X155455068Y-102167126D01*
X155455071Y-102167123D01*
X155461501Y-102162533D01*
X155467809Y-102157622D01*
X155467816Y-102157619D01*
X155505380Y-102116813D01*
X155768193Y-101854000D01*
X165133768Y-101854000D01*
X165152654Y-102057816D01*
X165152654Y-102057818D01*
X165152655Y-102057821D01*
X165205363Y-102243070D01*
X165208673Y-102254704D01*
X165299912Y-102437935D01*
X165423269Y-102601287D01*
X165574537Y-102739185D01*
X165574539Y-102739187D01*
X165748569Y-102846942D01*
X165748575Y-102846945D01*
X165782411Y-102860053D01*
X165939444Y-102920888D01*
X166140653Y-102958500D01*
X166140656Y-102958500D01*
X166345344Y-102958500D01*
X166345347Y-102958500D01*
X166546556Y-102920888D01*
X166737427Y-102846944D01*
X166911462Y-102739186D01*
X167062732Y-102601285D01*
X167186088Y-102437935D01*
X167277328Y-102254701D01*
X167333345Y-102057821D01*
X167352232Y-101854000D01*
X167333345Y-101650179D01*
X167277328Y-101453299D01*
X167186088Y-101270065D01*
X167062732Y-101106715D01*
X167062730Y-101106712D01*
X166911462Y-100968814D01*
X166911460Y-100968812D01*
X166737430Y-100861057D01*
X166737424Y-100861054D01*
X166586993Y-100802777D01*
X166546556Y-100787112D01*
X166345347Y-100749500D01*
X166140653Y-100749500D01*
X165939444Y-100787112D01*
X165939441Y-100787112D01*
X165939441Y-100787113D01*
X165748575Y-100861054D01*
X165748569Y-100861057D01*
X165574539Y-100968812D01*
X165574537Y-100968814D01*
X165423269Y-101106712D01*
X165299912Y-101270064D01*
X165208673Y-101453295D01*
X165152654Y-101650183D01*
X165133768Y-101853999D01*
X165133768Y-101854000D01*
X155768193Y-101854000D01*
X156817874Y-100804319D01*
X156879197Y-100770834D01*
X156905555Y-100768000D01*
X157051472Y-100768000D01*
X157126528Y-100749500D01*
X157205793Y-100729963D01*
X157346529Y-100656099D01*
X157465498Y-100550701D01*
X157555787Y-100419895D01*
X157612149Y-100271282D01*
X157631307Y-100113500D01*
X162916693Y-100113500D01*
X162935850Y-100271281D01*
X162976427Y-100378273D01*
X162991038Y-100416798D01*
X162992214Y-100419897D01*
X163055065Y-100510952D01*
X163082502Y-100550701D01*
X163082504Y-100550703D01*
X163082506Y-100550705D01*
X163201469Y-100656098D01*
X163201471Y-100656099D01*
X163342207Y-100729963D01*
X163419368Y-100748981D01*
X163496528Y-100768000D01*
X163496529Y-100768000D01*
X163655472Y-100768000D01*
X163730528Y-100749500D01*
X163809793Y-100729963D01*
X163950529Y-100656099D01*
X164069498Y-100550701D01*
X164159787Y-100419895D01*
X164216149Y-100271282D01*
X164235307Y-100113500D01*
X164223189Y-100013702D01*
X164216149Y-99955718D01*
X164159787Y-99807105D01*
X164069498Y-99676299D01*
X164069495Y-99676296D01*
X164069493Y-99676294D01*
X163950530Y-99570901D01*
X163809791Y-99497036D01*
X163655472Y-99459000D01*
X163655471Y-99459000D01*
X163496529Y-99459000D01*
X163496528Y-99459000D01*
X163342208Y-99497036D01*
X163201469Y-99570901D01*
X163082506Y-99676294D01*
X163082500Y-99676301D01*
X162992214Y-99807102D01*
X162935850Y-99955718D01*
X162916693Y-100113499D01*
X162916693Y-100113500D01*
X157631307Y-100113500D01*
X157619189Y-100013702D01*
X157612149Y-99955718D01*
X157555787Y-99807105D01*
X157465498Y-99676299D01*
X157465495Y-99676296D01*
X157465493Y-99676294D01*
X157346530Y-99570901D01*
X157205791Y-99497036D01*
X157051472Y-99459000D01*
X157051471Y-99459000D01*
X156892529Y-99459000D01*
X156892528Y-99459000D01*
X156738208Y-99497036D01*
X156597469Y-99570901D01*
X156478506Y-99676294D01*
X156478500Y-99676301D01*
X156388214Y-99807102D01*
X156331850Y-99955718D01*
X156312693Y-100113499D01*
X156318691Y-100162901D01*
X156307230Y-100231825D01*
X156283276Y-100265528D01*
X155110625Y-101438181D01*
X155049302Y-101471666D01*
X155022944Y-101474500D01*
X149890694Y-101474500D01*
X149823655Y-101454815D01*
X149777900Y-101402011D01*
X149767956Y-101332853D01*
X149788644Y-101280060D01*
X149795544Y-101270064D01*
X149882287Y-101144395D01*
X149938649Y-100995782D01*
X149957807Y-100838000D01*
X149953717Y-100804319D01*
X149938649Y-100680218D01*
X149929501Y-100656098D01*
X149882287Y-100531605D01*
X149791998Y-100400799D01*
X149791995Y-100400796D01*
X149791993Y-100400794D01*
X149673030Y-100295401D01*
X149532291Y-100221536D01*
X149377972Y-100183500D01*
X149377971Y-100183500D01*
X149219029Y-100183500D01*
X149219028Y-100183500D01*
X149064708Y-100221536D01*
X148923969Y-100295401D01*
X148805006Y-100400794D01*
X148805000Y-100400801D01*
X148714714Y-100531602D01*
X148658350Y-100680218D01*
X148639193Y-100837999D01*
X148639193Y-100838000D01*
X148658350Y-100995781D01*
X148671908Y-101031528D01*
X148677275Y-101101192D01*
X148644128Y-101162698D01*
X148582990Y-101196519D01*
X148555966Y-101199500D01*
X148510528Y-101199500D01*
X148356208Y-101237536D01*
X148215469Y-101311401D01*
X148096506Y-101416794D01*
X148096500Y-101416801D01*
X148006214Y-101547602D01*
X147949850Y-101696218D01*
X147930693Y-101853999D01*
X147930693Y-101854000D01*
X147938919Y-101921750D01*
X147927458Y-101990673D01*
X147880554Y-102042459D01*
X147813099Y-102060666D01*
X147746508Y-102039513D01*
X147733597Y-102029512D01*
X147731595Y-102027738D01*
X147590856Y-101953873D01*
X147436537Y-101915837D01*
X147436536Y-101915837D01*
X147277594Y-101915837D01*
X147277593Y-101915837D01*
X147123273Y-101953873D01*
X146982534Y-102027738D01*
X146863571Y-102133131D01*
X146863565Y-102133138D01*
X146773279Y-102263939D01*
X146716915Y-102412555D01*
X146697758Y-102570336D01*
X146697758Y-102570337D01*
X146716916Y-102728119D01*
X146755912Y-102830943D01*
X146761279Y-102900606D01*
X146728132Y-102962112D01*
X146666993Y-102995934D01*
X146597275Y-102991332D01*
X146552289Y-102962595D01*
X145322819Y-101733125D01*
X145289334Y-101671802D01*
X145286500Y-101645444D01*
X145286500Y-101224168D01*
X145306185Y-101157129D01*
X145328273Y-101131353D01*
X145400498Y-101067367D01*
X145490787Y-100936561D01*
X145547149Y-100787948D01*
X145566307Y-100630166D01*
X145547149Y-100472384D01*
X145490787Y-100323771D01*
X145400498Y-100192965D01*
X145400495Y-100192962D01*
X145400493Y-100192960D01*
X145281530Y-100087567D01*
X145140791Y-100013702D01*
X144986472Y-99975666D01*
X144986471Y-99975666D01*
X144827529Y-99975666D01*
X144827528Y-99975666D01*
X144673208Y-100013702D01*
X144532469Y-100087567D01*
X144413506Y-100192960D01*
X144413500Y-100192967D01*
X144323214Y-100323768D01*
X144266850Y-100472384D01*
X144247693Y-100630165D01*
X144247693Y-100630166D01*
X144266850Y-100787947D01*
X144323214Y-100936563D01*
X144355838Y-100983827D01*
X144413502Y-101067367D01*
X144413504Y-101067369D01*
X144413506Y-101067371D01*
X144485727Y-101131353D01*
X144522854Y-101190542D01*
X144527500Y-101224168D01*
X144527500Y-101801779D01*
X144524861Y-101827227D01*
X144522580Y-101838100D01*
X144527023Y-101873739D01*
X144527500Y-101881416D01*
X144527500Y-101885443D01*
X144530412Y-101902897D01*
X144531383Y-101908716D01*
X144538248Y-101963787D01*
X144540505Y-101971367D01*
X144543099Y-101978923D01*
X144543100Y-101978927D01*
X144543101Y-101978930D01*
X144543102Y-101978931D01*
X144569496Y-102027704D01*
X144593875Y-102077570D01*
X144598472Y-102084008D01*
X144603382Y-102090317D01*
X144644186Y-102127881D01*
X146552125Y-104035819D01*
X146585610Y-104097142D01*
X146580626Y-104166834D01*
X146538754Y-104222767D01*
X146473290Y-104247184D01*
X146464444Y-104247500D01*
X146447028Y-104247500D01*
X146292708Y-104285536D01*
X146151969Y-104359401D01*
X146033006Y-104464794D01*
X146033000Y-104464801D01*
X145942714Y-104595602D01*
X145886350Y-104744218D01*
X145867193Y-104901999D01*
X145867193Y-104902000D01*
X145886350Y-105059781D01*
X145942714Y-105208397D01*
X146018843Y-105318689D01*
X146033002Y-105339201D01*
X146033004Y-105339203D01*
X146033006Y-105339205D01*
X146105227Y-105403187D01*
X146142354Y-105462376D01*
X146147000Y-105496002D01*
X146147000Y-106416847D01*
X146127315Y-106483886D01*
X146110681Y-106504528D01*
X141938028Y-110677181D01*
X141876705Y-110710666D01*
X141850347Y-110713500D01*
X140038220Y-110713500D01*
X140012775Y-110710861D01*
X140001901Y-110708581D01*
X140001897Y-110708581D01*
X139966260Y-110713023D01*
X139958584Y-110713500D01*
X139954557Y-110713500D01*
X139946798Y-110714794D01*
X139931280Y-110717383D01*
X139876222Y-110724246D01*
X139868608Y-110726513D01*
X139861073Y-110729100D01*
X139812289Y-110755500D01*
X139762434Y-110779872D01*
X139755969Y-110784487D01*
X139749685Y-110789379D01*
X139712119Y-110830186D01*
X139092124Y-111450181D01*
X139030801Y-111483666D01*
X139004443Y-111486500D01*
X138858528Y-111486500D01*
X138704208Y-111524536D01*
X138563469Y-111598401D01*
X138444506Y-111703794D01*
X138444500Y-111703801D01*
X138354214Y-111834602D01*
X138297850Y-111983218D01*
X138278693Y-112140999D01*
X138278693Y-112141000D01*
X136525500Y-112141000D01*
X136525500Y-107706000D01*
X137701768Y-107706000D01*
X137720654Y-107909816D01*
X137720654Y-107909818D01*
X137720655Y-107909821D01*
X137746565Y-108000886D01*
X137776673Y-108106704D01*
X137867912Y-108289935D01*
X137991269Y-108453287D01*
X138142537Y-108591185D01*
X138142539Y-108591187D01*
X138316569Y-108698942D01*
X138316575Y-108698945D01*
X138357010Y-108714609D01*
X138507444Y-108772888D01*
X138708653Y-108810500D01*
X138708656Y-108810500D01*
X138913344Y-108810500D01*
X138913347Y-108810500D01*
X139114556Y-108772888D01*
X139305427Y-108698944D01*
X139479462Y-108591186D01*
X139630732Y-108453285D01*
X139754088Y-108289935D01*
X139845328Y-108106701D01*
X139901345Y-107909821D01*
X139920232Y-107706000D01*
X139901345Y-107502179D01*
X139845328Y-107305299D01*
X139754088Y-107122065D01*
X139666638Y-107006262D01*
X139630730Y-106958712D01*
X139479462Y-106820814D01*
X139479460Y-106820812D01*
X139305430Y-106713057D01*
X139305424Y-106713054D01*
X139154993Y-106654777D01*
X139114556Y-106639112D01*
X138913347Y-106601500D01*
X138708653Y-106601500D01*
X138507444Y-106639112D01*
X138507441Y-106639112D01*
X138507441Y-106639113D01*
X138316575Y-106713054D01*
X138316569Y-106713057D01*
X138142539Y-106820812D01*
X138142537Y-106820814D01*
X137991269Y-106958712D01*
X137867912Y-107122064D01*
X137776673Y-107305295D01*
X137750885Y-107395931D01*
X137744910Y-107416933D01*
X137720654Y-107502183D01*
X137701768Y-107705999D01*
X137701768Y-107706000D01*
X136525500Y-107706000D01*
X136525500Y-105166000D01*
X137701768Y-105166000D01*
X137720654Y-105369816D01*
X137720654Y-105369818D01*
X137720655Y-105369821D01*
X137776672Y-105566701D01*
X137776673Y-105566704D01*
X137867912Y-105749935D01*
X137991269Y-105913287D01*
X138142537Y-106051185D01*
X138142539Y-106051187D01*
X138316569Y-106158942D01*
X138316575Y-106158945D01*
X138357010Y-106174609D01*
X138507444Y-106232888D01*
X138708653Y-106270500D01*
X138708656Y-106270500D01*
X138913344Y-106270500D01*
X138913347Y-106270500D01*
X139114556Y-106232888D01*
X139305427Y-106158944D01*
X139479462Y-106051186D01*
X139608008Y-105934000D01*
X139630730Y-105913287D01*
X139630732Y-105913285D01*
X139754088Y-105749935D01*
X139845328Y-105566701D01*
X139901345Y-105369821D01*
X139920232Y-105166000D01*
X139920097Y-105164548D01*
X139914098Y-105099801D01*
X139901345Y-104962179D01*
X139845328Y-104765299D01*
X139754088Y-104582065D01*
X139674285Y-104476388D01*
X139630730Y-104418712D01*
X139479462Y-104280814D01*
X139479460Y-104280812D01*
X139305430Y-104173057D01*
X139305424Y-104173054D01*
X139154993Y-104114777D01*
X139114556Y-104099112D01*
X138913347Y-104061500D01*
X138708653Y-104061500D01*
X138507444Y-104099112D01*
X138507441Y-104099112D01*
X138507441Y-104099113D01*
X138316575Y-104173054D01*
X138316569Y-104173057D01*
X138142539Y-104280812D01*
X138142537Y-104280814D01*
X137991269Y-104418712D01*
X137867912Y-104582064D01*
X137776673Y-104765295D01*
X137765951Y-104802980D01*
X137730574Y-104927319D01*
X137720654Y-104962183D01*
X137701768Y-105165999D01*
X137701768Y-105166000D01*
X136525500Y-105166000D01*
X136525500Y-98171000D01*
X137262693Y-98171000D01*
X137281850Y-98328781D01*
X137297028Y-98368801D01*
X137338213Y-98477395D01*
X137428502Y-98608201D01*
X137428504Y-98608203D01*
X137428506Y-98608205D01*
X137490934Y-98663511D01*
X137547471Y-98713599D01*
X137547864Y-98713805D01*
X137548100Y-98714033D01*
X137553645Y-98717861D01*
X137553008Y-98718782D01*
X137598079Y-98762388D01*
X137614056Y-98830406D01*
X137590724Y-98896265D01*
X137589510Y-98897915D01*
X137517646Y-98993911D01*
X137517645Y-98993913D01*
X137467403Y-99128620D01*
X137467401Y-99128627D01*
X137461000Y-99188155D01*
X137461000Y-99836000D01*
X138377314Y-99836000D01*
X138351507Y-99876156D01*
X138311000Y-100014111D01*
X138311000Y-100157889D01*
X138351507Y-100295844D01*
X138377314Y-100336000D01*
X137461000Y-100336000D01*
X137461000Y-100983844D01*
X137467401Y-101043372D01*
X137467403Y-101043379D01*
X137517645Y-101178086D01*
X137517649Y-101178093D01*
X137603809Y-101293187D01*
X137603812Y-101293190D01*
X137718906Y-101379350D01*
X137718913Y-101379354D01*
X137853620Y-101429596D01*
X137853627Y-101429598D01*
X137913155Y-101435999D01*
X137913172Y-101436000D01*
X138199015Y-101436000D01*
X138266054Y-101455685D01*
X138311809Y-101508489D01*
X138321753Y-101577647D01*
X138292728Y-101641203D01*
X138264292Y-101665427D01*
X138142539Y-101740812D01*
X138142537Y-101740814D01*
X137991269Y-101878712D01*
X137867912Y-102042064D01*
X137776673Y-102225295D01*
X137765678Y-102263939D01*
X137729020Y-102392781D01*
X137720654Y-102422183D01*
X137701768Y-102625999D01*
X137701768Y-102626000D01*
X137720654Y-102829816D01*
X137720654Y-102829818D01*
X137720655Y-102829821D01*
X137766609Y-102991332D01*
X137776673Y-103026704D01*
X137867912Y-103209935D01*
X137991269Y-103373287D01*
X138142537Y-103511185D01*
X138142539Y-103511187D01*
X138316569Y-103618942D01*
X138316575Y-103618945D01*
X138357010Y-103634609D01*
X138507444Y-103692888D01*
X138708653Y-103730500D01*
X138708656Y-103730500D01*
X138913344Y-103730500D01*
X138913347Y-103730500D01*
X139114556Y-103692888D01*
X139305427Y-103618944D01*
X139479462Y-103511186D01*
X139630732Y-103373285D01*
X139754088Y-103209935D01*
X139845328Y-103026701D01*
X139901345Y-102829821D01*
X139920232Y-102626000D01*
X139901345Y-102422179D01*
X139848088Y-102235000D01*
X142215693Y-102235000D01*
X142234850Y-102392781D01*
X142264312Y-102470463D01*
X142278737Y-102508500D01*
X142291214Y-102541397D01*
X142349611Y-102625999D01*
X142381502Y-102672201D01*
X142381504Y-102672203D01*
X142381506Y-102672205D01*
X142500469Y-102777598D01*
X142500471Y-102777599D01*
X142641207Y-102851463D01*
X142718368Y-102870481D01*
X142795528Y-102889500D01*
X142795529Y-102889500D01*
X142954472Y-102889500D01*
X143006273Y-102876732D01*
X143108793Y-102851463D01*
X143249529Y-102777599D01*
X143368498Y-102672201D01*
X143458787Y-102541395D01*
X143515149Y-102392782D01*
X143534307Y-102235000D01*
X143529025Y-102191502D01*
X143515149Y-102077218D01*
X143507791Y-102057816D01*
X143458787Y-101928605D01*
X143368498Y-101797799D01*
X143368495Y-101797796D01*
X143368493Y-101797794D01*
X143249530Y-101692401D01*
X143108791Y-101618536D01*
X142954472Y-101580500D01*
X142954471Y-101580500D01*
X142795529Y-101580500D01*
X142795528Y-101580500D01*
X142641208Y-101618536D01*
X142500469Y-101692401D01*
X142381506Y-101797794D01*
X142381500Y-101797801D01*
X142291214Y-101928602D01*
X142234850Y-102077218D01*
X142215693Y-102234999D01*
X142215693Y-102235000D01*
X139848088Y-102235000D01*
X139845328Y-102225299D01*
X139754088Y-102042065D01*
X139668405Y-101928602D01*
X139630730Y-101878712D01*
X139479462Y-101740814D01*
X139479460Y-101740812D01*
X139357708Y-101665427D01*
X139311072Y-101613399D01*
X139299968Y-101544418D01*
X139327921Y-101480383D01*
X139386056Y-101441627D01*
X139422985Y-101436000D01*
X139708828Y-101436000D01*
X139708844Y-101435999D01*
X139768372Y-101429598D01*
X139768379Y-101429596D01*
X139903086Y-101379354D01*
X139903093Y-101379350D01*
X140018187Y-101293190D01*
X140018190Y-101293187D01*
X140104350Y-101178093D01*
X140104354Y-101178086D01*
X140154596Y-101043379D01*
X140154598Y-101043372D01*
X140160999Y-100983844D01*
X140161000Y-100983827D01*
X140161000Y-100336000D01*
X139244686Y-100336000D01*
X139270493Y-100295844D01*
X139311000Y-100157889D01*
X139311000Y-100014111D01*
X139270493Y-99876156D01*
X139244686Y-99836000D01*
X140161000Y-99836000D01*
X140161000Y-99188172D01*
X140160999Y-99188155D01*
X140154598Y-99128627D01*
X140154596Y-99128620D01*
X140104354Y-98993913D01*
X140104350Y-98993906D01*
X140018190Y-98878812D01*
X140018187Y-98878809D01*
X139920927Y-98806000D01*
X144501693Y-98806000D01*
X144520850Y-98963781D01*
X144577214Y-99112397D01*
X144628709Y-99187000D01*
X144667502Y-99243201D01*
X144667504Y-99243203D01*
X144667506Y-99243205D01*
X144786469Y-99348598D01*
X144786471Y-99348599D01*
X144927207Y-99422463D01*
X145004368Y-99441481D01*
X145081528Y-99460500D01*
X145081529Y-99460500D01*
X145240472Y-99460500D01*
X145291911Y-99447821D01*
X145394793Y-99422463D01*
X145535529Y-99348599D01*
X145654498Y-99243201D01*
X145693291Y-99187000D01*
X158725693Y-99187000D01*
X158744850Y-99344781D01*
X158774312Y-99422463D01*
X158788737Y-99460500D01*
X158801214Y-99493397D01*
X158865134Y-99586000D01*
X158891502Y-99624201D01*
X158891504Y-99624203D01*
X158891506Y-99624205D01*
X159010469Y-99729598D01*
X159010471Y-99729599D01*
X159151207Y-99803463D01*
X159228368Y-99822481D01*
X159305528Y-99841500D01*
X159305529Y-99841500D01*
X159464472Y-99841500D01*
X159515911Y-99828821D01*
X159618793Y-99803463D01*
X159759529Y-99729599D01*
X159878498Y-99624201D01*
X159968787Y-99493395D01*
X160025149Y-99344782D01*
X160028887Y-99314000D01*
X165133768Y-99314000D01*
X165152654Y-99517816D01*
X165152654Y-99517818D01*
X165152655Y-99517821D01*
X165197746Y-99676299D01*
X165208673Y-99714704D01*
X165299912Y-99897935D01*
X165423269Y-100061287D01*
X165574537Y-100199185D01*
X165574539Y-100199187D01*
X165748569Y-100306942D01*
X165748575Y-100306945D01*
X165789010Y-100322609D01*
X165939444Y-100380888D01*
X166140653Y-100418500D01*
X166140656Y-100418500D01*
X166345344Y-100418500D01*
X166345347Y-100418500D01*
X166546556Y-100380888D01*
X166737427Y-100306944D01*
X166911462Y-100199186D01*
X167062732Y-100061285D01*
X167186088Y-99897935D01*
X167277328Y-99714701D01*
X167333345Y-99517821D01*
X167352232Y-99314000D01*
X167333345Y-99110179D01*
X167277328Y-98913299D01*
X167186088Y-98730065D01*
X167094061Y-98608201D01*
X167062730Y-98566712D01*
X166911462Y-98428814D01*
X166911460Y-98428812D01*
X166737430Y-98321057D01*
X166737424Y-98321054D01*
X166586993Y-98262777D01*
X166546556Y-98247112D01*
X166345347Y-98209500D01*
X166140653Y-98209500D01*
X165939444Y-98247112D01*
X165939441Y-98247112D01*
X165939441Y-98247113D01*
X165748575Y-98321054D01*
X165748569Y-98321057D01*
X165574539Y-98428812D01*
X165574537Y-98428814D01*
X165423269Y-98566712D01*
X165299912Y-98730064D01*
X165208673Y-98913295D01*
X165152654Y-99110183D01*
X165133768Y-99313999D01*
X165133768Y-99314000D01*
X160028887Y-99314000D01*
X160044307Y-99187000D01*
X160037218Y-99128620D01*
X160025149Y-99029218D01*
X160011759Y-98993913D01*
X159968787Y-98880605D01*
X159878498Y-98749799D01*
X159878495Y-98749796D01*
X159878493Y-98749794D01*
X159759530Y-98644401D01*
X159618791Y-98570536D01*
X159464472Y-98532500D01*
X159464471Y-98532500D01*
X159305529Y-98532500D01*
X159305528Y-98532500D01*
X159151208Y-98570536D01*
X159010469Y-98644401D01*
X158891506Y-98749794D01*
X158891500Y-98749801D01*
X158801214Y-98880602D01*
X158744850Y-99029218D01*
X158725693Y-99186999D01*
X158725693Y-99187000D01*
X145693291Y-99187000D01*
X145744787Y-99112395D01*
X145801149Y-98963782D01*
X145820307Y-98806000D01*
X145818685Y-98792645D01*
X145801149Y-98648218D01*
X145785971Y-98608198D01*
X145744787Y-98499605D01*
X145654498Y-98368799D01*
X145654495Y-98368796D01*
X145654493Y-98368794D01*
X145535530Y-98263401D01*
X145394791Y-98189536D01*
X145240472Y-98151500D01*
X145240471Y-98151500D01*
X145081529Y-98151500D01*
X145081528Y-98151500D01*
X144927208Y-98189536D01*
X144786469Y-98263401D01*
X144667506Y-98368794D01*
X144667500Y-98368801D01*
X144577214Y-98499602D01*
X144520850Y-98648218D01*
X144501693Y-98805999D01*
X144501693Y-98806000D01*
X139920927Y-98806000D01*
X139903093Y-98792649D01*
X139903086Y-98792645D01*
X139768379Y-98742403D01*
X139768372Y-98742401D01*
X139708844Y-98736000D01*
X139061000Y-98736000D01*
X139061000Y-99650498D01*
X138953315Y-99601320D01*
X138846763Y-99586000D01*
X138775237Y-99586000D01*
X138668685Y-99601320D01*
X138561000Y-99650498D01*
X138561000Y-98736000D01*
X138559941Y-98734941D01*
X138496508Y-98716315D01*
X138450753Y-98663511D01*
X138440809Y-98594353D01*
X138461497Y-98541560D01*
X138467751Y-98532500D01*
X138505787Y-98477395D01*
X138562149Y-98328782D01*
X138581307Y-98171000D01*
X138562149Y-98013218D01*
X138505787Y-97864605D01*
X138415498Y-97733799D01*
X138415495Y-97733796D01*
X138415493Y-97733794D01*
X138296530Y-97628401D01*
X138155791Y-97554536D01*
X138001472Y-97516500D01*
X138001471Y-97516500D01*
X137842529Y-97516500D01*
X137842528Y-97516500D01*
X137688208Y-97554536D01*
X137547469Y-97628401D01*
X137428506Y-97733794D01*
X137428500Y-97733801D01*
X137338214Y-97864602D01*
X137281850Y-98013218D01*
X137262693Y-98170999D01*
X137262693Y-98171000D01*
X136525500Y-98171000D01*
X136525500Y-96647000D01*
X144882693Y-96647000D01*
X144901850Y-96804781D01*
X144917028Y-96844801D01*
X144958213Y-96953395D01*
X145048502Y-97084201D01*
X145048504Y-97084203D01*
X145048506Y-97084205D01*
X145167469Y-97189598D01*
X145167471Y-97189599D01*
X145308207Y-97263463D01*
X145385368Y-97282481D01*
X145462528Y-97301500D01*
X145462529Y-97301500D01*
X145621472Y-97301500D01*
X145672911Y-97288821D01*
X145700585Y-97282000D01*
X159995693Y-97282000D01*
X160014850Y-97439781D01*
X160055427Y-97546773D01*
X160071213Y-97588395D01*
X160161502Y-97719201D01*
X160161504Y-97719203D01*
X160161506Y-97719205D01*
X160280469Y-97824598D01*
X160280471Y-97824599D01*
X160421207Y-97898463D01*
X160498368Y-97917481D01*
X160575528Y-97936500D01*
X160575529Y-97936500D01*
X160734472Y-97936500D01*
X160785911Y-97923821D01*
X160888793Y-97898463D01*
X161029529Y-97824599D01*
X161148498Y-97719201D01*
X161238787Y-97588395D01*
X161295149Y-97439782D01*
X161314307Y-97282000D01*
X161303087Y-97189598D01*
X161295149Y-97124218D01*
X161276236Y-97074350D01*
X161270869Y-97004687D01*
X161304016Y-96943180D01*
X161365154Y-96909359D01*
X161421851Y-96909980D01*
X161464529Y-96920500D01*
X161464530Y-96920500D01*
X161623472Y-96920500D01*
X161674911Y-96907821D01*
X161777793Y-96882463D01*
X161918529Y-96808599D01*
X162037498Y-96703201D01*
X162127787Y-96572395D01*
X162184149Y-96423782D01*
X162203307Y-96266000D01*
X162199569Y-96235218D01*
X162184149Y-96108218D01*
X162175951Y-96086602D01*
X162127787Y-95959605D01*
X162125156Y-95955794D01*
X162080986Y-95891802D01*
X162037498Y-95828799D01*
X162037495Y-95828796D01*
X162037493Y-95828794D01*
X161918530Y-95723401D01*
X161777791Y-95649536D01*
X161623472Y-95611500D01*
X161623471Y-95611500D01*
X161464529Y-95611500D01*
X161464528Y-95611500D01*
X161310208Y-95649536D01*
X161169469Y-95723401D01*
X161050506Y-95828794D01*
X161050500Y-95828801D01*
X160960214Y-95959602D01*
X160903850Y-96108218D01*
X160884693Y-96265999D01*
X160884693Y-96266000D01*
X160903851Y-96423782D01*
X160922763Y-96473650D01*
X160928130Y-96543313D01*
X160894982Y-96604820D01*
X160833844Y-96638641D01*
X160777147Y-96638018D01*
X160734473Y-96627500D01*
X160734471Y-96627500D01*
X160575529Y-96627500D01*
X160575528Y-96627500D01*
X160421208Y-96665536D01*
X160280469Y-96739401D01*
X160161506Y-96844794D01*
X160161500Y-96844801D01*
X160071214Y-96975602D01*
X160014850Y-97124218D01*
X159995693Y-97281999D01*
X159995693Y-97282000D01*
X145700585Y-97282000D01*
X145775793Y-97263463D01*
X145916529Y-97189599D01*
X146035498Y-97084201D01*
X146125787Y-96953395D01*
X146182149Y-96804782D01*
X146201307Y-96647000D01*
X146200216Y-96638018D01*
X146182149Y-96489218D01*
X146157332Y-96423782D01*
X146145658Y-96393000D01*
X155296693Y-96393000D01*
X155315850Y-96550781D01*
X155372214Y-96699397D01*
X155447591Y-96808599D01*
X155462502Y-96830201D01*
X155462504Y-96830203D01*
X155462506Y-96830205D01*
X155581469Y-96935598D01*
X155581471Y-96935599D01*
X155722207Y-97009463D01*
X155799368Y-97028481D01*
X155876528Y-97047500D01*
X155876529Y-97047500D01*
X156035472Y-97047500D01*
X156086911Y-97034821D01*
X156189793Y-97009463D01*
X156330529Y-96935599D01*
X156449498Y-96830201D01*
X156539787Y-96699395D01*
X156596149Y-96550782D01*
X156615307Y-96393000D01*
X156596149Y-96235218D01*
X156582110Y-96198200D01*
X158149893Y-96198200D01*
X158169050Y-96355981D01*
X158225414Y-96504597D01*
X158272212Y-96572395D01*
X158315702Y-96635401D01*
X158315704Y-96635403D01*
X158315706Y-96635405D01*
X158434669Y-96740798D01*
X158434671Y-96740799D01*
X158575407Y-96814663D01*
X158638435Y-96830198D01*
X158729728Y-96852700D01*
X158729729Y-96852700D01*
X158888672Y-96852700D01*
X158940111Y-96840021D01*
X159042993Y-96814663D01*
X159183729Y-96740799D01*
X159302698Y-96635401D01*
X159392987Y-96504595D01*
X159449349Y-96355982D01*
X159468507Y-96198200D01*
X159449349Y-96040418D01*
X159392987Y-95891805D01*
X159302698Y-95760999D01*
X159302695Y-95760996D01*
X159302693Y-95760994D01*
X159183730Y-95655601D01*
X159042991Y-95581736D01*
X158888672Y-95543700D01*
X158888671Y-95543700D01*
X158729729Y-95543700D01*
X158729728Y-95543700D01*
X158575408Y-95581736D01*
X158434669Y-95655601D01*
X158315706Y-95760994D01*
X158315700Y-95761001D01*
X158225414Y-95891802D01*
X158169050Y-96040418D01*
X158149893Y-96198199D01*
X158149893Y-96198200D01*
X156582110Y-96198200D01*
X156539787Y-96086605D01*
X156449498Y-95955799D01*
X156449495Y-95955796D01*
X156449493Y-95955794D01*
X156330530Y-95850401D01*
X156189791Y-95776536D01*
X156035472Y-95738500D01*
X156035471Y-95738500D01*
X155876529Y-95738500D01*
X155876528Y-95738500D01*
X155722208Y-95776536D01*
X155581469Y-95850401D01*
X155462506Y-95955794D01*
X155462500Y-95955801D01*
X155372214Y-96086602D01*
X155315850Y-96235218D01*
X155296693Y-96392999D01*
X155296693Y-96393000D01*
X146145658Y-96393000D01*
X146125787Y-96340605D01*
X146035498Y-96209799D01*
X146035495Y-96209796D01*
X146035493Y-96209794D01*
X145916530Y-96104401D01*
X145775791Y-96030536D01*
X145621472Y-95992500D01*
X145621471Y-95992500D01*
X145462529Y-95992500D01*
X145462528Y-95992500D01*
X145308208Y-96030536D01*
X145167469Y-96104401D01*
X145048506Y-96209794D01*
X145048500Y-96209801D01*
X144958214Y-96340602D01*
X144901850Y-96489218D01*
X144882693Y-96646999D01*
X144882693Y-96647000D01*
X136525500Y-96647000D01*
X136525500Y-95250000D01*
X149290193Y-95250000D01*
X149309350Y-95407781D01*
X149334456Y-95473979D01*
X149360898Y-95543700D01*
X149365714Y-95556397D01*
X149383205Y-95581737D01*
X149456002Y-95687201D01*
X149456004Y-95687203D01*
X149456006Y-95687205D01*
X149574969Y-95792598D01*
X149574971Y-95792599D01*
X149715707Y-95866463D01*
X149792868Y-95885481D01*
X149870028Y-95904500D01*
X149870029Y-95904500D01*
X150028972Y-95904500D01*
X150080489Y-95891802D01*
X150183293Y-95866463D01*
X150324029Y-95792599D01*
X150442998Y-95687201D01*
X150533287Y-95556395D01*
X150589649Y-95407782D01*
X150608807Y-95250000D01*
X150597587Y-95157598D01*
X150589649Y-95092218D01*
X150574471Y-95052198D01*
X150533287Y-94943605D01*
X150533284Y-94943600D01*
X150533033Y-94943121D01*
X150532954Y-94942731D01*
X150530627Y-94936593D01*
X150531647Y-94936205D01*
X150519311Y-94874612D01*
X150544806Y-94809560D01*
X150601424Y-94768618D01*
X150642832Y-94761500D01*
X150701472Y-94761500D01*
X150849488Y-94725017D01*
X150855793Y-94723463D01*
X150855793Y-94723462D01*
X150861939Y-94721948D01*
X150931741Y-94725017D01*
X150988803Y-94765337D01*
X151007556Y-94798373D01*
X151015561Y-94819479D01*
X151041737Y-94888500D01*
X151054214Y-94921397D01*
X151129591Y-95030599D01*
X151144502Y-95052201D01*
X151144504Y-95052203D01*
X151144506Y-95052205D01*
X151263469Y-95157598D01*
X151263471Y-95157599D01*
X151404207Y-95231463D01*
X151481368Y-95250481D01*
X151558528Y-95269500D01*
X151558529Y-95269500D01*
X151717472Y-95269500D01*
X151769496Y-95256677D01*
X151871793Y-95231463D01*
X152012529Y-95157599D01*
X152131498Y-95052201D01*
X152221787Y-94921395D01*
X152278149Y-94772782D01*
X152297307Y-94615000D01*
X152278149Y-94457218D01*
X152221787Y-94308605D01*
X152131498Y-94177799D01*
X152131495Y-94177796D01*
X152131493Y-94177794D01*
X152012530Y-94072401D01*
X151871791Y-93998536D01*
X151717472Y-93960500D01*
X151717471Y-93960500D01*
X151558529Y-93960500D01*
X151558528Y-93960500D01*
X151398060Y-94000051D01*
X151328257Y-93996982D01*
X151271195Y-93956662D01*
X151252443Y-93923626D01*
X151247465Y-93910500D01*
X151205787Y-93800605D01*
X151203156Y-93796794D01*
X151115499Y-93669801D01*
X151115498Y-93669799D01*
X151115495Y-93669796D01*
X151115493Y-93669794D01*
X150996530Y-93564401D01*
X150855791Y-93490536D01*
X150701472Y-93452500D01*
X150701471Y-93452500D01*
X150542529Y-93452500D01*
X150542528Y-93452500D01*
X150388208Y-93490536D01*
X150247469Y-93564401D01*
X150128506Y-93669794D01*
X150128500Y-93669801D01*
X150038214Y-93800602D01*
X149981850Y-93949218D01*
X149962693Y-94106999D01*
X149962693Y-94107000D01*
X149981850Y-94264781D01*
X150006668Y-94330218D01*
X150030016Y-94391782D01*
X150038215Y-94413399D01*
X150038467Y-94413879D01*
X150038545Y-94414268D01*
X150040873Y-94420407D01*
X150039852Y-94420794D01*
X150052189Y-94482388D01*
X150026694Y-94547440D01*
X149970076Y-94588382D01*
X149928668Y-94595500D01*
X149870028Y-94595500D01*
X149715708Y-94633536D01*
X149574969Y-94707401D01*
X149456006Y-94812794D01*
X149456000Y-94812801D01*
X149365714Y-94943602D01*
X149309350Y-95092218D01*
X149290193Y-95249999D01*
X149290193Y-95250000D01*
X136525500Y-95250000D01*
X136525500Y-93345000D01*
X152592193Y-93345000D01*
X152611350Y-93502781D01*
X152667714Y-93651397D01*
X152696572Y-93693205D01*
X152758002Y-93782201D01*
X152758004Y-93782203D01*
X152758006Y-93782205D01*
X152876969Y-93887598D01*
X152876971Y-93887599D01*
X153017707Y-93961463D01*
X153152400Y-93994662D01*
X153212779Y-94029817D01*
X153244568Y-94092036D01*
X153245820Y-94130004D01*
X153233193Y-94233999D01*
X153233193Y-94234000D01*
X153252350Y-94391781D01*
X153308714Y-94540397D01*
X153384091Y-94649599D01*
X153399002Y-94671201D01*
X153399004Y-94671203D01*
X153399006Y-94671205D01*
X153517969Y-94776598D01*
X153517971Y-94776599D01*
X153658707Y-94850463D01*
X153730040Y-94868045D01*
X153813028Y-94888500D01*
X153813029Y-94888500D01*
X153971972Y-94888500D01*
X154028317Y-94874612D01*
X154126293Y-94850463D01*
X154185328Y-94819479D01*
X155295888Y-94819479D01*
X155315045Y-94977260D01*
X155371409Y-95125876D01*
X155393306Y-95157599D01*
X155461697Y-95256680D01*
X155461699Y-95256682D01*
X155461701Y-95256684D01*
X155580664Y-95362077D01*
X155580666Y-95362078D01*
X155721402Y-95435942D01*
X155798563Y-95454960D01*
X155875723Y-95473979D01*
X155875724Y-95473979D01*
X156034667Y-95473979D01*
X156086106Y-95461300D01*
X156188988Y-95435942D01*
X156329724Y-95362078D01*
X156448693Y-95256680D01*
X156538982Y-95125874D01*
X156595344Y-94977261D01*
X156614502Y-94819479D01*
X156614127Y-94816394D01*
X156595344Y-94661697D01*
X156577634Y-94615000D01*
X156538982Y-94513084D01*
X156521668Y-94488000D01*
X162916693Y-94488000D01*
X162935850Y-94645781D01*
X162959220Y-94707401D01*
X162985463Y-94776598D01*
X162992214Y-94794397D01*
X163009527Y-94819479D01*
X163082502Y-94925201D01*
X163082504Y-94925203D01*
X163082506Y-94925205D01*
X163201469Y-95030598D01*
X163201471Y-95030599D01*
X163342207Y-95104463D01*
X163419368Y-95123481D01*
X163496528Y-95142500D01*
X163496529Y-95142500D01*
X163655472Y-95142500D01*
X163722925Y-95125874D01*
X163809793Y-95104463D01*
X163950529Y-95030599D01*
X164069498Y-94925201D01*
X164108950Y-94868045D01*
X164163232Y-94824054D01*
X164232681Y-94816394D01*
X164295246Y-94847497D01*
X164313050Y-94868045D01*
X164352497Y-94925195D01*
X164352506Y-94925205D01*
X164471469Y-95030598D01*
X164471471Y-95030599D01*
X164612207Y-95104463D01*
X164689368Y-95123481D01*
X164766528Y-95142500D01*
X164766529Y-95142500D01*
X164925472Y-95142500D01*
X164992925Y-95125874D01*
X165079793Y-95104463D01*
X165220529Y-95030599D01*
X165339498Y-94925201D01*
X165429787Y-94794395D01*
X165486149Y-94645782D01*
X165505307Y-94488000D01*
X165501569Y-94457218D01*
X165486149Y-94330218D01*
X165461332Y-94264782D01*
X165429787Y-94181605D01*
X165427160Y-94177799D01*
X165376493Y-94104395D01*
X165354610Y-94038040D01*
X165372075Y-93970389D01*
X165423343Y-93922919D01*
X165483028Y-93912319D01*
X165483028Y-93910500D01*
X165649472Y-93910500D01*
X165700911Y-93897821D01*
X165803793Y-93872463D01*
X165944529Y-93798599D01*
X166063498Y-93693201D01*
X166153787Y-93562395D01*
X166210149Y-93413782D01*
X166229307Y-93256000D01*
X166220955Y-93187218D01*
X166210149Y-93098218D01*
X166153787Y-92949605D01*
X166063498Y-92818799D01*
X166063495Y-92818796D01*
X166063493Y-92818794D01*
X165944530Y-92713401D01*
X165803791Y-92639536D01*
X165649472Y-92601500D01*
X165649471Y-92601500D01*
X165490529Y-92601500D01*
X165490528Y-92601500D01*
X165336208Y-92639536D01*
X165195469Y-92713401D01*
X165076506Y-92818794D01*
X165076500Y-92818801D01*
X164986214Y-92949602D01*
X164929850Y-93098218D01*
X164910693Y-93255999D01*
X164910693Y-93256000D01*
X164929850Y-93413781D01*
X164986214Y-93562397D01*
X165039506Y-93639604D01*
X165061389Y-93705959D01*
X165043923Y-93773610D01*
X164992655Y-93821080D01*
X164932972Y-93831679D01*
X164932972Y-93833500D01*
X164766528Y-93833500D01*
X164612208Y-93871536D01*
X164471469Y-93945401D01*
X164352506Y-94050794D01*
X164352500Y-94050801D01*
X164313050Y-94107955D01*
X164258767Y-94151945D01*
X164189318Y-94159605D01*
X164126754Y-94128501D01*
X164108950Y-94107955D01*
X164069499Y-94050801D01*
X164069498Y-94050799D01*
X164069495Y-94050796D01*
X164069493Y-94050794D01*
X163950530Y-93945401D01*
X163809791Y-93871536D01*
X163655472Y-93833500D01*
X163655471Y-93833500D01*
X163496529Y-93833500D01*
X163496528Y-93833500D01*
X163342208Y-93871536D01*
X163201469Y-93945401D01*
X163082506Y-94050794D01*
X163082500Y-94050801D01*
X162992214Y-94181602D01*
X162935850Y-94330218D01*
X162916693Y-94487999D01*
X162916693Y-94488000D01*
X156521668Y-94488000D01*
X156448693Y-94382278D01*
X156448690Y-94382275D01*
X156448688Y-94382273D01*
X156329725Y-94276880D01*
X156188986Y-94203015D01*
X156034667Y-94164979D01*
X156034666Y-94164979D01*
X155875724Y-94164979D01*
X155875723Y-94164979D01*
X155721403Y-94203015D01*
X155580664Y-94276880D01*
X155461701Y-94382273D01*
X155461695Y-94382280D01*
X155371409Y-94513081D01*
X155315045Y-94661697D01*
X155295888Y-94819478D01*
X155295888Y-94819479D01*
X154185328Y-94819479D01*
X154267029Y-94776599D01*
X154385998Y-94671201D01*
X154476287Y-94540395D01*
X154532649Y-94391782D01*
X154551807Y-94234000D01*
X154544982Y-94177794D01*
X154532649Y-94076218D01*
X154528650Y-94065673D01*
X154476287Y-93927605D01*
X154473540Y-93923626D01*
X154387240Y-93798599D01*
X154385998Y-93796799D01*
X154385995Y-93796796D01*
X154385993Y-93796794D01*
X154267030Y-93691401D01*
X154126291Y-93617536D01*
X153991600Y-93584338D01*
X153931219Y-93549182D01*
X153899431Y-93486962D01*
X153898179Y-93449000D01*
X153910807Y-93345000D01*
X153891649Y-93187218D01*
X153835287Y-93038605D01*
X153744998Y-92907799D01*
X153744995Y-92907796D01*
X153744993Y-92907794D01*
X153626030Y-92802401D01*
X153485291Y-92728536D01*
X153330972Y-92690500D01*
X153330971Y-92690500D01*
X153172029Y-92690500D01*
X153172028Y-92690500D01*
X153017708Y-92728536D01*
X152876969Y-92802401D01*
X152758006Y-92907794D01*
X152758000Y-92907801D01*
X152667714Y-93038602D01*
X152611350Y-93187218D01*
X152592193Y-93344999D01*
X152592193Y-93345000D01*
X136525500Y-93345000D01*
X136525500Y-92202000D01*
X155296193Y-92202000D01*
X155315350Y-92359781D01*
X155355927Y-92466773D01*
X155371713Y-92508395D01*
X155462002Y-92639201D01*
X155462004Y-92639203D01*
X155462006Y-92639205D01*
X155580969Y-92744598D01*
X155580971Y-92744599D01*
X155721707Y-92818463D01*
X155798868Y-92837481D01*
X155876028Y-92856500D01*
X155876029Y-92856500D01*
X156034972Y-92856500D01*
X156086411Y-92843821D01*
X156189293Y-92818463D01*
X156330029Y-92744599D01*
X156448998Y-92639201D01*
X156539287Y-92508395D01*
X156595649Y-92359782D01*
X156614807Y-92202000D01*
X156595649Y-92044218D01*
X156539287Y-91895605D01*
X156448998Y-91764799D01*
X156448995Y-91764796D01*
X156448993Y-91764794D01*
X156330030Y-91659401D01*
X156189291Y-91585536D01*
X156087545Y-91560458D01*
X156027165Y-91525301D01*
X155995377Y-91463082D01*
X156002273Y-91393553D01*
X156045665Y-91338791D01*
X156087545Y-91319664D01*
X156189793Y-91294463D01*
X156330529Y-91220599D01*
X156449498Y-91115201D01*
X156539787Y-90984395D01*
X156596149Y-90835782D01*
X156597974Y-90820750D01*
X160160193Y-90820750D01*
X160179350Y-90978531D01*
X160181575Y-90984397D01*
X160235713Y-91127145D01*
X160326002Y-91257951D01*
X160326004Y-91257953D01*
X160326006Y-91257955D01*
X160444969Y-91363348D01*
X160444971Y-91363349D01*
X160585707Y-91437213D01*
X160662868Y-91456231D01*
X160740028Y-91475250D01*
X160740029Y-91475250D01*
X160898972Y-91475250D01*
X160950411Y-91462571D01*
X161053293Y-91437213D01*
X161194029Y-91363349D01*
X161312998Y-91257951D01*
X161403287Y-91127145D01*
X161459649Y-90978532D01*
X161478807Y-90820750D01*
X161459649Y-90662968D01*
X161403287Y-90514355D01*
X161312998Y-90383549D01*
X161312995Y-90383546D01*
X161312993Y-90383544D01*
X161194030Y-90278151D01*
X161110859Y-90234500D01*
X162116693Y-90234500D01*
X162135850Y-90392281D01*
X162176427Y-90499273D01*
X162192213Y-90540895D01*
X162282502Y-90671701D01*
X162282504Y-90671703D01*
X162282506Y-90671705D01*
X162401469Y-90777098D01*
X162401471Y-90777099D01*
X162542207Y-90850963D01*
X162619368Y-90869981D01*
X162696528Y-90889000D01*
X162696529Y-90889000D01*
X162855472Y-90889000D01*
X162906911Y-90876321D01*
X163009793Y-90850963D01*
X163150529Y-90777099D01*
X163269498Y-90671701D01*
X163359787Y-90540895D01*
X163416149Y-90392282D01*
X163435307Y-90234500D01*
X163416149Y-90076718D01*
X163359787Y-89928105D01*
X163269498Y-89797299D01*
X163269495Y-89797296D01*
X163269493Y-89797294D01*
X163150530Y-89691901D01*
X163009791Y-89618036D01*
X162855472Y-89580000D01*
X162855471Y-89580000D01*
X162696529Y-89580000D01*
X162696528Y-89580000D01*
X162542208Y-89618036D01*
X162401469Y-89691901D01*
X162282506Y-89797294D01*
X162282500Y-89797301D01*
X162192214Y-89928102D01*
X162135850Y-90076718D01*
X162116693Y-90234499D01*
X162116693Y-90234500D01*
X161110859Y-90234500D01*
X161053887Y-90204599D01*
X161053293Y-90204287D01*
X161053292Y-90204286D01*
X161053291Y-90204286D01*
X160898972Y-90166250D01*
X160898971Y-90166250D01*
X160740029Y-90166250D01*
X160740028Y-90166250D01*
X160585708Y-90204286D01*
X160444969Y-90278151D01*
X160326006Y-90383544D01*
X160326000Y-90383551D01*
X160235714Y-90514352D01*
X160179350Y-90662968D01*
X160160193Y-90820749D01*
X160160193Y-90820750D01*
X156597974Y-90820750D01*
X156615307Y-90678000D01*
X156596149Y-90520218D01*
X156539787Y-90371605D01*
X156449498Y-90240799D01*
X156449495Y-90240796D01*
X156449493Y-90240794D01*
X156330530Y-90135401D01*
X156189791Y-90061536D01*
X156035472Y-90023500D01*
X156035471Y-90023500D01*
X155876529Y-90023500D01*
X155876528Y-90023500D01*
X155722208Y-90061536D01*
X155581469Y-90135401D01*
X155462506Y-90240794D01*
X155462500Y-90240801D01*
X155372214Y-90371602D01*
X155315850Y-90520218D01*
X155296693Y-90677999D01*
X155296693Y-90678000D01*
X155315850Y-90835781D01*
X155321608Y-90850963D01*
X155372213Y-90984395D01*
X155462502Y-91115201D01*
X155462504Y-91115203D01*
X155462506Y-91115205D01*
X155581469Y-91220598D01*
X155581471Y-91220599D01*
X155722207Y-91294463D01*
X155823953Y-91319541D01*
X155884334Y-91354697D01*
X155916122Y-91416917D01*
X155909226Y-91486445D01*
X155865835Y-91541208D01*
X155823954Y-91560335D01*
X155721708Y-91585536D01*
X155580969Y-91659401D01*
X155462006Y-91764794D01*
X155462000Y-91764801D01*
X155371714Y-91895602D01*
X155315350Y-92044218D01*
X155296193Y-92201999D01*
X155296193Y-92202000D01*
X136525500Y-92202000D01*
X136525500Y-89662000D01*
X158979693Y-89662000D01*
X158998850Y-89819781D01*
X159039427Y-89926773D01*
X159055213Y-89968395D01*
X159145502Y-90099201D01*
X159145504Y-90099203D01*
X159145506Y-90099205D01*
X159264469Y-90204598D01*
X159264471Y-90204599D01*
X159405207Y-90278463D01*
X159482368Y-90297481D01*
X159559528Y-90316500D01*
X159559529Y-90316500D01*
X159718472Y-90316500D01*
X159769911Y-90303821D01*
X159872793Y-90278463D01*
X160013529Y-90204599D01*
X160132498Y-90099201D01*
X160222787Y-89968395D01*
X160279149Y-89819782D01*
X160298307Y-89662000D01*
X160283486Y-89539936D01*
X160294946Y-89471014D01*
X160341850Y-89419228D01*
X160409306Y-89401021D01*
X160464206Y-89415194D01*
X160585707Y-89478963D01*
X160585706Y-89478963D01*
X160740028Y-89517000D01*
X160740029Y-89517000D01*
X160898972Y-89517000D01*
X160950830Y-89504218D01*
X161053293Y-89478963D01*
X161194029Y-89405099D01*
X161312998Y-89299701D01*
X161403287Y-89168895D01*
X161459649Y-89020282D01*
X161478807Y-88862500D01*
X161459649Y-88704718D01*
X161403287Y-88556105D01*
X161312998Y-88425299D01*
X161312995Y-88425296D01*
X161312993Y-88425294D01*
X161194030Y-88319901D01*
X161053291Y-88246036D01*
X160898972Y-88208000D01*
X160898971Y-88208000D01*
X160740029Y-88208000D01*
X160740028Y-88208000D01*
X160585708Y-88246036D01*
X160444969Y-88319901D01*
X160326006Y-88425294D01*
X160326000Y-88425301D01*
X160235714Y-88556102D01*
X160179350Y-88704718D01*
X160160193Y-88862499D01*
X160160193Y-88862500D01*
X160175013Y-88984562D01*
X160163552Y-89053486D01*
X160116648Y-89105271D01*
X160049192Y-89123478D01*
X159994294Y-89109305D01*
X159872793Y-89045537D01*
X159872792Y-89045536D01*
X159872789Y-89045535D01*
X159718472Y-89007500D01*
X159718471Y-89007500D01*
X159559529Y-89007500D01*
X159559528Y-89007500D01*
X159405208Y-89045536D01*
X159264469Y-89119401D01*
X159145506Y-89224794D01*
X159145500Y-89224801D01*
X159055214Y-89355602D01*
X158998850Y-89504218D01*
X158979693Y-89661999D01*
X158979693Y-89662000D01*
X136525500Y-89662000D01*
X136525500Y-88862500D01*
X156439693Y-88862500D01*
X156458850Y-89020281D01*
X156491083Y-89105271D01*
X156515213Y-89168895D01*
X156605502Y-89299701D01*
X156605504Y-89299703D01*
X156605506Y-89299705D01*
X156724469Y-89405098D01*
X156724471Y-89405099D01*
X156865207Y-89478963D01*
X156942368Y-89497981D01*
X157019528Y-89517000D01*
X157019529Y-89517000D01*
X157178472Y-89517000D01*
X157230330Y-89504218D01*
X157332793Y-89478963D01*
X157473529Y-89405099D01*
X157592498Y-89299701D01*
X157682787Y-89168895D01*
X157739149Y-89020282D01*
X157758307Y-88862500D01*
X157739149Y-88704718D01*
X157682787Y-88556105D01*
X157592498Y-88425299D01*
X157592495Y-88425296D01*
X157592493Y-88425294D01*
X157473530Y-88319901D01*
X157332791Y-88246036D01*
X157178472Y-88208000D01*
X157178471Y-88208000D01*
X157019529Y-88208000D01*
X157019528Y-88208000D01*
X156865208Y-88246036D01*
X156724469Y-88319901D01*
X156605506Y-88425294D01*
X156605500Y-88425301D01*
X156515214Y-88556102D01*
X156458850Y-88704718D01*
X156439693Y-88862499D01*
X156439693Y-88862500D01*
X136525500Y-88862500D01*
X136525500Y-87605000D01*
X164923693Y-87605000D01*
X164942850Y-87762781D01*
X164983427Y-87869773D01*
X164999213Y-87911395D01*
X165089502Y-88042201D01*
X165089504Y-88042203D01*
X165089506Y-88042205D01*
X165208469Y-88147598D01*
X165208471Y-88147599D01*
X165349207Y-88221463D01*
X165426368Y-88240481D01*
X165503528Y-88259500D01*
X165503529Y-88259500D01*
X165662472Y-88259500D01*
X165717092Y-88246037D01*
X165816793Y-88221463D01*
X165957529Y-88147599D01*
X166076498Y-88042201D01*
X166166787Y-87911395D01*
X166223149Y-87762782D01*
X166242307Y-87605000D01*
X166223149Y-87447218D01*
X166166787Y-87298605D01*
X166076498Y-87167799D01*
X166076495Y-87167796D01*
X166076493Y-87167794D01*
X165957530Y-87062401D01*
X165816791Y-86988536D01*
X165662472Y-86950500D01*
X165662471Y-86950500D01*
X165503529Y-86950500D01*
X165503528Y-86950500D01*
X165349208Y-86988536D01*
X165208469Y-87062401D01*
X165089506Y-87167794D01*
X165089500Y-87167801D01*
X164999214Y-87298602D01*
X164942850Y-87447218D01*
X164923693Y-87604999D01*
X164923693Y-87605000D01*
X136525500Y-87605000D01*
X136525500Y-85725000D01*
X153518693Y-85725000D01*
X153537850Y-85882781D01*
X153578427Y-85989773D01*
X153594213Y-86031395D01*
X153684502Y-86162201D01*
X153684504Y-86162203D01*
X153684506Y-86162205D01*
X153803469Y-86267598D01*
X153803471Y-86267599D01*
X153944207Y-86341463D01*
X154021368Y-86360481D01*
X154098528Y-86379500D01*
X154098529Y-86379500D01*
X154257472Y-86379500D01*
X154308911Y-86366821D01*
X154411793Y-86341463D01*
X154552529Y-86267599D01*
X154671498Y-86162201D01*
X154761787Y-86031395D01*
X154818149Y-85882782D01*
X154837307Y-85725000D01*
X154818149Y-85567218D01*
X154761787Y-85418605D01*
X154671498Y-85287799D01*
X154671495Y-85287796D01*
X154671493Y-85287794D01*
X154552530Y-85182401D01*
X154411791Y-85108536D01*
X154257472Y-85070500D01*
X154257471Y-85070500D01*
X154098529Y-85070500D01*
X154098528Y-85070500D01*
X153944208Y-85108536D01*
X153803469Y-85182401D01*
X153684506Y-85287794D01*
X153684500Y-85287801D01*
X153594214Y-85418602D01*
X153537850Y-85567218D01*
X153518693Y-85724999D01*
X153518693Y-85725000D01*
X136525500Y-85725000D01*
X136525500Y-84582000D01*
X147803693Y-84582000D01*
X147822850Y-84739781D01*
X147863427Y-84846773D01*
X147879213Y-84888395D01*
X147969502Y-85019201D01*
X147969504Y-85019203D01*
X147969506Y-85019205D01*
X148088469Y-85124598D01*
X148088471Y-85124599D01*
X148229207Y-85198463D01*
X148306368Y-85217481D01*
X148383528Y-85236500D01*
X148383529Y-85236500D01*
X148542472Y-85236500D01*
X148593911Y-85223821D01*
X148696793Y-85198463D01*
X148837529Y-85124599D01*
X148952274Y-85022942D01*
X149015505Y-84993222D01*
X149084769Y-85002405D01*
X149116724Y-85022941D01*
X149231471Y-85124599D01*
X149372207Y-85198463D01*
X149449368Y-85217481D01*
X149526528Y-85236500D01*
X149526529Y-85236500D01*
X149685472Y-85236500D01*
X149736911Y-85223821D01*
X149839793Y-85198463D01*
X149980529Y-85124599D01*
X150095274Y-85022942D01*
X150158505Y-84993222D01*
X150227769Y-85002405D01*
X150259724Y-85022941D01*
X150374471Y-85124599D01*
X150515207Y-85198463D01*
X150592368Y-85217481D01*
X150669528Y-85236500D01*
X150669529Y-85236500D01*
X150828472Y-85236500D01*
X150879911Y-85223821D01*
X150982793Y-85198463D01*
X151123529Y-85124599D01*
X151242498Y-85019201D01*
X151332787Y-84888395D01*
X151389149Y-84739782D01*
X151408307Y-84582000D01*
X151389149Y-84424218D01*
X151332787Y-84275605D01*
X151242498Y-84144799D01*
X151242495Y-84144796D01*
X151242493Y-84144794D01*
X151123530Y-84039401D01*
X150982791Y-83965536D01*
X150828472Y-83927500D01*
X150828471Y-83927500D01*
X150669529Y-83927500D01*
X150669528Y-83927500D01*
X150515208Y-83965536D01*
X150374469Y-84039401D01*
X150259727Y-84141055D01*
X150196494Y-84170777D01*
X150127231Y-84161593D01*
X150095273Y-84141055D01*
X149980530Y-84039401D01*
X149839791Y-83965536D01*
X149685472Y-83927500D01*
X149685471Y-83927500D01*
X149526529Y-83927500D01*
X149526528Y-83927500D01*
X149372208Y-83965536D01*
X149231469Y-84039401D01*
X149116727Y-84141055D01*
X149053494Y-84170777D01*
X148984231Y-84161593D01*
X148952273Y-84141055D01*
X148837530Y-84039401D01*
X148696791Y-83965536D01*
X148542472Y-83927500D01*
X148542471Y-83927500D01*
X148383529Y-83927500D01*
X148383528Y-83927500D01*
X148229208Y-83965536D01*
X148088469Y-84039401D01*
X147969506Y-84144794D01*
X147969500Y-84144801D01*
X147879214Y-84275602D01*
X147822850Y-84424218D01*
X147803693Y-84581999D01*
X147803693Y-84582000D01*
X136525500Y-84582000D01*
X136525500Y-82296000D01*
X145390693Y-82296000D01*
X145409850Y-82453781D01*
X145450427Y-82560773D01*
X145466213Y-82602395D01*
X145556502Y-82733201D01*
X145556504Y-82733203D01*
X145556506Y-82733205D01*
X145675469Y-82838598D01*
X145675471Y-82838599D01*
X145816207Y-82912463D01*
X145893368Y-82931481D01*
X145970528Y-82950500D01*
X145970529Y-82950500D01*
X146129472Y-82950500D01*
X146180911Y-82937821D01*
X146283793Y-82912463D01*
X146424529Y-82838599D01*
X146543498Y-82733201D01*
X146633787Y-82602395D01*
X146690149Y-82453782D01*
X146709307Y-82296000D01*
X146690149Y-82138218D01*
X146633787Y-81989605D01*
X146543498Y-81858799D01*
X146543495Y-81858796D01*
X146543493Y-81858794D01*
X146424530Y-81753401D01*
X146345646Y-81712000D01*
X162383693Y-81712000D01*
X162402850Y-81869781D01*
X162459214Y-82018397D01*
X162535343Y-82128689D01*
X162549502Y-82149201D01*
X162549504Y-82149203D01*
X162549506Y-82149205D01*
X162668469Y-82254598D01*
X162668471Y-82254599D01*
X162809207Y-82328463D01*
X162886368Y-82347481D01*
X162963528Y-82366500D01*
X162963529Y-82366500D01*
X163122472Y-82366500D01*
X163173911Y-82353821D01*
X163276793Y-82328463D01*
X163417529Y-82254599D01*
X163536498Y-82149201D01*
X163626787Y-82018395D01*
X163683149Y-81869782D01*
X163702307Y-81712000D01*
X163693079Y-81636000D01*
X165939693Y-81636000D01*
X165958850Y-81793781D01*
X166015214Y-81942397D01*
X166047800Y-81989605D01*
X166105502Y-82073201D01*
X166105504Y-82073203D01*
X166105506Y-82073205D01*
X166224469Y-82178598D01*
X166224471Y-82178599D01*
X166365207Y-82252463D01*
X166442368Y-82271481D01*
X166519528Y-82290500D01*
X166519529Y-82290500D01*
X166678472Y-82290500D01*
X166729911Y-82277821D01*
X166832793Y-82252463D01*
X166973529Y-82178599D01*
X167092498Y-82073201D01*
X167182787Y-81942395D01*
X167239149Y-81793782D01*
X167258307Y-81636000D01*
X167239149Y-81478218D01*
X167182787Y-81329605D01*
X167092498Y-81198799D01*
X167092495Y-81198796D01*
X167092493Y-81198794D01*
X166973530Y-81093401D01*
X166832791Y-81019536D01*
X166678472Y-80981500D01*
X166678471Y-80981500D01*
X166519529Y-80981500D01*
X166519528Y-80981500D01*
X166365208Y-81019536D01*
X166224469Y-81093401D01*
X166105506Y-81198794D01*
X166105500Y-81198801D01*
X166015214Y-81329602D01*
X165958850Y-81478218D01*
X165939693Y-81635999D01*
X165939693Y-81636000D01*
X163693079Y-81636000D01*
X163683149Y-81554218D01*
X163626787Y-81405605D01*
X163536498Y-81274799D01*
X163536495Y-81274796D01*
X163536493Y-81274794D01*
X163417530Y-81169401D01*
X163276791Y-81095536D01*
X163122472Y-81057500D01*
X163122471Y-81057500D01*
X162963529Y-81057500D01*
X162963528Y-81057500D01*
X162809208Y-81095536D01*
X162668469Y-81169401D01*
X162549506Y-81274794D01*
X162549500Y-81274801D01*
X162459214Y-81405602D01*
X162402850Y-81554218D01*
X162383693Y-81711999D01*
X162383693Y-81712000D01*
X146345646Y-81712000D01*
X146283791Y-81679536D01*
X146129472Y-81641500D01*
X146129471Y-81641500D01*
X145970529Y-81641500D01*
X145970528Y-81641500D01*
X145816208Y-81679536D01*
X145675469Y-81753401D01*
X145556506Y-81858794D01*
X145556500Y-81858801D01*
X145466214Y-81989602D01*
X145409850Y-82138218D01*
X145390693Y-82295999D01*
X145390693Y-82296000D01*
X136525500Y-82296000D01*
X136525500Y-81026000D01*
X139802693Y-81026000D01*
X139821850Y-81183781D01*
X139856370Y-81274801D01*
X139878213Y-81332395D01*
X139968502Y-81463201D01*
X139968504Y-81463203D01*
X139968506Y-81463205D01*
X140087469Y-81568598D01*
X140087471Y-81568599D01*
X140228207Y-81642463D01*
X140305368Y-81661481D01*
X140382528Y-81680500D01*
X140382529Y-81680500D01*
X140541472Y-81680500D01*
X140592911Y-81667821D01*
X140695793Y-81642463D01*
X140836529Y-81568599D01*
X140888671Y-81522405D01*
X140961113Y-81458227D01*
X140962549Y-81459848D01*
X141012544Y-81428481D01*
X141082409Y-81429240D01*
X141140773Y-81467651D01*
X141148231Y-81477388D01*
X141179302Y-81522401D01*
X141179304Y-81522403D01*
X141179306Y-81522405D01*
X141298269Y-81627798D01*
X141298271Y-81627799D01*
X141439007Y-81701663D01*
X141480942Y-81711999D01*
X141593328Y-81739700D01*
X141593329Y-81739700D01*
X141752272Y-81739700D01*
X141803711Y-81727021D01*
X141906593Y-81701663D01*
X142047329Y-81627799D01*
X142166298Y-81522401D01*
X142256587Y-81391595D01*
X142312949Y-81242982D01*
X142332107Y-81085200D01*
X142312949Y-80927418D01*
X142256587Y-80778805D01*
X142166298Y-80647999D01*
X142166295Y-80647996D01*
X142166293Y-80647994D01*
X142047330Y-80542601D01*
X141906591Y-80468736D01*
X141752272Y-80430700D01*
X141752271Y-80430700D01*
X141593329Y-80430700D01*
X141593328Y-80430700D01*
X141439008Y-80468736D01*
X141298269Y-80542601D01*
X141173687Y-80652973D01*
X141172254Y-80651356D01*
X141122216Y-80682729D01*
X141052351Y-80681947D01*
X140993999Y-80643517D01*
X140986570Y-80633814D01*
X140967141Y-80605666D01*
X140955499Y-80588800D01*
X140955493Y-80588794D01*
X140836530Y-80483401D01*
X140695791Y-80409536D01*
X140541472Y-80371500D01*
X140541471Y-80371500D01*
X140382529Y-80371500D01*
X140382528Y-80371500D01*
X140228208Y-80409536D01*
X140087469Y-80483401D01*
X139968506Y-80588794D01*
X139968500Y-80588801D01*
X139878214Y-80719602D01*
X139821850Y-80868218D01*
X139802693Y-81025999D01*
X139802693Y-81026000D01*
X136525500Y-81026000D01*
X136525500Y-76073000D01*
X145898693Y-76073000D01*
X145917850Y-76230781D01*
X145958427Y-76337773D01*
X145974213Y-76379395D01*
X146064502Y-76510201D01*
X146064504Y-76510203D01*
X146064506Y-76510205D01*
X146183469Y-76615598D01*
X146183471Y-76615599D01*
X146324207Y-76689463D01*
X146401368Y-76708481D01*
X146478528Y-76727500D01*
X146478529Y-76727500D01*
X146637472Y-76727500D01*
X146688911Y-76714821D01*
X146791793Y-76689463D01*
X146932529Y-76615599D01*
X147051498Y-76510201D01*
X147141787Y-76379395D01*
X147198149Y-76230782D01*
X147217307Y-76073000D01*
X147198149Y-75915218D01*
X147141787Y-75766605D01*
X147051498Y-75635799D01*
X147051495Y-75635796D01*
X147051493Y-75635794D01*
X146932530Y-75530401D01*
X146791791Y-75456536D01*
X146637472Y-75418500D01*
X146637471Y-75418500D01*
X146478529Y-75418500D01*
X146478528Y-75418500D01*
X146324208Y-75456536D01*
X146183469Y-75530401D01*
X146064506Y-75635794D01*
X146064500Y-75635801D01*
X145974214Y-75766602D01*
X145917850Y-75915218D01*
X145898693Y-76072999D01*
X145898693Y-76073000D01*
X136525500Y-76073000D01*
X136525500Y-71454685D01*
X151799740Y-71454685D01*
X151809755Y-71639406D01*
X151809755Y-71639411D01*
X151859244Y-71817656D01*
X151859247Y-71817662D01*
X151945898Y-71981102D01*
X152008540Y-72054850D01*
X152065663Y-72122100D01*
X152212936Y-72234054D01*
X152380833Y-72311732D01*
X152380834Y-72311732D01*
X152380836Y-72311733D01*
X152435648Y-72323797D01*
X152561503Y-72351500D01*
X152561506Y-72351500D01*
X152700107Y-72351500D01*
X152700113Y-72351500D01*
X152837910Y-72336514D01*
X153013221Y-72277444D01*
X153037227Y-72263000D01*
X157074693Y-72263000D01*
X157093850Y-72420781D01*
X157134427Y-72527773D01*
X157150213Y-72569395D01*
X157240502Y-72700201D01*
X157240504Y-72700203D01*
X157240506Y-72700205D01*
X157359469Y-72805598D01*
X157359471Y-72805599D01*
X157500207Y-72879463D01*
X157577368Y-72898481D01*
X157654528Y-72917500D01*
X157654529Y-72917500D01*
X157813472Y-72917500D01*
X157864911Y-72904821D01*
X157967793Y-72879463D01*
X158108529Y-72805599D01*
X158227498Y-72700201D01*
X158317787Y-72569395D01*
X158374149Y-72420782D01*
X158393307Y-72263000D01*
X158374149Y-72105218D01*
X158317787Y-71956605D01*
X158227498Y-71825799D01*
X158227495Y-71825796D01*
X158227493Y-71825794D01*
X158108530Y-71720401D01*
X157967791Y-71646536D01*
X157813472Y-71608500D01*
X157813471Y-71608500D01*
X157654529Y-71608500D01*
X157654528Y-71608500D01*
X157500208Y-71646536D01*
X157359469Y-71720401D01*
X157240506Y-71825794D01*
X157240500Y-71825801D01*
X157150214Y-71956602D01*
X157093850Y-72105218D01*
X157074693Y-72262999D01*
X157074693Y-72263000D01*
X153037227Y-72263000D01*
X153171736Y-72182070D01*
X153306041Y-72054849D01*
X153409858Y-71901730D01*
X153478331Y-71729875D01*
X153508260Y-71547317D01*
X153498245Y-71362593D01*
X153448754Y-71184341D01*
X153362100Y-71020896D01*
X153299460Y-70947151D01*
X153242337Y-70879900D01*
X153163449Y-70819931D01*
X153095064Y-70767946D01*
X152927167Y-70690268D01*
X152927163Y-70690266D01*
X152746497Y-70650500D01*
X152607887Y-70650500D01*
X152607883Y-70650500D01*
X152470088Y-70665486D01*
X152294776Y-70724557D01*
X152294774Y-70724558D01*
X152136262Y-70819931D01*
X152136261Y-70819932D01*
X152001959Y-70947149D01*
X151898138Y-71100276D01*
X151829669Y-71272122D01*
X151799740Y-71454685D01*
X136525500Y-71454685D01*
X136525500Y-66742763D01*
X137845787Y-66742763D01*
X137875413Y-67012013D01*
X137875415Y-67012024D01*
X137943926Y-67274082D01*
X137943928Y-67274088D01*
X138049870Y-67523390D01*
X138121998Y-67641575D01*
X138190979Y-67754605D01*
X138190986Y-67754615D01*
X138364253Y-67962819D01*
X138364259Y-67962824D01*
X138565998Y-68143582D01*
X138791910Y-68293044D01*
X139037176Y-68408020D01*
X139037183Y-68408022D01*
X139037185Y-68408023D01*
X139296557Y-68486057D01*
X139296564Y-68486058D01*
X139296569Y-68486060D01*
X139564561Y-68525500D01*
X139564566Y-68525500D01*
X139767636Y-68525500D01*
X139819133Y-68521730D01*
X139970156Y-68510677D01*
X140082758Y-68485593D01*
X140234546Y-68451782D01*
X140234548Y-68451781D01*
X140234553Y-68451780D01*
X140487558Y-68355014D01*
X140723777Y-68222441D01*
X140938177Y-68056888D01*
X141126186Y-67861881D01*
X141283799Y-67641579D01*
X141357787Y-67497669D01*
X141407649Y-67400690D01*
X141407651Y-67400684D01*
X141407656Y-67400675D01*
X141495118Y-67144305D01*
X141544319Y-66877933D01*
X141549259Y-66742763D01*
X163245787Y-66742763D01*
X163275413Y-67012013D01*
X163275415Y-67012024D01*
X163343926Y-67274082D01*
X163343928Y-67274088D01*
X163449870Y-67523390D01*
X163521998Y-67641575D01*
X163590979Y-67754605D01*
X163590986Y-67754615D01*
X163764253Y-67962819D01*
X163764259Y-67962824D01*
X163965998Y-68143582D01*
X164191910Y-68293044D01*
X164437176Y-68408020D01*
X164437183Y-68408022D01*
X164437185Y-68408023D01*
X164696557Y-68486057D01*
X164696564Y-68486058D01*
X164696569Y-68486060D01*
X164964561Y-68525500D01*
X164964566Y-68525500D01*
X165167636Y-68525500D01*
X165219133Y-68521730D01*
X165370156Y-68510677D01*
X165482758Y-68485593D01*
X165634546Y-68451782D01*
X165634548Y-68451781D01*
X165634553Y-68451780D01*
X165887558Y-68355014D01*
X166123777Y-68222441D01*
X166338177Y-68056888D01*
X166526186Y-67861881D01*
X166683799Y-67641579D01*
X166757787Y-67497669D01*
X166807649Y-67400690D01*
X166807651Y-67400684D01*
X166807656Y-67400675D01*
X166895118Y-67144305D01*
X166944319Y-66877933D01*
X166954212Y-66607235D01*
X166924586Y-66337982D01*
X166856072Y-66075912D01*
X166750130Y-65826610D01*
X166609018Y-65595390D01*
X166519747Y-65488119D01*
X166435746Y-65387180D01*
X166435740Y-65387175D01*
X166234002Y-65206418D01*
X166008092Y-65056957D01*
X166008090Y-65056956D01*
X165762824Y-64941980D01*
X165762819Y-64941978D01*
X165762814Y-64941976D01*
X165503442Y-64863942D01*
X165503428Y-64863939D01*
X165387791Y-64846921D01*
X165235439Y-64824500D01*
X165032369Y-64824500D01*
X165032364Y-64824500D01*
X164829844Y-64839323D01*
X164829831Y-64839325D01*
X164565453Y-64898217D01*
X164565446Y-64898220D01*
X164312439Y-64994987D01*
X164076226Y-65127557D01*
X163861822Y-65293112D01*
X163673822Y-65488109D01*
X163673816Y-65488116D01*
X163516202Y-65708419D01*
X163516199Y-65708424D01*
X163392350Y-65949309D01*
X163392343Y-65949327D01*
X163304884Y-66205685D01*
X163304881Y-66205699D01*
X163255681Y-66472068D01*
X163255680Y-66472075D01*
X163245787Y-66742763D01*
X141549259Y-66742763D01*
X141554212Y-66607235D01*
X141524586Y-66337982D01*
X141456072Y-66075912D01*
X141350130Y-65826610D01*
X141209018Y-65595390D01*
X141119747Y-65488119D01*
X141035746Y-65387180D01*
X141035740Y-65387175D01*
X140834002Y-65206418D01*
X140608092Y-65056957D01*
X140608090Y-65056956D01*
X140362824Y-64941980D01*
X140362819Y-64941978D01*
X140362814Y-64941976D01*
X140103442Y-64863942D01*
X140103428Y-64863939D01*
X139987791Y-64846921D01*
X139835439Y-64824500D01*
X139632369Y-64824500D01*
X139632364Y-64824500D01*
X139429844Y-64839323D01*
X139429831Y-64839325D01*
X139165453Y-64898217D01*
X139165446Y-64898220D01*
X138912439Y-64994987D01*
X138676226Y-65127557D01*
X138461822Y-65293112D01*
X138273822Y-65488109D01*
X138273816Y-65488116D01*
X138116202Y-65708419D01*
X138116199Y-65708424D01*
X137992350Y-65949309D01*
X137992343Y-65949327D01*
X137904884Y-66205685D01*
X137904881Y-66205699D01*
X137855681Y-66472068D01*
X137855680Y-66472075D01*
X137845787Y-66742763D01*
X136525500Y-66742763D01*
X136525500Y-63624500D01*
X136545185Y-63557461D01*
X136597989Y-63511706D01*
X136649500Y-63500500D01*
X168150500Y-63500500D01*
X168217539Y-63520185D01*
G37*
G04 #@! TD.AperFunction*
G04 #@! TD*
M02*
