G04 #@! TF.GenerationSoftware,KiCad,Pcbnew,7.0.8*
G04 #@! TF.CreationDate,2023-11-27T14:39:53-06:00*
G04 #@! TF.ProjectId,Flight_Board,466c6967-6874-45f4-926f-6172642e6b69,rev?*
G04 #@! TF.SameCoordinates,Original*
G04 #@! TF.FileFunction,Legend,Top*
G04 #@! TF.FilePolarity,Positive*
%FSLAX46Y46*%
G04 Gerber Fmt 4.6, Leading zero omitted, Abs format (unit mm)*
G04 Created by KiCad (PCBNEW 7.0.8) date 2023-11-27 14:39:53*
%MOMM*%
%LPD*%
G01*
G04 APERTURE LIST*
G04 Aperture macros list*
%AMRoundRect*
0 Rectangle with rounded corners*
0 $1 Rounding radius*
0 $2 $3 $4 $5 $6 $7 $8 $9 X,Y pos of 4 corners*
0 Add a 4 corners polygon primitive as box body*
4,1,4,$2,$3,$4,$5,$6,$7,$8,$9,$2,$3,0*
0 Add four circle primitives for the rounded corners*
1,1,$1+$1,$2,$3*
1,1,$1+$1,$4,$5*
1,1,$1+$1,$6,$7*
1,1,$1+$1,$8,$9*
0 Add four rect primitives between the rounded corners*
20,1,$1+$1,$2,$3,$4,$5,0*
20,1,$1+$1,$4,$5,$6,$7,0*
20,1,$1+$1,$6,$7,$8,$9,0*
20,1,$1+$1,$8,$9,$2,$3,0*%
%AMFreePoly0*
4,1,9,3.862500,-0.866500,0.737500,-0.866500,0.737500,-0.450000,-0.737500,-0.450000,-0.737500,0.450000,0.737500,0.450000,0.737500,0.866500,3.862500,0.866500,3.862500,-0.866500,3.862500,-0.866500,$1*%
G04 Aperture macros list end*
%ADD10C,0.150000*%
%ADD11C,0.100000*%
%ADD12C,0.120000*%
%ADD13C,0.152400*%
%ADD14C,3.200000*%
%ADD15RoundRect,0.237500X0.237500X-0.250000X0.237500X0.250000X-0.237500X0.250000X-0.237500X-0.250000X0*%
%ADD16RoundRect,0.237500X-0.237500X0.300000X-0.237500X-0.300000X0.237500X-0.300000X0.237500X0.300000X0*%
%ADD17RoundRect,0.237500X0.250000X0.237500X-0.250000X0.237500X-0.250000X-0.237500X0.250000X-0.237500X0*%
%ADD18RoundRect,0.237500X-0.300000X-0.237500X0.300000X-0.237500X0.300000X0.237500X-0.300000X0.237500X0*%
%ADD19RoundRect,0.237500X0.300000X0.237500X-0.300000X0.237500X-0.300000X-0.237500X0.300000X-0.237500X0*%
%ADD20RoundRect,0.237500X-0.237500X0.250000X-0.237500X-0.250000X0.237500X-0.250000X0.237500X0.250000X0*%
%ADD21RoundRect,0.237500X-0.287500X-0.237500X0.287500X-0.237500X0.287500X0.237500X-0.287500X0.237500X0*%
%ADD22RoundRect,0.237500X-0.250000X-0.237500X0.250000X-0.237500X0.250000X0.237500X-0.250000X0.237500X0*%
%ADD23R,1.300000X0.900000*%
%ADD24FreePoly0,0.000000*%
%ADD25RoundRect,0.237500X0.237500X-0.300000X0.237500X0.300000X-0.237500X0.300000X-0.237500X-0.300000X0*%
%ADD26RoundRect,0.237500X-0.237500X0.287500X-0.237500X-0.287500X0.237500X-0.287500X0.237500X0.287500X0*%
%ADD27R,0.675000X0.250000*%
%ADD28R,0.250000X0.675000*%
%ADD29RoundRect,0.062500X-0.362500X-0.062500X0.362500X-0.062500X0.362500X0.062500X-0.362500X0.062500X0*%
%ADD30RoundRect,0.062500X-0.062500X-0.362500X0.062500X-0.362500X0.062500X0.362500X-0.062500X0.362500X0*%
%ADD31R,2.550000X3.550000*%
%ADD32R,1.700000X1.700000*%
%ADD33O,1.700000X1.700000*%
%ADD34RoundRect,0.237500X0.287500X0.237500X-0.287500X0.237500X-0.287500X-0.237500X0.287500X-0.237500X0*%
%ADD35R,1.600000X1.300000*%
%ADD36C,1.200000*%
%ADD37RoundRect,0.250000X-0.750000X-0.250000X0.750000X-0.250000X0.750000X0.250000X-0.750000X0.250000X0*%
%ADD38RoundRect,0.175000X0.175000X-0.575000X0.175000X0.575000X-0.175000X0.575000X-0.175000X-0.575000X0*%
%ADD39RoundRect,0.075000X-0.548008X0.441942X0.441942X-0.548008X0.548008X-0.441942X-0.441942X0.548008X0*%
%ADD40RoundRect,0.075000X-0.548008X-0.441942X-0.441942X-0.548008X0.548008X0.441942X0.441942X0.548008X0*%
%ADD41R,0.254000X0.279400*%
%ADD42R,0.279400X0.254000*%
%ADD43RoundRect,0.150000X-0.325000X-0.150000X0.325000X-0.150000X0.325000X0.150000X-0.325000X0.150000X0*%
%ADD44RoundRect,0.150000X-0.150000X-0.325000X0.150000X-0.325000X0.150000X0.325000X-0.150000X0.325000X0*%
%ADD45R,2.400000X2.400000*%
%ADD46C,2.400000*%
G04 APERTURE END LIST*
D10*
X160309160Y-104851200D02*
X160452017Y-104898819D01*
X160452017Y-104898819D02*
X160690112Y-104898819D01*
X160690112Y-104898819D02*
X160785350Y-104851200D01*
X160785350Y-104851200D02*
X160832969Y-104803580D01*
X160832969Y-104803580D02*
X160880588Y-104708342D01*
X160880588Y-104708342D02*
X160880588Y-104613104D01*
X160880588Y-104613104D02*
X160832969Y-104517866D01*
X160832969Y-104517866D02*
X160785350Y-104470247D01*
X160785350Y-104470247D02*
X160690112Y-104422628D01*
X160690112Y-104422628D02*
X160499636Y-104375009D01*
X160499636Y-104375009D02*
X160404398Y-104327390D01*
X160404398Y-104327390D02*
X160356779Y-104279771D01*
X160356779Y-104279771D02*
X160309160Y-104184533D01*
X160309160Y-104184533D02*
X160309160Y-104089295D01*
X160309160Y-104089295D02*
X160356779Y-103994057D01*
X160356779Y-103994057D02*
X160404398Y-103946438D01*
X160404398Y-103946438D02*
X160499636Y-103898819D01*
X160499636Y-103898819D02*
X160737731Y-103898819D01*
X160737731Y-103898819D02*
X160880588Y-103946438D01*
X161213922Y-103898819D02*
X161452017Y-104898819D01*
X161452017Y-104898819D02*
X161642493Y-104184533D01*
X161642493Y-104184533D02*
X161832969Y-104898819D01*
X161832969Y-104898819D02*
X162071065Y-103898819D01*
X162452017Y-104898819D02*
X162452017Y-103898819D01*
X162452017Y-103898819D02*
X162690112Y-103898819D01*
X162690112Y-103898819D02*
X162832969Y-103946438D01*
X162832969Y-103946438D02*
X162928207Y-104041676D01*
X162928207Y-104041676D02*
X162975826Y-104136914D01*
X162975826Y-104136914D02*
X163023445Y-104327390D01*
X163023445Y-104327390D02*
X163023445Y-104470247D01*
X163023445Y-104470247D02*
X162975826Y-104660723D01*
X162975826Y-104660723D02*
X162928207Y-104755961D01*
X162928207Y-104755961D02*
X162832969Y-104851200D01*
X162832969Y-104851200D02*
X162690112Y-104898819D01*
X162690112Y-104898819D02*
X162452017Y-104898819D01*
X163452017Y-104898819D02*
X163452017Y-103898819D01*
X164118683Y-103898819D02*
X164309159Y-103898819D01*
X164309159Y-103898819D02*
X164404397Y-103946438D01*
X164404397Y-103946438D02*
X164499635Y-104041676D01*
X164499635Y-104041676D02*
X164547254Y-104232152D01*
X164547254Y-104232152D02*
X164547254Y-104565485D01*
X164547254Y-104565485D02*
X164499635Y-104755961D01*
X164499635Y-104755961D02*
X164404397Y-104851200D01*
X164404397Y-104851200D02*
X164309159Y-104898819D01*
X164309159Y-104898819D02*
X164118683Y-104898819D01*
X164118683Y-104898819D02*
X164023445Y-104851200D01*
X164023445Y-104851200D02*
X163928207Y-104755961D01*
X163928207Y-104755961D02*
X163880588Y-104565485D01*
X163880588Y-104565485D02*
X163880588Y-104232152D01*
X163880588Y-104232152D02*
X163928207Y-104041676D01*
X163928207Y-104041676D02*
X164023445Y-103946438D01*
X164023445Y-103946438D02*
X164118683Y-103898819D01*
X138147588Y-113852438D02*
X138052350Y-113804819D01*
X138052350Y-113804819D02*
X137909493Y-113804819D01*
X137909493Y-113804819D02*
X137766636Y-113852438D01*
X137766636Y-113852438D02*
X137671398Y-113947676D01*
X137671398Y-113947676D02*
X137623779Y-114042914D01*
X137623779Y-114042914D02*
X137576160Y-114233390D01*
X137576160Y-114233390D02*
X137576160Y-114376247D01*
X137576160Y-114376247D02*
X137623779Y-114566723D01*
X137623779Y-114566723D02*
X137671398Y-114661961D01*
X137671398Y-114661961D02*
X137766636Y-114757200D01*
X137766636Y-114757200D02*
X137909493Y-114804819D01*
X137909493Y-114804819D02*
X138004731Y-114804819D01*
X138004731Y-114804819D02*
X138147588Y-114757200D01*
X138147588Y-114757200D02*
X138195207Y-114709580D01*
X138195207Y-114709580D02*
X138195207Y-114376247D01*
X138195207Y-114376247D02*
X138004731Y-114376247D01*
X138623779Y-114804819D02*
X138623779Y-113804819D01*
X138623779Y-113804819D02*
X139195207Y-114804819D01*
X139195207Y-114804819D02*
X139195207Y-113804819D01*
X139671398Y-114804819D02*
X139671398Y-113804819D01*
X139671398Y-113804819D02*
X139909493Y-113804819D01*
X139909493Y-113804819D02*
X140052350Y-113852438D01*
X140052350Y-113852438D02*
X140147588Y-113947676D01*
X140147588Y-113947676D02*
X140195207Y-114042914D01*
X140195207Y-114042914D02*
X140242826Y-114233390D01*
X140242826Y-114233390D02*
X140242826Y-114376247D01*
X140242826Y-114376247D02*
X140195207Y-114566723D01*
X140195207Y-114566723D02*
X140147588Y-114661961D01*
X140147588Y-114661961D02*
X140052350Y-114757200D01*
X140052350Y-114757200D02*
X139909493Y-114804819D01*
X139909493Y-114804819D02*
X139671398Y-114804819D01*
X161404541Y-111518819D02*
X162023588Y-111518819D01*
X162023588Y-111518819D02*
X161690255Y-111899771D01*
X161690255Y-111899771D02*
X161833112Y-111899771D01*
X161833112Y-111899771D02*
X161928350Y-111947390D01*
X161928350Y-111947390D02*
X161975969Y-111995009D01*
X161975969Y-111995009D02*
X162023588Y-112090247D01*
X162023588Y-112090247D02*
X162023588Y-112328342D01*
X162023588Y-112328342D02*
X161975969Y-112423580D01*
X161975969Y-112423580D02*
X161928350Y-112471200D01*
X161928350Y-112471200D02*
X161833112Y-112518819D01*
X161833112Y-112518819D02*
X161547398Y-112518819D01*
X161547398Y-112518819D02*
X161452160Y-112471200D01*
X161452160Y-112471200D02*
X161404541Y-112423580D01*
X162452160Y-112423580D02*
X162499779Y-112471200D01*
X162499779Y-112471200D02*
X162452160Y-112518819D01*
X162452160Y-112518819D02*
X162404541Y-112471200D01*
X162404541Y-112471200D02*
X162452160Y-112423580D01*
X162452160Y-112423580D02*
X162452160Y-112518819D01*
X162833112Y-111518819D02*
X163452159Y-111518819D01*
X163452159Y-111518819D02*
X163118826Y-111899771D01*
X163118826Y-111899771D02*
X163261683Y-111899771D01*
X163261683Y-111899771D02*
X163356921Y-111947390D01*
X163356921Y-111947390D02*
X163404540Y-111995009D01*
X163404540Y-111995009D02*
X163452159Y-112090247D01*
X163452159Y-112090247D02*
X163452159Y-112328342D01*
X163452159Y-112328342D02*
X163404540Y-112423580D01*
X163404540Y-112423580D02*
X163356921Y-112471200D01*
X163356921Y-112471200D02*
X163261683Y-112518819D01*
X163261683Y-112518819D02*
X162975969Y-112518819D01*
X162975969Y-112518819D02*
X162880731Y-112471200D01*
X162880731Y-112471200D02*
X162833112Y-112423580D01*
X163737874Y-111518819D02*
X164071207Y-112518819D01*
X164071207Y-112518819D02*
X164404540Y-111518819D01*
X162706207Y-102358819D02*
X162372874Y-101882628D01*
X162134779Y-102358819D02*
X162134779Y-101358819D01*
X162134779Y-101358819D02*
X162515731Y-101358819D01*
X162515731Y-101358819D02*
X162610969Y-101406438D01*
X162610969Y-101406438D02*
X162658588Y-101454057D01*
X162658588Y-101454057D02*
X162706207Y-101549295D01*
X162706207Y-101549295D02*
X162706207Y-101692152D01*
X162706207Y-101692152D02*
X162658588Y-101787390D01*
X162658588Y-101787390D02*
X162610969Y-101835009D01*
X162610969Y-101835009D02*
X162515731Y-101882628D01*
X162515731Y-101882628D02*
X162134779Y-101882628D01*
X163087160Y-102311200D02*
X163230017Y-102358819D01*
X163230017Y-102358819D02*
X163468112Y-102358819D01*
X163468112Y-102358819D02*
X163563350Y-102311200D01*
X163563350Y-102311200D02*
X163610969Y-102263580D01*
X163610969Y-102263580D02*
X163658588Y-102168342D01*
X163658588Y-102168342D02*
X163658588Y-102073104D01*
X163658588Y-102073104D02*
X163610969Y-101977866D01*
X163610969Y-101977866D02*
X163563350Y-101930247D01*
X163563350Y-101930247D02*
X163468112Y-101882628D01*
X163468112Y-101882628D02*
X163277636Y-101835009D01*
X163277636Y-101835009D02*
X163182398Y-101787390D01*
X163182398Y-101787390D02*
X163134779Y-101739771D01*
X163134779Y-101739771D02*
X163087160Y-101644533D01*
X163087160Y-101644533D02*
X163087160Y-101549295D01*
X163087160Y-101549295D02*
X163134779Y-101454057D01*
X163134779Y-101454057D02*
X163182398Y-101406438D01*
X163182398Y-101406438D02*
X163277636Y-101358819D01*
X163277636Y-101358819D02*
X163515731Y-101358819D01*
X163515731Y-101358819D02*
X163658588Y-101406438D01*
X163944303Y-101358819D02*
X164515731Y-101358819D01*
X164230017Y-102358819D02*
X164230017Y-101358819D01*
X137480922Y-111010819D02*
X138052350Y-111010819D01*
X137766636Y-112010819D02*
X137766636Y-111010819D01*
X138290446Y-111010819D02*
X138957112Y-112010819D01*
X138957112Y-111010819D02*
X138290446Y-112010819D01*
X138195207Y-113407819D02*
X137861874Y-112931628D01*
X137623779Y-113407819D02*
X137623779Y-112407819D01*
X137623779Y-112407819D02*
X138004731Y-112407819D01*
X138004731Y-112407819D02*
X138099969Y-112455438D01*
X138099969Y-112455438D02*
X138147588Y-112503057D01*
X138147588Y-112503057D02*
X138195207Y-112598295D01*
X138195207Y-112598295D02*
X138195207Y-112741152D01*
X138195207Y-112741152D02*
X138147588Y-112836390D01*
X138147588Y-112836390D02*
X138099969Y-112884009D01*
X138099969Y-112884009D02*
X138004731Y-112931628D01*
X138004731Y-112931628D02*
X137623779Y-112931628D01*
X138528541Y-112407819D02*
X139195207Y-113407819D01*
X139195207Y-112407819D02*
X138528541Y-113407819D01*
X137528541Y-109613819D02*
X138147588Y-109613819D01*
X138147588Y-109613819D02*
X137814255Y-109994771D01*
X137814255Y-109994771D02*
X137957112Y-109994771D01*
X137957112Y-109994771D02*
X138052350Y-110042390D01*
X138052350Y-110042390D02*
X138099969Y-110090009D01*
X138099969Y-110090009D02*
X138147588Y-110185247D01*
X138147588Y-110185247D02*
X138147588Y-110423342D01*
X138147588Y-110423342D02*
X138099969Y-110518580D01*
X138099969Y-110518580D02*
X138052350Y-110566200D01*
X138052350Y-110566200D02*
X137957112Y-110613819D01*
X137957112Y-110613819D02*
X137671398Y-110613819D01*
X137671398Y-110613819D02*
X137576160Y-110566200D01*
X137576160Y-110566200D02*
X137528541Y-110518580D01*
X138576160Y-110518580D02*
X138623779Y-110566200D01*
X138623779Y-110566200D02*
X138576160Y-110613819D01*
X138576160Y-110613819D02*
X138528541Y-110566200D01*
X138528541Y-110566200D02*
X138576160Y-110518580D01*
X138576160Y-110518580D02*
X138576160Y-110613819D01*
X138957112Y-109613819D02*
X139576159Y-109613819D01*
X139576159Y-109613819D02*
X139242826Y-109994771D01*
X139242826Y-109994771D02*
X139385683Y-109994771D01*
X139385683Y-109994771D02*
X139480921Y-110042390D01*
X139480921Y-110042390D02*
X139528540Y-110090009D01*
X139528540Y-110090009D02*
X139576159Y-110185247D01*
X139576159Y-110185247D02*
X139576159Y-110423342D01*
X139576159Y-110423342D02*
X139528540Y-110518580D01*
X139528540Y-110518580D02*
X139480921Y-110566200D01*
X139480921Y-110566200D02*
X139385683Y-110613819D01*
X139385683Y-110613819D02*
X139099969Y-110613819D01*
X139099969Y-110613819D02*
X139004731Y-110566200D01*
X139004731Y-110566200D02*
X138957112Y-110518580D01*
X139861874Y-109613819D02*
X140195207Y-110613819D01*
X140195207Y-110613819D02*
X140528540Y-109613819D01*
X159928160Y-109931200D02*
X160071017Y-109978819D01*
X160071017Y-109978819D02*
X160309112Y-109978819D01*
X160309112Y-109978819D02*
X160404350Y-109931200D01*
X160404350Y-109931200D02*
X160451969Y-109883580D01*
X160451969Y-109883580D02*
X160499588Y-109788342D01*
X160499588Y-109788342D02*
X160499588Y-109693104D01*
X160499588Y-109693104D02*
X160451969Y-109597866D01*
X160451969Y-109597866D02*
X160404350Y-109550247D01*
X160404350Y-109550247D02*
X160309112Y-109502628D01*
X160309112Y-109502628D02*
X160118636Y-109455009D01*
X160118636Y-109455009D02*
X160023398Y-109407390D01*
X160023398Y-109407390D02*
X159975779Y-109359771D01*
X159975779Y-109359771D02*
X159928160Y-109264533D01*
X159928160Y-109264533D02*
X159928160Y-109169295D01*
X159928160Y-109169295D02*
X159975779Y-109074057D01*
X159975779Y-109074057D02*
X160023398Y-109026438D01*
X160023398Y-109026438D02*
X160118636Y-108978819D01*
X160118636Y-108978819D02*
X160356731Y-108978819D01*
X160356731Y-108978819D02*
X160499588Y-109026438D01*
X160832922Y-108978819D02*
X161071017Y-109978819D01*
X161071017Y-109978819D02*
X161261493Y-109264533D01*
X161261493Y-109264533D02*
X161451969Y-109978819D01*
X161451969Y-109978819D02*
X161690065Y-108978819D01*
X162642445Y-109883580D02*
X162594826Y-109931200D01*
X162594826Y-109931200D02*
X162451969Y-109978819D01*
X162451969Y-109978819D02*
X162356731Y-109978819D01*
X162356731Y-109978819D02*
X162213874Y-109931200D01*
X162213874Y-109931200D02*
X162118636Y-109835961D01*
X162118636Y-109835961D02*
X162071017Y-109740723D01*
X162071017Y-109740723D02*
X162023398Y-109550247D01*
X162023398Y-109550247D02*
X162023398Y-109407390D01*
X162023398Y-109407390D02*
X162071017Y-109216914D01*
X162071017Y-109216914D02*
X162118636Y-109121676D01*
X162118636Y-109121676D02*
X162213874Y-109026438D01*
X162213874Y-109026438D02*
X162356731Y-108978819D01*
X162356731Y-108978819D02*
X162451969Y-108978819D01*
X162451969Y-108978819D02*
X162594826Y-109026438D01*
X162594826Y-109026438D02*
X162642445Y-109074057D01*
X163547207Y-109978819D02*
X163071017Y-109978819D01*
X163071017Y-109978819D02*
X163071017Y-108978819D01*
X163880541Y-109978819D02*
X163880541Y-108978819D01*
X164451969Y-109978819D02*
X164023398Y-109407390D01*
X164451969Y-108978819D02*
X163880541Y-109550247D01*
X162404588Y-106486438D02*
X162309350Y-106438819D01*
X162309350Y-106438819D02*
X162166493Y-106438819D01*
X162166493Y-106438819D02*
X162023636Y-106486438D01*
X162023636Y-106486438D02*
X161928398Y-106581676D01*
X161928398Y-106581676D02*
X161880779Y-106676914D01*
X161880779Y-106676914D02*
X161833160Y-106867390D01*
X161833160Y-106867390D02*
X161833160Y-107010247D01*
X161833160Y-107010247D02*
X161880779Y-107200723D01*
X161880779Y-107200723D02*
X161928398Y-107295961D01*
X161928398Y-107295961D02*
X162023636Y-107391200D01*
X162023636Y-107391200D02*
X162166493Y-107438819D01*
X162166493Y-107438819D02*
X162261731Y-107438819D01*
X162261731Y-107438819D02*
X162404588Y-107391200D01*
X162404588Y-107391200D02*
X162452207Y-107343580D01*
X162452207Y-107343580D02*
X162452207Y-107010247D01*
X162452207Y-107010247D02*
X162261731Y-107010247D01*
X162880779Y-107438819D02*
X162880779Y-106438819D01*
X162880779Y-106438819D02*
X163452207Y-107438819D01*
X163452207Y-107438819D02*
X163452207Y-106438819D01*
X163928398Y-107438819D02*
X163928398Y-106438819D01*
X163928398Y-106438819D02*
X164166493Y-106438819D01*
X164166493Y-106438819D02*
X164309350Y-106486438D01*
X164309350Y-106486438D02*
X164404588Y-106581676D01*
X164404588Y-106581676D02*
X164452207Y-106676914D01*
X164452207Y-106676914D02*
X164499826Y-106867390D01*
X164499826Y-106867390D02*
X164499826Y-107010247D01*
X164499826Y-107010247D02*
X164452207Y-107200723D01*
X164452207Y-107200723D02*
X164404588Y-107295961D01*
X164404588Y-107295961D02*
X164309350Y-107391200D01*
X164309350Y-107391200D02*
X164166493Y-107438819D01*
X164166493Y-107438819D02*
X163928398Y-107438819D01*
X161706160Y-99771200D02*
X161849017Y-99818819D01*
X161849017Y-99818819D02*
X162087112Y-99818819D01*
X162087112Y-99818819D02*
X162182350Y-99771200D01*
X162182350Y-99771200D02*
X162229969Y-99723580D01*
X162229969Y-99723580D02*
X162277588Y-99628342D01*
X162277588Y-99628342D02*
X162277588Y-99533104D01*
X162277588Y-99533104D02*
X162229969Y-99437866D01*
X162229969Y-99437866D02*
X162182350Y-99390247D01*
X162182350Y-99390247D02*
X162087112Y-99342628D01*
X162087112Y-99342628D02*
X161896636Y-99295009D01*
X161896636Y-99295009D02*
X161801398Y-99247390D01*
X161801398Y-99247390D02*
X161753779Y-99199771D01*
X161753779Y-99199771D02*
X161706160Y-99104533D01*
X161706160Y-99104533D02*
X161706160Y-99009295D01*
X161706160Y-99009295D02*
X161753779Y-98914057D01*
X161753779Y-98914057D02*
X161801398Y-98866438D01*
X161801398Y-98866438D02*
X161896636Y-98818819D01*
X161896636Y-98818819D02*
X162134731Y-98818819D01*
X162134731Y-98818819D02*
X162277588Y-98866438D01*
X162610922Y-98818819D02*
X162849017Y-99818819D01*
X162849017Y-99818819D02*
X163039493Y-99104533D01*
X163039493Y-99104533D02*
X163229969Y-99818819D01*
X163229969Y-99818819D02*
X163468065Y-98818819D01*
X164039493Y-98818819D02*
X164229969Y-98818819D01*
X164229969Y-98818819D02*
X164325207Y-98866438D01*
X164325207Y-98866438D02*
X164420445Y-98961676D01*
X164420445Y-98961676D02*
X164468064Y-99152152D01*
X164468064Y-99152152D02*
X164468064Y-99485485D01*
X164468064Y-99485485D02*
X164420445Y-99675961D01*
X164420445Y-99675961D02*
X164325207Y-99771200D01*
X164325207Y-99771200D02*
X164229969Y-99818819D01*
X164229969Y-99818819D02*
X164039493Y-99818819D01*
X164039493Y-99818819D02*
X163944255Y-99771200D01*
X163944255Y-99771200D02*
X163849017Y-99675961D01*
X163849017Y-99675961D02*
X163801398Y-99485485D01*
X163801398Y-99485485D02*
X163801398Y-99152152D01*
X163801398Y-99152152D02*
X163849017Y-98961676D01*
X163849017Y-98961676D02*
X163944255Y-98866438D01*
X163944255Y-98866438D02*
X164039493Y-98818819D01*
X166457333Y-81988819D02*
X166124000Y-81512628D01*
X165885905Y-81988819D02*
X165885905Y-80988819D01*
X165885905Y-80988819D02*
X166266857Y-80988819D01*
X166266857Y-80988819D02*
X166362095Y-81036438D01*
X166362095Y-81036438D02*
X166409714Y-81084057D01*
X166409714Y-81084057D02*
X166457333Y-81179295D01*
X166457333Y-81179295D02*
X166457333Y-81322152D01*
X166457333Y-81322152D02*
X166409714Y-81417390D01*
X166409714Y-81417390D02*
X166362095Y-81465009D01*
X166362095Y-81465009D02*
X166266857Y-81512628D01*
X166266857Y-81512628D02*
X165885905Y-81512628D01*
X167028762Y-81417390D02*
X166933524Y-81369771D01*
X166933524Y-81369771D02*
X166885905Y-81322152D01*
X166885905Y-81322152D02*
X166838286Y-81226914D01*
X166838286Y-81226914D02*
X166838286Y-81179295D01*
X166838286Y-81179295D02*
X166885905Y-81084057D01*
X166885905Y-81084057D02*
X166933524Y-81036438D01*
X166933524Y-81036438D02*
X167028762Y-80988819D01*
X167028762Y-80988819D02*
X167219238Y-80988819D01*
X167219238Y-80988819D02*
X167314476Y-81036438D01*
X167314476Y-81036438D02*
X167362095Y-81084057D01*
X167362095Y-81084057D02*
X167409714Y-81179295D01*
X167409714Y-81179295D02*
X167409714Y-81226914D01*
X167409714Y-81226914D02*
X167362095Y-81322152D01*
X167362095Y-81322152D02*
X167314476Y-81369771D01*
X167314476Y-81369771D02*
X167219238Y-81417390D01*
X167219238Y-81417390D02*
X167028762Y-81417390D01*
X167028762Y-81417390D02*
X166933524Y-81465009D01*
X166933524Y-81465009D02*
X166885905Y-81512628D01*
X166885905Y-81512628D02*
X166838286Y-81607866D01*
X166838286Y-81607866D02*
X166838286Y-81798342D01*
X166838286Y-81798342D02*
X166885905Y-81893580D01*
X166885905Y-81893580D02*
X166933524Y-81941200D01*
X166933524Y-81941200D02*
X167028762Y-81988819D01*
X167028762Y-81988819D02*
X167219238Y-81988819D01*
X167219238Y-81988819D02*
X167314476Y-81941200D01*
X167314476Y-81941200D02*
X167362095Y-81893580D01*
X167362095Y-81893580D02*
X167409714Y-81798342D01*
X167409714Y-81798342D02*
X167409714Y-81607866D01*
X167409714Y-81607866D02*
X167362095Y-81512628D01*
X167362095Y-81512628D02*
X167314476Y-81465009D01*
X167314476Y-81465009D02*
X167219238Y-81417390D01*
X168126580Y-92463857D02*
X168174200Y-92511476D01*
X168174200Y-92511476D02*
X168221819Y-92654333D01*
X168221819Y-92654333D02*
X168221819Y-92749571D01*
X168221819Y-92749571D02*
X168174200Y-92892428D01*
X168174200Y-92892428D02*
X168078961Y-92987666D01*
X168078961Y-92987666D02*
X167983723Y-93035285D01*
X167983723Y-93035285D02*
X167793247Y-93082904D01*
X167793247Y-93082904D02*
X167650390Y-93082904D01*
X167650390Y-93082904D02*
X167459914Y-93035285D01*
X167459914Y-93035285D02*
X167364676Y-92987666D01*
X167364676Y-92987666D02*
X167269438Y-92892428D01*
X167269438Y-92892428D02*
X167221819Y-92749571D01*
X167221819Y-92749571D02*
X167221819Y-92654333D01*
X167221819Y-92654333D02*
X167269438Y-92511476D01*
X167269438Y-92511476D02*
X167317057Y-92463857D01*
X168221819Y-91511476D02*
X168221819Y-92082904D01*
X168221819Y-91797190D02*
X167221819Y-91797190D01*
X167221819Y-91797190D02*
X167364676Y-91892428D01*
X167364676Y-91892428D02*
X167459914Y-91987666D01*
X167459914Y-91987666D02*
X167507533Y-92082904D01*
X167221819Y-90654333D02*
X167221819Y-90844809D01*
X167221819Y-90844809D02*
X167269438Y-90940047D01*
X167269438Y-90940047D02*
X167317057Y-90987666D01*
X167317057Y-90987666D02*
X167459914Y-91082904D01*
X167459914Y-91082904D02*
X167650390Y-91130523D01*
X167650390Y-91130523D02*
X168031342Y-91130523D01*
X168031342Y-91130523D02*
X168126580Y-91082904D01*
X168126580Y-91082904D02*
X168174200Y-91035285D01*
X168174200Y-91035285D02*
X168221819Y-90940047D01*
X168221819Y-90940047D02*
X168221819Y-90749571D01*
X168221819Y-90749571D02*
X168174200Y-90654333D01*
X168174200Y-90654333D02*
X168126580Y-90606714D01*
X168126580Y-90606714D02*
X168031342Y-90559095D01*
X168031342Y-90559095D02*
X167793247Y-90559095D01*
X167793247Y-90559095D02*
X167698009Y-90606714D01*
X167698009Y-90606714D02*
X167650390Y-90654333D01*
X167650390Y-90654333D02*
X167602771Y-90749571D01*
X167602771Y-90749571D02*
X167602771Y-90940047D01*
X167602771Y-90940047D02*
X167650390Y-91035285D01*
X167650390Y-91035285D02*
X167698009Y-91082904D01*
X167698009Y-91082904D02*
X167793247Y-91130523D01*
X137374333Y-78686819D02*
X137041000Y-78210628D01*
X136802905Y-78686819D02*
X136802905Y-77686819D01*
X136802905Y-77686819D02*
X137183857Y-77686819D01*
X137183857Y-77686819D02*
X137279095Y-77734438D01*
X137279095Y-77734438D02*
X137326714Y-77782057D01*
X137326714Y-77782057D02*
X137374333Y-77877295D01*
X137374333Y-77877295D02*
X137374333Y-78020152D01*
X137374333Y-78020152D02*
X137326714Y-78115390D01*
X137326714Y-78115390D02*
X137279095Y-78163009D01*
X137279095Y-78163009D02*
X137183857Y-78210628D01*
X137183857Y-78210628D02*
X136802905Y-78210628D01*
X137850524Y-78686819D02*
X138041000Y-78686819D01*
X138041000Y-78686819D02*
X138136238Y-78639200D01*
X138136238Y-78639200D02*
X138183857Y-78591580D01*
X138183857Y-78591580D02*
X138279095Y-78448723D01*
X138279095Y-78448723D02*
X138326714Y-78258247D01*
X138326714Y-78258247D02*
X138326714Y-77877295D01*
X138326714Y-77877295D02*
X138279095Y-77782057D01*
X138279095Y-77782057D02*
X138231476Y-77734438D01*
X138231476Y-77734438D02*
X138136238Y-77686819D01*
X138136238Y-77686819D02*
X137945762Y-77686819D01*
X137945762Y-77686819D02*
X137850524Y-77734438D01*
X137850524Y-77734438D02*
X137802905Y-77782057D01*
X137802905Y-77782057D02*
X137755286Y-77877295D01*
X137755286Y-77877295D02*
X137755286Y-78115390D01*
X137755286Y-78115390D02*
X137802905Y-78210628D01*
X137802905Y-78210628D02*
X137850524Y-78258247D01*
X137850524Y-78258247D02*
X137945762Y-78305866D01*
X137945762Y-78305866D02*
X138136238Y-78305866D01*
X138136238Y-78305866D02*
X138231476Y-78258247D01*
X138231476Y-78258247D02*
X138279095Y-78210628D01*
X138279095Y-78210628D02*
X138326714Y-78115390D01*
X145534142Y-129993580D02*
X145486523Y-130041200D01*
X145486523Y-130041200D02*
X145343666Y-130088819D01*
X145343666Y-130088819D02*
X145248428Y-130088819D01*
X145248428Y-130088819D02*
X145105571Y-130041200D01*
X145105571Y-130041200D02*
X145010333Y-129945961D01*
X145010333Y-129945961D02*
X144962714Y-129850723D01*
X144962714Y-129850723D02*
X144915095Y-129660247D01*
X144915095Y-129660247D02*
X144915095Y-129517390D01*
X144915095Y-129517390D02*
X144962714Y-129326914D01*
X144962714Y-129326914D02*
X145010333Y-129231676D01*
X145010333Y-129231676D02*
X145105571Y-129136438D01*
X145105571Y-129136438D02*
X145248428Y-129088819D01*
X145248428Y-129088819D02*
X145343666Y-129088819D01*
X145343666Y-129088819D02*
X145486523Y-129136438D01*
X145486523Y-129136438D02*
X145534142Y-129184057D01*
X145867476Y-129088819D02*
X146486523Y-129088819D01*
X146486523Y-129088819D02*
X146153190Y-129469771D01*
X146153190Y-129469771D02*
X146296047Y-129469771D01*
X146296047Y-129469771D02*
X146391285Y-129517390D01*
X146391285Y-129517390D02*
X146438904Y-129565009D01*
X146438904Y-129565009D02*
X146486523Y-129660247D01*
X146486523Y-129660247D02*
X146486523Y-129898342D01*
X146486523Y-129898342D02*
X146438904Y-129993580D01*
X146438904Y-129993580D02*
X146391285Y-130041200D01*
X146391285Y-130041200D02*
X146296047Y-130088819D01*
X146296047Y-130088819D02*
X146010333Y-130088819D01*
X146010333Y-130088819D02*
X145915095Y-130041200D01*
X145915095Y-130041200D02*
X145867476Y-129993580D01*
X146867476Y-129184057D02*
X146915095Y-129136438D01*
X146915095Y-129136438D02*
X147010333Y-129088819D01*
X147010333Y-129088819D02*
X147248428Y-129088819D01*
X147248428Y-129088819D02*
X147343666Y-129136438D01*
X147343666Y-129136438D02*
X147391285Y-129184057D01*
X147391285Y-129184057D02*
X147438904Y-129279295D01*
X147438904Y-129279295D02*
X147438904Y-129374533D01*
X147438904Y-129374533D02*
X147391285Y-129517390D01*
X147391285Y-129517390D02*
X146819857Y-130088819D01*
X146819857Y-130088819D02*
X147438904Y-130088819D01*
X161917142Y-130026580D02*
X161869523Y-130074200D01*
X161869523Y-130074200D02*
X161726666Y-130121819D01*
X161726666Y-130121819D02*
X161631428Y-130121819D01*
X161631428Y-130121819D02*
X161488571Y-130074200D01*
X161488571Y-130074200D02*
X161393333Y-129978961D01*
X161393333Y-129978961D02*
X161345714Y-129883723D01*
X161345714Y-129883723D02*
X161298095Y-129693247D01*
X161298095Y-129693247D02*
X161298095Y-129550390D01*
X161298095Y-129550390D02*
X161345714Y-129359914D01*
X161345714Y-129359914D02*
X161393333Y-129264676D01*
X161393333Y-129264676D02*
X161488571Y-129169438D01*
X161488571Y-129169438D02*
X161631428Y-129121819D01*
X161631428Y-129121819D02*
X161726666Y-129121819D01*
X161726666Y-129121819D02*
X161869523Y-129169438D01*
X161869523Y-129169438D02*
X161917142Y-129217057D01*
X162298095Y-129217057D02*
X162345714Y-129169438D01*
X162345714Y-129169438D02*
X162440952Y-129121819D01*
X162440952Y-129121819D02*
X162679047Y-129121819D01*
X162679047Y-129121819D02*
X162774285Y-129169438D01*
X162774285Y-129169438D02*
X162821904Y-129217057D01*
X162821904Y-129217057D02*
X162869523Y-129312295D01*
X162869523Y-129312295D02*
X162869523Y-129407533D01*
X162869523Y-129407533D02*
X162821904Y-129550390D01*
X162821904Y-129550390D02*
X162250476Y-130121819D01*
X162250476Y-130121819D02*
X162869523Y-130121819D01*
X163726666Y-129455152D02*
X163726666Y-130121819D01*
X163488571Y-129074200D02*
X163250476Y-129788485D01*
X163250476Y-129788485D02*
X163869523Y-129788485D01*
X152219819Y-117514666D02*
X151743628Y-117847999D01*
X152219819Y-118086094D02*
X151219819Y-118086094D01*
X151219819Y-118086094D02*
X151219819Y-117705142D01*
X151219819Y-117705142D02*
X151267438Y-117609904D01*
X151267438Y-117609904D02*
X151315057Y-117562285D01*
X151315057Y-117562285D02*
X151410295Y-117514666D01*
X151410295Y-117514666D02*
X151553152Y-117514666D01*
X151553152Y-117514666D02*
X151648390Y-117562285D01*
X151648390Y-117562285D02*
X151696009Y-117609904D01*
X151696009Y-117609904D02*
X151743628Y-117705142D01*
X151743628Y-117705142D02*
X151743628Y-118086094D01*
X152219819Y-116562285D02*
X152219819Y-117133713D01*
X152219819Y-116847999D02*
X151219819Y-116847999D01*
X151219819Y-116847999D02*
X151362676Y-116943237D01*
X151362676Y-116943237D02*
X151457914Y-117038475D01*
X151457914Y-117038475D02*
X151505533Y-117133713D01*
X150568819Y-117514666D02*
X150092628Y-117847999D01*
X150568819Y-118086094D02*
X149568819Y-118086094D01*
X149568819Y-118086094D02*
X149568819Y-117705142D01*
X149568819Y-117705142D02*
X149616438Y-117609904D01*
X149616438Y-117609904D02*
X149664057Y-117562285D01*
X149664057Y-117562285D02*
X149759295Y-117514666D01*
X149759295Y-117514666D02*
X149902152Y-117514666D01*
X149902152Y-117514666D02*
X149997390Y-117562285D01*
X149997390Y-117562285D02*
X150045009Y-117609904D01*
X150045009Y-117609904D02*
X150092628Y-117705142D01*
X150092628Y-117705142D02*
X150092628Y-118086094D01*
X149664057Y-117133713D02*
X149616438Y-117086094D01*
X149616438Y-117086094D02*
X149568819Y-116990856D01*
X149568819Y-116990856D02*
X149568819Y-116752761D01*
X149568819Y-116752761D02*
X149616438Y-116657523D01*
X149616438Y-116657523D02*
X149664057Y-116609904D01*
X149664057Y-116609904D02*
X149759295Y-116562285D01*
X149759295Y-116562285D02*
X149854533Y-116562285D01*
X149854533Y-116562285D02*
X149997390Y-116609904D01*
X149997390Y-116609904D02*
X150568819Y-117181332D01*
X150568819Y-117181332D02*
X150568819Y-116562285D01*
X154551142Y-130026580D02*
X154503523Y-130074200D01*
X154503523Y-130074200D02*
X154360666Y-130121819D01*
X154360666Y-130121819D02*
X154265428Y-130121819D01*
X154265428Y-130121819D02*
X154122571Y-130074200D01*
X154122571Y-130074200D02*
X154027333Y-129978961D01*
X154027333Y-129978961D02*
X153979714Y-129883723D01*
X153979714Y-129883723D02*
X153932095Y-129693247D01*
X153932095Y-129693247D02*
X153932095Y-129550390D01*
X153932095Y-129550390D02*
X153979714Y-129359914D01*
X153979714Y-129359914D02*
X154027333Y-129264676D01*
X154027333Y-129264676D02*
X154122571Y-129169438D01*
X154122571Y-129169438D02*
X154265428Y-129121819D01*
X154265428Y-129121819D02*
X154360666Y-129121819D01*
X154360666Y-129121819D02*
X154503523Y-129169438D01*
X154503523Y-129169438D02*
X154551142Y-129217057D01*
X154932095Y-129217057D02*
X154979714Y-129169438D01*
X154979714Y-129169438D02*
X155074952Y-129121819D01*
X155074952Y-129121819D02*
X155313047Y-129121819D01*
X155313047Y-129121819D02*
X155408285Y-129169438D01*
X155408285Y-129169438D02*
X155455904Y-129217057D01*
X155455904Y-129217057D02*
X155503523Y-129312295D01*
X155503523Y-129312295D02*
X155503523Y-129407533D01*
X155503523Y-129407533D02*
X155455904Y-129550390D01*
X155455904Y-129550390D02*
X154884476Y-130121819D01*
X154884476Y-130121819D02*
X155503523Y-130121819D01*
X156074952Y-129550390D02*
X155979714Y-129502771D01*
X155979714Y-129502771D02*
X155932095Y-129455152D01*
X155932095Y-129455152D02*
X155884476Y-129359914D01*
X155884476Y-129359914D02*
X155884476Y-129312295D01*
X155884476Y-129312295D02*
X155932095Y-129217057D01*
X155932095Y-129217057D02*
X155979714Y-129169438D01*
X155979714Y-129169438D02*
X156074952Y-129121819D01*
X156074952Y-129121819D02*
X156265428Y-129121819D01*
X156265428Y-129121819D02*
X156360666Y-129169438D01*
X156360666Y-129169438D02*
X156408285Y-129217057D01*
X156408285Y-129217057D02*
X156455904Y-129312295D01*
X156455904Y-129312295D02*
X156455904Y-129359914D01*
X156455904Y-129359914D02*
X156408285Y-129455152D01*
X156408285Y-129455152D02*
X156360666Y-129502771D01*
X156360666Y-129502771D02*
X156265428Y-129550390D01*
X156265428Y-129550390D02*
X156074952Y-129550390D01*
X156074952Y-129550390D02*
X155979714Y-129598009D01*
X155979714Y-129598009D02*
X155932095Y-129645628D01*
X155932095Y-129645628D02*
X155884476Y-129740866D01*
X155884476Y-129740866D02*
X155884476Y-129931342D01*
X155884476Y-129931342D02*
X155932095Y-130026580D01*
X155932095Y-130026580D02*
X155979714Y-130074200D01*
X155979714Y-130074200D02*
X156074952Y-130121819D01*
X156074952Y-130121819D02*
X156265428Y-130121819D01*
X156265428Y-130121819D02*
X156360666Y-130074200D01*
X156360666Y-130074200D02*
X156408285Y-130026580D01*
X156408285Y-130026580D02*
X156455904Y-129931342D01*
X156455904Y-129931342D02*
X156455904Y-129740866D01*
X156455904Y-129740866D02*
X156408285Y-129645628D01*
X156408285Y-129645628D02*
X156360666Y-129598009D01*
X156360666Y-129598009D02*
X156265428Y-129550390D01*
X138249819Y-125229857D02*
X137773628Y-125563190D01*
X138249819Y-125801285D02*
X137249819Y-125801285D01*
X137249819Y-125801285D02*
X137249819Y-125420333D01*
X137249819Y-125420333D02*
X137297438Y-125325095D01*
X137297438Y-125325095D02*
X137345057Y-125277476D01*
X137345057Y-125277476D02*
X137440295Y-125229857D01*
X137440295Y-125229857D02*
X137583152Y-125229857D01*
X137583152Y-125229857D02*
X137678390Y-125277476D01*
X137678390Y-125277476D02*
X137726009Y-125325095D01*
X137726009Y-125325095D02*
X137773628Y-125420333D01*
X137773628Y-125420333D02*
X137773628Y-125801285D01*
X138249819Y-124277476D02*
X138249819Y-124848904D01*
X138249819Y-124563190D02*
X137249819Y-124563190D01*
X137249819Y-124563190D02*
X137392676Y-124658428D01*
X137392676Y-124658428D02*
X137487914Y-124753666D01*
X137487914Y-124753666D02*
X137535533Y-124848904D01*
X138249819Y-123801285D02*
X138249819Y-123610809D01*
X138249819Y-123610809D02*
X138202200Y-123515571D01*
X138202200Y-123515571D02*
X138154580Y-123467952D01*
X138154580Y-123467952D02*
X138011723Y-123372714D01*
X138011723Y-123372714D02*
X137821247Y-123325095D01*
X137821247Y-123325095D02*
X137440295Y-123325095D01*
X137440295Y-123325095D02*
X137345057Y-123372714D01*
X137345057Y-123372714D02*
X137297438Y-123420333D01*
X137297438Y-123420333D02*
X137249819Y-123515571D01*
X137249819Y-123515571D02*
X137249819Y-123706047D01*
X137249819Y-123706047D02*
X137297438Y-123801285D01*
X137297438Y-123801285D02*
X137345057Y-123848904D01*
X137345057Y-123848904D02*
X137440295Y-123896523D01*
X137440295Y-123896523D02*
X137678390Y-123896523D01*
X137678390Y-123896523D02*
X137773628Y-123848904D01*
X137773628Y-123848904D02*
X137821247Y-123801285D01*
X137821247Y-123801285D02*
X137868866Y-123706047D01*
X137868866Y-123706047D02*
X137868866Y-123515571D01*
X137868866Y-123515571D02*
X137821247Y-123420333D01*
X137821247Y-123420333D02*
X137773628Y-123372714D01*
X137773628Y-123372714D02*
X137678390Y-123325095D01*
X158234142Y-122660580D02*
X158186523Y-122708200D01*
X158186523Y-122708200D02*
X158043666Y-122755819D01*
X158043666Y-122755819D02*
X157948428Y-122755819D01*
X157948428Y-122755819D02*
X157805571Y-122708200D01*
X157805571Y-122708200D02*
X157710333Y-122612961D01*
X157710333Y-122612961D02*
X157662714Y-122517723D01*
X157662714Y-122517723D02*
X157615095Y-122327247D01*
X157615095Y-122327247D02*
X157615095Y-122184390D01*
X157615095Y-122184390D02*
X157662714Y-121993914D01*
X157662714Y-121993914D02*
X157710333Y-121898676D01*
X157710333Y-121898676D02*
X157805571Y-121803438D01*
X157805571Y-121803438D02*
X157948428Y-121755819D01*
X157948428Y-121755819D02*
X158043666Y-121755819D01*
X158043666Y-121755819D02*
X158186523Y-121803438D01*
X158186523Y-121803438D02*
X158234142Y-121851057D01*
X158567476Y-121755819D02*
X159186523Y-121755819D01*
X159186523Y-121755819D02*
X158853190Y-122136771D01*
X158853190Y-122136771D02*
X158996047Y-122136771D01*
X158996047Y-122136771D02*
X159091285Y-122184390D01*
X159091285Y-122184390D02*
X159138904Y-122232009D01*
X159138904Y-122232009D02*
X159186523Y-122327247D01*
X159186523Y-122327247D02*
X159186523Y-122565342D01*
X159186523Y-122565342D02*
X159138904Y-122660580D01*
X159138904Y-122660580D02*
X159091285Y-122708200D01*
X159091285Y-122708200D02*
X158996047Y-122755819D01*
X158996047Y-122755819D02*
X158710333Y-122755819D01*
X158710333Y-122755819D02*
X158615095Y-122708200D01*
X158615095Y-122708200D02*
X158567476Y-122660580D01*
X159805571Y-121755819D02*
X159900809Y-121755819D01*
X159900809Y-121755819D02*
X159996047Y-121803438D01*
X159996047Y-121803438D02*
X160043666Y-121851057D01*
X160043666Y-121851057D02*
X160091285Y-121946295D01*
X160091285Y-121946295D02*
X160138904Y-122136771D01*
X160138904Y-122136771D02*
X160138904Y-122374866D01*
X160138904Y-122374866D02*
X160091285Y-122565342D01*
X160091285Y-122565342D02*
X160043666Y-122660580D01*
X160043666Y-122660580D02*
X159996047Y-122708200D01*
X159996047Y-122708200D02*
X159900809Y-122755819D01*
X159900809Y-122755819D02*
X159805571Y-122755819D01*
X159805571Y-122755819D02*
X159710333Y-122708200D01*
X159710333Y-122708200D02*
X159662714Y-122660580D01*
X159662714Y-122660580D02*
X159615095Y-122565342D01*
X159615095Y-122565342D02*
X159567476Y-122374866D01*
X159567476Y-122374866D02*
X159567476Y-122136771D01*
X159567476Y-122136771D02*
X159615095Y-121946295D01*
X159615095Y-121946295D02*
X159662714Y-121851057D01*
X159662714Y-121851057D02*
X159710333Y-121803438D01*
X159710333Y-121803438D02*
X159805571Y-121755819D01*
X151661905Y-141772819D02*
X151661905Y-140772819D01*
X151661905Y-140772819D02*
X151900000Y-140772819D01*
X151900000Y-140772819D02*
X152042857Y-140820438D01*
X152042857Y-140820438D02*
X152138095Y-140915676D01*
X152138095Y-140915676D02*
X152185714Y-141010914D01*
X152185714Y-141010914D02*
X152233333Y-141201390D01*
X152233333Y-141201390D02*
X152233333Y-141344247D01*
X152233333Y-141344247D02*
X152185714Y-141534723D01*
X152185714Y-141534723D02*
X152138095Y-141629961D01*
X152138095Y-141629961D02*
X152042857Y-141725200D01*
X152042857Y-141725200D02*
X151900000Y-141772819D01*
X151900000Y-141772819D02*
X151661905Y-141772819D01*
X152614286Y-140868057D02*
X152661905Y-140820438D01*
X152661905Y-140820438D02*
X152757143Y-140772819D01*
X152757143Y-140772819D02*
X152995238Y-140772819D01*
X152995238Y-140772819D02*
X153090476Y-140820438D01*
X153090476Y-140820438D02*
X153138095Y-140868057D01*
X153138095Y-140868057D02*
X153185714Y-140963295D01*
X153185714Y-140963295D02*
X153185714Y-141058533D01*
X153185714Y-141058533D02*
X153138095Y-141201390D01*
X153138095Y-141201390D02*
X152566667Y-141772819D01*
X152566667Y-141772819D02*
X153185714Y-141772819D01*
X137406142Y-77162819D02*
X137072809Y-76686628D01*
X136834714Y-77162819D02*
X136834714Y-76162819D01*
X136834714Y-76162819D02*
X137215666Y-76162819D01*
X137215666Y-76162819D02*
X137310904Y-76210438D01*
X137310904Y-76210438D02*
X137358523Y-76258057D01*
X137358523Y-76258057D02*
X137406142Y-76353295D01*
X137406142Y-76353295D02*
X137406142Y-76496152D01*
X137406142Y-76496152D02*
X137358523Y-76591390D01*
X137358523Y-76591390D02*
X137310904Y-76639009D01*
X137310904Y-76639009D02*
X137215666Y-76686628D01*
X137215666Y-76686628D02*
X136834714Y-76686628D01*
X138358523Y-77162819D02*
X137787095Y-77162819D01*
X138072809Y-77162819D02*
X138072809Y-76162819D01*
X138072809Y-76162819D02*
X137977571Y-76305676D01*
X137977571Y-76305676D02*
X137882333Y-76400914D01*
X137882333Y-76400914D02*
X137787095Y-76448533D01*
X139310904Y-77162819D02*
X138739476Y-77162819D01*
X139025190Y-77162819D02*
X139025190Y-76162819D01*
X139025190Y-76162819D02*
X138929952Y-76305676D01*
X138929952Y-76305676D02*
X138834714Y-76400914D01*
X138834714Y-76400914D02*
X138739476Y-76448533D01*
X154551142Y-122755819D02*
X154217809Y-122279628D01*
X153979714Y-122755819D02*
X153979714Y-121755819D01*
X153979714Y-121755819D02*
X154360666Y-121755819D01*
X154360666Y-121755819D02*
X154455904Y-121803438D01*
X154455904Y-121803438D02*
X154503523Y-121851057D01*
X154503523Y-121851057D02*
X154551142Y-121946295D01*
X154551142Y-121946295D02*
X154551142Y-122089152D01*
X154551142Y-122089152D02*
X154503523Y-122184390D01*
X154503523Y-122184390D02*
X154455904Y-122232009D01*
X154455904Y-122232009D02*
X154360666Y-122279628D01*
X154360666Y-122279628D02*
X153979714Y-122279628D01*
X155503523Y-122755819D02*
X154932095Y-122755819D01*
X155217809Y-122755819D02*
X155217809Y-121755819D01*
X155217809Y-121755819D02*
X155122571Y-121898676D01*
X155122571Y-121898676D02*
X155027333Y-121993914D01*
X155027333Y-121993914D02*
X154932095Y-122041533D01*
X155836857Y-121755819D02*
X156503523Y-121755819D01*
X156503523Y-121755819D02*
X156074952Y-122755819D01*
X163195095Y-132169819D02*
X163195095Y-132979342D01*
X163195095Y-132979342D02*
X163242714Y-133074580D01*
X163242714Y-133074580D02*
X163290333Y-133122200D01*
X163290333Y-133122200D02*
X163385571Y-133169819D01*
X163385571Y-133169819D02*
X163576047Y-133169819D01*
X163576047Y-133169819D02*
X163671285Y-133122200D01*
X163671285Y-133122200D02*
X163718904Y-133074580D01*
X163718904Y-133074580D02*
X163766523Y-132979342D01*
X163766523Y-132979342D02*
X163766523Y-132169819D01*
X164147476Y-132169819D02*
X164814142Y-132169819D01*
X164814142Y-132169819D02*
X164385571Y-133169819D01*
X143361580Y-139072857D02*
X143409200Y-139120476D01*
X143409200Y-139120476D02*
X143456819Y-139263333D01*
X143456819Y-139263333D02*
X143456819Y-139358571D01*
X143456819Y-139358571D02*
X143409200Y-139501428D01*
X143409200Y-139501428D02*
X143313961Y-139596666D01*
X143313961Y-139596666D02*
X143218723Y-139644285D01*
X143218723Y-139644285D02*
X143028247Y-139691904D01*
X143028247Y-139691904D02*
X142885390Y-139691904D01*
X142885390Y-139691904D02*
X142694914Y-139644285D01*
X142694914Y-139644285D02*
X142599676Y-139596666D01*
X142599676Y-139596666D02*
X142504438Y-139501428D01*
X142504438Y-139501428D02*
X142456819Y-139358571D01*
X142456819Y-139358571D02*
X142456819Y-139263333D01*
X142456819Y-139263333D02*
X142504438Y-139120476D01*
X142504438Y-139120476D02*
X142552057Y-139072857D01*
X142456819Y-138739523D02*
X142456819Y-138120476D01*
X142456819Y-138120476D02*
X142837771Y-138453809D01*
X142837771Y-138453809D02*
X142837771Y-138310952D01*
X142837771Y-138310952D02*
X142885390Y-138215714D01*
X142885390Y-138215714D02*
X142933009Y-138168095D01*
X142933009Y-138168095D02*
X143028247Y-138120476D01*
X143028247Y-138120476D02*
X143266342Y-138120476D01*
X143266342Y-138120476D02*
X143361580Y-138168095D01*
X143361580Y-138168095D02*
X143409200Y-138215714D01*
X143409200Y-138215714D02*
X143456819Y-138310952D01*
X143456819Y-138310952D02*
X143456819Y-138596666D01*
X143456819Y-138596666D02*
X143409200Y-138691904D01*
X143409200Y-138691904D02*
X143361580Y-138739523D01*
X142456819Y-137787142D02*
X142456819Y-137168095D01*
X142456819Y-137168095D02*
X142837771Y-137501428D01*
X142837771Y-137501428D02*
X142837771Y-137358571D01*
X142837771Y-137358571D02*
X142885390Y-137263333D01*
X142885390Y-137263333D02*
X142933009Y-137215714D01*
X142933009Y-137215714D02*
X143028247Y-137168095D01*
X143028247Y-137168095D02*
X143266342Y-137168095D01*
X143266342Y-137168095D02*
X143361580Y-137215714D01*
X143361580Y-137215714D02*
X143409200Y-137263333D01*
X143409200Y-137263333D02*
X143456819Y-137358571D01*
X143456819Y-137358571D02*
X143456819Y-137644285D01*
X143456819Y-137644285D02*
X143409200Y-137739523D01*
X143409200Y-137739523D02*
X143361580Y-137787142D01*
X137215666Y-73464009D02*
X136882333Y-73464009D01*
X136882333Y-73987819D02*
X136882333Y-72987819D01*
X136882333Y-72987819D02*
X137358523Y-72987819D01*
X138072809Y-73464009D02*
X138215666Y-73511628D01*
X138215666Y-73511628D02*
X138263285Y-73559247D01*
X138263285Y-73559247D02*
X138310904Y-73654485D01*
X138310904Y-73654485D02*
X138310904Y-73797342D01*
X138310904Y-73797342D02*
X138263285Y-73892580D01*
X138263285Y-73892580D02*
X138215666Y-73940200D01*
X138215666Y-73940200D02*
X138120428Y-73987819D01*
X138120428Y-73987819D02*
X137739476Y-73987819D01*
X137739476Y-73987819D02*
X137739476Y-72987819D01*
X137739476Y-72987819D02*
X138072809Y-72987819D01*
X138072809Y-72987819D02*
X138168047Y-73035438D01*
X138168047Y-73035438D02*
X138215666Y-73083057D01*
X138215666Y-73083057D02*
X138263285Y-73178295D01*
X138263285Y-73178295D02*
X138263285Y-73273533D01*
X138263285Y-73273533D02*
X138215666Y-73368771D01*
X138215666Y-73368771D02*
X138168047Y-73416390D01*
X138168047Y-73416390D02*
X138072809Y-73464009D01*
X138072809Y-73464009D02*
X137739476Y-73464009D01*
X138691857Y-73083057D02*
X138739476Y-73035438D01*
X138739476Y-73035438D02*
X138834714Y-72987819D01*
X138834714Y-72987819D02*
X139072809Y-72987819D01*
X139072809Y-72987819D02*
X139168047Y-73035438D01*
X139168047Y-73035438D02*
X139215666Y-73083057D01*
X139215666Y-73083057D02*
X139263285Y-73178295D01*
X139263285Y-73178295D02*
X139263285Y-73273533D01*
X139263285Y-73273533D02*
X139215666Y-73416390D01*
X139215666Y-73416390D02*
X138644238Y-73987819D01*
X138644238Y-73987819D02*
X139263285Y-73987819D01*
X158234142Y-121390580D02*
X158186523Y-121438200D01*
X158186523Y-121438200D02*
X158043666Y-121485819D01*
X158043666Y-121485819D02*
X157948428Y-121485819D01*
X157948428Y-121485819D02*
X157805571Y-121438200D01*
X157805571Y-121438200D02*
X157710333Y-121342961D01*
X157710333Y-121342961D02*
X157662714Y-121247723D01*
X157662714Y-121247723D02*
X157615095Y-121057247D01*
X157615095Y-121057247D02*
X157615095Y-120914390D01*
X157615095Y-120914390D02*
X157662714Y-120723914D01*
X157662714Y-120723914D02*
X157710333Y-120628676D01*
X157710333Y-120628676D02*
X157805571Y-120533438D01*
X157805571Y-120533438D02*
X157948428Y-120485819D01*
X157948428Y-120485819D02*
X158043666Y-120485819D01*
X158043666Y-120485819D02*
X158186523Y-120533438D01*
X158186523Y-120533438D02*
X158234142Y-120581057D01*
X158615095Y-120581057D02*
X158662714Y-120533438D01*
X158662714Y-120533438D02*
X158757952Y-120485819D01*
X158757952Y-120485819D02*
X158996047Y-120485819D01*
X158996047Y-120485819D02*
X159091285Y-120533438D01*
X159091285Y-120533438D02*
X159138904Y-120581057D01*
X159138904Y-120581057D02*
X159186523Y-120676295D01*
X159186523Y-120676295D02*
X159186523Y-120771533D01*
X159186523Y-120771533D02*
X159138904Y-120914390D01*
X159138904Y-120914390D02*
X158567476Y-121485819D01*
X158567476Y-121485819D02*
X159186523Y-121485819D01*
X159519857Y-120485819D02*
X160186523Y-120485819D01*
X160186523Y-120485819D02*
X159757952Y-121485819D01*
X165600142Y-122755819D02*
X165266809Y-122279628D01*
X165028714Y-122755819D02*
X165028714Y-121755819D01*
X165028714Y-121755819D02*
X165409666Y-121755819D01*
X165409666Y-121755819D02*
X165504904Y-121803438D01*
X165504904Y-121803438D02*
X165552523Y-121851057D01*
X165552523Y-121851057D02*
X165600142Y-121946295D01*
X165600142Y-121946295D02*
X165600142Y-122089152D01*
X165600142Y-122089152D02*
X165552523Y-122184390D01*
X165552523Y-122184390D02*
X165504904Y-122232009D01*
X165504904Y-122232009D02*
X165409666Y-122279628D01*
X165409666Y-122279628D02*
X165028714Y-122279628D01*
X166552523Y-122755819D02*
X165981095Y-122755819D01*
X166266809Y-122755819D02*
X166266809Y-121755819D01*
X166266809Y-121755819D02*
X166171571Y-121898676D01*
X166171571Y-121898676D02*
X166076333Y-121993914D01*
X166076333Y-121993914D02*
X165981095Y-122041533D01*
X167457285Y-121755819D02*
X166981095Y-121755819D01*
X166981095Y-121755819D02*
X166933476Y-122232009D01*
X166933476Y-122232009D02*
X166981095Y-122184390D01*
X166981095Y-122184390D02*
X167076333Y-122136771D01*
X167076333Y-122136771D02*
X167314428Y-122136771D01*
X167314428Y-122136771D02*
X167409666Y-122184390D01*
X167409666Y-122184390D02*
X167457285Y-122232009D01*
X167457285Y-122232009D02*
X167504904Y-122327247D01*
X167504904Y-122327247D02*
X167504904Y-122565342D01*
X167504904Y-122565342D02*
X167457285Y-122660580D01*
X167457285Y-122660580D02*
X167409666Y-122708200D01*
X167409666Y-122708200D02*
X167314428Y-122755819D01*
X167314428Y-122755819D02*
X167076333Y-122755819D01*
X167076333Y-122755819D02*
X166981095Y-122708200D01*
X166981095Y-122708200D02*
X166933476Y-122660580D01*
X146772333Y-98403580D02*
X146724714Y-98451200D01*
X146724714Y-98451200D02*
X146581857Y-98498819D01*
X146581857Y-98498819D02*
X146486619Y-98498819D01*
X146486619Y-98498819D02*
X146343762Y-98451200D01*
X146343762Y-98451200D02*
X146248524Y-98355961D01*
X146248524Y-98355961D02*
X146200905Y-98260723D01*
X146200905Y-98260723D02*
X146153286Y-98070247D01*
X146153286Y-98070247D02*
X146153286Y-97927390D01*
X146153286Y-97927390D02*
X146200905Y-97736914D01*
X146200905Y-97736914D02*
X146248524Y-97641676D01*
X146248524Y-97641676D02*
X146343762Y-97546438D01*
X146343762Y-97546438D02*
X146486619Y-97498819D01*
X146486619Y-97498819D02*
X146581857Y-97498819D01*
X146581857Y-97498819D02*
X146724714Y-97546438D01*
X146724714Y-97546438D02*
X146772333Y-97594057D01*
X147629476Y-97832152D02*
X147629476Y-98498819D01*
X147391381Y-97451200D02*
X147153286Y-98165485D01*
X147153286Y-98165485D02*
X147772333Y-98165485D01*
X161917142Y-121485819D02*
X161583809Y-121009628D01*
X161345714Y-121485819D02*
X161345714Y-120485819D01*
X161345714Y-120485819D02*
X161726666Y-120485819D01*
X161726666Y-120485819D02*
X161821904Y-120533438D01*
X161821904Y-120533438D02*
X161869523Y-120581057D01*
X161869523Y-120581057D02*
X161917142Y-120676295D01*
X161917142Y-120676295D02*
X161917142Y-120819152D01*
X161917142Y-120819152D02*
X161869523Y-120914390D01*
X161869523Y-120914390D02*
X161821904Y-120962009D01*
X161821904Y-120962009D02*
X161726666Y-121009628D01*
X161726666Y-121009628D02*
X161345714Y-121009628D01*
X162869523Y-121485819D02*
X162298095Y-121485819D01*
X162583809Y-121485819D02*
X162583809Y-120485819D01*
X162583809Y-120485819D02*
X162488571Y-120628676D01*
X162488571Y-120628676D02*
X162393333Y-120723914D01*
X162393333Y-120723914D02*
X162298095Y-120771533D01*
X163726666Y-120819152D02*
X163726666Y-121485819D01*
X163488571Y-120438200D02*
X163250476Y-121152485D01*
X163250476Y-121152485D02*
X163869523Y-121152485D01*
X146409580Y-118117857D02*
X146457200Y-118165476D01*
X146457200Y-118165476D02*
X146504819Y-118308333D01*
X146504819Y-118308333D02*
X146504819Y-118403571D01*
X146504819Y-118403571D02*
X146457200Y-118546428D01*
X146457200Y-118546428D02*
X146361961Y-118641666D01*
X146361961Y-118641666D02*
X146266723Y-118689285D01*
X146266723Y-118689285D02*
X146076247Y-118736904D01*
X146076247Y-118736904D02*
X145933390Y-118736904D01*
X145933390Y-118736904D02*
X145742914Y-118689285D01*
X145742914Y-118689285D02*
X145647676Y-118641666D01*
X145647676Y-118641666D02*
X145552438Y-118546428D01*
X145552438Y-118546428D02*
X145504819Y-118403571D01*
X145504819Y-118403571D02*
X145504819Y-118308333D01*
X145504819Y-118308333D02*
X145552438Y-118165476D01*
X145552438Y-118165476D02*
X145600057Y-118117857D01*
X145504819Y-117784523D02*
X145504819Y-117165476D01*
X145504819Y-117165476D02*
X145885771Y-117498809D01*
X145885771Y-117498809D02*
X145885771Y-117355952D01*
X145885771Y-117355952D02*
X145933390Y-117260714D01*
X145933390Y-117260714D02*
X145981009Y-117213095D01*
X145981009Y-117213095D02*
X146076247Y-117165476D01*
X146076247Y-117165476D02*
X146314342Y-117165476D01*
X146314342Y-117165476D02*
X146409580Y-117213095D01*
X146409580Y-117213095D02*
X146457200Y-117260714D01*
X146457200Y-117260714D02*
X146504819Y-117355952D01*
X146504819Y-117355952D02*
X146504819Y-117641666D01*
X146504819Y-117641666D02*
X146457200Y-117736904D01*
X146457200Y-117736904D02*
X146409580Y-117784523D01*
X145504819Y-116308333D02*
X145504819Y-116498809D01*
X145504819Y-116498809D02*
X145552438Y-116594047D01*
X145552438Y-116594047D02*
X145600057Y-116641666D01*
X145600057Y-116641666D02*
X145742914Y-116736904D01*
X145742914Y-116736904D02*
X145933390Y-116784523D01*
X145933390Y-116784523D02*
X146314342Y-116784523D01*
X146314342Y-116784523D02*
X146409580Y-116736904D01*
X146409580Y-116736904D02*
X146457200Y-116689285D01*
X146457200Y-116689285D02*
X146504819Y-116594047D01*
X146504819Y-116594047D02*
X146504819Y-116403571D01*
X146504819Y-116403571D02*
X146457200Y-116308333D01*
X146457200Y-116308333D02*
X146409580Y-116260714D01*
X146409580Y-116260714D02*
X146314342Y-116213095D01*
X146314342Y-116213095D02*
X146076247Y-116213095D01*
X146076247Y-116213095D02*
X145981009Y-116260714D01*
X145981009Y-116260714D02*
X145933390Y-116308333D01*
X145933390Y-116308333D02*
X145885771Y-116403571D01*
X145885771Y-116403571D02*
X145885771Y-116594047D01*
X145885771Y-116594047D02*
X145933390Y-116689285D01*
X145933390Y-116689285D02*
X145981009Y-116736904D01*
X145981009Y-116736904D02*
X146076247Y-116784523D01*
X152233333Y-131518819D02*
X151900000Y-131042628D01*
X151661905Y-131518819D02*
X151661905Y-130518819D01*
X151661905Y-130518819D02*
X152042857Y-130518819D01*
X152042857Y-130518819D02*
X152138095Y-130566438D01*
X152138095Y-130566438D02*
X152185714Y-130614057D01*
X152185714Y-130614057D02*
X152233333Y-130709295D01*
X152233333Y-130709295D02*
X152233333Y-130852152D01*
X152233333Y-130852152D02*
X152185714Y-130947390D01*
X152185714Y-130947390D02*
X152138095Y-130995009D01*
X152138095Y-130995009D02*
X152042857Y-131042628D01*
X152042857Y-131042628D02*
X151661905Y-131042628D01*
X153090476Y-130852152D02*
X153090476Y-131518819D01*
X152852381Y-130471200D02*
X152614286Y-131185485D01*
X152614286Y-131185485D02*
X153233333Y-131185485D01*
X161871819Y-82843666D02*
X161395628Y-83176999D01*
X161871819Y-83415094D02*
X160871819Y-83415094D01*
X160871819Y-83415094D02*
X160871819Y-83034142D01*
X160871819Y-83034142D02*
X160919438Y-82938904D01*
X160919438Y-82938904D02*
X160967057Y-82891285D01*
X160967057Y-82891285D02*
X161062295Y-82843666D01*
X161062295Y-82843666D02*
X161205152Y-82843666D01*
X161205152Y-82843666D02*
X161300390Y-82891285D01*
X161300390Y-82891285D02*
X161348009Y-82938904D01*
X161348009Y-82938904D02*
X161395628Y-83034142D01*
X161395628Y-83034142D02*
X161395628Y-83415094D01*
X160871819Y-82510332D02*
X160871819Y-81843666D01*
X160871819Y-81843666D02*
X161871819Y-82272237D01*
X156062819Y-88749094D02*
X155062819Y-88749094D01*
X155062819Y-88749094D02*
X155062819Y-88510999D01*
X155062819Y-88510999D02*
X155110438Y-88368142D01*
X155110438Y-88368142D02*
X155205676Y-88272904D01*
X155205676Y-88272904D02*
X155300914Y-88225285D01*
X155300914Y-88225285D02*
X155491390Y-88177666D01*
X155491390Y-88177666D02*
X155634247Y-88177666D01*
X155634247Y-88177666D02*
X155824723Y-88225285D01*
X155824723Y-88225285D02*
X155919961Y-88272904D01*
X155919961Y-88272904D02*
X156015200Y-88368142D01*
X156015200Y-88368142D02*
X156062819Y-88510999D01*
X156062819Y-88510999D02*
X156062819Y-88749094D01*
X155062819Y-87844332D02*
X155062819Y-87225285D01*
X155062819Y-87225285D02*
X155443771Y-87558618D01*
X155443771Y-87558618D02*
X155443771Y-87415761D01*
X155443771Y-87415761D02*
X155491390Y-87320523D01*
X155491390Y-87320523D02*
X155539009Y-87272904D01*
X155539009Y-87272904D02*
X155634247Y-87225285D01*
X155634247Y-87225285D02*
X155872342Y-87225285D01*
X155872342Y-87225285D02*
X155967580Y-87272904D01*
X155967580Y-87272904D02*
X156015200Y-87320523D01*
X156015200Y-87320523D02*
X156062819Y-87415761D01*
X156062819Y-87415761D02*
X156062819Y-87701475D01*
X156062819Y-87701475D02*
X156015200Y-87796713D01*
X156015200Y-87796713D02*
X155967580Y-87844332D01*
X144980819Y-118117857D02*
X144504628Y-118451190D01*
X144980819Y-118689285D02*
X143980819Y-118689285D01*
X143980819Y-118689285D02*
X143980819Y-118308333D01*
X143980819Y-118308333D02*
X144028438Y-118213095D01*
X144028438Y-118213095D02*
X144076057Y-118165476D01*
X144076057Y-118165476D02*
X144171295Y-118117857D01*
X144171295Y-118117857D02*
X144314152Y-118117857D01*
X144314152Y-118117857D02*
X144409390Y-118165476D01*
X144409390Y-118165476D02*
X144457009Y-118213095D01*
X144457009Y-118213095D02*
X144504628Y-118308333D01*
X144504628Y-118308333D02*
X144504628Y-118689285D01*
X144076057Y-117736904D02*
X144028438Y-117689285D01*
X144028438Y-117689285D02*
X143980819Y-117594047D01*
X143980819Y-117594047D02*
X143980819Y-117355952D01*
X143980819Y-117355952D02*
X144028438Y-117260714D01*
X144028438Y-117260714D02*
X144076057Y-117213095D01*
X144076057Y-117213095D02*
X144171295Y-117165476D01*
X144171295Y-117165476D02*
X144266533Y-117165476D01*
X144266533Y-117165476D02*
X144409390Y-117213095D01*
X144409390Y-117213095D02*
X144980819Y-117784523D01*
X144980819Y-117784523D02*
X144980819Y-117165476D01*
X143980819Y-116832142D02*
X143980819Y-116165476D01*
X143980819Y-116165476D02*
X144980819Y-116594047D01*
X158855580Y-138437857D02*
X158903200Y-138485476D01*
X158903200Y-138485476D02*
X158950819Y-138628333D01*
X158950819Y-138628333D02*
X158950819Y-138723571D01*
X158950819Y-138723571D02*
X158903200Y-138866428D01*
X158903200Y-138866428D02*
X158807961Y-138961666D01*
X158807961Y-138961666D02*
X158712723Y-139009285D01*
X158712723Y-139009285D02*
X158522247Y-139056904D01*
X158522247Y-139056904D02*
X158379390Y-139056904D01*
X158379390Y-139056904D02*
X158188914Y-139009285D01*
X158188914Y-139009285D02*
X158093676Y-138961666D01*
X158093676Y-138961666D02*
X157998438Y-138866428D01*
X157998438Y-138866428D02*
X157950819Y-138723571D01*
X157950819Y-138723571D02*
X157950819Y-138628333D01*
X157950819Y-138628333D02*
X157998438Y-138485476D01*
X157998438Y-138485476D02*
X158046057Y-138437857D01*
X158046057Y-138056904D02*
X157998438Y-138009285D01*
X157998438Y-138009285D02*
X157950819Y-137914047D01*
X157950819Y-137914047D02*
X157950819Y-137675952D01*
X157950819Y-137675952D02*
X157998438Y-137580714D01*
X157998438Y-137580714D02*
X158046057Y-137533095D01*
X158046057Y-137533095D02*
X158141295Y-137485476D01*
X158141295Y-137485476D02*
X158236533Y-137485476D01*
X158236533Y-137485476D02*
X158379390Y-137533095D01*
X158379390Y-137533095D02*
X158950819Y-138104523D01*
X158950819Y-138104523D02*
X158950819Y-137485476D01*
X158046057Y-137104523D02*
X157998438Y-137056904D01*
X157998438Y-137056904D02*
X157950819Y-136961666D01*
X157950819Y-136961666D02*
X157950819Y-136723571D01*
X157950819Y-136723571D02*
X157998438Y-136628333D01*
X157998438Y-136628333D02*
X158046057Y-136580714D01*
X158046057Y-136580714D02*
X158141295Y-136533095D01*
X158141295Y-136533095D02*
X158236533Y-136533095D01*
X158236533Y-136533095D02*
X158379390Y-136580714D01*
X158379390Y-136580714D02*
X158950819Y-137152142D01*
X158950819Y-137152142D02*
X158950819Y-136533095D01*
X137406142Y-72368580D02*
X137358523Y-72416200D01*
X137358523Y-72416200D02*
X137215666Y-72463819D01*
X137215666Y-72463819D02*
X137120428Y-72463819D01*
X137120428Y-72463819D02*
X136977571Y-72416200D01*
X136977571Y-72416200D02*
X136882333Y-72320961D01*
X136882333Y-72320961D02*
X136834714Y-72225723D01*
X136834714Y-72225723D02*
X136787095Y-72035247D01*
X136787095Y-72035247D02*
X136787095Y-71892390D01*
X136787095Y-71892390D02*
X136834714Y-71701914D01*
X136834714Y-71701914D02*
X136882333Y-71606676D01*
X136882333Y-71606676D02*
X136977571Y-71511438D01*
X136977571Y-71511438D02*
X137120428Y-71463819D01*
X137120428Y-71463819D02*
X137215666Y-71463819D01*
X137215666Y-71463819D02*
X137358523Y-71511438D01*
X137358523Y-71511438D02*
X137406142Y-71559057D01*
X138358523Y-72463819D02*
X137787095Y-72463819D01*
X138072809Y-72463819D02*
X138072809Y-71463819D01*
X138072809Y-71463819D02*
X137977571Y-71606676D01*
X137977571Y-71606676D02*
X137882333Y-71701914D01*
X137882333Y-71701914D02*
X137787095Y-71749533D01*
X138929952Y-71892390D02*
X138834714Y-71844771D01*
X138834714Y-71844771D02*
X138787095Y-71797152D01*
X138787095Y-71797152D02*
X138739476Y-71701914D01*
X138739476Y-71701914D02*
X138739476Y-71654295D01*
X138739476Y-71654295D02*
X138787095Y-71559057D01*
X138787095Y-71559057D02*
X138834714Y-71511438D01*
X138834714Y-71511438D02*
X138929952Y-71463819D01*
X138929952Y-71463819D02*
X139120428Y-71463819D01*
X139120428Y-71463819D02*
X139215666Y-71511438D01*
X139215666Y-71511438D02*
X139263285Y-71559057D01*
X139263285Y-71559057D02*
X139310904Y-71654295D01*
X139310904Y-71654295D02*
X139310904Y-71701914D01*
X139310904Y-71701914D02*
X139263285Y-71797152D01*
X139263285Y-71797152D02*
X139215666Y-71844771D01*
X139215666Y-71844771D02*
X139120428Y-71892390D01*
X139120428Y-71892390D02*
X138929952Y-71892390D01*
X138929952Y-71892390D02*
X138834714Y-71940009D01*
X138834714Y-71940009D02*
X138787095Y-71987628D01*
X138787095Y-71987628D02*
X138739476Y-72082866D01*
X138739476Y-72082866D02*
X138739476Y-72273342D01*
X138739476Y-72273342D02*
X138787095Y-72368580D01*
X138787095Y-72368580D02*
X138834714Y-72416200D01*
X138834714Y-72416200D02*
X138929952Y-72463819D01*
X138929952Y-72463819D02*
X139120428Y-72463819D01*
X139120428Y-72463819D02*
X139215666Y-72416200D01*
X139215666Y-72416200D02*
X139263285Y-72368580D01*
X139263285Y-72368580D02*
X139310904Y-72273342D01*
X139310904Y-72273342D02*
X139310904Y-72082866D01*
X139310904Y-72082866D02*
X139263285Y-71987628D01*
X139263285Y-71987628D02*
X139215666Y-71940009D01*
X139215666Y-71940009D02*
X139120428Y-71892390D01*
X157734095Y-88648819D02*
X157734095Y-89458342D01*
X157734095Y-89458342D02*
X157781714Y-89553580D01*
X157781714Y-89553580D02*
X157829333Y-89601200D01*
X157829333Y-89601200D02*
X157924571Y-89648819D01*
X157924571Y-89648819D02*
X158115047Y-89648819D01*
X158115047Y-89648819D02*
X158210285Y-89601200D01*
X158210285Y-89601200D02*
X158257904Y-89553580D01*
X158257904Y-89553580D02*
X158305523Y-89458342D01*
X158305523Y-89458342D02*
X158305523Y-88648819D01*
X159210285Y-88648819D02*
X159019809Y-88648819D01*
X159019809Y-88648819D02*
X158924571Y-88696438D01*
X158924571Y-88696438D02*
X158876952Y-88744057D01*
X158876952Y-88744057D02*
X158781714Y-88886914D01*
X158781714Y-88886914D02*
X158734095Y-89077390D01*
X158734095Y-89077390D02*
X158734095Y-89458342D01*
X158734095Y-89458342D02*
X158781714Y-89553580D01*
X158781714Y-89553580D02*
X158829333Y-89601200D01*
X158829333Y-89601200D02*
X158924571Y-89648819D01*
X158924571Y-89648819D02*
X159115047Y-89648819D01*
X159115047Y-89648819D02*
X159210285Y-89601200D01*
X159210285Y-89601200D02*
X159257904Y-89553580D01*
X159257904Y-89553580D02*
X159305523Y-89458342D01*
X159305523Y-89458342D02*
X159305523Y-89220247D01*
X159305523Y-89220247D02*
X159257904Y-89125009D01*
X159257904Y-89125009D02*
X159210285Y-89077390D01*
X159210285Y-89077390D02*
X159115047Y-89029771D01*
X159115047Y-89029771D02*
X158924571Y-89029771D01*
X158924571Y-89029771D02*
X158829333Y-89077390D01*
X158829333Y-89077390D02*
X158781714Y-89125009D01*
X158781714Y-89125009D02*
X158734095Y-89220247D01*
X147679580Y-125102857D02*
X147727200Y-125150476D01*
X147727200Y-125150476D02*
X147774819Y-125293333D01*
X147774819Y-125293333D02*
X147774819Y-125388571D01*
X147774819Y-125388571D02*
X147727200Y-125531428D01*
X147727200Y-125531428D02*
X147631961Y-125626666D01*
X147631961Y-125626666D02*
X147536723Y-125674285D01*
X147536723Y-125674285D02*
X147346247Y-125721904D01*
X147346247Y-125721904D02*
X147203390Y-125721904D01*
X147203390Y-125721904D02*
X147012914Y-125674285D01*
X147012914Y-125674285D02*
X146917676Y-125626666D01*
X146917676Y-125626666D02*
X146822438Y-125531428D01*
X146822438Y-125531428D02*
X146774819Y-125388571D01*
X146774819Y-125388571D02*
X146774819Y-125293333D01*
X146774819Y-125293333D02*
X146822438Y-125150476D01*
X146822438Y-125150476D02*
X146870057Y-125102857D01*
X146774819Y-124769523D02*
X146774819Y-124150476D01*
X146774819Y-124150476D02*
X147155771Y-124483809D01*
X147155771Y-124483809D02*
X147155771Y-124340952D01*
X147155771Y-124340952D02*
X147203390Y-124245714D01*
X147203390Y-124245714D02*
X147251009Y-124198095D01*
X147251009Y-124198095D02*
X147346247Y-124150476D01*
X147346247Y-124150476D02*
X147584342Y-124150476D01*
X147584342Y-124150476D02*
X147679580Y-124198095D01*
X147679580Y-124198095D02*
X147727200Y-124245714D01*
X147727200Y-124245714D02*
X147774819Y-124340952D01*
X147774819Y-124340952D02*
X147774819Y-124626666D01*
X147774819Y-124626666D02*
X147727200Y-124721904D01*
X147727200Y-124721904D02*
X147679580Y-124769523D01*
X146774819Y-123245714D02*
X146774819Y-123721904D01*
X146774819Y-123721904D02*
X147251009Y-123769523D01*
X147251009Y-123769523D02*
X147203390Y-123721904D01*
X147203390Y-123721904D02*
X147155771Y-123626666D01*
X147155771Y-123626666D02*
X147155771Y-123388571D01*
X147155771Y-123388571D02*
X147203390Y-123293333D01*
X147203390Y-123293333D02*
X147251009Y-123245714D01*
X147251009Y-123245714D02*
X147346247Y-123198095D01*
X147346247Y-123198095D02*
X147584342Y-123198095D01*
X147584342Y-123198095D02*
X147679580Y-123245714D01*
X147679580Y-123245714D02*
X147727200Y-123293333D01*
X147727200Y-123293333D02*
X147774819Y-123388571D01*
X147774819Y-123388571D02*
X147774819Y-123626666D01*
X147774819Y-123626666D02*
X147727200Y-123721904D01*
X147727200Y-123721904D02*
X147679580Y-123769523D01*
X144994333Y-112246580D02*
X144946714Y-112294200D01*
X144946714Y-112294200D02*
X144803857Y-112341819D01*
X144803857Y-112341819D02*
X144708619Y-112341819D01*
X144708619Y-112341819D02*
X144565762Y-112294200D01*
X144565762Y-112294200D02*
X144470524Y-112198961D01*
X144470524Y-112198961D02*
X144422905Y-112103723D01*
X144422905Y-112103723D02*
X144375286Y-111913247D01*
X144375286Y-111913247D02*
X144375286Y-111770390D01*
X144375286Y-111770390D02*
X144422905Y-111579914D01*
X144422905Y-111579914D02*
X144470524Y-111484676D01*
X144470524Y-111484676D02*
X144565762Y-111389438D01*
X144565762Y-111389438D02*
X144708619Y-111341819D01*
X144708619Y-111341819D02*
X144803857Y-111341819D01*
X144803857Y-111341819D02*
X144946714Y-111389438D01*
X144946714Y-111389438D02*
X144994333Y-111437057D01*
X145327667Y-111341819D02*
X145946714Y-111341819D01*
X145946714Y-111341819D02*
X145613381Y-111722771D01*
X145613381Y-111722771D02*
X145756238Y-111722771D01*
X145756238Y-111722771D02*
X145851476Y-111770390D01*
X145851476Y-111770390D02*
X145899095Y-111818009D01*
X145899095Y-111818009D02*
X145946714Y-111913247D01*
X145946714Y-111913247D02*
X145946714Y-112151342D01*
X145946714Y-112151342D02*
X145899095Y-112246580D01*
X145899095Y-112246580D02*
X145851476Y-112294200D01*
X145851476Y-112294200D02*
X145756238Y-112341819D01*
X145756238Y-112341819D02*
X145470524Y-112341819D01*
X145470524Y-112341819D02*
X145375286Y-112294200D01*
X145375286Y-112294200D02*
X145327667Y-112246580D01*
X166235142Y-88116580D02*
X166187523Y-88164200D01*
X166187523Y-88164200D02*
X166044666Y-88211819D01*
X166044666Y-88211819D02*
X165949428Y-88211819D01*
X165949428Y-88211819D02*
X165806571Y-88164200D01*
X165806571Y-88164200D02*
X165711333Y-88068961D01*
X165711333Y-88068961D02*
X165663714Y-87973723D01*
X165663714Y-87973723D02*
X165616095Y-87783247D01*
X165616095Y-87783247D02*
X165616095Y-87640390D01*
X165616095Y-87640390D02*
X165663714Y-87449914D01*
X165663714Y-87449914D02*
X165711333Y-87354676D01*
X165711333Y-87354676D02*
X165806571Y-87259438D01*
X165806571Y-87259438D02*
X165949428Y-87211819D01*
X165949428Y-87211819D02*
X166044666Y-87211819D01*
X166044666Y-87211819D02*
X166187523Y-87259438D01*
X166187523Y-87259438D02*
X166235142Y-87307057D01*
X167187523Y-88211819D02*
X166616095Y-88211819D01*
X166901809Y-88211819D02*
X166901809Y-87211819D01*
X166901809Y-87211819D02*
X166806571Y-87354676D01*
X166806571Y-87354676D02*
X166711333Y-87449914D01*
X166711333Y-87449914D02*
X166616095Y-87497533D01*
X168092285Y-87211819D02*
X167616095Y-87211819D01*
X167616095Y-87211819D02*
X167568476Y-87688009D01*
X167568476Y-87688009D02*
X167616095Y-87640390D01*
X167616095Y-87640390D02*
X167711333Y-87592771D01*
X167711333Y-87592771D02*
X167949428Y-87592771D01*
X167949428Y-87592771D02*
X168044666Y-87640390D01*
X168044666Y-87640390D02*
X168092285Y-87688009D01*
X168092285Y-87688009D02*
X168139904Y-87783247D01*
X168139904Y-87783247D02*
X168139904Y-88021342D01*
X168139904Y-88021342D02*
X168092285Y-88116580D01*
X168092285Y-88116580D02*
X168044666Y-88164200D01*
X168044666Y-88164200D02*
X167949428Y-88211819D01*
X167949428Y-88211819D02*
X167711333Y-88211819D01*
X167711333Y-88211819D02*
X167616095Y-88164200D01*
X167616095Y-88164200D02*
X167568476Y-88116580D01*
X137406142Y-70971580D02*
X137358523Y-71019200D01*
X137358523Y-71019200D02*
X137215666Y-71066819D01*
X137215666Y-71066819D02*
X137120428Y-71066819D01*
X137120428Y-71066819D02*
X136977571Y-71019200D01*
X136977571Y-71019200D02*
X136882333Y-70923961D01*
X136882333Y-70923961D02*
X136834714Y-70828723D01*
X136834714Y-70828723D02*
X136787095Y-70638247D01*
X136787095Y-70638247D02*
X136787095Y-70495390D01*
X136787095Y-70495390D02*
X136834714Y-70304914D01*
X136834714Y-70304914D02*
X136882333Y-70209676D01*
X136882333Y-70209676D02*
X136977571Y-70114438D01*
X136977571Y-70114438D02*
X137120428Y-70066819D01*
X137120428Y-70066819D02*
X137215666Y-70066819D01*
X137215666Y-70066819D02*
X137358523Y-70114438D01*
X137358523Y-70114438D02*
X137406142Y-70162057D01*
X138358523Y-71066819D02*
X137787095Y-71066819D01*
X138072809Y-71066819D02*
X138072809Y-70066819D01*
X138072809Y-70066819D02*
X137977571Y-70209676D01*
X137977571Y-70209676D02*
X137882333Y-70304914D01*
X137882333Y-70304914D02*
X137787095Y-70352533D01*
X138691857Y-70066819D02*
X139358523Y-70066819D01*
X139358523Y-70066819D02*
X138929952Y-71066819D01*
X140454142Y-122882819D02*
X140120809Y-122406628D01*
X139882714Y-122882819D02*
X139882714Y-121882819D01*
X139882714Y-121882819D02*
X140263666Y-121882819D01*
X140263666Y-121882819D02*
X140358904Y-121930438D01*
X140358904Y-121930438D02*
X140406523Y-121978057D01*
X140406523Y-121978057D02*
X140454142Y-122073295D01*
X140454142Y-122073295D02*
X140454142Y-122216152D01*
X140454142Y-122216152D02*
X140406523Y-122311390D01*
X140406523Y-122311390D02*
X140358904Y-122359009D01*
X140358904Y-122359009D02*
X140263666Y-122406628D01*
X140263666Y-122406628D02*
X139882714Y-122406628D01*
X141406523Y-122882819D02*
X140835095Y-122882819D01*
X141120809Y-122882819D02*
X141120809Y-121882819D01*
X141120809Y-121882819D02*
X141025571Y-122025676D01*
X141025571Y-122025676D02*
X140930333Y-122120914D01*
X140930333Y-122120914D02*
X140835095Y-122168533D01*
X141977952Y-122311390D02*
X141882714Y-122263771D01*
X141882714Y-122263771D02*
X141835095Y-122216152D01*
X141835095Y-122216152D02*
X141787476Y-122120914D01*
X141787476Y-122120914D02*
X141787476Y-122073295D01*
X141787476Y-122073295D02*
X141835095Y-121978057D01*
X141835095Y-121978057D02*
X141882714Y-121930438D01*
X141882714Y-121930438D02*
X141977952Y-121882819D01*
X141977952Y-121882819D02*
X142168428Y-121882819D01*
X142168428Y-121882819D02*
X142263666Y-121930438D01*
X142263666Y-121930438D02*
X142311285Y-121978057D01*
X142311285Y-121978057D02*
X142358904Y-122073295D01*
X142358904Y-122073295D02*
X142358904Y-122120914D01*
X142358904Y-122120914D02*
X142311285Y-122216152D01*
X142311285Y-122216152D02*
X142263666Y-122263771D01*
X142263666Y-122263771D02*
X142168428Y-122311390D01*
X142168428Y-122311390D02*
X141977952Y-122311390D01*
X141977952Y-122311390D02*
X141882714Y-122359009D01*
X141882714Y-122359009D02*
X141835095Y-122406628D01*
X141835095Y-122406628D02*
X141787476Y-122501866D01*
X141787476Y-122501866D02*
X141787476Y-122692342D01*
X141787476Y-122692342D02*
X141835095Y-122787580D01*
X141835095Y-122787580D02*
X141882714Y-122835200D01*
X141882714Y-122835200D02*
X141977952Y-122882819D01*
X141977952Y-122882819D02*
X142168428Y-122882819D01*
X142168428Y-122882819D02*
X142263666Y-122835200D01*
X142263666Y-122835200D02*
X142311285Y-122787580D01*
X142311285Y-122787580D02*
X142358904Y-122692342D01*
X142358904Y-122692342D02*
X142358904Y-122501866D01*
X142358904Y-122501866D02*
X142311285Y-122406628D01*
X142311285Y-122406628D02*
X142263666Y-122359009D01*
X142263666Y-122359009D02*
X142168428Y-122311390D01*
X145280142Y-126978580D02*
X145232523Y-127026200D01*
X145232523Y-127026200D02*
X145089666Y-127073819D01*
X145089666Y-127073819D02*
X144994428Y-127073819D01*
X144994428Y-127073819D02*
X144851571Y-127026200D01*
X144851571Y-127026200D02*
X144756333Y-126930961D01*
X144756333Y-126930961D02*
X144708714Y-126835723D01*
X144708714Y-126835723D02*
X144661095Y-126645247D01*
X144661095Y-126645247D02*
X144661095Y-126502390D01*
X144661095Y-126502390D02*
X144708714Y-126311914D01*
X144708714Y-126311914D02*
X144756333Y-126216676D01*
X144756333Y-126216676D02*
X144851571Y-126121438D01*
X144851571Y-126121438D02*
X144994428Y-126073819D01*
X144994428Y-126073819D02*
X145089666Y-126073819D01*
X145089666Y-126073819D02*
X145232523Y-126121438D01*
X145232523Y-126121438D02*
X145280142Y-126169057D01*
X145613476Y-126073819D02*
X146232523Y-126073819D01*
X146232523Y-126073819D02*
X145899190Y-126454771D01*
X145899190Y-126454771D02*
X146042047Y-126454771D01*
X146042047Y-126454771D02*
X146137285Y-126502390D01*
X146137285Y-126502390D02*
X146184904Y-126550009D01*
X146184904Y-126550009D02*
X146232523Y-126645247D01*
X146232523Y-126645247D02*
X146232523Y-126883342D01*
X146232523Y-126883342D02*
X146184904Y-126978580D01*
X146184904Y-126978580D02*
X146137285Y-127026200D01*
X146137285Y-127026200D02*
X146042047Y-127073819D01*
X146042047Y-127073819D02*
X145756333Y-127073819D01*
X145756333Y-127073819D02*
X145661095Y-127026200D01*
X145661095Y-127026200D02*
X145613476Y-126978580D01*
X147184904Y-127073819D02*
X146613476Y-127073819D01*
X146899190Y-127073819D02*
X146899190Y-126073819D01*
X146899190Y-126073819D02*
X146803952Y-126216676D01*
X146803952Y-126216676D02*
X146708714Y-126311914D01*
X146708714Y-126311914D02*
X146613476Y-126359533D01*
X153757333Y-95449580D02*
X153709714Y-95497200D01*
X153709714Y-95497200D02*
X153566857Y-95544819D01*
X153566857Y-95544819D02*
X153471619Y-95544819D01*
X153471619Y-95544819D02*
X153328762Y-95497200D01*
X153328762Y-95497200D02*
X153233524Y-95401961D01*
X153233524Y-95401961D02*
X153185905Y-95306723D01*
X153185905Y-95306723D02*
X153138286Y-95116247D01*
X153138286Y-95116247D02*
X153138286Y-94973390D01*
X153138286Y-94973390D02*
X153185905Y-94782914D01*
X153185905Y-94782914D02*
X153233524Y-94687676D01*
X153233524Y-94687676D02*
X153328762Y-94592438D01*
X153328762Y-94592438D02*
X153471619Y-94544819D01*
X153471619Y-94544819D02*
X153566857Y-94544819D01*
X153566857Y-94544819D02*
X153709714Y-94592438D01*
X153709714Y-94592438D02*
X153757333Y-94640057D01*
X154233524Y-95544819D02*
X154424000Y-95544819D01*
X154424000Y-95544819D02*
X154519238Y-95497200D01*
X154519238Y-95497200D02*
X154566857Y-95449580D01*
X154566857Y-95449580D02*
X154662095Y-95306723D01*
X154662095Y-95306723D02*
X154709714Y-95116247D01*
X154709714Y-95116247D02*
X154709714Y-94735295D01*
X154709714Y-94735295D02*
X154662095Y-94640057D01*
X154662095Y-94640057D02*
X154614476Y-94592438D01*
X154614476Y-94592438D02*
X154519238Y-94544819D01*
X154519238Y-94544819D02*
X154328762Y-94544819D01*
X154328762Y-94544819D02*
X154233524Y-94592438D01*
X154233524Y-94592438D02*
X154185905Y-94640057D01*
X154185905Y-94640057D02*
X154138286Y-94735295D01*
X154138286Y-94735295D02*
X154138286Y-94973390D01*
X154138286Y-94973390D02*
X154185905Y-95068628D01*
X154185905Y-95068628D02*
X154233524Y-95116247D01*
X154233524Y-95116247D02*
X154328762Y-95163866D01*
X154328762Y-95163866D02*
X154519238Y-95163866D01*
X154519238Y-95163866D02*
X154614476Y-95116247D01*
X154614476Y-95116247D02*
X154662095Y-95068628D01*
X154662095Y-95068628D02*
X154709714Y-94973390D01*
X143742580Y-114339666D02*
X143790200Y-114387285D01*
X143790200Y-114387285D02*
X143837819Y-114530142D01*
X143837819Y-114530142D02*
X143837819Y-114625380D01*
X143837819Y-114625380D02*
X143790200Y-114768237D01*
X143790200Y-114768237D02*
X143694961Y-114863475D01*
X143694961Y-114863475D02*
X143599723Y-114911094D01*
X143599723Y-114911094D02*
X143409247Y-114958713D01*
X143409247Y-114958713D02*
X143266390Y-114958713D01*
X143266390Y-114958713D02*
X143075914Y-114911094D01*
X143075914Y-114911094D02*
X142980676Y-114863475D01*
X142980676Y-114863475D02*
X142885438Y-114768237D01*
X142885438Y-114768237D02*
X142837819Y-114625380D01*
X142837819Y-114625380D02*
X142837819Y-114530142D01*
X142837819Y-114530142D02*
X142885438Y-114387285D01*
X142885438Y-114387285D02*
X142933057Y-114339666D01*
X142837819Y-114006332D02*
X142837819Y-113339666D01*
X142837819Y-113339666D02*
X143837819Y-113768237D01*
X140662819Y-117863857D02*
X140186628Y-118197190D01*
X140662819Y-118435285D02*
X139662819Y-118435285D01*
X139662819Y-118435285D02*
X139662819Y-118054333D01*
X139662819Y-118054333D02*
X139710438Y-117959095D01*
X139710438Y-117959095D02*
X139758057Y-117911476D01*
X139758057Y-117911476D02*
X139853295Y-117863857D01*
X139853295Y-117863857D02*
X139996152Y-117863857D01*
X139996152Y-117863857D02*
X140091390Y-117911476D01*
X140091390Y-117911476D02*
X140139009Y-117959095D01*
X140139009Y-117959095D02*
X140186628Y-118054333D01*
X140186628Y-118054333D02*
X140186628Y-118435285D01*
X139758057Y-117482904D02*
X139710438Y-117435285D01*
X139710438Y-117435285D02*
X139662819Y-117340047D01*
X139662819Y-117340047D02*
X139662819Y-117101952D01*
X139662819Y-117101952D02*
X139710438Y-117006714D01*
X139710438Y-117006714D02*
X139758057Y-116959095D01*
X139758057Y-116959095D02*
X139853295Y-116911476D01*
X139853295Y-116911476D02*
X139948533Y-116911476D01*
X139948533Y-116911476D02*
X140091390Y-116959095D01*
X140091390Y-116959095D02*
X140662819Y-117530523D01*
X140662819Y-117530523D02*
X140662819Y-116911476D01*
X139662819Y-116292428D02*
X139662819Y-116197190D01*
X139662819Y-116197190D02*
X139710438Y-116101952D01*
X139710438Y-116101952D02*
X139758057Y-116054333D01*
X139758057Y-116054333D02*
X139853295Y-116006714D01*
X139853295Y-116006714D02*
X140043771Y-115959095D01*
X140043771Y-115959095D02*
X140281866Y-115959095D01*
X140281866Y-115959095D02*
X140472342Y-116006714D01*
X140472342Y-116006714D02*
X140567580Y-116054333D01*
X140567580Y-116054333D02*
X140615200Y-116101952D01*
X140615200Y-116101952D02*
X140662819Y-116197190D01*
X140662819Y-116197190D02*
X140662819Y-116292428D01*
X140662819Y-116292428D02*
X140615200Y-116387666D01*
X140615200Y-116387666D02*
X140567580Y-116435285D01*
X140567580Y-116435285D02*
X140472342Y-116482904D01*
X140472342Y-116482904D02*
X140281866Y-116530523D01*
X140281866Y-116530523D02*
X140043771Y-116530523D01*
X140043771Y-116530523D02*
X139853295Y-116482904D01*
X139853295Y-116482904D02*
X139758057Y-116435285D01*
X139758057Y-116435285D02*
X139710438Y-116387666D01*
X139710438Y-116387666D02*
X139662819Y-116292428D01*
X137287095Y-126581819D02*
X137287095Y-127391342D01*
X137287095Y-127391342D02*
X137334714Y-127486580D01*
X137334714Y-127486580D02*
X137382333Y-127534200D01*
X137382333Y-127534200D02*
X137477571Y-127581819D01*
X137477571Y-127581819D02*
X137668047Y-127581819D01*
X137668047Y-127581819D02*
X137763285Y-127534200D01*
X137763285Y-127534200D02*
X137810904Y-127486580D01*
X137810904Y-127486580D02*
X137858523Y-127391342D01*
X137858523Y-127391342D02*
X137858523Y-126581819D01*
X138477571Y-127010390D02*
X138382333Y-126962771D01*
X138382333Y-126962771D02*
X138334714Y-126915152D01*
X138334714Y-126915152D02*
X138287095Y-126819914D01*
X138287095Y-126819914D02*
X138287095Y-126772295D01*
X138287095Y-126772295D02*
X138334714Y-126677057D01*
X138334714Y-126677057D02*
X138382333Y-126629438D01*
X138382333Y-126629438D02*
X138477571Y-126581819D01*
X138477571Y-126581819D02*
X138668047Y-126581819D01*
X138668047Y-126581819D02*
X138763285Y-126629438D01*
X138763285Y-126629438D02*
X138810904Y-126677057D01*
X138810904Y-126677057D02*
X138858523Y-126772295D01*
X138858523Y-126772295D02*
X138858523Y-126819914D01*
X138858523Y-126819914D02*
X138810904Y-126915152D01*
X138810904Y-126915152D02*
X138763285Y-126962771D01*
X138763285Y-126962771D02*
X138668047Y-127010390D01*
X138668047Y-127010390D02*
X138477571Y-127010390D01*
X138477571Y-127010390D02*
X138382333Y-127058009D01*
X138382333Y-127058009D02*
X138334714Y-127105628D01*
X138334714Y-127105628D02*
X138287095Y-127200866D01*
X138287095Y-127200866D02*
X138287095Y-127391342D01*
X138287095Y-127391342D02*
X138334714Y-127486580D01*
X138334714Y-127486580D02*
X138382333Y-127534200D01*
X138382333Y-127534200D02*
X138477571Y-127581819D01*
X138477571Y-127581819D02*
X138668047Y-127581819D01*
X138668047Y-127581819D02*
X138763285Y-127534200D01*
X138763285Y-127534200D02*
X138810904Y-127486580D01*
X138810904Y-127486580D02*
X138858523Y-127391342D01*
X138858523Y-127391342D02*
X138858523Y-127200866D01*
X138858523Y-127200866D02*
X138810904Y-127105628D01*
X138810904Y-127105628D02*
X138763285Y-127058009D01*
X138763285Y-127058009D02*
X138668047Y-127010390D01*
X139011819Y-117863857D02*
X138535628Y-118197190D01*
X139011819Y-118435285D02*
X138011819Y-118435285D01*
X138011819Y-118435285D02*
X138011819Y-118054333D01*
X138011819Y-118054333D02*
X138059438Y-117959095D01*
X138059438Y-117959095D02*
X138107057Y-117911476D01*
X138107057Y-117911476D02*
X138202295Y-117863857D01*
X138202295Y-117863857D02*
X138345152Y-117863857D01*
X138345152Y-117863857D02*
X138440390Y-117911476D01*
X138440390Y-117911476D02*
X138488009Y-117959095D01*
X138488009Y-117959095D02*
X138535628Y-118054333D01*
X138535628Y-118054333D02*
X138535628Y-118435285D01*
X138107057Y-117482904D02*
X138059438Y-117435285D01*
X138059438Y-117435285D02*
X138011819Y-117340047D01*
X138011819Y-117340047D02*
X138011819Y-117101952D01*
X138011819Y-117101952D02*
X138059438Y-117006714D01*
X138059438Y-117006714D02*
X138107057Y-116959095D01*
X138107057Y-116959095D02*
X138202295Y-116911476D01*
X138202295Y-116911476D02*
X138297533Y-116911476D01*
X138297533Y-116911476D02*
X138440390Y-116959095D01*
X138440390Y-116959095D02*
X139011819Y-117530523D01*
X139011819Y-117530523D02*
X139011819Y-116911476D01*
X139011819Y-115959095D02*
X139011819Y-116530523D01*
X139011819Y-116244809D02*
X138011819Y-116244809D01*
X138011819Y-116244809D02*
X138154676Y-116340047D01*
X138154676Y-116340047D02*
X138249914Y-116435285D01*
X138249914Y-116435285D02*
X138297533Y-116530523D01*
X157186333Y-113803580D02*
X157138714Y-113851200D01*
X157138714Y-113851200D02*
X156995857Y-113898819D01*
X156995857Y-113898819D02*
X156900619Y-113898819D01*
X156900619Y-113898819D02*
X156757762Y-113851200D01*
X156757762Y-113851200D02*
X156662524Y-113755961D01*
X156662524Y-113755961D02*
X156614905Y-113660723D01*
X156614905Y-113660723D02*
X156567286Y-113470247D01*
X156567286Y-113470247D02*
X156567286Y-113327390D01*
X156567286Y-113327390D02*
X156614905Y-113136914D01*
X156614905Y-113136914D02*
X156662524Y-113041676D01*
X156662524Y-113041676D02*
X156757762Y-112946438D01*
X156757762Y-112946438D02*
X156900619Y-112898819D01*
X156900619Y-112898819D02*
X156995857Y-112898819D01*
X156995857Y-112898819D02*
X157138714Y-112946438D01*
X157138714Y-112946438D02*
X157186333Y-112994057D01*
X157757762Y-113327390D02*
X157662524Y-113279771D01*
X157662524Y-113279771D02*
X157614905Y-113232152D01*
X157614905Y-113232152D02*
X157567286Y-113136914D01*
X157567286Y-113136914D02*
X157567286Y-113089295D01*
X157567286Y-113089295D02*
X157614905Y-112994057D01*
X157614905Y-112994057D02*
X157662524Y-112946438D01*
X157662524Y-112946438D02*
X157757762Y-112898819D01*
X157757762Y-112898819D02*
X157948238Y-112898819D01*
X157948238Y-112898819D02*
X158043476Y-112946438D01*
X158043476Y-112946438D02*
X158091095Y-112994057D01*
X158091095Y-112994057D02*
X158138714Y-113089295D01*
X158138714Y-113089295D02*
X158138714Y-113136914D01*
X158138714Y-113136914D02*
X158091095Y-113232152D01*
X158091095Y-113232152D02*
X158043476Y-113279771D01*
X158043476Y-113279771D02*
X157948238Y-113327390D01*
X157948238Y-113327390D02*
X157757762Y-113327390D01*
X157757762Y-113327390D02*
X157662524Y-113375009D01*
X157662524Y-113375009D02*
X157614905Y-113422628D01*
X157614905Y-113422628D02*
X157567286Y-113517866D01*
X157567286Y-113517866D02*
X157567286Y-113708342D01*
X157567286Y-113708342D02*
X157614905Y-113803580D01*
X157614905Y-113803580D02*
X157662524Y-113851200D01*
X157662524Y-113851200D02*
X157757762Y-113898819D01*
X157757762Y-113898819D02*
X157948238Y-113898819D01*
X157948238Y-113898819D02*
X158043476Y-113851200D01*
X158043476Y-113851200D02*
X158091095Y-113803580D01*
X158091095Y-113803580D02*
X158138714Y-113708342D01*
X158138714Y-113708342D02*
X158138714Y-113517866D01*
X158138714Y-113517866D02*
X158091095Y-113422628D01*
X158091095Y-113422628D02*
X158043476Y-113375009D01*
X158043476Y-113375009D02*
X157948238Y-113327390D01*
X137501333Y-93958580D02*
X137453714Y-94006200D01*
X137453714Y-94006200D02*
X137310857Y-94053819D01*
X137310857Y-94053819D02*
X137215619Y-94053819D01*
X137215619Y-94053819D02*
X137072762Y-94006200D01*
X137072762Y-94006200D02*
X136977524Y-93910961D01*
X136977524Y-93910961D02*
X136929905Y-93815723D01*
X136929905Y-93815723D02*
X136882286Y-93625247D01*
X136882286Y-93625247D02*
X136882286Y-93482390D01*
X136882286Y-93482390D02*
X136929905Y-93291914D01*
X136929905Y-93291914D02*
X136977524Y-93196676D01*
X136977524Y-93196676D02*
X137072762Y-93101438D01*
X137072762Y-93101438D02*
X137215619Y-93053819D01*
X137215619Y-93053819D02*
X137310857Y-93053819D01*
X137310857Y-93053819D02*
X137453714Y-93101438D01*
X137453714Y-93101438D02*
X137501333Y-93149057D01*
X138453714Y-94053819D02*
X137882286Y-94053819D01*
X138168000Y-94053819D02*
X138168000Y-93053819D01*
X138168000Y-93053819D02*
X138072762Y-93196676D01*
X138072762Y-93196676D02*
X137977524Y-93291914D01*
X137977524Y-93291914D02*
X137882286Y-93339533D01*
X142059819Y-135262857D02*
X141583628Y-135596190D01*
X142059819Y-135834285D02*
X141059819Y-135834285D01*
X141059819Y-135834285D02*
X141059819Y-135453333D01*
X141059819Y-135453333D02*
X141107438Y-135358095D01*
X141107438Y-135358095D02*
X141155057Y-135310476D01*
X141155057Y-135310476D02*
X141250295Y-135262857D01*
X141250295Y-135262857D02*
X141393152Y-135262857D01*
X141393152Y-135262857D02*
X141488390Y-135310476D01*
X141488390Y-135310476D02*
X141536009Y-135358095D01*
X141536009Y-135358095D02*
X141583628Y-135453333D01*
X141583628Y-135453333D02*
X141583628Y-135834285D01*
X141155057Y-134881904D02*
X141107438Y-134834285D01*
X141107438Y-134834285D02*
X141059819Y-134739047D01*
X141059819Y-134739047D02*
X141059819Y-134500952D01*
X141059819Y-134500952D02*
X141107438Y-134405714D01*
X141107438Y-134405714D02*
X141155057Y-134358095D01*
X141155057Y-134358095D02*
X141250295Y-134310476D01*
X141250295Y-134310476D02*
X141345533Y-134310476D01*
X141345533Y-134310476D02*
X141488390Y-134358095D01*
X141488390Y-134358095D02*
X142059819Y-134929523D01*
X142059819Y-134929523D02*
X142059819Y-134310476D01*
X141059819Y-133405714D02*
X141059819Y-133881904D01*
X141059819Y-133881904D02*
X141536009Y-133929523D01*
X141536009Y-133929523D02*
X141488390Y-133881904D01*
X141488390Y-133881904D02*
X141440771Y-133786666D01*
X141440771Y-133786666D02*
X141440771Y-133548571D01*
X141440771Y-133548571D02*
X141488390Y-133453333D01*
X141488390Y-133453333D02*
X141536009Y-133405714D01*
X141536009Y-133405714D02*
X141631247Y-133358095D01*
X141631247Y-133358095D02*
X141869342Y-133358095D01*
X141869342Y-133358095D02*
X141964580Y-133405714D01*
X141964580Y-133405714D02*
X142012200Y-133453333D01*
X142012200Y-133453333D02*
X142059819Y-133548571D01*
X142059819Y-133548571D02*
X142059819Y-133786666D01*
X142059819Y-133786666D02*
X142012200Y-133881904D01*
X142012200Y-133881904D02*
X141964580Y-133929523D01*
X138978819Y-135135857D02*
X138502628Y-135469190D01*
X138978819Y-135707285D02*
X137978819Y-135707285D01*
X137978819Y-135707285D02*
X137978819Y-135326333D01*
X137978819Y-135326333D02*
X138026438Y-135231095D01*
X138026438Y-135231095D02*
X138074057Y-135183476D01*
X138074057Y-135183476D02*
X138169295Y-135135857D01*
X138169295Y-135135857D02*
X138312152Y-135135857D01*
X138312152Y-135135857D02*
X138407390Y-135183476D01*
X138407390Y-135183476D02*
X138455009Y-135231095D01*
X138455009Y-135231095D02*
X138502628Y-135326333D01*
X138502628Y-135326333D02*
X138502628Y-135707285D01*
X138074057Y-134754904D02*
X138026438Y-134707285D01*
X138026438Y-134707285D02*
X137978819Y-134612047D01*
X137978819Y-134612047D02*
X137978819Y-134373952D01*
X137978819Y-134373952D02*
X138026438Y-134278714D01*
X138026438Y-134278714D02*
X138074057Y-134231095D01*
X138074057Y-134231095D02*
X138169295Y-134183476D01*
X138169295Y-134183476D02*
X138264533Y-134183476D01*
X138264533Y-134183476D02*
X138407390Y-134231095D01*
X138407390Y-134231095D02*
X138978819Y-134802523D01*
X138978819Y-134802523D02*
X138978819Y-134183476D01*
X137978819Y-133850142D02*
X137978819Y-133231095D01*
X137978819Y-133231095D02*
X138359771Y-133564428D01*
X138359771Y-133564428D02*
X138359771Y-133421571D01*
X138359771Y-133421571D02*
X138407390Y-133326333D01*
X138407390Y-133326333D02*
X138455009Y-133278714D01*
X138455009Y-133278714D02*
X138550247Y-133231095D01*
X138550247Y-133231095D02*
X138788342Y-133231095D01*
X138788342Y-133231095D02*
X138883580Y-133278714D01*
X138883580Y-133278714D02*
X138931200Y-133326333D01*
X138931200Y-133326333D02*
X138978819Y-133421571D01*
X138978819Y-133421571D02*
X138978819Y-133707285D01*
X138978819Y-133707285D02*
X138931200Y-133802523D01*
X138931200Y-133802523D02*
X138883580Y-133850142D01*
X143361580Y-135262857D02*
X143409200Y-135310476D01*
X143409200Y-135310476D02*
X143456819Y-135453333D01*
X143456819Y-135453333D02*
X143456819Y-135548571D01*
X143456819Y-135548571D02*
X143409200Y-135691428D01*
X143409200Y-135691428D02*
X143313961Y-135786666D01*
X143313961Y-135786666D02*
X143218723Y-135834285D01*
X143218723Y-135834285D02*
X143028247Y-135881904D01*
X143028247Y-135881904D02*
X142885390Y-135881904D01*
X142885390Y-135881904D02*
X142694914Y-135834285D01*
X142694914Y-135834285D02*
X142599676Y-135786666D01*
X142599676Y-135786666D02*
X142504438Y-135691428D01*
X142504438Y-135691428D02*
X142456819Y-135548571D01*
X142456819Y-135548571D02*
X142456819Y-135453333D01*
X142456819Y-135453333D02*
X142504438Y-135310476D01*
X142504438Y-135310476D02*
X142552057Y-135262857D01*
X142456819Y-134929523D02*
X142456819Y-134310476D01*
X142456819Y-134310476D02*
X142837771Y-134643809D01*
X142837771Y-134643809D02*
X142837771Y-134500952D01*
X142837771Y-134500952D02*
X142885390Y-134405714D01*
X142885390Y-134405714D02*
X142933009Y-134358095D01*
X142933009Y-134358095D02*
X143028247Y-134310476D01*
X143028247Y-134310476D02*
X143266342Y-134310476D01*
X143266342Y-134310476D02*
X143361580Y-134358095D01*
X143361580Y-134358095D02*
X143409200Y-134405714D01*
X143409200Y-134405714D02*
X143456819Y-134500952D01*
X143456819Y-134500952D02*
X143456819Y-134786666D01*
X143456819Y-134786666D02*
X143409200Y-134881904D01*
X143409200Y-134881904D02*
X143361580Y-134929523D01*
X142790152Y-133453333D02*
X143456819Y-133453333D01*
X142409200Y-133691428D02*
X143123485Y-133929523D01*
X143123485Y-133929523D02*
X143123485Y-133310476D01*
X141075580Y-100591857D02*
X141123200Y-100639476D01*
X141123200Y-100639476D02*
X141170819Y-100782333D01*
X141170819Y-100782333D02*
X141170819Y-100877571D01*
X141170819Y-100877571D02*
X141123200Y-101020428D01*
X141123200Y-101020428D02*
X141027961Y-101115666D01*
X141027961Y-101115666D02*
X140932723Y-101163285D01*
X140932723Y-101163285D02*
X140742247Y-101210904D01*
X140742247Y-101210904D02*
X140599390Y-101210904D01*
X140599390Y-101210904D02*
X140408914Y-101163285D01*
X140408914Y-101163285D02*
X140313676Y-101115666D01*
X140313676Y-101115666D02*
X140218438Y-101020428D01*
X140218438Y-101020428D02*
X140170819Y-100877571D01*
X140170819Y-100877571D02*
X140170819Y-100782333D01*
X140170819Y-100782333D02*
X140218438Y-100639476D01*
X140218438Y-100639476D02*
X140266057Y-100591857D01*
X141170819Y-99639476D02*
X141170819Y-100210904D01*
X141170819Y-99925190D02*
X140170819Y-99925190D01*
X140170819Y-99925190D02*
X140313676Y-100020428D01*
X140313676Y-100020428D02*
X140408914Y-100115666D01*
X140408914Y-100115666D02*
X140456533Y-100210904D01*
X141170819Y-98687095D02*
X141170819Y-99258523D01*
X141170819Y-98972809D02*
X140170819Y-98972809D01*
X140170819Y-98972809D02*
X140313676Y-99068047D01*
X140313676Y-99068047D02*
X140408914Y-99163285D01*
X140408914Y-99163285D02*
X140456533Y-99258523D01*
X147153333Y-114024580D02*
X147105714Y-114072200D01*
X147105714Y-114072200D02*
X146962857Y-114119819D01*
X146962857Y-114119819D02*
X146867619Y-114119819D01*
X146867619Y-114119819D02*
X146724762Y-114072200D01*
X146724762Y-114072200D02*
X146629524Y-113976961D01*
X146629524Y-113976961D02*
X146581905Y-113881723D01*
X146581905Y-113881723D02*
X146534286Y-113691247D01*
X146534286Y-113691247D02*
X146534286Y-113548390D01*
X146534286Y-113548390D02*
X146581905Y-113357914D01*
X146581905Y-113357914D02*
X146629524Y-113262676D01*
X146629524Y-113262676D02*
X146724762Y-113167438D01*
X146724762Y-113167438D02*
X146867619Y-113119819D01*
X146867619Y-113119819D02*
X146962857Y-113119819D01*
X146962857Y-113119819D02*
X147105714Y-113167438D01*
X147105714Y-113167438D02*
X147153333Y-113215057D01*
X148010476Y-113119819D02*
X147820000Y-113119819D01*
X147820000Y-113119819D02*
X147724762Y-113167438D01*
X147724762Y-113167438D02*
X147677143Y-113215057D01*
X147677143Y-113215057D02*
X147581905Y-113357914D01*
X147581905Y-113357914D02*
X147534286Y-113548390D01*
X147534286Y-113548390D02*
X147534286Y-113929342D01*
X147534286Y-113929342D02*
X147581905Y-114024580D01*
X147581905Y-114024580D02*
X147629524Y-114072200D01*
X147629524Y-114072200D02*
X147724762Y-114119819D01*
X147724762Y-114119819D02*
X147915238Y-114119819D01*
X147915238Y-114119819D02*
X148010476Y-114072200D01*
X148010476Y-114072200D02*
X148058095Y-114024580D01*
X148058095Y-114024580D02*
X148105714Y-113929342D01*
X148105714Y-113929342D02*
X148105714Y-113691247D01*
X148105714Y-113691247D02*
X148058095Y-113596009D01*
X148058095Y-113596009D02*
X148010476Y-113548390D01*
X148010476Y-113548390D02*
X147915238Y-113500771D01*
X147915238Y-113500771D02*
X147724762Y-113500771D01*
X147724762Y-113500771D02*
X147629524Y-113548390D01*
X147629524Y-113548390D02*
X147581905Y-113596009D01*
X147581905Y-113596009D02*
X147534286Y-113691247D01*
X136802905Y-75638819D02*
X136802905Y-74638819D01*
X136802905Y-74638819D02*
X137041000Y-74638819D01*
X137041000Y-74638819D02*
X137183857Y-74686438D01*
X137183857Y-74686438D02*
X137279095Y-74781676D01*
X137279095Y-74781676D02*
X137326714Y-74876914D01*
X137326714Y-74876914D02*
X137374333Y-75067390D01*
X137374333Y-75067390D02*
X137374333Y-75210247D01*
X137374333Y-75210247D02*
X137326714Y-75400723D01*
X137326714Y-75400723D02*
X137279095Y-75495961D01*
X137279095Y-75495961D02*
X137183857Y-75591200D01*
X137183857Y-75591200D02*
X137041000Y-75638819D01*
X137041000Y-75638819D02*
X136802905Y-75638819D01*
X138326714Y-75638819D02*
X137755286Y-75638819D01*
X138041000Y-75638819D02*
X138041000Y-74638819D01*
X138041000Y-74638819D02*
X137945762Y-74781676D01*
X137945762Y-74781676D02*
X137850524Y-74876914D01*
X137850524Y-74876914D02*
X137755286Y-74924533D01*
X154551142Y-121390580D02*
X154503523Y-121438200D01*
X154503523Y-121438200D02*
X154360666Y-121485819D01*
X154360666Y-121485819D02*
X154265428Y-121485819D01*
X154265428Y-121485819D02*
X154122571Y-121438200D01*
X154122571Y-121438200D02*
X154027333Y-121342961D01*
X154027333Y-121342961D02*
X153979714Y-121247723D01*
X153979714Y-121247723D02*
X153932095Y-121057247D01*
X153932095Y-121057247D02*
X153932095Y-120914390D01*
X153932095Y-120914390D02*
X153979714Y-120723914D01*
X153979714Y-120723914D02*
X154027333Y-120628676D01*
X154027333Y-120628676D02*
X154122571Y-120533438D01*
X154122571Y-120533438D02*
X154265428Y-120485819D01*
X154265428Y-120485819D02*
X154360666Y-120485819D01*
X154360666Y-120485819D02*
X154503523Y-120533438D01*
X154503523Y-120533438D02*
X154551142Y-120581057D01*
X154932095Y-120581057D02*
X154979714Y-120533438D01*
X154979714Y-120533438D02*
X155074952Y-120485819D01*
X155074952Y-120485819D02*
X155313047Y-120485819D01*
X155313047Y-120485819D02*
X155408285Y-120533438D01*
X155408285Y-120533438D02*
X155455904Y-120581057D01*
X155455904Y-120581057D02*
X155503523Y-120676295D01*
X155503523Y-120676295D02*
X155503523Y-120771533D01*
X155503523Y-120771533D02*
X155455904Y-120914390D01*
X155455904Y-120914390D02*
X154884476Y-121485819D01*
X154884476Y-121485819D02*
X155503523Y-121485819D01*
X155979714Y-121485819D02*
X156170190Y-121485819D01*
X156170190Y-121485819D02*
X156265428Y-121438200D01*
X156265428Y-121438200D02*
X156313047Y-121390580D01*
X156313047Y-121390580D02*
X156408285Y-121247723D01*
X156408285Y-121247723D02*
X156455904Y-121057247D01*
X156455904Y-121057247D02*
X156455904Y-120676295D01*
X156455904Y-120676295D02*
X156408285Y-120581057D01*
X156408285Y-120581057D02*
X156360666Y-120533438D01*
X156360666Y-120533438D02*
X156265428Y-120485819D01*
X156265428Y-120485819D02*
X156074952Y-120485819D01*
X156074952Y-120485819D02*
X155979714Y-120533438D01*
X155979714Y-120533438D02*
X155932095Y-120581057D01*
X155932095Y-120581057D02*
X155884476Y-120676295D01*
X155884476Y-120676295D02*
X155884476Y-120914390D01*
X155884476Y-120914390D02*
X155932095Y-121009628D01*
X155932095Y-121009628D02*
X155979714Y-121057247D01*
X155979714Y-121057247D02*
X156074952Y-121104866D01*
X156074952Y-121104866D02*
X156265428Y-121104866D01*
X156265428Y-121104866D02*
X156360666Y-121057247D01*
X156360666Y-121057247D02*
X156408285Y-121009628D01*
X156408285Y-121009628D02*
X156455904Y-120914390D01*
X161903580Y-86621857D02*
X161951200Y-86669476D01*
X161951200Y-86669476D02*
X161998819Y-86812333D01*
X161998819Y-86812333D02*
X161998819Y-86907571D01*
X161998819Y-86907571D02*
X161951200Y-87050428D01*
X161951200Y-87050428D02*
X161855961Y-87145666D01*
X161855961Y-87145666D02*
X161760723Y-87193285D01*
X161760723Y-87193285D02*
X161570247Y-87240904D01*
X161570247Y-87240904D02*
X161427390Y-87240904D01*
X161427390Y-87240904D02*
X161236914Y-87193285D01*
X161236914Y-87193285D02*
X161141676Y-87145666D01*
X161141676Y-87145666D02*
X161046438Y-87050428D01*
X161046438Y-87050428D02*
X160998819Y-86907571D01*
X160998819Y-86907571D02*
X160998819Y-86812333D01*
X160998819Y-86812333D02*
X161046438Y-86669476D01*
X161046438Y-86669476D02*
X161094057Y-86621857D01*
X161998819Y-85669476D02*
X161998819Y-86240904D01*
X161998819Y-85955190D02*
X160998819Y-85955190D01*
X160998819Y-85955190D02*
X161141676Y-86050428D01*
X161141676Y-86050428D02*
X161236914Y-86145666D01*
X161236914Y-86145666D02*
X161284533Y-86240904D01*
X161332152Y-84812333D02*
X161998819Y-84812333D01*
X160951200Y-85050428D02*
X161665485Y-85288523D01*
X161665485Y-85288523D02*
X161665485Y-84669476D01*
X140716095Y-92926819D02*
X140716095Y-93736342D01*
X140716095Y-93736342D02*
X140763714Y-93831580D01*
X140763714Y-93831580D02*
X140811333Y-93879200D01*
X140811333Y-93879200D02*
X140906571Y-93926819D01*
X140906571Y-93926819D02*
X141097047Y-93926819D01*
X141097047Y-93926819D02*
X141192285Y-93879200D01*
X141192285Y-93879200D02*
X141239904Y-93831580D01*
X141239904Y-93831580D02*
X141287523Y-93736342D01*
X141287523Y-93736342D02*
X141287523Y-92926819D01*
X142287523Y-93926819D02*
X141716095Y-93926819D01*
X142001809Y-93926819D02*
X142001809Y-92926819D01*
X142001809Y-92926819D02*
X141906571Y-93069676D01*
X141906571Y-93069676D02*
X141811333Y-93164914D01*
X141811333Y-93164914D02*
X141716095Y-93212533D01*
X137406142Y-80083819D02*
X137072809Y-79607628D01*
X136834714Y-80083819D02*
X136834714Y-79083819D01*
X136834714Y-79083819D02*
X137215666Y-79083819D01*
X137215666Y-79083819D02*
X137310904Y-79131438D01*
X137310904Y-79131438D02*
X137358523Y-79179057D01*
X137358523Y-79179057D02*
X137406142Y-79274295D01*
X137406142Y-79274295D02*
X137406142Y-79417152D01*
X137406142Y-79417152D02*
X137358523Y-79512390D01*
X137358523Y-79512390D02*
X137310904Y-79560009D01*
X137310904Y-79560009D02*
X137215666Y-79607628D01*
X137215666Y-79607628D02*
X136834714Y-79607628D01*
X138358523Y-80083819D02*
X137787095Y-80083819D01*
X138072809Y-80083819D02*
X138072809Y-79083819D01*
X138072809Y-79083819D02*
X137977571Y-79226676D01*
X137977571Y-79226676D02*
X137882333Y-79321914D01*
X137882333Y-79321914D02*
X137787095Y-79369533D01*
X138977571Y-79083819D02*
X139072809Y-79083819D01*
X139072809Y-79083819D02*
X139168047Y-79131438D01*
X139168047Y-79131438D02*
X139215666Y-79179057D01*
X139215666Y-79179057D02*
X139263285Y-79274295D01*
X139263285Y-79274295D02*
X139310904Y-79464771D01*
X139310904Y-79464771D02*
X139310904Y-79702866D01*
X139310904Y-79702866D02*
X139263285Y-79893342D01*
X139263285Y-79893342D02*
X139215666Y-79988580D01*
X139215666Y-79988580D02*
X139168047Y-80036200D01*
X139168047Y-80036200D02*
X139072809Y-80083819D01*
X139072809Y-80083819D02*
X138977571Y-80083819D01*
X138977571Y-80083819D02*
X138882333Y-80036200D01*
X138882333Y-80036200D02*
X138834714Y-79988580D01*
X138834714Y-79988580D02*
X138787095Y-79893342D01*
X138787095Y-79893342D02*
X138739476Y-79702866D01*
X138739476Y-79702866D02*
X138739476Y-79464771D01*
X138739476Y-79464771D02*
X138787095Y-79274295D01*
X138787095Y-79274295D02*
X138834714Y-79179057D01*
X138834714Y-79179057D02*
X138882333Y-79131438D01*
X138882333Y-79131438D02*
X138977571Y-79083819D01*
X152233333Y-136090819D02*
X151900000Y-135614628D01*
X151661905Y-136090819D02*
X151661905Y-135090819D01*
X151661905Y-135090819D02*
X152042857Y-135090819D01*
X152042857Y-135090819D02*
X152138095Y-135138438D01*
X152138095Y-135138438D02*
X152185714Y-135186057D01*
X152185714Y-135186057D02*
X152233333Y-135281295D01*
X152233333Y-135281295D02*
X152233333Y-135424152D01*
X152233333Y-135424152D02*
X152185714Y-135519390D01*
X152185714Y-135519390D02*
X152138095Y-135567009D01*
X152138095Y-135567009D02*
X152042857Y-135614628D01*
X152042857Y-135614628D02*
X151661905Y-135614628D01*
X153138095Y-135090819D02*
X152661905Y-135090819D01*
X152661905Y-135090819D02*
X152614286Y-135567009D01*
X152614286Y-135567009D02*
X152661905Y-135519390D01*
X152661905Y-135519390D02*
X152757143Y-135471771D01*
X152757143Y-135471771D02*
X152995238Y-135471771D01*
X152995238Y-135471771D02*
X153090476Y-135519390D01*
X153090476Y-135519390D02*
X153138095Y-135567009D01*
X153138095Y-135567009D02*
X153185714Y-135662247D01*
X153185714Y-135662247D02*
X153185714Y-135900342D01*
X153185714Y-135900342D02*
X153138095Y-135995580D01*
X153138095Y-135995580D02*
X153090476Y-136043200D01*
X153090476Y-136043200D02*
X152995238Y-136090819D01*
X152995238Y-136090819D02*
X152757143Y-136090819D01*
X152757143Y-136090819D02*
X152661905Y-136043200D01*
X152661905Y-136043200D02*
X152614286Y-135995580D01*
X158870330Y-134857857D02*
X158917950Y-134905476D01*
X158917950Y-134905476D02*
X158965569Y-135048333D01*
X158965569Y-135048333D02*
X158965569Y-135143571D01*
X158965569Y-135143571D02*
X158917950Y-135286428D01*
X158917950Y-135286428D02*
X158822711Y-135381666D01*
X158822711Y-135381666D02*
X158727473Y-135429285D01*
X158727473Y-135429285D02*
X158536997Y-135476904D01*
X158536997Y-135476904D02*
X158394140Y-135476904D01*
X158394140Y-135476904D02*
X158203664Y-135429285D01*
X158203664Y-135429285D02*
X158108426Y-135381666D01*
X158108426Y-135381666D02*
X158013188Y-135286428D01*
X158013188Y-135286428D02*
X157965569Y-135143571D01*
X157965569Y-135143571D02*
X157965569Y-135048333D01*
X157965569Y-135048333D02*
X158013188Y-134905476D01*
X158013188Y-134905476D02*
X158060807Y-134857857D01*
X158060807Y-134476904D02*
X158013188Y-134429285D01*
X158013188Y-134429285D02*
X157965569Y-134334047D01*
X157965569Y-134334047D02*
X157965569Y-134095952D01*
X157965569Y-134095952D02*
X158013188Y-134000714D01*
X158013188Y-134000714D02*
X158060807Y-133953095D01*
X158060807Y-133953095D02*
X158156045Y-133905476D01*
X158156045Y-133905476D02*
X158251283Y-133905476D01*
X158251283Y-133905476D02*
X158394140Y-133953095D01*
X158394140Y-133953095D02*
X158965569Y-134524523D01*
X158965569Y-134524523D02*
X158965569Y-133905476D01*
X158965569Y-132953095D02*
X158965569Y-133524523D01*
X158965569Y-133238809D02*
X157965569Y-133238809D01*
X157965569Y-133238809D02*
X158108426Y-133334047D01*
X158108426Y-133334047D02*
X158203664Y-133429285D01*
X158203664Y-133429285D02*
X158251283Y-133524523D01*
X141025666Y-105849009D02*
X140692333Y-105849009D01*
X140692333Y-106372819D02*
X140692333Y-105372819D01*
X140692333Y-105372819D02*
X141168523Y-105372819D01*
X141882809Y-105849009D02*
X142025666Y-105896628D01*
X142025666Y-105896628D02*
X142073285Y-105944247D01*
X142073285Y-105944247D02*
X142120904Y-106039485D01*
X142120904Y-106039485D02*
X142120904Y-106182342D01*
X142120904Y-106182342D02*
X142073285Y-106277580D01*
X142073285Y-106277580D02*
X142025666Y-106325200D01*
X142025666Y-106325200D02*
X141930428Y-106372819D01*
X141930428Y-106372819D02*
X141549476Y-106372819D01*
X141549476Y-106372819D02*
X141549476Y-105372819D01*
X141549476Y-105372819D02*
X141882809Y-105372819D01*
X141882809Y-105372819D02*
X141978047Y-105420438D01*
X141978047Y-105420438D02*
X142025666Y-105468057D01*
X142025666Y-105468057D02*
X142073285Y-105563295D01*
X142073285Y-105563295D02*
X142073285Y-105658533D01*
X142073285Y-105658533D02*
X142025666Y-105753771D01*
X142025666Y-105753771D02*
X141978047Y-105801390D01*
X141978047Y-105801390D02*
X141882809Y-105849009D01*
X141882809Y-105849009D02*
X141549476Y-105849009D01*
X143073285Y-106372819D02*
X142501857Y-106372819D01*
X142787571Y-106372819D02*
X142787571Y-105372819D01*
X142787571Y-105372819D02*
X142692333Y-105515676D01*
X142692333Y-105515676D02*
X142597095Y-105610914D01*
X142597095Y-105610914D02*
X142501857Y-105658533D01*
X158234142Y-128629580D02*
X158186523Y-128677200D01*
X158186523Y-128677200D02*
X158043666Y-128724819D01*
X158043666Y-128724819D02*
X157948428Y-128724819D01*
X157948428Y-128724819D02*
X157805571Y-128677200D01*
X157805571Y-128677200D02*
X157710333Y-128581961D01*
X157710333Y-128581961D02*
X157662714Y-128486723D01*
X157662714Y-128486723D02*
X157615095Y-128296247D01*
X157615095Y-128296247D02*
X157615095Y-128153390D01*
X157615095Y-128153390D02*
X157662714Y-127962914D01*
X157662714Y-127962914D02*
X157710333Y-127867676D01*
X157710333Y-127867676D02*
X157805571Y-127772438D01*
X157805571Y-127772438D02*
X157948428Y-127724819D01*
X157948428Y-127724819D02*
X158043666Y-127724819D01*
X158043666Y-127724819D02*
X158186523Y-127772438D01*
X158186523Y-127772438D02*
X158234142Y-127820057D01*
X158615095Y-127820057D02*
X158662714Y-127772438D01*
X158662714Y-127772438D02*
X158757952Y-127724819D01*
X158757952Y-127724819D02*
X158996047Y-127724819D01*
X158996047Y-127724819D02*
X159091285Y-127772438D01*
X159091285Y-127772438D02*
X159138904Y-127820057D01*
X159138904Y-127820057D02*
X159186523Y-127915295D01*
X159186523Y-127915295D02*
X159186523Y-128010533D01*
X159186523Y-128010533D02*
X159138904Y-128153390D01*
X159138904Y-128153390D02*
X158567476Y-128724819D01*
X158567476Y-128724819D02*
X159186523Y-128724819D01*
X159519857Y-127724819D02*
X160138904Y-127724819D01*
X160138904Y-127724819D02*
X159805571Y-128105771D01*
X159805571Y-128105771D02*
X159948428Y-128105771D01*
X159948428Y-128105771D02*
X160043666Y-128153390D01*
X160043666Y-128153390D02*
X160091285Y-128201009D01*
X160091285Y-128201009D02*
X160138904Y-128296247D01*
X160138904Y-128296247D02*
X160138904Y-128534342D01*
X160138904Y-128534342D02*
X160091285Y-128629580D01*
X160091285Y-128629580D02*
X160043666Y-128677200D01*
X160043666Y-128677200D02*
X159948428Y-128724819D01*
X159948428Y-128724819D02*
X159662714Y-128724819D01*
X159662714Y-128724819D02*
X159567476Y-128677200D01*
X159567476Y-128677200D02*
X159519857Y-128629580D01*
D11*
X145232095Y-60298419D02*
X145232095Y-61107942D01*
X145232095Y-61107942D02*
X145279714Y-61203180D01*
X145279714Y-61203180D02*
X145327333Y-61250800D01*
X145327333Y-61250800D02*
X145422571Y-61298419D01*
X145422571Y-61298419D02*
X145613047Y-61298419D01*
X145613047Y-61298419D02*
X145708285Y-61250800D01*
X145708285Y-61250800D02*
X145755904Y-61203180D01*
X145755904Y-61203180D02*
X145803523Y-61107942D01*
X145803523Y-61107942D02*
X145803523Y-60298419D01*
X146755904Y-60298419D02*
X146279714Y-60298419D01*
X146279714Y-60298419D02*
X146232095Y-60774609D01*
X146232095Y-60774609D02*
X146279714Y-60726990D01*
X146279714Y-60726990D02*
X146374952Y-60679371D01*
X146374952Y-60679371D02*
X146613047Y-60679371D01*
X146613047Y-60679371D02*
X146708285Y-60726990D01*
X146708285Y-60726990D02*
X146755904Y-60774609D01*
X146755904Y-60774609D02*
X146803523Y-60869847D01*
X146803523Y-60869847D02*
X146803523Y-61107942D01*
X146803523Y-61107942D02*
X146755904Y-61203180D01*
X146755904Y-61203180D02*
X146708285Y-61250800D01*
X146708285Y-61250800D02*
X146613047Y-61298419D01*
X146613047Y-61298419D02*
X146374952Y-61298419D01*
X146374952Y-61298419D02*
X146279714Y-61250800D01*
X146279714Y-61250800D02*
X146232095Y-61203180D01*
D10*
X144994333Y-110849580D02*
X144946714Y-110897200D01*
X144946714Y-110897200D02*
X144803857Y-110944819D01*
X144803857Y-110944819D02*
X144708619Y-110944819D01*
X144708619Y-110944819D02*
X144565762Y-110897200D01*
X144565762Y-110897200D02*
X144470524Y-110801961D01*
X144470524Y-110801961D02*
X144422905Y-110706723D01*
X144422905Y-110706723D02*
X144375286Y-110516247D01*
X144375286Y-110516247D02*
X144375286Y-110373390D01*
X144375286Y-110373390D02*
X144422905Y-110182914D01*
X144422905Y-110182914D02*
X144470524Y-110087676D01*
X144470524Y-110087676D02*
X144565762Y-109992438D01*
X144565762Y-109992438D02*
X144708619Y-109944819D01*
X144708619Y-109944819D02*
X144803857Y-109944819D01*
X144803857Y-109944819D02*
X144946714Y-109992438D01*
X144946714Y-109992438D02*
X144994333Y-110040057D01*
X145899095Y-109944819D02*
X145422905Y-109944819D01*
X145422905Y-109944819D02*
X145375286Y-110421009D01*
X145375286Y-110421009D02*
X145422905Y-110373390D01*
X145422905Y-110373390D02*
X145518143Y-110325771D01*
X145518143Y-110325771D02*
X145756238Y-110325771D01*
X145756238Y-110325771D02*
X145851476Y-110373390D01*
X145851476Y-110373390D02*
X145899095Y-110421009D01*
X145899095Y-110421009D02*
X145946714Y-110516247D01*
X145946714Y-110516247D02*
X145946714Y-110754342D01*
X145946714Y-110754342D02*
X145899095Y-110849580D01*
X145899095Y-110849580D02*
X145851476Y-110897200D01*
X145851476Y-110897200D02*
X145756238Y-110944819D01*
X145756238Y-110944819D02*
X145518143Y-110944819D01*
X145518143Y-110944819D02*
X145422905Y-110897200D01*
X145422905Y-110897200D02*
X145375286Y-110849580D01*
X144369819Y-88137904D02*
X145179342Y-88137904D01*
X145179342Y-88137904D02*
X145274580Y-88090285D01*
X145274580Y-88090285D02*
X145322200Y-88042666D01*
X145322200Y-88042666D02*
X145369819Y-87947428D01*
X145369819Y-87947428D02*
X145369819Y-87756952D01*
X145369819Y-87756952D02*
X145322200Y-87661714D01*
X145322200Y-87661714D02*
X145274580Y-87614095D01*
X145274580Y-87614095D02*
X145179342Y-87566476D01*
X145179342Y-87566476D02*
X144369819Y-87566476D01*
X145369819Y-87042666D02*
X145369819Y-86852190D01*
X145369819Y-86852190D02*
X145322200Y-86756952D01*
X145322200Y-86756952D02*
X145274580Y-86709333D01*
X145274580Y-86709333D02*
X145131723Y-86614095D01*
X145131723Y-86614095D02*
X144941247Y-86566476D01*
X144941247Y-86566476D02*
X144560295Y-86566476D01*
X144560295Y-86566476D02*
X144465057Y-86614095D01*
X144465057Y-86614095D02*
X144417438Y-86661714D01*
X144417438Y-86661714D02*
X144369819Y-86756952D01*
X144369819Y-86756952D02*
X144369819Y-86947428D01*
X144369819Y-86947428D02*
X144417438Y-87042666D01*
X144417438Y-87042666D02*
X144465057Y-87090285D01*
X144465057Y-87090285D02*
X144560295Y-87137904D01*
X144560295Y-87137904D02*
X144798390Y-87137904D01*
X144798390Y-87137904D02*
X144893628Y-87090285D01*
X144893628Y-87090285D02*
X144941247Y-87042666D01*
X144941247Y-87042666D02*
X144988866Y-86947428D01*
X144988866Y-86947428D02*
X144988866Y-86756952D01*
X144988866Y-86756952D02*
X144941247Y-86661714D01*
X144941247Y-86661714D02*
X144893628Y-86614095D01*
X144893628Y-86614095D02*
X144798390Y-86566476D01*
X153870819Y-117514666D02*
X153394628Y-117847999D01*
X153870819Y-118086094D02*
X152870819Y-118086094D01*
X152870819Y-118086094D02*
X152870819Y-117705142D01*
X152870819Y-117705142D02*
X152918438Y-117609904D01*
X152918438Y-117609904D02*
X152966057Y-117562285D01*
X152966057Y-117562285D02*
X153061295Y-117514666D01*
X153061295Y-117514666D02*
X153204152Y-117514666D01*
X153204152Y-117514666D02*
X153299390Y-117562285D01*
X153299390Y-117562285D02*
X153347009Y-117609904D01*
X153347009Y-117609904D02*
X153394628Y-117705142D01*
X153394628Y-117705142D02*
X153394628Y-118086094D01*
X152870819Y-117181332D02*
X152870819Y-116562285D01*
X152870819Y-116562285D02*
X153251771Y-116895618D01*
X153251771Y-116895618D02*
X153251771Y-116752761D01*
X153251771Y-116752761D02*
X153299390Y-116657523D01*
X153299390Y-116657523D02*
X153347009Y-116609904D01*
X153347009Y-116609904D02*
X153442247Y-116562285D01*
X153442247Y-116562285D02*
X153680342Y-116562285D01*
X153680342Y-116562285D02*
X153775580Y-116609904D01*
X153775580Y-116609904D02*
X153823200Y-116657523D01*
X153823200Y-116657523D02*
X153870819Y-116752761D01*
X153870819Y-116752761D02*
X153870819Y-117038475D01*
X153870819Y-117038475D02*
X153823200Y-117133713D01*
X153823200Y-117133713D02*
X153775580Y-117181332D01*
X150849753Y-96357750D02*
X150277333Y-96930170D01*
X150277333Y-96930170D02*
X150243661Y-97031185D01*
X150243661Y-97031185D02*
X150243661Y-97098529D01*
X150243661Y-97098529D02*
X150277333Y-97199544D01*
X150277333Y-97199544D02*
X150412020Y-97334231D01*
X150412020Y-97334231D02*
X150513035Y-97367903D01*
X150513035Y-97367903D02*
X150580379Y-97367903D01*
X150580379Y-97367903D02*
X150681394Y-97334231D01*
X150681394Y-97334231D02*
X151253814Y-96761811D01*
X151489516Y-97132201D02*
X151556859Y-97132201D01*
X151556859Y-97132201D02*
X151657875Y-97165872D01*
X151657875Y-97165872D02*
X151826233Y-97334231D01*
X151826233Y-97334231D02*
X151859905Y-97435246D01*
X151859905Y-97435246D02*
X151859905Y-97502590D01*
X151859905Y-97502590D02*
X151826233Y-97603605D01*
X151826233Y-97603605D02*
X151758890Y-97670949D01*
X151758890Y-97670949D02*
X151624203Y-97738292D01*
X151624203Y-97738292D02*
X150816081Y-97738292D01*
X150816081Y-97738292D02*
X151253814Y-98176025D01*
X161917142Y-131518819D02*
X161583809Y-131042628D01*
X161345714Y-131518819D02*
X161345714Y-130518819D01*
X161345714Y-130518819D02*
X161726666Y-130518819D01*
X161726666Y-130518819D02*
X161821904Y-130566438D01*
X161821904Y-130566438D02*
X161869523Y-130614057D01*
X161869523Y-130614057D02*
X161917142Y-130709295D01*
X161917142Y-130709295D02*
X161917142Y-130852152D01*
X161917142Y-130852152D02*
X161869523Y-130947390D01*
X161869523Y-130947390D02*
X161821904Y-130995009D01*
X161821904Y-130995009D02*
X161726666Y-131042628D01*
X161726666Y-131042628D02*
X161345714Y-131042628D01*
X162869523Y-131518819D02*
X162298095Y-131518819D01*
X162583809Y-131518819D02*
X162583809Y-130518819D01*
X162583809Y-130518819D02*
X162488571Y-130661676D01*
X162488571Y-130661676D02*
X162393333Y-130756914D01*
X162393333Y-130756914D02*
X162298095Y-130804533D01*
X163202857Y-130518819D02*
X163821904Y-130518819D01*
X163821904Y-130518819D02*
X163488571Y-130899771D01*
X163488571Y-130899771D02*
X163631428Y-130899771D01*
X163631428Y-130899771D02*
X163726666Y-130947390D01*
X163726666Y-130947390D02*
X163774285Y-130995009D01*
X163774285Y-130995009D02*
X163821904Y-131090247D01*
X163821904Y-131090247D02*
X163821904Y-131328342D01*
X163821904Y-131328342D02*
X163774285Y-131423580D01*
X163774285Y-131423580D02*
X163726666Y-131471200D01*
X163726666Y-131471200D02*
X163631428Y-131518819D01*
X163631428Y-131518819D02*
X163345714Y-131518819D01*
X163345714Y-131518819D02*
X163250476Y-131471200D01*
X163250476Y-131471200D02*
X163202857Y-131423580D01*
X145139580Y-100591857D02*
X145187200Y-100639476D01*
X145187200Y-100639476D02*
X145234819Y-100782333D01*
X145234819Y-100782333D02*
X145234819Y-100877571D01*
X145234819Y-100877571D02*
X145187200Y-101020428D01*
X145187200Y-101020428D02*
X145091961Y-101115666D01*
X145091961Y-101115666D02*
X144996723Y-101163285D01*
X144996723Y-101163285D02*
X144806247Y-101210904D01*
X144806247Y-101210904D02*
X144663390Y-101210904D01*
X144663390Y-101210904D02*
X144472914Y-101163285D01*
X144472914Y-101163285D02*
X144377676Y-101115666D01*
X144377676Y-101115666D02*
X144282438Y-101020428D01*
X144282438Y-101020428D02*
X144234819Y-100877571D01*
X144234819Y-100877571D02*
X144234819Y-100782333D01*
X144234819Y-100782333D02*
X144282438Y-100639476D01*
X144282438Y-100639476D02*
X144330057Y-100591857D01*
X145234819Y-99639476D02*
X145234819Y-100210904D01*
X145234819Y-99925190D02*
X144234819Y-99925190D01*
X144234819Y-99925190D02*
X144377676Y-100020428D01*
X144377676Y-100020428D02*
X144472914Y-100115666D01*
X144472914Y-100115666D02*
X144520533Y-100210904D01*
X144234819Y-99020428D02*
X144234819Y-98925190D01*
X144234819Y-98925190D02*
X144282438Y-98829952D01*
X144282438Y-98829952D02*
X144330057Y-98782333D01*
X144330057Y-98782333D02*
X144425295Y-98734714D01*
X144425295Y-98734714D02*
X144615771Y-98687095D01*
X144615771Y-98687095D02*
X144853866Y-98687095D01*
X144853866Y-98687095D02*
X145044342Y-98734714D01*
X145044342Y-98734714D02*
X145139580Y-98782333D01*
X145139580Y-98782333D02*
X145187200Y-98829952D01*
X145187200Y-98829952D02*
X145234819Y-98925190D01*
X145234819Y-98925190D02*
X145234819Y-99020428D01*
X145234819Y-99020428D02*
X145187200Y-99115666D01*
X145187200Y-99115666D02*
X145139580Y-99163285D01*
X145139580Y-99163285D02*
X145044342Y-99210904D01*
X145044342Y-99210904D02*
X144853866Y-99258523D01*
X144853866Y-99258523D02*
X144615771Y-99258523D01*
X144615771Y-99258523D02*
X144425295Y-99210904D01*
X144425295Y-99210904D02*
X144330057Y-99163285D01*
X144330057Y-99163285D02*
X144282438Y-99115666D01*
X144282438Y-99115666D02*
X144234819Y-99020428D01*
X162433095Y-88735819D02*
X162433095Y-89545342D01*
X162433095Y-89545342D02*
X162480714Y-89640580D01*
X162480714Y-89640580D02*
X162528333Y-89688200D01*
X162528333Y-89688200D02*
X162623571Y-89735819D01*
X162623571Y-89735819D02*
X162814047Y-89735819D01*
X162814047Y-89735819D02*
X162909285Y-89688200D01*
X162909285Y-89688200D02*
X162956904Y-89640580D01*
X162956904Y-89640580D02*
X163004523Y-89545342D01*
X163004523Y-89545342D02*
X163004523Y-88735819D01*
X163909285Y-89069152D02*
X163909285Y-89735819D01*
X163671190Y-88688200D02*
X163433095Y-89402485D01*
X163433095Y-89402485D02*
X164052142Y-89402485D01*
X163046580Y-94241857D02*
X163094200Y-94289476D01*
X163094200Y-94289476D02*
X163141819Y-94432333D01*
X163141819Y-94432333D02*
X163141819Y-94527571D01*
X163141819Y-94527571D02*
X163094200Y-94670428D01*
X163094200Y-94670428D02*
X162998961Y-94765666D01*
X162998961Y-94765666D02*
X162903723Y-94813285D01*
X162903723Y-94813285D02*
X162713247Y-94860904D01*
X162713247Y-94860904D02*
X162570390Y-94860904D01*
X162570390Y-94860904D02*
X162379914Y-94813285D01*
X162379914Y-94813285D02*
X162284676Y-94765666D01*
X162284676Y-94765666D02*
X162189438Y-94670428D01*
X162189438Y-94670428D02*
X162141819Y-94527571D01*
X162141819Y-94527571D02*
X162141819Y-94432333D01*
X162141819Y-94432333D02*
X162189438Y-94289476D01*
X162189438Y-94289476D02*
X162237057Y-94241857D01*
X163141819Y-93289476D02*
X163141819Y-93860904D01*
X163141819Y-93575190D02*
X162141819Y-93575190D01*
X162141819Y-93575190D02*
X162284676Y-93670428D01*
X162284676Y-93670428D02*
X162379914Y-93765666D01*
X162379914Y-93765666D02*
X162427533Y-93860904D01*
X163141819Y-92813285D02*
X163141819Y-92622809D01*
X163141819Y-92622809D02*
X163094200Y-92527571D01*
X163094200Y-92527571D02*
X163046580Y-92479952D01*
X163046580Y-92479952D02*
X162903723Y-92384714D01*
X162903723Y-92384714D02*
X162713247Y-92337095D01*
X162713247Y-92337095D02*
X162332295Y-92337095D01*
X162332295Y-92337095D02*
X162237057Y-92384714D01*
X162237057Y-92384714D02*
X162189438Y-92432333D01*
X162189438Y-92432333D02*
X162141819Y-92527571D01*
X162141819Y-92527571D02*
X162141819Y-92718047D01*
X162141819Y-92718047D02*
X162189438Y-92813285D01*
X162189438Y-92813285D02*
X162237057Y-92860904D01*
X162237057Y-92860904D02*
X162332295Y-92908523D01*
X162332295Y-92908523D02*
X162570390Y-92908523D01*
X162570390Y-92908523D02*
X162665628Y-92860904D01*
X162665628Y-92860904D02*
X162713247Y-92813285D01*
X162713247Y-92813285D02*
X162760866Y-92718047D01*
X162760866Y-92718047D02*
X162760866Y-92527571D01*
X162760866Y-92527571D02*
X162713247Y-92432333D01*
X162713247Y-92432333D02*
X162665628Y-92384714D01*
X162665628Y-92384714D02*
X162570390Y-92337095D01*
X143710819Y-125229857D02*
X143234628Y-125563190D01*
X143710819Y-125801285D02*
X142710819Y-125801285D01*
X142710819Y-125801285D02*
X142710819Y-125420333D01*
X142710819Y-125420333D02*
X142758438Y-125325095D01*
X142758438Y-125325095D02*
X142806057Y-125277476D01*
X142806057Y-125277476D02*
X142901295Y-125229857D01*
X142901295Y-125229857D02*
X143044152Y-125229857D01*
X143044152Y-125229857D02*
X143139390Y-125277476D01*
X143139390Y-125277476D02*
X143187009Y-125325095D01*
X143187009Y-125325095D02*
X143234628Y-125420333D01*
X143234628Y-125420333D02*
X143234628Y-125801285D01*
X142806057Y-124848904D02*
X142758438Y-124801285D01*
X142758438Y-124801285D02*
X142710819Y-124706047D01*
X142710819Y-124706047D02*
X142710819Y-124467952D01*
X142710819Y-124467952D02*
X142758438Y-124372714D01*
X142758438Y-124372714D02*
X142806057Y-124325095D01*
X142806057Y-124325095D02*
X142901295Y-124277476D01*
X142901295Y-124277476D02*
X142996533Y-124277476D01*
X142996533Y-124277476D02*
X143139390Y-124325095D01*
X143139390Y-124325095D02*
X143710819Y-124896523D01*
X143710819Y-124896523D02*
X143710819Y-124277476D01*
X142710819Y-123420333D02*
X142710819Y-123610809D01*
X142710819Y-123610809D02*
X142758438Y-123706047D01*
X142758438Y-123706047D02*
X142806057Y-123753666D01*
X142806057Y-123753666D02*
X142948914Y-123848904D01*
X142948914Y-123848904D02*
X143139390Y-123896523D01*
X143139390Y-123896523D02*
X143520342Y-123896523D01*
X143520342Y-123896523D02*
X143615580Y-123848904D01*
X143615580Y-123848904D02*
X143663200Y-123801285D01*
X143663200Y-123801285D02*
X143710819Y-123706047D01*
X143710819Y-123706047D02*
X143710819Y-123515571D01*
X143710819Y-123515571D02*
X143663200Y-123420333D01*
X143663200Y-123420333D02*
X143615580Y-123372714D01*
X143615580Y-123372714D02*
X143520342Y-123325095D01*
X143520342Y-123325095D02*
X143282247Y-123325095D01*
X143282247Y-123325095D02*
X143187009Y-123372714D01*
X143187009Y-123372714D02*
X143139390Y-123420333D01*
X143139390Y-123420333D02*
X143091771Y-123515571D01*
X143091771Y-123515571D02*
X143091771Y-123706047D01*
X143091771Y-123706047D02*
X143139390Y-123801285D01*
X143139390Y-123801285D02*
X143187009Y-123848904D01*
X143187009Y-123848904D02*
X143282247Y-123896523D01*
X165600142Y-127105580D02*
X165552523Y-127153200D01*
X165552523Y-127153200D02*
X165409666Y-127200819D01*
X165409666Y-127200819D02*
X165314428Y-127200819D01*
X165314428Y-127200819D02*
X165171571Y-127153200D01*
X165171571Y-127153200D02*
X165076333Y-127057961D01*
X165076333Y-127057961D02*
X165028714Y-126962723D01*
X165028714Y-126962723D02*
X164981095Y-126772247D01*
X164981095Y-126772247D02*
X164981095Y-126629390D01*
X164981095Y-126629390D02*
X165028714Y-126438914D01*
X165028714Y-126438914D02*
X165076333Y-126343676D01*
X165076333Y-126343676D02*
X165171571Y-126248438D01*
X165171571Y-126248438D02*
X165314428Y-126200819D01*
X165314428Y-126200819D02*
X165409666Y-126200819D01*
X165409666Y-126200819D02*
X165552523Y-126248438D01*
X165552523Y-126248438D02*
X165600142Y-126296057D01*
X165981095Y-126296057D02*
X166028714Y-126248438D01*
X166028714Y-126248438D02*
X166123952Y-126200819D01*
X166123952Y-126200819D02*
X166362047Y-126200819D01*
X166362047Y-126200819D02*
X166457285Y-126248438D01*
X166457285Y-126248438D02*
X166504904Y-126296057D01*
X166504904Y-126296057D02*
X166552523Y-126391295D01*
X166552523Y-126391295D02*
X166552523Y-126486533D01*
X166552523Y-126486533D02*
X166504904Y-126629390D01*
X166504904Y-126629390D02*
X165933476Y-127200819D01*
X165933476Y-127200819D02*
X166552523Y-127200819D01*
X167409666Y-126200819D02*
X167219190Y-126200819D01*
X167219190Y-126200819D02*
X167123952Y-126248438D01*
X167123952Y-126248438D02*
X167076333Y-126296057D01*
X167076333Y-126296057D02*
X166981095Y-126438914D01*
X166981095Y-126438914D02*
X166933476Y-126629390D01*
X166933476Y-126629390D02*
X166933476Y-127010342D01*
X166933476Y-127010342D02*
X166981095Y-127105580D01*
X166981095Y-127105580D02*
X167028714Y-127153200D01*
X167028714Y-127153200D02*
X167123952Y-127200819D01*
X167123952Y-127200819D02*
X167314428Y-127200819D01*
X167314428Y-127200819D02*
X167409666Y-127153200D01*
X167409666Y-127153200D02*
X167457285Y-127105580D01*
X167457285Y-127105580D02*
X167504904Y-127010342D01*
X167504904Y-127010342D02*
X167504904Y-126772247D01*
X167504904Y-126772247D02*
X167457285Y-126677009D01*
X167457285Y-126677009D02*
X167409666Y-126629390D01*
X167409666Y-126629390D02*
X167314428Y-126581771D01*
X167314428Y-126581771D02*
X167123952Y-126581771D01*
X167123952Y-126581771D02*
X167028714Y-126629390D01*
X167028714Y-126629390D02*
X166981095Y-126677009D01*
X166981095Y-126677009D02*
X166933476Y-126772247D01*
X138978819Y-138691857D02*
X138502628Y-139025190D01*
X138978819Y-139263285D02*
X137978819Y-139263285D01*
X137978819Y-139263285D02*
X137978819Y-138882333D01*
X137978819Y-138882333D02*
X138026438Y-138787095D01*
X138026438Y-138787095D02*
X138074057Y-138739476D01*
X138074057Y-138739476D02*
X138169295Y-138691857D01*
X138169295Y-138691857D02*
X138312152Y-138691857D01*
X138312152Y-138691857D02*
X138407390Y-138739476D01*
X138407390Y-138739476D02*
X138455009Y-138787095D01*
X138455009Y-138787095D02*
X138502628Y-138882333D01*
X138502628Y-138882333D02*
X138502628Y-139263285D01*
X138074057Y-138310904D02*
X138026438Y-138263285D01*
X138026438Y-138263285D02*
X137978819Y-138168047D01*
X137978819Y-138168047D02*
X137978819Y-137929952D01*
X137978819Y-137929952D02*
X138026438Y-137834714D01*
X138026438Y-137834714D02*
X138074057Y-137787095D01*
X138074057Y-137787095D02*
X138169295Y-137739476D01*
X138169295Y-137739476D02*
X138264533Y-137739476D01*
X138264533Y-137739476D02*
X138407390Y-137787095D01*
X138407390Y-137787095D02*
X138978819Y-138358523D01*
X138978819Y-138358523D02*
X138978819Y-137739476D01*
X138074057Y-137358523D02*
X138026438Y-137310904D01*
X138026438Y-137310904D02*
X137978819Y-137215666D01*
X137978819Y-137215666D02*
X137978819Y-136977571D01*
X137978819Y-136977571D02*
X138026438Y-136882333D01*
X138026438Y-136882333D02*
X138074057Y-136834714D01*
X138074057Y-136834714D02*
X138169295Y-136787095D01*
X138169295Y-136787095D02*
X138264533Y-136787095D01*
X138264533Y-136787095D02*
X138407390Y-136834714D01*
X138407390Y-136834714D02*
X138978819Y-137406142D01*
X138978819Y-137406142D02*
X138978819Y-136787095D01*
X156283819Y-92209857D02*
X155807628Y-92543190D01*
X156283819Y-92781285D02*
X155283819Y-92781285D01*
X155283819Y-92781285D02*
X155283819Y-92400333D01*
X155283819Y-92400333D02*
X155331438Y-92305095D01*
X155331438Y-92305095D02*
X155379057Y-92257476D01*
X155379057Y-92257476D02*
X155474295Y-92209857D01*
X155474295Y-92209857D02*
X155617152Y-92209857D01*
X155617152Y-92209857D02*
X155712390Y-92257476D01*
X155712390Y-92257476D02*
X155760009Y-92305095D01*
X155760009Y-92305095D02*
X155807628Y-92400333D01*
X155807628Y-92400333D02*
X155807628Y-92781285D01*
X155379057Y-91828904D02*
X155331438Y-91781285D01*
X155331438Y-91781285D02*
X155283819Y-91686047D01*
X155283819Y-91686047D02*
X155283819Y-91447952D01*
X155283819Y-91447952D02*
X155331438Y-91352714D01*
X155331438Y-91352714D02*
X155379057Y-91305095D01*
X155379057Y-91305095D02*
X155474295Y-91257476D01*
X155474295Y-91257476D02*
X155569533Y-91257476D01*
X155569533Y-91257476D02*
X155712390Y-91305095D01*
X155712390Y-91305095D02*
X156283819Y-91876523D01*
X156283819Y-91876523D02*
X156283819Y-91257476D01*
X155712390Y-90686047D02*
X155664771Y-90781285D01*
X155664771Y-90781285D02*
X155617152Y-90828904D01*
X155617152Y-90828904D02*
X155521914Y-90876523D01*
X155521914Y-90876523D02*
X155474295Y-90876523D01*
X155474295Y-90876523D02*
X155379057Y-90828904D01*
X155379057Y-90828904D02*
X155331438Y-90781285D01*
X155331438Y-90781285D02*
X155283819Y-90686047D01*
X155283819Y-90686047D02*
X155283819Y-90495571D01*
X155283819Y-90495571D02*
X155331438Y-90400333D01*
X155331438Y-90400333D02*
X155379057Y-90352714D01*
X155379057Y-90352714D02*
X155474295Y-90305095D01*
X155474295Y-90305095D02*
X155521914Y-90305095D01*
X155521914Y-90305095D02*
X155617152Y-90352714D01*
X155617152Y-90352714D02*
X155664771Y-90400333D01*
X155664771Y-90400333D02*
X155712390Y-90495571D01*
X155712390Y-90495571D02*
X155712390Y-90686047D01*
X155712390Y-90686047D02*
X155760009Y-90781285D01*
X155760009Y-90781285D02*
X155807628Y-90828904D01*
X155807628Y-90828904D02*
X155902866Y-90876523D01*
X155902866Y-90876523D02*
X156093342Y-90876523D01*
X156093342Y-90876523D02*
X156188580Y-90828904D01*
X156188580Y-90828904D02*
X156236200Y-90781285D01*
X156236200Y-90781285D02*
X156283819Y-90686047D01*
X156283819Y-90686047D02*
X156283819Y-90495571D01*
X156283819Y-90495571D02*
X156236200Y-90400333D01*
X156236200Y-90400333D02*
X156188580Y-90352714D01*
X156188580Y-90352714D02*
X156093342Y-90305095D01*
X156093342Y-90305095D02*
X155902866Y-90305095D01*
X155902866Y-90305095D02*
X155807628Y-90352714D01*
X155807628Y-90352714D02*
X155760009Y-90400333D01*
X155760009Y-90400333D02*
X155712390Y-90495571D01*
X161917142Y-122660580D02*
X161869523Y-122708200D01*
X161869523Y-122708200D02*
X161726666Y-122755819D01*
X161726666Y-122755819D02*
X161631428Y-122755819D01*
X161631428Y-122755819D02*
X161488571Y-122708200D01*
X161488571Y-122708200D02*
X161393333Y-122612961D01*
X161393333Y-122612961D02*
X161345714Y-122517723D01*
X161345714Y-122517723D02*
X161298095Y-122327247D01*
X161298095Y-122327247D02*
X161298095Y-122184390D01*
X161298095Y-122184390D02*
X161345714Y-121993914D01*
X161345714Y-121993914D02*
X161393333Y-121898676D01*
X161393333Y-121898676D02*
X161488571Y-121803438D01*
X161488571Y-121803438D02*
X161631428Y-121755819D01*
X161631428Y-121755819D02*
X161726666Y-121755819D01*
X161726666Y-121755819D02*
X161869523Y-121803438D01*
X161869523Y-121803438D02*
X161917142Y-121851057D01*
X162298095Y-121851057D02*
X162345714Y-121803438D01*
X162345714Y-121803438D02*
X162440952Y-121755819D01*
X162440952Y-121755819D02*
X162679047Y-121755819D01*
X162679047Y-121755819D02*
X162774285Y-121803438D01*
X162774285Y-121803438D02*
X162821904Y-121851057D01*
X162821904Y-121851057D02*
X162869523Y-121946295D01*
X162869523Y-121946295D02*
X162869523Y-122041533D01*
X162869523Y-122041533D02*
X162821904Y-122184390D01*
X162821904Y-122184390D02*
X162250476Y-122755819D01*
X162250476Y-122755819D02*
X162869523Y-122755819D01*
X163774285Y-121755819D02*
X163298095Y-121755819D01*
X163298095Y-121755819D02*
X163250476Y-122232009D01*
X163250476Y-122232009D02*
X163298095Y-122184390D01*
X163298095Y-122184390D02*
X163393333Y-122136771D01*
X163393333Y-122136771D02*
X163631428Y-122136771D01*
X163631428Y-122136771D02*
X163726666Y-122184390D01*
X163726666Y-122184390D02*
X163774285Y-122232009D01*
X163774285Y-122232009D02*
X163821904Y-122327247D01*
X163821904Y-122327247D02*
X163821904Y-122565342D01*
X163821904Y-122565342D02*
X163774285Y-122660580D01*
X163774285Y-122660580D02*
X163726666Y-122708200D01*
X163726666Y-122708200D02*
X163631428Y-122755819D01*
X163631428Y-122755819D02*
X163393333Y-122755819D01*
X163393333Y-122755819D02*
X163298095Y-122708200D01*
X163298095Y-122708200D02*
X163250476Y-122660580D01*
X156156819Y-83700857D02*
X155680628Y-84034190D01*
X156156819Y-84272285D02*
X155156819Y-84272285D01*
X155156819Y-84272285D02*
X155156819Y-83891333D01*
X155156819Y-83891333D02*
X155204438Y-83796095D01*
X155204438Y-83796095D02*
X155252057Y-83748476D01*
X155252057Y-83748476D02*
X155347295Y-83700857D01*
X155347295Y-83700857D02*
X155490152Y-83700857D01*
X155490152Y-83700857D02*
X155585390Y-83748476D01*
X155585390Y-83748476D02*
X155633009Y-83796095D01*
X155633009Y-83796095D02*
X155680628Y-83891333D01*
X155680628Y-83891333D02*
X155680628Y-84272285D01*
X155156819Y-83367523D02*
X155156819Y-82748476D01*
X155156819Y-82748476D02*
X155537771Y-83081809D01*
X155537771Y-83081809D02*
X155537771Y-82938952D01*
X155537771Y-82938952D02*
X155585390Y-82843714D01*
X155585390Y-82843714D02*
X155633009Y-82796095D01*
X155633009Y-82796095D02*
X155728247Y-82748476D01*
X155728247Y-82748476D02*
X155966342Y-82748476D01*
X155966342Y-82748476D02*
X156061580Y-82796095D01*
X156061580Y-82796095D02*
X156109200Y-82843714D01*
X156109200Y-82843714D02*
X156156819Y-82938952D01*
X156156819Y-82938952D02*
X156156819Y-83224666D01*
X156156819Y-83224666D02*
X156109200Y-83319904D01*
X156109200Y-83319904D02*
X156061580Y-83367523D01*
X155156819Y-82129428D02*
X155156819Y-82034190D01*
X155156819Y-82034190D02*
X155204438Y-81938952D01*
X155204438Y-81938952D02*
X155252057Y-81891333D01*
X155252057Y-81891333D02*
X155347295Y-81843714D01*
X155347295Y-81843714D02*
X155537771Y-81796095D01*
X155537771Y-81796095D02*
X155775866Y-81796095D01*
X155775866Y-81796095D02*
X155966342Y-81843714D01*
X155966342Y-81843714D02*
X156061580Y-81891333D01*
X156061580Y-81891333D02*
X156109200Y-81938952D01*
X156109200Y-81938952D02*
X156156819Y-82034190D01*
X156156819Y-82034190D02*
X156156819Y-82129428D01*
X156156819Y-82129428D02*
X156109200Y-82224666D01*
X156109200Y-82224666D02*
X156061580Y-82272285D01*
X156061580Y-82272285D02*
X155966342Y-82319904D01*
X155966342Y-82319904D02*
X155775866Y-82367523D01*
X155775866Y-82367523D02*
X155537771Y-82367523D01*
X155537771Y-82367523D02*
X155347295Y-82319904D01*
X155347295Y-82319904D02*
X155252057Y-82272285D01*
X155252057Y-82272285D02*
X155204438Y-82224666D01*
X155204438Y-82224666D02*
X155156819Y-82129428D01*
X158107142Y-95990580D02*
X158059523Y-96038200D01*
X158059523Y-96038200D02*
X157916666Y-96085819D01*
X157916666Y-96085819D02*
X157821428Y-96085819D01*
X157821428Y-96085819D02*
X157678571Y-96038200D01*
X157678571Y-96038200D02*
X157583333Y-95942961D01*
X157583333Y-95942961D02*
X157535714Y-95847723D01*
X157535714Y-95847723D02*
X157488095Y-95657247D01*
X157488095Y-95657247D02*
X157488095Y-95514390D01*
X157488095Y-95514390D02*
X157535714Y-95323914D01*
X157535714Y-95323914D02*
X157583333Y-95228676D01*
X157583333Y-95228676D02*
X157678571Y-95133438D01*
X157678571Y-95133438D02*
X157821428Y-95085819D01*
X157821428Y-95085819D02*
X157916666Y-95085819D01*
X157916666Y-95085819D02*
X158059523Y-95133438D01*
X158059523Y-95133438D02*
X158107142Y-95181057D01*
X158488095Y-95181057D02*
X158535714Y-95133438D01*
X158535714Y-95133438D02*
X158630952Y-95085819D01*
X158630952Y-95085819D02*
X158869047Y-95085819D01*
X158869047Y-95085819D02*
X158964285Y-95133438D01*
X158964285Y-95133438D02*
X159011904Y-95181057D01*
X159011904Y-95181057D02*
X159059523Y-95276295D01*
X159059523Y-95276295D02*
X159059523Y-95371533D01*
X159059523Y-95371533D02*
X159011904Y-95514390D01*
X159011904Y-95514390D02*
X158440476Y-96085819D01*
X158440476Y-96085819D02*
X159059523Y-96085819D01*
X159678571Y-95085819D02*
X159773809Y-95085819D01*
X159773809Y-95085819D02*
X159869047Y-95133438D01*
X159869047Y-95133438D02*
X159916666Y-95181057D01*
X159916666Y-95181057D02*
X159964285Y-95276295D01*
X159964285Y-95276295D02*
X160011904Y-95466771D01*
X160011904Y-95466771D02*
X160011904Y-95704866D01*
X160011904Y-95704866D02*
X159964285Y-95895342D01*
X159964285Y-95895342D02*
X159916666Y-95990580D01*
X159916666Y-95990580D02*
X159869047Y-96038200D01*
X159869047Y-96038200D02*
X159773809Y-96085819D01*
X159773809Y-96085819D02*
X159678571Y-96085819D01*
X159678571Y-96085819D02*
X159583333Y-96038200D01*
X159583333Y-96038200D02*
X159535714Y-95990580D01*
X159535714Y-95990580D02*
X159488095Y-95895342D01*
X159488095Y-95895342D02*
X159440476Y-95704866D01*
X159440476Y-95704866D02*
X159440476Y-95466771D01*
X159440476Y-95466771D02*
X159488095Y-95276295D01*
X159488095Y-95276295D02*
X159535714Y-95181057D01*
X159535714Y-95181057D02*
X159583333Y-95133438D01*
X159583333Y-95133438D02*
X159678571Y-95085819D01*
X149471142Y-94434819D02*
X149137809Y-93958628D01*
X148899714Y-94434819D02*
X148899714Y-93434819D01*
X148899714Y-93434819D02*
X149280666Y-93434819D01*
X149280666Y-93434819D02*
X149375904Y-93482438D01*
X149375904Y-93482438D02*
X149423523Y-93530057D01*
X149423523Y-93530057D02*
X149471142Y-93625295D01*
X149471142Y-93625295D02*
X149471142Y-93768152D01*
X149471142Y-93768152D02*
X149423523Y-93863390D01*
X149423523Y-93863390D02*
X149375904Y-93911009D01*
X149375904Y-93911009D02*
X149280666Y-93958628D01*
X149280666Y-93958628D02*
X148899714Y-93958628D01*
X149852095Y-93530057D02*
X149899714Y-93482438D01*
X149899714Y-93482438D02*
X149994952Y-93434819D01*
X149994952Y-93434819D02*
X150233047Y-93434819D01*
X150233047Y-93434819D02*
X150328285Y-93482438D01*
X150328285Y-93482438D02*
X150375904Y-93530057D01*
X150375904Y-93530057D02*
X150423523Y-93625295D01*
X150423523Y-93625295D02*
X150423523Y-93720533D01*
X150423523Y-93720533D02*
X150375904Y-93863390D01*
X150375904Y-93863390D02*
X149804476Y-94434819D01*
X149804476Y-94434819D02*
X150423523Y-94434819D01*
X150899714Y-94434819D02*
X151090190Y-94434819D01*
X151090190Y-94434819D02*
X151185428Y-94387200D01*
X151185428Y-94387200D02*
X151233047Y-94339580D01*
X151233047Y-94339580D02*
X151328285Y-94196723D01*
X151328285Y-94196723D02*
X151375904Y-94006247D01*
X151375904Y-94006247D02*
X151375904Y-93625295D01*
X151375904Y-93625295D02*
X151328285Y-93530057D01*
X151328285Y-93530057D02*
X151280666Y-93482438D01*
X151280666Y-93482438D02*
X151185428Y-93434819D01*
X151185428Y-93434819D02*
X150994952Y-93434819D01*
X150994952Y-93434819D02*
X150899714Y-93482438D01*
X150899714Y-93482438D02*
X150852095Y-93530057D01*
X150852095Y-93530057D02*
X150804476Y-93625295D01*
X150804476Y-93625295D02*
X150804476Y-93863390D01*
X150804476Y-93863390D02*
X150852095Y-93958628D01*
X150852095Y-93958628D02*
X150899714Y-94006247D01*
X150899714Y-94006247D02*
X150994952Y-94053866D01*
X150994952Y-94053866D02*
X151185428Y-94053866D01*
X151185428Y-94053866D02*
X151280666Y-94006247D01*
X151280666Y-94006247D02*
X151328285Y-93958628D01*
X151328285Y-93958628D02*
X151375904Y-93863390D01*
X158855580Y-83446857D02*
X158903200Y-83494476D01*
X158903200Y-83494476D02*
X158950819Y-83637333D01*
X158950819Y-83637333D02*
X158950819Y-83732571D01*
X158950819Y-83732571D02*
X158903200Y-83875428D01*
X158903200Y-83875428D02*
X158807961Y-83970666D01*
X158807961Y-83970666D02*
X158712723Y-84018285D01*
X158712723Y-84018285D02*
X158522247Y-84065904D01*
X158522247Y-84065904D02*
X158379390Y-84065904D01*
X158379390Y-84065904D02*
X158188914Y-84018285D01*
X158188914Y-84018285D02*
X158093676Y-83970666D01*
X158093676Y-83970666D02*
X157998438Y-83875428D01*
X157998438Y-83875428D02*
X157950819Y-83732571D01*
X157950819Y-83732571D02*
X157950819Y-83637333D01*
X157950819Y-83637333D02*
X157998438Y-83494476D01*
X157998438Y-83494476D02*
X158046057Y-83446857D01*
X158950819Y-82494476D02*
X158950819Y-83065904D01*
X158950819Y-82780190D02*
X157950819Y-82780190D01*
X157950819Y-82780190D02*
X158093676Y-82875428D01*
X158093676Y-82875428D02*
X158188914Y-82970666D01*
X158188914Y-82970666D02*
X158236533Y-83065904D01*
X158046057Y-82113523D02*
X157998438Y-82065904D01*
X157998438Y-82065904D02*
X157950819Y-81970666D01*
X157950819Y-81970666D02*
X157950819Y-81732571D01*
X157950819Y-81732571D02*
X157998438Y-81637333D01*
X157998438Y-81637333D02*
X158046057Y-81589714D01*
X158046057Y-81589714D02*
X158141295Y-81542095D01*
X158141295Y-81542095D02*
X158236533Y-81542095D01*
X158236533Y-81542095D02*
X158379390Y-81589714D01*
X158379390Y-81589714D02*
X158950819Y-82161142D01*
X158950819Y-82161142D02*
X158950819Y-81542095D01*
X163059095Y-80999819D02*
X163059095Y-81809342D01*
X163059095Y-81809342D02*
X163106714Y-81904580D01*
X163106714Y-81904580D02*
X163154333Y-81952200D01*
X163154333Y-81952200D02*
X163249571Y-81999819D01*
X163249571Y-81999819D02*
X163440047Y-81999819D01*
X163440047Y-81999819D02*
X163535285Y-81952200D01*
X163535285Y-81952200D02*
X163582904Y-81904580D01*
X163582904Y-81904580D02*
X163630523Y-81809342D01*
X163630523Y-81809342D02*
X163630523Y-80999819D01*
X164011476Y-80999819D02*
X164630523Y-80999819D01*
X164630523Y-80999819D02*
X164297190Y-81380771D01*
X164297190Y-81380771D02*
X164440047Y-81380771D01*
X164440047Y-81380771D02*
X164535285Y-81428390D01*
X164535285Y-81428390D02*
X164582904Y-81476009D01*
X164582904Y-81476009D02*
X164630523Y-81571247D01*
X164630523Y-81571247D02*
X164630523Y-81809342D01*
X164630523Y-81809342D02*
X164582904Y-81904580D01*
X164582904Y-81904580D02*
X164535285Y-81952200D01*
X164535285Y-81952200D02*
X164440047Y-81999819D01*
X164440047Y-81999819D02*
X164154333Y-81999819D01*
X164154333Y-81999819D02*
X164059095Y-81952200D01*
X164059095Y-81952200D02*
X164011476Y-81904580D01*
X142059819Y-139072857D02*
X141583628Y-139406190D01*
X142059819Y-139644285D02*
X141059819Y-139644285D01*
X141059819Y-139644285D02*
X141059819Y-139263333D01*
X141059819Y-139263333D02*
X141107438Y-139168095D01*
X141107438Y-139168095D02*
X141155057Y-139120476D01*
X141155057Y-139120476D02*
X141250295Y-139072857D01*
X141250295Y-139072857D02*
X141393152Y-139072857D01*
X141393152Y-139072857D02*
X141488390Y-139120476D01*
X141488390Y-139120476D02*
X141536009Y-139168095D01*
X141536009Y-139168095D02*
X141583628Y-139263333D01*
X141583628Y-139263333D02*
X141583628Y-139644285D01*
X141155057Y-138691904D02*
X141107438Y-138644285D01*
X141107438Y-138644285D02*
X141059819Y-138549047D01*
X141059819Y-138549047D02*
X141059819Y-138310952D01*
X141059819Y-138310952D02*
X141107438Y-138215714D01*
X141107438Y-138215714D02*
X141155057Y-138168095D01*
X141155057Y-138168095D02*
X141250295Y-138120476D01*
X141250295Y-138120476D02*
X141345533Y-138120476D01*
X141345533Y-138120476D02*
X141488390Y-138168095D01*
X141488390Y-138168095D02*
X142059819Y-138739523D01*
X142059819Y-138739523D02*
X142059819Y-138120476D01*
X141393152Y-137263333D02*
X142059819Y-137263333D01*
X141012200Y-137501428D02*
X141726485Y-137739523D01*
X141726485Y-137739523D02*
X141726485Y-137120476D01*
X158982580Y-86782357D02*
X159030200Y-86829976D01*
X159030200Y-86829976D02*
X159077819Y-86972833D01*
X159077819Y-86972833D02*
X159077819Y-87068071D01*
X159077819Y-87068071D02*
X159030200Y-87210928D01*
X159030200Y-87210928D02*
X158934961Y-87306166D01*
X158934961Y-87306166D02*
X158839723Y-87353785D01*
X158839723Y-87353785D02*
X158649247Y-87401404D01*
X158649247Y-87401404D02*
X158506390Y-87401404D01*
X158506390Y-87401404D02*
X158315914Y-87353785D01*
X158315914Y-87353785D02*
X158220676Y-87306166D01*
X158220676Y-87306166D02*
X158125438Y-87210928D01*
X158125438Y-87210928D02*
X158077819Y-87068071D01*
X158077819Y-87068071D02*
X158077819Y-86972833D01*
X158077819Y-86972833D02*
X158125438Y-86829976D01*
X158125438Y-86829976D02*
X158173057Y-86782357D01*
X159077819Y-85829976D02*
X159077819Y-86401404D01*
X159077819Y-86115690D02*
X158077819Y-86115690D01*
X158077819Y-86115690D02*
X158220676Y-86210928D01*
X158220676Y-86210928D02*
X158315914Y-86306166D01*
X158315914Y-86306166D02*
X158363533Y-86401404D01*
X158077819Y-85496642D02*
X158077819Y-84877595D01*
X158077819Y-84877595D02*
X158458771Y-85210928D01*
X158458771Y-85210928D02*
X158458771Y-85068071D01*
X158458771Y-85068071D02*
X158506390Y-84972833D01*
X158506390Y-84972833D02*
X158554009Y-84925214D01*
X158554009Y-84925214D02*
X158649247Y-84877595D01*
X158649247Y-84877595D02*
X158887342Y-84877595D01*
X158887342Y-84877595D02*
X158982580Y-84925214D01*
X158982580Y-84925214D02*
X159030200Y-84972833D01*
X159030200Y-84972833D02*
X159077819Y-85068071D01*
X159077819Y-85068071D02*
X159077819Y-85353785D01*
X159077819Y-85353785D02*
X159030200Y-85449023D01*
X159030200Y-85449023D02*
X158982580Y-85496642D01*
X154551142Y-131391819D02*
X154217809Y-130915628D01*
X153979714Y-131391819D02*
X153979714Y-130391819D01*
X153979714Y-130391819D02*
X154360666Y-130391819D01*
X154360666Y-130391819D02*
X154455904Y-130439438D01*
X154455904Y-130439438D02*
X154503523Y-130487057D01*
X154503523Y-130487057D02*
X154551142Y-130582295D01*
X154551142Y-130582295D02*
X154551142Y-130725152D01*
X154551142Y-130725152D02*
X154503523Y-130820390D01*
X154503523Y-130820390D02*
X154455904Y-130868009D01*
X154455904Y-130868009D02*
X154360666Y-130915628D01*
X154360666Y-130915628D02*
X153979714Y-130915628D01*
X155503523Y-131391819D02*
X154932095Y-131391819D01*
X155217809Y-131391819D02*
X155217809Y-130391819D01*
X155217809Y-130391819D02*
X155122571Y-130534676D01*
X155122571Y-130534676D02*
X155027333Y-130629914D01*
X155027333Y-130629914D02*
X154932095Y-130677533D01*
X156360666Y-130391819D02*
X156170190Y-130391819D01*
X156170190Y-130391819D02*
X156074952Y-130439438D01*
X156074952Y-130439438D02*
X156027333Y-130487057D01*
X156027333Y-130487057D02*
X155932095Y-130629914D01*
X155932095Y-130629914D02*
X155884476Y-130820390D01*
X155884476Y-130820390D02*
X155884476Y-131201342D01*
X155884476Y-131201342D02*
X155932095Y-131296580D01*
X155932095Y-131296580D02*
X155979714Y-131344200D01*
X155979714Y-131344200D02*
X156074952Y-131391819D01*
X156074952Y-131391819D02*
X156265428Y-131391819D01*
X156265428Y-131391819D02*
X156360666Y-131344200D01*
X156360666Y-131344200D02*
X156408285Y-131296580D01*
X156408285Y-131296580D02*
X156455904Y-131201342D01*
X156455904Y-131201342D02*
X156455904Y-130963247D01*
X156455904Y-130963247D02*
X156408285Y-130868009D01*
X156408285Y-130868009D02*
X156360666Y-130820390D01*
X156360666Y-130820390D02*
X156265428Y-130772771D01*
X156265428Y-130772771D02*
X156074952Y-130772771D01*
X156074952Y-130772771D02*
X155979714Y-130820390D01*
X155979714Y-130820390D02*
X155932095Y-130868009D01*
X155932095Y-130868009D02*
X155884476Y-130963247D01*
X156805333Y-98211819D02*
X156472000Y-97735628D01*
X156233905Y-98211819D02*
X156233905Y-97211819D01*
X156233905Y-97211819D02*
X156614857Y-97211819D01*
X156614857Y-97211819D02*
X156710095Y-97259438D01*
X156710095Y-97259438D02*
X156757714Y-97307057D01*
X156757714Y-97307057D02*
X156805333Y-97402295D01*
X156805333Y-97402295D02*
X156805333Y-97545152D01*
X156805333Y-97545152D02*
X156757714Y-97640390D01*
X156757714Y-97640390D02*
X156710095Y-97688009D01*
X156710095Y-97688009D02*
X156614857Y-97735628D01*
X156614857Y-97735628D02*
X156233905Y-97735628D01*
X157662476Y-97211819D02*
X157472000Y-97211819D01*
X157472000Y-97211819D02*
X157376762Y-97259438D01*
X157376762Y-97259438D02*
X157329143Y-97307057D01*
X157329143Y-97307057D02*
X157233905Y-97449914D01*
X157233905Y-97449914D02*
X157186286Y-97640390D01*
X157186286Y-97640390D02*
X157186286Y-98021342D01*
X157186286Y-98021342D02*
X157233905Y-98116580D01*
X157233905Y-98116580D02*
X157281524Y-98164200D01*
X157281524Y-98164200D02*
X157376762Y-98211819D01*
X157376762Y-98211819D02*
X157567238Y-98211819D01*
X157567238Y-98211819D02*
X157662476Y-98164200D01*
X157662476Y-98164200D02*
X157710095Y-98116580D01*
X157710095Y-98116580D02*
X157757714Y-98021342D01*
X157757714Y-98021342D02*
X157757714Y-97783247D01*
X157757714Y-97783247D02*
X157710095Y-97688009D01*
X157710095Y-97688009D02*
X157662476Y-97640390D01*
X157662476Y-97640390D02*
X157567238Y-97592771D01*
X157567238Y-97592771D02*
X157376762Y-97592771D01*
X157376762Y-97592771D02*
X157281524Y-97640390D01*
X157281524Y-97640390D02*
X157233905Y-97688009D01*
X157233905Y-97688009D02*
X157186286Y-97783247D01*
X151757142Y-145996819D02*
X151423809Y-145520628D01*
X151185714Y-145996819D02*
X151185714Y-144996819D01*
X151185714Y-144996819D02*
X151566666Y-144996819D01*
X151566666Y-144996819D02*
X151661904Y-145044438D01*
X151661904Y-145044438D02*
X151709523Y-145092057D01*
X151709523Y-145092057D02*
X151757142Y-145187295D01*
X151757142Y-145187295D02*
X151757142Y-145330152D01*
X151757142Y-145330152D02*
X151709523Y-145425390D01*
X151709523Y-145425390D02*
X151661904Y-145473009D01*
X151661904Y-145473009D02*
X151566666Y-145520628D01*
X151566666Y-145520628D02*
X151185714Y-145520628D01*
X152709523Y-145996819D02*
X152138095Y-145996819D01*
X152423809Y-145996819D02*
X152423809Y-144996819D01*
X152423809Y-144996819D02*
X152328571Y-145139676D01*
X152328571Y-145139676D02*
X152233333Y-145234914D01*
X152233333Y-145234914D02*
X152138095Y-145282533D01*
X153090476Y-145092057D02*
X153138095Y-145044438D01*
X153138095Y-145044438D02*
X153233333Y-144996819D01*
X153233333Y-144996819D02*
X153471428Y-144996819D01*
X153471428Y-144996819D02*
X153566666Y-145044438D01*
X153566666Y-145044438D02*
X153614285Y-145092057D01*
X153614285Y-145092057D02*
X153661904Y-145187295D01*
X153661904Y-145187295D02*
X153661904Y-145282533D01*
X153661904Y-145282533D02*
X153614285Y-145425390D01*
X153614285Y-145425390D02*
X153042857Y-145996819D01*
X153042857Y-145996819D02*
X153661904Y-145996819D01*
D12*
G04 #@! TO.C,R8*
X166076500Y-84176724D02*
X166076500Y-83667276D01*
X167121500Y-84176724D02*
X167121500Y-83667276D01*
G04 #@! TO.C,C16*
X166969000Y-91485233D02*
X166969000Y-91777767D01*
X165949000Y-91485233D02*
X165949000Y-91777767D01*
G04 #@! TO.C,R9*
X141351724Y-78627500D02*
X140842276Y-78627500D01*
X141351724Y-77582500D02*
X140842276Y-77582500D01*
G04 #@! TO.C,C32*
X146030733Y-130554000D02*
X146323267Y-130554000D01*
X146030733Y-131574000D02*
X146323267Y-131574000D01*
G04 #@! TO.C,C24*
X162413733Y-126236000D02*
X162706267Y-126236000D01*
X162413733Y-127256000D02*
X162706267Y-127256000D01*
G04 #@! TO.C,R1*
X151242500Y-115062724D02*
X151242500Y-114553276D01*
X152287500Y-115062724D02*
X152287500Y-114553276D01*
G04 #@! TO.C,R2*
X149591500Y-115062724D02*
X149591500Y-114553276D01*
X150636500Y-115062724D02*
X150636500Y-114553276D01*
G04 #@! TO.C,C28*
X155340267Y-127256000D02*
X155047733Y-127256000D01*
X155340267Y-126236000D02*
X155047733Y-126236000D01*
G04 #@! TO.C,R19*
X139841500Y-124332276D02*
X139841500Y-124841724D01*
X138796500Y-124332276D02*
X138796500Y-124841724D01*
G04 #@! TO.C,C30*
X159023267Y-125732000D02*
X158730733Y-125732000D01*
X159023267Y-124712000D02*
X158730733Y-124712000D01*
G04 #@! TO.C,D2*
X150740000Y-142013000D02*
X150740000Y-143483000D01*
X150740000Y-143483000D02*
X153200000Y-143483000D01*
X153200000Y-142013000D02*
X150740000Y-142013000D01*
G04 #@! TO.C,R11*
X141351724Y-77103500D02*
X140842276Y-77103500D01*
X141351724Y-76058500D02*
X140842276Y-76058500D01*
G04 #@! TO.C,R17*
X154939276Y-124699500D02*
X155448724Y-124699500D01*
X154939276Y-125744500D02*
X155448724Y-125744500D01*
G04 #@! TO.C,U7*
X161250750Y-133863000D02*
X162390750Y-133863000D01*
X162390750Y-133633000D02*
X162390750Y-133863000D01*
X162390750Y-133633000D02*
X165110750Y-133633000D01*
X162390750Y-138353000D02*
X162390750Y-138123000D01*
X165110750Y-133633000D02*
X165110750Y-134943000D01*
X165110750Y-137043000D02*
X165110750Y-138353000D01*
X165110750Y-138353000D02*
X162390750Y-138353000D01*
G04 #@! TO.C,C33*
X145540000Y-138576267D02*
X145540000Y-138283733D01*
X146560000Y-138576267D02*
X146560000Y-138283733D01*
G04 #@! TO.C,FB2*
X140842276Y-73010500D02*
X141351724Y-73010500D01*
X140842276Y-74055500D02*
X141351724Y-74055500D01*
G04 #@! TO.C,C27*
X159023267Y-124208000D02*
X158730733Y-124208000D01*
X159023267Y-123188000D02*
X158730733Y-123188000D01*
G04 #@! TO.C,R15*
X165988276Y-123175500D02*
X166497724Y-123175500D01*
X165988276Y-124220500D02*
X166497724Y-124220500D01*
G04 #@! TO.C,C4*
X148101267Y-97157000D02*
X147808733Y-97157000D01*
X148101267Y-96137000D02*
X147808733Y-96137000D01*
G04 #@! TO.C,R14*
X162814724Y-124220500D02*
X162305276Y-124220500D01*
X162814724Y-123175500D02*
X162305276Y-123175500D01*
G04 #@! TO.C,C36*
X146560000Y-120477233D02*
X146560000Y-120769767D01*
X145540000Y-120477233D02*
X145540000Y-120769767D01*
G04 #@! TO.C,R4*
X152654724Y-132983500D02*
X152145276Y-132983500D01*
X152654724Y-131938500D02*
X152145276Y-131938500D01*
G04 #@! TO.C,R7*
X159497500Y-82931724D02*
X159497500Y-82422276D01*
X160542500Y-82931724D02*
X160542500Y-82422276D01*
G04 #@! TO.C,D3*
X154913000Y-86351000D02*
X153443000Y-86351000D01*
X153443000Y-86351000D02*
X153443000Y-88811000D01*
X154913000Y-88811000D02*
X154913000Y-86351000D01*
G04 #@! TO.C,R27*
X143876500Y-120878224D02*
X143876500Y-120368776D01*
X144921500Y-120878224D02*
X144921500Y-120368776D01*
G04 #@! TO.C,C22*
X160450750Y-137624733D02*
X160450750Y-137917267D01*
X159430750Y-137624733D02*
X159430750Y-137917267D01*
G04 #@! TO.C,C18*
X140950733Y-71499000D02*
X141243267Y-71499000D01*
X140950733Y-72519000D02*
X141243267Y-72519000D01*
D11*
G04 #@! TO.C,U6*
X156796000Y-90344000D02*
X157616000Y-90344000D01*
X156896000Y-93044000D02*
X156896000Y-92824000D01*
X156896000Y-93044000D02*
X157616000Y-93044000D01*
X159376000Y-90344000D02*
X160096000Y-90344000D01*
X160096000Y-90344000D02*
X160096000Y-90564000D01*
X160096000Y-92824000D02*
X160096000Y-93044000D01*
X160096000Y-93044000D02*
X159376000Y-93044000D01*
D12*
G04 #@! TO.C,C35*
X145540000Y-124606267D02*
X145540000Y-124313733D01*
X146560000Y-124606267D02*
X146560000Y-124313733D01*
G04 #@! TO.C,C3*
X142767267Y-111635000D02*
X142474733Y-111635000D01*
X142767267Y-110615000D02*
X142474733Y-110615000D01*
G04 #@! TO.C,C15*
X165677733Y-88581500D02*
X165970267Y-88581500D01*
X165677733Y-89601500D02*
X165970267Y-89601500D01*
G04 #@! TO.C,C17*
X140950733Y-69975000D02*
X141243267Y-69975000D01*
X140950733Y-70995000D02*
X141243267Y-70995000D01*
G04 #@! TO.C,R18*
X141492500Y-124332276D02*
X141492500Y-124841724D01*
X140447500Y-124332276D02*
X140447500Y-124841724D01*
G04 #@! TO.C,C31*
X146030733Y-127379000D02*
X146323267Y-127379000D01*
X146030733Y-128399000D02*
X146323267Y-128399000D01*
G04 #@! TO.C,C9*
X153777733Y-96010000D02*
X154070267Y-96010000D01*
X153777733Y-97030000D02*
X154070267Y-97030000D01*
G04 #@! TO.C,C7*
X145290000Y-114026733D02*
X145290000Y-114319267D01*
X144270000Y-114026733D02*
X144270000Y-114319267D01*
G04 #@! TO.C,R20*
X140730500Y-120014276D02*
X140730500Y-120523724D01*
X139685500Y-120014276D02*
X139685500Y-120523724D01*
G04 #@! TO.C,U8*
X139626000Y-132150000D02*
X139626000Y-131675000D01*
X140101000Y-126930000D02*
X139626000Y-126930000D01*
X140101000Y-132150000D02*
X139626000Y-132150000D01*
X143371000Y-126930000D02*
X143846000Y-126930000D01*
X143371000Y-132150000D02*
X143846000Y-132150000D01*
X143846000Y-126930000D02*
X143846000Y-127405000D01*
X143846000Y-132150000D02*
X143846000Y-131675000D01*
G04 #@! TO.C,R21*
X139079500Y-120014276D02*
X139079500Y-120523724D01*
X138034500Y-120014276D02*
X138034500Y-120523724D01*
G04 #@! TO.C,C8*
X157499267Y-112524000D02*
X157206733Y-112524000D01*
X157499267Y-111504000D02*
X157206733Y-111504000D01*
G04 #@! TO.C,C1*
X138178000Y-95738733D02*
X138178000Y-96031267D01*
X137158000Y-95738733D02*
X137158000Y-96031267D01*
G04 #@! TO.C,J3*
X137481000Y-98756000D02*
X138811000Y-98756000D01*
X137481000Y-100086000D02*
X137481000Y-98756000D01*
X137481000Y-101356000D02*
X137481000Y-109036000D01*
X137481000Y-101356000D02*
X140141000Y-101356000D01*
X137481000Y-109036000D02*
X140141000Y-109036000D01*
X140141000Y-101356000D02*
X140141000Y-109036000D01*
G04 #@! TO.C,R25*
X143876500Y-134874724D02*
X143876500Y-134365276D01*
X144921500Y-134874724D02*
X144921500Y-134365276D01*
G04 #@! TO.C,R23*
X139431500Y-134747724D02*
X139431500Y-134238276D01*
X140476500Y-134747724D02*
X140476500Y-134238276D01*
G04 #@! TO.C,C34*
X146560000Y-134473733D02*
X146560000Y-134766267D01*
X145540000Y-134473733D02*
X145540000Y-134766267D01*
G04 #@! TO.C,C11*
X141349000Y-100095267D02*
X141349000Y-99802733D01*
X142369000Y-100095267D02*
X142369000Y-99802733D01*
G04 #@! TO.C,C6*
X147466267Y-115572000D02*
X147173733Y-115572000D01*
X147466267Y-114552000D02*
X147173733Y-114552000D01*
G04 #@! TO.C,D1*
X142757000Y-75792000D02*
X142757000Y-74322000D01*
X142757000Y-74322000D02*
X140297000Y-74322000D01*
X140297000Y-75792000D02*
X142757000Y-75792000D01*
G04 #@! TO.C,J4*
X167573000Y-113344000D02*
X166243000Y-113344000D01*
X167573000Y-112014000D02*
X167573000Y-113344000D01*
X167573000Y-110744000D02*
X167573000Y-97984000D01*
X167573000Y-110744000D02*
X164913000Y-110744000D01*
X167573000Y-97984000D02*
X164913000Y-97984000D01*
X164913000Y-110744000D02*
X164913000Y-97984000D01*
G04 #@! TO.C,C29*
X155340267Y-124208000D02*
X155047733Y-124208000D01*
X155340267Y-123188000D02*
X155047733Y-123188000D01*
G04 #@! TO.C,C14*
X159510000Y-86225767D02*
X159510000Y-85933233D01*
X160530000Y-86225767D02*
X160530000Y-85933233D01*
G04 #@! TO.C,U1*
X140605000Y-97585000D02*
X140605000Y-98035000D01*
X142605000Y-97585000D02*
X140605000Y-97585000D01*
X139005000Y-96235000D02*
X138505000Y-96235000D01*
X139005000Y-96235000D02*
X139005000Y-95535000D01*
X144205000Y-95535000D02*
X144205000Y-96235000D01*
X140505000Y-94185000D02*
X142705000Y-94185000D01*
G04 #@! TO.C,R10*
X140842276Y-79106500D02*
X141351724Y-79106500D01*
X140842276Y-80151500D02*
X141351724Y-80151500D01*
G04 #@! TO.C,R5*
X152145276Y-133589500D02*
X152654724Y-133589500D01*
X152145276Y-134634500D02*
X152654724Y-134634500D01*
G04 #@! TO.C,C21*
X159430750Y-134361267D02*
X159430750Y-134068733D01*
X160450750Y-134361267D02*
X160450750Y-134068733D01*
G04 #@! TO.C,FB1*
X141209500Y-103632724D02*
X141209500Y-103123276D01*
X142254500Y-103632724D02*
X142254500Y-103123276D01*
G04 #@! TO.C,C23*
X158730733Y-126236000D02*
X159023267Y-126236000D01*
X158730733Y-127256000D02*
X159023267Y-127256000D01*
D11*
G04 #@! TO.C,U5*
X144454000Y-64301000D02*
X160454000Y-64301000D01*
X160454000Y-64301000D02*
X160454000Y-80301000D01*
X160454000Y-80301000D02*
X144454000Y-80301000D01*
X144454000Y-80301000D02*
X144454000Y-64301000D01*
X147454000Y-65301000D02*
G75*
G03*
X147454000Y-65301000I-500000J0D01*
G01*
D12*
G04 #@! TO.C,C5*
X142767267Y-109984000D02*
X142474733Y-109984000D01*
X142767267Y-108964000D02*
X142474733Y-108964000D01*
G04 #@! TO.C,U9*
X137915000Y-92376000D02*
X152915000Y-92376000D01*
X152915000Y-92376000D02*
X152915000Y-82376000D01*
X152915000Y-82376000D02*
X137915000Y-82376000D01*
X137915000Y-82376000D02*
X137915000Y-92376000D01*
X139315000Y-91176000D02*
X141315000Y-91176000D01*
X141315000Y-91176000D02*
X141315000Y-89176000D01*
X141315000Y-89176000D02*
X139315000Y-89176000D01*
X139315000Y-89176000D02*
X139315000Y-91176000D01*
X141065000Y-90176000D02*
G75*
G03*
X141065000Y-90176000I-750000J0D01*
G01*
G04 #@! TO.C,R3*
X152893500Y-115062724D02*
X152893500Y-114553276D01*
X153938500Y-115062724D02*
X153938500Y-114553276D01*
G04 #@! TO.C,U2*
X150495000Y-98056369D02*
X149823249Y-98728120D01*
X149823249Y-98728120D02*
X148875725Y-97780597D01*
X143268369Y-105283000D02*
X143940120Y-104611249D01*
X151166751Y-98728120D02*
X150495000Y-98056369D01*
X143940120Y-105954751D02*
X143268369Y-105283000D01*
X157049880Y-104611249D02*
X157721631Y-105283000D01*
X149823249Y-111837880D02*
X150495000Y-112509631D01*
X157721631Y-105283000D02*
X157049880Y-105954751D01*
X150495000Y-112509631D02*
X151166751Y-111837880D01*
G04 #@! TO.C,R13*
X162814724Y-128792500D02*
X162305276Y-128792500D01*
X162814724Y-127747500D02*
X162305276Y-127747500D01*
G04 #@! TO.C,C10*
X142873000Y-100095267D02*
X142873000Y-99802733D01*
X143893000Y-100095267D02*
X143893000Y-99802733D01*
D13*
G04 #@! TO.C,U4*
X163017300Y-90195300D02*
X163017300Y-90524909D01*
X163017300Y-92177091D02*
X163017300Y-92506700D01*
X163017300Y-92506700D02*
X163596972Y-92506700D01*
X163596972Y-90195300D02*
X163017300Y-90195300D01*
X164749028Y-92506700D02*
X165328700Y-92506700D01*
X165328700Y-90195300D02*
X164749028Y-90195300D01*
X165328700Y-90524909D02*
X165328700Y-90195300D01*
X165328700Y-92506700D02*
X165328700Y-92177091D01*
G36*
X164113437Y-90208000D02*
G01*
X163732437Y-90208000D01*
X163732437Y-89954000D01*
X164113437Y-89954000D01*
X164113437Y-90208000D01*
G37*
D12*
G04 #@! TO.C,C19*
X161800000Y-93313733D02*
X161800000Y-93606267D01*
X160780000Y-93313733D02*
X160780000Y-93606267D01*
G04 #@! TO.C,R26*
X144921500Y-124205276D02*
X144921500Y-124714724D01*
X143876500Y-124205276D02*
X143876500Y-124714724D01*
G04 #@! TO.C,C26*
X166389267Y-125732000D02*
X166096733Y-125732000D01*
X166389267Y-124712000D02*
X166096733Y-124712000D01*
G04 #@! TO.C,R22*
X139431500Y-138303724D02*
X139431500Y-137794276D01*
X140476500Y-138303724D02*
X140476500Y-137794276D01*
G04 #@! TO.C,R28*
X153655500Y-91694724D02*
X153655500Y-91185276D01*
X154700500Y-91694724D02*
X154700500Y-91185276D01*
G04 #@! TO.C,C25*
X162413733Y-124712000D02*
X162706267Y-124712000D01*
X162413733Y-125732000D02*
X162706267Y-125732000D01*
G04 #@! TO.C,R30*
X153655500Y-83439724D02*
X153655500Y-82930276D01*
X154700500Y-83439724D02*
X154700500Y-82930276D01*
G04 #@! TO.C,C20*
X158603733Y-93851000D02*
X158896267Y-93851000D01*
X158603733Y-94871000D02*
X158896267Y-94871000D01*
G04 #@! TO.C,R29*
X146557276Y-93457500D02*
X147066724Y-93457500D01*
X146557276Y-94502500D02*
X147066724Y-94502500D01*
G04 #@! TO.C,C12*
X156589000Y-82799767D02*
X156589000Y-82507233D01*
X157609000Y-82799767D02*
X157609000Y-82507233D01*
G04 #@! TO.C,U3*
X163261000Y-87605000D02*
X162211000Y-87605000D01*
X164381000Y-82385000D02*
X165431000Y-82385000D01*
X164381000Y-87605000D02*
X165431000Y-87605000D01*
G04 #@! TO.C,R24*
X144921500Y-138175276D02*
X144921500Y-138684724D01*
X143876500Y-138175276D02*
X143876500Y-138684724D01*
G04 #@! TO.C,C13*
X156589000Y-86285767D02*
X156589000Y-85993233D01*
X157609000Y-86285767D02*
X157609000Y-85993233D01*
G04 #@! TO.C,R16*
X154939276Y-127747500D02*
X155448724Y-127747500D01*
X154939276Y-128792500D02*
X155448724Y-128792500D01*
G04 #@! TO.C,R6*
X156717276Y-98664500D02*
X157226724Y-98664500D01*
X156717276Y-99709500D02*
X157226724Y-99709500D01*
G04 #@! TO.C,R12*
X152145276Y-143876500D02*
X152654724Y-143876500D01*
X152145276Y-144921500D02*
X152654724Y-144921500D01*
G04 #@! TD*
%LPC*%
D14*
G04 #@! TO.C,H4*
X165100000Y-142875000D03*
G04 #@! TD*
D15*
G04 #@! TO.C,R8*
X166599000Y-84834500D03*
X166599000Y-83009500D03*
G04 #@! TD*
D16*
G04 #@! TO.C,C16*
X166459000Y-90769000D03*
X166459000Y-92494000D03*
G04 #@! TD*
D17*
G04 #@! TO.C,R9*
X142009500Y-78105000D03*
X140184500Y-78105000D03*
G04 #@! TD*
D18*
G04 #@! TO.C,C32*
X145314500Y-131064000D03*
X147039500Y-131064000D03*
G04 #@! TD*
G04 #@! TO.C,C24*
X161697500Y-126746000D03*
X163422500Y-126746000D03*
G04 #@! TD*
D15*
G04 #@! TO.C,R1*
X151765000Y-115720500D03*
X151765000Y-113895500D03*
G04 #@! TD*
G04 #@! TO.C,R2*
X150114000Y-115720500D03*
X150114000Y-113895500D03*
G04 #@! TD*
D19*
G04 #@! TO.C,C28*
X156056500Y-126746000D03*
X154331500Y-126746000D03*
G04 #@! TD*
D20*
G04 #@! TO.C,R19*
X139319000Y-123674500D03*
X139319000Y-125499500D03*
G04 #@! TD*
D19*
G04 #@! TO.C,C30*
X159739500Y-125222000D03*
X158014500Y-125222000D03*
G04 #@! TD*
D21*
G04 #@! TO.C,D2*
X151525000Y-142748000D03*
X153275000Y-142748000D03*
G04 #@! TD*
D17*
G04 #@! TO.C,R11*
X142009500Y-76581000D03*
X140184500Y-76581000D03*
G04 #@! TD*
D22*
G04 #@! TO.C,R17*
X154281500Y-125222000D03*
X156106500Y-125222000D03*
G04 #@! TD*
D23*
G04 #@! TO.C,U7*
X161800750Y-134493000D03*
D24*
X161888250Y-135993000D03*
D23*
X161800750Y-137493000D03*
G04 #@! TD*
D14*
G04 #@! TO.C,H1*
X139700000Y-66675000D03*
G04 #@! TD*
D25*
G04 #@! TO.C,C33*
X146050000Y-139292500D03*
X146050000Y-137567500D03*
G04 #@! TD*
D14*
G04 #@! TO.C,H3*
X139700000Y-142875000D03*
G04 #@! TD*
D22*
G04 #@! TO.C,FB2*
X140184500Y-73533000D03*
X142009500Y-73533000D03*
G04 #@! TD*
D19*
G04 #@! TO.C,C27*
X159739500Y-123698000D03*
X158014500Y-123698000D03*
G04 #@! TD*
D22*
G04 #@! TO.C,R15*
X165330500Y-123698000D03*
X167155500Y-123698000D03*
G04 #@! TD*
D19*
G04 #@! TO.C,C4*
X148817500Y-96647000D03*
X147092500Y-96647000D03*
G04 #@! TD*
D17*
G04 #@! TO.C,R14*
X163472500Y-123698000D03*
X161647500Y-123698000D03*
G04 #@! TD*
D16*
G04 #@! TO.C,C36*
X146050000Y-119761000D03*
X146050000Y-121486000D03*
G04 #@! TD*
D17*
G04 #@! TO.C,R4*
X153312500Y-132461000D03*
X151487500Y-132461000D03*
G04 #@! TD*
D15*
G04 #@! TO.C,R7*
X160020000Y-83589500D03*
X160020000Y-81764500D03*
G04 #@! TD*
D26*
G04 #@! TO.C,D3*
X154178000Y-87136000D03*
X154178000Y-88886000D03*
G04 #@! TD*
D15*
G04 #@! TO.C,R27*
X144399000Y-121536000D03*
X144399000Y-119711000D03*
G04 #@! TD*
D16*
G04 #@! TO.C,C22*
X159940750Y-136908500D03*
X159940750Y-138633500D03*
G04 #@! TD*
D18*
G04 #@! TO.C,C18*
X140234500Y-72009000D03*
X141959500Y-72009000D03*
G04 #@! TD*
D27*
G04 #@! TO.C,U6*
X157233500Y-90944000D03*
X157233500Y-91444000D03*
X157233500Y-91944000D03*
X157233500Y-92444000D03*
D28*
X157996000Y-92706500D03*
X158496000Y-92706500D03*
X158996000Y-92706500D03*
D27*
X159758500Y-92444000D03*
X159758500Y-91944000D03*
X159758500Y-91444000D03*
X159758500Y-90944000D03*
D28*
X158996000Y-90681500D03*
X158496000Y-90681500D03*
X157996000Y-90681500D03*
G04 #@! TD*
D25*
G04 #@! TO.C,C35*
X146050000Y-125322500D03*
X146050000Y-123597500D03*
G04 #@! TD*
D19*
G04 #@! TO.C,C3*
X143483500Y-111125000D03*
X141758500Y-111125000D03*
G04 #@! TD*
D18*
G04 #@! TO.C,C15*
X164961500Y-89091500D03*
X166686500Y-89091500D03*
G04 #@! TD*
G04 #@! TO.C,C17*
X140234500Y-70485000D03*
X141959500Y-70485000D03*
G04 #@! TD*
D14*
G04 #@! TO.C,H2*
X165100000Y-66675000D03*
G04 #@! TD*
D20*
G04 #@! TO.C,R18*
X140970000Y-123674500D03*
X140970000Y-125499500D03*
G04 #@! TD*
D18*
G04 #@! TO.C,C31*
X145314500Y-127889000D03*
X147039500Y-127889000D03*
G04 #@! TD*
G04 #@! TO.C,C9*
X153061500Y-96520000D03*
X154786500Y-96520000D03*
G04 #@! TD*
D16*
G04 #@! TO.C,C7*
X144780000Y-113310500D03*
X144780000Y-115035500D03*
G04 #@! TD*
D20*
G04 #@! TO.C,R20*
X140208000Y-119356500D03*
X140208000Y-121181500D03*
G04 #@! TD*
D29*
G04 #@! TO.C,U8*
X139786000Y-127790000D03*
X139786000Y-128290000D03*
X139786000Y-128790000D03*
X139786000Y-129290000D03*
X139786000Y-129790000D03*
X139786000Y-130290000D03*
X139786000Y-130790000D03*
X139786000Y-131290000D03*
D30*
X140486000Y-131990000D03*
X140986000Y-131990000D03*
X141486000Y-131990000D03*
X141986000Y-131990000D03*
X142486000Y-131990000D03*
X142986000Y-131990000D03*
D29*
X143686000Y-131290000D03*
X143686000Y-130790000D03*
X143686000Y-130290000D03*
X143686000Y-129790000D03*
X143686000Y-129290000D03*
X143686000Y-128790000D03*
X143686000Y-128290000D03*
X143686000Y-127790000D03*
D30*
X142986000Y-127090000D03*
X142486000Y-127090000D03*
X141986000Y-127090000D03*
X141486000Y-127090000D03*
X140986000Y-127090000D03*
X140486000Y-127090000D03*
D31*
X141736000Y-129540000D03*
G04 #@! TD*
D20*
G04 #@! TO.C,R21*
X138557000Y-119356500D03*
X138557000Y-121181500D03*
G04 #@! TD*
D19*
G04 #@! TO.C,C8*
X158215500Y-112014000D03*
X156490500Y-112014000D03*
G04 #@! TD*
D16*
G04 #@! TO.C,C1*
X137668000Y-95022500D03*
X137668000Y-96747500D03*
G04 #@! TD*
D32*
G04 #@! TO.C,J3*
X138811000Y-100086000D03*
D33*
X138811000Y-102626000D03*
X138811000Y-105166000D03*
X138811000Y-107706000D03*
G04 #@! TD*
D15*
G04 #@! TO.C,R25*
X144399000Y-135532500D03*
X144399000Y-133707500D03*
G04 #@! TD*
G04 #@! TO.C,R23*
X139954000Y-135405500D03*
X139954000Y-133580500D03*
G04 #@! TD*
D16*
G04 #@! TO.C,C34*
X146050000Y-133757500D03*
X146050000Y-135482500D03*
G04 #@! TD*
D25*
G04 #@! TO.C,C11*
X141859000Y-100811500D03*
X141859000Y-99086500D03*
G04 #@! TD*
D19*
G04 #@! TO.C,C6*
X148182500Y-115062000D03*
X146457500Y-115062000D03*
G04 #@! TD*
D34*
G04 #@! TO.C,D1*
X141972000Y-75057000D03*
X140222000Y-75057000D03*
G04 #@! TD*
D32*
G04 #@! TO.C,J4*
X166243000Y-112014000D03*
D33*
X166243000Y-109474000D03*
X166243000Y-106934000D03*
X166243000Y-104394000D03*
X166243000Y-101854000D03*
X166243000Y-99314000D03*
G04 #@! TD*
D19*
G04 #@! TO.C,C29*
X156056500Y-123698000D03*
X154331500Y-123698000D03*
G04 #@! TD*
D25*
G04 #@! TO.C,C14*
X160020000Y-86942000D03*
X160020000Y-85217000D03*
G04 #@! TD*
D35*
G04 #@! TO.C,U1*
X139555000Y-97135000D03*
X143655000Y-97135000D03*
X143655000Y-94635000D03*
X139555000Y-94635000D03*
G04 #@! TD*
D22*
G04 #@! TO.C,R10*
X140184500Y-79629000D03*
X142009500Y-79629000D03*
G04 #@! TD*
G04 #@! TO.C,R5*
X151487500Y-134112000D03*
X153312500Y-134112000D03*
G04 #@! TD*
D25*
G04 #@! TO.C,C21*
X159940750Y-135077500D03*
X159940750Y-133352500D03*
G04 #@! TD*
D15*
G04 #@! TO.C,FB1*
X141732000Y-104290500D03*
X141732000Y-102465500D03*
G04 #@! TD*
D18*
G04 #@! TO.C,C23*
X158014500Y-126746000D03*
X159739500Y-126746000D03*
G04 #@! TD*
D36*
G04 #@! TO.C,U5*
X152654000Y-71501000D03*
D37*
X144454000Y-65551000D03*
X144454000Y-67051000D03*
X144454000Y-68551000D03*
X144454000Y-70051000D03*
X144454000Y-71551000D03*
X144454000Y-73051000D03*
X144454000Y-74551000D03*
X144454000Y-76051000D03*
X144454000Y-77551000D03*
X144454000Y-79051000D03*
X160454000Y-79051000D03*
X160454000Y-77551000D03*
X160454000Y-76051000D03*
X160454000Y-74551000D03*
X160454000Y-73051000D03*
X160454000Y-71551000D03*
X160454000Y-70051000D03*
X160454000Y-68551000D03*
X160454000Y-67051000D03*
X160454000Y-65551000D03*
G04 #@! TD*
D19*
G04 #@! TO.C,C5*
X143483500Y-109474000D03*
X141758500Y-109474000D03*
G04 #@! TD*
D38*
G04 #@! TO.C,U9*
X147415000Y-92376000D03*
X148515000Y-92376000D03*
X149615000Y-92376000D03*
X150715000Y-92376000D03*
X151815000Y-92376000D03*
X151815000Y-82376000D03*
X150715000Y-82376000D03*
X149615000Y-82376000D03*
X148515000Y-82376000D03*
X147415000Y-82376000D03*
G04 #@! TD*
D15*
G04 #@! TO.C,R3*
X153416000Y-115720500D03*
X153416000Y-113895500D03*
G04 #@! TD*
D39*
G04 #@! TO.C,U2*
X149133819Y-98618519D03*
X148780266Y-98972072D03*
X148426713Y-99325625D03*
X148073159Y-99679179D03*
X147719606Y-100032732D03*
X147366052Y-100386286D03*
X147012499Y-100739839D03*
X146658946Y-101093392D03*
X146305392Y-101446946D03*
X145951839Y-101800499D03*
X145598286Y-102154052D03*
X145244732Y-102507606D03*
X144891179Y-102861159D03*
X144537625Y-103214713D03*
X144184072Y-103568266D03*
X143830519Y-103921819D03*
D40*
X143830519Y-106644181D03*
X144184072Y-106997734D03*
X144537625Y-107351287D03*
X144891179Y-107704841D03*
X145244732Y-108058394D03*
X145598286Y-108411948D03*
X145951839Y-108765501D03*
X146305392Y-109119054D03*
X146658946Y-109472608D03*
X147012499Y-109826161D03*
X147366052Y-110179714D03*
X147719606Y-110533268D03*
X148073159Y-110886821D03*
X148426713Y-111240375D03*
X148780266Y-111593928D03*
X149133819Y-111947481D03*
D39*
X151856181Y-111947481D03*
X152209734Y-111593928D03*
X152563287Y-111240375D03*
X152916841Y-110886821D03*
X153270394Y-110533268D03*
X153623948Y-110179714D03*
X153977501Y-109826161D03*
X154331054Y-109472608D03*
X154684608Y-109119054D03*
X155038161Y-108765501D03*
X155391714Y-108411948D03*
X155745268Y-108058394D03*
X156098821Y-107704841D03*
X156452375Y-107351287D03*
X156805928Y-106997734D03*
X157159481Y-106644181D03*
D40*
X157159481Y-103921819D03*
X156805928Y-103568266D03*
X156452375Y-103214713D03*
X156098821Y-102861159D03*
X155745268Y-102507606D03*
X155391714Y-102154052D03*
X155038161Y-101800499D03*
X154684608Y-101446946D03*
X154331054Y-101093392D03*
X153977501Y-100739839D03*
X153623948Y-100386286D03*
X153270394Y-100032732D03*
X152916841Y-99679179D03*
X152563287Y-99325625D03*
X152209734Y-98972072D03*
X151856181Y-98618519D03*
G04 #@! TD*
D17*
G04 #@! TO.C,R13*
X163472500Y-128270000D03*
X161647500Y-128270000D03*
G04 #@! TD*
D25*
G04 #@! TO.C,C10*
X143383000Y-100811500D03*
X143383000Y-99086500D03*
G04 #@! TD*
D41*
G04 #@! TO.C,U4*
X164423063Y-90601700D03*
X163922937Y-90601700D03*
D42*
X163423700Y-90850874D03*
X163423700Y-91351000D03*
X163423700Y-91851126D03*
D41*
X163922937Y-92100300D03*
X164423063Y-92100300D03*
D42*
X164922300Y-91851126D03*
X164922300Y-91351000D03*
X164922300Y-90850874D03*
G04 #@! TD*
D16*
G04 #@! TO.C,C19*
X161290000Y-92597500D03*
X161290000Y-94322500D03*
G04 #@! TD*
D20*
G04 #@! TO.C,R26*
X144399000Y-123547500D03*
X144399000Y-125372500D03*
G04 #@! TD*
D19*
G04 #@! TO.C,C26*
X167105500Y-125222000D03*
X165380500Y-125222000D03*
G04 #@! TD*
D15*
G04 #@! TO.C,R22*
X139954000Y-138961500D03*
X139954000Y-137136500D03*
G04 #@! TD*
G04 #@! TO.C,R28*
X154178000Y-92352500D03*
X154178000Y-90527500D03*
G04 #@! TD*
D18*
G04 #@! TO.C,C25*
X161697500Y-125222000D03*
X163422500Y-125222000D03*
G04 #@! TD*
D15*
G04 #@! TO.C,R30*
X154178000Y-84097500D03*
X154178000Y-82272500D03*
G04 #@! TD*
D18*
G04 #@! TO.C,C20*
X157887500Y-94361000D03*
X159612500Y-94361000D03*
G04 #@! TD*
D22*
G04 #@! TO.C,R29*
X145899500Y-93980000D03*
X147724500Y-93980000D03*
G04 #@! TD*
D25*
G04 #@! TO.C,C12*
X157099000Y-83516000D03*
X157099000Y-81791000D03*
G04 #@! TD*
D43*
G04 #@! TO.C,U3*
X162821000Y-82995000D03*
X162821000Y-83795000D03*
X162821000Y-84595000D03*
X162821000Y-85395000D03*
X162821000Y-86195000D03*
X162821000Y-86995000D03*
D44*
X163821000Y-86995000D03*
D43*
X164821000Y-86995000D03*
X164821000Y-86195000D03*
X164821000Y-85395000D03*
X164821000Y-84595000D03*
X164821000Y-83795000D03*
X164821000Y-82995000D03*
D44*
X163821000Y-82995000D03*
G04 #@! TD*
D20*
G04 #@! TO.C,R24*
X144399000Y-137517500D03*
X144399000Y-139342500D03*
G04 #@! TD*
D25*
G04 #@! TO.C,C13*
X157099000Y-87002000D03*
X157099000Y-85277000D03*
G04 #@! TD*
D22*
G04 #@! TO.C,R16*
X154281500Y-128270000D03*
X156106500Y-128270000D03*
G04 #@! TD*
G04 #@! TO.C,R6*
X156059500Y-99187000D03*
X157884500Y-99187000D03*
G04 #@! TD*
G04 #@! TO.C,R12*
X151487500Y-144399000D03*
X153312500Y-144399000D03*
G04 #@! TD*
D45*
G04 #@! TO.C,J2*
X148590000Y-143540000D03*
D46*
X148590000Y-140040000D03*
X148590000Y-136540000D03*
X148590000Y-133040000D03*
X148590000Y-129540000D03*
X148590000Y-126040000D03*
X148590000Y-122540000D03*
X148590000Y-119040000D03*
G04 #@! TD*
D45*
G04 #@! TO.C,J1*
X156210000Y-133040000D03*
D46*
X156210000Y-136540000D03*
X156210000Y-140040000D03*
X156210000Y-143540000D03*
G04 #@! TD*
%LPD*%
M02*
