G04 #@! TF.GenerationSoftware,KiCad,Pcbnew,7.0.8*
G04 #@! TF.CreationDate,2023-12-05T10:59:50-06:00*
G04 #@! TF.ProjectId,Flight_Board,466c6967-6874-45f4-926f-6172642e6b69,rev?*
G04 #@! TF.SameCoordinates,Original*
G04 #@! TF.FileFunction,Copper,L4,Bot*
G04 #@! TF.FilePolarity,Positive*
%FSLAX46Y46*%
G04 Gerber Fmt 4.6, Leading zero omitted, Abs format (unit mm)*
G04 Created by KiCad (PCBNEW 7.0.8) date 2023-12-05 10:59:50*
%MOMM*%
%LPD*%
G01*
G04 APERTURE LIST*
G04 #@! TA.AperFunction,ComponentPad*
%ADD10C,0.600000*%
G04 #@! TD*
G04 #@! TA.AperFunction,SMDPad,CuDef*
%ADD11R,2.550000X3.550000*%
G04 #@! TD*
G04 #@! TA.AperFunction,ComponentPad*
%ADD12R,2.400000X2.400000*%
G04 #@! TD*
G04 #@! TA.AperFunction,ComponentPad*
%ADD13C,2.400000*%
G04 #@! TD*
G04 #@! TA.AperFunction,SMDPad,CuDef*
%ADD14C,1.000000*%
G04 #@! TD*
G04 #@! TA.AperFunction,SMDPad,CuDef*
%ADD15R,0.800000X1.200000*%
G04 #@! TD*
G04 #@! TA.AperFunction,SMDPad,CuDef*
%ADD16R,1.500000X2.000000*%
G04 #@! TD*
G04 #@! TA.AperFunction,ComponentPad*
%ADD17R,1.700000X1.700000*%
G04 #@! TD*
G04 #@! TA.AperFunction,ComponentPad*
%ADD18O,1.700000X1.700000*%
G04 #@! TD*
G04 #@! TA.AperFunction,ViaPad*
%ADD19C,0.800000*%
G04 #@! TD*
G04 #@! TA.AperFunction,Conductor*
%ADD20C,0.250000*%
G04 #@! TD*
G04 APERTURE END LIST*
D10*
G04 #@! TO.P,U8,29,PAD*
G04 #@! TO.N,GND*
X140836000Y-128140000D03*
X140836000Y-128840000D03*
X140836000Y-129540000D03*
X140836000Y-130240000D03*
X140836000Y-130940000D03*
X141736000Y-128140000D03*
X141736000Y-128840000D03*
X141736000Y-129540000D03*
D11*
X141736000Y-129540000D03*
D10*
X141736000Y-130240000D03*
X141736000Y-130940000D03*
X142636000Y-128140000D03*
X142636000Y-128840000D03*
X142636000Y-129540000D03*
X142636000Y-130240000D03*
X142636000Y-130940000D03*
G04 #@! TD*
D12*
G04 #@! TO.P,J2,1,Pin_1*
G04 #@! TO.N,GND*
X148590000Y-143540000D03*
D13*
G04 #@! TO.P,J2,2,Pin_2*
G04 #@! TO.N,/PYRO4*
X148590000Y-140040000D03*
G04 #@! TO.P,J2,3,Pin_3*
G04 #@! TO.N,GND*
X148590000Y-136540000D03*
G04 #@! TO.P,J2,4,Pin_4*
G04 #@! TO.N,/PYRO3*
X148590000Y-133040000D03*
G04 #@! TO.P,J2,5,Pin_5*
G04 #@! TO.N,GND*
X148590000Y-129540000D03*
G04 #@! TO.P,J2,6,Pin_6*
G04 #@! TO.N,/PYRO2*
X148590000Y-126040000D03*
G04 #@! TO.P,J2,7,Pin_7*
G04 #@! TO.N,GND*
X148590000Y-122540000D03*
G04 #@! TO.P,J2,8,Pin_8*
G04 #@! TO.N,/PYRO1*
X148590000Y-119040000D03*
G04 #@! TD*
D14*
G04 #@! TO.P,TP11,1,1*
G04 #@! TO.N,/Accelerometer/SCL*
X163195000Y-77470000D03*
G04 #@! TD*
G04 #@! TO.P,TP3,1,1*
G04 #@! TO.N,GND*
X159766000Y-107823000D03*
G04 #@! TD*
G04 #@! TO.P,TP10,1,1*
G04 #@! TO.N,/Accelerometer/SDA*
X167513000Y-77470000D03*
G04 #@! TD*
G04 #@! TO.P,TP8,1,1*
G04 #@! TO.N,/CS1*
X155829000Y-112395000D03*
G04 #@! TD*
G04 #@! TO.P,TP5,1,1*
G04 #@! TO.N,/Barometer/MISO*
X162433000Y-90297000D03*
G04 #@! TD*
D15*
G04 #@! TO.P,J5,1,DAT2*
G04 #@! TO.N,/MicroSD/SDIO_D2*
X163372000Y-120438000D03*
G04 #@! TO.P,J5,2,CD/DAT3*
G04 #@! TO.N,/MicroSD/SDIO_D3*
X162272000Y-120438000D03*
G04 #@! TO.P,J5,3,CMD*
G04 #@! TO.N,/MicroSD/SDIO_CMD*
X161172000Y-120438000D03*
G04 #@! TO.P,J5,4,VDD*
G04 #@! TO.N,+3.3V*
X160072000Y-120438000D03*
G04 #@! TO.P,J5,5,CLK*
G04 #@! TO.N,/MicroSD/SDIO_CLK*
X158972000Y-120438000D03*
G04 #@! TO.P,J5,6,VSS*
G04 #@! TO.N,GND*
X157872000Y-120438000D03*
G04 #@! TO.P,J5,7,DAT0*
G04 #@! TO.N,/MicroSD/SDIO_D0*
X156772000Y-120438000D03*
G04 #@! TO.P,J5,8,DAT1*
G04 #@! TO.N,/MicroSD/SDIO_D1*
X155672000Y-120438000D03*
D16*
G04 #@! TO.P,J5,9,SHIELD*
G04 #@! TO.N,GND*
X153202000Y-118238000D03*
G04 #@! TO.P,J5,10,SHIELD*
X153202000Y-126438000D03*
G04 #@! TO.P,J5,11,SHIELD*
X167092000Y-126438000D03*
G04 #@! TO.P,J5,12,SHIELD*
X167092000Y-118238000D03*
G04 #@! TD*
D14*
G04 #@! TO.P,TP9,1,1*
G04 #@! TO.N,/CS2*
X160274000Y-112903000D03*
G04 #@! TD*
D17*
G04 #@! TO.P,J3,1,Pin_1*
G04 #@! TO.N,+3.3V*
X138811000Y-102997000D03*
D18*
G04 #@! TO.P,J3,2,Pin_2*
G04 #@! TO.N,/Microcontroller/UART_TX*
X138811000Y-105537000D03*
G04 #@! TO.P,J3,3,Pin_3*
G04 #@! TO.N,/Microcontroller/UART_RX*
X138811000Y-108077000D03*
G04 #@! TO.P,J3,4,Pin_4*
G04 #@! TO.N,GND*
X138811000Y-110617000D03*
G04 #@! TD*
D14*
G04 #@! TO.P,TP7,1,1*
G04 #@! TO.N,/Barometer/SCK*
X159639000Y-93472000D03*
G04 #@! TD*
D17*
G04 #@! TO.P,J4,1,Pin_1*
G04 #@! TO.N,+3.3V*
X166243000Y-112014000D03*
D18*
G04 #@! TO.P,J4,2,Pin_2*
G04 #@! TO.N,/Microcontroller/SWCLK*
X166243000Y-109474000D03*
G04 #@! TO.P,J4,3,Pin_3*
G04 #@! TO.N,GND*
X166243000Y-106934000D03*
G04 #@! TO.P,J4,4,Pin_4*
G04 #@! TO.N,/Microcontroller/SWDIO*
X166243000Y-104394000D03*
G04 #@! TO.P,J4,5,Pin_5*
G04 #@! TO.N,/Microcontroller/NRST*
X166243000Y-101854000D03*
G04 #@! TO.P,J4,6,Pin_6*
G04 #@! TO.N,/Microcontroller/SWO*
X166243000Y-99314000D03*
G04 #@! TD*
D14*
G04 #@! TO.P,TP2,1,1*
G04 #@! TO.N,GND*
X164846000Y-73406000D03*
G04 #@! TD*
D12*
G04 #@! TO.P,J1,1,Pin_1*
G04 #@! TO.N,/VBAT*
X156210000Y-133040000D03*
D13*
G04 #@! TO.P,J1,2,Pin_2*
G04 #@! TO.N,GND*
X156210000Y-136540000D03*
G04 #@! TO.P,J1,3,Pin_3*
G04 #@! TO.N,/VPYRO*
X156210000Y-140040000D03*
G04 #@! TO.P,J1,4,Pin_4*
G04 #@! TO.N,GND*
X156210000Y-143540000D03*
G04 #@! TD*
D14*
G04 #@! TO.P,TP6,1,1*
G04 #@! TO.N,/Barometer/MOSI*
X163322000Y-87884000D03*
G04 #@! TD*
D19*
G04 #@! TO.N,+3.3V*
X163576000Y-74803000D03*
X159766000Y-109982000D03*
X160147000Y-117602000D03*
X155448000Y-130048000D03*
X144907000Y-110998000D03*
X158115000Y-138176000D03*
X159766000Y-122428000D03*
X167146500Y-89154000D03*
X151219500Y-93726000D03*
X151324800Y-117661200D03*
X167386000Y-85090000D03*
X147701000Y-113538000D03*
X146595500Y-95250000D03*
X164973000Y-128270000D03*
X157861000Y-82042000D03*
X138938000Y-95504000D03*
X141732000Y-106045000D03*
X155913500Y-96298257D03*
X163830000Y-122301000D03*
X141097000Y-136144000D03*
X165984701Y-95508299D03*
X152400000Y-145415000D03*
X138684000Y-74295000D03*
G04 #@! TO.N,GND*
X163577750Y-138279000D03*
X164466750Y-138279000D03*
X157861000Y-122428000D03*
X161476201Y-99246201D03*
X145854497Y-113157000D03*
X146838500Y-97917000D03*
X165100000Y-126746000D03*
X159893000Y-129540000D03*
X165355750Y-133707000D03*
X167513000Y-74676000D03*
X159607500Y-83566000D03*
X158623000Y-77551000D03*
X147193000Y-79883000D03*
X158623000Y-67056000D03*
X167133750Y-138279000D03*
X166244750Y-138279000D03*
X146558000Y-76073000D03*
X153162000Y-122428000D03*
X166244750Y-133707000D03*
X167133750Y-137390000D03*
X167133750Y-134596000D03*
X142494000Y-98298000D03*
X157872000Y-118872000D03*
X164466750Y-133707000D03*
X167267681Y-93844319D03*
X157480000Y-112395000D03*
X143891000Y-112141000D03*
X163449000Y-89408000D03*
X146558000Y-68580000D03*
X159803500Y-96930542D03*
X167386000Y-86741000D03*
X165355750Y-138279000D03*
X167133750Y-133707000D03*
X138303000Y-138938000D03*
X154813000Y-90424000D03*
X167133750Y-136501000D03*
X156845000Y-129667000D03*
X167133750Y-135485000D03*
X137922000Y-97028000D03*
X163577750Y-133707000D03*
G04 #@! TO.N,/Microcontroller/NRST*
X143002000Y-113538500D03*
X159766000Y-114808000D03*
X151384000Y-118745000D03*
X145381202Y-104677355D03*
X163576000Y-113792000D03*
X143002000Y-105918000D03*
X164084000Y-102108000D03*
X147130551Y-103188551D03*
X143256000Y-116337500D03*
G04 #@! TO.N,/MicroSD/SDIO_CLK*
X158877000Y-121793000D03*
X158972000Y-117602000D03*
G04 #@! TO.N,/MicroSD/SDIO_CMD*
X160909000Y-121920000D03*
X162560000Y-115570000D03*
G04 #@! TO.N,/MicroSD/SDIO_D3*
X162306000Y-121920000D03*
X162272000Y-116967000D03*
G04 #@! TO.N,/MicroSD/SDIO_D2*
X163372000Y-118999000D03*
X165354000Y-121793000D03*
G04 #@! TO.N,/MicroSD/SDIO_D1*
X157188500Y-115316000D03*
X155448000Y-122428000D03*
G04 #@! TO.N,/MicroSD/SDIO_D0*
X156772000Y-116427811D03*
X156718000Y-121793000D03*
G04 #@! TO.N,/VPYRO*
X145542000Y-129921000D03*
X144399000Y-122555000D03*
X145542000Y-129032000D03*
X144399000Y-136525000D03*
X144780000Y-129540000D03*
G04 #@! TO.N,/Microcontroller/SWCLK*
X160142701Y-104017299D03*
G04 #@! TO.N,/Microcontroller/SWDIO*
X157009500Y-109982000D03*
G04 #@! TO.N,/Microcontroller/VBAT_ADC*
X142875000Y-102235000D03*
X148700503Y-113538000D03*
G04 #@! TO.N,/Accelerometer/SCL*
X163195000Y-97504030D03*
X164719000Y-80518000D03*
G04 #@! TO.N,/Accelerometer/SDA*
X165806600Y-80591300D03*
X162402791Y-96550287D03*
G04 #@! TO.N,/GPS/TXD*
X141351000Y-80667071D03*
X157988000Y-87630000D03*
G04 #@! TO.N,/GPS/RXD*
X140208000Y-81026000D03*
X157734000Y-86487000D03*
G04 #@! TO.N,/Current Switch/EN1*
X145071500Y-97746738D03*
X139700000Y-99695000D03*
X139700000Y-98044000D03*
X142240000Y-112141000D03*
G04 #@! TO.N,/Current Switch/EN2*
X140716000Y-108077000D03*
X145488256Y-99693059D03*
G04 #@! TO.N,/Current Switch/EN3*
X144633000Y-99080000D03*
X138049000Y-99695000D03*
G04 #@! TO.N,/Current Switch/EN4*
X138138500Y-100711000D03*
X137160000Y-112903000D03*
G04 #@! TO.N,/LoRa/LORA_BUSY*
X154745460Y-94547460D03*
X149483299Y-106049299D03*
X155650000Y-93345000D03*
G04 #@! TO.N,/Barometer/MISO*
X151499918Y-110001680D03*
X161186389Y-89624500D03*
X158795500Y-89833758D03*
G04 #@! TO.N,/LoRa/LORA_MISO*
X150183636Y-101519424D03*
X154305000Y-85217000D03*
G04 #@! TO.N,/Accelerometer/INT1*
X159249402Y-103124000D03*
X166457985Y-86115794D03*
G04 #@! TO.N,/LoRa/LORA_SCK*
X149479000Y-102616000D03*
X153035000Y-83439000D03*
G04 #@! TO.N,/LoRa/LORA_MOSI*
X154813000Y-86741000D03*
X147574000Y-106807000D03*
G04 #@! TO.N,/LoRa/LORA_NSS*
X155575000Y-83312000D03*
X149352000Y-100965000D03*
G04 #@! TO.N,/LoRa/LORA_RST*
X153538701Y-95753701D03*
X148467299Y-106176299D03*
G04 #@! TO.N,/LoRa/LORA_DIO1*
X156374500Y-92456000D03*
X150334533Y-106934000D03*
G04 #@! TO.N,/IMU/INT1*
X156882500Y-95653028D03*
X150779732Y-108234732D03*
G04 #@! TO.N,/Barometer/INT*
X164846000Y-108966000D03*
X153289000Y-113425000D03*
X149987000Y-109316275D03*
X150241000Y-112649000D03*
G04 #@! TO.N,/Current Switch/~{ST2}*
X137160000Y-114554000D03*
X154128639Y-105860744D03*
G04 #@! TO.N,/Current Switch/~{ST3}*
X158682899Y-105723899D03*
X138285474Y-129565500D03*
G04 #@! TO.N,/Current Switch/~{ST4}*
X137287000Y-128905000D03*
X154683701Y-104411875D03*
G04 #@! TO.N,/Barometer/MOSI*
X162052000Y-88862037D03*
X159357142Y-88862500D03*
X151892000Y-107315000D03*
G04 #@! TO.N,/Barometer/SCK*
X152997500Y-108765768D03*
X159041500Y-94615000D03*
G04 #@! TO.N,/Current Switch/~{ST1}*
X137893500Y-116332000D03*
X154967639Y-106842755D03*
G04 #@! TO.N,/CS1*
X153924000Y-112559329D03*
X166447951Y-96433451D03*
G04 #@! TO.N,/CS2*
X162814000Y-102362000D03*
X155575000Y-115443000D03*
X163830000Y-100080299D03*
X160528000Y-92075000D03*
X163322000Y-112776000D03*
X162301701Y-98420701D03*
G04 #@! TD*
D20*
G04 #@! TO.N,+3.3V*
X160072000Y-117677000D02*
X160072000Y-120438000D01*
X160147000Y-117602000D02*
X160072000Y-117677000D01*
X160072000Y-120438000D02*
X160072000Y-122122000D01*
X160072000Y-122122000D02*
X159766000Y-122428000D01*
G04 #@! TO.N,GND*
X165354000Y-107823000D02*
X166243000Y-106934000D01*
X159766000Y-107823000D02*
X165354000Y-107823000D01*
X164846000Y-73406000D02*
X166243000Y-73406000D01*
X166243000Y-73406000D02*
X167513000Y-74676000D01*
X157872000Y-118872000D02*
X157872000Y-120438000D01*
G04 #@! TO.N,/Microcontroller/NRST*
X143002000Y-113538500D02*
X143002000Y-105918000D01*
X166243000Y-101854000D02*
X164338000Y-101854000D01*
X146870006Y-103188551D02*
X145381202Y-104677355D01*
X150159119Y-117139119D02*
X150159119Y-117520119D01*
X147130551Y-103188551D02*
X146870006Y-103188551D01*
X162560000Y-114808000D02*
X159766000Y-114808000D01*
X163576000Y-113792000D02*
X162560000Y-114808000D01*
X149357500Y-116337500D02*
X150159119Y-117139119D01*
X150159119Y-117520119D02*
X151384000Y-118745000D01*
X143256000Y-116337500D02*
X149357500Y-116337500D01*
X164338000Y-101854000D02*
X164084000Y-102108000D01*
G04 #@! TO.N,/MicroSD/SDIO_CLK*
X158877000Y-121793000D02*
X158877000Y-120533000D01*
X158972000Y-117602000D02*
X158972000Y-120438000D01*
X158877000Y-120533000D02*
X158972000Y-120438000D01*
G04 #@! TO.N,/MicroSD/SDIO_CMD*
X161172000Y-116958000D02*
X161172000Y-120438000D01*
X161172000Y-121657000D02*
X160909000Y-121920000D01*
X161172000Y-120438000D02*
X161172000Y-121657000D01*
X162560000Y-115570000D02*
X161172000Y-116958000D01*
G04 #@! TO.N,/MicroSD/SDIO_D3*
X162272000Y-116967000D02*
X162272000Y-120438000D01*
X162306000Y-121920000D02*
X162272000Y-121886000D01*
X162272000Y-121886000D02*
X162272000Y-120438000D01*
G04 #@! TO.N,/MicroSD/SDIO_D2*
X165354000Y-121793000D02*
X163999000Y-120438000D01*
X163999000Y-120438000D02*
X163372000Y-120438000D01*
X163372000Y-118999000D02*
X163372000Y-120438000D01*
G04 #@! TO.N,/MicroSD/SDIO_D1*
X156858506Y-115316000D02*
X155672000Y-116502506D01*
X157188500Y-115316000D02*
X156858506Y-115316000D01*
X155672000Y-116502506D02*
X155672000Y-120438000D01*
X155448000Y-122428000D02*
X155448000Y-120662000D01*
X155448000Y-120662000D02*
X155672000Y-120438000D01*
G04 #@! TO.N,/MicroSD/SDIO_D0*
X156772000Y-116427811D02*
X156772000Y-120438000D01*
X156772000Y-120438000D02*
X156772000Y-121739000D01*
X156772000Y-121739000D02*
X156718000Y-121793000D01*
G04 #@! TO.N,/Microcontroller/SWCLK*
X166243000Y-109474000D02*
X166243000Y-108839000D01*
X160396701Y-104017299D02*
X161290000Y-103124000D01*
X167640000Y-108712000D02*
X166878000Y-109474000D01*
X167132000Y-103124000D02*
X167640000Y-103632000D01*
X161290000Y-103124000D02*
X167132000Y-103124000D01*
X167640000Y-103632000D02*
X167640000Y-108712000D01*
X160142701Y-104017299D02*
X160396701Y-104017299D01*
X166878000Y-109474000D02*
X166243000Y-109474000D01*
G04 #@! TO.N,/Microcontroller/SWDIO*
X166243000Y-104394000D02*
X161036000Y-104394000D01*
X160274000Y-105156000D02*
X160274000Y-105793792D01*
X161036000Y-104394000D02*
X160274000Y-105156000D01*
X157009500Y-109058292D02*
X157009500Y-109982000D01*
X160274000Y-105793792D02*
X157009500Y-109058292D01*
G04 #@! TO.N,/Microcontroller/VBAT_ADC*
X143727000Y-108294000D02*
X143727000Y-103087000D01*
X148426000Y-113263497D02*
X148426000Y-112993000D01*
X148700503Y-113538000D02*
X148426000Y-113263497D01*
X143727000Y-103087000D02*
X142875000Y-102235000D01*
X148426000Y-112993000D02*
X143727000Y-108294000D01*
G04 #@! TO.N,/Accelerometer/SCL*
X163195000Y-78994000D02*
X164719000Y-80518000D01*
X165158000Y-88840604D02*
X165158000Y-80957000D01*
X163195000Y-77470000D02*
X163195000Y-78994000D01*
X163195000Y-97504030D02*
X162227225Y-97504030D01*
X164904000Y-89131805D02*
X164904000Y-89094604D01*
X162227225Y-97504030D02*
X161036000Y-96312805D01*
X164904000Y-89094604D02*
X165158000Y-88840604D01*
X161036000Y-96312805D02*
X161036000Y-92999805D01*
X161036000Y-92999805D02*
X164904000Y-89131805D01*
X165158000Y-80957000D02*
X164719000Y-80518000D01*
G04 #@! TO.N,/Accelerometer/SDA*
X165354000Y-89318201D02*
X165354000Y-89281000D01*
X161544000Y-95691496D02*
X161544000Y-93128201D01*
X165354000Y-89281000D02*
X165677000Y-88958000D01*
X167513000Y-78884900D02*
X165806600Y-80591300D01*
X167513000Y-77470000D02*
X167513000Y-78884900D01*
X165677000Y-88958000D02*
X165677000Y-80720900D01*
X165677000Y-80720900D02*
X165806600Y-80591300D01*
X161544000Y-93128201D02*
X165354000Y-89318201D01*
X162402791Y-96550287D02*
X161544000Y-95691496D01*
G04 #@! TO.N,/GPS/TXD*
X141351500Y-80666571D02*
X141351000Y-80667071D01*
X159171263Y-87630000D02*
X160782000Y-86019263D01*
X160782000Y-82423000D02*
X159025571Y-80666571D01*
X160782000Y-86019263D02*
X160782000Y-82423000D01*
X159025571Y-80666571D02*
X141351500Y-80666571D01*
X157988000Y-87630000D02*
X159171263Y-87630000D01*
G04 #@! TO.N,/GPS/RXD*
X159677867Y-86487000D02*
X160332000Y-85832867D01*
X157734000Y-86487000D02*
X159677867Y-86487000D01*
X160332000Y-82609395D02*
X158875605Y-81153000D01*
X140573571Y-81391571D02*
X140208000Y-81026000D01*
X142799846Y-81391571D02*
X140573571Y-81391571D01*
X143038417Y-81153000D02*
X142799846Y-81391571D01*
X158875605Y-81153000D02*
X143038417Y-81153000D01*
X160332000Y-85832867D02*
X160332000Y-82609395D01*
G04 #@! TO.N,/Current Switch/EN1*
X144897762Y-97573000D02*
X140171000Y-97573000D01*
X139700000Y-99695000D02*
X139986000Y-99981000D01*
X139986000Y-109633000D02*
X142367000Y-112014000D01*
X140171000Y-97573000D02*
X139700000Y-98044000D01*
X142367000Y-112014000D02*
X142240000Y-112141000D01*
X145071500Y-97746738D02*
X144897762Y-97573000D01*
X139986000Y-99981000D02*
X139986000Y-109633000D01*
G04 #@! TO.N,/Current Switch/EN2*
X145488256Y-99693059D02*
X144724315Y-100457000D01*
X144724315Y-100457000D02*
X141224000Y-100457000D01*
X140716000Y-100965000D02*
X141224000Y-100457000D01*
X140716000Y-108077000D02*
X140716000Y-100965000D01*
G04 #@! TO.N,/Current Switch/EN3*
X138938000Y-98806000D02*
X138049000Y-99695000D01*
X141351000Y-98806000D02*
X138938000Y-98806000D01*
X144633000Y-99080000D02*
X144576000Y-99023000D01*
X141568000Y-99023000D02*
X141351000Y-98806000D01*
X144576000Y-99023000D02*
X141568000Y-99023000D01*
G04 #@! TO.N,/Current Switch/EN4*
X137287000Y-112776000D02*
X137160000Y-112903000D01*
X137287000Y-101562500D02*
X137287000Y-112776000D01*
X138138500Y-100711000D02*
X137287000Y-101562500D01*
G04 #@! TO.N,/LoRa/LORA_BUSY*
X155650000Y-93642920D02*
X155650000Y-93345000D01*
X154738500Y-94554420D02*
X154745460Y-94547460D01*
X154738500Y-100126798D02*
X154738500Y-94554420D01*
X149483299Y-105381999D02*
X154738500Y-100126798D01*
X149483299Y-106049299D02*
X149483299Y-105381999D01*
X154745460Y-94547460D02*
X155650000Y-93642920D01*
G04 #@! TO.N,/Barometer/MISO*
X152654000Y-104756882D02*
X158242000Y-99168882D01*
X158782598Y-89846660D02*
X158795500Y-89833758D01*
X152654000Y-107696000D02*
X152654000Y-104756882D01*
X158242000Y-94107000D02*
X158782598Y-93566402D01*
X158967258Y-89662000D02*
X161148889Y-89662000D01*
X161858889Y-90297000D02*
X161186389Y-89624500D01*
X158782598Y-93566402D02*
X158782598Y-89846660D01*
X161148889Y-89662000D02*
X161186389Y-89624500D01*
X158795500Y-89833758D02*
X158967258Y-89662000D01*
X158242000Y-99168882D02*
X158242000Y-94107000D01*
X162433000Y-90297000D02*
X161858889Y-90297000D01*
X151499918Y-110001680D02*
X152273000Y-109228598D01*
X152273000Y-108077000D02*
X152654000Y-107696000D01*
X152273000Y-109228598D02*
X152273000Y-108077000D01*
G04 #@! TO.N,/LoRa/LORA_MISO*
X154088000Y-93437792D02*
X154088000Y-85434000D01*
X152363701Y-95162091D02*
X154088000Y-93437792D01*
X150183636Y-101519424D02*
X150183636Y-101440864D01*
X152363701Y-99260799D02*
X152363701Y-95162091D01*
X154088000Y-85434000D02*
X154305000Y-85217000D01*
X150183636Y-101440864D02*
X152363701Y-99260799D01*
G04 #@! TO.N,/Accelerometer/INT1*
X159760994Y-103124000D02*
X159249402Y-103124000D01*
X167259000Y-94860943D02*
X167259000Y-96647000D01*
X166407000Y-86166779D02*
X166407000Y-94008943D01*
X164741338Y-98143656D02*
X159760994Y-103124000D01*
X166457985Y-86115794D02*
X166407000Y-86166779D01*
X166407000Y-94008943D02*
X167259000Y-94860943D01*
X165762344Y-98143656D02*
X164741338Y-98143656D01*
X167259000Y-96647000D02*
X165762344Y-98143656D01*
G04 #@! TO.N,/LoRa/LORA_SCK*
X149479000Y-102616000D02*
X148082000Y-101219000D01*
X148082000Y-101219000D02*
X148082000Y-98171000D01*
X148082000Y-98171000D02*
X153035000Y-93218000D01*
X153035000Y-93218000D02*
X153035000Y-83439000D01*
G04 #@! TO.N,/LoRa/LORA_MOSI*
X154538000Y-93729097D02*
X154538000Y-93012330D01*
X152813701Y-95453396D02*
X154538000Y-93729097D01*
X154538000Y-93012330D02*
X155682904Y-91867426D01*
X147574000Y-106018506D02*
X152813701Y-100778805D01*
X155682904Y-87610904D02*
X154813000Y-86741000D01*
X155682904Y-91867426D02*
X155682904Y-87610904D01*
X152813701Y-100778805D02*
X152813701Y-95453396D01*
X147574000Y-106807000D02*
X147574000Y-106018506D01*
G04 #@! TO.N,/LoRa/LORA_NSS*
X153485000Y-93404396D02*
X148717000Y-98172396D01*
X153485000Y-85011695D02*
X153485000Y-93404396D01*
X155575000Y-83312000D02*
X155184695Y-83312000D01*
X155184695Y-83312000D02*
X153485000Y-85011695D01*
X148717000Y-100330000D02*
X149352000Y-100965000D01*
X148717000Y-98172396D02*
X148717000Y-100330000D01*
G04 #@! TO.N,/LoRa/LORA_RST*
X153543000Y-100685902D02*
X153543000Y-95758000D01*
X148467299Y-105761603D02*
X153543000Y-100685902D01*
X153543000Y-95758000D02*
X153538701Y-95753701D01*
X148467299Y-106176299D02*
X148467299Y-105761603D01*
G04 #@! TO.N,/LoRa/LORA_DIO1*
X150334533Y-105167161D02*
X155188500Y-100313194D01*
X155188500Y-95627195D02*
X156374500Y-94441195D01*
X155188500Y-100313194D02*
X155188500Y-95627195D01*
X150334533Y-106934000D02*
X150334533Y-105167161D01*
X156374500Y-94441195D02*
X156374500Y-92456000D01*
G04 #@! TO.N,/IMU/INT1*
X150779732Y-108234732D02*
X151130000Y-107884464D01*
X156845000Y-95690528D02*
X156882500Y-95653028D01*
X151130000Y-107884464D02*
X151130000Y-105008090D01*
X156845000Y-99293090D02*
X156845000Y-95690528D01*
X151130000Y-105008090D02*
X156845000Y-99293090D01*
G04 #@! TO.N,/Barometer/INT*
X164084000Y-109728000D02*
X164846000Y-108966000D01*
X149987000Y-112395000D02*
X150241000Y-112649000D01*
X153289000Y-113425000D02*
X158482000Y-113425000D01*
X149987000Y-109316275D02*
X149987000Y-112395000D01*
X162179000Y-109728000D02*
X164084000Y-109728000D01*
X158482000Y-113425000D02*
X162179000Y-109728000D01*
G04 #@! TO.N,/Current Switch/~{ST2}*
X153797000Y-106988089D02*
X153797000Y-108991573D01*
X150966000Y-111822573D02*
X150966000Y-113319604D01*
X154128639Y-105860744D02*
X154128639Y-106656450D01*
X137451000Y-114263000D02*
X137160000Y-114554000D01*
X154128639Y-106656450D02*
X153797000Y-106988089D01*
X150966000Y-113319604D02*
X150022604Y-114263000D01*
X153797000Y-108991573D02*
X150966000Y-111822573D01*
X150022604Y-114263000D02*
X137451000Y-114263000D01*
G04 #@! TO.N,/Current Switch/~{ST3}*
X158682899Y-105723899D02*
X157929497Y-105723899D01*
X152316000Y-112381761D02*
X152316000Y-113878792D01*
X140274201Y-115613000D02*
X138285474Y-117601727D01*
X157929497Y-105723899D02*
X155834500Y-107818896D01*
X138285474Y-117601727D02*
X138285474Y-129565500D01*
X150581792Y-115613000D02*
X140274201Y-115613000D01*
X155834500Y-107818896D02*
X155834500Y-108863261D01*
X155834500Y-108863261D02*
X152316000Y-112381761D01*
X152316000Y-113878792D02*
X150581792Y-115613000D01*
G04 #@! TO.N,/Current Switch/~{ST4}*
X156718000Y-106299000D02*
X155384500Y-107632500D01*
X150395396Y-115163000D02*
X140087805Y-115163000D01*
X140087805Y-115163000D02*
X137287000Y-117963805D01*
X155384500Y-108676865D02*
X151866000Y-112195365D01*
X156718000Y-105447500D02*
X156718000Y-106299000D01*
X151866000Y-113692396D02*
X150395396Y-115163000D01*
X154683701Y-104411875D02*
X155682375Y-104411875D01*
X151866000Y-112195365D02*
X151866000Y-113692396D01*
X155682375Y-104411875D02*
X156718000Y-105447500D01*
X155384500Y-107632500D02*
X155384500Y-108676865D01*
X137287000Y-117963805D02*
X137287000Y-128905000D01*
G04 #@! TO.N,/Barometer/MOSI*
X158057598Y-89380061D02*
X158575622Y-88862037D01*
X151892000Y-104882486D02*
X157607000Y-99167486D01*
X163322000Y-87884000D02*
X163030037Y-87884000D01*
X157607000Y-99167486D02*
X157607000Y-92964000D01*
X163030037Y-87884000D02*
X162052000Y-88862037D01*
X151892000Y-107315000D02*
X151892000Y-104882486D01*
X158057598Y-92513402D02*
X158057598Y-89380061D01*
X157607000Y-92964000D02*
X158057598Y-92513402D01*
X158575622Y-88862037D02*
X162052000Y-88862037D01*
G04 #@! TO.N,/Barometer/SCK*
X159639000Y-93472000D02*
X159639000Y-94017500D01*
X159041500Y-99005778D02*
X159041500Y-94615000D01*
X152997500Y-108765768D02*
X153289000Y-108474268D01*
X159639000Y-94017500D02*
X159041500Y-94615000D01*
X153289000Y-104758278D02*
X159041500Y-99005778D01*
X153289000Y-108474268D02*
X153289000Y-104758278D01*
G04 #@! TO.N,/Current Switch/~{ST1}*
X154247000Y-107563394D02*
X154247000Y-109177969D01*
X139901409Y-114713000D02*
X138282409Y-116332000D01*
X151416000Y-113506000D02*
X150209000Y-114713000D01*
X154247000Y-109177969D02*
X151416000Y-112008969D01*
X150209000Y-114713000D02*
X139901409Y-114713000D01*
X151416000Y-112008969D02*
X151416000Y-113506000D01*
X154967639Y-106842755D02*
X154247000Y-107563394D01*
X138282409Y-116332000D02*
X137893500Y-116332000D01*
G04 #@! TO.N,/CS1*
X164053344Y-97693656D02*
X159348000Y-102399000D01*
X158949097Y-102399000D02*
X158496000Y-102852097D01*
X154013671Y-112649000D02*
X153924000Y-112559329D01*
X166447951Y-96433451D02*
X165187746Y-97693656D01*
X159348000Y-102399000D02*
X158949097Y-102399000D01*
X155829000Y-112395000D02*
X155575000Y-112649000D01*
X165187746Y-97693656D02*
X164053344Y-97693656D01*
X153924000Y-111507396D02*
X153924000Y-112559329D01*
X158496000Y-103395903D02*
X159512000Y-104411903D01*
X155575000Y-112649000D02*
X154013671Y-112649000D01*
X159512000Y-104411903D02*
X159512000Y-105919396D01*
X159512000Y-105919396D02*
X153924000Y-111507396D01*
X158496000Y-102852097D02*
X158496000Y-103395903D01*
G04 #@! TO.N,/CS2*
X162301701Y-98420701D02*
X161859902Y-98420701D01*
X163830000Y-100080299D02*
X162814000Y-101096299D01*
X160528000Y-92075000D02*
X160528000Y-92202000D01*
X162814000Y-101096299D02*
X162814000Y-102362000D01*
X155575000Y-115443000D02*
X156464000Y-114554000D01*
X162814000Y-112776000D02*
X163322000Y-112776000D01*
X160401000Y-112776000D02*
X160274000Y-112903000D01*
X160528000Y-97088799D02*
X160528000Y-92075000D01*
X161859902Y-98420701D02*
X160528000Y-97088799D01*
X158623000Y-114554000D02*
X160401000Y-112776000D01*
X156464000Y-114554000D02*
X158623000Y-114554000D01*
X162814000Y-112776000D02*
X160401000Y-112776000D01*
G04 #@! TD*
G04 #@! TA.AperFunction,Conductor*
G04 #@! TO.N,GND*
G36*
X165989000Y-131058382D02*
G01*
X168148000Y-131064000D01*
X168148000Y-143728512D01*
X168143154Y-143762840D01*
X168108619Y-143882710D01*
X168106924Y-143887767D01*
X168046687Y-144044689D01*
X167981269Y-144202620D01*
X167979231Y-144207041D01*
X167902349Y-144357933D01*
X167820035Y-144506868D01*
X167817768Y-144510646D01*
X167725099Y-144653344D01*
X167626833Y-144791836D01*
X167624450Y-144794977D01*
X167517974Y-144926463D01*
X167516021Y-144928759D01*
X167403861Y-145054267D01*
X167401471Y-145056795D01*
X167281795Y-145176471D01*
X167279267Y-145178861D01*
X167153759Y-145291021D01*
X167151463Y-145292974D01*
X167019977Y-145399450D01*
X167016836Y-145401833D01*
X166878344Y-145500099D01*
X166735646Y-145592768D01*
X166731868Y-145595035D01*
X166582933Y-145677349D01*
X166432041Y-145754231D01*
X166427620Y-145756269D01*
X166269689Y-145821687D01*
X166112763Y-145881925D01*
X166107706Y-145883620D01*
X165941665Y-145931456D01*
X165781536Y-145974362D01*
X165775872Y-145975599D01*
X165600727Y-146005357D01*
X165442215Y-146030464D01*
X165435988Y-146031130D01*
X165233242Y-146042517D01*
X165131979Y-146047824D01*
X165101620Y-146049415D01*
X165098377Y-146049500D01*
X158366000Y-146049500D01*
X158298961Y-146029815D01*
X158253206Y-145977011D01*
X158242000Y-145925500D01*
X158242000Y-142942763D01*
X163245787Y-142942763D01*
X163275413Y-143212013D01*
X163275415Y-143212024D01*
X163317353Y-143372439D01*
X163343928Y-143474088D01*
X163449870Y-143723390D01*
X163521998Y-143841575D01*
X163590979Y-143954605D01*
X163590986Y-143954615D01*
X163764253Y-144162819D01*
X163764259Y-144162824D01*
X163869240Y-144256887D01*
X163965998Y-144343582D01*
X164191910Y-144493044D01*
X164437176Y-144608020D01*
X164437183Y-144608022D01*
X164437185Y-144608023D01*
X164696557Y-144686057D01*
X164696564Y-144686058D01*
X164696569Y-144686060D01*
X164964561Y-144725500D01*
X164964566Y-144725500D01*
X165167636Y-144725500D01*
X165219133Y-144721730D01*
X165370156Y-144710677D01*
X165482758Y-144685593D01*
X165634546Y-144651782D01*
X165634548Y-144651781D01*
X165634553Y-144651780D01*
X165887558Y-144555014D01*
X166123777Y-144422441D01*
X166338177Y-144256888D01*
X166526186Y-144061881D01*
X166683799Y-143841579D01*
X166757787Y-143697669D01*
X166807649Y-143600690D01*
X166807651Y-143600684D01*
X166807656Y-143600675D01*
X166895118Y-143344305D01*
X166944319Y-143077933D01*
X166954212Y-142807235D01*
X166924586Y-142537982D01*
X166856072Y-142275912D01*
X166750130Y-142026610D01*
X166609018Y-141795390D01*
X166519747Y-141688119D01*
X166435746Y-141587180D01*
X166435740Y-141587175D01*
X166234002Y-141406418D01*
X166008092Y-141256957D01*
X166008090Y-141256956D01*
X165762824Y-141141980D01*
X165762819Y-141141978D01*
X165762814Y-141141976D01*
X165503442Y-141063942D01*
X165503428Y-141063939D01*
X165387791Y-141046921D01*
X165235439Y-141024500D01*
X165032369Y-141024500D01*
X165032364Y-141024500D01*
X164829844Y-141039323D01*
X164829831Y-141039325D01*
X164565453Y-141098217D01*
X164565446Y-141098220D01*
X164312439Y-141194987D01*
X164076226Y-141327557D01*
X163861822Y-141493112D01*
X163673822Y-141688109D01*
X163673816Y-141688116D01*
X163516202Y-141908419D01*
X163516199Y-141908424D01*
X163392350Y-142149309D01*
X163392343Y-142149327D01*
X163304884Y-142405685D01*
X163304881Y-142405699D01*
X163255681Y-142672068D01*
X163255680Y-142672075D01*
X163245787Y-142942763D01*
X158242000Y-142942763D01*
X158242000Y-138915933D01*
X158261685Y-138848894D01*
X158314489Y-138803139D01*
X158336326Y-138795536D01*
X158338508Y-138794997D01*
X158348793Y-138792463D01*
X158489529Y-138718599D01*
X158608498Y-138613201D01*
X158698787Y-138482395D01*
X158755149Y-138333782D01*
X158774307Y-138176000D01*
X158755149Y-138018218D01*
X158698787Y-137869605D01*
X158608498Y-137738799D01*
X158608495Y-137738796D01*
X158608493Y-137738794D01*
X158489530Y-137633401D01*
X158425244Y-137599661D01*
X158348793Y-137559537D01*
X158348790Y-137559536D01*
X158348788Y-137559535D01*
X158336322Y-137556462D01*
X158275942Y-137521304D01*
X158244155Y-137459084D01*
X158242000Y-137436066D01*
X158242000Y-130934000D01*
X158261685Y-130866961D01*
X158314489Y-130821206D01*
X158366000Y-130810000D01*
X165989000Y-130810000D01*
X165989000Y-131058382D01*
G37*
G04 #@! TD.AperFunction*
G04 #@! TD*
G04 #@! TA.AperFunction,Conductor*
G04 #@! TO.N,GND*
G36*
X154248039Y-115462685D02*
G01*
X154293794Y-115515489D01*
X154305000Y-115567000D01*
X154305000Y-130431676D01*
X154285315Y-130498715D01*
X154232511Y-130544470D01*
X154180677Y-130555676D01*
X152269677Y-130550703D01*
X152202689Y-130530844D01*
X152157072Y-130477921D01*
X152146000Y-130426703D01*
X152146000Y-115567000D01*
X152165685Y-115499961D01*
X152218489Y-115454206D01*
X152270000Y-115443000D01*
X154181000Y-115443000D01*
X154248039Y-115462685D01*
G37*
G04 #@! TD.AperFunction*
G04 #@! TD*
G04 #@! TA.AperFunction,Conductor*
G04 #@! TO.N,GND*
G36*
X168091039Y-115462685D02*
G01*
X168136794Y-115515489D01*
X168148000Y-115567000D01*
X168148000Y-131064000D01*
X165989000Y-131058382D01*
X165989000Y-121986727D01*
X165992605Y-121957046D01*
X165994149Y-121950782D01*
X166013307Y-121793000D01*
X166013307Y-121792999D01*
X165994149Y-121635219D01*
X165992603Y-121628946D01*
X165989000Y-121599271D01*
X165989000Y-115567000D01*
X166008685Y-115499961D01*
X166061489Y-115454206D01*
X166113000Y-115443000D01*
X168024000Y-115443000D01*
X168091039Y-115462685D01*
G37*
G04 #@! TD.AperFunction*
G04 #@! TD*
M02*
